<?xml version="1.0" encoding="UTF-8" standalone="no"?>
<!-- Created with Inkscape (http://www.inkscape.org/) -->

<svg
   xmlns:dc="http://purl.org/dc/elements/1.1/"
   xmlns:cc="http://creativecommons.org/ns#"
   xmlns:rdf="http://www.w3.org/1999/02/22-rdf-syntax-ns#"
   xmlns:svg="http://www.w3.org/2000/svg"
   xmlns="http://www.w3.org/2000/svg"
   xmlns:sodipodi="http://sodipodi.sourceforge.net/DTD/sodipodi-0.dtd"
   xmlns:inkscape="http://www.inkscape.org/namespaces/inkscape"
   width="136.46875"
   height="42.1875"
   id="svg3657"
   version="1.1"
   inkscape:version="0.47 r22583"
   sodipodi:docname="logov2.0_ES.svg">
  <defs
     id="defs3659">
    <inkscape:perspective
       sodipodi:type="inkscape:persp3d"
       inkscape:vp_x="0 : 526.18109 : 1"
       inkscape:vp_y="0 : 1000 : 0"
       inkscape:vp_z="744.09448 : 526.18109 : 1"
       inkscape:persp3d-origin="372.04724 : 350.78739 : 1"
       id="perspective3665" />
    <inkscape:perspective
       id="perspective3652"
       inkscape:persp3d-origin="0.5 : 0.33333333 : 1"
       inkscape:vp_z="1 : 0.5 : 1"
       inkscape:vp_y="0 : 1000 : 0"
       inkscape:vp_x="0 : 0.5 : 1"
       sodipodi:type="inkscape:persp3d" />
  </defs>
  <sodipodi:namedview
     id="base"
     pagecolor="#ffffff"
     bordercolor="#666666"
     borderopacity="1.0"
     inkscape:pageopacity="0.0"
     inkscape:pageshadow="2"
     inkscape:zoom="3.959798"
     inkscape:cx="99.220975"
     inkscape:cy="16.993681"
     inkscape:document-units="px"
     inkscape:current-layer="layer1"
     showgrid="false"
     inkscape:window-width="1366"
     inkscape:window-height="719"
     inkscape:window-x="0"
     inkscape:window-y="0"
     inkscape:window-maximized="1" />
  <metadata
     id="metadata3662">
    <rdf:RDF>
      <cc:Work
         rdf:about="">
        <dc:format>image/svg+xml</dc:format>
        <dc:type
           rdf:resource="http://purl.org/dc/dcmitype/StillImage" />
        <dc:title />
      </cc:Work>
    </rdf:RDF>
  </metadata>
  <g
     inkscape:label="Capa 1"
     inkscape:groupmode="layer"
     id="layer1"
     transform="translate(-186.05134,-356.98272)">
    <path
       style="fill:#000000;fill-opacity:1;stroke:none"
       d="m 206.17634,356.98272 c -11.16169,0 -20.125,8.99456 -20.125,20.15625 l 0,1.875 c 0,11.16169 8.96331,20.15625 20.125,20.15625 l 96.1875,0 c 11.16169,0 20.15625,-8.99456 20.15625,-20.15625 l 0,-1.875 c 0,-11.16169 -8.99456,-20.15625 -20.15625,-20.15625 l -96.1875,0 z m 4.34375,4.34375 9.09375,0 1.9375,0.125 2.125,0.3125 c 1.72865,0.34577 3.27328,0.87106 4.65625,1.5625 1.41172,0.66269 2.57556,1.56632 3.46875,2.71875 0.63381,0.60506 1.04585,1.28218 1.21875,2.03125 0.20164,0.51863 0.28121,1.00535 0.28125,1.4375 l 0.0625,1.03125 -0.1875,1.15625 -0.25,1.3125 c -0.25934,0.51862 -0.48342,0.89941 -0.65625,1.1875 -0.14409,0.28813 -0.29592,0.55078 -0.46875,0.78125 -0.95081,1.15247 -2.15565,2.12592 -3.625,2.875 -0.89318,0.461 -1.64255,0.76465 -2.21875,0.9375 -0.57626,0.17288 -0.91603,0.2837 -1.03125,0.3125 -0.11527,1e-5 -0.52974,0.0386 -1.25,0.125 -0.89318,0.17288 -1.64255,0.28614 -2.21875,0.34375 -0.57625,0.0576 -1.18111,0.0938 -1.84375,0.0937 l -13.75,0 0,11.4375 0,2.28125 -9.15625,0 0,-2.28125 0,-11.4375 0,-4.59375 0,-4.53125 c 0,-0.83551 0.11326,-1.65957 0.34375,-2.4375 0.23049,-0.77788 0.57027,-1.455 1.03125,-2.03125 1.06602,-1.23886 2.30699,-2.1835 3.71875,-2.875 l 2.25,-0.875 c 0.20167,-0.0576 0.50532,-0.17085 0.9375,-0.34375 0.23048,-0.0576 0.67864,-0.13228 1.3125,-0.21875 1.52699,-0.28808 2.92223,-0.43747 4.21875,-0.4375 z m 25.4375,0 9.15625,0 0,2.3125 0,11.4375 18.3125,0 0,-11.4375 0,-2.3125 9.1875,0 0,2.3125 0,11.4375 0,4.59375 0,11.4375 0,2.28125 -9.1875,0 0,-2.28125 0,-11.4375 -18.3125,0 0,11.4375 0,2.28125 -9.15625,0 0,-2.28125 0,-11.4375 0,-4.59375 0,-11.4375 0,-2.3125 z m 53.0625,0 9.09375,0 1.9375,0.125 2.125,0.3125 c 1.72865,0.34577 3.27328,0.87106 4.65625,1.5625 1.41172,0.66269 2.57556,1.56632 3.46875,2.71875 0.63381,0.60506 1.0146,1.28218 1.1875,2.03125 0.20164,0.51863 0.31246,1.00535 0.3125,1.4375 l 0.0625,1.03125 c -4e-5,1.61346 -0.41207,3.00382 -1.21875,4.15625 -0.95081,1.21009 -2.00139,2.08004 -3.125,2.65625 0.86431,0.461 1.46673,0.87303 1.8125,1.21875 0.605,0.54743 1.05316,1.07028 1.3125,1.53125 0.25927,0.25932 0.44966,0.56053 0.59375,0.90625 0.17283,0.31694 0.31978,0.69772 0.40625,1.1875 0.14402,0.43218 0.21871,1.14299 0.21875,2.09375 l 0,6.8125 0,2.28125 -9.1875,0 0,-2.28125 0,-6.8125 c -0.14408,-1.06601 -0.33448,-1.89007 -0.59375,-2.4375 -0.48982,-0.72027 -1.01511,-1.20944 -1.5625,-1.46875 -0.51863,-0.2881 -1.00779,-0.47605 -1.46875,-0.5625 l -0.9375,-0.15625 -13.75,0 0,11.4375 0,2.28125 -9.15625,0 0,-2.28125 0,-11.4375 0,-4.59375 0,-4.53125 c 0,-0.83551 0.11326,-1.65957 0.34375,-2.4375 0.23049,-0.77788 0.57027,-1.455 1.03125,-2.03125 1.06602,-1.23886 2.30699,-2.1835 3.71875,-2.875 l 2.25,-0.875 c 0.20167,-0.0576 0.50532,-0.17085 0.9375,-0.34375 0.23048,-0.0576 0.67864,-0.13228 1.3125,-0.21875 1.52699,-0.28808 2.92223,-0.43747 4.21875,-0.4375 z m -78.5,4.59375 -1.125,0.21875 c -0.63386,0.0865 -1.12303,0.24072 -1.46875,0.5 l -0.75,0.65625 -0.78125,1 c -0.34575,0.57625 -0.53126,1.32806 -0.53125,2.25 l 0,4.53125 13.75,0 0.9375,-0.125 c 0.5762,-0.14404 1.14006,-0.36812 1.6875,-0.65625 0.63382,-0.40334 1.12055,-0.85394 1.4375,-1.34375 0.34571,-0.66264 0.49997,-1.45545 0.5,-2.40625 -0.14408,-1.066 -0.33448,-1.89006 -0.59375,-2.4375 -0.63388,-0.77788 -1.12304,-1.23092 -1.46875,-1.375 -0.51863,-0.34571 -1.04392,-0.5361 -1.5625,-0.59375 l -0.9375,-0.21875 -9.09375,0 z m 78.5,0 -1.125,0.21875 c -0.63386,0.0865 -1.12303,0.24072 -1.46875,0.5 l -0.78125,0.65625 -0.75,1 c -0.34575,0.57625 -0.53126,1.32806 -0.53125,2.25 l 0,4.53125 13.75,0 0.9375,-0.125 c 0.5762,-0.14404 1.14006,-0.36812 1.6875,-0.65625 0.63382,-0.40334 1.12055,-0.85394 1.4375,-1.34375 0.34571,-0.66264 0.49997,-1.45545 0.5,-2.40625 -0.14408,-1.066 -0.33448,-1.89006 -0.59375,-2.4375 -0.63388,-0.77788 -1.12304,-1.23092 -1.46875,-1.375 -0.51863,-0.34571 -1.04392,-0.5361 -1.5625,-0.59375 l -0.9375,-0.21875 -9.09375,0 z"
       id="rect2824-4-0-5-0" />
  </g>
</svg>
