G04 (created by PCBNEW (2010-03-14)-final) date jue 03 nov 2011 22:05:56 ART*
G01*
G70*
G90*
%MOIN*%
G04 Gerber Fmt 3.4, Leading zero omitted, Abs format*
%FSLAX34Y34*%
G04 APERTURE LIST*
%ADD10C,0.001000*%
%ADD11C,0.015000*%
%ADD12C,0.008000*%
G04 APERTURE END LIST*
G54D10*
G54D11*
X41250Y-29200D02*
X41400Y-29200D01*
X41250Y-53900D02*
X41250Y-29200D01*
X41400Y-53900D02*
X41250Y-53900D01*
X41550Y-53900D02*
X41400Y-53900D01*
X41700Y-53900D02*
X41550Y-53900D01*
X41850Y-53900D02*
X41700Y-53900D01*
X67250Y-53900D02*
X41850Y-53900D01*
X67250Y-29200D02*
X67250Y-53900D01*
X67150Y-29200D02*
X67250Y-29200D01*
X41300Y-29200D02*
X67150Y-29200D01*
G54D10*
X50041Y-35141D02*
X50159Y-35259D01*
X50159Y-35141D02*
X50041Y-35259D01*
X50041Y-35541D02*
X50159Y-35659D01*
X50159Y-35541D02*
X50041Y-35659D01*
X50041Y-35941D02*
X50159Y-36059D01*
X50159Y-35941D02*
X50041Y-36059D01*
X50441Y-35141D02*
X50559Y-35259D01*
X50559Y-35141D02*
X50441Y-35259D01*
X50441Y-35541D02*
X50559Y-35659D01*
X50559Y-35541D02*
X50441Y-35659D01*
X50441Y-35941D02*
X50559Y-36059D01*
X50559Y-35941D02*
X50441Y-36059D01*
X44025Y-47600D02*
X44022Y-47624D01*
X44015Y-47647D01*
X44004Y-47669D01*
X43988Y-47688D01*
X43969Y-47703D01*
X43948Y-47715D01*
X43925Y-47722D01*
X43900Y-47724D01*
X43877Y-47722D01*
X43854Y-47715D01*
X43832Y-47704D01*
X43813Y-47689D01*
X43797Y-47670D01*
X43786Y-47649D01*
X43778Y-47625D01*
X43776Y-47601D01*
X43778Y-47578D01*
X43784Y-47554D01*
X43795Y-47533D01*
X43811Y-47514D01*
X43829Y-47498D01*
X43850Y-47486D01*
X43874Y-47478D01*
X43898Y-47476D01*
X43921Y-47477D01*
X43945Y-47484D01*
X43966Y-47495D01*
X43986Y-47510D01*
X44002Y-47528D01*
X44014Y-47550D01*
X44021Y-47573D01*
X44024Y-47597D01*
X44025Y-47600D01*
X45325Y-35500D02*
X45322Y-35524D01*
X45315Y-35547D01*
X45304Y-35569D01*
X45288Y-35588D01*
X45269Y-35603D01*
X45248Y-35615D01*
X45225Y-35622D01*
X45200Y-35624D01*
X45177Y-35622D01*
X45154Y-35615D01*
X45132Y-35604D01*
X45113Y-35589D01*
X45097Y-35570D01*
X45086Y-35549D01*
X45078Y-35525D01*
X45076Y-35501D01*
X45078Y-35478D01*
X45084Y-35454D01*
X45095Y-35433D01*
X45111Y-35414D01*
X45129Y-35398D01*
X45150Y-35386D01*
X45174Y-35378D01*
X45198Y-35376D01*
X45221Y-35377D01*
X45245Y-35384D01*
X45266Y-35395D01*
X45286Y-35410D01*
X45302Y-35428D01*
X45314Y-35450D01*
X45321Y-35473D01*
X45324Y-35497D01*
X45325Y-35500D01*
X45575Y-37100D02*
X45572Y-37124D01*
X45565Y-37147D01*
X45554Y-37169D01*
X45538Y-37188D01*
X45519Y-37203D01*
X45498Y-37215D01*
X45475Y-37222D01*
X45450Y-37224D01*
X45427Y-37222D01*
X45404Y-37215D01*
X45382Y-37204D01*
X45363Y-37189D01*
X45347Y-37170D01*
X45336Y-37149D01*
X45328Y-37125D01*
X45326Y-37101D01*
X45328Y-37078D01*
X45334Y-37054D01*
X45345Y-37033D01*
X45361Y-37014D01*
X45379Y-36998D01*
X45400Y-36986D01*
X45424Y-36978D01*
X45448Y-36976D01*
X45471Y-36977D01*
X45495Y-36984D01*
X45516Y-36995D01*
X45536Y-37010D01*
X45552Y-37028D01*
X45564Y-37050D01*
X45571Y-37073D01*
X45574Y-37097D01*
X45575Y-37100D01*
X45825Y-35050D02*
X45822Y-35074D01*
X45815Y-35097D01*
X45804Y-35119D01*
X45788Y-35138D01*
X45769Y-35153D01*
X45748Y-35165D01*
X45725Y-35172D01*
X45700Y-35174D01*
X45677Y-35172D01*
X45654Y-35165D01*
X45632Y-35154D01*
X45613Y-35139D01*
X45597Y-35120D01*
X45586Y-35099D01*
X45578Y-35075D01*
X45576Y-35051D01*
X45578Y-35028D01*
X45584Y-35004D01*
X45595Y-34983D01*
X45611Y-34964D01*
X45629Y-34948D01*
X45650Y-34936D01*
X45674Y-34928D01*
X45698Y-34926D01*
X45721Y-34927D01*
X45745Y-34934D01*
X45766Y-34945D01*
X45786Y-34960D01*
X45802Y-34978D01*
X45814Y-35000D01*
X45821Y-35023D01*
X45824Y-35047D01*
X45825Y-35050D01*
X45875Y-36200D02*
X45872Y-36224D01*
X45865Y-36247D01*
X45854Y-36269D01*
X45838Y-36288D01*
X45819Y-36303D01*
X45798Y-36315D01*
X45775Y-36322D01*
X45750Y-36324D01*
X45727Y-36322D01*
X45704Y-36315D01*
X45682Y-36304D01*
X45663Y-36289D01*
X45647Y-36270D01*
X45636Y-36249D01*
X45628Y-36225D01*
X45626Y-36201D01*
X45628Y-36178D01*
X45634Y-36154D01*
X45645Y-36133D01*
X45661Y-36114D01*
X45679Y-36098D01*
X45700Y-36086D01*
X45724Y-36078D01*
X45748Y-36076D01*
X45771Y-36077D01*
X45795Y-36084D01*
X45816Y-36095D01*
X45836Y-36110D01*
X45852Y-36128D01*
X45864Y-36150D01*
X45871Y-36173D01*
X45874Y-36197D01*
X45875Y-36200D01*
X46125Y-46600D02*
X46122Y-46624D01*
X46115Y-46647D01*
X46104Y-46669D01*
X46088Y-46688D01*
X46069Y-46703D01*
X46048Y-46715D01*
X46025Y-46722D01*
X46000Y-46724D01*
X45977Y-46722D01*
X45954Y-46715D01*
X45932Y-46704D01*
X45913Y-46689D01*
X45897Y-46670D01*
X45886Y-46649D01*
X45878Y-46625D01*
X45876Y-46601D01*
X45878Y-46578D01*
X45884Y-46554D01*
X45895Y-46533D01*
X45911Y-46514D01*
X45929Y-46498D01*
X45950Y-46486D01*
X45974Y-46478D01*
X45998Y-46476D01*
X46021Y-46477D01*
X46045Y-46484D01*
X46066Y-46495D01*
X46086Y-46510D01*
X46102Y-46528D01*
X46114Y-46550D01*
X46121Y-46573D01*
X46124Y-46597D01*
X46125Y-46600D01*
X46725Y-38300D02*
X46722Y-38324D01*
X46715Y-38347D01*
X46704Y-38369D01*
X46688Y-38388D01*
X46669Y-38403D01*
X46648Y-38415D01*
X46625Y-38422D01*
X46600Y-38424D01*
X46577Y-38422D01*
X46554Y-38415D01*
X46532Y-38404D01*
X46513Y-38389D01*
X46497Y-38370D01*
X46486Y-38349D01*
X46478Y-38325D01*
X46476Y-38301D01*
X46478Y-38278D01*
X46484Y-38254D01*
X46495Y-38233D01*
X46511Y-38214D01*
X46529Y-38198D01*
X46550Y-38186D01*
X46574Y-38178D01*
X46598Y-38176D01*
X46621Y-38177D01*
X46645Y-38184D01*
X46666Y-38195D01*
X46686Y-38210D01*
X46702Y-38228D01*
X46714Y-38250D01*
X46721Y-38273D01*
X46724Y-38297D01*
X46725Y-38300D01*
X46975Y-46100D02*
X46972Y-46124D01*
X46965Y-46147D01*
X46954Y-46169D01*
X46938Y-46188D01*
X46919Y-46203D01*
X46898Y-46215D01*
X46875Y-46222D01*
X46850Y-46224D01*
X46827Y-46222D01*
X46804Y-46215D01*
X46782Y-46204D01*
X46763Y-46189D01*
X46747Y-46170D01*
X46736Y-46149D01*
X46728Y-46125D01*
X46726Y-46101D01*
X46728Y-46078D01*
X46734Y-46054D01*
X46745Y-46033D01*
X46761Y-46014D01*
X46779Y-45998D01*
X46800Y-45986D01*
X46824Y-45978D01*
X46848Y-45976D01*
X46871Y-45977D01*
X46895Y-45984D01*
X46916Y-45995D01*
X46936Y-46010D01*
X46952Y-46028D01*
X46964Y-46050D01*
X46971Y-46073D01*
X46974Y-46097D01*
X46975Y-46100D01*
X47225Y-31750D02*
X47222Y-31774D01*
X47215Y-31797D01*
X47204Y-31819D01*
X47188Y-31838D01*
X47169Y-31853D01*
X47148Y-31865D01*
X47125Y-31872D01*
X47100Y-31874D01*
X47077Y-31872D01*
X47054Y-31865D01*
X47032Y-31854D01*
X47013Y-31839D01*
X46997Y-31820D01*
X46986Y-31799D01*
X46978Y-31775D01*
X46976Y-31751D01*
X46978Y-31728D01*
X46984Y-31704D01*
X46995Y-31683D01*
X47011Y-31664D01*
X47029Y-31648D01*
X47050Y-31636D01*
X47074Y-31628D01*
X47098Y-31626D01*
X47121Y-31627D01*
X47145Y-31634D01*
X47166Y-31645D01*
X47186Y-31660D01*
X47202Y-31678D01*
X47214Y-31700D01*
X47221Y-31723D01*
X47224Y-31747D01*
X47225Y-31750D01*
X47875Y-38775D02*
X47872Y-38799D01*
X47865Y-38822D01*
X47854Y-38844D01*
X47838Y-38863D01*
X47819Y-38878D01*
X47798Y-38890D01*
X47775Y-38897D01*
X47750Y-38899D01*
X47727Y-38897D01*
X47704Y-38890D01*
X47682Y-38879D01*
X47663Y-38864D01*
X47647Y-38845D01*
X47636Y-38824D01*
X47628Y-38800D01*
X47626Y-38776D01*
X47628Y-38753D01*
X47634Y-38729D01*
X47645Y-38708D01*
X47661Y-38689D01*
X47679Y-38673D01*
X47700Y-38661D01*
X47724Y-38653D01*
X47748Y-38651D01*
X47771Y-38652D01*
X47795Y-38659D01*
X47816Y-38670D01*
X47836Y-38685D01*
X47852Y-38703D01*
X47864Y-38725D01*
X47871Y-38748D01*
X47874Y-38772D01*
X47875Y-38775D01*
X47975Y-38100D02*
X47972Y-38124D01*
X47965Y-38147D01*
X47954Y-38169D01*
X47938Y-38188D01*
X47919Y-38203D01*
X47898Y-38215D01*
X47875Y-38222D01*
X47850Y-38224D01*
X47827Y-38222D01*
X47804Y-38215D01*
X47782Y-38204D01*
X47763Y-38189D01*
X47747Y-38170D01*
X47736Y-38149D01*
X47728Y-38125D01*
X47726Y-38101D01*
X47728Y-38078D01*
X47734Y-38054D01*
X47745Y-38033D01*
X47761Y-38014D01*
X47779Y-37998D01*
X47800Y-37986D01*
X47824Y-37978D01*
X47848Y-37976D01*
X47871Y-37977D01*
X47895Y-37984D01*
X47916Y-37995D01*
X47936Y-38010D01*
X47952Y-38028D01*
X47964Y-38050D01*
X47971Y-38073D01*
X47974Y-38097D01*
X47975Y-38100D01*
X47975Y-46900D02*
X47972Y-46924D01*
X47965Y-46947D01*
X47954Y-46969D01*
X47938Y-46988D01*
X47919Y-47003D01*
X47898Y-47015D01*
X47875Y-47022D01*
X47850Y-47024D01*
X47827Y-47022D01*
X47804Y-47015D01*
X47782Y-47004D01*
X47763Y-46989D01*
X47747Y-46970D01*
X47736Y-46949D01*
X47728Y-46925D01*
X47726Y-46901D01*
X47728Y-46878D01*
X47734Y-46854D01*
X47745Y-46833D01*
X47761Y-46814D01*
X47779Y-46798D01*
X47800Y-46786D01*
X47824Y-46778D01*
X47848Y-46776D01*
X47871Y-46777D01*
X47895Y-46784D01*
X47916Y-46795D01*
X47936Y-46810D01*
X47952Y-46828D01*
X47964Y-46850D01*
X47971Y-46873D01*
X47974Y-46897D01*
X47975Y-46900D01*
X48075Y-31600D02*
X48072Y-31624D01*
X48065Y-31647D01*
X48054Y-31669D01*
X48038Y-31688D01*
X48019Y-31703D01*
X47998Y-31715D01*
X47975Y-31722D01*
X47950Y-31724D01*
X47927Y-31722D01*
X47904Y-31715D01*
X47882Y-31704D01*
X47863Y-31689D01*
X47847Y-31670D01*
X47836Y-31649D01*
X47828Y-31625D01*
X47826Y-31601D01*
X47828Y-31578D01*
X47834Y-31554D01*
X47845Y-31533D01*
X47861Y-31514D01*
X47879Y-31498D01*
X47900Y-31486D01*
X47924Y-31478D01*
X47948Y-31476D01*
X47971Y-31477D01*
X47995Y-31484D01*
X48016Y-31495D01*
X48036Y-31510D01*
X48052Y-31528D01*
X48064Y-31550D01*
X48071Y-31573D01*
X48074Y-31597D01*
X48075Y-31600D01*
X48075Y-33600D02*
X48072Y-33624D01*
X48065Y-33647D01*
X48054Y-33669D01*
X48038Y-33688D01*
X48019Y-33703D01*
X47998Y-33715D01*
X47975Y-33722D01*
X47950Y-33724D01*
X47927Y-33722D01*
X47904Y-33715D01*
X47882Y-33704D01*
X47863Y-33689D01*
X47847Y-33670D01*
X47836Y-33649D01*
X47828Y-33625D01*
X47826Y-33601D01*
X47828Y-33578D01*
X47834Y-33554D01*
X47845Y-33533D01*
X47861Y-33514D01*
X47879Y-33498D01*
X47900Y-33486D01*
X47924Y-33478D01*
X47948Y-33476D01*
X47971Y-33477D01*
X47995Y-33484D01*
X48016Y-33495D01*
X48036Y-33510D01*
X48052Y-33528D01*
X48064Y-33550D01*
X48071Y-33573D01*
X48074Y-33597D01*
X48075Y-33600D01*
X48225Y-50850D02*
X48222Y-50874D01*
X48215Y-50897D01*
X48204Y-50919D01*
X48188Y-50938D01*
X48169Y-50953D01*
X48148Y-50965D01*
X48125Y-50972D01*
X48100Y-50974D01*
X48077Y-50972D01*
X48054Y-50965D01*
X48032Y-50954D01*
X48013Y-50939D01*
X47997Y-50920D01*
X47986Y-50899D01*
X47978Y-50875D01*
X47976Y-50851D01*
X47978Y-50828D01*
X47984Y-50804D01*
X47995Y-50783D01*
X48011Y-50764D01*
X48029Y-50748D01*
X48050Y-50736D01*
X48074Y-50728D01*
X48098Y-50726D01*
X48121Y-50727D01*
X48145Y-50734D01*
X48166Y-50745D01*
X48186Y-50760D01*
X48202Y-50778D01*
X48214Y-50800D01*
X48221Y-50823D01*
X48224Y-50847D01*
X48225Y-50850D01*
X48325Y-37450D02*
X48322Y-37474D01*
X48315Y-37497D01*
X48304Y-37519D01*
X48288Y-37538D01*
X48269Y-37553D01*
X48248Y-37565D01*
X48225Y-37572D01*
X48200Y-37574D01*
X48177Y-37572D01*
X48154Y-37565D01*
X48132Y-37554D01*
X48113Y-37539D01*
X48097Y-37520D01*
X48086Y-37499D01*
X48078Y-37475D01*
X48076Y-37451D01*
X48078Y-37428D01*
X48084Y-37404D01*
X48095Y-37383D01*
X48111Y-37364D01*
X48129Y-37348D01*
X48150Y-37336D01*
X48174Y-37328D01*
X48198Y-37326D01*
X48221Y-37327D01*
X48245Y-37334D01*
X48266Y-37345D01*
X48286Y-37360D01*
X48302Y-37378D01*
X48314Y-37400D01*
X48321Y-37423D01*
X48324Y-37447D01*
X48325Y-37450D01*
X48725Y-30600D02*
X48722Y-30624D01*
X48715Y-30647D01*
X48704Y-30669D01*
X48688Y-30688D01*
X48669Y-30703D01*
X48648Y-30715D01*
X48625Y-30722D01*
X48600Y-30724D01*
X48577Y-30722D01*
X48554Y-30715D01*
X48532Y-30704D01*
X48513Y-30689D01*
X48497Y-30670D01*
X48486Y-30649D01*
X48478Y-30625D01*
X48476Y-30601D01*
X48478Y-30578D01*
X48484Y-30554D01*
X48495Y-30533D01*
X48511Y-30514D01*
X48529Y-30498D01*
X48550Y-30486D01*
X48574Y-30478D01*
X48598Y-30476D01*
X48621Y-30477D01*
X48645Y-30484D01*
X48666Y-30495D01*
X48686Y-30510D01*
X48702Y-30528D01*
X48714Y-30550D01*
X48721Y-30573D01*
X48724Y-30597D01*
X48725Y-30600D01*
X48775Y-49700D02*
X48772Y-49724D01*
X48765Y-49747D01*
X48754Y-49769D01*
X48738Y-49788D01*
X48719Y-49803D01*
X48698Y-49815D01*
X48675Y-49822D01*
X48650Y-49824D01*
X48627Y-49822D01*
X48604Y-49815D01*
X48582Y-49804D01*
X48563Y-49789D01*
X48547Y-49770D01*
X48536Y-49749D01*
X48528Y-49725D01*
X48526Y-49701D01*
X48528Y-49678D01*
X48534Y-49654D01*
X48545Y-49633D01*
X48561Y-49614D01*
X48579Y-49598D01*
X48600Y-49586D01*
X48624Y-49578D01*
X48648Y-49576D01*
X48671Y-49577D01*
X48695Y-49584D01*
X48716Y-49595D01*
X48736Y-49610D01*
X48752Y-49628D01*
X48764Y-49650D01*
X48771Y-49673D01*
X48774Y-49697D01*
X48775Y-49700D01*
X48925Y-47400D02*
X48922Y-47424D01*
X48915Y-47447D01*
X48904Y-47469D01*
X48888Y-47488D01*
X48869Y-47503D01*
X48848Y-47515D01*
X48825Y-47522D01*
X48800Y-47524D01*
X48777Y-47522D01*
X48754Y-47515D01*
X48732Y-47504D01*
X48713Y-47489D01*
X48697Y-47470D01*
X48686Y-47449D01*
X48678Y-47425D01*
X48676Y-47401D01*
X48678Y-47378D01*
X48684Y-47354D01*
X48695Y-47333D01*
X48711Y-47314D01*
X48729Y-47298D01*
X48750Y-47286D01*
X48774Y-47278D01*
X48798Y-47276D01*
X48821Y-47277D01*
X48845Y-47284D01*
X48866Y-47295D01*
X48886Y-47310D01*
X48902Y-47328D01*
X48914Y-47350D01*
X48921Y-47373D01*
X48924Y-47397D01*
X48925Y-47400D01*
X49375Y-47250D02*
X49372Y-47274D01*
X49365Y-47297D01*
X49354Y-47319D01*
X49338Y-47338D01*
X49319Y-47353D01*
X49298Y-47365D01*
X49275Y-47372D01*
X49250Y-47374D01*
X49227Y-47372D01*
X49204Y-47365D01*
X49182Y-47354D01*
X49163Y-47339D01*
X49147Y-47320D01*
X49136Y-47299D01*
X49128Y-47275D01*
X49126Y-47251D01*
X49128Y-47228D01*
X49134Y-47204D01*
X49145Y-47183D01*
X49161Y-47164D01*
X49179Y-47148D01*
X49200Y-47136D01*
X49224Y-47128D01*
X49248Y-47126D01*
X49271Y-47127D01*
X49295Y-47134D01*
X49316Y-47145D01*
X49336Y-47160D01*
X49352Y-47178D01*
X49364Y-47200D01*
X49371Y-47223D01*
X49374Y-47247D01*
X49375Y-47250D01*
X49425Y-37125D02*
X49422Y-37149D01*
X49415Y-37172D01*
X49404Y-37194D01*
X49388Y-37213D01*
X49369Y-37228D01*
X49348Y-37240D01*
X49325Y-37247D01*
X49300Y-37249D01*
X49277Y-37247D01*
X49254Y-37240D01*
X49232Y-37229D01*
X49213Y-37214D01*
X49197Y-37195D01*
X49186Y-37174D01*
X49178Y-37150D01*
X49176Y-37126D01*
X49178Y-37103D01*
X49184Y-37079D01*
X49195Y-37058D01*
X49211Y-37039D01*
X49229Y-37023D01*
X49250Y-37011D01*
X49274Y-37003D01*
X49298Y-37001D01*
X49321Y-37002D01*
X49345Y-37009D01*
X49366Y-37020D01*
X49386Y-37035D01*
X49402Y-37053D01*
X49414Y-37075D01*
X49421Y-37098D01*
X49424Y-37122D01*
X49425Y-37125D01*
X49475Y-45250D02*
X49472Y-45274D01*
X49465Y-45297D01*
X49454Y-45319D01*
X49438Y-45338D01*
X49419Y-45353D01*
X49398Y-45365D01*
X49375Y-45372D01*
X49350Y-45374D01*
X49327Y-45372D01*
X49304Y-45365D01*
X49282Y-45354D01*
X49263Y-45339D01*
X49247Y-45320D01*
X49236Y-45299D01*
X49228Y-45275D01*
X49226Y-45251D01*
X49228Y-45228D01*
X49234Y-45204D01*
X49245Y-45183D01*
X49261Y-45164D01*
X49279Y-45148D01*
X49300Y-45136D01*
X49324Y-45128D01*
X49348Y-45126D01*
X49371Y-45127D01*
X49395Y-45134D01*
X49416Y-45145D01*
X49436Y-45160D01*
X49452Y-45178D01*
X49464Y-45200D01*
X49471Y-45223D01*
X49474Y-45247D01*
X49475Y-45250D01*
X49725Y-46700D02*
X49722Y-46724D01*
X49715Y-46747D01*
X49704Y-46769D01*
X49688Y-46788D01*
X49669Y-46803D01*
X49648Y-46815D01*
X49625Y-46822D01*
X49600Y-46824D01*
X49577Y-46822D01*
X49554Y-46815D01*
X49532Y-46804D01*
X49513Y-46789D01*
X49497Y-46770D01*
X49486Y-46749D01*
X49478Y-46725D01*
X49476Y-46701D01*
X49478Y-46678D01*
X49484Y-46654D01*
X49495Y-46633D01*
X49511Y-46614D01*
X49529Y-46598D01*
X49550Y-46586D01*
X49574Y-46578D01*
X49598Y-46576D01*
X49621Y-46577D01*
X49645Y-46584D01*
X49666Y-46595D01*
X49686Y-46610D01*
X49702Y-46628D01*
X49714Y-46650D01*
X49721Y-46673D01*
X49724Y-46697D01*
X49725Y-46700D01*
X49775Y-34350D02*
X49772Y-34374D01*
X49765Y-34397D01*
X49754Y-34419D01*
X49738Y-34438D01*
X49719Y-34453D01*
X49698Y-34465D01*
X49675Y-34472D01*
X49650Y-34474D01*
X49627Y-34472D01*
X49604Y-34465D01*
X49582Y-34454D01*
X49563Y-34439D01*
X49547Y-34420D01*
X49536Y-34399D01*
X49528Y-34375D01*
X49526Y-34351D01*
X49528Y-34328D01*
X49534Y-34304D01*
X49545Y-34283D01*
X49561Y-34264D01*
X49579Y-34248D01*
X49600Y-34236D01*
X49624Y-34228D01*
X49648Y-34226D01*
X49671Y-34227D01*
X49695Y-34234D01*
X49716Y-34245D01*
X49736Y-34260D01*
X49752Y-34278D01*
X49764Y-34300D01*
X49771Y-34323D01*
X49774Y-34347D01*
X49775Y-34350D01*
X49825Y-45200D02*
X49822Y-45224D01*
X49815Y-45247D01*
X49804Y-45269D01*
X49788Y-45288D01*
X49769Y-45303D01*
X49748Y-45315D01*
X49725Y-45322D01*
X49700Y-45324D01*
X49677Y-45322D01*
X49654Y-45315D01*
X49632Y-45304D01*
X49613Y-45289D01*
X49597Y-45270D01*
X49586Y-45249D01*
X49578Y-45225D01*
X49576Y-45201D01*
X49578Y-45178D01*
X49584Y-45154D01*
X49595Y-45133D01*
X49611Y-45114D01*
X49629Y-45098D01*
X49650Y-45086D01*
X49674Y-45078D01*
X49698Y-45076D01*
X49721Y-45077D01*
X49745Y-45084D01*
X49766Y-45095D01*
X49786Y-45110D01*
X49802Y-45128D01*
X49814Y-45150D01*
X49821Y-45173D01*
X49824Y-45197D01*
X49825Y-45200D01*
X50125Y-39450D02*
X50122Y-39474D01*
X50115Y-39497D01*
X50104Y-39519D01*
X50088Y-39538D01*
X50069Y-39553D01*
X50048Y-39565D01*
X50025Y-39572D01*
X50000Y-39574D01*
X49977Y-39572D01*
X49954Y-39565D01*
X49932Y-39554D01*
X49913Y-39539D01*
X49897Y-39520D01*
X49886Y-39499D01*
X49878Y-39475D01*
X49876Y-39451D01*
X49878Y-39428D01*
X49884Y-39404D01*
X49895Y-39383D01*
X49911Y-39364D01*
X49929Y-39348D01*
X49950Y-39336D01*
X49974Y-39328D01*
X49998Y-39326D01*
X50021Y-39327D01*
X50045Y-39334D01*
X50066Y-39345D01*
X50086Y-39360D01*
X50102Y-39378D01*
X50114Y-39400D01*
X50121Y-39423D01*
X50124Y-39447D01*
X50125Y-39450D01*
X50325Y-47600D02*
X50322Y-47624D01*
X50315Y-47647D01*
X50304Y-47669D01*
X50288Y-47688D01*
X50269Y-47703D01*
X50248Y-47715D01*
X50225Y-47722D01*
X50200Y-47724D01*
X50177Y-47722D01*
X50154Y-47715D01*
X50132Y-47704D01*
X50113Y-47689D01*
X50097Y-47670D01*
X50086Y-47649D01*
X50078Y-47625D01*
X50076Y-47601D01*
X50078Y-47578D01*
X50084Y-47554D01*
X50095Y-47533D01*
X50111Y-47514D01*
X50129Y-47498D01*
X50150Y-47486D01*
X50174Y-47478D01*
X50198Y-47476D01*
X50221Y-47477D01*
X50245Y-47484D01*
X50266Y-47495D01*
X50286Y-47510D01*
X50302Y-47528D01*
X50314Y-47550D01*
X50321Y-47573D01*
X50324Y-47597D01*
X50325Y-47600D01*
X50500Y-31575D02*
X50497Y-31599D01*
X50490Y-31622D01*
X50479Y-31644D01*
X50463Y-31663D01*
X50444Y-31678D01*
X50423Y-31690D01*
X50400Y-31697D01*
X50375Y-31699D01*
X50352Y-31697D01*
X50329Y-31690D01*
X50307Y-31679D01*
X50288Y-31664D01*
X50272Y-31645D01*
X50261Y-31624D01*
X50253Y-31600D01*
X50251Y-31576D01*
X50253Y-31553D01*
X50259Y-31529D01*
X50270Y-31508D01*
X50286Y-31489D01*
X50304Y-31473D01*
X50325Y-31461D01*
X50349Y-31453D01*
X50373Y-31451D01*
X50396Y-31452D01*
X50420Y-31459D01*
X50441Y-31470D01*
X50461Y-31485D01*
X50477Y-31503D01*
X50489Y-31525D01*
X50496Y-31548D01*
X50499Y-31572D01*
X50500Y-31575D01*
X50775Y-38550D02*
X50772Y-38574D01*
X50765Y-38597D01*
X50754Y-38619D01*
X50738Y-38638D01*
X50719Y-38653D01*
X50698Y-38665D01*
X50675Y-38672D01*
X50650Y-38674D01*
X50627Y-38672D01*
X50604Y-38665D01*
X50582Y-38654D01*
X50563Y-38639D01*
X50547Y-38620D01*
X50536Y-38599D01*
X50528Y-38575D01*
X50526Y-38551D01*
X50528Y-38528D01*
X50534Y-38504D01*
X50545Y-38483D01*
X50561Y-38464D01*
X50579Y-38448D01*
X50600Y-38436D01*
X50624Y-38428D01*
X50648Y-38426D01*
X50671Y-38427D01*
X50695Y-38434D01*
X50716Y-38445D01*
X50736Y-38460D01*
X50752Y-38478D01*
X50764Y-38500D01*
X50771Y-38523D01*
X50774Y-38547D01*
X50775Y-38550D01*
X50925Y-36900D02*
X50922Y-36924D01*
X50915Y-36947D01*
X50904Y-36969D01*
X50888Y-36988D01*
X50869Y-37003D01*
X50848Y-37015D01*
X50825Y-37022D01*
X50800Y-37024D01*
X50777Y-37022D01*
X50754Y-37015D01*
X50732Y-37004D01*
X50713Y-36989D01*
X50697Y-36970D01*
X50686Y-36949D01*
X50678Y-36925D01*
X50676Y-36901D01*
X50678Y-36878D01*
X50684Y-36854D01*
X50695Y-36833D01*
X50711Y-36814D01*
X50729Y-36798D01*
X50750Y-36786D01*
X50774Y-36778D01*
X50798Y-36776D01*
X50821Y-36777D01*
X50845Y-36784D01*
X50866Y-36795D01*
X50886Y-36810D01*
X50902Y-36828D01*
X50914Y-36850D01*
X50921Y-36873D01*
X50924Y-36897D01*
X50925Y-36900D01*
X50975Y-44350D02*
X50972Y-44374D01*
X50965Y-44397D01*
X50954Y-44419D01*
X50938Y-44438D01*
X50919Y-44453D01*
X50898Y-44465D01*
X50875Y-44472D01*
X50850Y-44474D01*
X50827Y-44472D01*
X50804Y-44465D01*
X50782Y-44454D01*
X50763Y-44439D01*
X50747Y-44420D01*
X50736Y-44399D01*
X50728Y-44375D01*
X50726Y-44351D01*
X50728Y-44328D01*
X50734Y-44304D01*
X50745Y-44283D01*
X50761Y-44264D01*
X50779Y-44248D01*
X50800Y-44236D01*
X50824Y-44228D01*
X50848Y-44226D01*
X50871Y-44227D01*
X50895Y-44234D01*
X50916Y-44245D01*
X50936Y-44260D01*
X50952Y-44278D01*
X50964Y-44300D01*
X50971Y-44323D01*
X50974Y-44347D01*
X50975Y-44350D01*
X51025Y-48850D02*
X51022Y-48874D01*
X51015Y-48897D01*
X51004Y-48919D01*
X50988Y-48938D01*
X50969Y-48953D01*
X50948Y-48965D01*
X50925Y-48972D01*
X50900Y-48974D01*
X50877Y-48972D01*
X50854Y-48965D01*
X50832Y-48954D01*
X50813Y-48939D01*
X50797Y-48920D01*
X50786Y-48899D01*
X50778Y-48875D01*
X50776Y-48851D01*
X50778Y-48828D01*
X50784Y-48804D01*
X50795Y-48783D01*
X50811Y-48764D01*
X50829Y-48748D01*
X50850Y-48736D01*
X50874Y-48728D01*
X50898Y-48726D01*
X50921Y-48727D01*
X50945Y-48734D01*
X50966Y-48745D01*
X50986Y-48760D01*
X51002Y-48778D01*
X51014Y-48800D01*
X51021Y-48823D01*
X51024Y-48847D01*
X51025Y-48850D01*
X51075Y-50700D02*
X51072Y-50724D01*
X51065Y-50747D01*
X51054Y-50769D01*
X51038Y-50788D01*
X51019Y-50803D01*
X50998Y-50815D01*
X50975Y-50822D01*
X50950Y-50824D01*
X50927Y-50822D01*
X50904Y-50815D01*
X50882Y-50804D01*
X50863Y-50789D01*
X50847Y-50770D01*
X50836Y-50749D01*
X50828Y-50725D01*
X50826Y-50701D01*
X50828Y-50678D01*
X50834Y-50654D01*
X50845Y-50633D01*
X50861Y-50614D01*
X50879Y-50598D01*
X50900Y-50586D01*
X50924Y-50578D01*
X50948Y-50576D01*
X50971Y-50577D01*
X50995Y-50584D01*
X51016Y-50595D01*
X51036Y-50610D01*
X51052Y-50628D01*
X51064Y-50650D01*
X51071Y-50673D01*
X51074Y-50697D01*
X51075Y-50700D01*
X51125Y-44850D02*
X51122Y-44874D01*
X51115Y-44897D01*
X51104Y-44919D01*
X51088Y-44938D01*
X51069Y-44953D01*
X51048Y-44965D01*
X51025Y-44972D01*
X51000Y-44974D01*
X50977Y-44972D01*
X50954Y-44965D01*
X50932Y-44954D01*
X50913Y-44939D01*
X50897Y-44920D01*
X50886Y-44899D01*
X50878Y-44875D01*
X50876Y-44851D01*
X50878Y-44828D01*
X50884Y-44804D01*
X50895Y-44783D01*
X50911Y-44764D01*
X50929Y-44748D01*
X50950Y-44736D01*
X50974Y-44728D01*
X50998Y-44726D01*
X51021Y-44727D01*
X51045Y-44734D01*
X51066Y-44745D01*
X51086Y-44760D01*
X51102Y-44778D01*
X51114Y-44800D01*
X51121Y-44823D01*
X51124Y-44847D01*
X51125Y-44850D01*
X51475Y-48300D02*
X51472Y-48324D01*
X51465Y-48347D01*
X51454Y-48369D01*
X51438Y-48388D01*
X51419Y-48403D01*
X51398Y-48415D01*
X51375Y-48422D01*
X51350Y-48424D01*
X51327Y-48422D01*
X51304Y-48415D01*
X51282Y-48404D01*
X51263Y-48389D01*
X51247Y-48370D01*
X51236Y-48349D01*
X51228Y-48325D01*
X51226Y-48301D01*
X51228Y-48278D01*
X51234Y-48254D01*
X51245Y-48233D01*
X51261Y-48214D01*
X51279Y-48198D01*
X51300Y-48186D01*
X51324Y-48178D01*
X51348Y-48176D01*
X51371Y-48177D01*
X51395Y-48184D01*
X51416Y-48195D01*
X51436Y-48210D01*
X51452Y-48228D01*
X51464Y-48250D01*
X51471Y-48273D01*
X51474Y-48297D01*
X51475Y-48300D01*
X51475Y-49400D02*
X51472Y-49424D01*
X51465Y-49447D01*
X51454Y-49469D01*
X51438Y-49488D01*
X51419Y-49503D01*
X51398Y-49515D01*
X51375Y-49522D01*
X51350Y-49524D01*
X51327Y-49522D01*
X51304Y-49515D01*
X51282Y-49504D01*
X51263Y-49489D01*
X51247Y-49470D01*
X51236Y-49449D01*
X51228Y-49425D01*
X51226Y-49401D01*
X51228Y-49378D01*
X51234Y-49354D01*
X51245Y-49333D01*
X51261Y-49314D01*
X51279Y-49298D01*
X51300Y-49286D01*
X51324Y-49278D01*
X51348Y-49276D01*
X51371Y-49277D01*
X51395Y-49284D01*
X51416Y-49295D01*
X51436Y-49310D01*
X51452Y-49328D01*
X51464Y-49350D01*
X51471Y-49373D01*
X51474Y-49397D01*
X51475Y-49400D01*
X51825Y-48650D02*
X51822Y-48674D01*
X51815Y-48697D01*
X51804Y-48719D01*
X51788Y-48738D01*
X51769Y-48753D01*
X51748Y-48765D01*
X51725Y-48772D01*
X51700Y-48774D01*
X51677Y-48772D01*
X51654Y-48765D01*
X51632Y-48754D01*
X51613Y-48739D01*
X51597Y-48720D01*
X51586Y-48699D01*
X51578Y-48675D01*
X51576Y-48651D01*
X51578Y-48628D01*
X51584Y-48604D01*
X51595Y-48583D01*
X51611Y-48564D01*
X51629Y-48548D01*
X51650Y-48536D01*
X51674Y-48528D01*
X51698Y-48526D01*
X51721Y-48527D01*
X51745Y-48534D01*
X51766Y-48545D01*
X51786Y-48560D01*
X51802Y-48578D01*
X51814Y-48600D01*
X51821Y-48623D01*
X51824Y-48647D01*
X51825Y-48650D01*
X51950Y-37300D02*
X51947Y-37324D01*
X51940Y-37347D01*
X51929Y-37369D01*
X51913Y-37388D01*
X51894Y-37403D01*
X51873Y-37415D01*
X51850Y-37422D01*
X51825Y-37424D01*
X51802Y-37422D01*
X51779Y-37415D01*
X51757Y-37404D01*
X51738Y-37389D01*
X51722Y-37370D01*
X51711Y-37349D01*
X51703Y-37325D01*
X51701Y-37301D01*
X51703Y-37278D01*
X51709Y-37254D01*
X51720Y-37233D01*
X51736Y-37214D01*
X51754Y-37198D01*
X51775Y-37186D01*
X51799Y-37178D01*
X51823Y-37176D01*
X51846Y-37177D01*
X51870Y-37184D01*
X51891Y-37195D01*
X51911Y-37210D01*
X51927Y-37228D01*
X51939Y-37250D01*
X51946Y-37273D01*
X51949Y-37297D01*
X51950Y-37300D01*
X51975Y-50800D02*
X51972Y-50824D01*
X51965Y-50847D01*
X51954Y-50869D01*
X51938Y-50888D01*
X51919Y-50903D01*
X51898Y-50915D01*
X51875Y-50922D01*
X51850Y-50924D01*
X51827Y-50922D01*
X51804Y-50915D01*
X51782Y-50904D01*
X51763Y-50889D01*
X51747Y-50870D01*
X51736Y-50849D01*
X51728Y-50825D01*
X51726Y-50801D01*
X51728Y-50778D01*
X51734Y-50754D01*
X51745Y-50733D01*
X51761Y-50714D01*
X51779Y-50698D01*
X51800Y-50686D01*
X51824Y-50678D01*
X51848Y-50676D01*
X51871Y-50677D01*
X51895Y-50684D01*
X51916Y-50695D01*
X51936Y-50710D01*
X51952Y-50728D01*
X51964Y-50750D01*
X51971Y-50773D01*
X51974Y-50797D01*
X51975Y-50800D01*
X52025Y-49200D02*
X52022Y-49224D01*
X52015Y-49247D01*
X52004Y-49269D01*
X51988Y-49288D01*
X51969Y-49303D01*
X51948Y-49315D01*
X51925Y-49322D01*
X51900Y-49324D01*
X51877Y-49322D01*
X51854Y-49315D01*
X51832Y-49304D01*
X51813Y-49289D01*
X51797Y-49270D01*
X51786Y-49249D01*
X51778Y-49225D01*
X51776Y-49201D01*
X51778Y-49178D01*
X51784Y-49154D01*
X51795Y-49133D01*
X51811Y-49114D01*
X51829Y-49098D01*
X51850Y-49086D01*
X51874Y-49078D01*
X51898Y-49076D01*
X51921Y-49077D01*
X51945Y-49084D01*
X51966Y-49095D01*
X51986Y-49110D01*
X52002Y-49128D01*
X52014Y-49150D01*
X52021Y-49173D01*
X52024Y-49197D01*
X52025Y-49200D01*
X52125Y-33150D02*
X52122Y-33174D01*
X52115Y-33197D01*
X52104Y-33219D01*
X52088Y-33238D01*
X52069Y-33253D01*
X52048Y-33265D01*
X52025Y-33272D01*
X52000Y-33274D01*
X51977Y-33272D01*
X51954Y-33265D01*
X51932Y-33254D01*
X51913Y-33239D01*
X51897Y-33220D01*
X51886Y-33199D01*
X51878Y-33175D01*
X51876Y-33151D01*
X51878Y-33128D01*
X51884Y-33104D01*
X51895Y-33083D01*
X51911Y-33064D01*
X51929Y-33048D01*
X51950Y-33036D01*
X51974Y-33028D01*
X51998Y-33026D01*
X52021Y-33027D01*
X52045Y-33034D01*
X52066Y-33045D01*
X52086Y-33060D01*
X52102Y-33078D01*
X52114Y-33100D01*
X52121Y-33123D01*
X52124Y-33147D01*
X52125Y-33150D01*
X52175Y-44600D02*
X52172Y-44624D01*
X52165Y-44647D01*
X52154Y-44669D01*
X52138Y-44688D01*
X52119Y-44703D01*
X52098Y-44715D01*
X52075Y-44722D01*
X52050Y-44724D01*
X52027Y-44722D01*
X52004Y-44715D01*
X51982Y-44704D01*
X51963Y-44689D01*
X51947Y-44670D01*
X51936Y-44649D01*
X51928Y-44625D01*
X51926Y-44601D01*
X51928Y-44578D01*
X51934Y-44554D01*
X51945Y-44533D01*
X51961Y-44514D01*
X51979Y-44498D01*
X52000Y-44486D01*
X52024Y-44478D01*
X52048Y-44476D01*
X52071Y-44477D01*
X52095Y-44484D01*
X52116Y-44495D01*
X52136Y-44510D01*
X52152Y-44528D01*
X52164Y-44550D01*
X52171Y-44573D01*
X52174Y-44597D01*
X52175Y-44600D01*
X52325Y-47850D02*
X52322Y-47874D01*
X52315Y-47897D01*
X52304Y-47919D01*
X52288Y-47938D01*
X52269Y-47953D01*
X52248Y-47965D01*
X52225Y-47972D01*
X52200Y-47974D01*
X52177Y-47972D01*
X52154Y-47965D01*
X52132Y-47954D01*
X52113Y-47939D01*
X52097Y-47920D01*
X52086Y-47899D01*
X52078Y-47875D01*
X52076Y-47851D01*
X52078Y-47828D01*
X52084Y-47804D01*
X52095Y-47783D01*
X52111Y-47764D01*
X52129Y-47748D01*
X52150Y-47736D01*
X52174Y-47728D01*
X52198Y-47726D01*
X52221Y-47727D01*
X52245Y-47734D01*
X52266Y-47745D01*
X52286Y-47760D01*
X52302Y-47778D01*
X52314Y-47800D01*
X52321Y-47823D01*
X52324Y-47847D01*
X52325Y-47850D01*
X52425Y-38800D02*
X52422Y-38824D01*
X52415Y-38847D01*
X52404Y-38869D01*
X52388Y-38888D01*
X52369Y-38903D01*
X52348Y-38915D01*
X52325Y-38922D01*
X52300Y-38924D01*
X52277Y-38922D01*
X52254Y-38915D01*
X52232Y-38904D01*
X52213Y-38889D01*
X52197Y-38870D01*
X52186Y-38849D01*
X52178Y-38825D01*
X52176Y-38801D01*
X52178Y-38778D01*
X52184Y-38754D01*
X52195Y-38733D01*
X52211Y-38714D01*
X52229Y-38698D01*
X52250Y-38686D01*
X52274Y-38678D01*
X52298Y-38676D01*
X52321Y-38677D01*
X52345Y-38684D01*
X52366Y-38695D01*
X52386Y-38710D01*
X52402Y-38728D01*
X52414Y-38750D01*
X52421Y-38773D01*
X52424Y-38797D01*
X52425Y-38800D01*
X52675Y-51050D02*
X52672Y-51074D01*
X52665Y-51097D01*
X52654Y-51119D01*
X52638Y-51138D01*
X52619Y-51153D01*
X52598Y-51165D01*
X52575Y-51172D01*
X52550Y-51174D01*
X52527Y-51172D01*
X52504Y-51165D01*
X52482Y-51154D01*
X52463Y-51139D01*
X52447Y-51120D01*
X52436Y-51099D01*
X52428Y-51075D01*
X52426Y-51051D01*
X52428Y-51028D01*
X52434Y-51004D01*
X52445Y-50983D01*
X52461Y-50964D01*
X52479Y-50948D01*
X52500Y-50936D01*
X52524Y-50928D01*
X52548Y-50926D01*
X52571Y-50927D01*
X52595Y-50934D01*
X52616Y-50945D01*
X52636Y-50960D01*
X52652Y-50978D01*
X52664Y-51000D01*
X52671Y-51023D01*
X52674Y-51047D01*
X52675Y-51050D01*
X52775Y-45300D02*
X52772Y-45324D01*
X52765Y-45347D01*
X52754Y-45369D01*
X52738Y-45388D01*
X52719Y-45403D01*
X52698Y-45415D01*
X52675Y-45422D01*
X52650Y-45424D01*
X52627Y-45422D01*
X52604Y-45415D01*
X52582Y-45404D01*
X52563Y-45389D01*
X52547Y-45370D01*
X52536Y-45349D01*
X52528Y-45325D01*
X52526Y-45301D01*
X52528Y-45278D01*
X52534Y-45254D01*
X52545Y-45233D01*
X52561Y-45214D01*
X52579Y-45198D01*
X52600Y-45186D01*
X52624Y-45178D01*
X52648Y-45176D01*
X52671Y-45177D01*
X52695Y-45184D01*
X52716Y-45195D01*
X52736Y-45210D01*
X52752Y-45228D01*
X52764Y-45250D01*
X52771Y-45273D01*
X52774Y-45297D01*
X52775Y-45300D01*
X53025Y-38200D02*
X53022Y-38224D01*
X53015Y-38247D01*
X53004Y-38269D01*
X52988Y-38288D01*
X52969Y-38303D01*
X52948Y-38315D01*
X52925Y-38322D01*
X52900Y-38324D01*
X52877Y-38322D01*
X52854Y-38315D01*
X52832Y-38304D01*
X52813Y-38289D01*
X52797Y-38270D01*
X52786Y-38249D01*
X52778Y-38225D01*
X52776Y-38201D01*
X52778Y-38178D01*
X52784Y-38154D01*
X52795Y-38133D01*
X52811Y-38114D01*
X52829Y-38098D01*
X52850Y-38086D01*
X52874Y-38078D01*
X52898Y-38076D01*
X52921Y-38077D01*
X52945Y-38084D01*
X52966Y-38095D01*
X52986Y-38110D01*
X53002Y-38128D01*
X53014Y-38150D01*
X53021Y-38173D01*
X53024Y-38197D01*
X53025Y-38200D01*
X53175Y-32550D02*
X53172Y-32574D01*
X53165Y-32597D01*
X53154Y-32619D01*
X53138Y-32638D01*
X53119Y-32653D01*
X53098Y-32665D01*
X53075Y-32672D01*
X53050Y-32674D01*
X53027Y-32672D01*
X53004Y-32665D01*
X52982Y-32654D01*
X52963Y-32639D01*
X52947Y-32620D01*
X52936Y-32599D01*
X52928Y-32575D01*
X52926Y-32551D01*
X52928Y-32528D01*
X52934Y-32504D01*
X52945Y-32483D01*
X52961Y-32464D01*
X52979Y-32448D01*
X53000Y-32436D01*
X53024Y-32428D01*
X53048Y-32426D01*
X53071Y-32427D01*
X53095Y-32434D01*
X53116Y-32445D01*
X53136Y-32460D01*
X53152Y-32478D01*
X53164Y-32500D01*
X53171Y-32523D01*
X53174Y-32547D01*
X53175Y-32550D01*
X53175Y-46700D02*
X53172Y-46724D01*
X53165Y-46747D01*
X53154Y-46769D01*
X53138Y-46788D01*
X53119Y-46803D01*
X53098Y-46815D01*
X53075Y-46822D01*
X53050Y-46824D01*
X53027Y-46822D01*
X53004Y-46815D01*
X52982Y-46804D01*
X52963Y-46789D01*
X52947Y-46770D01*
X52936Y-46749D01*
X52928Y-46725D01*
X52926Y-46701D01*
X52928Y-46678D01*
X52934Y-46654D01*
X52945Y-46633D01*
X52961Y-46614D01*
X52979Y-46598D01*
X53000Y-46586D01*
X53024Y-46578D01*
X53048Y-46576D01*
X53071Y-46577D01*
X53095Y-46584D01*
X53116Y-46595D01*
X53136Y-46610D01*
X53152Y-46628D01*
X53164Y-46650D01*
X53171Y-46673D01*
X53174Y-46697D01*
X53175Y-46700D01*
X53200Y-34300D02*
X53197Y-34324D01*
X53190Y-34347D01*
X53179Y-34369D01*
X53163Y-34388D01*
X53144Y-34403D01*
X53123Y-34415D01*
X53100Y-34422D01*
X53075Y-34424D01*
X53052Y-34422D01*
X53029Y-34415D01*
X53007Y-34404D01*
X52988Y-34389D01*
X52972Y-34370D01*
X52961Y-34349D01*
X52953Y-34325D01*
X52951Y-34301D01*
X52953Y-34278D01*
X52959Y-34254D01*
X52970Y-34233D01*
X52986Y-34214D01*
X53004Y-34198D01*
X53025Y-34186D01*
X53049Y-34178D01*
X53073Y-34176D01*
X53096Y-34177D01*
X53120Y-34184D01*
X53141Y-34195D01*
X53161Y-34210D01*
X53177Y-34228D01*
X53189Y-34250D01*
X53196Y-34273D01*
X53199Y-34297D01*
X53200Y-34300D01*
X53375Y-49400D02*
X53372Y-49424D01*
X53365Y-49447D01*
X53354Y-49469D01*
X53338Y-49488D01*
X53319Y-49503D01*
X53298Y-49515D01*
X53275Y-49522D01*
X53250Y-49524D01*
X53227Y-49522D01*
X53204Y-49515D01*
X53182Y-49504D01*
X53163Y-49489D01*
X53147Y-49470D01*
X53136Y-49449D01*
X53128Y-49425D01*
X53126Y-49401D01*
X53128Y-49378D01*
X53134Y-49354D01*
X53145Y-49333D01*
X53161Y-49314D01*
X53179Y-49298D01*
X53200Y-49286D01*
X53224Y-49278D01*
X53248Y-49276D01*
X53271Y-49277D01*
X53295Y-49284D01*
X53316Y-49295D01*
X53336Y-49310D01*
X53352Y-49328D01*
X53364Y-49350D01*
X53371Y-49373D01*
X53374Y-49397D01*
X53375Y-49400D01*
X53725Y-49450D02*
X53722Y-49474D01*
X53715Y-49497D01*
X53704Y-49519D01*
X53688Y-49538D01*
X53669Y-49553D01*
X53648Y-49565D01*
X53625Y-49572D01*
X53600Y-49574D01*
X53577Y-49572D01*
X53554Y-49565D01*
X53532Y-49554D01*
X53513Y-49539D01*
X53497Y-49520D01*
X53486Y-49499D01*
X53478Y-49475D01*
X53476Y-49451D01*
X53478Y-49428D01*
X53484Y-49404D01*
X53495Y-49383D01*
X53511Y-49364D01*
X53529Y-49348D01*
X53550Y-49336D01*
X53574Y-49328D01*
X53598Y-49326D01*
X53621Y-49327D01*
X53645Y-49334D01*
X53666Y-49345D01*
X53686Y-49360D01*
X53702Y-49378D01*
X53714Y-49400D01*
X53721Y-49423D01*
X53724Y-49447D01*
X53725Y-49450D01*
X54825Y-30050D02*
X54822Y-30074D01*
X54815Y-30097D01*
X54804Y-30119D01*
X54788Y-30138D01*
X54769Y-30153D01*
X54748Y-30165D01*
X54725Y-30172D01*
X54700Y-30174D01*
X54677Y-30172D01*
X54654Y-30165D01*
X54632Y-30154D01*
X54613Y-30139D01*
X54597Y-30120D01*
X54586Y-30099D01*
X54578Y-30075D01*
X54576Y-30051D01*
X54578Y-30028D01*
X54584Y-30004D01*
X54595Y-29983D01*
X54611Y-29964D01*
X54629Y-29948D01*
X54650Y-29936D01*
X54674Y-29928D01*
X54698Y-29926D01*
X54721Y-29927D01*
X54745Y-29934D01*
X54766Y-29945D01*
X54786Y-29960D01*
X54802Y-29978D01*
X54814Y-30000D01*
X54821Y-30023D01*
X54824Y-30047D01*
X54825Y-30050D01*
X55425Y-34425D02*
X55422Y-34449D01*
X55415Y-34472D01*
X55404Y-34494D01*
X55388Y-34513D01*
X55369Y-34528D01*
X55348Y-34540D01*
X55325Y-34547D01*
X55300Y-34549D01*
X55277Y-34547D01*
X55254Y-34540D01*
X55232Y-34529D01*
X55213Y-34514D01*
X55197Y-34495D01*
X55186Y-34474D01*
X55178Y-34450D01*
X55176Y-34426D01*
X55178Y-34403D01*
X55184Y-34379D01*
X55195Y-34358D01*
X55211Y-34339D01*
X55229Y-34323D01*
X55250Y-34311D01*
X55274Y-34303D01*
X55298Y-34301D01*
X55321Y-34302D01*
X55345Y-34309D01*
X55366Y-34320D01*
X55386Y-34335D01*
X55402Y-34353D01*
X55414Y-34375D01*
X55421Y-34398D01*
X55424Y-34422D01*
X55425Y-34425D01*
X55825Y-33850D02*
X55822Y-33874D01*
X55815Y-33897D01*
X55804Y-33919D01*
X55788Y-33938D01*
X55769Y-33953D01*
X55748Y-33965D01*
X55725Y-33972D01*
X55700Y-33974D01*
X55677Y-33972D01*
X55654Y-33965D01*
X55632Y-33954D01*
X55613Y-33939D01*
X55597Y-33920D01*
X55586Y-33899D01*
X55578Y-33875D01*
X55576Y-33851D01*
X55578Y-33828D01*
X55584Y-33804D01*
X55595Y-33783D01*
X55611Y-33764D01*
X55629Y-33748D01*
X55650Y-33736D01*
X55674Y-33728D01*
X55698Y-33726D01*
X55721Y-33727D01*
X55745Y-33734D01*
X55766Y-33745D01*
X55786Y-33760D01*
X55802Y-33778D01*
X55814Y-33800D01*
X55821Y-33823D01*
X55824Y-33847D01*
X55825Y-33850D01*
X56625Y-35525D02*
X56622Y-35549D01*
X56615Y-35572D01*
X56604Y-35594D01*
X56588Y-35613D01*
X56569Y-35628D01*
X56548Y-35640D01*
X56525Y-35647D01*
X56500Y-35649D01*
X56477Y-35647D01*
X56454Y-35640D01*
X56432Y-35629D01*
X56413Y-35614D01*
X56397Y-35595D01*
X56386Y-35574D01*
X56378Y-35550D01*
X56376Y-35526D01*
X56378Y-35503D01*
X56384Y-35479D01*
X56395Y-35458D01*
X56411Y-35439D01*
X56429Y-35423D01*
X56450Y-35411D01*
X56474Y-35403D01*
X56498Y-35401D01*
X56521Y-35402D01*
X56545Y-35409D01*
X56566Y-35420D01*
X56586Y-35435D01*
X56602Y-35453D01*
X56614Y-35475D01*
X56621Y-35498D01*
X56624Y-35522D01*
X56625Y-35525D01*
X56925Y-40250D02*
X56922Y-40274D01*
X56915Y-40297D01*
X56904Y-40319D01*
X56888Y-40338D01*
X56869Y-40353D01*
X56848Y-40365D01*
X56825Y-40372D01*
X56800Y-40374D01*
X56777Y-40372D01*
X56754Y-40365D01*
X56732Y-40354D01*
X56713Y-40339D01*
X56697Y-40320D01*
X56686Y-40299D01*
X56678Y-40275D01*
X56676Y-40251D01*
X56678Y-40228D01*
X56684Y-40204D01*
X56695Y-40183D01*
X56711Y-40164D01*
X56729Y-40148D01*
X56750Y-40136D01*
X56774Y-40128D01*
X56798Y-40126D01*
X56821Y-40127D01*
X56845Y-40134D01*
X56866Y-40145D01*
X56886Y-40160D01*
X56902Y-40178D01*
X56914Y-40200D01*
X56921Y-40223D01*
X56924Y-40247D01*
X56925Y-40250D01*
X56975Y-38200D02*
X56972Y-38224D01*
X56965Y-38247D01*
X56954Y-38269D01*
X56938Y-38288D01*
X56919Y-38303D01*
X56898Y-38315D01*
X56875Y-38322D01*
X56850Y-38324D01*
X56827Y-38322D01*
X56804Y-38315D01*
X56782Y-38304D01*
X56763Y-38289D01*
X56747Y-38270D01*
X56736Y-38249D01*
X56728Y-38225D01*
X56726Y-38201D01*
X56728Y-38178D01*
X56734Y-38154D01*
X56745Y-38133D01*
X56761Y-38114D01*
X56779Y-38098D01*
X56800Y-38086D01*
X56824Y-38078D01*
X56848Y-38076D01*
X56871Y-38077D01*
X56895Y-38084D01*
X56916Y-38095D01*
X56936Y-38110D01*
X56952Y-38128D01*
X56964Y-38150D01*
X56971Y-38173D01*
X56974Y-38197D01*
X56975Y-38200D01*
X61825Y-40550D02*
X61822Y-40574D01*
X61815Y-40597D01*
X61804Y-40619D01*
X61788Y-40638D01*
X61769Y-40653D01*
X61748Y-40665D01*
X61725Y-40672D01*
X61700Y-40674D01*
X61677Y-40672D01*
X61654Y-40665D01*
X61632Y-40654D01*
X61613Y-40639D01*
X61597Y-40620D01*
X61586Y-40599D01*
X61578Y-40575D01*
X61576Y-40551D01*
X61578Y-40528D01*
X61584Y-40504D01*
X61595Y-40483D01*
X61611Y-40464D01*
X61629Y-40448D01*
X61650Y-40436D01*
X61674Y-40428D01*
X61698Y-40426D01*
X61721Y-40427D01*
X61745Y-40434D01*
X61766Y-40445D01*
X61786Y-40460D01*
X61802Y-40478D01*
X61814Y-40500D01*
X61821Y-40523D01*
X61824Y-40547D01*
X61825Y-40550D01*
X61975Y-40250D02*
X61972Y-40274D01*
X61965Y-40297D01*
X61954Y-40319D01*
X61938Y-40338D01*
X61919Y-40353D01*
X61898Y-40365D01*
X61875Y-40372D01*
X61850Y-40374D01*
X61827Y-40372D01*
X61804Y-40365D01*
X61782Y-40354D01*
X61763Y-40339D01*
X61747Y-40320D01*
X61736Y-40299D01*
X61728Y-40275D01*
X61726Y-40251D01*
X61728Y-40228D01*
X61734Y-40204D01*
X61745Y-40183D01*
X61761Y-40164D01*
X61779Y-40148D01*
X61800Y-40136D01*
X61824Y-40128D01*
X61848Y-40126D01*
X61871Y-40127D01*
X61895Y-40134D01*
X61916Y-40145D01*
X61936Y-40160D01*
X61952Y-40178D01*
X61964Y-40200D01*
X61971Y-40223D01*
X61974Y-40247D01*
X61975Y-40250D01*
X61975Y-40850D02*
X61972Y-40874D01*
X61965Y-40897D01*
X61954Y-40919D01*
X61938Y-40938D01*
X61919Y-40953D01*
X61898Y-40965D01*
X61875Y-40972D01*
X61850Y-40974D01*
X61827Y-40972D01*
X61804Y-40965D01*
X61782Y-40954D01*
X61763Y-40939D01*
X61747Y-40920D01*
X61736Y-40899D01*
X61728Y-40875D01*
X61726Y-40851D01*
X61728Y-40828D01*
X61734Y-40804D01*
X61745Y-40783D01*
X61761Y-40764D01*
X61779Y-40748D01*
X61800Y-40736D01*
X61824Y-40728D01*
X61848Y-40726D01*
X61871Y-40727D01*
X61895Y-40734D01*
X61916Y-40745D01*
X61936Y-40760D01*
X61952Y-40778D01*
X61964Y-40800D01*
X61971Y-40823D01*
X61974Y-40847D01*
X61975Y-40850D01*
X61975Y-41800D02*
X61972Y-41824D01*
X61965Y-41847D01*
X61954Y-41869D01*
X61938Y-41888D01*
X61919Y-41903D01*
X61898Y-41915D01*
X61875Y-41922D01*
X61850Y-41924D01*
X61827Y-41922D01*
X61804Y-41915D01*
X61782Y-41904D01*
X61763Y-41889D01*
X61747Y-41870D01*
X61736Y-41849D01*
X61728Y-41825D01*
X61726Y-41801D01*
X61728Y-41778D01*
X61734Y-41754D01*
X61745Y-41733D01*
X61761Y-41714D01*
X61779Y-41698D01*
X61800Y-41686D01*
X61824Y-41678D01*
X61848Y-41676D01*
X61871Y-41677D01*
X61895Y-41684D01*
X61916Y-41695D01*
X61936Y-41710D01*
X61952Y-41728D01*
X61964Y-41750D01*
X61971Y-41773D01*
X61974Y-41797D01*
X61975Y-41800D01*
X61975Y-42200D02*
X61972Y-42224D01*
X61965Y-42247D01*
X61954Y-42269D01*
X61938Y-42288D01*
X61919Y-42303D01*
X61898Y-42315D01*
X61875Y-42322D01*
X61850Y-42324D01*
X61827Y-42322D01*
X61804Y-42315D01*
X61782Y-42304D01*
X61763Y-42289D01*
X61747Y-42270D01*
X61736Y-42249D01*
X61728Y-42225D01*
X61726Y-42201D01*
X61728Y-42178D01*
X61734Y-42154D01*
X61745Y-42133D01*
X61761Y-42114D01*
X61779Y-42098D01*
X61800Y-42086D01*
X61824Y-42078D01*
X61848Y-42076D01*
X61871Y-42077D01*
X61895Y-42084D01*
X61916Y-42095D01*
X61936Y-42110D01*
X61952Y-42128D01*
X61964Y-42150D01*
X61971Y-42173D01*
X61974Y-42197D01*
X61975Y-42200D01*
X62075Y-39700D02*
X62072Y-39724D01*
X62065Y-39747D01*
X62054Y-39769D01*
X62038Y-39788D01*
X62019Y-39803D01*
X61998Y-39815D01*
X61975Y-39822D01*
X61950Y-39824D01*
X61927Y-39822D01*
X61904Y-39815D01*
X61882Y-39804D01*
X61863Y-39789D01*
X61847Y-39770D01*
X61836Y-39749D01*
X61828Y-39725D01*
X61826Y-39701D01*
X61828Y-39678D01*
X61834Y-39654D01*
X61845Y-39633D01*
X61861Y-39614D01*
X61879Y-39598D01*
X61900Y-39586D01*
X61924Y-39578D01*
X61948Y-39576D01*
X61971Y-39577D01*
X61995Y-39584D01*
X62016Y-39595D01*
X62036Y-39610D01*
X62052Y-39628D01*
X62064Y-39650D01*
X62071Y-39673D01*
X62074Y-39697D01*
X62075Y-39700D01*
X62175Y-51100D02*
X62172Y-51124D01*
X62165Y-51147D01*
X62154Y-51169D01*
X62138Y-51188D01*
X62119Y-51203D01*
X62098Y-51215D01*
X62075Y-51222D01*
X62050Y-51224D01*
X62027Y-51222D01*
X62004Y-51215D01*
X61982Y-51204D01*
X61963Y-51189D01*
X61947Y-51170D01*
X61936Y-51149D01*
X61928Y-51125D01*
X61926Y-51101D01*
X61928Y-51078D01*
X61934Y-51054D01*
X61945Y-51033D01*
X61961Y-51014D01*
X61979Y-50998D01*
X62000Y-50986D01*
X62024Y-50978D01*
X62048Y-50976D01*
X62071Y-50977D01*
X62095Y-50984D01*
X62116Y-50995D01*
X62136Y-51010D01*
X62152Y-51028D01*
X62164Y-51050D01*
X62171Y-51073D01*
X62174Y-51097D01*
X62175Y-51100D01*
X62425Y-37950D02*
X62422Y-37974D01*
X62415Y-37997D01*
X62404Y-38019D01*
X62388Y-38038D01*
X62369Y-38053D01*
X62348Y-38065D01*
X62325Y-38072D01*
X62300Y-38074D01*
X62277Y-38072D01*
X62254Y-38065D01*
X62232Y-38054D01*
X62213Y-38039D01*
X62197Y-38020D01*
X62186Y-37999D01*
X62178Y-37975D01*
X62176Y-37951D01*
X62178Y-37928D01*
X62184Y-37904D01*
X62195Y-37883D01*
X62211Y-37864D01*
X62229Y-37848D01*
X62250Y-37836D01*
X62274Y-37828D01*
X62298Y-37826D01*
X62321Y-37827D01*
X62345Y-37834D01*
X62366Y-37845D01*
X62386Y-37860D01*
X62402Y-37878D01*
X62414Y-37900D01*
X62421Y-37923D01*
X62424Y-37947D01*
X62425Y-37950D01*
X62425Y-39300D02*
X62422Y-39324D01*
X62415Y-39347D01*
X62404Y-39369D01*
X62388Y-39388D01*
X62369Y-39403D01*
X62348Y-39415D01*
X62325Y-39422D01*
X62300Y-39424D01*
X62277Y-39422D01*
X62254Y-39415D01*
X62232Y-39404D01*
X62213Y-39389D01*
X62197Y-39370D01*
X62186Y-39349D01*
X62178Y-39325D01*
X62176Y-39301D01*
X62178Y-39278D01*
X62184Y-39254D01*
X62195Y-39233D01*
X62211Y-39214D01*
X62229Y-39198D01*
X62250Y-39186D01*
X62274Y-39178D01*
X62298Y-39176D01*
X62321Y-39177D01*
X62345Y-39184D01*
X62366Y-39195D01*
X62386Y-39210D01*
X62402Y-39228D01*
X62414Y-39250D01*
X62421Y-39273D01*
X62424Y-39297D01*
X62425Y-39300D01*
X62725Y-37600D02*
X62722Y-37624D01*
X62715Y-37647D01*
X62704Y-37669D01*
X62688Y-37688D01*
X62669Y-37703D01*
X62648Y-37715D01*
X62625Y-37722D01*
X62600Y-37724D01*
X62577Y-37722D01*
X62554Y-37715D01*
X62532Y-37704D01*
X62513Y-37689D01*
X62497Y-37670D01*
X62486Y-37649D01*
X62478Y-37625D01*
X62476Y-37601D01*
X62478Y-37578D01*
X62484Y-37554D01*
X62495Y-37533D01*
X62511Y-37514D01*
X62529Y-37498D01*
X62550Y-37486D01*
X62574Y-37478D01*
X62598Y-37476D01*
X62621Y-37477D01*
X62645Y-37484D01*
X62666Y-37495D01*
X62686Y-37510D01*
X62702Y-37528D01*
X62714Y-37550D01*
X62721Y-37573D01*
X62724Y-37597D01*
X62725Y-37600D01*
X62875Y-49750D02*
X62872Y-49774D01*
X62865Y-49797D01*
X62854Y-49819D01*
X62838Y-49838D01*
X62819Y-49853D01*
X62798Y-49865D01*
X62775Y-49872D01*
X62750Y-49874D01*
X62727Y-49872D01*
X62704Y-49865D01*
X62682Y-49854D01*
X62663Y-49839D01*
X62647Y-49820D01*
X62636Y-49799D01*
X62628Y-49775D01*
X62626Y-49751D01*
X62628Y-49728D01*
X62634Y-49704D01*
X62645Y-49683D01*
X62661Y-49664D01*
X62679Y-49648D01*
X62700Y-49636D01*
X62724Y-49628D01*
X62748Y-49626D01*
X62771Y-49627D01*
X62795Y-49634D01*
X62816Y-49645D01*
X62836Y-49660D01*
X62852Y-49678D01*
X62864Y-49700D01*
X62871Y-49723D01*
X62874Y-49747D01*
X62875Y-49750D01*
X62925Y-51050D02*
X62922Y-51074D01*
X62915Y-51097D01*
X62904Y-51119D01*
X62888Y-51138D01*
X62869Y-51153D01*
X62848Y-51165D01*
X62825Y-51172D01*
X62800Y-51174D01*
X62777Y-51172D01*
X62754Y-51165D01*
X62732Y-51154D01*
X62713Y-51139D01*
X62697Y-51120D01*
X62686Y-51099D01*
X62678Y-51075D01*
X62676Y-51051D01*
X62678Y-51028D01*
X62684Y-51004D01*
X62695Y-50983D01*
X62711Y-50964D01*
X62729Y-50948D01*
X62750Y-50936D01*
X62774Y-50928D01*
X62798Y-50926D01*
X62821Y-50927D01*
X62845Y-50934D01*
X62866Y-50945D01*
X62886Y-50960D01*
X62902Y-50978D01*
X62914Y-51000D01*
X62921Y-51023D01*
X62924Y-51047D01*
X62925Y-51050D01*
X63075Y-42000D02*
X63072Y-42024D01*
X63065Y-42047D01*
X63054Y-42069D01*
X63038Y-42088D01*
X63019Y-42103D01*
X62998Y-42115D01*
X62975Y-42122D01*
X62950Y-42124D01*
X62927Y-42122D01*
X62904Y-42115D01*
X62882Y-42104D01*
X62863Y-42089D01*
X62847Y-42070D01*
X62836Y-42049D01*
X62828Y-42025D01*
X62826Y-42001D01*
X62828Y-41978D01*
X62834Y-41954D01*
X62845Y-41933D01*
X62861Y-41914D01*
X62879Y-41898D01*
X62900Y-41886D01*
X62924Y-41878D01*
X62948Y-41876D01*
X62971Y-41877D01*
X62995Y-41884D01*
X63016Y-41895D01*
X63036Y-41910D01*
X63052Y-41928D01*
X63064Y-41950D01*
X63071Y-41973D01*
X63074Y-41997D01*
X63075Y-42000D01*
X63075Y-47950D02*
X63072Y-47974D01*
X63065Y-47997D01*
X63054Y-48019D01*
X63038Y-48038D01*
X63019Y-48053D01*
X62998Y-48065D01*
X62975Y-48072D01*
X62950Y-48074D01*
X62927Y-48072D01*
X62904Y-48065D01*
X62882Y-48054D01*
X62863Y-48039D01*
X62847Y-48020D01*
X62836Y-47999D01*
X62828Y-47975D01*
X62826Y-47951D01*
X62828Y-47928D01*
X62834Y-47904D01*
X62845Y-47883D01*
X62861Y-47864D01*
X62879Y-47848D01*
X62900Y-47836D01*
X62924Y-47828D01*
X62948Y-47826D01*
X62971Y-47827D01*
X62995Y-47834D01*
X63016Y-47845D01*
X63036Y-47860D01*
X63052Y-47878D01*
X63064Y-47900D01*
X63071Y-47923D01*
X63074Y-47947D01*
X63075Y-47950D01*
X63575Y-51300D02*
X63572Y-51324D01*
X63565Y-51347D01*
X63554Y-51369D01*
X63538Y-51388D01*
X63519Y-51403D01*
X63498Y-51415D01*
X63475Y-51422D01*
X63450Y-51424D01*
X63427Y-51422D01*
X63404Y-51415D01*
X63382Y-51404D01*
X63363Y-51389D01*
X63347Y-51370D01*
X63336Y-51349D01*
X63328Y-51325D01*
X63326Y-51301D01*
X63328Y-51278D01*
X63334Y-51254D01*
X63345Y-51233D01*
X63361Y-51214D01*
X63379Y-51198D01*
X63400Y-51186D01*
X63424Y-51178D01*
X63448Y-51176D01*
X63471Y-51177D01*
X63495Y-51184D01*
X63516Y-51195D01*
X63536Y-51210D01*
X63552Y-51228D01*
X63564Y-51250D01*
X63571Y-51273D01*
X63574Y-51297D01*
X63575Y-51300D01*
X63675Y-42110D02*
X63672Y-42134D01*
X63665Y-42157D01*
X63654Y-42179D01*
X63638Y-42198D01*
X63619Y-42213D01*
X63598Y-42225D01*
X63575Y-42232D01*
X63550Y-42234D01*
X63527Y-42232D01*
X63504Y-42225D01*
X63482Y-42214D01*
X63463Y-42199D01*
X63447Y-42180D01*
X63436Y-42159D01*
X63428Y-42135D01*
X63426Y-42111D01*
X63428Y-42088D01*
X63434Y-42064D01*
X63445Y-42043D01*
X63461Y-42024D01*
X63479Y-42008D01*
X63500Y-41996D01*
X63524Y-41988D01*
X63548Y-41986D01*
X63571Y-41987D01*
X63595Y-41994D01*
X63616Y-42005D01*
X63636Y-42020D01*
X63652Y-42038D01*
X63664Y-42060D01*
X63671Y-42083D01*
X63674Y-42107D01*
X63675Y-42110D01*
X64175Y-48800D02*
X64172Y-48824D01*
X64165Y-48847D01*
X64154Y-48869D01*
X64138Y-48888D01*
X64119Y-48903D01*
X64098Y-48915D01*
X64075Y-48922D01*
X64050Y-48924D01*
X64027Y-48922D01*
X64004Y-48915D01*
X63982Y-48904D01*
X63963Y-48889D01*
X63947Y-48870D01*
X63936Y-48849D01*
X63928Y-48825D01*
X63926Y-48801D01*
X63928Y-48778D01*
X63934Y-48754D01*
X63945Y-48733D01*
X63961Y-48714D01*
X63979Y-48698D01*
X64000Y-48686D01*
X64024Y-48678D01*
X64048Y-48676D01*
X64071Y-48677D01*
X64095Y-48684D01*
X64116Y-48695D01*
X64136Y-48710D01*
X64152Y-48728D01*
X64164Y-48750D01*
X64171Y-48773D01*
X64174Y-48797D01*
X64175Y-48800D01*
X64975Y-40800D02*
X64972Y-40824D01*
X64965Y-40847D01*
X64954Y-40869D01*
X64938Y-40888D01*
X64919Y-40903D01*
X64898Y-40915D01*
X64875Y-40922D01*
X64850Y-40924D01*
X64827Y-40922D01*
X64804Y-40915D01*
X64782Y-40904D01*
X64763Y-40889D01*
X64747Y-40870D01*
X64736Y-40849D01*
X64728Y-40825D01*
X64726Y-40801D01*
X64728Y-40778D01*
X64734Y-40754D01*
X64745Y-40733D01*
X64761Y-40714D01*
X64779Y-40698D01*
X64800Y-40686D01*
X64824Y-40678D01*
X64848Y-40676D01*
X64871Y-40677D01*
X64895Y-40684D01*
X64916Y-40695D01*
X64936Y-40710D01*
X64952Y-40728D01*
X64964Y-40750D01*
X64971Y-40773D01*
X64974Y-40797D01*
X64975Y-40800D01*
X65075Y-51250D02*
X65072Y-51274D01*
X65065Y-51297D01*
X65054Y-51319D01*
X65038Y-51338D01*
X65019Y-51353D01*
X64998Y-51365D01*
X64975Y-51372D01*
X64950Y-51374D01*
X64927Y-51372D01*
X64904Y-51365D01*
X64882Y-51354D01*
X64863Y-51339D01*
X64847Y-51320D01*
X64836Y-51299D01*
X64828Y-51275D01*
X64826Y-51251D01*
X64828Y-51228D01*
X64834Y-51204D01*
X64845Y-51183D01*
X64861Y-51164D01*
X64879Y-51148D01*
X64900Y-51136D01*
X64924Y-51128D01*
X64948Y-51126D01*
X64971Y-51127D01*
X64995Y-51134D01*
X65016Y-51145D01*
X65036Y-51160D01*
X65052Y-51178D01*
X65064Y-51200D01*
X65071Y-51223D01*
X65074Y-51247D01*
X65075Y-51250D01*
X65275Y-39450D02*
X65272Y-39474D01*
X65265Y-39497D01*
X65254Y-39519D01*
X65238Y-39538D01*
X65219Y-39553D01*
X65198Y-39565D01*
X65175Y-39572D01*
X65150Y-39574D01*
X65127Y-39572D01*
X65104Y-39565D01*
X65082Y-39554D01*
X65063Y-39539D01*
X65047Y-39520D01*
X65036Y-39499D01*
X65028Y-39475D01*
X65026Y-39451D01*
X65028Y-39428D01*
X65034Y-39404D01*
X65045Y-39383D01*
X65061Y-39364D01*
X65079Y-39348D01*
X65100Y-39336D01*
X65124Y-39328D01*
X65148Y-39326D01*
X65171Y-39327D01*
X65195Y-39334D01*
X65216Y-39345D01*
X65236Y-39360D01*
X65252Y-39378D01*
X65264Y-39400D01*
X65271Y-39423D01*
X65274Y-39447D01*
X65275Y-39450D01*
X65325Y-40800D02*
X65322Y-40824D01*
X65315Y-40847D01*
X65304Y-40869D01*
X65288Y-40888D01*
X65269Y-40903D01*
X65248Y-40915D01*
X65225Y-40922D01*
X65200Y-40924D01*
X65177Y-40922D01*
X65154Y-40915D01*
X65132Y-40904D01*
X65113Y-40889D01*
X65097Y-40870D01*
X65086Y-40849D01*
X65078Y-40825D01*
X65076Y-40801D01*
X65078Y-40778D01*
X65084Y-40754D01*
X65095Y-40733D01*
X65111Y-40714D01*
X65129Y-40698D01*
X65150Y-40686D01*
X65174Y-40678D01*
X65198Y-40676D01*
X65221Y-40677D01*
X65245Y-40684D01*
X65266Y-40695D01*
X65286Y-40710D01*
X65302Y-40728D01*
X65314Y-40750D01*
X65321Y-40773D01*
X65324Y-40797D01*
X65325Y-40800D01*
X65325Y-41150D02*
X65322Y-41174D01*
X65315Y-41197D01*
X65304Y-41219D01*
X65288Y-41238D01*
X65269Y-41253D01*
X65248Y-41265D01*
X65225Y-41272D01*
X65200Y-41274D01*
X65177Y-41272D01*
X65154Y-41265D01*
X65132Y-41254D01*
X65113Y-41239D01*
X65097Y-41220D01*
X65086Y-41199D01*
X65078Y-41175D01*
X65076Y-41151D01*
X65078Y-41128D01*
X65084Y-41104D01*
X65095Y-41083D01*
X65111Y-41064D01*
X65129Y-41048D01*
X65150Y-41036D01*
X65174Y-41028D01*
X65198Y-41026D01*
X65221Y-41027D01*
X65245Y-41034D01*
X65266Y-41045D01*
X65286Y-41060D01*
X65302Y-41078D01*
X65314Y-41100D01*
X65321Y-41123D01*
X65324Y-41147D01*
X65325Y-41150D01*
X65325Y-41500D02*
X65322Y-41524D01*
X65315Y-41547D01*
X65304Y-41569D01*
X65288Y-41588D01*
X65269Y-41603D01*
X65248Y-41615D01*
X65225Y-41622D01*
X65200Y-41624D01*
X65177Y-41622D01*
X65154Y-41615D01*
X65132Y-41604D01*
X65113Y-41589D01*
X65097Y-41570D01*
X65086Y-41549D01*
X65078Y-41525D01*
X65076Y-41501D01*
X65078Y-41478D01*
X65084Y-41454D01*
X65095Y-41433D01*
X65111Y-41414D01*
X65129Y-41398D01*
X65150Y-41386D01*
X65174Y-41378D01*
X65198Y-41376D01*
X65221Y-41377D01*
X65245Y-41384D01*
X65266Y-41395D01*
X65286Y-41410D01*
X65302Y-41428D01*
X65314Y-41450D01*
X65321Y-41473D01*
X65324Y-41497D01*
X65325Y-41500D01*
X65875Y-49550D02*
X65872Y-49574D01*
X65865Y-49597D01*
X65854Y-49619D01*
X65838Y-49638D01*
X65819Y-49653D01*
X65798Y-49665D01*
X65775Y-49672D01*
X65750Y-49674D01*
X65727Y-49672D01*
X65704Y-49665D01*
X65682Y-49654D01*
X65663Y-49639D01*
X65647Y-49620D01*
X65636Y-49599D01*
X65628Y-49575D01*
X65626Y-49551D01*
X65628Y-49528D01*
X65634Y-49504D01*
X65645Y-49483D01*
X65661Y-49464D01*
X65679Y-49448D01*
X65700Y-49436D01*
X65724Y-49428D01*
X65748Y-49426D01*
X65771Y-49427D01*
X65795Y-49434D01*
X65816Y-49445D01*
X65836Y-49460D01*
X65852Y-49478D01*
X65864Y-49500D01*
X65871Y-49523D01*
X65874Y-49547D01*
X65875Y-49550D01*
X44621Y-49936D02*
X44621Y-50250D01*
X44778Y-50093D02*
X44464Y-50093D01*
X44936Y-50408D02*
X44936Y-50722D01*
X45093Y-50565D02*
X44779Y-50565D01*
X45250Y-49936D02*
X45250Y-50250D01*
X45407Y-50093D02*
X45093Y-50093D01*
X45564Y-50408D02*
X45564Y-50722D01*
X45721Y-50565D02*
X45407Y-50565D01*
X45879Y-49936D02*
X45879Y-50250D01*
X46036Y-50093D02*
X45722Y-50093D01*
X44207Y-33700D02*
X44204Y-33730D01*
X44195Y-33759D01*
X44180Y-33786D01*
X44161Y-33810D01*
X44137Y-33830D01*
X44110Y-33844D01*
X44081Y-33853D01*
X44051Y-33856D01*
X44021Y-33854D01*
X43992Y-33845D01*
X43965Y-33831D01*
X43941Y-33812D01*
X43921Y-33788D01*
X43906Y-33761D01*
X43897Y-33732D01*
X43894Y-33702D01*
X43896Y-33672D01*
X43905Y-33643D01*
X43919Y-33615D01*
X43938Y-33591D01*
X43961Y-33572D01*
X43988Y-33557D01*
X44017Y-33547D01*
X44047Y-33544D01*
X44077Y-33546D01*
X44106Y-33554D01*
X44134Y-33568D01*
X44158Y-33587D01*
X44178Y-33610D01*
X44193Y-33637D01*
X44203Y-33666D01*
X44206Y-33696D01*
X44207Y-33700D01*
X43893Y-33543D02*
X44207Y-33857D01*
X44207Y-33543D02*
X43893Y-33857D01*
X44282Y-30325D02*
X44279Y-30355D01*
X44270Y-30384D01*
X44255Y-30411D01*
X44236Y-30435D01*
X44212Y-30455D01*
X44185Y-30469D01*
X44156Y-30478D01*
X44126Y-30481D01*
X44096Y-30479D01*
X44067Y-30470D01*
X44040Y-30456D01*
X44016Y-30437D01*
X43996Y-30413D01*
X43981Y-30386D01*
X43972Y-30357D01*
X43969Y-30327D01*
X43971Y-30297D01*
X43980Y-30268D01*
X43994Y-30240D01*
X44013Y-30216D01*
X44036Y-30197D01*
X44063Y-30182D01*
X44092Y-30172D01*
X44122Y-30169D01*
X44152Y-30171D01*
X44181Y-30179D01*
X44209Y-30193D01*
X44233Y-30212D01*
X44253Y-30235D01*
X44268Y-30262D01*
X44278Y-30291D01*
X44281Y-30321D01*
X44282Y-30325D01*
X43968Y-30168D02*
X44282Y-30482D01*
X44282Y-30168D02*
X43968Y-30482D01*
X51057Y-30200D02*
X51054Y-30230D01*
X51045Y-30259D01*
X51030Y-30286D01*
X51011Y-30310D01*
X50987Y-30330D01*
X50960Y-30344D01*
X50931Y-30353D01*
X50901Y-30356D01*
X50871Y-30354D01*
X50842Y-30345D01*
X50815Y-30331D01*
X50791Y-30312D01*
X50771Y-30288D01*
X50756Y-30261D01*
X50747Y-30232D01*
X50744Y-30202D01*
X50746Y-30172D01*
X50755Y-30143D01*
X50769Y-30115D01*
X50788Y-30091D01*
X50811Y-30072D01*
X50838Y-30057D01*
X50867Y-30047D01*
X50897Y-30044D01*
X50927Y-30046D01*
X50956Y-30054D01*
X50984Y-30068D01*
X51008Y-30087D01*
X51028Y-30110D01*
X51043Y-30137D01*
X51053Y-30166D01*
X51056Y-30196D01*
X51057Y-30200D01*
X50743Y-30043D02*
X51057Y-30357D01*
X51057Y-30043D02*
X50743Y-30357D01*
X56757Y-36550D02*
X56754Y-36580D01*
X56745Y-36609D01*
X56730Y-36636D01*
X56711Y-36660D01*
X56687Y-36680D01*
X56660Y-36694D01*
X56631Y-36703D01*
X56601Y-36706D01*
X56571Y-36704D01*
X56542Y-36695D01*
X56515Y-36681D01*
X56491Y-36662D01*
X56471Y-36638D01*
X56456Y-36611D01*
X56447Y-36582D01*
X56444Y-36552D01*
X56446Y-36522D01*
X56455Y-36493D01*
X56469Y-36465D01*
X56488Y-36441D01*
X56511Y-36422D01*
X56538Y-36407D01*
X56567Y-36397D01*
X56597Y-36394D01*
X56627Y-36396D01*
X56656Y-36404D01*
X56684Y-36418D01*
X56708Y-36437D01*
X56728Y-36460D01*
X56743Y-36487D01*
X56753Y-36516D01*
X56756Y-36546D01*
X56757Y-36550D01*
X56443Y-36393D02*
X56757Y-36707D01*
X56757Y-36393D02*
X56443Y-36707D01*
X58507Y-30200D02*
X58504Y-30230D01*
X58495Y-30259D01*
X58480Y-30286D01*
X58461Y-30310D01*
X58437Y-30330D01*
X58410Y-30344D01*
X58381Y-30353D01*
X58351Y-30356D01*
X58321Y-30354D01*
X58292Y-30345D01*
X58265Y-30331D01*
X58241Y-30312D01*
X58221Y-30288D01*
X58206Y-30261D01*
X58197Y-30232D01*
X58194Y-30202D01*
X58196Y-30172D01*
X58205Y-30143D01*
X58219Y-30115D01*
X58238Y-30091D01*
X58261Y-30072D01*
X58288Y-30057D01*
X58317Y-30047D01*
X58347Y-30044D01*
X58377Y-30046D01*
X58406Y-30054D01*
X58434Y-30068D01*
X58458Y-30087D01*
X58478Y-30110D01*
X58493Y-30137D01*
X58503Y-30166D01*
X58506Y-30196D01*
X58507Y-30200D01*
X58193Y-30043D02*
X58507Y-30357D01*
X58507Y-30043D02*
X58193Y-30357D01*
X56630Y-43150D02*
X56626Y-43184D01*
X56616Y-43218D01*
X56599Y-43249D01*
X56577Y-43276D01*
X56550Y-43299D01*
X56519Y-43315D01*
X56486Y-43326D01*
X56451Y-43329D01*
X56417Y-43326D01*
X56383Y-43316D01*
X56352Y-43300D01*
X56325Y-43278D01*
X56302Y-43251D01*
X56285Y-43220D01*
X56274Y-43187D01*
X56271Y-43152D01*
X56273Y-43118D01*
X56283Y-43084D01*
X56299Y-43053D01*
X56321Y-43025D01*
X56348Y-43003D01*
X56378Y-42986D01*
X56412Y-42975D01*
X56447Y-42971D01*
X56481Y-42973D01*
X56515Y-42983D01*
X56546Y-42999D01*
X56574Y-43020D01*
X56597Y-43047D01*
X56614Y-43077D01*
X56625Y-43111D01*
X56629Y-43145D01*
X56630Y-43150D01*
X56270Y-43150D02*
X56630Y-43150D01*
X56630Y-44150D02*
X56626Y-44184D01*
X56616Y-44218D01*
X56599Y-44249D01*
X56577Y-44276D01*
X56550Y-44299D01*
X56519Y-44315D01*
X56486Y-44326D01*
X56451Y-44329D01*
X56417Y-44326D01*
X56383Y-44316D01*
X56352Y-44300D01*
X56325Y-44278D01*
X56302Y-44251D01*
X56285Y-44220D01*
X56274Y-44187D01*
X56271Y-44152D01*
X56273Y-44118D01*
X56283Y-44084D01*
X56299Y-44053D01*
X56321Y-44025D01*
X56348Y-44003D01*
X56378Y-43986D01*
X56412Y-43975D01*
X56447Y-43971D01*
X56481Y-43973D01*
X56515Y-43983D01*
X56546Y-43999D01*
X56574Y-44020D01*
X56597Y-44047D01*
X56614Y-44077D01*
X56625Y-44111D01*
X56629Y-44145D01*
X56630Y-44150D01*
X56270Y-44150D02*
X56630Y-44150D01*
X56630Y-45150D02*
X56626Y-45184D01*
X56616Y-45218D01*
X56599Y-45249D01*
X56577Y-45276D01*
X56550Y-45299D01*
X56519Y-45315D01*
X56486Y-45326D01*
X56451Y-45329D01*
X56417Y-45326D01*
X56383Y-45316D01*
X56352Y-45300D01*
X56325Y-45278D01*
X56302Y-45251D01*
X56285Y-45220D01*
X56274Y-45187D01*
X56271Y-45152D01*
X56273Y-45118D01*
X56283Y-45084D01*
X56299Y-45053D01*
X56321Y-45025D01*
X56348Y-45003D01*
X56378Y-44986D01*
X56412Y-44975D01*
X56447Y-44971D01*
X56481Y-44973D01*
X56515Y-44983D01*
X56546Y-44999D01*
X56574Y-45020D01*
X56597Y-45047D01*
X56614Y-45077D01*
X56625Y-45111D01*
X56629Y-45145D01*
X56630Y-45150D01*
X56270Y-45150D02*
X56630Y-45150D01*
X56630Y-46150D02*
X56626Y-46184D01*
X56616Y-46218D01*
X56599Y-46249D01*
X56577Y-46276D01*
X56550Y-46299D01*
X56519Y-46315D01*
X56486Y-46326D01*
X56451Y-46329D01*
X56417Y-46326D01*
X56383Y-46316D01*
X56352Y-46300D01*
X56325Y-46278D01*
X56302Y-46251D01*
X56285Y-46220D01*
X56274Y-46187D01*
X56271Y-46152D01*
X56273Y-46118D01*
X56283Y-46084D01*
X56299Y-46053D01*
X56321Y-46025D01*
X56348Y-46003D01*
X56378Y-45986D01*
X56412Y-45975D01*
X56447Y-45971D01*
X56481Y-45973D01*
X56515Y-45983D01*
X56546Y-45999D01*
X56574Y-46020D01*
X56597Y-46047D01*
X56614Y-46077D01*
X56625Y-46111D01*
X56629Y-46145D01*
X56630Y-46150D01*
X56270Y-46150D02*
X56630Y-46150D01*
X56630Y-47150D02*
X56626Y-47184D01*
X56616Y-47218D01*
X56599Y-47249D01*
X56577Y-47276D01*
X56550Y-47299D01*
X56519Y-47315D01*
X56486Y-47326D01*
X56451Y-47329D01*
X56417Y-47326D01*
X56383Y-47316D01*
X56352Y-47300D01*
X56325Y-47278D01*
X56302Y-47251D01*
X56285Y-47220D01*
X56274Y-47187D01*
X56271Y-47152D01*
X56273Y-47118D01*
X56283Y-47084D01*
X56299Y-47053D01*
X56321Y-47025D01*
X56348Y-47003D01*
X56378Y-46986D01*
X56412Y-46975D01*
X56447Y-46971D01*
X56481Y-46973D01*
X56515Y-46983D01*
X56546Y-46999D01*
X56574Y-47020D01*
X56597Y-47047D01*
X56614Y-47077D01*
X56625Y-47111D01*
X56629Y-47145D01*
X56630Y-47150D01*
X56270Y-47150D02*
X56630Y-47150D01*
X56630Y-48150D02*
X56626Y-48184D01*
X56616Y-48218D01*
X56599Y-48249D01*
X56577Y-48276D01*
X56550Y-48299D01*
X56519Y-48315D01*
X56486Y-48326D01*
X56451Y-48329D01*
X56417Y-48326D01*
X56383Y-48316D01*
X56352Y-48300D01*
X56325Y-48278D01*
X56302Y-48251D01*
X56285Y-48220D01*
X56274Y-48187D01*
X56271Y-48152D01*
X56273Y-48118D01*
X56283Y-48084D01*
X56299Y-48053D01*
X56321Y-48025D01*
X56348Y-48003D01*
X56378Y-47986D01*
X56412Y-47975D01*
X56447Y-47971D01*
X56481Y-47973D01*
X56515Y-47983D01*
X56546Y-47999D01*
X56574Y-48020D01*
X56597Y-48047D01*
X56614Y-48077D01*
X56625Y-48111D01*
X56629Y-48145D01*
X56630Y-48150D01*
X56270Y-48150D02*
X56630Y-48150D01*
X56630Y-49150D02*
X56626Y-49184D01*
X56616Y-49218D01*
X56599Y-49249D01*
X56577Y-49276D01*
X56550Y-49299D01*
X56519Y-49315D01*
X56486Y-49326D01*
X56451Y-49329D01*
X56417Y-49326D01*
X56383Y-49316D01*
X56352Y-49300D01*
X56325Y-49278D01*
X56302Y-49251D01*
X56285Y-49220D01*
X56274Y-49187D01*
X56271Y-49152D01*
X56273Y-49118D01*
X56283Y-49084D01*
X56299Y-49053D01*
X56321Y-49025D01*
X56348Y-49003D01*
X56378Y-48986D01*
X56412Y-48975D01*
X56447Y-48971D01*
X56481Y-48973D01*
X56515Y-48983D01*
X56546Y-48999D01*
X56574Y-49020D01*
X56597Y-49047D01*
X56614Y-49077D01*
X56625Y-49111D01*
X56629Y-49145D01*
X56630Y-49150D01*
X56270Y-49150D02*
X56630Y-49150D01*
X56630Y-50150D02*
X56626Y-50184D01*
X56616Y-50218D01*
X56599Y-50249D01*
X56577Y-50276D01*
X56550Y-50299D01*
X56519Y-50315D01*
X56486Y-50326D01*
X56451Y-50329D01*
X56417Y-50326D01*
X56383Y-50316D01*
X56352Y-50300D01*
X56325Y-50278D01*
X56302Y-50251D01*
X56285Y-50220D01*
X56274Y-50187D01*
X56271Y-50152D01*
X56273Y-50118D01*
X56283Y-50084D01*
X56299Y-50053D01*
X56321Y-50025D01*
X56348Y-50003D01*
X56378Y-49986D01*
X56412Y-49975D01*
X56447Y-49971D01*
X56481Y-49973D01*
X56515Y-49983D01*
X56546Y-49999D01*
X56574Y-50020D01*
X56597Y-50047D01*
X56614Y-50077D01*
X56625Y-50111D01*
X56629Y-50145D01*
X56630Y-50150D01*
X56270Y-50150D02*
X56630Y-50150D01*
X56630Y-51150D02*
X56626Y-51184D01*
X56616Y-51218D01*
X56599Y-51249D01*
X56577Y-51276D01*
X56550Y-51299D01*
X56519Y-51315D01*
X56486Y-51326D01*
X56451Y-51329D01*
X56417Y-51326D01*
X56383Y-51316D01*
X56352Y-51300D01*
X56325Y-51278D01*
X56302Y-51251D01*
X56285Y-51220D01*
X56274Y-51187D01*
X56271Y-51152D01*
X56273Y-51118D01*
X56283Y-51084D01*
X56299Y-51053D01*
X56321Y-51025D01*
X56348Y-51003D01*
X56378Y-50986D01*
X56412Y-50975D01*
X56447Y-50971D01*
X56481Y-50973D01*
X56515Y-50983D01*
X56546Y-50999D01*
X56574Y-51020D01*
X56597Y-51047D01*
X56614Y-51077D01*
X56625Y-51111D01*
X56629Y-51145D01*
X56630Y-51150D01*
X56270Y-51150D02*
X56630Y-51150D01*
X56630Y-52150D02*
X56626Y-52184D01*
X56616Y-52218D01*
X56599Y-52249D01*
X56577Y-52276D01*
X56550Y-52299D01*
X56519Y-52315D01*
X56486Y-52326D01*
X56451Y-52329D01*
X56417Y-52326D01*
X56383Y-52316D01*
X56352Y-52300D01*
X56325Y-52278D01*
X56302Y-52251D01*
X56285Y-52220D01*
X56274Y-52187D01*
X56271Y-52152D01*
X56273Y-52118D01*
X56283Y-52084D01*
X56299Y-52053D01*
X56321Y-52025D01*
X56348Y-52003D01*
X56378Y-51986D01*
X56412Y-51975D01*
X56447Y-51971D01*
X56481Y-51973D01*
X56515Y-51983D01*
X56546Y-51999D01*
X56574Y-52020D01*
X56597Y-52047D01*
X56614Y-52077D01*
X56625Y-52111D01*
X56629Y-52145D01*
X56630Y-52150D01*
X56270Y-52150D02*
X56630Y-52150D01*
X57630Y-43150D02*
X57626Y-43184D01*
X57616Y-43218D01*
X57599Y-43249D01*
X57577Y-43276D01*
X57550Y-43299D01*
X57519Y-43315D01*
X57486Y-43326D01*
X57451Y-43329D01*
X57417Y-43326D01*
X57383Y-43316D01*
X57352Y-43300D01*
X57325Y-43278D01*
X57302Y-43251D01*
X57285Y-43220D01*
X57274Y-43187D01*
X57271Y-43152D01*
X57273Y-43118D01*
X57283Y-43084D01*
X57299Y-43053D01*
X57321Y-43025D01*
X57348Y-43003D01*
X57378Y-42986D01*
X57412Y-42975D01*
X57447Y-42971D01*
X57481Y-42973D01*
X57515Y-42983D01*
X57546Y-42999D01*
X57574Y-43020D01*
X57597Y-43047D01*
X57614Y-43077D01*
X57625Y-43111D01*
X57629Y-43145D01*
X57630Y-43150D01*
X57270Y-43150D02*
X57630Y-43150D01*
X57630Y-44150D02*
X57626Y-44184D01*
X57616Y-44218D01*
X57599Y-44249D01*
X57577Y-44276D01*
X57550Y-44299D01*
X57519Y-44315D01*
X57486Y-44326D01*
X57451Y-44329D01*
X57417Y-44326D01*
X57383Y-44316D01*
X57352Y-44300D01*
X57325Y-44278D01*
X57302Y-44251D01*
X57285Y-44220D01*
X57274Y-44187D01*
X57271Y-44152D01*
X57273Y-44118D01*
X57283Y-44084D01*
X57299Y-44053D01*
X57321Y-44025D01*
X57348Y-44003D01*
X57378Y-43986D01*
X57412Y-43975D01*
X57447Y-43971D01*
X57481Y-43973D01*
X57515Y-43983D01*
X57546Y-43999D01*
X57574Y-44020D01*
X57597Y-44047D01*
X57614Y-44077D01*
X57625Y-44111D01*
X57629Y-44145D01*
X57630Y-44150D01*
X57270Y-44150D02*
X57630Y-44150D01*
X57630Y-45150D02*
X57626Y-45184D01*
X57616Y-45218D01*
X57599Y-45249D01*
X57577Y-45276D01*
X57550Y-45299D01*
X57519Y-45315D01*
X57486Y-45326D01*
X57451Y-45329D01*
X57417Y-45326D01*
X57383Y-45316D01*
X57352Y-45300D01*
X57325Y-45278D01*
X57302Y-45251D01*
X57285Y-45220D01*
X57274Y-45187D01*
X57271Y-45152D01*
X57273Y-45118D01*
X57283Y-45084D01*
X57299Y-45053D01*
X57321Y-45025D01*
X57348Y-45003D01*
X57378Y-44986D01*
X57412Y-44975D01*
X57447Y-44971D01*
X57481Y-44973D01*
X57515Y-44983D01*
X57546Y-44999D01*
X57574Y-45020D01*
X57597Y-45047D01*
X57614Y-45077D01*
X57625Y-45111D01*
X57629Y-45145D01*
X57630Y-45150D01*
X57270Y-45150D02*
X57630Y-45150D01*
X57630Y-46150D02*
X57626Y-46184D01*
X57616Y-46218D01*
X57599Y-46249D01*
X57577Y-46276D01*
X57550Y-46299D01*
X57519Y-46315D01*
X57486Y-46326D01*
X57451Y-46329D01*
X57417Y-46326D01*
X57383Y-46316D01*
X57352Y-46300D01*
X57325Y-46278D01*
X57302Y-46251D01*
X57285Y-46220D01*
X57274Y-46187D01*
X57271Y-46152D01*
X57273Y-46118D01*
X57283Y-46084D01*
X57299Y-46053D01*
X57321Y-46025D01*
X57348Y-46003D01*
X57378Y-45986D01*
X57412Y-45975D01*
X57447Y-45971D01*
X57481Y-45973D01*
X57515Y-45983D01*
X57546Y-45999D01*
X57574Y-46020D01*
X57597Y-46047D01*
X57614Y-46077D01*
X57625Y-46111D01*
X57629Y-46145D01*
X57630Y-46150D01*
X57270Y-46150D02*
X57630Y-46150D01*
X57630Y-47150D02*
X57626Y-47184D01*
X57616Y-47218D01*
X57599Y-47249D01*
X57577Y-47276D01*
X57550Y-47299D01*
X57519Y-47315D01*
X57486Y-47326D01*
X57451Y-47329D01*
X57417Y-47326D01*
X57383Y-47316D01*
X57352Y-47300D01*
X57325Y-47278D01*
X57302Y-47251D01*
X57285Y-47220D01*
X57274Y-47187D01*
X57271Y-47152D01*
X57273Y-47118D01*
X57283Y-47084D01*
X57299Y-47053D01*
X57321Y-47025D01*
X57348Y-47003D01*
X57378Y-46986D01*
X57412Y-46975D01*
X57447Y-46971D01*
X57481Y-46973D01*
X57515Y-46983D01*
X57546Y-46999D01*
X57574Y-47020D01*
X57597Y-47047D01*
X57614Y-47077D01*
X57625Y-47111D01*
X57629Y-47145D01*
X57630Y-47150D01*
X57270Y-47150D02*
X57630Y-47150D01*
X57630Y-48150D02*
X57626Y-48184D01*
X57616Y-48218D01*
X57599Y-48249D01*
X57577Y-48276D01*
X57550Y-48299D01*
X57519Y-48315D01*
X57486Y-48326D01*
X57451Y-48329D01*
X57417Y-48326D01*
X57383Y-48316D01*
X57352Y-48300D01*
X57325Y-48278D01*
X57302Y-48251D01*
X57285Y-48220D01*
X57274Y-48187D01*
X57271Y-48152D01*
X57273Y-48118D01*
X57283Y-48084D01*
X57299Y-48053D01*
X57321Y-48025D01*
X57348Y-48003D01*
X57378Y-47986D01*
X57412Y-47975D01*
X57447Y-47971D01*
X57481Y-47973D01*
X57515Y-47983D01*
X57546Y-47999D01*
X57574Y-48020D01*
X57597Y-48047D01*
X57614Y-48077D01*
X57625Y-48111D01*
X57629Y-48145D01*
X57630Y-48150D01*
X57270Y-48150D02*
X57630Y-48150D01*
X57630Y-49150D02*
X57626Y-49184D01*
X57616Y-49218D01*
X57599Y-49249D01*
X57577Y-49276D01*
X57550Y-49299D01*
X57519Y-49315D01*
X57486Y-49326D01*
X57451Y-49329D01*
X57417Y-49326D01*
X57383Y-49316D01*
X57352Y-49300D01*
X57325Y-49278D01*
X57302Y-49251D01*
X57285Y-49220D01*
X57274Y-49187D01*
X57271Y-49152D01*
X57273Y-49118D01*
X57283Y-49084D01*
X57299Y-49053D01*
X57321Y-49025D01*
X57348Y-49003D01*
X57378Y-48986D01*
X57412Y-48975D01*
X57447Y-48971D01*
X57481Y-48973D01*
X57515Y-48983D01*
X57546Y-48999D01*
X57574Y-49020D01*
X57597Y-49047D01*
X57614Y-49077D01*
X57625Y-49111D01*
X57629Y-49145D01*
X57630Y-49150D01*
X57270Y-49150D02*
X57630Y-49150D01*
X57630Y-50150D02*
X57626Y-50184D01*
X57616Y-50218D01*
X57599Y-50249D01*
X57577Y-50276D01*
X57550Y-50299D01*
X57519Y-50315D01*
X57486Y-50326D01*
X57451Y-50329D01*
X57417Y-50326D01*
X57383Y-50316D01*
X57352Y-50300D01*
X57325Y-50278D01*
X57302Y-50251D01*
X57285Y-50220D01*
X57274Y-50187D01*
X57271Y-50152D01*
X57273Y-50118D01*
X57283Y-50084D01*
X57299Y-50053D01*
X57321Y-50025D01*
X57348Y-50003D01*
X57378Y-49986D01*
X57412Y-49975D01*
X57447Y-49971D01*
X57481Y-49973D01*
X57515Y-49983D01*
X57546Y-49999D01*
X57574Y-50020D01*
X57597Y-50047D01*
X57614Y-50077D01*
X57625Y-50111D01*
X57629Y-50145D01*
X57630Y-50150D01*
X57270Y-50150D02*
X57630Y-50150D01*
X57630Y-51150D02*
X57626Y-51184D01*
X57616Y-51218D01*
X57599Y-51249D01*
X57577Y-51276D01*
X57550Y-51299D01*
X57519Y-51315D01*
X57486Y-51326D01*
X57451Y-51329D01*
X57417Y-51326D01*
X57383Y-51316D01*
X57352Y-51300D01*
X57325Y-51278D01*
X57302Y-51251D01*
X57285Y-51220D01*
X57274Y-51187D01*
X57271Y-51152D01*
X57273Y-51118D01*
X57283Y-51084D01*
X57299Y-51053D01*
X57321Y-51025D01*
X57348Y-51003D01*
X57378Y-50986D01*
X57412Y-50975D01*
X57447Y-50971D01*
X57481Y-50973D01*
X57515Y-50983D01*
X57546Y-50999D01*
X57574Y-51020D01*
X57597Y-51047D01*
X57614Y-51077D01*
X57625Y-51111D01*
X57629Y-51145D01*
X57630Y-51150D01*
X57270Y-51150D02*
X57630Y-51150D01*
X57630Y-52150D02*
X57626Y-52184D01*
X57616Y-52218D01*
X57599Y-52249D01*
X57577Y-52276D01*
X57550Y-52299D01*
X57519Y-52315D01*
X57486Y-52326D01*
X57451Y-52329D01*
X57417Y-52326D01*
X57383Y-52316D01*
X57352Y-52300D01*
X57325Y-52278D01*
X57302Y-52251D01*
X57285Y-52220D01*
X57274Y-52187D01*
X57271Y-52152D01*
X57273Y-52118D01*
X57283Y-52084D01*
X57299Y-52053D01*
X57321Y-52025D01*
X57348Y-52003D01*
X57378Y-51986D01*
X57412Y-51975D01*
X57447Y-51971D01*
X57481Y-51973D01*
X57515Y-51983D01*
X57546Y-51999D01*
X57574Y-52020D01*
X57597Y-52047D01*
X57614Y-52077D01*
X57625Y-52111D01*
X57629Y-52145D01*
X57630Y-52150D01*
X57270Y-52150D02*
X57630Y-52150D01*
X43100Y-33700D02*
X43096Y-33738D01*
X43084Y-33776D01*
X43066Y-33810D01*
X43041Y-33840D01*
X43011Y-33865D01*
X42977Y-33884D01*
X42940Y-33895D01*
X42901Y-33899D01*
X42863Y-33896D01*
X42826Y-33885D01*
X42791Y-33867D01*
X42761Y-33842D01*
X42735Y-33812D01*
X42717Y-33778D01*
X42705Y-33741D01*
X42701Y-33702D01*
X42704Y-33664D01*
X42715Y-33627D01*
X42732Y-33592D01*
X42757Y-33562D01*
X42786Y-33536D01*
X42820Y-33517D01*
X42858Y-33505D01*
X42896Y-33501D01*
X42934Y-33504D01*
X42972Y-33514D01*
X43007Y-33532D01*
X43037Y-33556D01*
X43063Y-33585D01*
X43082Y-33619D01*
X43095Y-33656D01*
X43099Y-33695D01*
X43100Y-33700D01*
X42900Y-33500D02*
X42900Y-33900D01*
X43100Y-34700D02*
X43096Y-34738D01*
X43084Y-34776D01*
X43066Y-34810D01*
X43041Y-34840D01*
X43011Y-34865D01*
X42977Y-34884D01*
X42940Y-34895D01*
X42901Y-34899D01*
X42863Y-34896D01*
X42826Y-34885D01*
X42791Y-34867D01*
X42761Y-34842D01*
X42735Y-34812D01*
X42717Y-34778D01*
X42705Y-34741D01*
X42701Y-34702D01*
X42704Y-34664D01*
X42715Y-34627D01*
X42732Y-34592D01*
X42757Y-34562D01*
X42786Y-34536D01*
X42820Y-34517D01*
X42858Y-34505D01*
X42896Y-34501D01*
X42934Y-34504D01*
X42972Y-34514D01*
X43007Y-34532D01*
X43037Y-34556D01*
X43063Y-34585D01*
X43082Y-34619D01*
X43095Y-34656D01*
X43099Y-34695D01*
X43100Y-34700D01*
X42900Y-34500D02*
X42900Y-34900D01*
X43100Y-35700D02*
X43096Y-35738D01*
X43084Y-35776D01*
X43066Y-35810D01*
X43041Y-35840D01*
X43011Y-35865D01*
X42977Y-35884D01*
X42940Y-35895D01*
X42901Y-35899D01*
X42863Y-35896D01*
X42826Y-35885D01*
X42791Y-35867D01*
X42761Y-35842D01*
X42735Y-35812D01*
X42717Y-35778D01*
X42705Y-35741D01*
X42701Y-35702D01*
X42704Y-35664D01*
X42715Y-35627D01*
X42732Y-35592D01*
X42757Y-35562D01*
X42786Y-35536D01*
X42820Y-35517D01*
X42858Y-35505D01*
X42896Y-35501D01*
X42934Y-35504D01*
X42972Y-35514D01*
X43007Y-35532D01*
X43037Y-35556D01*
X43063Y-35585D01*
X43082Y-35619D01*
X43095Y-35656D01*
X43099Y-35695D01*
X43100Y-35700D01*
X42900Y-35500D02*
X42900Y-35900D01*
X43100Y-36700D02*
X43096Y-36738D01*
X43084Y-36776D01*
X43066Y-36810D01*
X43041Y-36840D01*
X43011Y-36865D01*
X42977Y-36884D01*
X42940Y-36895D01*
X42901Y-36899D01*
X42863Y-36896D01*
X42826Y-36885D01*
X42791Y-36867D01*
X42761Y-36842D01*
X42735Y-36812D01*
X42717Y-36778D01*
X42705Y-36741D01*
X42701Y-36702D01*
X42704Y-36664D01*
X42715Y-36627D01*
X42732Y-36592D01*
X42757Y-36562D01*
X42786Y-36536D01*
X42820Y-36517D01*
X42858Y-36505D01*
X42896Y-36501D01*
X42934Y-36504D01*
X42972Y-36514D01*
X43007Y-36532D01*
X43037Y-36556D01*
X43063Y-36585D01*
X43082Y-36619D01*
X43095Y-36656D01*
X43099Y-36695D01*
X43100Y-36700D01*
X42900Y-36500D02*
X42900Y-36900D01*
X46150Y-42000D02*
X46146Y-42038D01*
X46134Y-42076D01*
X46116Y-42110D01*
X46091Y-42140D01*
X46061Y-42165D01*
X46027Y-42184D01*
X45990Y-42195D01*
X45951Y-42199D01*
X45913Y-42196D01*
X45876Y-42185D01*
X45841Y-42167D01*
X45811Y-42142D01*
X45785Y-42112D01*
X45767Y-42078D01*
X45755Y-42041D01*
X45751Y-42002D01*
X45754Y-41964D01*
X45765Y-41927D01*
X45782Y-41892D01*
X45807Y-41862D01*
X45836Y-41836D01*
X45870Y-41817D01*
X45908Y-41805D01*
X45946Y-41801D01*
X45984Y-41804D01*
X46022Y-41814D01*
X46057Y-41832D01*
X46087Y-41856D01*
X46113Y-41885D01*
X46132Y-41919D01*
X46145Y-41956D01*
X46149Y-41995D01*
X46150Y-42000D01*
X45950Y-41800D02*
X45950Y-42200D01*
X46150Y-43000D02*
X46146Y-43038D01*
X46134Y-43076D01*
X46116Y-43110D01*
X46091Y-43140D01*
X46061Y-43165D01*
X46027Y-43184D01*
X45990Y-43195D01*
X45951Y-43199D01*
X45913Y-43196D01*
X45876Y-43185D01*
X45841Y-43167D01*
X45811Y-43142D01*
X45785Y-43112D01*
X45767Y-43078D01*
X45755Y-43041D01*
X45751Y-43002D01*
X45754Y-42964D01*
X45765Y-42927D01*
X45782Y-42892D01*
X45807Y-42862D01*
X45836Y-42836D01*
X45870Y-42817D01*
X45908Y-42805D01*
X45946Y-42801D01*
X45984Y-42804D01*
X46022Y-42814D01*
X46057Y-42832D01*
X46087Y-42856D01*
X46113Y-42885D01*
X46132Y-42919D01*
X46145Y-42956D01*
X46149Y-42995D01*
X46150Y-43000D01*
X45950Y-42800D02*
X45950Y-43200D01*
X47150Y-42000D02*
X47146Y-42038D01*
X47134Y-42076D01*
X47116Y-42110D01*
X47091Y-42140D01*
X47061Y-42165D01*
X47027Y-42184D01*
X46990Y-42195D01*
X46951Y-42199D01*
X46913Y-42196D01*
X46876Y-42185D01*
X46841Y-42167D01*
X46811Y-42142D01*
X46785Y-42112D01*
X46767Y-42078D01*
X46755Y-42041D01*
X46751Y-42002D01*
X46754Y-41964D01*
X46765Y-41927D01*
X46782Y-41892D01*
X46807Y-41862D01*
X46836Y-41836D01*
X46870Y-41817D01*
X46908Y-41805D01*
X46946Y-41801D01*
X46984Y-41804D01*
X47022Y-41814D01*
X47057Y-41832D01*
X47087Y-41856D01*
X47113Y-41885D01*
X47132Y-41919D01*
X47145Y-41956D01*
X47149Y-41995D01*
X47150Y-42000D01*
X46950Y-41800D02*
X46950Y-42200D01*
X47150Y-43000D02*
X47146Y-43038D01*
X47134Y-43076D01*
X47116Y-43110D01*
X47091Y-43140D01*
X47061Y-43165D01*
X47027Y-43184D01*
X46990Y-43195D01*
X46951Y-43199D01*
X46913Y-43196D01*
X46876Y-43185D01*
X46841Y-43167D01*
X46811Y-43142D01*
X46785Y-43112D01*
X46767Y-43078D01*
X46755Y-43041D01*
X46751Y-43002D01*
X46754Y-42964D01*
X46765Y-42927D01*
X46782Y-42892D01*
X46807Y-42862D01*
X46836Y-42836D01*
X46870Y-42817D01*
X46908Y-42805D01*
X46946Y-42801D01*
X46984Y-42804D01*
X47022Y-42814D01*
X47057Y-42832D01*
X47087Y-42856D01*
X47113Y-42885D01*
X47132Y-42919D01*
X47145Y-42956D01*
X47149Y-42995D01*
X47150Y-43000D01*
X46950Y-42800D02*
X46950Y-43200D01*
X48150Y-42000D02*
X48146Y-42038D01*
X48134Y-42076D01*
X48116Y-42110D01*
X48091Y-42140D01*
X48061Y-42165D01*
X48027Y-42184D01*
X47990Y-42195D01*
X47951Y-42199D01*
X47913Y-42196D01*
X47876Y-42185D01*
X47841Y-42167D01*
X47811Y-42142D01*
X47785Y-42112D01*
X47767Y-42078D01*
X47755Y-42041D01*
X47751Y-42002D01*
X47754Y-41964D01*
X47765Y-41927D01*
X47782Y-41892D01*
X47807Y-41862D01*
X47836Y-41836D01*
X47870Y-41817D01*
X47908Y-41805D01*
X47946Y-41801D01*
X47984Y-41804D01*
X48022Y-41814D01*
X48057Y-41832D01*
X48087Y-41856D01*
X48113Y-41885D01*
X48132Y-41919D01*
X48145Y-41956D01*
X48149Y-41995D01*
X48150Y-42000D01*
X47950Y-41800D02*
X47950Y-42200D01*
X48150Y-43000D02*
X48146Y-43038D01*
X48134Y-43076D01*
X48116Y-43110D01*
X48091Y-43140D01*
X48061Y-43165D01*
X48027Y-43184D01*
X47990Y-43195D01*
X47951Y-43199D01*
X47913Y-43196D01*
X47876Y-43185D01*
X47841Y-43167D01*
X47811Y-43142D01*
X47785Y-43112D01*
X47767Y-43078D01*
X47755Y-43041D01*
X47751Y-43002D01*
X47754Y-42964D01*
X47765Y-42927D01*
X47782Y-42892D01*
X47807Y-42862D01*
X47836Y-42836D01*
X47870Y-42817D01*
X47908Y-42805D01*
X47946Y-42801D01*
X47984Y-42804D01*
X48022Y-42814D01*
X48057Y-42832D01*
X48087Y-42856D01*
X48113Y-42885D01*
X48132Y-42919D01*
X48145Y-42956D01*
X48149Y-42995D01*
X48150Y-43000D01*
X47950Y-42800D02*
X47950Y-43200D01*
X49150Y-42000D02*
X49146Y-42038D01*
X49134Y-42076D01*
X49116Y-42110D01*
X49091Y-42140D01*
X49061Y-42165D01*
X49027Y-42184D01*
X48990Y-42195D01*
X48951Y-42199D01*
X48913Y-42196D01*
X48876Y-42185D01*
X48841Y-42167D01*
X48811Y-42142D01*
X48785Y-42112D01*
X48767Y-42078D01*
X48755Y-42041D01*
X48751Y-42002D01*
X48754Y-41964D01*
X48765Y-41927D01*
X48782Y-41892D01*
X48807Y-41862D01*
X48836Y-41836D01*
X48870Y-41817D01*
X48908Y-41805D01*
X48946Y-41801D01*
X48984Y-41804D01*
X49022Y-41814D01*
X49057Y-41832D01*
X49087Y-41856D01*
X49113Y-41885D01*
X49132Y-41919D01*
X49145Y-41956D01*
X49149Y-41995D01*
X49150Y-42000D01*
X48950Y-41800D02*
X48950Y-42200D01*
X49150Y-43000D02*
X49146Y-43038D01*
X49134Y-43076D01*
X49116Y-43110D01*
X49091Y-43140D01*
X49061Y-43165D01*
X49027Y-43184D01*
X48990Y-43195D01*
X48951Y-43199D01*
X48913Y-43196D01*
X48876Y-43185D01*
X48841Y-43167D01*
X48811Y-43142D01*
X48785Y-43112D01*
X48767Y-43078D01*
X48755Y-43041D01*
X48751Y-43002D01*
X48754Y-42964D01*
X48765Y-42927D01*
X48782Y-42892D01*
X48807Y-42862D01*
X48836Y-42836D01*
X48870Y-42817D01*
X48908Y-42805D01*
X48946Y-42801D01*
X48984Y-42804D01*
X49022Y-42814D01*
X49057Y-42832D01*
X49087Y-42856D01*
X49113Y-42885D01*
X49132Y-42919D01*
X49145Y-42956D01*
X49149Y-42995D01*
X49150Y-43000D01*
X48950Y-42800D02*
X48950Y-43200D01*
X50150Y-42000D02*
X50146Y-42038D01*
X50134Y-42076D01*
X50116Y-42110D01*
X50091Y-42140D01*
X50061Y-42165D01*
X50027Y-42184D01*
X49990Y-42195D01*
X49951Y-42199D01*
X49913Y-42196D01*
X49876Y-42185D01*
X49841Y-42167D01*
X49811Y-42142D01*
X49785Y-42112D01*
X49767Y-42078D01*
X49755Y-42041D01*
X49751Y-42002D01*
X49754Y-41964D01*
X49765Y-41927D01*
X49782Y-41892D01*
X49807Y-41862D01*
X49836Y-41836D01*
X49870Y-41817D01*
X49908Y-41805D01*
X49946Y-41801D01*
X49984Y-41804D01*
X50022Y-41814D01*
X50057Y-41832D01*
X50087Y-41856D01*
X50113Y-41885D01*
X50132Y-41919D01*
X50145Y-41956D01*
X50149Y-41995D01*
X50150Y-42000D01*
X49950Y-41800D02*
X49950Y-42200D01*
X50150Y-43000D02*
X50146Y-43038D01*
X50134Y-43076D01*
X50116Y-43110D01*
X50091Y-43140D01*
X50061Y-43165D01*
X50027Y-43184D01*
X49990Y-43195D01*
X49951Y-43199D01*
X49913Y-43196D01*
X49876Y-43185D01*
X49841Y-43167D01*
X49811Y-43142D01*
X49785Y-43112D01*
X49767Y-43078D01*
X49755Y-43041D01*
X49751Y-43002D01*
X49754Y-42964D01*
X49765Y-42927D01*
X49782Y-42892D01*
X49807Y-42862D01*
X49836Y-42836D01*
X49870Y-42817D01*
X49908Y-42805D01*
X49946Y-42801D01*
X49984Y-42804D01*
X50022Y-42814D01*
X50057Y-42832D01*
X50087Y-42856D01*
X50113Y-42885D01*
X50132Y-42919D01*
X50145Y-42956D01*
X50149Y-42995D01*
X50150Y-43000D01*
X49950Y-42800D02*
X49950Y-43200D01*
X58100Y-32200D02*
X58096Y-32238D01*
X58084Y-32276D01*
X58066Y-32310D01*
X58041Y-32340D01*
X58011Y-32365D01*
X57977Y-32384D01*
X57940Y-32395D01*
X57901Y-32399D01*
X57863Y-32396D01*
X57826Y-32385D01*
X57791Y-32367D01*
X57761Y-32342D01*
X57735Y-32312D01*
X57717Y-32278D01*
X57705Y-32241D01*
X57701Y-32202D01*
X57704Y-32164D01*
X57715Y-32127D01*
X57732Y-32092D01*
X57757Y-32062D01*
X57786Y-32036D01*
X57820Y-32017D01*
X57858Y-32005D01*
X57896Y-32001D01*
X57934Y-32004D01*
X57972Y-32014D01*
X58007Y-32032D01*
X58037Y-32056D01*
X58063Y-32085D01*
X58082Y-32119D01*
X58095Y-32156D01*
X58099Y-32195D01*
X58100Y-32200D01*
X57900Y-32000D02*
X57900Y-32400D01*
X58100Y-33200D02*
X58096Y-33238D01*
X58084Y-33276D01*
X58066Y-33310D01*
X58041Y-33340D01*
X58011Y-33365D01*
X57977Y-33384D01*
X57940Y-33395D01*
X57901Y-33399D01*
X57863Y-33396D01*
X57826Y-33385D01*
X57791Y-33367D01*
X57761Y-33342D01*
X57735Y-33312D01*
X57717Y-33278D01*
X57705Y-33241D01*
X57701Y-33202D01*
X57704Y-33164D01*
X57715Y-33127D01*
X57732Y-33092D01*
X57757Y-33062D01*
X57786Y-33036D01*
X57820Y-33017D01*
X57858Y-33005D01*
X57896Y-33001D01*
X57934Y-33004D01*
X57972Y-33014D01*
X58007Y-33032D01*
X58037Y-33056D01*
X58063Y-33085D01*
X58082Y-33119D01*
X58095Y-33156D01*
X58099Y-33195D01*
X58100Y-33200D01*
X57900Y-33000D02*
X57900Y-33400D01*
X58100Y-34200D02*
X58096Y-34238D01*
X58084Y-34276D01*
X58066Y-34310D01*
X58041Y-34340D01*
X58011Y-34365D01*
X57977Y-34384D01*
X57940Y-34395D01*
X57901Y-34399D01*
X57863Y-34396D01*
X57826Y-34385D01*
X57791Y-34367D01*
X57761Y-34342D01*
X57735Y-34312D01*
X57717Y-34278D01*
X57705Y-34241D01*
X57701Y-34202D01*
X57704Y-34164D01*
X57715Y-34127D01*
X57732Y-34092D01*
X57757Y-34062D01*
X57786Y-34036D01*
X57820Y-34017D01*
X57858Y-34005D01*
X57896Y-34001D01*
X57934Y-34004D01*
X57972Y-34014D01*
X58007Y-34032D01*
X58037Y-34056D01*
X58063Y-34085D01*
X58082Y-34119D01*
X58095Y-34156D01*
X58099Y-34195D01*
X58100Y-34200D01*
X57900Y-34000D02*
X57900Y-34400D01*
X58100Y-35200D02*
X58096Y-35238D01*
X58084Y-35276D01*
X58066Y-35310D01*
X58041Y-35340D01*
X58011Y-35365D01*
X57977Y-35384D01*
X57940Y-35395D01*
X57901Y-35399D01*
X57863Y-35396D01*
X57826Y-35385D01*
X57791Y-35367D01*
X57761Y-35342D01*
X57735Y-35312D01*
X57717Y-35278D01*
X57705Y-35241D01*
X57701Y-35202D01*
X57704Y-35164D01*
X57715Y-35127D01*
X57732Y-35092D01*
X57757Y-35062D01*
X57786Y-35036D01*
X57820Y-35017D01*
X57858Y-35005D01*
X57896Y-35001D01*
X57934Y-35004D01*
X57972Y-35014D01*
X58007Y-35032D01*
X58037Y-35056D01*
X58063Y-35085D01*
X58082Y-35119D01*
X58095Y-35156D01*
X58099Y-35195D01*
X58100Y-35200D01*
X57900Y-35000D02*
X57900Y-35400D01*
X58100Y-36200D02*
X58096Y-36238D01*
X58084Y-36276D01*
X58066Y-36310D01*
X58041Y-36340D01*
X58011Y-36365D01*
X57977Y-36384D01*
X57940Y-36395D01*
X57901Y-36399D01*
X57863Y-36396D01*
X57826Y-36385D01*
X57791Y-36367D01*
X57761Y-36342D01*
X57735Y-36312D01*
X57717Y-36278D01*
X57705Y-36241D01*
X57701Y-36202D01*
X57704Y-36164D01*
X57715Y-36127D01*
X57732Y-36092D01*
X57757Y-36062D01*
X57786Y-36036D01*
X57820Y-36017D01*
X57858Y-36005D01*
X57896Y-36001D01*
X57934Y-36004D01*
X57972Y-36014D01*
X58007Y-36032D01*
X58037Y-36056D01*
X58063Y-36085D01*
X58082Y-36119D01*
X58095Y-36156D01*
X58099Y-36195D01*
X58100Y-36200D01*
X57900Y-36000D02*
X57900Y-36400D01*
X58100Y-37200D02*
X58096Y-37238D01*
X58084Y-37276D01*
X58066Y-37310D01*
X58041Y-37340D01*
X58011Y-37365D01*
X57977Y-37384D01*
X57940Y-37395D01*
X57901Y-37399D01*
X57863Y-37396D01*
X57826Y-37385D01*
X57791Y-37367D01*
X57761Y-37342D01*
X57735Y-37312D01*
X57717Y-37278D01*
X57705Y-37241D01*
X57701Y-37202D01*
X57704Y-37164D01*
X57715Y-37127D01*
X57732Y-37092D01*
X57757Y-37062D01*
X57786Y-37036D01*
X57820Y-37017D01*
X57858Y-37005D01*
X57896Y-37001D01*
X57934Y-37004D01*
X57972Y-37014D01*
X58007Y-37032D01*
X58037Y-37056D01*
X58063Y-37085D01*
X58082Y-37119D01*
X58095Y-37156D01*
X58099Y-37195D01*
X58100Y-37200D01*
X57900Y-37000D02*
X57900Y-37400D01*
X58100Y-38200D02*
X58096Y-38238D01*
X58084Y-38276D01*
X58066Y-38310D01*
X58041Y-38340D01*
X58011Y-38365D01*
X57977Y-38384D01*
X57940Y-38395D01*
X57901Y-38399D01*
X57863Y-38396D01*
X57826Y-38385D01*
X57791Y-38367D01*
X57761Y-38342D01*
X57735Y-38312D01*
X57717Y-38278D01*
X57705Y-38241D01*
X57701Y-38202D01*
X57704Y-38164D01*
X57715Y-38127D01*
X57732Y-38092D01*
X57757Y-38062D01*
X57786Y-38036D01*
X57820Y-38017D01*
X57858Y-38005D01*
X57896Y-38001D01*
X57934Y-38004D01*
X57972Y-38014D01*
X58007Y-38032D01*
X58037Y-38056D01*
X58063Y-38085D01*
X58082Y-38119D01*
X58095Y-38156D01*
X58099Y-38195D01*
X58100Y-38200D01*
X57900Y-38000D02*
X57900Y-38400D01*
X60750Y-32900D02*
X60746Y-32938D01*
X60734Y-32976D01*
X60716Y-33010D01*
X60691Y-33040D01*
X60661Y-33065D01*
X60627Y-33084D01*
X60590Y-33095D01*
X60551Y-33099D01*
X60513Y-33096D01*
X60476Y-33085D01*
X60441Y-33067D01*
X60411Y-33042D01*
X60385Y-33012D01*
X60367Y-32978D01*
X60355Y-32941D01*
X60351Y-32902D01*
X60354Y-32864D01*
X60365Y-32827D01*
X60382Y-32792D01*
X60407Y-32762D01*
X60436Y-32736D01*
X60470Y-32717D01*
X60508Y-32705D01*
X60546Y-32701D01*
X60584Y-32704D01*
X60622Y-32714D01*
X60657Y-32732D01*
X60687Y-32756D01*
X60713Y-32785D01*
X60732Y-32819D01*
X60745Y-32856D01*
X60749Y-32895D01*
X60750Y-32900D01*
X60550Y-32700D02*
X60550Y-33100D01*
X60750Y-33900D02*
X60746Y-33938D01*
X60734Y-33976D01*
X60716Y-34010D01*
X60691Y-34040D01*
X60661Y-34065D01*
X60627Y-34084D01*
X60590Y-34095D01*
X60551Y-34099D01*
X60513Y-34096D01*
X60476Y-34085D01*
X60441Y-34067D01*
X60411Y-34042D01*
X60385Y-34012D01*
X60367Y-33978D01*
X60355Y-33941D01*
X60351Y-33902D01*
X60354Y-33864D01*
X60365Y-33827D01*
X60382Y-33792D01*
X60407Y-33762D01*
X60436Y-33736D01*
X60470Y-33717D01*
X60508Y-33705D01*
X60546Y-33701D01*
X60584Y-33704D01*
X60622Y-33714D01*
X60657Y-33732D01*
X60687Y-33756D01*
X60713Y-33785D01*
X60732Y-33819D01*
X60745Y-33856D01*
X60749Y-33895D01*
X60750Y-33900D01*
X60550Y-33700D02*
X60550Y-34100D01*
X60750Y-34900D02*
X60746Y-34938D01*
X60734Y-34976D01*
X60716Y-35010D01*
X60691Y-35040D01*
X60661Y-35065D01*
X60627Y-35084D01*
X60590Y-35095D01*
X60551Y-35099D01*
X60513Y-35096D01*
X60476Y-35085D01*
X60441Y-35067D01*
X60411Y-35042D01*
X60385Y-35012D01*
X60367Y-34978D01*
X60355Y-34941D01*
X60351Y-34902D01*
X60354Y-34864D01*
X60365Y-34827D01*
X60382Y-34792D01*
X60407Y-34762D01*
X60436Y-34736D01*
X60470Y-34717D01*
X60508Y-34705D01*
X60546Y-34701D01*
X60584Y-34704D01*
X60622Y-34714D01*
X60657Y-34732D01*
X60687Y-34756D01*
X60713Y-34785D01*
X60732Y-34819D01*
X60745Y-34856D01*
X60749Y-34895D01*
X60750Y-34900D01*
X60550Y-34700D02*
X60550Y-35100D01*
X60750Y-35900D02*
X60746Y-35938D01*
X60734Y-35976D01*
X60716Y-36010D01*
X60691Y-36040D01*
X60661Y-36065D01*
X60627Y-36084D01*
X60590Y-36095D01*
X60551Y-36099D01*
X60513Y-36096D01*
X60476Y-36085D01*
X60441Y-36067D01*
X60411Y-36042D01*
X60385Y-36012D01*
X60367Y-35978D01*
X60355Y-35941D01*
X60351Y-35902D01*
X60354Y-35864D01*
X60365Y-35827D01*
X60382Y-35792D01*
X60407Y-35762D01*
X60436Y-35736D01*
X60470Y-35717D01*
X60508Y-35705D01*
X60546Y-35701D01*
X60584Y-35704D01*
X60622Y-35714D01*
X60657Y-35732D01*
X60687Y-35756D01*
X60713Y-35785D01*
X60732Y-35819D01*
X60745Y-35856D01*
X60749Y-35895D01*
X60750Y-35900D01*
X60550Y-35700D02*
X60550Y-36100D01*
X60750Y-36900D02*
X60746Y-36938D01*
X60734Y-36976D01*
X60716Y-37010D01*
X60691Y-37040D01*
X60661Y-37065D01*
X60627Y-37084D01*
X60590Y-37095D01*
X60551Y-37099D01*
X60513Y-37096D01*
X60476Y-37085D01*
X60441Y-37067D01*
X60411Y-37042D01*
X60385Y-37012D01*
X60367Y-36978D01*
X60355Y-36941D01*
X60351Y-36902D01*
X60354Y-36864D01*
X60365Y-36827D01*
X60382Y-36792D01*
X60407Y-36762D01*
X60436Y-36736D01*
X60470Y-36717D01*
X60508Y-36705D01*
X60546Y-36701D01*
X60584Y-36704D01*
X60622Y-36714D01*
X60657Y-36732D01*
X60687Y-36756D01*
X60713Y-36785D01*
X60732Y-36819D01*
X60745Y-36856D01*
X60749Y-36895D01*
X60750Y-36900D01*
X60550Y-36700D02*
X60550Y-37100D01*
X60750Y-37900D02*
X60746Y-37938D01*
X60734Y-37976D01*
X60716Y-38010D01*
X60691Y-38040D01*
X60661Y-38065D01*
X60627Y-38084D01*
X60590Y-38095D01*
X60551Y-38099D01*
X60513Y-38096D01*
X60476Y-38085D01*
X60441Y-38067D01*
X60411Y-38042D01*
X60385Y-38012D01*
X60367Y-37978D01*
X60355Y-37941D01*
X60351Y-37902D01*
X60354Y-37864D01*
X60365Y-37827D01*
X60382Y-37792D01*
X60407Y-37762D01*
X60436Y-37736D01*
X60470Y-37717D01*
X60508Y-37705D01*
X60546Y-37701D01*
X60584Y-37704D01*
X60622Y-37714D01*
X60657Y-37732D01*
X60687Y-37756D01*
X60713Y-37785D01*
X60732Y-37819D01*
X60745Y-37856D01*
X60749Y-37895D01*
X60750Y-37900D01*
X60550Y-37700D02*
X60550Y-38100D01*
X60750Y-38900D02*
X60746Y-38938D01*
X60734Y-38976D01*
X60716Y-39010D01*
X60691Y-39040D01*
X60661Y-39065D01*
X60627Y-39084D01*
X60590Y-39095D01*
X60551Y-39099D01*
X60513Y-39096D01*
X60476Y-39085D01*
X60441Y-39067D01*
X60411Y-39042D01*
X60385Y-39012D01*
X60367Y-38978D01*
X60355Y-38941D01*
X60351Y-38902D01*
X60354Y-38864D01*
X60365Y-38827D01*
X60382Y-38792D01*
X60407Y-38762D01*
X60436Y-38736D01*
X60470Y-38717D01*
X60508Y-38705D01*
X60546Y-38701D01*
X60584Y-38704D01*
X60622Y-38714D01*
X60657Y-38732D01*
X60687Y-38756D01*
X60713Y-38785D01*
X60732Y-38819D01*
X60745Y-38856D01*
X60749Y-38895D01*
X60750Y-38900D01*
X60550Y-38700D02*
X60550Y-39100D01*
X60750Y-39900D02*
X60746Y-39938D01*
X60734Y-39976D01*
X60716Y-40010D01*
X60691Y-40040D01*
X60661Y-40065D01*
X60627Y-40084D01*
X60590Y-40095D01*
X60551Y-40099D01*
X60513Y-40096D01*
X60476Y-40085D01*
X60441Y-40067D01*
X60411Y-40042D01*
X60385Y-40012D01*
X60367Y-39978D01*
X60355Y-39941D01*
X60351Y-39902D01*
X60354Y-39864D01*
X60365Y-39827D01*
X60382Y-39792D01*
X60407Y-39762D01*
X60436Y-39736D01*
X60470Y-39717D01*
X60508Y-39705D01*
X60546Y-39701D01*
X60584Y-39704D01*
X60622Y-39714D01*
X60657Y-39732D01*
X60687Y-39756D01*
X60713Y-39785D01*
X60732Y-39819D01*
X60745Y-39856D01*
X60749Y-39895D01*
X60750Y-39900D01*
X60550Y-39700D02*
X60550Y-40100D01*
X60750Y-40900D02*
X60746Y-40938D01*
X60734Y-40976D01*
X60716Y-41010D01*
X60691Y-41040D01*
X60661Y-41065D01*
X60627Y-41084D01*
X60590Y-41095D01*
X60551Y-41099D01*
X60513Y-41096D01*
X60476Y-41085D01*
X60441Y-41067D01*
X60411Y-41042D01*
X60385Y-41012D01*
X60367Y-40978D01*
X60355Y-40941D01*
X60351Y-40902D01*
X60354Y-40864D01*
X60365Y-40827D01*
X60382Y-40792D01*
X60407Y-40762D01*
X60436Y-40736D01*
X60470Y-40717D01*
X60508Y-40705D01*
X60546Y-40701D01*
X60584Y-40704D01*
X60622Y-40714D01*
X60657Y-40732D01*
X60687Y-40756D01*
X60713Y-40785D01*
X60732Y-40819D01*
X60745Y-40856D01*
X60749Y-40895D01*
X60750Y-40900D01*
X60550Y-40700D02*
X60550Y-41100D01*
X60750Y-41900D02*
X60746Y-41938D01*
X60734Y-41976D01*
X60716Y-42010D01*
X60691Y-42040D01*
X60661Y-42065D01*
X60627Y-42084D01*
X60590Y-42095D01*
X60551Y-42099D01*
X60513Y-42096D01*
X60476Y-42085D01*
X60441Y-42067D01*
X60411Y-42042D01*
X60385Y-42012D01*
X60367Y-41978D01*
X60355Y-41941D01*
X60351Y-41902D01*
X60354Y-41864D01*
X60365Y-41827D01*
X60382Y-41792D01*
X60407Y-41762D01*
X60436Y-41736D01*
X60470Y-41717D01*
X60508Y-41705D01*
X60546Y-41701D01*
X60584Y-41704D01*
X60622Y-41714D01*
X60657Y-41732D01*
X60687Y-41756D01*
X60713Y-41785D01*
X60732Y-41819D01*
X60745Y-41856D01*
X60749Y-41895D01*
X60750Y-41900D01*
X60550Y-41700D02*
X60550Y-42100D01*
X60750Y-42900D02*
X60746Y-42938D01*
X60734Y-42976D01*
X60716Y-43010D01*
X60691Y-43040D01*
X60661Y-43065D01*
X60627Y-43084D01*
X60590Y-43095D01*
X60551Y-43099D01*
X60513Y-43096D01*
X60476Y-43085D01*
X60441Y-43067D01*
X60411Y-43042D01*
X60385Y-43012D01*
X60367Y-42978D01*
X60355Y-42941D01*
X60351Y-42902D01*
X60354Y-42864D01*
X60365Y-42827D01*
X60382Y-42792D01*
X60407Y-42762D01*
X60436Y-42736D01*
X60470Y-42717D01*
X60508Y-42705D01*
X60546Y-42701D01*
X60584Y-42704D01*
X60622Y-42714D01*
X60657Y-42732D01*
X60687Y-42756D01*
X60713Y-42785D01*
X60732Y-42819D01*
X60745Y-42856D01*
X60749Y-42895D01*
X60750Y-42900D01*
X60550Y-42700D02*
X60550Y-43100D01*
X60750Y-43900D02*
X60746Y-43938D01*
X60734Y-43976D01*
X60716Y-44010D01*
X60691Y-44040D01*
X60661Y-44065D01*
X60627Y-44084D01*
X60590Y-44095D01*
X60551Y-44099D01*
X60513Y-44096D01*
X60476Y-44085D01*
X60441Y-44067D01*
X60411Y-44042D01*
X60385Y-44012D01*
X60367Y-43978D01*
X60355Y-43941D01*
X60351Y-43902D01*
X60354Y-43864D01*
X60365Y-43827D01*
X60382Y-43792D01*
X60407Y-43762D01*
X60436Y-43736D01*
X60470Y-43717D01*
X60508Y-43705D01*
X60546Y-43701D01*
X60584Y-43704D01*
X60622Y-43714D01*
X60657Y-43732D01*
X60687Y-43756D01*
X60713Y-43785D01*
X60732Y-43819D01*
X60745Y-43856D01*
X60749Y-43895D01*
X60750Y-43900D01*
X60550Y-43700D02*
X60550Y-44100D01*
X60750Y-44900D02*
X60746Y-44938D01*
X60734Y-44976D01*
X60716Y-45010D01*
X60691Y-45040D01*
X60661Y-45065D01*
X60627Y-45084D01*
X60590Y-45095D01*
X60551Y-45099D01*
X60513Y-45096D01*
X60476Y-45085D01*
X60441Y-45067D01*
X60411Y-45042D01*
X60385Y-45012D01*
X60367Y-44978D01*
X60355Y-44941D01*
X60351Y-44902D01*
X60354Y-44864D01*
X60365Y-44827D01*
X60382Y-44792D01*
X60407Y-44762D01*
X60436Y-44736D01*
X60470Y-44717D01*
X60508Y-44705D01*
X60546Y-44701D01*
X60584Y-44704D01*
X60622Y-44714D01*
X60657Y-44732D01*
X60687Y-44756D01*
X60713Y-44785D01*
X60732Y-44819D01*
X60745Y-44856D01*
X60749Y-44895D01*
X60750Y-44900D01*
X60550Y-44700D02*
X60550Y-45100D01*
X60750Y-45900D02*
X60746Y-45938D01*
X60734Y-45976D01*
X60716Y-46010D01*
X60691Y-46040D01*
X60661Y-46065D01*
X60627Y-46084D01*
X60590Y-46095D01*
X60551Y-46099D01*
X60513Y-46096D01*
X60476Y-46085D01*
X60441Y-46067D01*
X60411Y-46042D01*
X60385Y-46012D01*
X60367Y-45978D01*
X60355Y-45941D01*
X60351Y-45902D01*
X60354Y-45864D01*
X60365Y-45827D01*
X60382Y-45792D01*
X60407Y-45762D01*
X60436Y-45736D01*
X60470Y-45717D01*
X60508Y-45705D01*
X60546Y-45701D01*
X60584Y-45704D01*
X60622Y-45714D01*
X60657Y-45732D01*
X60687Y-45756D01*
X60713Y-45785D01*
X60732Y-45819D01*
X60745Y-45856D01*
X60749Y-45895D01*
X60750Y-45900D01*
X60550Y-45700D02*
X60550Y-46100D01*
X60750Y-46900D02*
X60746Y-46938D01*
X60734Y-46976D01*
X60716Y-47010D01*
X60691Y-47040D01*
X60661Y-47065D01*
X60627Y-47084D01*
X60590Y-47095D01*
X60551Y-47099D01*
X60513Y-47096D01*
X60476Y-47085D01*
X60441Y-47067D01*
X60411Y-47042D01*
X60385Y-47012D01*
X60367Y-46978D01*
X60355Y-46941D01*
X60351Y-46902D01*
X60354Y-46864D01*
X60365Y-46827D01*
X60382Y-46792D01*
X60407Y-46762D01*
X60436Y-46736D01*
X60470Y-46717D01*
X60508Y-46705D01*
X60546Y-46701D01*
X60584Y-46704D01*
X60622Y-46714D01*
X60657Y-46732D01*
X60687Y-46756D01*
X60713Y-46785D01*
X60732Y-46819D01*
X60745Y-46856D01*
X60749Y-46895D01*
X60750Y-46900D01*
X60550Y-46700D02*
X60550Y-47100D01*
X60750Y-47900D02*
X60746Y-47938D01*
X60734Y-47976D01*
X60716Y-48010D01*
X60691Y-48040D01*
X60661Y-48065D01*
X60627Y-48084D01*
X60590Y-48095D01*
X60551Y-48099D01*
X60513Y-48096D01*
X60476Y-48085D01*
X60441Y-48067D01*
X60411Y-48042D01*
X60385Y-48012D01*
X60367Y-47978D01*
X60355Y-47941D01*
X60351Y-47902D01*
X60354Y-47864D01*
X60365Y-47827D01*
X60382Y-47792D01*
X60407Y-47762D01*
X60436Y-47736D01*
X60470Y-47717D01*
X60508Y-47705D01*
X60546Y-47701D01*
X60584Y-47704D01*
X60622Y-47714D01*
X60657Y-47732D01*
X60687Y-47756D01*
X60713Y-47785D01*
X60732Y-47819D01*
X60745Y-47856D01*
X60749Y-47895D01*
X60750Y-47900D01*
X60550Y-47700D02*
X60550Y-48100D01*
X60750Y-48900D02*
X60746Y-48938D01*
X60734Y-48976D01*
X60716Y-49010D01*
X60691Y-49040D01*
X60661Y-49065D01*
X60627Y-49084D01*
X60590Y-49095D01*
X60551Y-49099D01*
X60513Y-49096D01*
X60476Y-49085D01*
X60441Y-49067D01*
X60411Y-49042D01*
X60385Y-49012D01*
X60367Y-48978D01*
X60355Y-48941D01*
X60351Y-48902D01*
X60354Y-48864D01*
X60365Y-48827D01*
X60382Y-48792D01*
X60407Y-48762D01*
X60436Y-48736D01*
X60470Y-48717D01*
X60508Y-48705D01*
X60546Y-48701D01*
X60584Y-48704D01*
X60622Y-48714D01*
X60657Y-48732D01*
X60687Y-48756D01*
X60713Y-48785D01*
X60732Y-48819D01*
X60745Y-48856D01*
X60749Y-48895D01*
X60750Y-48900D01*
X60550Y-48700D02*
X60550Y-49100D01*
X60750Y-49900D02*
X60746Y-49938D01*
X60734Y-49976D01*
X60716Y-50010D01*
X60691Y-50040D01*
X60661Y-50065D01*
X60627Y-50084D01*
X60590Y-50095D01*
X60551Y-50099D01*
X60513Y-50096D01*
X60476Y-50085D01*
X60441Y-50067D01*
X60411Y-50042D01*
X60385Y-50012D01*
X60367Y-49978D01*
X60355Y-49941D01*
X60351Y-49902D01*
X60354Y-49864D01*
X60365Y-49827D01*
X60382Y-49792D01*
X60407Y-49762D01*
X60436Y-49736D01*
X60470Y-49717D01*
X60508Y-49705D01*
X60546Y-49701D01*
X60584Y-49704D01*
X60622Y-49714D01*
X60657Y-49732D01*
X60687Y-49756D01*
X60713Y-49785D01*
X60732Y-49819D01*
X60745Y-49856D01*
X60749Y-49895D01*
X60750Y-49900D01*
X60550Y-49700D02*
X60550Y-50100D01*
X60750Y-50900D02*
X60746Y-50938D01*
X60734Y-50976D01*
X60716Y-51010D01*
X60691Y-51040D01*
X60661Y-51065D01*
X60627Y-51084D01*
X60590Y-51095D01*
X60551Y-51099D01*
X60513Y-51096D01*
X60476Y-51085D01*
X60441Y-51067D01*
X60411Y-51042D01*
X60385Y-51012D01*
X60367Y-50978D01*
X60355Y-50941D01*
X60351Y-50902D01*
X60354Y-50864D01*
X60365Y-50827D01*
X60382Y-50792D01*
X60407Y-50762D01*
X60436Y-50736D01*
X60470Y-50717D01*
X60508Y-50705D01*
X60546Y-50701D01*
X60584Y-50704D01*
X60622Y-50714D01*
X60657Y-50732D01*
X60687Y-50756D01*
X60713Y-50785D01*
X60732Y-50819D01*
X60745Y-50856D01*
X60749Y-50895D01*
X60750Y-50900D01*
X60550Y-50700D02*
X60550Y-51100D01*
X60750Y-51900D02*
X60746Y-51938D01*
X60734Y-51976D01*
X60716Y-52010D01*
X60691Y-52040D01*
X60661Y-52065D01*
X60627Y-52084D01*
X60590Y-52095D01*
X60551Y-52099D01*
X60513Y-52096D01*
X60476Y-52085D01*
X60441Y-52067D01*
X60411Y-52042D01*
X60385Y-52012D01*
X60367Y-51978D01*
X60355Y-51941D01*
X60351Y-51902D01*
X60354Y-51864D01*
X60365Y-51827D01*
X60382Y-51792D01*
X60407Y-51762D01*
X60436Y-51736D01*
X60470Y-51717D01*
X60508Y-51705D01*
X60546Y-51701D01*
X60584Y-51704D01*
X60622Y-51714D01*
X60657Y-51732D01*
X60687Y-51756D01*
X60713Y-51785D01*
X60732Y-51819D01*
X60745Y-51856D01*
X60749Y-51895D01*
X60750Y-51900D01*
X60550Y-51700D02*
X60550Y-52100D01*
X61250Y-31650D02*
X61246Y-31688D01*
X61234Y-31726D01*
X61216Y-31760D01*
X61191Y-31790D01*
X61161Y-31815D01*
X61127Y-31834D01*
X61090Y-31845D01*
X61051Y-31849D01*
X61013Y-31846D01*
X60976Y-31835D01*
X60941Y-31817D01*
X60911Y-31792D01*
X60885Y-31762D01*
X60867Y-31728D01*
X60855Y-31691D01*
X60851Y-31652D01*
X60854Y-31614D01*
X60865Y-31577D01*
X60882Y-31542D01*
X60907Y-31512D01*
X60936Y-31486D01*
X60970Y-31467D01*
X61008Y-31455D01*
X61046Y-31451D01*
X61084Y-31454D01*
X61122Y-31464D01*
X61157Y-31482D01*
X61187Y-31506D01*
X61213Y-31535D01*
X61232Y-31569D01*
X61245Y-31606D01*
X61249Y-31645D01*
X61250Y-31650D01*
X61050Y-31450D02*
X61050Y-31850D01*
X62250Y-31650D02*
X62246Y-31688D01*
X62234Y-31726D01*
X62216Y-31760D01*
X62191Y-31790D01*
X62161Y-31815D01*
X62127Y-31834D01*
X62090Y-31845D01*
X62051Y-31849D01*
X62013Y-31846D01*
X61976Y-31835D01*
X61941Y-31817D01*
X61911Y-31792D01*
X61885Y-31762D01*
X61867Y-31728D01*
X61855Y-31691D01*
X61851Y-31652D01*
X61854Y-31614D01*
X61865Y-31577D01*
X61882Y-31542D01*
X61907Y-31512D01*
X61936Y-31486D01*
X61970Y-31467D01*
X62008Y-31455D01*
X62046Y-31451D01*
X62084Y-31454D01*
X62122Y-31464D01*
X62157Y-31482D01*
X62187Y-31506D01*
X62213Y-31535D01*
X62232Y-31569D01*
X62245Y-31606D01*
X62249Y-31645D01*
X62250Y-31650D01*
X62050Y-31450D02*
X62050Y-31850D01*
X63250Y-31650D02*
X63246Y-31688D01*
X63234Y-31726D01*
X63216Y-31760D01*
X63191Y-31790D01*
X63161Y-31815D01*
X63127Y-31834D01*
X63090Y-31845D01*
X63051Y-31849D01*
X63013Y-31846D01*
X62976Y-31835D01*
X62941Y-31817D01*
X62911Y-31792D01*
X62885Y-31762D01*
X62867Y-31728D01*
X62855Y-31691D01*
X62851Y-31652D01*
X62854Y-31614D01*
X62865Y-31577D01*
X62882Y-31542D01*
X62907Y-31512D01*
X62936Y-31486D01*
X62970Y-31467D01*
X63008Y-31455D01*
X63046Y-31451D01*
X63084Y-31454D01*
X63122Y-31464D01*
X63157Y-31482D01*
X63187Y-31506D01*
X63213Y-31535D01*
X63232Y-31569D01*
X63245Y-31606D01*
X63249Y-31645D01*
X63250Y-31650D01*
X63050Y-31450D02*
X63050Y-31850D01*
X64250Y-31650D02*
X64246Y-31688D01*
X64234Y-31726D01*
X64216Y-31760D01*
X64191Y-31790D01*
X64161Y-31815D01*
X64127Y-31834D01*
X64090Y-31845D01*
X64051Y-31849D01*
X64013Y-31846D01*
X63976Y-31835D01*
X63941Y-31817D01*
X63911Y-31792D01*
X63885Y-31762D01*
X63867Y-31728D01*
X63855Y-31691D01*
X63851Y-31652D01*
X63854Y-31614D01*
X63865Y-31577D01*
X63882Y-31542D01*
X63907Y-31512D01*
X63936Y-31486D01*
X63970Y-31467D01*
X64008Y-31455D01*
X64046Y-31451D01*
X64084Y-31454D01*
X64122Y-31464D01*
X64157Y-31482D01*
X64187Y-31506D01*
X64213Y-31535D01*
X64232Y-31569D01*
X64245Y-31606D01*
X64249Y-31645D01*
X64250Y-31650D01*
X64050Y-31450D02*
X64050Y-31850D01*
X65250Y-31650D02*
X65246Y-31688D01*
X65234Y-31726D01*
X65216Y-31760D01*
X65191Y-31790D01*
X65161Y-31815D01*
X65127Y-31834D01*
X65090Y-31845D01*
X65051Y-31849D01*
X65013Y-31846D01*
X64976Y-31835D01*
X64941Y-31817D01*
X64911Y-31792D01*
X64885Y-31762D01*
X64867Y-31728D01*
X64855Y-31691D01*
X64851Y-31652D01*
X64854Y-31614D01*
X64865Y-31577D01*
X64882Y-31542D01*
X64907Y-31512D01*
X64936Y-31486D01*
X64970Y-31467D01*
X65008Y-31455D01*
X65046Y-31451D01*
X65084Y-31454D01*
X65122Y-31464D01*
X65157Y-31482D01*
X65187Y-31506D01*
X65213Y-31535D01*
X65232Y-31569D01*
X65245Y-31606D01*
X65249Y-31645D01*
X65250Y-31650D01*
X65050Y-31450D02*
X65050Y-31850D01*
X66250Y-31650D02*
X66246Y-31688D01*
X66234Y-31726D01*
X66216Y-31760D01*
X66191Y-31790D01*
X66161Y-31815D01*
X66127Y-31834D01*
X66090Y-31845D01*
X66051Y-31849D01*
X66013Y-31846D01*
X65976Y-31835D01*
X65941Y-31817D01*
X65911Y-31792D01*
X65885Y-31762D01*
X65867Y-31728D01*
X65855Y-31691D01*
X65851Y-31652D01*
X65854Y-31614D01*
X65865Y-31577D01*
X65882Y-31542D01*
X65907Y-31512D01*
X65936Y-31486D01*
X65970Y-31467D01*
X66008Y-31455D01*
X66046Y-31451D01*
X66084Y-31454D01*
X66122Y-31464D01*
X66157Y-31482D01*
X66187Y-31506D01*
X66213Y-31535D01*
X66232Y-31569D01*
X66245Y-31606D01*
X66249Y-31645D01*
X66250Y-31650D01*
X66050Y-31450D02*
X66050Y-31850D01*
X66750Y-32900D02*
X66746Y-32938D01*
X66734Y-32976D01*
X66716Y-33010D01*
X66691Y-33040D01*
X66661Y-33065D01*
X66627Y-33084D01*
X66590Y-33095D01*
X66551Y-33099D01*
X66513Y-33096D01*
X66476Y-33085D01*
X66441Y-33067D01*
X66411Y-33042D01*
X66385Y-33012D01*
X66367Y-32978D01*
X66355Y-32941D01*
X66351Y-32902D01*
X66354Y-32864D01*
X66365Y-32827D01*
X66382Y-32792D01*
X66407Y-32762D01*
X66436Y-32736D01*
X66470Y-32717D01*
X66508Y-32705D01*
X66546Y-32701D01*
X66584Y-32704D01*
X66622Y-32714D01*
X66657Y-32732D01*
X66687Y-32756D01*
X66713Y-32785D01*
X66732Y-32819D01*
X66745Y-32856D01*
X66749Y-32895D01*
X66750Y-32900D01*
X66550Y-32700D02*
X66550Y-33100D01*
X66750Y-33900D02*
X66746Y-33938D01*
X66734Y-33976D01*
X66716Y-34010D01*
X66691Y-34040D01*
X66661Y-34065D01*
X66627Y-34084D01*
X66590Y-34095D01*
X66551Y-34099D01*
X66513Y-34096D01*
X66476Y-34085D01*
X66441Y-34067D01*
X66411Y-34042D01*
X66385Y-34012D01*
X66367Y-33978D01*
X66355Y-33941D01*
X66351Y-33902D01*
X66354Y-33864D01*
X66365Y-33827D01*
X66382Y-33792D01*
X66407Y-33762D01*
X66436Y-33736D01*
X66470Y-33717D01*
X66508Y-33705D01*
X66546Y-33701D01*
X66584Y-33704D01*
X66622Y-33714D01*
X66657Y-33732D01*
X66687Y-33756D01*
X66713Y-33785D01*
X66732Y-33819D01*
X66745Y-33856D01*
X66749Y-33895D01*
X66750Y-33900D01*
X66550Y-33700D02*
X66550Y-34100D01*
X66750Y-34900D02*
X66746Y-34938D01*
X66734Y-34976D01*
X66716Y-35010D01*
X66691Y-35040D01*
X66661Y-35065D01*
X66627Y-35084D01*
X66590Y-35095D01*
X66551Y-35099D01*
X66513Y-35096D01*
X66476Y-35085D01*
X66441Y-35067D01*
X66411Y-35042D01*
X66385Y-35012D01*
X66367Y-34978D01*
X66355Y-34941D01*
X66351Y-34902D01*
X66354Y-34864D01*
X66365Y-34827D01*
X66382Y-34792D01*
X66407Y-34762D01*
X66436Y-34736D01*
X66470Y-34717D01*
X66508Y-34705D01*
X66546Y-34701D01*
X66584Y-34704D01*
X66622Y-34714D01*
X66657Y-34732D01*
X66687Y-34756D01*
X66713Y-34785D01*
X66732Y-34819D01*
X66745Y-34856D01*
X66749Y-34895D01*
X66750Y-34900D01*
X66550Y-34700D02*
X66550Y-35100D01*
X66750Y-35900D02*
X66746Y-35938D01*
X66734Y-35976D01*
X66716Y-36010D01*
X66691Y-36040D01*
X66661Y-36065D01*
X66627Y-36084D01*
X66590Y-36095D01*
X66551Y-36099D01*
X66513Y-36096D01*
X66476Y-36085D01*
X66441Y-36067D01*
X66411Y-36042D01*
X66385Y-36012D01*
X66367Y-35978D01*
X66355Y-35941D01*
X66351Y-35902D01*
X66354Y-35864D01*
X66365Y-35827D01*
X66382Y-35792D01*
X66407Y-35762D01*
X66436Y-35736D01*
X66470Y-35717D01*
X66508Y-35705D01*
X66546Y-35701D01*
X66584Y-35704D01*
X66622Y-35714D01*
X66657Y-35732D01*
X66687Y-35756D01*
X66713Y-35785D01*
X66732Y-35819D01*
X66745Y-35856D01*
X66749Y-35895D01*
X66750Y-35900D01*
X66550Y-35700D02*
X66550Y-36100D01*
X66750Y-36900D02*
X66746Y-36938D01*
X66734Y-36976D01*
X66716Y-37010D01*
X66691Y-37040D01*
X66661Y-37065D01*
X66627Y-37084D01*
X66590Y-37095D01*
X66551Y-37099D01*
X66513Y-37096D01*
X66476Y-37085D01*
X66441Y-37067D01*
X66411Y-37042D01*
X66385Y-37012D01*
X66367Y-36978D01*
X66355Y-36941D01*
X66351Y-36902D01*
X66354Y-36864D01*
X66365Y-36827D01*
X66382Y-36792D01*
X66407Y-36762D01*
X66436Y-36736D01*
X66470Y-36717D01*
X66508Y-36705D01*
X66546Y-36701D01*
X66584Y-36704D01*
X66622Y-36714D01*
X66657Y-36732D01*
X66687Y-36756D01*
X66713Y-36785D01*
X66732Y-36819D01*
X66745Y-36856D01*
X66749Y-36895D01*
X66750Y-36900D01*
X66550Y-36700D02*
X66550Y-37100D01*
X66750Y-37900D02*
X66746Y-37938D01*
X66734Y-37976D01*
X66716Y-38010D01*
X66691Y-38040D01*
X66661Y-38065D01*
X66627Y-38084D01*
X66590Y-38095D01*
X66551Y-38099D01*
X66513Y-38096D01*
X66476Y-38085D01*
X66441Y-38067D01*
X66411Y-38042D01*
X66385Y-38012D01*
X66367Y-37978D01*
X66355Y-37941D01*
X66351Y-37902D01*
X66354Y-37864D01*
X66365Y-37827D01*
X66382Y-37792D01*
X66407Y-37762D01*
X66436Y-37736D01*
X66470Y-37717D01*
X66508Y-37705D01*
X66546Y-37701D01*
X66584Y-37704D01*
X66622Y-37714D01*
X66657Y-37732D01*
X66687Y-37756D01*
X66713Y-37785D01*
X66732Y-37819D01*
X66745Y-37856D01*
X66749Y-37895D01*
X66750Y-37900D01*
X66550Y-37700D02*
X66550Y-38100D01*
X66750Y-38900D02*
X66746Y-38938D01*
X66734Y-38976D01*
X66716Y-39010D01*
X66691Y-39040D01*
X66661Y-39065D01*
X66627Y-39084D01*
X66590Y-39095D01*
X66551Y-39099D01*
X66513Y-39096D01*
X66476Y-39085D01*
X66441Y-39067D01*
X66411Y-39042D01*
X66385Y-39012D01*
X66367Y-38978D01*
X66355Y-38941D01*
X66351Y-38902D01*
X66354Y-38864D01*
X66365Y-38827D01*
X66382Y-38792D01*
X66407Y-38762D01*
X66436Y-38736D01*
X66470Y-38717D01*
X66508Y-38705D01*
X66546Y-38701D01*
X66584Y-38704D01*
X66622Y-38714D01*
X66657Y-38732D01*
X66687Y-38756D01*
X66713Y-38785D01*
X66732Y-38819D01*
X66745Y-38856D01*
X66749Y-38895D01*
X66750Y-38900D01*
X66550Y-38700D02*
X66550Y-39100D01*
X66750Y-39900D02*
X66746Y-39938D01*
X66734Y-39976D01*
X66716Y-40010D01*
X66691Y-40040D01*
X66661Y-40065D01*
X66627Y-40084D01*
X66590Y-40095D01*
X66551Y-40099D01*
X66513Y-40096D01*
X66476Y-40085D01*
X66441Y-40067D01*
X66411Y-40042D01*
X66385Y-40012D01*
X66367Y-39978D01*
X66355Y-39941D01*
X66351Y-39902D01*
X66354Y-39864D01*
X66365Y-39827D01*
X66382Y-39792D01*
X66407Y-39762D01*
X66436Y-39736D01*
X66470Y-39717D01*
X66508Y-39705D01*
X66546Y-39701D01*
X66584Y-39704D01*
X66622Y-39714D01*
X66657Y-39732D01*
X66687Y-39756D01*
X66713Y-39785D01*
X66732Y-39819D01*
X66745Y-39856D01*
X66749Y-39895D01*
X66750Y-39900D01*
X66550Y-39700D02*
X66550Y-40100D01*
X66750Y-40900D02*
X66746Y-40938D01*
X66734Y-40976D01*
X66716Y-41010D01*
X66691Y-41040D01*
X66661Y-41065D01*
X66627Y-41084D01*
X66590Y-41095D01*
X66551Y-41099D01*
X66513Y-41096D01*
X66476Y-41085D01*
X66441Y-41067D01*
X66411Y-41042D01*
X66385Y-41012D01*
X66367Y-40978D01*
X66355Y-40941D01*
X66351Y-40902D01*
X66354Y-40864D01*
X66365Y-40827D01*
X66382Y-40792D01*
X66407Y-40762D01*
X66436Y-40736D01*
X66470Y-40717D01*
X66508Y-40705D01*
X66546Y-40701D01*
X66584Y-40704D01*
X66622Y-40714D01*
X66657Y-40732D01*
X66687Y-40756D01*
X66713Y-40785D01*
X66732Y-40819D01*
X66745Y-40856D01*
X66749Y-40895D01*
X66750Y-40900D01*
X66550Y-40700D02*
X66550Y-41100D01*
X66750Y-41900D02*
X66746Y-41938D01*
X66734Y-41976D01*
X66716Y-42010D01*
X66691Y-42040D01*
X66661Y-42065D01*
X66627Y-42084D01*
X66590Y-42095D01*
X66551Y-42099D01*
X66513Y-42096D01*
X66476Y-42085D01*
X66441Y-42067D01*
X66411Y-42042D01*
X66385Y-42012D01*
X66367Y-41978D01*
X66355Y-41941D01*
X66351Y-41902D01*
X66354Y-41864D01*
X66365Y-41827D01*
X66382Y-41792D01*
X66407Y-41762D01*
X66436Y-41736D01*
X66470Y-41717D01*
X66508Y-41705D01*
X66546Y-41701D01*
X66584Y-41704D01*
X66622Y-41714D01*
X66657Y-41732D01*
X66687Y-41756D01*
X66713Y-41785D01*
X66732Y-41819D01*
X66745Y-41856D01*
X66749Y-41895D01*
X66750Y-41900D01*
X66550Y-41700D02*
X66550Y-42100D01*
X66750Y-42900D02*
X66746Y-42938D01*
X66734Y-42976D01*
X66716Y-43010D01*
X66691Y-43040D01*
X66661Y-43065D01*
X66627Y-43084D01*
X66590Y-43095D01*
X66551Y-43099D01*
X66513Y-43096D01*
X66476Y-43085D01*
X66441Y-43067D01*
X66411Y-43042D01*
X66385Y-43012D01*
X66367Y-42978D01*
X66355Y-42941D01*
X66351Y-42902D01*
X66354Y-42864D01*
X66365Y-42827D01*
X66382Y-42792D01*
X66407Y-42762D01*
X66436Y-42736D01*
X66470Y-42717D01*
X66508Y-42705D01*
X66546Y-42701D01*
X66584Y-42704D01*
X66622Y-42714D01*
X66657Y-42732D01*
X66687Y-42756D01*
X66713Y-42785D01*
X66732Y-42819D01*
X66745Y-42856D01*
X66749Y-42895D01*
X66750Y-42900D01*
X66550Y-42700D02*
X66550Y-43100D01*
X66750Y-43900D02*
X66746Y-43938D01*
X66734Y-43976D01*
X66716Y-44010D01*
X66691Y-44040D01*
X66661Y-44065D01*
X66627Y-44084D01*
X66590Y-44095D01*
X66551Y-44099D01*
X66513Y-44096D01*
X66476Y-44085D01*
X66441Y-44067D01*
X66411Y-44042D01*
X66385Y-44012D01*
X66367Y-43978D01*
X66355Y-43941D01*
X66351Y-43902D01*
X66354Y-43864D01*
X66365Y-43827D01*
X66382Y-43792D01*
X66407Y-43762D01*
X66436Y-43736D01*
X66470Y-43717D01*
X66508Y-43705D01*
X66546Y-43701D01*
X66584Y-43704D01*
X66622Y-43714D01*
X66657Y-43732D01*
X66687Y-43756D01*
X66713Y-43785D01*
X66732Y-43819D01*
X66745Y-43856D01*
X66749Y-43895D01*
X66750Y-43900D01*
X66550Y-43700D02*
X66550Y-44100D01*
X66750Y-44900D02*
X66746Y-44938D01*
X66734Y-44976D01*
X66716Y-45010D01*
X66691Y-45040D01*
X66661Y-45065D01*
X66627Y-45084D01*
X66590Y-45095D01*
X66551Y-45099D01*
X66513Y-45096D01*
X66476Y-45085D01*
X66441Y-45067D01*
X66411Y-45042D01*
X66385Y-45012D01*
X66367Y-44978D01*
X66355Y-44941D01*
X66351Y-44902D01*
X66354Y-44864D01*
X66365Y-44827D01*
X66382Y-44792D01*
X66407Y-44762D01*
X66436Y-44736D01*
X66470Y-44717D01*
X66508Y-44705D01*
X66546Y-44701D01*
X66584Y-44704D01*
X66622Y-44714D01*
X66657Y-44732D01*
X66687Y-44756D01*
X66713Y-44785D01*
X66732Y-44819D01*
X66745Y-44856D01*
X66749Y-44895D01*
X66750Y-44900D01*
X66550Y-44700D02*
X66550Y-45100D01*
X66750Y-45900D02*
X66746Y-45938D01*
X66734Y-45976D01*
X66716Y-46010D01*
X66691Y-46040D01*
X66661Y-46065D01*
X66627Y-46084D01*
X66590Y-46095D01*
X66551Y-46099D01*
X66513Y-46096D01*
X66476Y-46085D01*
X66441Y-46067D01*
X66411Y-46042D01*
X66385Y-46012D01*
X66367Y-45978D01*
X66355Y-45941D01*
X66351Y-45902D01*
X66354Y-45864D01*
X66365Y-45827D01*
X66382Y-45792D01*
X66407Y-45762D01*
X66436Y-45736D01*
X66470Y-45717D01*
X66508Y-45705D01*
X66546Y-45701D01*
X66584Y-45704D01*
X66622Y-45714D01*
X66657Y-45732D01*
X66687Y-45756D01*
X66713Y-45785D01*
X66732Y-45819D01*
X66745Y-45856D01*
X66749Y-45895D01*
X66750Y-45900D01*
X66550Y-45700D02*
X66550Y-46100D01*
X66750Y-46900D02*
X66746Y-46938D01*
X66734Y-46976D01*
X66716Y-47010D01*
X66691Y-47040D01*
X66661Y-47065D01*
X66627Y-47084D01*
X66590Y-47095D01*
X66551Y-47099D01*
X66513Y-47096D01*
X66476Y-47085D01*
X66441Y-47067D01*
X66411Y-47042D01*
X66385Y-47012D01*
X66367Y-46978D01*
X66355Y-46941D01*
X66351Y-46902D01*
X66354Y-46864D01*
X66365Y-46827D01*
X66382Y-46792D01*
X66407Y-46762D01*
X66436Y-46736D01*
X66470Y-46717D01*
X66508Y-46705D01*
X66546Y-46701D01*
X66584Y-46704D01*
X66622Y-46714D01*
X66657Y-46732D01*
X66687Y-46756D01*
X66713Y-46785D01*
X66732Y-46819D01*
X66745Y-46856D01*
X66749Y-46895D01*
X66750Y-46900D01*
X66550Y-46700D02*
X66550Y-47100D01*
X66750Y-47900D02*
X66746Y-47938D01*
X66734Y-47976D01*
X66716Y-48010D01*
X66691Y-48040D01*
X66661Y-48065D01*
X66627Y-48084D01*
X66590Y-48095D01*
X66551Y-48099D01*
X66513Y-48096D01*
X66476Y-48085D01*
X66441Y-48067D01*
X66411Y-48042D01*
X66385Y-48012D01*
X66367Y-47978D01*
X66355Y-47941D01*
X66351Y-47902D01*
X66354Y-47864D01*
X66365Y-47827D01*
X66382Y-47792D01*
X66407Y-47762D01*
X66436Y-47736D01*
X66470Y-47717D01*
X66508Y-47705D01*
X66546Y-47701D01*
X66584Y-47704D01*
X66622Y-47714D01*
X66657Y-47732D01*
X66687Y-47756D01*
X66713Y-47785D01*
X66732Y-47819D01*
X66745Y-47856D01*
X66749Y-47895D01*
X66750Y-47900D01*
X66550Y-47700D02*
X66550Y-48100D01*
X66750Y-48900D02*
X66746Y-48938D01*
X66734Y-48976D01*
X66716Y-49010D01*
X66691Y-49040D01*
X66661Y-49065D01*
X66627Y-49084D01*
X66590Y-49095D01*
X66551Y-49099D01*
X66513Y-49096D01*
X66476Y-49085D01*
X66441Y-49067D01*
X66411Y-49042D01*
X66385Y-49012D01*
X66367Y-48978D01*
X66355Y-48941D01*
X66351Y-48902D01*
X66354Y-48864D01*
X66365Y-48827D01*
X66382Y-48792D01*
X66407Y-48762D01*
X66436Y-48736D01*
X66470Y-48717D01*
X66508Y-48705D01*
X66546Y-48701D01*
X66584Y-48704D01*
X66622Y-48714D01*
X66657Y-48732D01*
X66687Y-48756D01*
X66713Y-48785D01*
X66732Y-48819D01*
X66745Y-48856D01*
X66749Y-48895D01*
X66750Y-48900D01*
X66550Y-48700D02*
X66550Y-49100D01*
X66750Y-49900D02*
X66746Y-49938D01*
X66734Y-49976D01*
X66716Y-50010D01*
X66691Y-50040D01*
X66661Y-50065D01*
X66627Y-50084D01*
X66590Y-50095D01*
X66551Y-50099D01*
X66513Y-50096D01*
X66476Y-50085D01*
X66441Y-50067D01*
X66411Y-50042D01*
X66385Y-50012D01*
X66367Y-49978D01*
X66355Y-49941D01*
X66351Y-49902D01*
X66354Y-49864D01*
X66365Y-49827D01*
X66382Y-49792D01*
X66407Y-49762D01*
X66436Y-49736D01*
X66470Y-49717D01*
X66508Y-49705D01*
X66546Y-49701D01*
X66584Y-49704D01*
X66622Y-49714D01*
X66657Y-49732D01*
X66687Y-49756D01*
X66713Y-49785D01*
X66732Y-49819D01*
X66745Y-49856D01*
X66749Y-49895D01*
X66750Y-49900D01*
X66550Y-49700D02*
X66550Y-50100D01*
X66750Y-50900D02*
X66746Y-50938D01*
X66734Y-50976D01*
X66716Y-51010D01*
X66691Y-51040D01*
X66661Y-51065D01*
X66627Y-51084D01*
X66590Y-51095D01*
X66551Y-51099D01*
X66513Y-51096D01*
X66476Y-51085D01*
X66441Y-51067D01*
X66411Y-51042D01*
X66385Y-51012D01*
X66367Y-50978D01*
X66355Y-50941D01*
X66351Y-50902D01*
X66354Y-50864D01*
X66365Y-50827D01*
X66382Y-50792D01*
X66407Y-50762D01*
X66436Y-50736D01*
X66470Y-50717D01*
X66508Y-50705D01*
X66546Y-50701D01*
X66584Y-50704D01*
X66622Y-50714D01*
X66657Y-50732D01*
X66687Y-50756D01*
X66713Y-50785D01*
X66732Y-50819D01*
X66745Y-50856D01*
X66749Y-50895D01*
X66750Y-50900D01*
X66550Y-50700D02*
X66550Y-51100D01*
X66750Y-51900D02*
X66746Y-51938D01*
X66734Y-51976D01*
X66716Y-52010D01*
X66691Y-52040D01*
X66661Y-52065D01*
X66627Y-52084D01*
X66590Y-52095D01*
X66551Y-52099D01*
X66513Y-52096D01*
X66476Y-52085D01*
X66441Y-52067D01*
X66411Y-52042D01*
X66385Y-52012D01*
X66367Y-51978D01*
X66355Y-51941D01*
X66351Y-51902D01*
X66354Y-51864D01*
X66365Y-51827D01*
X66382Y-51792D01*
X66407Y-51762D01*
X66436Y-51736D01*
X66470Y-51717D01*
X66508Y-51705D01*
X66546Y-51701D01*
X66584Y-51704D01*
X66622Y-51714D01*
X66657Y-51732D01*
X66687Y-51756D01*
X66713Y-51785D01*
X66732Y-51819D01*
X66745Y-51856D01*
X66749Y-51895D01*
X66750Y-51900D01*
X66550Y-51700D02*
X66550Y-52100D01*
X44077Y-52364D02*
X44077Y-51836D01*
X43549Y-51836D01*
X43549Y-52364D01*
X44077Y-52364D01*
X46951Y-52364D02*
X46951Y-51836D01*
X46423Y-51836D01*
X46423Y-52364D01*
X46951Y-52364D01*
G54D12*
X41564Y-55302D02*
X41564Y-54502D01*
X41755Y-54502D01*
X41869Y-54540D01*
X41945Y-54616D01*
X41984Y-54692D01*
X42022Y-54845D01*
X42022Y-54959D01*
X41984Y-55111D01*
X41945Y-55188D01*
X41869Y-55264D01*
X41755Y-55302D01*
X41564Y-55302D01*
X42364Y-55302D02*
X42364Y-54768D01*
X42364Y-54921D02*
X42403Y-54845D01*
X42441Y-54807D01*
X42517Y-54768D01*
X42593Y-54768D01*
X42859Y-55302D02*
X42859Y-54768D01*
X42859Y-54502D02*
X42821Y-54540D01*
X42859Y-54578D01*
X42898Y-54540D01*
X42859Y-54502D01*
X42859Y-54578D01*
X43355Y-55302D02*
X43279Y-55264D01*
X43240Y-55188D01*
X43240Y-54502D01*
X43774Y-55302D02*
X43698Y-55264D01*
X43659Y-55188D01*
X43659Y-54502D01*
X44688Y-55302D02*
X44688Y-54502D01*
X44955Y-55073D01*
X45222Y-54502D01*
X45222Y-55302D01*
X45945Y-55302D02*
X45945Y-54883D01*
X45907Y-54807D01*
X45831Y-54768D01*
X45679Y-54768D01*
X45602Y-54807D01*
X45945Y-55264D02*
X45869Y-55302D01*
X45679Y-55302D01*
X45602Y-55264D01*
X45564Y-55188D01*
X45564Y-55111D01*
X45602Y-55035D01*
X45679Y-54997D01*
X45869Y-54997D01*
X45945Y-54959D01*
X46326Y-54768D02*
X46326Y-55568D01*
X46326Y-54807D02*
X46403Y-54768D01*
X46555Y-54768D01*
X46631Y-54807D01*
X46669Y-54845D01*
X46707Y-54921D01*
X46707Y-55149D01*
X46669Y-55226D01*
X46631Y-55264D01*
X46555Y-55302D01*
X46403Y-55302D01*
X46326Y-55264D01*
X47050Y-55226D02*
X47089Y-55264D01*
X47050Y-55302D01*
X47012Y-55264D01*
X47050Y-55226D01*
X47050Y-55302D01*
X47050Y-54807D02*
X47089Y-54845D01*
X47050Y-54883D01*
X47012Y-54845D01*
X47050Y-54807D01*
X47050Y-54883D01*
X41056Y-56599D02*
X41174Y-56717D01*
X41174Y-56599D02*
X41056Y-56717D01*
X41717Y-56182D02*
X41793Y-56182D01*
X41869Y-56220D01*
X41907Y-56258D01*
X41945Y-56334D01*
X41984Y-56487D01*
X41984Y-56677D01*
X41945Y-56829D01*
X41907Y-56906D01*
X41869Y-56944D01*
X41793Y-56982D01*
X41717Y-56982D01*
X41641Y-56944D01*
X41603Y-56906D01*
X41564Y-56829D01*
X41526Y-56677D01*
X41526Y-56487D01*
X41564Y-56334D01*
X41603Y-56258D01*
X41641Y-56220D01*
X41717Y-56182D01*
X42326Y-56906D02*
X42365Y-56944D01*
X42326Y-56982D01*
X42288Y-56944D01*
X42326Y-56906D01*
X42326Y-56982D01*
X42631Y-56182D02*
X43127Y-56182D01*
X42860Y-56487D01*
X42974Y-56487D01*
X43050Y-56525D01*
X43088Y-56563D01*
X43127Y-56639D01*
X43127Y-56829D01*
X43088Y-56906D01*
X43050Y-56944D01*
X42974Y-56982D01*
X42746Y-56982D01*
X42669Y-56944D01*
X42631Y-56906D01*
X43622Y-56182D02*
X43698Y-56182D01*
X43774Y-56220D01*
X43812Y-56258D01*
X43850Y-56334D01*
X43889Y-56487D01*
X43889Y-56677D01*
X43850Y-56829D01*
X43812Y-56906D01*
X43774Y-56944D01*
X43698Y-56982D01*
X43622Y-56982D01*
X43546Y-56944D01*
X43508Y-56906D01*
X43469Y-56829D01*
X43431Y-56677D01*
X43431Y-56487D01*
X43469Y-56334D01*
X43508Y-56258D01*
X43546Y-56220D01*
X43622Y-56182D01*
X44231Y-56982D02*
X44231Y-56448D01*
X44231Y-56525D02*
X44270Y-56487D01*
X44346Y-56448D01*
X44460Y-56448D01*
X44536Y-56487D01*
X44574Y-56563D01*
X44574Y-56982D01*
X44574Y-56563D02*
X44612Y-56487D01*
X44689Y-56448D01*
X44803Y-56448D01*
X44879Y-56487D01*
X44917Y-56563D01*
X44917Y-56982D01*
X45298Y-56982D02*
X45298Y-56448D01*
X45298Y-56525D02*
X45337Y-56487D01*
X45413Y-56448D01*
X45527Y-56448D01*
X45603Y-56487D01*
X45641Y-56563D01*
X45641Y-56982D01*
X45641Y-56563D02*
X45679Y-56487D01*
X45756Y-56448D01*
X45870Y-56448D01*
X45946Y-56487D01*
X45984Y-56563D01*
X45984Y-56982D01*
X47547Y-56144D02*
X46861Y-57172D01*
X48576Y-56182D02*
X48652Y-56182D01*
X48728Y-56220D01*
X48766Y-56258D01*
X48804Y-56334D01*
X48843Y-56487D01*
X48843Y-56677D01*
X48804Y-56829D01*
X48766Y-56906D01*
X48728Y-56944D01*
X48652Y-56982D01*
X48576Y-56982D01*
X48500Y-56944D01*
X48462Y-56906D01*
X48423Y-56829D01*
X48385Y-56677D01*
X48385Y-56487D01*
X48423Y-56334D01*
X48462Y-56258D01*
X48500Y-56220D01*
X48576Y-56182D01*
X49185Y-56906D02*
X49224Y-56944D01*
X49185Y-56982D01*
X49147Y-56944D01*
X49185Y-56906D01*
X49185Y-56982D01*
X49719Y-56182D02*
X49795Y-56182D01*
X49871Y-56220D01*
X49909Y-56258D01*
X49947Y-56334D01*
X49986Y-56487D01*
X49986Y-56677D01*
X49947Y-56829D01*
X49909Y-56906D01*
X49871Y-56944D01*
X49795Y-56982D01*
X49719Y-56982D01*
X49643Y-56944D01*
X49605Y-56906D01*
X49566Y-56829D01*
X49528Y-56677D01*
X49528Y-56487D01*
X49566Y-56334D01*
X49605Y-56258D01*
X49643Y-56220D01*
X49719Y-56182D01*
X50748Y-56982D02*
X50290Y-56982D01*
X50519Y-56982D02*
X50519Y-56182D01*
X50443Y-56296D01*
X50367Y-56372D01*
X50290Y-56410D01*
X51052Y-56258D02*
X51090Y-56220D01*
X51167Y-56182D01*
X51357Y-56182D01*
X51433Y-56220D01*
X51471Y-56258D01*
X51510Y-56334D01*
X51510Y-56410D01*
X51471Y-56525D01*
X51014Y-56982D01*
X51510Y-56982D01*
X51814Y-56182D02*
X51814Y-56334D01*
X52119Y-56182D02*
X52119Y-56334D01*
X53301Y-57287D02*
X53263Y-57248D01*
X53187Y-57134D01*
X53149Y-57058D01*
X53111Y-56944D01*
X53072Y-56753D01*
X53072Y-56601D01*
X53111Y-56410D01*
X53149Y-56296D01*
X53187Y-56220D01*
X53263Y-56106D01*
X53301Y-56068D01*
X53948Y-56182D02*
X53796Y-56182D01*
X53720Y-56220D01*
X53682Y-56258D01*
X53605Y-56372D01*
X53567Y-56525D01*
X53567Y-56829D01*
X53605Y-56906D01*
X53644Y-56944D01*
X53720Y-56982D01*
X53872Y-56982D01*
X53948Y-56944D01*
X53986Y-56906D01*
X54025Y-56829D01*
X54025Y-56639D01*
X53986Y-56563D01*
X53948Y-56525D01*
X53872Y-56487D01*
X53720Y-56487D01*
X53644Y-56525D01*
X53605Y-56563D01*
X53567Y-56639D01*
X54977Y-56982D02*
X54977Y-56182D01*
X55320Y-56982D02*
X55320Y-56563D01*
X55282Y-56487D01*
X55206Y-56448D01*
X55092Y-56448D01*
X55016Y-56487D01*
X54977Y-56525D01*
X55816Y-56982D02*
X55740Y-56944D01*
X55701Y-56906D01*
X55663Y-56829D01*
X55663Y-56601D01*
X55701Y-56525D01*
X55740Y-56487D01*
X55816Y-56448D01*
X55930Y-56448D01*
X56006Y-56487D01*
X56044Y-56525D01*
X56082Y-56601D01*
X56082Y-56829D01*
X56044Y-56906D01*
X56006Y-56944D01*
X55930Y-56982D01*
X55816Y-56982D01*
X56540Y-56982D02*
X56464Y-56944D01*
X56425Y-56868D01*
X56425Y-56182D01*
X57149Y-56944D02*
X57073Y-56982D01*
X56921Y-56982D01*
X56844Y-56944D01*
X56806Y-56868D01*
X56806Y-56563D01*
X56844Y-56487D01*
X56921Y-56448D01*
X57073Y-56448D01*
X57149Y-56487D01*
X57187Y-56563D01*
X57187Y-56639D01*
X56806Y-56715D01*
X57492Y-56944D02*
X57569Y-56982D01*
X57721Y-56982D01*
X57797Y-56944D01*
X57835Y-56868D01*
X57835Y-56829D01*
X57797Y-56753D01*
X57721Y-56715D01*
X57607Y-56715D01*
X57530Y-56677D01*
X57492Y-56601D01*
X57492Y-56563D01*
X57530Y-56487D01*
X57607Y-56448D01*
X57721Y-56448D01*
X57797Y-56487D01*
X58102Y-57287D02*
X58140Y-57248D01*
X58217Y-57134D01*
X58255Y-57058D01*
X58293Y-56944D01*
X58331Y-56753D01*
X58331Y-56601D01*
X58293Y-56410D01*
X58255Y-56296D01*
X58217Y-56220D01*
X58140Y-56106D01*
X58102Y-56068D01*
G54D10*
X41174Y-57714D02*
X41171Y-57738D01*
X41164Y-57761D01*
X41153Y-57783D01*
X41137Y-57802D01*
X41118Y-57817D01*
X41097Y-57829D01*
X41074Y-57836D01*
X41049Y-57838D01*
X41026Y-57836D01*
X41003Y-57829D01*
X40981Y-57818D01*
X40962Y-57803D01*
X40946Y-57784D01*
X40935Y-57763D01*
X40927Y-57739D01*
X40925Y-57715D01*
X40927Y-57692D01*
X40933Y-57668D01*
X40944Y-57647D01*
X40960Y-57628D01*
X40978Y-57612D01*
X40999Y-57600D01*
X41023Y-57592D01*
X41047Y-57590D01*
X41070Y-57591D01*
X41094Y-57598D01*
X41115Y-57609D01*
X41135Y-57624D01*
X41151Y-57642D01*
X41163Y-57664D01*
X41170Y-57687D01*
X41173Y-57711D01*
X41174Y-57714D01*
G54D12*
X41717Y-57238D02*
X41793Y-57238D01*
X41869Y-57276D01*
X41907Y-57314D01*
X41945Y-57390D01*
X41984Y-57543D01*
X41984Y-57733D01*
X41945Y-57885D01*
X41907Y-57962D01*
X41869Y-58000D01*
X41793Y-58038D01*
X41717Y-58038D01*
X41641Y-58000D01*
X41603Y-57962D01*
X41564Y-57885D01*
X41526Y-57733D01*
X41526Y-57543D01*
X41564Y-57390D01*
X41603Y-57314D01*
X41641Y-57276D01*
X41717Y-57238D01*
X42326Y-57962D02*
X42365Y-58000D01*
X42326Y-58038D01*
X42288Y-58000D01*
X42326Y-57962D01*
X42326Y-58038D01*
X43050Y-57238D02*
X42898Y-57238D01*
X42822Y-57276D01*
X42784Y-57314D01*
X42707Y-57428D01*
X42669Y-57581D01*
X42669Y-57885D01*
X42707Y-57962D01*
X42746Y-58000D01*
X42822Y-58038D01*
X42974Y-58038D01*
X43050Y-58000D01*
X43088Y-57962D01*
X43127Y-57885D01*
X43127Y-57695D01*
X43088Y-57619D01*
X43050Y-57581D01*
X42974Y-57543D01*
X42822Y-57543D01*
X42746Y-57581D01*
X42707Y-57619D01*
X42669Y-57695D01*
X43812Y-57504D02*
X43812Y-58038D01*
X43622Y-57200D02*
X43431Y-57771D01*
X43927Y-57771D01*
X44231Y-58038D02*
X44231Y-57504D01*
X44231Y-57581D02*
X44270Y-57543D01*
X44346Y-57504D01*
X44460Y-57504D01*
X44536Y-57543D01*
X44574Y-57619D01*
X44574Y-58038D01*
X44574Y-57619D02*
X44612Y-57543D01*
X44689Y-57504D01*
X44803Y-57504D01*
X44879Y-57543D01*
X44917Y-57619D01*
X44917Y-58038D01*
X45298Y-58038D02*
X45298Y-57504D01*
X45298Y-57581D02*
X45337Y-57543D01*
X45413Y-57504D01*
X45527Y-57504D01*
X45603Y-57543D01*
X45641Y-57619D01*
X45641Y-58038D01*
X45641Y-57619D02*
X45679Y-57543D01*
X45756Y-57504D01*
X45870Y-57504D01*
X45946Y-57543D01*
X45984Y-57619D01*
X45984Y-58038D01*
X47547Y-57200D02*
X46861Y-58228D01*
X48576Y-57238D02*
X48652Y-57238D01*
X48728Y-57276D01*
X48766Y-57314D01*
X48804Y-57390D01*
X48843Y-57543D01*
X48843Y-57733D01*
X48804Y-57885D01*
X48766Y-57962D01*
X48728Y-58000D01*
X48652Y-58038D01*
X48576Y-58038D01*
X48500Y-58000D01*
X48462Y-57962D01*
X48423Y-57885D01*
X48385Y-57733D01*
X48385Y-57543D01*
X48423Y-57390D01*
X48462Y-57314D01*
X48500Y-57276D01*
X48576Y-57238D01*
X49185Y-57962D02*
X49224Y-58000D01*
X49185Y-58038D01*
X49147Y-58000D01*
X49185Y-57962D01*
X49185Y-58038D01*
X49719Y-57238D02*
X49795Y-57238D01*
X49871Y-57276D01*
X49909Y-57314D01*
X49947Y-57390D01*
X49986Y-57543D01*
X49986Y-57733D01*
X49947Y-57885D01*
X49909Y-57962D01*
X49871Y-58000D01*
X49795Y-58038D01*
X49719Y-58038D01*
X49643Y-58000D01*
X49605Y-57962D01*
X49566Y-57885D01*
X49528Y-57733D01*
X49528Y-57543D01*
X49566Y-57390D01*
X49605Y-57314D01*
X49643Y-57276D01*
X49719Y-57238D01*
X50290Y-57314D02*
X50328Y-57276D01*
X50405Y-57238D01*
X50595Y-57238D01*
X50671Y-57276D01*
X50709Y-57314D01*
X50748Y-57390D01*
X50748Y-57466D01*
X50709Y-57581D01*
X50252Y-58038D01*
X50748Y-58038D01*
X51471Y-57238D02*
X51090Y-57238D01*
X51052Y-57619D01*
X51090Y-57581D01*
X51167Y-57543D01*
X51357Y-57543D01*
X51433Y-57581D01*
X51471Y-57619D01*
X51510Y-57695D01*
X51510Y-57885D01*
X51471Y-57962D01*
X51433Y-58000D01*
X51357Y-58038D01*
X51167Y-58038D01*
X51090Y-58000D01*
X51052Y-57962D01*
X51814Y-57238D02*
X51814Y-57390D01*
X52119Y-57238D02*
X52119Y-57390D01*
X53301Y-58343D02*
X53263Y-58304D01*
X53187Y-58190D01*
X53149Y-58114D01*
X53111Y-58000D01*
X53072Y-57809D01*
X53072Y-57657D01*
X53111Y-57466D01*
X53149Y-57352D01*
X53187Y-57276D01*
X53263Y-57162D01*
X53301Y-57124D01*
X53720Y-57581D02*
X53644Y-57543D01*
X53605Y-57504D01*
X53567Y-57428D01*
X53567Y-57390D01*
X53605Y-57314D01*
X53644Y-57276D01*
X53720Y-57238D01*
X53872Y-57238D01*
X53948Y-57276D01*
X53986Y-57314D01*
X54025Y-57390D01*
X54025Y-57428D01*
X53986Y-57504D01*
X53948Y-57543D01*
X53872Y-57581D01*
X53720Y-57581D01*
X53644Y-57619D01*
X53605Y-57657D01*
X53567Y-57733D01*
X53567Y-57885D01*
X53605Y-57962D01*
X53644Y-58000D01*
X53720Y-58038D01*
X53872Y-58038D01*
X53948Y-58000D01*
X53986Y-57962D01*
X54025Y-57885D01*
X54025Y-57733D01*
X53986Y-57657D01*
X53948Y-57619D01*
X53872Y-57581D01*
X54329Y-57314D02*
X54367Y-57276D01*
X54444Y-57238D01*
X54634Y-57238D01*
X54710Y-57276D01*
X54748Y-57314D01*
X54787Y-57390D01*
X54787Y-57466D01*
X54748Y-57581D01*
X54291Y-58038D01*
X54787Y-58038D01*
X55739Y-58038D02*
X55739Y-57238D01*
X56082Y-58038D02*
X56082Y-57619D01*
X56044Y-57543D01*
X55968Y-57504D01*
X55854Y-57504D01*
X55778Y-57543D01*
X55739Y-57581D01*
X56578Y-58038D02*
X56502Y-58000D01*
X56463Y-57962D01*
X56425Y-57885D01*
X56425Y-57657D01*
X56463Y-57581D01*
X56502Y-57543D01*
X56578Y-57504D01*
X56692Y-57504D01*
X56768Y-57543D01*
X56806Y-57581D01*
X56844Y-57657D01*
X56844Y-57885D01*
X56806Y-57962D01*
X56768Y-58000D01*
X56692Y-58038D01*
X56578Y-58038D01*
X57302Y-58038D02*
X57226Y-58000D01*
X57187Y-57924D01*
X57187Y-57238D01*
X57911Y-58000D02*
X57835Y-58038D01*
X57683Y-58038D01*
X57606Y-58000D01*
X57568Y-57924D01*
X57568Y-57619D01*
X57606Y-57543D01*
X57683Y-57504D01*
X57835Y-57504D01*
X57911Y-57543D01*
X57949Y-57619D01*
X57949Y-57695D01*
X57568Y-57771D01*
X58254Y-58000D02*
X58331Y-58038D01*
X58483Y-58038D01*
X58559Y-58000D01*
X58597Y-57924D01*
X58597Y-57885D01*
X58559Y-57809D01*
X58483Y-57771D01*
X58369Y-57771D01*
X58292Y-57733D01*
X58254Y-57657D01*
X58254Y-57619D01*
X58292Y-57543D01*
X58369Y-57504D01*
X58483Y-57504D01*
X58559Y-57543D01*
X58864Y-58343D02*
X58902Y-58304D01*
X58979Y-58190D01*
X59017Y-58114D01*
X59055Y-58000D01*
X59093Y-57809D01*
X59093Y-57657D01*
X59055Y-57466D01*
X59017Y-57352D01*
X58979Y-57276D01*
X58902Y-57162D01*
X58864Y-57124D01*
X41017Y-58613D02*
X41017Y-58927D01*
X41174Y-58770D02*
X40860Y-58770D01*
X41717Y-58294D02*
X41793Y-58294D01*
X41869Y-58332D01*
X41907Y-58370D01*
X41945Y-58446D01*
X41984Y-58599D01*
X41984Y-58789D01*
X41945Y-58941D01*
X41907Y-59018D01*
X41869Y-59056D01*
X41793Y-59094D01*
X41717Y-59094D01*
X41641Y-59056D01*
X41603Y-59018D01*
X41564Y-58941D01*
X41526Y-58789D01*
X41526Y-58599D01*
X41564Y-58446D01*
X41603Y-58370D01*
X41641Y-58332D01*
X41717Y-58294D01*
X42326Y-59018D02*
X42365Y-59056D01*
X42326Y-59094D01*
X42288Y-59056D01*
X42326Y-59018D01*
X42326Y-59094D01*
X42822Y-58637D02*
X42746Y-58599D01*
X42707Y-58560D01*
X42669Y-58484D01*
X42669Y-58446D01*
X42707Y-58370D01*
X42746Y-58332D01*
X42822Y-58294D01*
X42974Y-58294D01*
X43050Y-58332D01*
X43088Y-58370D01*
X43127Y-58446D01*
X43127Y-58484D01*
X43088Y-58560D01*
X43050Y-58599D01*
X42974Y-58637D01*
X42822Y-58637D01*
X42746Y-58675D01*
X42707Y-58713D01*
X42669Y-58789D01*
X42669Y-58941D01*
X42707Y-59018D01*
X42746Y-59056D01*
X42822Y-59094D01*
X42974Y-59094D01*
X43050Y-59056D01*
X43088Y-59018D01*
X43127Y-58941D01*
X43127Y-58789D01*
X43088Y-58713D01*
X43050Y-58675D01*
X42974Y-58637D01*
X43622Y-58294D02*
X43698Y-58294D01*
X43774Y-58332D01*
X43812Y-58370D01*
X43850Y-58446D01*
X43889Y-58599D01*
X43889Y-58789D01*
X43850Y-58941D01*
X43812Y-59018D01*
X43774Y-59056D01*
X43698Y-59094D01*
X43622Y-59094D01*
X43546Y-59056D01*
X43508Y-59018D01*
X43469Y-58941D01*
X43431Y-58789D01*
X43431Y-58599D01*
X43469Y-58446D01*
X43508Y-58370D01*
X43546Y-58332D01*
X43622Y-58294D01*
X44231Y-59094D02*
X44231Y-58560D01*
X44231Y-58637D02*
X44270Y-58599D01*
X44346Y-58560D01*
X44460Y-58560D01*
X44536Y-58599D01*
X44574Y-58675D01*
X44574Y-59094D01*
X44574Y-58675D02*
X44612Y-58599D01*
X44689Y-58560D01*
X44803Y-58560D01*
X44879Y-58599D01*
X44917Y-58675D01*
X44917Y-59094D01*
X45298Y-59094D02*
X45298Y-58560D01*
X45298Y-58637D02*
X45337Y-58599D01*
X45413Y-58560D01*
X45527Y-58560D01*
X45603Y-58599D01*
X45641Y-58675D01*
X45641Y-59094D01*
X45641Y-58675D02*
X45679Y-58599D01*
X45756Y-58560D01*
X45870Y-58560D01*
X45946Y-58599D01*
X45984Y-58675D01*
X45984Y-59094D01*
X47547Y-58256D02*
X46861Y-59284D01*
X48576Y-58294D02*
X48652Y-58294D01*
X48728Y-58332D01*
X48766Y-58370D01*
X48804Y-58446D01*
X48843Y-58599D01*
X48843Y-58789D01*
X48804Y-58941D01*
X48766Y-59018D01*
X48728Y-59056D01*
X48652Y-59094D01*
X48576Y-59094D01*
X48500Y-59056D01*
X48462Y-59018D01*
X48423Y-58941D01*
X48385Y-58789D01*
X48385Y-58599D01*
X48423Y-58446D01*
X48462Y-58370D01*
X48500Y-58332D01*
X48576Y-58294D01*
X49185Y-59018D02*
X49224Y-59056D01*
X49185Y-59094D01*
X49147Y-59056D01*
X49185Y-59018D01*
X49185Y-59094D01*
X49719Y-58294D02*
X49795Y-58294D01*
X49871Y-58332D01*
X49909Y-58370D01*
X49947Y-58446D01*
X49986Y-58599D01*
X49986Y-58789D01*
X49947Y-58941D01*
X49909Y-59018D01*
X49871Y-59056D01*
X49795Y-59094D01*
X49719Y-59094D01*
X49643Y-59056D01*
X49605Y-59018D01*
X49566Y-58941D01*
X49528Y-58789D01*
X49528Y-58599D01*
X49566Y-58446D01*
X49605Y-58370D01*
X49643Y-58332D01*
X49719Y-58294D01*
X50252Y-58294D02*
X50748Y-58294D01*
X50481Y-58599D01*
X50595Y-58599D01*
X50671Y-58637D01*
X50709Y-58675D01*
X50748Y-58751D01*
X50748Y-58941D01*
X50709Y-59018D01*
X50671Y-59056D01*
X50595Y-59094D01*
X50367Y-59094D01*
X50290Y-59056D01*
X50252Y-59018D01*
X51510Y-59094D02*
X51052Y-59094D01*
X51281Y-59094D02*
X51281Y-58294D01*
X51205Y-58408D01*
X51129Y-58484D01*
X51052Y-58522D01*
X51814Y-58294D02*
X51814Y-58446D01*
X52119Y-58294D02*
X52119Y-58446D01*
X53301Y-59399D02*
X53263Y-59360D01*
X53187Y-59246D01*
X53149Y-59170D01*
X53111Y-59056D01*
X53072Y-58865D01*
X53072Y-58713D01*
X53111Y-58522D01*
X53149Y-58408D01*
X53187Y-58332D01*
X53263Y-58218D01*
X53301Y-58180D01*
X53986Y-58294D02*
X53605Y-58294D01*
X53567Y-58675D01*
X53605Y-58637D01*
X53682Y-58599D01*
X53872Y-58599D01*
X53948Y-58637D01*
X53986Y-58675D01*
X54025Y-58751D01*
X54025Y-58941D01*
X53986Y-59018D01*
X53948Y-59056D01*
X53872Y-59094D01*
X53682Y-59094D01*
X53605Y-59056D01*
X53567Y-59018D01*
X54977Y-59094D02*
X54977Y-58294D01*
X55320Y-59094D02*
X55320Y-58675D01*
X55282Y-58599D01*
X55206Y-58560D01*
X55092Y-58560D01*
X55016Y-58599D01*
X54977Y-58637D01*
X55816Y-59094D02*
X55740Y-59056D01*
X55701Y-59018D01*
X55663Y-58941D01*
X55663Y-58713D01*
X55701Y-58637D01*
X55740Y-58599D01*
X55816Y-58560D01*
X55930Y-58560D01*
X56006Y-58599D01*
X56044Y-58637D01*
X56082Y-58713D01*
X56082Y-58941D01*
X56044Y-59018D01*
X56006Y-59056D01*
X55930Y-59094D01*
X55816Y-59094D01*
X56540Y-59094D02*
X56464Y-59056D01*
X56425Y-58980D01*
X56425Y-58294D01*
X57149Y-59056D02*
X57073Y-59094D01*
X56921Y-59094D01*
X56844Y-59056D01*
X56806Y-58980D01*
X56806Y-58675D01*
X56844Y-58599D01*
X56921Y-58560D01*
X57073Y-58560D01*
X57149Y-58599D01*
X57187Y-58675D01*
X57187Y-58751D01*
X56806Y-58827D01*
X57492Y-59056D02*
X57569Y-59094D01*
X57721Y-59094D01*
X57797Y-59056D01*
X57835Y-58980D01*
X57835Y-58941D01*
X57797Y-58865D01*
X57721Y-58827D01*
X57607Y-58827D01*
X57530Y-58789D01*
X57492Y-58713D01*
X57492Y-58675D01*
X57530Y-58599D01*
X57607Y-58560D01*
X57721Y-58560D01*
X57797Y-58599D01*
X58102Y-59399D02*
X58140Y-59360D01*
X58217Y-59246D01*
X58255Y-59170D01*
X58293Y-59056D01*
X58331Y-58865D01*
X58331Y-58713D01*
X58293Y-58522D01*
X58255Y-58408D01*
X58217Y-58332D01*
X58140Y-58218D01*
X58102Y-58180D01*
G54D10*
X41173Y-59826D02*
X41170Y-59856D01*
X41161Y-59885D01*
X41146Y-59912D01*
X41127Y-59936D01*
X41103Y-59956D01*
X41076Y-59970D01*
X41047Y-59979D01*
X41017Y-59982D01*
X40987Y-59980D01*
X40958Y-59971D01*
X40931Y-59957D01*
X40907Y-59938D01*
X40887Y-59914D01*
X40872Y-59887D01*
X40863Y-59858D01*
X40860Y-59828D01*
X40862Y-59798D01*
X40871Y-59769D01*
X40885Y-59741D01*
X40904Y-59717D01*
X40927Y-59698D01*
X40954Y-59683D01*
X40983Y-59673D01*
X41013Y-59670D01*
X41043Y-59672D01*
X41072Y-59680D01*
X41100Y-59694D01*
X41124Y-59713D01*
X41144Y-59736D01*
X41159Y-59763D01*
X41169Y-59792D01*
X41172Y-59822D01*
X41173Y-59826D01*
X40859Y-59669D02*
X41173Y-59983D01*
X41173Y-59669D02*
X40859Y-59983D01*
G54D12*
X41717Y-59350D02*
X41793Y-59350D01*
X41869Y-59388D01*
X41907Y-59426D01*
X41945Y-59502D01*
X41984Y-59655D01*
X41984Y-59845D01*
X41945Y-59997D01*
X41907Y-60074D01*
X41869Y-60112D01*
X41793Y-60150D01*
X41717Y-60150D01*
X41641Y-60112D01*
X41603Y-60074D01*
X41564Y-59997D01*
X41526Y-59845D01*
X41526Y-59655D01*
X41564Y-59502D01*
X41603Y-59426D01*
X41641Y-59388D01*
X41717Y-59350D01*
X42326Y-60074D02*
X42365Y-60112D01*
X42326Y-60150D01*
X42288Y-60112D01*
X42326Y-60074D01*
X42326Y-60150D01*
X42822Y-59693D02*
X42746Y-59655D01*
X42707Y-59616D01*
X42669Y-59540D01*
X42669Y-59502D01*
X42707Y-59426D01*
X42746Y-59388D01*
X42822Y-59350D01*
X42974Y-59350D01*
X43050Y-59388D01*
X43088Y-59426D01*
X43127Y-59502D01*
X43127Y-59540D01*
X43088Y-59616D01*
X43050Y-59655D01*
X42974Y-59693D01*
X42822Y-59693D01*
X42746Y-59731D01*
X42707Y-59769D01*
X42669Y-59845D01*
X42669Y-59997D01*
X42707Y-60074D01*
X42746Y-60112D01*
X42822Y-60150D01*
X42974Y-60150D01*
X43050Y-60112D01*
X43088Y-60074D01*
X43127Y-59997D01*
X43127Y-59845D01*
X43088Y-59769D01*
X43050Y-59731D01*
X42974Y-59693D01*
X43622Y-59350D02*
X43698Y-59350D01*
X43774Y-59388D01*
X43812Y-59426D01*
X43850Y-59502D01*
X43889Y-59655D01*
X43889Y-59845D01*
X43850Y-59997D01*
X43812Y-60074D01*
X43774Y-60112D01*
X43698Y-60150D01*
X43622Y-60150D01*
X43546Y-60112D01*
X43508Y-60074D01*
X43469Y-59997D01*
X43431Y-59845D01*
X43431Y-59655D01*
X43469Y-59502D01*
X43508Y-59426D01*
X43546Y-59388D01*
X43622Y-59350D01*
X44231Y-60150D02*
X44231Y-59616D01*
X44231Y-59693D02*
X44270Y-59655D01*
X44346Y-59616D01*
X44460Y-59616D01*
X44536Y-59655D01*
X44574Y-59731D01*
X44574Y-60150D01*
X44574Y-59731D02*
X44612Y-59655D01*
X44689Y-59616D01*
X44803Y-59616D01*
X44879Y-59655D01*
X44917Y-59731D01*
X44917Y-60150D01*
X45298Y-60150D02*
X45298Y-59616D01*
X45298Y-59693D02*
X45337Y-59655D01*
X45413Y-59616D01*
X45527Y-59616D01*
X45603Y-59655D01*
X45641Y-59731D01*
X45641Y-60150D01*
X45641Y-59731D02*
X45679Y-59655D01*
X45756Y-59616D01*
X45870Y-59616D01*
X45946Y-59655D01*
X45984Y-59731D01*
X45984Y-60150D01*
X47547Y-59312D02*
X46861Y-60340D01*
X48576Y-59350D02*
X48652Y-59350D01*
X48728Y-59388D01*
X48766Y-59426D01*
X48804Y-59502D01*
X48843Y-59655D01*
X48843Y-59845D01*
X48804Y-59997D01*
X48766Y-60074D01*
X48728Y-60112D01*
X48652Y-60150D01*
X48576Y-60150D01*
X48500Y-60112D01*
X48462Y-60074D01*
X48423Y-59997D01*
X48385Y-59845D01*
X48385Y-59655D01*
X48423Y-59502D01*
X48462Y-59426D01*
X48500Y-59388D01*
X48576Y-59350D01*
X49185Y-60074D02*
X49224Y-60112D01*
X49185Y-60150D01*
X49147Y-60112D01*
X49185Y-60074D01*
X49185Y-60150D01*
X49719Y-59350D02*
X49795Y-59350D01*
X49871Y-59388D01*
X49909Y-59426D01*
X49947Y-59502D01*
X49986Y-59655D01*
X49986Y-59845D01*
X49947Y-59997D01*
X49909Y-60074D01*
X49871Y-60112D01*
X49795Y-60150D01*
X49719Y-60150D01*
X49643Y-60112D01*
X49605Y-60074D01*
X49566Y-59997D01*
X49528Y-59845D01*
X49528Y-59655D01*
X49566Y-59502D01*
X49605Y-59426D01*
X49643Y-59388D01*
X49719Y-59350D01*
X50252Y-59350D02*
X50748Y-59350D01*
X50481Y-59655D01*
X50595Y-59655D01*
X50671Y-59693D01*
X50709Y-59731D01*
X50748Y-59807D01*
X50748Y-59997D01*
X50709Y-60074D01*
X50671Y-60112D01*
X50595Y-60150D01*
X50367Y-60150D01*
X50290Y-60112D01*
X50252Y-60074D01*
X51052Y-59426D02*
X51090Y-59388D01*
X51167Y-59350D01*
X51357Y-59350D01*
X51433Y-59388D01*
X51471Y-59426D01*
X51510Y-59502D01*
X51510Y-59578D01*
X51471Y-59693D01*
X51014Y-60150D01*
X51510Y-60150D01*
X51814Y-59350D02*
X51814Y-59502D01*
X52119Y-59350D02*
X52119Y-59502D01*
X53301Y-60455D02*
X53263Y-60416D01*
X53187Y-60302D01*
X53149Y-60226D01*
X53111Y-60112D01*
X53072Y-59921D01*
X53072Y-59769D01*
X53111Y-59578D01*
X53149Y-59464D01*
X53187Y-59388D01*
X53263Y-59274D01*
X53301Y-59236D01*
X53986Y-59350D02*
X53605Y-59350D01*
X53567Y-59731D01*
X53605Y-59693D01*
X53682Y-59655D01*
X53872Y-59655D01*
X53948Y-59693D01*
X53986Y-59731D01*
X54025Y-59807D01*
X54025Y-59997D01*
X53986Y-60074D01*
X53948Y-60112D01*
X53872Y-60150D01*
X53682Y-60150D01*
X53605Y-60112D01*
X53567Y-60074D01*
X54977Y-60150D02*
X54977Y-59350D01*
X55320Y-60150D02*
X55320Y-59731D01*
X55282Y-59655D01*
X55206Y-59616D01*
X55092Y-59616D01*
X55016Y-59655D01*
X54977Y-59693D01*
X55816Y-60150D02*
X55740Y-60112D01*
X55701Y-60074D01*
X55663Y-59997D01*
X55663Y-59769D01*
X55701Y-59693D01*
X55740Y-59655D01*
X55816Y-59616D01*
X55930Y-59616D01*
X56006Y-59655D01*
X56044Y-59693D01*
X56082Y-59769D01*
X56082Y-59997D01*
X56044Y-60074D01*
X56006Y-60112D01*
X55930Y-60150D01*
X55816Y-60150D01*
X56540Y-60150D02*
X56464Y-60112D01*
X56425Y-60036D01*
X56425Y-59350D01*
X57149Y-60112D02*
X57073Y-60150D01*
X56921Y-60150D01*
X56844Y-60112D01*
X56806Y-60036D01*
X56806Y-59731D01*
X56844Y-59655D01*
X56921Y-59616D01*
X57073Y-59616D01*
X57149Y-59655D01*
X57187Y-59731D01*
X57187Y-59807D01*
X56806Y-59883D01*
X57492Y-60112D02*
X57569Y-60150D01*
X57721Y-60150D01*
X57797Y-60112D01*
X57835Y-60036D01*
X57835Y-59997D01*
X57797Y-59921D01*
X57721Y-59883D01*
X57607Y-59883D01*
X57530Y-59845D01*
X57492Y-59769D01*
X57492Y-59731D01*
X57530Y-59655D01*
X57607Y-59616D01*
X57721Y-59616D01*
X57797Y-59655D01*
X58102Y-60455D02*
X58140Y-60416D01*
X58217Y-60302D01*
X58255Y-60226D01*
X58293Y-60112D01*
X58331Y-59921D01*
X58331Y-59769D01*
X58293Y-59578D01*
X58255Y-59464D01*
X58217Y-59388D01*
X58140Y-59274D01*
X58102Y-59236D01*
G54D10*
X41174Y-60882D02*
X41170Y-60916D01*
X41160Y-60950D01*
X41143Y-60981D01*
X41121Y-61008D01*
X41094Y-61031D01*
X41063Y-61047D01*
X41030Y-61058D01*
X40995Y-61061D01*
X40961Y-61058D01*
X40927Y-61048D01*
X40896Y-61032D01*
X40869Y-61010D01*
X40846Y-60983D01*
X40829Y-60952D01*
X40818Y-60919D01*
X40815Y-60884D01*
X40817Y-60850D01*
X40827Y-60816D01*
X40843Y-60785D01*
X40865Y-60757D01*
X40892Y-60735D01*
X40922Y-60718D01*
X40956Y-60707D01*
X40991Y-60703D01*
X41025Y-60705D01*
X41059Y-60715D01*
X41090Y-60731D01*
X41118Y-60752D01*
X41141Y-60779D01*
X41158Y-60809D01*
X41169Y-60843D01*
X41173Y-60877D01*
X41174Y-60882D01*
X40814Y-60882D02*
X41174Y-60882D01*
G54D12*
X41717Y-60406D02*
X41793Y-60406D01*
X41869Y-60444D01*
X41907Y-60482D01*
X41945Y-60558D01*
X41984Y-60711D01*
X41984Y-60901D01*
X41945Y-61053D01*
X41907Y-61130D01*
X41869Y-61168D01*
X41793Y-61206D01*
X41717Y-61206D01*
X41641Y-61168D01*
X41603Y-61130D01*
X41564Y-61053D01*
X41526Y-60901D01*
X41526Y-60711D01*
X41564Y-60558D01*
X41603Y-60482D01*
X41641Y-60444D01*
X41717Y-60406D01*
X42326Y-61130D02*
X42365Y-61168D01*
X42326Y-61206D01*
X42288Y-61168D01*
X42326Y-61130D01*
X42326Y-61206D01*
X42746Y-61206D02*
X42898Y-61206D01*
X42974Y-61168D01*
X43012Y-61130D01*
X43088Y-61015D01*
X43127Y-60863D01*
X43127Y-60558D01*
X43088Y-60482D01*
X43050Y-60444D01*
X42974Y-60406D01*
X42822Y-60406D01*
X42746Y-60444D01*
X42707Y-60482D01*
X42669Y-60558D01*
X42669Y-60749D01*
X42707Y-60825D01*
X42746Y-60863D01*
X42822Y-60901D01*
X42974Y-60901D01*
X43050Y-60863D01*
X43088Y-60825D01*
X43127Y-60749D01*
X43889Y-61206D02*
X43431Y-61206D01*
X43660Y-61206D02*
X43660Y-60406D01*
X43584Y-60520D01*
X43508Y-60596D01*
X43431Y-60634D01*
X44231Y-61206D02*
X44231Y-60672D01*
X44231Y-60749D02*
X44270Y-60711D01*
X44346Y-60672D01*
X44460Y-60672D01*
X44536Y-60711D01*
X44574Y-60787D01*
X44574Y-61206D01*
X44574Y-60787D02*
X44612Y-60711D01*
X44689Y-60672D01*
X44803Y-60672D01*
X44879Y-60711D01*
X44917Y-60787D01*
X44917Y-61206D01*
X45298Y-61206D02*
X45298Y-60672D01*
X45298Y-60749D02*
X45337Y-60711D01*
X45413Y-60672D01*
X45527Y-60672D01*
X45603Y-60711D01*
X45641Y-60787D01*
X45641Y-61206D01*
X45641Y-60787D02*
X45679Y-60711D01*
X45756Y-60672D01*
X45870Y-60672D01*
X45946Y-60711D01*
X45984Y-60787D01*
X45984Y-61206D01*
X47547Y-60368D02*
X46861Y-61396D01*
X48576Y-60406D02*
X48652Y-60406D01*
X48728Y-60444D01*
X48766Y-60482D01*
X48804Y-60558D01*
X48843Y-60711D01*
X48843Y-60901D01*
X48804Y-61053D01*
X48766Y-61130D01*
X48728Y-61168D01*
X48652Y-61206D01*
X48576Y-61206D01*
X48500Y-61168D01*
X48462Y-61130D01*
X48423Y-61053D01*
X48385Y-60901D01*
X48385Y-60711D01*
X48423Y-60558D01*
X48462Y-60482D01*
X48500Y-60444D01*
X48576Y-60406D01*
X49185Y-61130D02*
X49224Y-61168D01*
X49185Y-61206D01*
X49147Y-61168D01*
X49185Y-61130D01*
X49185Y-61206D01*
X49719Y-60406D02*
X49795Y-60406D01*
X49871Y-60444D01*
X49909Y-60482D01*
X49947Y-60558D01*
X49986Y-60711D01*
X49986Y-60901D01*
X49947Y-61053D01*
X49909Y-61130D01*
X49871Y-61168D01*
X49795Y-61206D01*
X49719Y-61206D01*
X49643Y-61168D01*
X49605Y-61130D01*
X49566Y-61053D01*
X49528Y-60901D01*
X49528Y-60711D01*
X49566Y-60558D01*
X49605Y-60482D01*
X49643Y-60444D01*
X49719Y-60406D01*
X50252Y-60406D02*
X50748Y-60406D01*
X50481Y-60711D01*
X50595Y-60711D01*
X50671Y-60749D01*
X50709Y-60787D01*
X50748Y-60863D01*
X50748Y-61053D01*
X50709Y-61130D01*
X50671Y-61168D01*
X50595Y-61206D01*
X50367Y-61206D01*
X50290Y-61168D01*
X50252Y-61130D01*
X51433Y-60406D02*
X51281Y-60406D01*
X51205Y-60444D01*
X51167Y-60482D01*
X51090Y-60596D01*
X51052Y-60749D01*
X51052Y-61053D01*
X51090Y-61130D01*
X51129Y-61168D01*
X51205Y-61206D01*
X51357Y-61206D01*
X51433Y-61168D01*
X51471Y-61130D01*
X51510Y-61053D01*
X51510Y-60863D01*
X51471Y-60787D01*
X51433Y-60749D01*
X51357Y-60711D01*
X51205Y-60711D01*
X51129Y-60749D01*
X51090Y-60787D01*
X51052Y-60863D01*
X51814Y-60406D02*
X51814Y-60558D01*
X52119Y-60406D02*
X52119Y-60558D01*
X53301Y-61511D02*
X53263Y-61472D01*
X53187Y-61358D01*
X53149Y-61282D01*
X53111Y-61168D01*
X53072Y-60977D01*
X53072Y-60825D01*
X53111Y-60634D01*
X53149Y-60520D01*
X53187Y-60444D01*
X53263Y-60330D01*
X53301Y-60292D01*
X53567Y-60482D02*
X53605Y-60444D01*
X53682Y-60406D01*
X53872Y-60406D01*
X53948Y-60444D01*
X53986Y-60482D01*
X54025Y-60558D01*
X54025Y-60634D01*
X53986Y-60749D01*
X53529Y-61206D01*
X54025Y-61206D01*
X54520Y-60406D02*
X54596Y-60406D01*
X54672Y-60444D01*
X54710Y-60482D01*
X54748Y-60558D01*
X54787Y-60711D01*
X54787Y-60901D01*
X54748Y-61053D01*
X54710Y-61130D01*
X54672Y-61168D01*
X54596Y-61206D01*
X54520Y-61206D01*
X54444Y-61168D01*
X54406Y-61130D01*
X54367Y-61053D01*
X54329Y-60901D01*
X54329Y-60711D01*
X54367Y-60558D01*
X54406Y-60482D01*
X54444Y-60444D01*
X54520Y-60406D01*
X55739Y-61206D02*
X55739Y-60406D01*
X56082Y-61206D02*
X56082Y-60787D01*
X56044Y-60711D01*
X55968Y-60672D01*
X55854Y-60672D01*
X55778Y-60711D01*
X55739Y-60749D01*
X56578Y-61206D02*
X56502Y-61168D01*
X56463Y-61130D01*
X56425Y-61053D01*
X56425Y-60825D01*
X56463Y-60749D01*
X56502Y-60711D01*
X56578Y-60672D01*
X56692Y-60672D01*
X56768Y-60711D01*
X56806Y-60749D01*
X56844Y-60825D01*
X56844Y-61053D01*
X56806Y-61130D01*
X56768Y-61168D01*
X56692Y-61206D01*
X56578Y-61206D01*
X57302Y-61206D02*
X57226Y-61168D01*
X57187Y-61092D01*
X57187Y-60406D01*
X57911Y-61168D02*
X57835Y-61206D01*
X57683Y-61206D01*
X57606Y-61168D01*
X57568Y-61092D01*
X57568Y-60787D01*
X57606Y-60711D01*
X57683Y-60672D01*
X57835Y-60672D01*
X57911Y-60711D01*
X57949Y-60787D01*
X57949Y-60863D01*
X57568Y-60939D01*
X58254Y-61168D02*
X58331Y-61206D01*
X58483Y-61206D01*
X58559Y-61168D01*
X58597Y-61092D01*
X58597Y-61053D01*
X58559Y-60977D01*
X58483Y-60939D01*
X58369Y-60939D01*
X58292Y-60901D01*
X58254Y-60825D01*
X58254Y-60787D01*
X58292Y-60711D01*
X58369Y-60672D01*
X58483Y-60672D01*
X58559Y-60711D01*
X58864Y-61511D02*
X58902Y-61472D01*
X58979Y-61358D01*
X59017Y-61282D01*
X59055Y-61168D01*
X59093Y-60977D01*
X59093Y-60825D01*
X59055Y-60634D01*
X59017Y-60520D01*
X58979Y-60444D01*
X58902Y-60330D01*
X58864Y-60292D01*
G54D10*
X41174Y-61938D02*
X41170Y-61976D01*
X41158Y-62014D01*
X41140Y-62048D01*
X41115Y-62078D01*
X41085Y-62103D01*
X41051Y-62122D01*
X41014Y-62133D01*
X40975Y-62137D01*
X40937Y-62134D01*
X40900Y-62123D01*
X40865Y-62105D01*
X40835Y-62080D01*
X40809Y-62050D01*
X40791Y-62016D01*
X40779Y-61979D01*
X40775Y-61940D01*
X40778Y-61902D01*
X40789Y-61865D01*
X40806Y-61830D01*
X40831Y-61800D01*
X40860Y-61774D01*
X40894Y-61755D01*
X40932Y-61743D01*
X40970Y-61739D01*
X41008Y-61742D01*
X41046Y-61752D01*
X41081Y-61770D01*
X41111Y-61794D01*
X41137Y-61823D01*
X41156Y-61857D01*
X41169Y-61894D01*
X41173Y-61933D01*
X41174Y-61938D01*
X40974Y-61738D02*
X40974Y-62138D01*
G54D12*
X41984Y-62262D02*
X41526Y-62262D01*
X41755Y-62262D02*
X41755Y-61462D01*
X41679Y-61576D01*
X41603Y-61652D01*
X41526Y-61690D01*
X42326Y-62186D02*
X42365Y-62224D01*
X42326Y-62262D01*
X42288Y-62224D01*
X42326Y-62186D01*
X42326Y-62262D01*
X42860Y-61462D02*
X42936Y-61462D01*
X43012Y-61500D01*
X43050Y-61538D01*
X43088Y-61614D01*
X43127Y-61767D01*
X43127Y-61957D01*
X43088Y-62109D01*
X43050Y-62186D01*
X43012Y-62224D01*
X42936Y-62262D01*
X42860Y-62262D01*
X42784Y-62224D01*
X42746Y-62186D01*
X42707Y-62109D01*
X42669Y-61957D01*
X42669Y-61767D01*
X42707Y-61614D01*
X42746Y-61538D01*
X42784Y-61500D01*
X42860Y-61462D01*
X43431Y-61538D02*
X43469Y-61500D01*
X43546Y-61462D01*
X43736Y-61462D01*
X43812Y-61500D01*
X43850Y-61538D01*
X43889Y-61614D01*
X43889Y-61690D01*
X43850Y-61805D01*
X43393Y-62262D01*
X43889Y-62262D01*
X44231Y-62262D02*
X44231Y-61728D01*
X44231Y-61805D02*
X44270Y-61767D01*
X44346Y-61728D01*
X44460Y-61728D01*
X44536Y-61767D01*
X44574Y-61843D01*
X44574Y-62262D01*
X44574Y-61843D02*
X44612Y-61767D01*
X44689Y-61728D01*
X44803Y-61728D01*
X44879Y-61767D01*
X44917Y-61843D01*
X44917Y-62262D01*
X45298Y-62262D02*
X45298Y-61728D01*
X45298Y-61805D02*
X45337Y-61767D01*
X45413Y-61728D01*
X45527Y-61728D01*
X45603Y-61767D01*
X45641Y-61843D01*
X45641Y-62262D01*
X45641Y-61843D02*
X45679Y-61767D01*
X45756Y-61728D01*
X45870Y-61728D01*
X45946Y-61767D01*
X45984Y-61843D01*
X45984Y-62262D01*
X47547Y-61424D02*
X46861Y-62452D01*
X48576Y-61462D02*
X48652Y-61462D01*
X48728Y-61500D01*
X48766Y-61538D01*
X48804Y-61614D01*
X48843Y-61767D01*
X48843Y-61957D01*
X48804Y-62109D01*
X48766Y-62186D01*
X48728Y-62224D01*
X48652Y-62262D01*
X48576Y-62262D01*
X48500Y-62224D01*
X48462Y-62186D01*
X48423Y-62109D01*
X48385Y-61957D01*
X48385Y-61767D01*
X48423Y-61614D01*
X48462Y-61538D01*
X48500Y-61500D01*
X48576Y-61462D01*
X49185Y-62186D02*
X49224Y-62224D01*
X49185Y-62262D01*
X49147Y-62224D01*
X49185Y-62186D01*
X49185Y-62262D01*
X49719Y-61462D02*
X49795Y-61462D01*
X49871Y-61500D01*
X49909Y-61538D01*
X49947Y-61614D01*
X49986Y-61767D01*
X49986Y-61957D01*
X49947Y-62109D01*
X49909Y-62186D01*
X49871Y-62224D01*
X49795Y-62262D01*
X49719Y-62262D01*
X49643Y-62224D01*
X49605Y-62186D01*
X49566Y-62109D01*
X49528Y-61957D01*
X49528Y-61767D01*
X49566Y-61614D01*
X49605Y-61538D01*
X49643Y-61500D01*
X49719Y-61462D01*
X50671Y-61728D02*
X50671Y-62262D01*
X50481Y-61424D02*
X50290Y-61995D01*
X50786Y-61995D01*
X51243Y-61462D02*
X51319Y-61462D01*
X51395Y-61500D01*
X51433Y-61538D01*
X51471Y-61614D01*
X51510Y-61767D01*
X51510Y-61957D01*
X51471Y-62109D01*
X51433Y-62186D01*
X51395Y-62224D01*
X51319Y-62262D01*
X51243Y-62262D01*
X51167Y-62224D01*
X51129Y-62186D01*
X51090Y-62109D01*
X51052Y-61957D01*
X51052Y-61767D01*
X51090Y-61614D01*
X51129Y-61538D01*
X51167Y-61500D01*
X51243Y-61462D01*
X51814Y-61462D02*
X51814Y-61614D01*
X52119Y-61462D02*
X52119Y-61614D01*
X53301Y-62567D02*
X53263Y-62528D01*
X53187Y-62414D01*
X53149Y-62338D01*
X53111Y-62224D01*
X53072Y-62033D01*
X53072Y-61881D01*
X53111Y-61690D01*
X53149Y-61576D01*
X53187Y-61500D01*
X53263Y-61386D01*
X53301Y-61348D01*
X53948Y-61462D02*
X53796Y-61462D01*
X53720Y-61500D01*
X53682Y-61538D01*
X53605Y-61652D01*
X53567Y-61805D01*
X53567Y-62109D01*
X53605Y-62186D01*
X53644Y-62224D01*
X53720Y-62262D01*
X53872Y-62262D01*
X53948Y-62224D01*
X53986Y-62186D01*
X54025Y-62109D01*
X54025Y-61919D01*
X53986Y-61843D01*
X53948Y-61805D01*
X53872Y-61767D01*
X53720Y-61767D01*
X53644Y-61805D01*
X53605Y-61843D01*
X53567Y-61919D01*
X54291Y-61462D02*
X54825Y-61462D01*
X54482Y-62262D01*
X55739Y-62262D02*
X55739Y-61462D01*
X56082Y-62262D02*
X56082Y-61843D01*
X56044Y-61767D01*
X55968Y-61728D01*
X55854Y-61728D01*
X55778Y-61767D01*
X55739Y-61805D01*
X56578Y-62262D02*
X56502Y-62224D01*
X56463Y-62186D01*
X56425Y-62109D01*
X56425Y-61881D01*
X56463Y-61805D01*
X56502Y-61767D01*
X56578Y-61728D01*
X56692Y-61728D01*
X56768Y-61767D01*
X56806Y-61805D01*
X56844Y-61881D01*
X56844Y-62109D01*
X56806Y-62186D01*
X56768Y-62224D01*
X56692Y-62262D01*
X56578Y-62262D01*
X57302Y-62262D02*
X57226Y-62224D01*
X57187Y-62148D01*
X57187Y-61462D01*
X57911Y-62224D02*
X57835Y-62262D01*
X57683Y-62262D01*
X57606Y-62224D01*
X57568Y-62148D01*
X57568Y-61843D01*
X57606Y-61767D01*
X57683Y-61728D01*
X57835Y-61728D01*
X57911Y-61767D01*
X57949Y-61843D01*
X57949Y-61919D01*
X57568Y-61995D01*
X58254Y-62224D02*
X58331Y-62262D01*
X58483Y-62262D01*
X58559Y-62224D01*
X58597Y-62148D01*
X58597Y-62109D01*
X58559Y-62033D01*
X58483Y-61995D01*
X58369Y-61995D01*
X58292Y-61957D01*
X58254Y-61881D01*
X58254Y-61843D01*
X58292Y-61767D01*
X58369Y-61728D01*
X58483Y-61728D01*
X58559Y-61767D01*
X58864Y-62567D02*
X58902Y-62528D01*
X58979Y-62414D01*
X59017Y-62338D01*
X59055Y-62224D01*
X59093Y-62033D01*
X59093Y-61881D01*
X59055Y-61690D01*
X59017Y-61576D01*
X58979Y-61500D01*
X58902Y-61386D01*
X58864Y-61348D01*
G54D10*
X41064Y-63258D02*
X41064Y-62730D01*
X40536Y-62730D01*
X40536Y-63258D01*
X41064Y-63258D01*
G54D12*
X41984Y-63318D02*
X41526Y-63318D01*
X41755Y-63318D02*
X41755Y-62518D01*
X41679Y-62632D01*
X41603Y-62708D01*
X41526Y-62746D01*
X42326Y-63242D02*
X42365Y-63280D01*
X42326Y-63318D01*
X42288Y-63280D01*
X42326Y-63242D01*
X42326Y-63318D01*
X42746Y-63318D02*
X42898Y-63318D01*
X42974Y-63280D01*
X43012Y-63242D01*
X43088Y-63127D01*
X43127Y-62975D01*
X43127Y-62670D01*
X43088Y-62594D01*
X43050Y-62556D01*
X42974Y-62518D01*
X42822Y-62518D01*
X42746Y-62556D01*
X42707Y-62594D01*
X42669Y-62670D01*
X42669Y-62861D01*
X42707Y-62937D01*
X42746Y-62975D01*
X42822Y-63013D01*
X42974Y-63013D01*
X43050Y-62975D01*
X43088Y-62937D01*
X43127Y-62861D01*
X43622Y-62518D02*
X43698Y-62518D01*
X43774Y-62556D01*
X43812Y-62594D01*
X43850Y-62670D01*
X43889Y-62823D01*
X43889Y-63013D01*
X43850Y-63165D01*
X43812Y-63242D01*
X43774Y-63280D01*
X43698Y-63318D01*
X43622Y-63318D01*
X43546Y-63280D01*
X43508Y-63242D01*
X43469Y-63165D01*
X43431Y-63013D01*
X43431Y-62823D01*
X43469Y-62670D01*
X43508Y-62594D01*
X43546Y-62556D01*
X43622Y-62518D01*
X44231Y-63318D02*
X44231Y-62784D01*
X44231Y-62861D02*
X44270Y-62823D01*
X44346Y-62784D01*
X44460Y-62784D01*
X44536Y-62823D01*
X44574Y-62899D01*
X44574Y-63318D01*
X44574Y-62899D02*
X44612Y-62823D01*
X44689Y-62784D01*
X44803Y-62784D01*
X44879Y-62823D01*
X44917Y-62899D01*
X44917Y-63318D01*
X45298Y-63318D02*
X45298Y-62784D01*
X45298Y-62861D02*
X45337Y-62823D01*
X45413Y-62784D01*
X45527Y-62784D01*
X45603Y-62823D01*
X45641Y-62899D01*
X45641Y-63318D01*
X45641Y-62899D02*
X45679Y-62823D01*
X45756Y-62784D01*
X45870Y-62784D01*
X45946Y-62823D01*
X45984Y-62899D01*
X45984Y-63318D01*
X47547Y-62480D02*
X46861Y-63508D01*
X48576Y-62518D02*
X48652Y-62518D01*
X48728Y-62556D01*
X48766Y-62594D01*
X48804Y-62670D01*
X48843Y-62823D01*
X48843Y-63013D01*
X48804Y-63165D01*
X48766Y-63242D01*
X48728Y-63280D01*
X48652Y-63318D01*
X48576Y-63318D01*
X48500Y-63280D01*
X48462Y-63242D01*
X48423Y-63165D01*
X48385Y-63013D01*
X48385Y-62823D01*
X48423Y-62670D01*
X48462Y-62594D01*
X48500Y-62556D01*
X48576Y-62518D01*
X49185Y-63242D02*
X49224Y-63280D01*
X49185Y-63318D01*
X49147Y-63280D01*
X49185Y-63242D01*
X49185Y-63318D01*
X49719Y-62518D02*
X49795Y-62518D01*
X49871Y-62556D01*
X49909Y-62594D01*
X49947Y-62670D01*
X49986Y-62823D01*
X49986Y-63013D01*
X49947Y-63165D01*
X49909Y-63242D01*
X49871Y-63280D01*
X49795Y-63318D01*
X49719Y-63318D01*
X49643Y-63280D01*
X49605Y-63242D01*
X49566Y-63165D01*
X49528Y-63013D01*
X49528Y-62823D01*
X49566Y-62670D01*
X49605Y-62594D01*
X49643Y-62556D01*
X49719Y-62518D01*
X50252Y-62518D02*
X50786Y-62518D01*
X50443Y-63318D01*
X51471Y-62518D02*
X51090Y-62518D01*
X51052Y-62899D01*
X51090Y-62861D01*
X51167Y-62823D01*
X51357Y-62823D01*
X51433Y-62861D01*
X51471Y-62899D01*
X51510Y-62975D01*
X51510Y-63165D01*
X51471Y-63242D01*
X51433Y-63280D01*
X51357Y-63318D01*
X51167Y-63318D01*
X51090Y-63280D01*
X51052Y-63242D01*
X51814Y-62518D02*
X51814Y-62670D01*
X52119Y-62518D02*
X52119Y-62670D01*
X53301Y-63623D02*
X53263Y-63584D01*
X53187Y-63470D01*
X53149Y-63394D01*
X53111Y-63280D01*
X53072Y-63089D01*
X53072Y-62937D01*
X53111Y-62746D01*
X53149Y-62632D01*
X53187Y-62556D01*
X53263Y-62442D01*
X53301Y-62404D01*
X53567Y-62594D02*
X53605Y-62556D01*
X53682Y-62518D01*
X53872Y-62518D01*
X53948Y-62556D01*
X53986Y-62594D01*
X54025Y-62670D01*
X54025Y-62746D01*
X53986Y-62861D01*
X53529Y-63318D01*
X54025Y-63318D01*
X54977Y-63318D02*
X54977Y-62518D01*
X55320Y-63318D02*
X55320Y-62899D01*
X55282Y-62823D01*
X55206Y-62784D01*
X55092Y-62784D01*
X55016Y-62823D01*
X54977Y-62861D01*
X55816Y-63318D02*
X55740Y-63280D01*
X55701Y-63242D01*
X55663Y-63165D01*
X55663Y-62937D01*
X55701Y-62861D01*
X55740Y-62823D01*
X55816Y-62784D01*
X55930Y-62784D01*
X56006Y-62823D01*
X56044Y-62861D01*
X56082Y-62937D01*
X56082Y-63165D01*
X56044Y-63242D01*
X56006Y-63280D01*
X55930Y-63318D01*
X55816Y-63318D01*
X56540Y-63318D02*
X56464Y-63280D01*
X56425Y-63204D01*
X56425Y-62518D01*
X57149Y-63280D02*
X57073Y-63318D01*
X56921Y-63318D01*
X56844Y-63280D01*
X56806Y-63204D01*
X56806Y-62899D01*
X56844Y-62823D01*
X56921Y-62784D01*
X57073Y-62784D01*
X57149Y-62823D01*
X57187Y-62899D01*
X57187Y-62975D01*
X56806Y-63051D01*
X57492Y-63280D02*
X57569Y-63318D01*
X57721Y-63318D01*
X57797Y-63280D01*
X57835Y-63204D01*
X57835Y-63165D01*
X57797Y-63089D01*
X57721Y-63051D01*
X57607Y-63051D01*
X57530Y-63013D01*
X57492Y-62937D01*
X57492Y-62899D01*
X57530Y-62823D01*
X57607Y-62784D01*
X57721Y-62784D01*
X57797Y-62823D01*
X58102Y-63623D02*
X58140Y-63584D01*
X58217Y-63470D01*
X58255Y-63394D01*
X58293Y-63280D01*
X58331Y-63089D01*
X58331Y-62937D01*
X58293Y-62746D01*
X58255Y-62632D01*
X58217Y-62556D01*
X58140Y-62442D01*
X58102Y-62404D01*
M02*
