G04 (created by PCBNEW-RS274X (2010-03-14)-final) date jue 03 nov 2011 22:05:38 ART*
G01*
G70*
G90*
%MOIN*%
G04 Gerber Fmt 3.4, Leading zero omitted, Abs format*
%FSLAX34Y34*%
G04 APERTURE LIST*
%ADD10C,0.000100*%
%ADD11C,0.015000*%
%ADD12R,0.055000X0.035000*%
%ADD13R,0.045000X0.025000*%
%ADD14O,0.060000X0.060000*%
%ADD15C,0.051400*%
%ADD16C,0.112200*%
%ADD17C,0.056000*%
%ADD18R,0.060000X0.060000*%
%ADD19C,0.060000*%
%ADD20R,0.075000X0.075000*%
%ADD21C,0.075000*%
%ADD22R,0.040000X0.040000*%
%ADD23C,0.070900*%
%ADD24C,0.045000*%
%ADD25C,0.028000*%
%ADD26C,0.030000*%
%ADD27C,0.010000*%
%ADD28C,0.020000*%
%ADD29C,0.006000*%
G04 APERTURE END LIST*
G54D10*
G54D11*
X41250Y-29200D02*
X41400Y-29200D01*
X41250Y-53900D02*
X41250Y-29200D01*
X41400Y-53900D02*
X41250Y-53900D01*
X41550Y-53900D02*
X41400Y-53900D01*
X41700Y-53900D02*
X41550Y-53900D01*
X41850Y-53900D02*
X41700Y-53900D01*
X67250Y-53900D02*
X41850Y-53900D01*
X67250Y-29200D02*
X67250Y-53900D01*
X67150Y-29200D02*
X67250Y-29200D01*
X41300Y-29200D02*
X67150Y-29200D01*
G54D12*
X62950Y-40175D03*
X62950Y-40925D03*
G54D13*
X62350Y-40250D03*
X62350Y-40850D03*
G54D14*
X66550Y-51900D03*
X66550Y-50900D03*
X66550Y-49900D03*
X66550Y-48900D03*
X66550Y-47900D03*
X66550Y-46900D03*
X66550Y-45900D03*
X66550Y-44900D03*
X66550Y-43900D03*
X66550Y-42900D03*
X66550Y-41900D03*
X66550Y-40900D03*
X66550Y-39900D03*
X66550Y-38900D03*
X66550Y-37900D03*
X66550Y-36900D03*
X66550Y-35900D03*
X66550Y-34900D03*
X66550Y-33900D03*
X66550Y-32900D03*
X60550Y-51900D03*
X60550Y-50900D03*
X60550Y-49900D03*
X60550Y-48900D03*
X60550Y-47900D03*
X60550Y-46900D03*
X60550Y-45900D03*
X60550Y-44900D03*
X60550Y-43900D03*
X60550Y-42900D03*
X60550Y-41900D03*
X60550Y-40900D03*
X60550Y-39900D03*
X60550Y-38900D03*
X60550Y-37900D03*
X60550Y-36900D03*
X60550Y-35900D03*
X60550Y-34900D03*
X60550Y-33900D03*
X60550Y-32900D03*
X61050Y-31650D03*
X62050Y-31650D03*
X63050Y-31650D03*
X64050Y-31650D03*
X65050Y-31650D03*
X66050Y-31650D03*
G54D15*
X45250Y-50093D03*
X44936Y-50565D03*
X45879Y-50093D03*
X45564Y-50565D03*
G54D16*
X46687Y-52100D03*
X43813Y-52100D03*
G54D15*
X44621Y-50093D03*
G54D17*
X56450Y-43150D03*
X57450Y-43150D03*
X56450Y-44150D03*
X57450Y-44150D03*
X56450Y-45150D03*
X57450Y-45150D03*
X56450Y-46150D03*
X57450Y-46150D03*
X56450Y-47150D03*
X57450Y-47150D03*
X56450Y-48150D03*
X57450Y-48150D03*
X56450Y-49150D03*
X57450Y-49150D03*
X56450Y-50150D03*
X57450Y-50150D03*
X56450Y-51150D03*
X57450Y-51150D03*
X56450Y-52150D03*
X57450Y-52150D03*
G54D18*
X45950Y-43000D03*
G54D19*
X45950Y-42000D03*
X46950Y-43000D03*
X46950Y-42000D03*
X47950Y-43000D03*
X47950Y-42000D03*
X48950Y-43000D03*
X48950Y-42000D03*
X49950Y-43000D03*
X49950Y-42000D03*
G54D20*
X57900Y-38200D03*
G54D21*
X57900Y-37200D03*
X57900Y-36200D03*
X57900Y-35200D03*
X57900Y-34200D03*
X57900Y-33200D03*
X57900Y-32200D03*
G54D20*
X42900Y-36700D03*
G54D21*
X42900Y-35700D03*
X42900Y-34700D03*
X42900Y-33700D03*
G54D22*
X50100Y-35200D03*
X50100Y-35600D03*
X50100Y-36000D03*
X50500Y-36000D03*
X50500Y-35600D03*
X50500Y-35200D03*
G54D23*
X56600Y-36550D03*
X58350Y-30200D03*
X44050Y-33700D03*
X50900Y-30200D03*
X44125Y-30325D03*
G54D24*
X52000Y-33150D03*
X47950Y-33600D03*
X49300Y-37125D03*
X52900Y-38200D03*
X52300Y-38800D03*
X51825Y-37300D03*
X48200Y-37450D03*
X49650Y-34350D03*
X53075Y-34300D03*
X45450Y-37100D03*
X45750Y-36200D03*
X47100Y-31750D03*
X47950Y-31600D03*
X55700Y-33850D03*
X55300Y-34425D03*
X56500Y-35525D03*
X50800Y-36900D03*
G54D25*
X64850Y-40800D03*
X65200Y-40800D03*
X65200Y-41150D03*
X65200Y-41500D03*
X61700Y-40550D03*
X61850Y-41800D03*
X61850Y-42200D03*
X65150Y-39450D03*
X61850Y-40850D03*
X62950Y-47950D03*
X62950Y-42000D03*
X62750Y-49750D03*
X51350Y-48300D03*
X53600Y-49450D03*
X51350Y-49400D03*
X53250Y-49400D03*
X51900Y-49200D03*
X52200Y-47850D03*
X50200Y-47600D03*
X50850Y-44350D03*
X49350Y-45250D03*
X51850Y-50800D03*
X51700Y-48650D03*
X61950Y-39700D03*
X53050Y-46700D03*
X51000Y-44850D03*
X62600Y-37600D03*
X62300Y-39300D03*
X52650Y-45300D03*
X62300Y-37950D03*
X52550Y-51050D03*
X52050Y-44600D03*
X49700Y-45200D03*
X61850Y-40250D03*
X62800Y-51050D03*
X63550Y-42110D03*
X50950Y-50700D03*
X50900Y-48850D03*
X64050Y-48800D03*
G54D24*
X54700Y-30050D03*
X53050Y-32550D03*
X50650Y-38550D03*
X56850Y-38200D03*
X48600Y-30600D03*
X50375Y-31575D03*
X56800Y-40250D03*
G54D25*
X43900Y-47600D03*
X47850Y-46900D03*
X49600Y-46700D03*
G54D24*
X45700Y-35050D03*
X45200Y-35500D03*
X47750Y-38775D03*
X47850Y-38100D03*
X50000Y-39450D03*
X46600Y-38300D03*
G54D25*
X48650Y-49700D03*
X48800Y-47400D03*
X48100Y-50850D03*
X49250Y-47250D03*
X64950Y-51250D03*
X65750Y-49550D03*
X62050Y-51100D03*
X63450Y-51300D03*
X46850Y-46100D03*
X46000Y-46600D03*
G54D26*
X48750Y-35800D02*
X48700Y-35750D01*
X48700Y-35750D02*
X48775Y-35825D01*
X48775Y-35825D02*
X49675Y-36725D01*
X51850Y-38200D02*
X51850Y-38200D01*
X51850Y-38200D02*
X51850Y-38200D01*
X51850Y-38200D02*
X51150Y-38200D01*
X49675Y-36725D02*
X51150Y-38200D01*
X45075Y-34175D02*
X45950Y-34175D01*
X45950Y-34175D02*
X45925Y-34175D01*
X43550Y-35700D02*
X45075Y-34175D01*
X43550Y-35700D02*
X42900Y-35700D01*
G54D27*
X51750Y-32900D02*
X52000Y-33150D01*
X51750Y-32900D02*
X48750Y-32900D01*
X47950Y-33600D02*
X47950Y-32900D01*
X49675Y-36725D02*
X49675Y-36750D01*
G54D28*
X48700Y-36850D02*
X48700Y-36825D01*
X48975Y-37125D02*
X48700Y-36850D01*
X49050Y-37125D02*
X48975Y-37125D01*
X49300Y-37125D02*
X49050Y-37125D01*
X48700Y-35750D02*
X48700Y-35850D01*
X48700Y-36825D02*
X48700Y-35850D01*
X51850Y-38200D02*
X52900Y-38200D01*
G54D26*
X48750Y-32900D02*
X47950Y-32900D01*
X47950Y-32900D02*
X45650Y-32900D01*
X45650Y-32900D02*
X45700Y-32900D01*
G54D28*
X42900Y-33700D02*
X44050Y-33700D01*
G54D26*
X45650Y-32900D02*
X43700Y-32900D01*
X43700Y-32900D02*
X42900Y-33700D01*
G54D28*
X51850Y-38250D02*
X51850Y-38200D01*
X51850Y-38350D02*
X51850Y-38250D01*
X52300Y-38800D02*
X51850Y-38350D01*
G54D27*
X51850Y-38200D02*
X51825Y-38200D01*
X51825Y-37300D02*
X51825Y-38200D01*
G54D28*
X48700Y-36950D02*
X48700Y-36825D01*
X48700Y-36950D02*
X48200Y-37450D01*
G54D26*
X45950Y-34175D02*
X47050Y-34175D01*
X47050Y-34175D02*
X48775Y-35900D01*
X48750Y-32900D02*
X48750Y-35800D01*
X48750Y-35800D02*
X48775Y-35825D01*
G54D27*
X49750Y-34350D02*
X49650Y-34350D01*
X53075Y-34300D02*
X52975Y-34350D01*
X50525Y-34350D02*
X49750Y-34350D01*
X52975Y-34350D02*
X50525Y-34350D01*
X45750Y-36200D02*
X45750Y-36800D01*
X45750Y-36800D02*
X45450Y-37100D01*
X45750Y-36200D02*
X45750Y-36200D01*
G54D26*
X47950Y-32100D02*
X48250Y-32100D01*
X54450Y-33850D02*
X54925Y-33850D01*
X54925Y-33850D02*
X54875Y-33850D01*
X54875Y-33850D02*
X54850Y-33850D01*
X54850Y-33850D02*
X54850Y-33850D01*
X53450Y-33850D02*
X54450Y-33850D01*
X51700Y-32100D02*
X53450Y-33850D01*
X48250Y-32100D02*
X51700Y-32100D01*
X47950Y-32100D02*
X47900Y-32100D01*
X47900Y-32100D02*
X47450Y-32100D01*
X47450Y-32100D02*
X47100Y-31750D01*
X47950Y-31600D02*
X47950Y-32100D01*
X54875Y-33850D02*
X55700Y-33850D01*
X55300Y-34425D02*
X54925Y-34050D01*
X54925Y-34050D02*
X54925Y-33850D01*
G54D27*
X55700Y-35700D02*
X54500Y-36900D01*
X54500Y-36900D02*
X53850Y-36900D01*
X53750Y-36900D02*
X50800Y-36900D01*
X53750Y-36900D02*
X53850Y-36900D01*
X56500Y-35525D02*
X55875Y-35525D01*
X55875Y-35525D02*
X55700Y-35700D01*
G54D29*
X64850Y-40800D02*
X64600Y-41050D01*
X64600Y-41050D02*
X64600Y-44950D01*
X64600Y-44950D02*
X66550Y-46900D01*
X65200Y-40800D02*
X64750Y-41250D01*
X64750Y-41250D02*
X64750Y-44100D01*
X64750Y-44100D02*
X66550Y-45900D01*
X65200Y-41150D02*
X64950Y-41400D01*
X64950Y-41400D02*
X64950Y-43300D01*
X64950Y-43300D02*
X66550Y-44900D01*
X65200Y-41500D02*
X66050Y-42350D01*
X66050Y-42350D02*
X66050Y-43400D01*
X66050Y-43400D02*
X66550Y-43900D01*
X61700Y-40550D02*
X61200Y-40050D01*
X61200Y-40050D02*
X61200Y-37550D01*
X61200Y-37550D02*
X60550Y-36900D01*
X61850Y-41800D02*
X62100Y-42050D01*
X62100Y-42050D02*
X62100Y-42450D01*
X62100Y-42450D02*
X61350Y-43200D01*
X61350Y-43200D02*
X61350Y-45100D01*
X61350Y-45100D02*
X60550Y-45900D01*
X61850Y-42200D02*
X61150Y-42900D01*
X61150Y-42900D02*
X61150Y-44300D01*
X61150Y-44300D02*
X60550Y-44900D01*
G54D28*
X66050Y-32400D02*
X66550Y-32900D01*
X66050Y-31650D02*
X66050Y-32400D01*
G54D29*
X65150Y-39450D02*
X66100Y-38500D01*
X66100Y-38500D02*
X66100Y-33350D01*
X66100Y-33350D02*
X66550Y-32900D01*
X61850Y-40850D02*
X62350Y-40850D01*
X62875Y-40850D02*
X62950Y-40925D01*
X62350Y-40850D02*
X62875Y-40850D01*
G54D28*
X62950Y-41500D02*
X62950Y-40925D01*
X62950Y-47900D02*
X62950Y-41500D01*
X62950Y-47950D02*
X62950Y-47900D01*
G54D29*
X62950Y-42000D02*
X62950Y-41500D01*
G54D28*
X61600Y-50900D02*
X60550Y-50900D01*
X62750Y-49750D02*
X61600Y-50900D01*
G54D29*
X51350Y-48300D02*
X51350Y-49400D01*
X53250Y-49800D02*
X53600Y-49450D01*
X51750Y-49800D02*
X53250Y-49800D01*
X51350Y-49400D02*
X51750Y-49800D01*
X52100Y-49400D02*
X53250Y-49400D01*
X51900Y-49200D02*
X52100Y-49400D01*
X50450Y-47850D02*
X52200Y-47850D01*
X50200Y-47600D02*
X50450Y-47850D01*
X50250Y-44350D02*
X50850Y-44350D01*
X49350Y-45250D02*
X50250Y-44350D01*
X54500Y-50150D02*
X54800Y-50450D01*
X54800Y-50450D02*
X54850Y-50450D01*
X52200Y-50450D02*
X54850Y-50450D01*
X51850Y-50800D02*
X52200Y-50450D01*
X54850Y-50450D02*
X56150Y-50450D01*
X56150Y-50450D02*
X56450Y-50150D01*
X53600Y-49100D02*
X54300Y-49100D01*
X54500Y-49300D02*
X54500Y-50150D01*
X54300Y-49100D02*
X54500Y-49300D01*
X52150Y-49100D02*
X53600Y-49100D01*
X51700Y-48650D02*
X52150Y-49100D01*
X61950Y-39700D02*
X63200Y-39700D01*
X63200Y-39700D02*
X63750Y-39150D01*
X63750Y-39150D02*
X63750Y-31950D01*
X63750Y-31950D02*
X64050Y-31650D01*
X52850Y-46700D02*
X53050Y-46700D01*
X51000Y-44850D02*
X52850Y-46700D01*
X62600Y-37600D02*
X62600Y-32600D01*
X62600Y-32600D02*
X62050Y-32050D01*
X62050Y-32050D02*
X62050Y-31650D01*
X62300Y-39300D02*
X63050Y-38550D01*
X63050Y-38550D02*
X63050Y-31650D01*
X56450Y-49150D02*
X56450Y-49100D01*
X56450Y-49100D02*
X52650Y-45300D01*
X62300Y-37950D02*
X62300Y-33300D01*
X62300Y-33300D02*
X61050Y-32050D01*
X61050Y-32050D02*
X61050Y-31650D01*
X56950Y-44650D02*
X56450Y-44150D01*
X56950Y-51550D02*
X56950Y-44650D01*
X56800Y-51700D02*
X56950Y-51550D01*
X53200Y-51700D02*
X56800Y-51700D01*
X52550Y-51050D02*
X53200Y-51700D01*
X50300Y-44600D02*
X52050Y-44600D01*
X49700Y-45200D02*
X50300Y-44600D01*
X61850Y-40250D02*
X62350Y-40250D01*
X62875Y-40250D02*
X62950Y-40175D01*
X62350Y-40250D02*
X62875Y-40250D01*
G54D28*
X63550Y-40300D02*
X63425Y-40175D01*
X63550Y-41850D02*
X63550Y-40300D01*
X62950Y-40175D02*
X63425Y-40175D01*
X63550Y-50300D02*
X63550Y-41850D01*
X63550Y-50300D02*
X62800Y-51050D01*
G54D29*
X63550Y-42110D02*
X63550Y-41850D01*
X50950Y-48900D02*
X50950Y-50700D01*
X50900Y-48850D02*
X50950Y-48900D01*
G54D28*
X65050Y-34300D02*
X65050Y-31650D01*
X64100Y-35250D02*
X65050Y-34300D01*
X64050Y-48800D02*
X64100Y-35250D01*
G54D27*
X50500Y-35600D02*
X50100Y-35600D01*
X50100Y-35600D02*
X50100Y-35200D01*
X50100Y-35200D02*
X50500Y-35200D01*
X50500Y-35200D02*
X50500Y-35600D01*
X50500Y-35600D02*
X50500Y-36000D01*
X50500Y-36000D02*
X50100Y-36000D01*
X50100Y-36000D02*
X50100Y-35600D01*
X50100Y-35600D02*
X50100Y-36000D01*
X50100Y-36000D02*
X50500Y-36000D01*
X54700Y-30050D02*
X54700Y-31100D01*
X53050Y-32525D02*
X53050Y-32550D01*
X53050Y-32525D02*
X53050Y-31100D01*
G54D26*
X53600Y-31100D02*
X53050Y-31100D01*
X53600Y-31100D02*
X54700Y-31100D01*
X53050Y-31100D02*
X50300Y-31100D01*
X50300Y-31100D02*
X49750Y-31100D01*
X49750Y-31100D02*
X49850Y-31100D01*
X49850Y-31100D02*
X49350Y-31100D01*
X49350Y-31100D02*
X48600Y-31100D01*
X48600Y-31100D02*
X48650Y-31100D01*
X48650Y-31100D02*
X46450Y-31100D01*
X46450Y-31100D02*
X46500Y-31100D01*
X54700Y-31100D02*
X56650Y-31100D01*
X57250Y-31700D02*
X56650Y-31100D01*
X57250Y-31700D02*
X57250Y-32200D01*
X57250Y-32200D02*
X57250Y-34200D01*
X57250Y-34200D02*
X57250Y-35100D01*
X57250Y-35100D02*
X57250Y-35050D01*
X57250Y-35050D02*
X57250Y-35100D01*
X57250Y-35100D02*
X57250Y-35175D01*
X57250Y-35175D02*
X57250Y-36200D01*
X57250Y-36200D02*
X57250Y-38150D01*
X57250Y-38150D02*
X57250Y-38200D01*
X55900Y-39750D02*
X53425Y-39750D01*
X53425Y-39750D02*
X53450Y-39750D01*
X57250Y-38400D02*
X55900Y-39750D01*
X57250Y-38200D02*
X57250Y-38400D01*
X42900Y-37350D02*
X42900Y-36700D01*
X45300Y-39750D02*
X42900Y-37350D01*
X45300Y-39750D02*
X45300Y-39750D01*
G54D27*
X50650Y-40275D02*
X50650Y-40300D01*
X50650Y-39750D02*
X50650Y-40275D01*
X50650Y-38550D02*
X50650Y-39750D01*
G54D26*
X57250Y-38200D02*
X57150Y-38200D01*
X57150Y-38200D02*
X56850Y-38200D01*
X46450Y-31100D02*
X44450Y-31100D01*
X44450Y-31100D02*
X44125Y-31100D01*
X44125Y-31100D02*
X43350Y-31100D01*
X43350Y-31100D02*
X42250Y-32200D01*
X42250Y-32200D02*
X42250Y-34050D01*
X42250Y-34050D02*
X42900Y-34700D01*
G54D27*
X48600Y-31100D02*
X48600Y-30600D01*
X50300Y-31100D02*
X50300Y-31500D01*
X50300Y-31500D02*
X50375Y-31575D01*
G54D28*
X56800Y-40250D02*
X56300Y-39750D01*
X56300Y-39750D02*
X55950Y-39750D01*
X55950Y-39750D02*
X55950Y-39700D01*
G54D26*
X57900Y-32200D02*
X57250Y-32200D01*
X57900Y-34200D02*
X57250Y-34200D01*
X57900Y-36200D02*
X57250Y-36200D01*
X57250Y-38200D02*
X57900Y-38200D01*
G54D27*
X57250Y-35100D02*
X52625Y-35100D01*
X52625Y-35100D02*
X52100Y-35625D01*
X52100Y-35625D02*
X52110Y-35615D01*
X52110Y-35615D02*
X52110Y-35615D01*
X52110Y-35615D02*
X52125Y-35600D01*
G54D26*
X53425Y-39750D02*
X52875Y-40300D01*
X52875Y-40300D02*
X50650Y-40300D01*
X45850Y-40300D02*
X45300Y-39750D01*
X50650Y-40300D02*
X45850Y-40300D01*
G54D28*
X44125Y-30325D02*
X44125Y-31075D01*
X44125Y-31075D02*
X44125Y-31100D01*
G54D27*
X52100Y-35625D02*
X50525Y-35625D01*
X50525Y-35625D02*
X50500Y-35600D01*
G54D29*
X43900Y-47600D02*
X47850Y-47600D01*
X45879Y-50093D02*
X47257Y-50093D01*
X47257Y-50093D02*
X47850Y-49500D01*
X47850Y-49500D02*
X47850Y-47600D01*
X47850Y-47600D02*
X47850Y-46900D01*
X48050Y-46700D02*
X47850Y-46900D01*
X48050Y-46700D02*
X49600Y-46700D01*
G54D26*
X47000Y-36350D02*
X46150Y-35500D01*
X47300Y-37750D02*
X47000Y-37450D01*
X47000Y-37450D02*
X47000Y-36350D01*
X46150Y-35500D02*
X45700Y-35050D01*
X45200Y-35500D02*
X46150Y-35500D01*
X47300Y-37750D02*
X47300Y-38300D01*
X47300Y-38300D02*
X47750Y-38775D01*
X47850Y-38100D02*
X47500Y-37750D01*
X47500Y-37750D02*
X47300Y-37750D01*
G54D27*
X50000Y-39450D02*
X50000Y-39450D01*
X47750Y-39450D02*
X50000Y-39450D01*
X47750Y-39450D02*
X46600Y-38300D01*
G54D29*
X48650Y-47550D02*
X48650Y-49700D01*
X48800Y-47400D02*
X48650Y-47550D01*
X49350Y-49600D02*
X49350Y-50300D01*
X48800Y-50850D02*
X48100Y-50850D01*
X49350Y-50300D02*
X48800Y-50850D01*
X49350Y-47350D02*
X49350Y-49600D01*
X49250Y-47250D02*
X49350Y-47350D01*
X64950Y-51250D02*
X65750Y-50450D01*
X65750Y-50450D02*
X65750Y-49550D01*
X62050Y-51100D02*
X62250Y-51300D01*
X62250Y-51300D02*
X63450Y-51300D01*
X46500Y-46100D02*
X46850Y-46100D01*
X46000Y-46600D02*
X46500Y-46100D01*
G54D27*
X60075Y-52375D02*
X60075Y-51178D01*
X60075Y-50623D02*
X60075Y-33178D01*
X60075Y-32623D02*
X60075Y-31175D01*
X60155Y-52375D02*
X60155Y-52106D01*
X60155Y-51694D02*
X60155Y-51281D01*
X60155Y-50518D02*
X60155Y-50106D01*
X60155Y-49694D02*
X60155Y-49106D01*
X60155Y-48694D02*
X60155Y-48106D01*
X60155Y-47694D02*
X60155Y-47106D01*
X60155Y-46694D02*
X60155Y-46106D01*
X60155Y-45694D02*
X60155Y-45106D01*
X60155Y-44694D02*
X60155Y-44106D01*
X60155Y-43694D02*
X60155Y-43106D01*
X60155Y-42694D02*
X60155Y-42106D01*
X60155Y-41694D02*
X60155Y-41106D01*
X60155Y-40694D02*
X60155Y-40106D01*
X60155Y-39694D02*
X60155Y-39106D01*
X60155Y-38694D02*
X60155Y-38106D01*
X60155Y-37694D02*
X60155Y-37106D01*
X60155Y-36694D02*
X60155Y-36106D01*
X60155Y-35694D02*
X60155Y-35106D01*
X60155Y-34694D02*
X60155Y-34106D01*
X60155Y-33694D02*
X60155Y-33281D01*
X60155Y-32518D02*
X60155Y-31175D01*
X60235Y-52375D02*
X60235Y-52216D01*
X60235Y-51584D02*
X60235Y-51353D01*
X60235Y-50446D02*
X60235Y-50216D01*
X60235Y-49584D02*
X60235Y-49216D01*
X60235Y-48584D02*
X60235Y-48216D01*
X60235Y-47584D02*
X60235Y-47216D01*
X60235Y-46584D02*
X60235Y-46216D01*
X60235Y-45584D02*
X60235Y-45216D01*
X60235Y-44584D02*
X60235Y-44216D01*
X60235Y-43584D02*
X60235Y-43216D01*
X60235Y-42584D02*
X60235Y-42216D01*
X60235Y-41584D02*
X60235Y-41216D01*
X60235Y-40584D02*
X60235Y-40216D01*
X60235Y-39584D02*
X60235Y-39216D01*
X60235Y-38584D02*
X60235Y-38216D01*
X60235Y-37584D02*
X60235Y-37216D01*
X60235Y-36584D02*
X60235Y-36216D01*
X60235Y-35584D02*
X60235Y-35216D01*
X60235Y-34584D02*
X60235Y-34216D01*
X60235Y-33584D02*
X60235Y-33353D01*
X60235Y-32446D02*
X60235Y-31175D01*
X60315Y-52375D02*
X60315Y-52287D01*
X60315Y-51512D02*
X60315Y-51397D01*
X60315Y-50402D02*
X60315Y-50287D01*
X60315Y-49512D02*
X60315Y-49287D01*
X60315Y-48512D02*
X60315Y-48287D01*
X60315Y-47512D02*
X60315Y-47287D01*
X60315Y-46512D02*
X60315Y-46287D01*
X60315Y-45512D02*
X60315Y-45287D01*
X60315Y-44512D02*
X60315Y-44287D01*
X60315Y-43512D02*
X60315Y-43287D01*
X60315Y-42512D02*
X60315Y-42287D01*
X60315Y-41512D02*
X60315Y-41287D01*
X60315Y-40512D02*
X60315Y-40287D01*
X60315Y-39512D02*
X60315Y-39287D01*
X60315Y-38512D02*
X60315Y-38287D01*
X60315Y-37512D02*
X60315Y-37287D01*
X60315Y-36512D02*
X60315Y-36287D01*
X60315Y-35512D02*
X60315Y-35287D01*
X60315Y-34512D02*
X60315Y-34287D01*
X60315Y-33512D02*
X60315Y-33397D01*
X60315Y-32402D02*
X60315Y-31175D01*
X60395Y-52375D02*
X60395Y-52320D01*
X60395Y-51479D02*
X60395Y-51425D01*
X60395Y-50374D02*
X60395Y-50320D01*
X60395Y-49479D02*
X60395Y-49320D01*
X60395Y-48479D02*
X60395Y-48320D01*
X60395Y-47479D02*
X60395Y-47320D01*
X60395Y-46479D02*
X60395Y-46320D01*
X60395Y-45479D02*
X60395Y-45320D01*
X60395Y-44479D02*
X60395Y-44320D01*
X60395Y-43479D02*
X60395Y-43320D01*
X60395Y-42479D02*
X60395Y-42320D01*
X60395Y-41479D02*
X60395Y-41320D01*
X60395Y-40479D02*
X60395Y-40320D01*
X60395Y-39479D02*
X60395Y-39320D01*
X60395Y-38479D02*
X60395Y-38320D01*
X60395Y-37479D02*
X60395Y-37320D01*
X60395Y-36479D02*
X60395Y-36320D01*
X60395Y-35479D02*
X60395Y-35320D01*
X60395Y-34479D02*
X60395Y-34320D01*
X60395Y-33479D02*
X60395Y-33425D01*
X60395Y-32374D02*
X60395Y-31175D01*
X60475Y-52375D02*
X60475Y-52349D01*
X60475Y-51451D02*
X60475Y-51399D01*
X60475Y-50402D02*
X60475Y-50349D01*
X60475Y-49451D02*
X60475Y-49349D01*
X60475Y-48451D02*
X60475Y-48349D01*
X60475Y-47451D02*
X60475Y-47349D01*
X60475Y-46451D02*
X60475Y-46349D01*
X60475Y-45451D02*
X60475Y-45349D01*
X60475Y-44451D02*
X60475Y-44349D01*
X60475Y-43451D02*
X60475Y-43349D01*
X60475Y-42451D02*
X60475Y-42349D01*
X60475Y-41451D02*
X60475Y-41349D01*
X60475Y-40451D02*
X60475Y-40349D01*
X60475Y-39451D02*
X60475Y-39349D01*
X60475Y-38451D02*
X60475Y-38349D01*
X60475Y-37451D02*
X60475Y-37349D01*
X60475Y-36451D02*
X60475Y-36349D01*
X60475Y-35451D02*
X60475Y-35349D01*
X60475Y-34451D02*
X60475Y-34349D01*
X60475Y-33451D02*
X60475Y-33399D01*
X60475Y-32402D02*
X60475Y-31175D01*
X60555Y-52375D02*
X60555Y-52349D01*
X60555Y-51451D02*
X60555Y-51400D01*
X60555Y-50950D02*
X60555Y-50850D01*
X60555Y-50400D02*
X60555Y-50349D01*
X60555Y-49451D02*
X60555Y-49349D01*
X60555Y-48451D02*
X60555Y-48349D01*
X60555Y-47451D02*
X60555Y-47349D01*
X60555Y-46451D02*
X60555Y-46349D01*
X60555Y-45451D02*
X60555Y-45349D01*
X60555Y-44451D02*
X60555Y-44349D01*
X60555Y-43451D02*
X60555Y-43349D01*
X60555Y-42451D02*
X60555Y-42349D01*
X60555Y-41451D02*
X60555Y-41349D01*
X60555Y-40451D02*
X60555Y-40349D01*
X60555Y-39451D02*
X60555Y-39349D01*
X60555Y-38451D02*
X60555Y-38349D01*
X60555Y-37451D02*
X60555Y-37349D01*
X60555Y-36451D02*
X60555Y-36349D01*
X60555Y-35451D02*
X60555Y-35349D01*
X60555Y-34451D02*
X60555Y-34349D01*
X60555Y-33451D02*
X60555Y-33400D01*
X60555Y-32950D02*
X60555Y-31175D01*
X60635Y-52375D02*
X60635Y-52349D01*
X60635Y-51451D02*
X60635Y-51404D01*
X60635Y-50950D02*
X60635Y-50850D01*
X60635Y-50395D02*
X60635Y-50349D01*
X60635Y-49451D02*
X60635Y-49349D01*
X60635Y-48451D02*
X60635Y-48349D01*
X60635Y-47451D02*
X60635Y-47349D01*
X60635Y-46451D02*
X60635Y-46349D01*
X60635Y-45451D02*
X60635Y-45349D01*
X60635Y-44451D02*
X60635Y-44349D01*
X60635Y-43451D02*
X60635Y-43349D01*
X60635Y-42451D02*
X60635Y-42349D01*
X60635Y-41451D02*
X60635Y-41349D01*
X60635Y-40451D02*
X60635Y-40349D01*
X60635Y-39451D02*
X60635Y-39349D01*
X60635Y-38451D02*
X60635Y-38349D01*
X60635Y-37451D02*
X60635Y-37349D01*
X60635Y-36451D02*
X60635Y-36349D01*
X60635Y-35451D02*
X60635Y-35349D01*
X60635Y-34451D02*
X60635Y-34349D01*
X60635Y-33451D02*
X60635Y-33404D01*
X60635Y-32950D02*
X60635Y-32850D01*
X60635Y-32395D02*
X60635Y-31819D01*
X60635Y-31481D02*
X60635Y-31175D01*
X60715Y-52375D02*
X60715Y-52317D01*
X60715Y-51484D02*
X60715Y-51422D01*
X60715Y-50950D02*
X60715Y-50850D01*
X60715Y-50379D02*
X60715Y-50317D01*
X60715Y-49484D02*
X60715Y-49317D01*
X60715Y-48484D02*
X60715Y-48317D01*
X60715Y-47484D02*
X60715Y-47317D01*
X60715Y-46484D02*
X60715Y-46317D01*
X60715Y-45481D02*
X60715Y-45317D01*
X60715Y-44481D02*
X60715Y-44317D01*
X60715Y-43484D02*
X60715Y-43317D01*
X60715Y-42484D02*
X60715Y-42317D01*
X60715Y-41484D02*
X60715Y-41317D01*
X60715Y-40484D02*
X60715Y-40317D01*
X60715Y-39484D02*
X60715Y-39317D01*
X60715Y-38484D02*
X60715Y-38317D01*
X60715Y-37484D02*
X60715Y-37320D01*
X60715Y-36484D02*
X60715Y-36317D01*
X60715Y-35484D02*
X60715Y-35317D01*
X60715Y-34484D02*
X60715Y-34317D01*
X60715Y-33484D02*
X60715Y-33422D01*
X60715Y-32950D02*
X60715Y-32850D01*
X60715Y-32379D02*
X60715Y-31946D01*
X60715Y-31354D02*
X60715Y-31175D01*
X60795Y-52375D02*
X60795Y-52284D01*
X60795Y-51517D02*
X60795Y-51395D01*
X60795Y-50950D02*
X60795Y-50850D01*
X60795Y-50406D02*
X60795Y-50284D01*
X60795Y-49517D02*
X60795Y-49284D01*
X60795Y-48517D02*
X60795Y-48284D01*
X60795Y-47517D02*
X60795Y-47284D01*
X60795Y-46517D02*
X60795Y-46284D01*
X60795Y-45401D02*
X60795Y-45284D01*
X60795Y-44401D02*
X60795Y-44284D01*
X60795Y-43517D02*
X60795Y-43284D01*
X60795Y-42517D02*
X60795Y-42284D01*
X60795Y-41517D02*
X60795Y-41284D01*
X60795Y-40517D02*
X60795Y-40284D01*
X60795Y-39517D02*
X60795Y-39284D01*
X60795Y-38517D02*
X60795Y-38284D01*
X60795Y-37517D02*
X60795Y-37400D01*
X60795Y-36517D02*
X60795Y-36284D01*
X60795Y-35517D02*
X60795Y-35284D01*
X60795Y-34517D02*
X60795Y-34284D01*
X60795Y-33517D02*
X60795Y-33395D01*
X60795Y-32950D02*
X60795Y-32850D01*
X60795Y-32406D02*
X60795Y-32024D01*
X60795Y-31275D02*
X60795Y-31175D01*
X60875Y-52375D02*
X60875Y-52206D01*
X60875Y-51594D02*
X60875Y-51345D01*
X60875Y-50950D02*
X60875Y-50850D01*
X60875Y-50456D02*
X60875Y-50206D01*
X60875Y-49594D02*
X60875Y-49206D01*
X60875Y-48594D02*
X60875Y-48206D01*
X60875Y-47594D02*
X60875Y-47206D01*
X60875Y-46594D02*
X60875Y-46206D01*
X60875Y-45321D02*
X60875Y-45206D01*
X60875Y-44321D02*
X60875Y-44206D01*
X60875Y-43594D02*
X60875Y-43206D01*
X60875Y-42594D02*
X60875Y-42206D01*
X60875Y-41594D02*
X60875Y-41206D01*
X60875Y-40594D02*
X60875Y-40206D01*
X60875Y-39594D02*
X60875Y-39206D01*
X60875Y-38594D02*
X60875Y-38206D01*
X60875Y-37594D02*
X60875Y-37480D01*
X60875Y-36594D02*
X60875Y-36206D01*
X60875Y-35594D02*
X60875Y-35206D01*
X60875Y-34594D02*
X60875Y-34206D01*
X60875Y-33594D02*
X60875Y-33345D01*
X60875Y-32950D02*
X60875Y-32850D01*
X60875Y-32456D02*
X60875Y-32076D01*
X60875Y-31242D02*
X60875Y-31175D01*
X60955Y-52375D02*
X60955Y-52082D01*
X60955Y-51718D02*
X60955Y-51273D01*
X60955Y-50950D02*
X60955Y-50850D01*
X60955Y-50528D02*
X60955Y-50082D01*
X60955Y-49718D02*
X60955Y-49082D01*
X60955Y-48718D02*
X60955Y-48082D01*
X60955Y-47718D02*
X60955Y-47082D01*
X60955Y-46718D02*
X60955Y-46082D01*
X60955Y-45241D02*
X60955Y-45082D01*
X60955Y-44241D02*
X60955Y-44083D01*
X60955Y-43719D02*
X60955Y-43083D01*
X60955Y-42718D02*
X60955Y-42082D01*
X60955Y-41718D02*
X60955Y-41082D01*
X60955Y-40718D02*
X60955Y-40082D01*
X60955Y-39718D02*
X60955Y-39082D01*
X60955Y-38718D02*
X60955Y-38082D01*
X60955Y-37718D02*
X60955Y-37560D01*
X60955Y-36718D02*
X60955Y-36082D01*
X60955Y-35718D02*
X60955Y-35082D01*
X60955Y-34718D02*
X60955Y-34082D01*
X60955Y-33718D02*
X60955Y-33273D01*
X60955Y-32950D02*
X60955Y-32850D01*
X60955Y-32528D02*
X60955Y-32210D01*
X60955Y-31209D02*
X60955Y-31175D01*
X61035Y-52375D02*
X61035Y-51157D01*
X61035Y-50950D02*
X61035Y-50850D01*
X61035Y-50644D02*
X61035Y-45670D01*
X61035Y-45161D02*
X61035Y-44670D01*
X61035Y-42761D02*
X61035Y-40120D01*
X61035Y-37132D02*
X61035Y-33157D01*
X61035Y-32950D02*
X61035Y-32850D01*
X61035Y-32644D02*
X61035Y-32290D01*
X61035Y-31209D02*
X61035Y-31175D01*
X61115Y-52375D02*
X61115Y-45590D01*
X61115Y-45081D02*
X61115Y-44590D01*
X61115Y-42681D02*
X61115Y-40219D01*
X61115Y-37212D02*
X61115Y-32370D01*
X61115Y-31209D02*
X61115Y-31175D01*
X61195Y-52375D02*
X61195Y-45510D01*
X61195Y-42601D02*
X61195Y-40299D01*
X61195Y-37292D02*
X61195Y-32450D01*
X61195Y-31230D02*
X61195Y-31175D01*
X61275Y-52375D02*
X61275Y-45430D01*
X61275Y-42521D02*
X61275Y-40379D01*
X61275Y-37372D02*
X61275Y-32530D01*
X61275Y-31264D02*
X61275Y-31175D01*
X61355Y-52375D02*
X61355Y-45350D01*
X61355Y-42441D02*
X61355Y-40459D01*
X61355Y-37465D02*
X61355Y-32610D01*
X61355Y-32101D02*
X61355Y-31976D01*
X61355Y-31324D02*
X61355Y-31175D01*
X61435Y-52375D02*
X61435Y-45270D01*
X61435Y-42361D02*
X61435Y-40664D01*
X61435Y-40032D02*
X61435Y-32690D01*
X61435Y-32181D02*
X61435Y-31891D01*
X61435Y-31409D02*
X61435Y-31175D01*
X61515Y-52375D02*
X61515Y-45171D01*
X61515Y-42281D02*
X61515Y-40773D01*
X61515Y-40112D02*
X61515Y-32771D01*
X61515Y-32261D02*
X61515Y-31175D01*
X61595Y-52375D02*
X61595Y-43210D01*
X61595Y-42060D02*
X61595Y-41938D01*
X61595Y-41660D02*
X61595Y-40819D01*
X61595Y-40110D02*
X61595Y-32851D01*
X61595Y-32341D02*
X61595Y-31175D01*
X61675Y-52375D02*
X61675Y-43130D01*
X61675Y-41566D02*
X61675Y-40839D01*
X61675Y-40016D02*
X61675Y-39790D01*
X61675Y-39608D02*
X61675Y-32931D01*
X61675Y-32421D02*
X61675Y-31906D01*
X61675Y-31394D02*
X61675Y-31175D01*
X61755Y-52375D02*
X61755Y-43050D01*
X61755Y-41526D02*
X61755Y-40839D01*
X61755Y-39976D02*
X61755Y-39913D01*
X61755Y-39486D02*
X61755Y-33011D01*
X61755Y-32501D02*
X61755Y-31986D01*
X61755Y-31314D02*
X61755Y-31175D01*
X61835Y-52375D02*
X61835Y-51293D01*
X61835Y-50906D02*
X61835Y-42970D01*
X61835Y-41511D02*
X61835Y-40807D01*
X61835Y-39435D02*
X61835Y-33090D01*
X61835Y-32581D02*
X61835Y-32041D01*
X61835Y-31258D02*
X61835Y-31175D01*
X61915Y-52375D02*
X61915Y-51357D01*
X61915Y-50843D02*
X61915Y-42890D01*
X61915Y-41514D02*
X61915Y-41117D01*
X61915Y-40922D02*
X61915Y-40778D01*
X61915Y-39411D02*
X61915Y-33170D01*
X61915Y-32661D02*
X61915Y-32165D01*
X61915Y-31225D02*
X61915Y-31175D01*
X61995Y-52375D02*
X61995Y-51389D01*
X61995Y-50811D02*
X61995Y-42810D01*
X61995Y-41548D02*
X61995Y-41190D01*
X61995Y-40900D02*
X61995Y-40800D01*
X61995Y-39411D02*
X61995Y-33250D01*
X61995Y-32741D02*
X61995Y-32250D01*
X61995Y-31209D02*
X61995Y-31175D01*
X62075Y-52375D02*
X62075Y-51389D01*
X62075Y-50811D02*
X62075Y-42730D01*
X62075Y-41617D02*
X62075Y-41224D01*
X62075Y-40900D02*
X62075Y-40800D01*
X62075Y-39116D02*
X62075Y-38133D01*
X62075Y-37766D02*
X62075Y-33330D01*
X62075Y-32821D02*
X62075Y-32330D01*
X62075Y-31209D02*
X62075Y-31175D01*
X62155Y-52375D02*
X62155Y-51448D01*
X62155Y-50831D02*
X62155Y-42650D01*
X62155Y-41851D02*
X62155Y-41224D01*
X62155Y-40900D02*
X62155Y-40800D01*
X62155Y-39047D02*
X62155Y-38202D01*
X62155Y-32901D02*
X62155Y-32410D01*
X62155Y-31213D02*
X62155Y-31175D01*
X62235Y-52375D02*
X62235Y-51476D01*
X62235Y-50877D02*
X62235Y-42566D01*
X62235Y-41935D02*
X62235Y-41224D01*
X62235Y-40900D02*
X62235Y-40800D01*
X62235Y-39014D02*
X62235Y-38236D01*
X62235Y-32981D02*
X62235Y-32490D01*
X62235Y-31247D02*
X62235Y-31175D01*
X62315Y-52375D02*
X62315Y-51480D01*
X62315Y-50986D02*
X62315Y-40800D01*
X62315Y-39011D02*
X62315Y-38239D01*
X62315Y-33061D02*
X62315Y-32570D01*
X62315Y-32061D02*
X62315Y-32016D01*
X62315Y-31284D02*
X62315Y-31175D01*
X62395Y-52375D02*
X62395Y-51480D01*
X62395Y-51120D02*
X62395Y-40800D01*
X62395Y-38950D02*
X62395Y-38224D01*
X62395Y-33141D02*
X62395Y-32650D01*
X62395Y-32141D02*
X62395Y-31936D01*
X62395Y-31364D02*
X62395Y-31175D01*
X62475Y-52375D02*
X62475Y-51480D01*
X62475Y-51120D02*
X62475Y-41252D01*
X62475Y-38870D02*
X62475Y-38184D01*
X62475Y-32221D02*
X62475Y-31796D01*
X62475Y-31505D02*
X62475Y-31175D01*
X62555Y-52375D02*
X62555Y-51480D01*
X62555Y-50886D02*
X62555Y-41319D01*
X62555Y-39520D02*
X62555Y-39440D01*
X62555Y-38790D02*
X62555Y-38090D01*
X62555Y-32301D02*
X62555Y-31175D01*
X62635Y-52375D02*
X62635Y-51480D01*
X62635Y-50806D02*
X62635Y-41349D01*
X62635Y-39520D02*
X62635Y-39220D01*
X62635Y-38710D02*
X62635Y-37889D01*
X62635Y-32381D02*
X62635Y-31819D01*
X62635Y-31481D02*
X62635Y-31175D01*
X62715Y-52375D02*
X62715Y-51480D01*
X62715Y-50772D02*
X62715Y-41349D01*
X62715Y-39520D02*
X62715Y-39140D01*
X62715Y-38630D02*
X62715Y-37865D01*
X62715Y-32461D02*
X62715Y-31946D01*
X62715Y-31354D02*
X62715Y-31175D01*
X62795Y-52375D02*
X62795Y-51480D01*
X62795Y-50701D02*
X62795Y-41349D01*
X62795Y-39520D02*
X62795Y-39060D01*
X62795Y-38550D02*
X62795Y-37814D01*
X62795Y-37387D02*
X62795Y-32024D01*
X62795Y-31275D02*
X62795Y-31175D01*
X62875Y-52375D02*
X62875Y-51480D01*
X62875Y-50621D02*
X62875Y-41313D01*
X62875Y-39520D02*
X62875Y-38980D01*
X62875Y-31242D02*
X62875Y-31175D01*
X62955Y-52375D02*
X62955Y-51480D01*
X62955Y-50541D02*
X62955Y-40875D01*
X62955Y-39520D02*
X62955Y-38900D01*
X62955Y-31209D02*
X62955Y-31175D01*
X63035Y-52375D02*
X63035Y-51480D01*
X63035Y-50461D02*
X63035Y-41323D01*
X63035Y-39520D02*
X63035Y-38820D01*
X63035Y-31209D02*
X63035Y-31175D01*
X63115Y-52375D02*
X63115Y-51480D01*
X63115Y-51120D02*
X63115Y-51089D01*
X63115Y-50381D02*
X63115Y-41350D01*
X63115Y-39520D02*
X63115Y-38740D01*
X63115Y-31209D02*
X63115Y-31175D01*
X63195Y-52375D02*
X63195Y-51480D01*
X63195Y-51120D02*
X63195Y-51009D01*
X63195Y-50301D02*
X63195Y-41349D01*
X63195Y-39450D02*
X63195Y-38651D01*
X63195Y-31230D02*
X63195Y-31175D01*
X63275Y-52375D02*
X63275Y-51534D01*
X63275Y-51066D02*
X63275Y-50929D01*
X63275Y-50221D02*
X63275Y-42200D01*
X63275Y-42018D02*
X63275Y-41349D01*
X63275Y-39370D02*
X63275Y-32038D01*
X63275Y-31264D02*
X63275Y-31175D01*
X63355Y-52375D02*
X63355Y-51573D01*
X63355Y-51026D02*
X63355Y-50849D01*
X63355Y-39290D02*
X63355Y-31976D01*
X63355Y-31324D02*
X63355Y-31175D01*
X63435Y-52375D02*
X63435Y-51589D01*
X63435Y-51011D02*
X63435Y-50769D01*
X63435Y-39210D02*
X63435Y-31891D01*
X63435Y-31409D02*
X63435Y-31175D01*
X63515Y-52375D02*
X63515Y-51586D01*
X63515Y-51014D02*
X63515Y-50689D01*
X63515Y-39130D02*
X63515Y-31175D01*
X63595Y-52375D02*
X63595Y-51553D01*
X63595Y-51048D02*
X63595Y-50609D01*
X63595Y-31864D02*
X63595Y-31175D01*
X63675Y-52375D02*
X63675Y-51484D01*
X63675Y-51117D02*
X63675Y-50529D01*
X63675Y-31394D02*
X63675Y-31175D01*
X63755Y-52375D02*
X63755Y-50435D01*
X63755Y-31314D02*
X63755Y-31175D01*
X63835Y-52375D02*
X63835Y-48993D01*
X63835Y-31258D02*
X63835Y-31175D01*
X63915Y-52375D02*
X63915Y-49057D01*
X63915Y-31225D02*
X63915Y-31175D01*
X63995Y-52375D02*
X63995Y-49089D01*
X63995Y-35002D02*
X63995Y-32091D01*
X63995Y-31209D02*
X63995Y-31175D01*
X64075Y-52375D02*
X64075Y-49089D01*
X64075Y-34922D02*
X64075Y-32091D01*
X64075Y-31209D02*
X64075Y-31175D01*
X64155Y-52375D02*
X64155Y-49070D01*
X64155Y-34842D02*
X64155Y-32087D01*
X64155Y-31213D02*
X64155Y-31175D01*
X64235Y-52375D02*
X64235Y-49024D01*
X64235Y-34762D02*
X64235Y-32054D01*
X64235Y-31247D02*
X64235Y-31175D01*
X64315Y-52375D02*
X64315Y-48916D01*
X64315Y-48687D02*
X64315Y-44317D01*
X64315Y-34682D02*
X64315Y-32016D01*
X64315Y-31284D02*
X64315Y-31175D01*
X64395Y-52375D02*
X64395Y-35309D01*
X64395Y-34602D02*
X64395Y-31936D01*
X64395Y-31364D02*
X64395Y-31175D01*
X64475Y-52375D02*
X64475Y-45080D01*
X64475Y-40921D02*
X64475Y-35229D01*
X64475Y-34522D02*
X64475Y-31796D01*
X64475Y-31505D02*
X64475Y-31175D01*
X64555Y-52375D02*
X64555Y-45160D01*
X64555Y-40841D02*
X64555Y-35149D01*
X64555Y-34442D02*
X64555Y-31175D01*
X64635Y-52375D02*
X64635Y-45240D01*
X64635Y-40606D02*
X64635Y-35069D01*
X64635Y-34362D02*
X64635Y-31819D01*
X64635Y-31481D02*
X64635Y-31175D01*
X64715Y-52375D02*
X64715Y-51423D01*
X64715Y-51076D02*
X64715Y-45320D01*
X64715Y-40543D02*
X64715Y-34989D01*
X64715Y-34282D02*
X64715Y-31946D01*
X64715Y-31354D02*
X64715Y-31175D01*
X64795Y-52375D02*
X64795Y-51498D01*
X64795Y-51001D02*
X64795Y-45400D01*
X64795Y-44892D02*
X64795Y-44400D01*
X64795Y-40511D02*
X64795Y-34909D01*
X64795Y-34202D02*
X64795Y-32024D01*
X64795Y-31275D02*
X64795Y-31175D01*
X64875Y-52375D02*
X64875Y-51531D01*
X64875Y-50968D02*
X64875Y-45480D01*
X64875Y-44972D02*
X64875Y-44480D01*
X64875Y-40511D02*
X64875Y-34829D01*
X64875Y-31242D02*
X64875Y-31175D01*
X64955Y-52375D02*
X64955Y-51539D01*
X64955Y-50961D02*
X64955Y-45560D01*
X64955Y-45052D02*
X64955Y-44560D01*
X64955Y-44052D02*
X64955Y-43560D01*
X64955Y-40531D02*
X64955Y-34749D01*
X64955Y-31209D02*
X64955Y-31175D01*
X65035Y-52375D02*
X65035Y-51528D01*
X65035Y-50910D02*
X65035Y-45640D01*
X65035Y-45132D02*
X65035Y-44640D01*
X65035Y-44132D02*
X65035Y-43640D01*
X65035Y-40557D02*
X65035Y-34669D01*
X65035Y-31209D02*
X65035Y-31175D01*
X65115Y-52375D02*
X65115Y-51494D01*
X65115Y-50830D02*
X65115Y-45720D01*
X65115Y-45212D02*
X65115Y-44720D01*
X65115Y-44212D02*
X65115Y-43720D01*
X65115Y-40522D02*
X65115Y-34589D01*
X65115Y-31209D02*
X65115Y-31175D01*
X65195Y-52375D02*
X65195Y-51414D01*
X65195Y-50750D02*
X65195Y-45800D01*
X65195Y-45292D02*
X65195Y-44800D01*
X65195Y-44292D02*
X65195Y-43800D01*
X65195Y-43292D02*
X65195Y-41789D01*
X65195Y-40511D02*
X65195Y-34509D01*
X65195Y-31230D02*
X65195Y-31175D01*
X65275Y-52375D02*
X65275Y-51180D01*
X65275Y-50670D02*
X65275Y-45880D01*
X65275Y-45372D02*
X65275Y-44880D01*
X65275Y-44372D02*
X65275Y-43880D01*
X65275Y-43372D02*
X65275Y-41829D01*
X65275Y-40519D02*
X65275Y-34405D01*
X65275Y-31264D02*
X65275Y-31175D01*
X65355Y-52375D02*
X65355Y-51100D01*
X65355Y-50590D02*
X65355Y-45960D01*
X65355Y-45452D02*
X65355Y-44960D01*
X65355Y-44452D02*
X65355Y-43960D01*
X65355Y-43452D02*
X65355Y-41909D01*
X65355Y-40552D02*
X65355Y-31976D01*
X65355Y-31324D02*
X65355Y-31175D01*
X65435Y-52375D02*
X65435Y-51020D01*
X65435Y-50510D02*
X65435Y-46040D01*
X65435Y-45532D02*
X65435Y-45040D01*
X65435Y-44532D02*
X65435Y-44040D01*
X65435Y-43532D02*
X65435Y-41989D01*
X65435Y-41328D02*
X65435Y-41324D01*
X65435Y-40978D02*
X65435Y-40974D01*
X65435Y-40627D02*
X65435Y-31891D01*
X65435Y-31409D02*
X65435Y-31175D01*
X65515Y-52375D02*
X65515Y-50940D01*
X65515Y-50430D02*
X65515Y-49723D01*
X65515Y-49376D02*
X65515Y-46120D01*
X65515Y-45612D02*
X65515Y-45120D01*
X65515Y-44612D02*
X65515Y-44120D01*
X65515Y-43612D02*
X65515Y-42069D01*
X65515Y-41562D02*
X65515Y-31175D01*
X65595Y-52375D02*
X65595Y-50860D01*
X65595Y-49301D02*
X65595Y-46200D01*
X65595Y-45692D02*
X65595Y-45200D01*
X65595Y-44692D02*
X65595Y-44200D01*
X65595Y-43692D02*
X65595Y-42149D01*
X65595Y-41642D02*
X65595Y-31963D01*
X65595Y-31336D02*
X65595Y-31175D01*
X65675Y-52375D02*
X65675Y-50780D01*
X65675Y-49268D02*
X65675Y-46280D01*
X65675Y-45772D02*
X65675Y-45280D01*
X65675Y-44772D02*
X65675Y-44280D01*
X65675Y-43772D02*
X65675Y-42229D01*
X65675Y-41722D02*
X65675Y-32052D01*
X65675Y-31247D02*
X65675Y-31175D01*
X65755Y-52375D02*
X65755Y-50700D01*
X65755Y-49261D02*
X65755Y-46360D01*
X65755Y-45852D02*
X65755Y-45360D01*
X65755Y-44852D02*
X65755Y-44360D01*
X65755Y-43852D02*
X65755Y-42309D01*
X65755Y-41802D02*
X65755Y-32116D01*
X65755Y-31183D02*
X65755Y-31175D01*
X65835Y-52375D02*
X65835Y-50620D01*
X65835Y-49273D02*
X65835Y-46440D01*
X65835Y-45932D02*
X65835Y-45440D01*
X65835Y-44932D02*
X65835Y-44440D01*
X65835Y-43932D02*
X65835Y-42389D01*
X65835Y-41882D02*
X65835Y-32154D01*
X65915Y-52375D02*
X65915Y-50521D01*
X65915Y-49307D02*
X65915Y-46520D01*
X65915Y-46012D02*
X65915Y-45520D01*
X65915Y-45012D02*
X65915Y-44520D01*
X65915Y-44012D02*
X65915Y-43515D01*
X65915Y-41962D02*
X65915Y-32191D01*
X65995Y-52375D02*
X65995Y-49714D01*
X65995Y-49387D02*
X65995Y-46600D01*
X65995Y-46092D02*
X65995Y-45600D01*
X65995Y-45092D02*
X65995Y-44600D01*
X65995Y-44092D02*
X65995Y-43599D01*
X65995Y-42042D02*
X65995Y-32148D01*
X66075Y-52375D02*
X66075Y-51177D01*
X66075Y-50950D02*
X66075Y-50850D01*
X66075Y-50622D02*
X66075Y-46680D01*
X66075Y-46172D02*
X66075Y-45680D01*
X66075Y-45172D02*
X66075Y-44680D01*
X66075Y-44172D02*
X66075Y-43679D01*
X66075Y-42122D02*
X66075Y-33177D01*
X66075Y-32950D02*
X66075Y-32850D01*
X66075Y-32622D02*
X66075Y-31600D01*
X66155Y-52375D02*
X66155Y-52106D01*
X66155Y-51694D02*
X66155Y-51281D01*
X66155Y-50950D02*
X66155Y-50850D01*
X66155Y-50518D02*
X66155Y-50106D01*
X66155Y-49694D02*
X66155Y-49106D01*
X66155Y-48694D02*
X66155Y-48106D01*
X66155Y-47694D02*
X66155Y-47106D01*
X66155Y-46252D02*
X66155Y-46106D01*
X66155Y-45252D02*
X66155Y-45106D01*
X66155Y-44252D02*
X66155Y-44106D01*
X66155Y-42202D02*
X66155Y-42106D01*
X66155Y-41694D02*
X66155Y-41106D01*
X66155Y-40694D02*
X66155Y-40106D01*
X66155Y-39694D02*
X66155Y-39106D01*
X66155Y-38694D02*
X66155Y-38106D01*
X66155Y-37694D02*
X66155Y-37106D01*
X66155Y-36694D02*
X66155Y-36106D01*
X66155Y-35694D02*
X66155Y-35106D01*
X66155Y-34694D02*
X66155Y-34106D01*
X66155Y-33694D02*
X66155Y-33281D01*
X66155Y-32950D02*
X66155Y-32850D01*
X66155Y-32518D02*
X66155Y-32174D01*
X66155Y-31700D02*
X66155Y-31600D01*
X66235Y-52375D02*
X66235Y-52216D01*
X66235Y-51584D02*
X66235Y-51353D01*
X66235Y-50950D02*
X66235Y-50850D01*
X66235Y-50446D02*
X66235Y-50216D01*
X66235Y-49584D02*
X66235Y-49216D01*
X66235Y-48584D02*
X66235Y-48216D01*
X66235Y-47584D02*
X66235Y-47216D01*
X66235Y-46332D02*
X66235Y-46216D01*
X66235Y-45332D02*
X66235Y-45216D01*
X66235Y-44332D02*
X66235Y-44216D01*
X66235Y-43332D02*
X66235Y-43216D01*
X66235Y-42584D02*
X66235Y-42216D01*
X66235Y-41584D02*
X66235Y-41216D01*
X66235Y-40584D02*
X66235Y-40216D01*
X66235Y-39584D02*
X66235Y-39216D01*
X66235Y-38584D02*
X66235Y-38216D01*
X66235Y-37584D02*
X66235Y-37216D01*
X66235Y-36584D02*
X66235Y-36216D01*
X66235Y-35584D02*
X66235Y-35216D01*
X66235Y-34584D02*
X66235Y-34216D01*
X66235Y-33584D02*
X66235Y-33353D01*
X66235Y-32950D02*
X66235Y-32850D01*
X66235Y-32446D02*
X66235Y-32170D01*
X66235Y-31700D02*
X66235Y-31600D01*
X66315Y-52375D02*
X66315Y-52287D01*
X66315Y-51512D02*
X66315Y-51397D01*
X66315Y-50950D02*
X66315Y-50850D01*
X66315Y-50402D02*
X66315Y-50287D01*
X66315Y-49512D02*
X66315Y-49287D01*
X66315Y-48512D02*
X66315Y-48287D01*
X66315Y-47512D02*
X66315Y-47287D01*
X66315Y-46412D02*
X66315Y-46287D01*
X66315Y-45412D02*
X66315Y-45287D01*
X66315Y-44412D02*
X66315Y-44287D01*
X66315Y-43412D02*
X66315Y-43287D01*
X66315Y-42512D02*
X66315Y-42287D01*
X66315Y-41512D02*
X66315Y-41287D01*
X66315Y-40512D02*
X66315Y-40287D01*
X66315Y-39512D02*
X66315Y-39287D01*
X66315Y-38512D02*
X66315Y-38287D01*
X66315Y-37512D02*
X66315Y-37287D01*
X66315Y-36512D02*
X66315Y-36287D01*
X66315Y-35512D02*
X66315Y-35287D01*
X66315Y-34512D02*
X66315Y-34287D01*
X66315Y-33512D02*
X66315Y-33397D01*
X66315Y-32950D02*
X66315Y-32850D01*
X66315Y-32402D02*
X66315Y-32131D01*
X66315Y-31700D02*
X66315Y-31600D01*
X66395Y-52375D02*
X66395Y-52320D01*
X66395Y-51479D02*
X66395Y-51425D01*
X66395Y-50950D02*
X66395Y-50850D01*
X66395Y-50374D02*
X66395Y-50320D01*
X66395Y-49479D02*
X66395Y-49320D01*
X66395Y-48479D02*
X66395Y-48320D01*
X66395Y-47479D02*
X66395Y-47320D01*
X66395Y-46479D02*
X66395Y-46320D01*
X66395Y-45479D02*
X66395Y-45320D01*
X66395Y-44479D02*
X66395Y-44320D01*
X66395Y-43479D02*
X66395Y-43320D01*
X66395Y-42479D02*
X66395Y-42320D01*
X66395Y-41479D02*
X66395Y-41320D01*
X66395Y-40479D02*
X66395Y-40320D01*
X66395Y-39479D02*
X66395Y-39320D01*
X66395Y-38479D02*
X66395Y-38320D01*
X66395Y-37479D02*
X66395Y-37320D01*
X66395Y-36479D02*
X66395Y-36320D01*
X66395Y-35479D02*
X66395Y-35320D01*
X66395Y-34479D02*
X66395Y-34320D01*
X66395Y-33479D02*
X66395Y-33425D01*
X66395Y-32950D02*
X66395Y-32850D01*
X66395Y-32374D02*
X66395Y-32086D01*
X66395Y-31700D02*
X66395Y-31600D01*
X66395Y-31215D02*
X66395Y-31175D01*
X66475Y-52375D02*
X66475Y-52349D01*
X66475Y-51451D02*
X66475Y-51399D01*
X66475Y-50950D02*
X66475Y-50850D01*
X66475Y-50402D02*
X66475Y-50349D01*
X66475Y-49451D02*
X66475Y-49349D01*
X66475Y-48451D02*
X66475Y-48349D01*
X66475Y-47451D02*
X66475Y-47349D01*
X66475Y-46451D02*
X66475Y-46349D01*
X66475Y-45451D02*
X66475Y-45349D01*
X66475Y-44451D02*
X66475Y-44349D01*
X66475Y-43451D02*
X66475Y-43349D01*
X66475Y-42451D02*
X66475Y-42349D01*
X66475Y-41451D02*
X66475Y-41349D01*
X66475Y-40451D02*
X66475Y-40349D01*
X66475Y-39451D02*
X66475Y-39349D01*
X66475Y-38451D02*
X66475Y-38349D01*
X66475Y-37451D02*
X66475Y-37349D01*
X66475Y-36451D02*
X66475Y-36349D01*
X66475Y-35451D02*
X66475Y-35349D01*
X66475Y-34451D02*
X66475Y-34349D01*
X66475Y-33451D02*
X66475Y-33399D01*
X66475Y-32950D02*
X66475Y-32850D01*
X66475Y-32402D02*
X66475Y-31998D01*
X66475Y-31700D02*
X66475Y-31600D01*
X66475Y-31303D02*
X66475Y-31175D01*
X66555Y-52375D02*
X66555Y-52349D01*
X66555Y-51451D02*
X66555Y-51400D01*
X66555Y-50950D02*
X66555Y-50850D01*
X66555Y-50400D02*
X66555Y-50349D01*
X66555Y-49451D02*
X66555Y-49349D01*
X66555Y-48451D02*
X66555Y-48349D01*
X66555Y-47451D02*
X66555Y-47349D01*
X66555Y-46451D02*
X66555Y-46349D01*
X66555Y-45451D02*
X66555Y-45349D01*
X66555Y-44451D02*
X66555Y-44349D01*
X66555Y-43451D02*
X66555Y-43349D01*
X66555Y-42451D02*
X66555Y-42349D01*
X66555Y-41451D02*
X66555Y-41349D01*
X66555Y-40451D02*
X66555Y-40349D01*
X66555Y-39451D02*
X66555Y-39349D01*
X66555Y-38451D02*
X66555Y-38349D01*
X66555Y-37451D02*
X66555Y-37349D01*
X66555Y-36451D02*
X66555Y-36349D01*
X66555Y-35451D02*
X66555Y-35349D01*
X66555Y-34451D02*
X66555Y-34349D01*
X66555Y-33451D02*
X66555Y-33400D01*
X66555Y-32950D02*
X66555Y-31864D01*
X66555Y-31737D02*
X66555Y-31564D01*
X66555Y-31437D02*
X66555Y-31175D01*
X66635Y-52375D02*
X66635Y-52349D01*
X66635Y-51451D02*
X66635Y-51404D01*
X66635Y-50395D02*
X66635Y-50349D01*
X66635Y-49451D02*
X66635Y-49349D01*
X66635Y-48451D02*
X66635Y-48349D01*
X66635Y-47451D02*
X66635Y-47349D01*
X66635Y-46451D02*
X66635Y-46349D01*
X66635Y-45451D02*
X66635Y-45349D01*
X66635Y-44451D02*
X66635Y-44349D01*
X66635Y-43451D02*
X66635Y-43349D01*
X66635Y-42451D02*
X66635Y-42349D01*
X66635Y-41451D02*
X66635Y-41349D01*
X66635Y-40451D02*
X66635Y-40349D01*
X66635Y-39451D02*
X66635Y-39349D01*
X66635Y-38451D02*
X66635Y-38349D01*
X66635Y-37451D02*
X66635Y-37349D01*
X66635Y-36451D02*
X66635Y-36349D01*
X66635Y-35451D02*
X66635Y-35349D01*
X66635Y-34451D02*
X66635Y-34349D01*
X66635Y-33451D02*
X66635Y-33404D01*
X66635Y-32395D02*
X66635Y-31175D01*
X66715Y-52375D02*
X66715Y-52317D01*
X66715Y-51484D02*
X66715Y-51422D01*
X66715Y-50379D02*
X66715Y-50317D01*
X66715Y-49484D02*
X66715Y-49317D01*
X66715Y-48484D02*
X66715Y-48317D01*
X66715Y-47484D02*
X66715Y-47317D01*
X66715Y-46484D02*
X66715Y-46317D01*
X66715Y-45484D02*
X66715Y-45317D01*
X66715Y-44484D02*
X66715Y-44317D01*
X66715Y-43484D02*
X66715Y-43317D01*
X66715Y-42484D02*
X66715Y-42317D01*
X66715Y-41484D02*
X66715Y-41317D01*
X66715Y-40484D02*
X66715Y-40317D01*
X66715Y-39484D02*
X66715Y-39317D01*
X66715Y-38484D02*
X66715Y-38317D01*
X66715Y-37484D02*
X66715Y-37317D01*
X66715Y-36484D02*
X66715Y-36317D01*
X66715Y-35484D02*
X66715Y-35317D01*
X66715Y-34484D02*
X66715Y-34317D01*
X66715Y-33484D02*
X66715Y-33422D01*
X66715Y-32379D02*
X66715Y-31175D01*
X66795Y-52375D02*
X66795Y-52284D01*
X66795Y-51517D02*
X66795Y-51395D01*
X66795Y-50406D02*
X66795Y-50284D01*
X66795Y-49517D02*
X66795Y-49284D01*
X66795Y-48517D02*
X66795Y-48284D01*
X66795Y-47517D02*
X66795Y-47284D01*
X66795Y-46517D02*
X66795Y-46284D01*
X66795Y-45517D02*
X66795Y-45284D01*
X66795Y-44517D02*
X66795Y-44284D01*
X66795Y-43517D02*
X66795Y-43284D01*
X66795Y-42517D02*
X66795Y-42284D01*
X66795Y-41517D02*
X66795Y-41284D01*
X66795Y-40517D02*
X66795Y-40284D01*
X66795Y-39517D02*
X66795Y-39284D01*
X66795Y-38517D02*
X66795Y-38284D01*
X66795Y-37517D02*
X66795Y-37284D01*
X66795Y-36517D02*
X66795Y-36284D01*
X66795Y-35517D02*
X66795Y-35284D01*
X66795Y-34517D02*
X66795Y-34284D01*
X66795Y-33517D02*
X66795Y-33395D01*
X66795Y-32406D02*
X66795Y-31175D01*
X66875Y-52375D02*
X66875Y-52206D01*
X66875Y-51594D02*
X66875Y-51345D01*
X66875Y-50456D02*
X66875Y-50206D01*
X66875Y-49594D02*
X66875Y-49206D01*
X66875Y-48594D02*
X66875Y-48206D01*
X66875Y-47594D02*
X66875Y-47206D01*
X66875Y-46594D02*
X66875Y-46206D01*
X66875Y-45594D02*
X66875Y-45206D01*
X66875Y-44594D02*
X66875Y-44206D01*
X66875Y-43594D02*
X66875Y-43206D01*
X66875Y-42594D02*
X66875Y-42206D01*
X66875Y-41594D02*
X66875Y-41206D01*
X66875Y-40594D02*
X66875Y-40206D01*
X66875Y-39594D02*
X66875Y-39206D01*
X66875Y-38594D02*
X66875Y-38206D01*
X66875Y-37594D02*
X66875Y-37206D01*
X66875Y-36594D02*
X66875Y-36206D01*
X66875Y-35594D02*
X66875Y-35206D01*
X66875Y-34594D02*
X66875Y-34206D01*
X66875Y-33594D02*
X66875Y-33345D01*
X66875Y-32456D02*
X66875Y-31175D01*
X66955Y-52375D02*
X66955Y-52082D01*
X66955Y-51718D02*
X66955Y-51273D01*
X66955Y-50528D02*
X66955Y-50082D01*
X66955Y-49718D02*
X66955Y-49082D01*
X66955Y-48718D02*
X66955Y-48082D01*
X66955Y-47718D02*
X66955Y-47082D01*
X66955Y-46718D02*
X66955Y-46082D01*
X66955Y-45718D02*
X66955Y-45082D01*
X66955Y-44718D02*
X66955Y-44082D01*
X66955Y-43718D02*
X66955Y-43082D01*
X66955Y-42718D02*
X66955Y-42082D01*
X66955Y-41718D02*
X66955Y-41082D01*
X66955Y-40718D02*
X66955Y-40082D01*
X66955Y-39718D02*
X66955Y-39082D01*
X66955Y-38718D02*
X66955Y-38082D01*
X66955Y-37718D02*
X66955Y-37082D01*
X66955Y-36718D02*
X66955Y-36082D01*
X66955Y-35718D02*
X66955Y-35082D01*
X66955Y-34718D02*
X66955Y-34082D01*
X66955Y-33718D02*
X66955Y-33273D01*
X66955Y-32528D02*
X66955Y-31175D01*
X67025Y-31175D02*
X66327Y-31175D01*
X66384Y-31202D01*
X66530Y-31364D01*
X66582Y-31515D01*
X66535Y-31600D01*
X66100Y-31600D01*
X66000Y-31600D01*
X66000Y-31700D01*
X66000Y-31738D01*
X66000Y-32145D01*
X65913Y-32192D01*
X65716Y-32098D01*
X65570Y-31936D01*
X65518Y-31785D01*
X65543Y-31738D01*
X65499Y-31738D01*
X65431Y-31900D01*
X65307Y-32024D01*
X65300Y-32027D01*
X65300Y-34300D01*
X65281Y-34396D01*
X65227Y-34477D01*
X65224Y-34479D01*
X64346Y-35358D01*
X64300Y-48651D01*
X64339Y-48743D01*
X64339Y-48858D01*
X64295Y-48964D01*
X64213Y-49045D01*
X64107Y-49089D01*
X63992Y-49089D01*
X63886Y-49045D01*
X63805Y-48963D01*
X63800Y-48951D01*
X63800Y-50300D01*
X63781Y-50396D01*
X63727Y-50477D01*
X63724Y-50479D01*
X63084Y-51120D01*
X63221Y-51120D01*
X63287Y-51055D01*
X63393Y-51011D01*
X63508Y-51011D01*
X63614Y-51055D01*
X63695Y-51137D01*
X63739Y-51243D01*
X63739Y-51358D01*
X63695Y-51464D01*
X63613Y-51545D01*
X63507Y-51589D01*
X63392Y-51589D01*
X63286Y-51545D01*
X63221Y-51480D01*
X62250Y-51480D01*
X62181Y-51466D01*
X62123Y-51427D01*
X62084Y-51389D01*
X61992Y-51389D01*
X61886Y-51345D01*
X61805Y-51263D01*
X61761Y-51157D01*
X61761Y-51042D01*
X61763Y-51037D01*
X61805Y-50936D01*
X61887Y-50855D01*
X61993Y-50811D01*
X62108Y-50811D01*
X62214Y-50855D01*
X62295Y-50937D01*
X62339Y-51043D01*
X62339Y-51120D01*
X62516Y-51120D01*
X62511Y-51107D01*
X62511Y-50992D01*
X62555Y-50886D01*
X62637Y-50805D01*
X62729Y-50767D01*
X62733Y-50763D01*
X63300Y-50197D01*
X63300Y-49996D01*
X60991Y-49996D01*
X60923Y-50158D01*
X60799Y-50282D01*
X60637Y-50349D01*
X60462Y-50349D01*
X60300Y-50281D01*
X60176Y-50157D01*
X60109Y-49995D01*
X60109Y-49804D01*
X60177Y-49642D01*
X60301Y-49518D01*
X60463Y-49451D01*
X60638Y-49451D01*
X60800Y-49519D01*
X60924Y-49643D01*
X60991Y-49805D01*
X60991Y-49996D01*
X63300Y-49996D01*
X63300Y-48996D01*
X60991Y-48996D01*
X60923Y-49158D01*
X60799Y-49282D01*
X60637Y-49349D01*
X60462Y-49349D01*
X60300Y-49281D01*
X60176Y-49157D01*
X60109Y-48995D01*
X60109Y-48804D01*
X60177Y-48642D01*
X60301Y-48518D01*
X60463Y-48451D01*
X60638Y-48451D01*
X60800Y-48519D01*
X60924Y-48643D01*
X60991Y-48805D01*
X60991Y-48996D01*
X63300Y-48996D01*
X63300Y-47996D01*
X60991Y-47996D01*
X60923Y-48158D01*
X60799Y-48282D01*
X60637Y-48349D01*
X60462Y-48349D01*
X60300Y-48281D01*
X60176Y-48157D01*
X60109Y-47995D01*
X60109Y-47804D01*
X60177Y-47642D01*
X60301Y-47518D01*
X60463Y-47451D01*
X60638Y-47451D01*
X60800Y-47519D01*
X60924Y-47643D01*
X60991Y-47805D01*
X60991Y-47996D01*
X63300Y-47996D01*
X63300Y-46996D01*
X60991Y-46996D01*
X60923Y-47158D01*
X60799Y-47282D01*
X60637Y-47349D01*
X60462Y-47349D01*
X60300Y-47281D01*
X60176Y-47157D01*
X60109Y-46995D01*
X60109Y-46804D01*
X60177Y-46642D01*
X60301Y-46518D01*
X60463Y-46451D01*
X60638Y-46451D01*
X60800Y-46519D01*
X60924Y-46643D01*
X60991Y-46805D01*
X60991Y-46996D01*
X63300Y-46996D01*
X63300Y-42450D01*
X62280Y-42450D01*
X62266Y-42519D01*
X62227Y-42578D01*
X61530Y-43275D01*
X61530Y-45100D01*
X61516Y-45169D01*
X61477Y-45228D01*
X60964Y-45741D01*
X60991Y-45805D01*
X60991Y-45996D01*
X60923Y-46158D01*
X60799Y-46282D01*
X60637Y-46349D01*
X60462Y-46349D01*
X60300Y-46281D01*
X60176Y-46157D01*
X60109Y-45995D01*
X60109Y-45804D01*
X60177Y-45642D01*
X60301Y-45518D01*
X60463Y-45451D01*
X60638Y-45451D01*
X60713Y-45483D01*
X61170Y-45026D01*
X61170Y-44535D01*
X60964Y-44741D01*
X60991Y-44805D01*
X60991Y-44996D01*
X60923Y-45158D01*
X60799Y-45282D01*
X60637Y-45349D01*
X60462Y-45349D01*
X60300Y-45281D01*
X60176Y-45157D01*
X60109Y-44995D01*
X60109Y-44804D01*
X60177Y-44642D01*
X60301Y-44518D01*
X60463Y-44451D01*
X60638Y-44451D01*
X60713Y-44483D01*
X60970Y-44226D01*
X60970Y-44047D01*
X60923Y-44158D01*
X60799Y-44282D01*
X60637Y-44349D01*
X60462Y-44349D01*
X60300Y-44281D01*
X60176Y-44157D01*
X60109Y-43995D01*
X60109Y-43804D01*
X60177Y-43642D01*
X60301Y-43518D01*
X60463Y-43451D01*
X60638Y-43451D01*
X60800Y-43519D01*
X60924Y-43643D01*
X60970Y-43755D01*
X60970Y-43047D01*
X60923Y-43158D01*
X60799Y-43282D01*
X60637Y-43349D01*
X60462Y-43349D01*
X60300Y-43281D01*
X60176Y-43157D01*
X60109Y-42995D01*
X60109Y-42804D01*
X60177Y-42642D01*
X60301Y-42518D01*
X60463Y-42451D01*
X60638Y-42451D01*
X60800Y-42519D01*
X60924Y-42643D01*
X60991Y-42805D01*
X60991Y-42821D01*
X61023Y-42773D01*
X61561Y-42235D01*
X61561Y-42142D01*
X61605Y-42036D01*
X61641Y-42000D01*
X61637Y-41996D01*
X60991Y-41996D01*
X60923Y-42158D01*
X60799Y-42282D01*
X60637Y-42349D01*
X60462Y-42349D01*
X60300Y-42281D01*
X60176Y-42157D01*
X60109Y-41995D01*
X60109Y-41804D01*
X60177Y-41642D01*
X60301Y-41518D01*
X60463Y-41451D01*
X60638Y-41451D01*
X60800Y-41519D01*
X60924Y-41643D01*
X60991Y-41805D01*
X60991Y-41996D01*
X61637Y-41996D01*
X61605Y-41963D01*
X61561Y-41857D01*
X61561Y-41742D01*
X61605Y-41636D01*
X61687Y-41555D01*
X61793Y-41511D01*
X61908Y-41511D01*
X62014Y-41555D01*
X62095Y-41637D01*
X62139Y-41743D01*
X62139Y-41835D01*
X62227Y-41923D01*
X62266Y-41981D01*
X62280Y-42050D01*
X62280Y-42450D01*
X63300Y-42450D01*
X63300Y-42261D01*
X63261Y-42167D01*
X63261Y-42052D01*
X63300Y-41959D01*
X63300Y-41339D01*
X63275Y-41349D01*
X63176Y-41349D01*
X63062Y-41350D01*
X63000Y-41288D01*
X63000Y-40996D01*
X63000Y-40975D01*
X63000Y-40875D01*
X62900Y-40875D01*
X62900Y-40975D01*
X62900Y-40996D01*
X62900Y-41288D01*
X62838Y-41350D01*
X62724Y-41349D01*
X62625Y-41349D01*
X62534Y-41311D01*
X62464Y-41241D01*
X62454Y-41218D01*
X62400Y-41163D01*
X62400Y-40996D01*
X62300Y-40996D01*
X62300Y-41163D01*
X62238Y-41225D01*
X62174Y-41224D01*
X62075Y-41224D01*
X61984Y-41186D01*
X61914Y-41116D01*
X61876Y-41024D01*
X61875Y-40996D01*
X60991Y-40996D01*
X60923Y-41158D01*
X60799Y-41282D01*
X60637Y-41349D01*
X60462Y-41349D01*
X60300Y-41281D01*
X60176Y-41157D01*
X60109Y-40995D01*
X60109Y-40804D01*
X60177Y-40642D01*
X60301Y-40518D01*
X60463Y-40451D01*
X60638Y-40451D01*
X60800Y-40519D01*
X60924Y-40643D01*
X60991Y-40805D01*
X60991Y-40996D01*
X61875Y-40996D01*
X61875Y-40962D01*
X61937Y-40900D01*
X62300Y-40900D01*
X62300Y-40996D01*
X62400Y-40996D01*
X62400Y-40900D01*
X62400Y-40800D01*
X62300Y-40800D01*
X61937Y-40800D01*
X61897Y-40761D01*
X61863Y-40795D01*
X61757Y-40839D01*
X61642Y-40839D01*
X61536Y-40795D01*
X61455Y-40713D01*
X61411Y-40607D01*
X61411Y-40515D01*
X61073Y-40177D01*
X61034Y-40119D01*
X61020Y-40050D01*
X61020Y-39996D01*
X60991Y-39996D01*
X60923Y-40158D01*
X60799Y-40282D01*
X60637Y-40349D01*
X60462Y-40349D01*
X60300Y-40281D01*
X60176Y-40157D01*
X60109Y-39995D01*
X60109Y-39804D01*
X60177Y-39642D01*
X60301Y-39518D01*
X60463Y-39451D01*
X60638Y-39451D01*
X60800Y-39519D01*
X60924Y-39643D01*
X60991Y-39805D01*
X60991Y-39996D01*
X61020Y-39996D01*
X61020Y-38996D01*
X60991Y-38996D01*
X60923Y-39158D01*
X60799Y-39282D01*
X60637Y-39349D01*
X60462Y-39349D01*
X60300Y-39281D01*
X60176Y-39157D01*
X60109Y-38995D01*
X60109Y-38804D01*
X60177Y-38642D01*
X60301Y-38518D01*
X60463Y-38451D01*
X60638Y-38451D01*
X60800Y-38519D01*
X60924Y-38643D01*
X60991Y-38805D01*
X60991Y-38996D01*
X61020Y-38996D01*
X61020Y-37996D01*
X60991Y-37996D01*
X60923Y-38158D01*
X60799Y-38282D01*
X60637Y-38349D01*
X60462Y-38349D01*
X60300Y-38281D01*
X60176Y-38157D01*
X60109Y-37995D01*
X60109Y-37804D01*
X60177Y-37642D01*
X60301Y-37518D01*
X60463Y-37451D01*
X60638Y-37451D01*
X60800Y-37519D01*
X60924Y-37643D01*
X60991Y-37805D01*
X60991Y-37996D01*
X61020Y-37996D01*
X61020Y-37625D01*
X60713Y-37318D01*
X60637Y-37349D01*
X60462Y-37349D01*
X60300Y-37281D01*
X60176Y-37157D01*
X60109Y-36995D01*
X60109Y-36804D01*
X60177Y-36642D01*
X60301Y-36518D01*
X60463Y-36451D01*
X60638Y-36451D01*
X60800Y-36519D01*
X60924Y-36643D01*
X60991Y-36805D01*
X60991Y-36996D01*
X60964Y-37061D01*
X61327Y-37423D01*
X61366Y-37481D01*
X61380Y-37550D01*
X61380Y-39977D01*
X61571Y-40168D01*
X61605Y-40086D01*
X61687Y-40005D01*
X61793Y-39961D01*
X61824Y-39961D01*
X61786Y-39945D01*
X61705Y-39863D01*
X61661Y-39757D01*
X61661Y-39642D01*
X61705Y-39536D01*
X61787Y-39455D01*
X61893Y-39411D01*
X62008Y-39411D01*
X62038Y-39424D01*
X62011Y-39357D01*
X62011Y-39242D01*
X62055Y-39136D01*
X62137Y-39055D01*
X62243Y-39011D01*
X62334Y-39011D01*
X62870Y-38476D01*
X62870Y-37704D01*
X62845Y-37764D01*
X62763Y-37845D01*
X62657Y-37889D01*
X62587Y-37889D01*
X62589Y-37893D01*
X62589Y-38008D01*
X62545Y-38114D01*
X62463Y-38195D01*
X62357Y-38239D01*
X62242Y-38239D01*
X62136Y-38195D01*
X62055Y-38113D01*
X62011Y-38007D01*
X62011Y-37892D01*
X62055Y-37786D01*
X62120Y-37722D01*
X62120Y-35996D01*
X60991Y-35996D01*
X60923Y-36158D01*
X60799Y-36282D01*
X60637Y-36349D01*
X60462Y-36349D01*
X60300Y-36281D01*
X60176Y-36157D01*
X60109Y-35995D01*
X60109Y-35804D01*
X60177Y-35642D01*
X60301Y-35518D01*
X60463Y-35451D01*
X60638Y-35451D01*
X60800Y-35519D01*
X60924Y-35643D01*
X60991Y-35805D01*
X60991Y-35996D01*
X62120Y-35996D01*
X62120Y-34996D01*
X60991Y-34996D01*
X60923Y-35158D01*
X60799Y-35282D01*
X60637Y-35349D01*
X60462Y-35349D01*
X60300Y-35281D01*
X60176Y-35157D01*
X60109Y-34995D01*
X60109Y-34804D01*
X60177Y-34642D01*
X60301Y-34518D01*
X60463Y-34451D01*
X60638Y-34451D01*
X60800Y-34519D01*
X60924Y-34643D01*
X60991Y-34805D01*
X60991Y-34996D01*
X62120Y-34996D01*
X62120Y-33996D01*
X60991Y-33996D01*
X60923Y-34158D01*
X60799Y-34282D01*
X60637Y-34349D01*
X60462Y-34349D01*
X60300Y-34281D01*
X60176Y-34157D01*
X60109Y-33995D01*
X60109Y-33804D01*
X60177Y-33642D01*
X60301Y-33518D01*
X60463Y-33451D01*
X60638Y-33451D01*
X60800Y-33519D01*
X60924Y-33643D01*
X60991Y-33805D01*
X60991Y-33996D01*
X62120Y-33996D01*
X62120Y-33375D01*
X61781Y-33037D01*
X61507Y-32763D01*
X61092Y-32763D01*
X61045Y-32850D01*
X60600Y-32850D01*
X60600Y-32415D01*
X60685Y-32368D01*
X60836Y-32420D01*
X60998Y-32566D01*
X61092Y-32763D01*
X61507Y-32763D01*
X60923Y-32178D01*
X60884Y-32119D01*
X60871Y-32057D01*
X60792Y-32023D01*
X60668Y-31899D01*
X60601Y-31737D01*
X60601Y-31562D01*
X60669Y-31400D01*
X60793Y-31276D01*
X60955Y-31209D01*
X61146Y-31209D01*
X61308Y-31277D01*
X61432Y-31401D01*
X61499Y-31563D01*
X61499Y-31738D01*
X61431Y-31900D01*
X61307Y-32024D01*
X61287Y-32033D01*
X62420Y-33166D01*
X62420Y-32675D01*
X61923Y-32178D01*
X61884Y-32119D01*
X61871Y-32057D01*
X61792Y-32023D01*
X61668Y-31899D01*
X61601Y-31737D01*
X61601Y-31562D01*
X61669Y-31400D01*
X61793Y-31276D01*
X61955Y-31209D01*
X62146Y-31209D01*
X62308Y-31277D01*
X62432Y-31401D01*
X62499Y-31563D01*
X62499Y-31738D01*
X62431Y-31900D01*
X62307Y-32024D01*
X62287Y-32033D01*
X62727Y-32473D01*
X62766Y-32531D01*
X62780Y-32600D01*
X62780Y-37372D01*
X62845Y-37437D01*
X62870Y-37498D01*
X62870Y-32056D01*
X62792Y-32023D01*
X62668Y-31899D01*
X62601Y-31737D01*
X62601Y-31562D01*
X62669Y-31400D01*
X62793Y-31276D01*
X62955Y-31209D01*
X63146Y-31209D01*
X63308Y-31277D01*
X63432Y-31401D01*
X63499Y-31563D01*
X63499Y-31738D01*
X63431Y-31900D01*
X63307Y-32024D01*
X63230Y-32056D01*
X63230Y-38550D01*
X63216Y-38619D01*
X63177Y-38678D01*
X62589Y-39266D01*
X62589Y-39358D01*
X62545Y-39464D01*
X62488Y-39520D01*
X63125Y-39520D01*
X63570Y-39076D01*
X63570Y-31950D01*
X63584Y-31881D01*
X63623Y-31823D01*
X63632Y-31814D01*
X63601Y-31737D01*
X63601Y-31562D01*
X63669Y-31400D01*
X63793Y-31276D01*
X63955Y-31209D01*
X64146Y-31209D01*
X64308Y-31277D01*
X64432Y-31401D01*
X64499Y-31563D01*
X64499Y-31738D01*
X64431Y-31900D01*
X64307Y-32024D01*
X64145Y-32091D01*
X63954Y-32091D01*
X63930Y-32081D01*
X63930Y-35067D01*
X64800Y-34197D01*
X64800Y-32027D01*
X64792Y-32023D01*
X64668Y-31899D01*
X64601Y-31737D01*
X64601Y-31562D01*
X64669Y-31400D01*
X64793Y-31276D01*
X64955Y-31209D01*
X65146Y-31209D01*
X65308Y-31277D01*
X65432Y-31401D01*
X65499Y-31563D01*
X65499Y-31738D01*
X65543Y-31738D01*
X65565Y-31700D01*
X65550Y-31700D01*
X65550Y-31600D01*
X65565Y-31600D01*
X65518Y-31515D01*
X65570Y-31364D01*
X65716Y-31202D01*
X65772Y-31175D01*
X60075Y-31175D01*
X60075Y-32623D01*
X60102Y-32566D01*
X60264Y-32420D01*
X60415Y-32368D01*
X60500Y-32415D01*
X60500Y-32850D01*
X60500Y-32950D01*
X60600Y-32950D01*
X61045Y-32950D01*
X61092Y-33037D01*
X60998Y-33234D01*
X60836Y-33380D01*
X60685Y-33432D01*
X60600Y-33385D01*
X60600Y-33400D01*
X60500Y-33400D01*
X60500Y-33385D01*
X60415Y-33432D01*
X60264Y-33380D01*
X60102Y-33234D01*
X60075Y-33178D01*
X60075Y-50623D01*
X60102Y-50566D01*
X60264Y-50420D01*
X60415Y-50368D01*
X60500Y-50415D01*
X60500Y-50400D01*
X60600Y-50400D01*
X60600Y-50415D01*
X60685Y-50368D01*
X60836Y-50420D01*
X60998Y-50566D01*
X61092Y-50763D01*
X61045Y-50850D01*
X60600Y-50850D01*
X60500Y-50850D01*
X60500Y-50950D01*
X60600Y-50950D01*
X61045Y-50950D01*
X61092Y-51037D01*
X60998Y-51234D01*
X60836Y-51380D01*
X60685Y-51432D01*
X60600Y-51385D01*
X60600Y-51400D01*
X60500Y-51400D01*
X60500Y-51385D01*
X60415Y-51432D01*
X60264Y-51380D01*
X60102Y-51234D01*
X60075Y-51178D01*
X60075Y-52375D01*
X67025Y-52375D01*
X67025Y-51996D01*
X66991Y-51996D01*
X66923Y-52158D01*
X66799Y-52282D01*
X66637Y-52349D01*
X66462Y-52349D01*
X66300Y-52281D01*
X66176Y-52157D01*
X66109Y-51996D01*
X60991Y-51996D01*
X60923Y-52158D01*
X60799Y-52282D01*
X60637Y-52349D01*
X60462Y-52349D01*
X60300Y-52281D01*
X60176Y-52157D01*
X60109Y-51995D01*
X60109Y-51804D01*
X60177Y-51642D01*
X60301Y-51518D01*
X60463Y-51451D01*
X60638Y-51451D01*
X60800Y-51519D01*
X60924Y-51643D01*
X60991Y-51805D01*
X60991Y-51996D01*
X66109Y-51996D01*
X66109Y-51804D01*
X66177Y-51642D01*
X66301Y-51518D01*
X66463Y-51451D01*
X66638Y-51451D01*
X66800Y-51519D01*
X66924Y-51643D01*
X66991Y-51805D01*
X66991Y-51996D01*
X67025Y-51996D01*
X67025Y-51178D01*
X66998Y-51234D01*
X66836Y-51380D01*
X66685Y-51432D01*
X66600Y-51385D01*
X66600Y-51400D01*
X66500Y-51400D01*
X66500Y-51385D01*
X66415Y-51432D01*
X66264Y-51380D01*
X66102Y-51234D01*
X66008Y-51037D01*
X66055Y-50950D01*
X66500Y-50950D01*
X66600Y-50950D01*
X66600Y-50850D01*
X66500Y-50850D01*
X66055Y-50850D01*
X66008Y-50763D01*
X66102Y-50566D01*
X66264Y-50420D01*
X66415Y-50368D01*
X66500Y-50415D01*
X66500Y-50400D01*
X66600Y-50400D01*
X66600Y-50415D01*
X66685Y-50368D01*
X66836Y-50420D01*
X66998Y-50566D01*
X67025Y-50623D01*
X67025Y-49996D01*
X66991Y-49996D01*
X66923Y-50158D01*
X66799Y-50282D01*
X66637Y-50349D01*
X66462Y-50349D01*
X66300Y-50281D01*
X66176Y-50157D01*
X66109Y-49995D01*
X66109Y-49804D01*
X66177Y-49642D01*
X66211Y-49608D01*
X66039Y-49608D01*
X65995Y-49714D01*
X65930Y-49779D01*
X65930Y-50450D01*
X65916Y-50519D01*
X65877Y-50578D01*
X65239Y-51216D01*
X65239Y-51308D01*
X65195Y-51414D01*
X65113Y-51495D01*
X65007Y-51539D01*
X64892Y-51539D01*
X64786Y-51495D01*
X64705Y-51413D01*
X64661Y-51307D01*
X64661Y-51192D01*
X64705Y-51086D01*
X64787Y-51005D01*
X64893Y-50961D01*
X64984Y-50961D01*
X65570Y-50376D01*
X65570Y-49779D01*
X65505Y-49713D01*
X65461Y-49607D01*
X65461Y-49492D01*
X65505Y-49386D01*
X65587Y-49305D01*
X65693Y-49261D01*
X65808Y-49261D01*
X65914Y-49305D01*
X65995Y-49387D01*
X66039Y-49493D01*
X66039Y-49608D01*
X66211Y-49608D01*
X66301Y-49518D01*
X66463Y-49451D01*
X66638Y-49451D01*
X66800Y-49519D01*
X66924Y-49643D01*
X66991Y-49805D01*
X66991Y-49996D01*
X67025Y-49996D01*
X67025Y-48996D01*
X66991Y-48996D01*
X66923Y-49158D01*
X66799Y-49282D01*
X66637Y-49349D01*
X66462Y-49349D01*
X66300Y-49281D01*
X66176Y-49157D01*
X66109Y-48995D01*
X66109Y-48804D01*
X66177Y-48642D01*
X66301Y-48518D01*
X66463Y-48451D01*
X66638Y-48451D01*
X66800Y-48519D01*
X66924Y-48643D01*
X66991Y-48805D01*
X66991Y-48996D01*
X67025Y-48996D01*
X67025Y-47996D01*
X66991Y-47996D01*
X66923Y-48158D01*
X66799Y-48282D01*
X66637Y-48349D01*
X66462Y-48349D01*
X66300Y-48281D01*
X66176Y-48157D01*
X66109Y-47995D01*
X66109Y-47804D01*
X66177Y-47642D01*
X66301Y-47518D01*
X66463Y-47451D01*
X66638Y-47451D01*
X66800Y-47519D01*
X66924Y-47643D01*
X66991Y-47805D01*
X66991Y-47996D01*
X67025Y-47996D01*
X67025Y-42996D01*
X66991Y-42996D01*
X66923Y-43158D01*
X66799Y-43282D01*
X66637Y-43349D01*
X66462Y-43349D01*
X66300Y-43281D01*
X66230Y-43211D01*
X66230Y-43326D01*
X66386Y-43483D01*
X66463Y-43451D01*
X66638Y-43451D01*
X66800Y-43519D01*
X66924Y-43643D01*
X66991Y-43805D01*
X66991Y-43996D01*
X66923Y-44158D01*
X66799Y-44282D01*
X66637Y-44349D01*
X66462Y-44349D01*
X66300Y-44281D01*
X66176Y-44157D01*
X66109Y-43995D01*
X66109Y-43804D01*
X66135Y-43740D01*
X65923Y-43527D01*
X65884Y-43469D01*
X65870Y-43400D01*
X65870Y-42424D01*
X65235Y-41789D01*
X65142Y-41789D01*
X65130Y-41785D01*
X65130Y-43226D01*
X66386Y-44483D01*
X66463Y-44451D01*
X66638Y-44451D01*
X66800Y-44519D01*
X66924Y-44643D01*
X66991Y-44805D01*
X66991Y-44996D01*
X66923Y-45158D01*
X66799Y-45282D01*
X66637Y-45349D01*
X66462Y-45349D01*
X66300Y-45281D01*
X66176Y-45157D01*
X66109Y-44995D01*
X66109Y-44804D01*
X66135Y-44741D01*
X64930Y-43535D01*
X64930Y-44026D01*
X66386Y-45483D01*
X66463Y-45451D01*
X66638Y-45451D01*
X66800Y-45519D01*
X66924Y-45643D01*
X66991Y-45805D01*
X66991Y-45996D01*
X66923Y-46158D01*
X66799Y-46282D01*
X66637Y-46349D01*
X66462Y-46349D01*
X66300Y-46281D01*
X66176Y-46157D01*
X66109Y-45995D01*
X66109Y-45804D01*
X66135Y-45741D01*
X64780Y-44385D01*
X64780Y-44876D01*
X66386Y-46483D01*
X66463Y-46451D01*
X66638Y-46451D01*
X66800Y-46519D01*
X66924Y-46643D01*
X66991Y-46805D01*
X66991Y-46996D01*
X66923Y-47158D01*
X66799Y-47282D01*
X66637Y-47349D01*
X66462Y-47349D01*
X66300Y-47281D01*
X66176Y-47157D01*
X66109Y-46995D01*
X66109Y-46804D01*
X66135Y-46741D01*
X64473Y-45078D01*
X64434Y-45019D01*
X64420Y-44950D01*
X64420Y-41050D01*
X64434Y-40981D01*
X64473Y-40923D01*
X64561Y-40835D01*
X64561Y-40742D01*
X64605Y-40636D01*
X64687Y-40555D01*
X64793Y-40511D01*
X64908Y-40511D01*
X65014Y-40555D01*
X65025Y-40567D01*
X65037Y-40555D01*
X65143Y-40511D01*
X65258Y-40511D01*
X65364Y-40555D01*
X65445Y-40637D01*
X65489Y-40743D01*
X65489Y-40858D01*
X65445Y-40964D01*
X65433Y-40976D01*
X65445Y-40987D01*
X65489Y-41093D01*
X65489Y-41208D01*
X65445Y-41314D01*
X65433Y-41326D01*
X65445Y-41337D01*
X65489Y-41443D01*
X65489Y-41536D01*
X66177Y-42223D01*
X66216Y-42281D01*
X66230Y-42350D01*
X66230Y-42590D01*
X66301Y-42518D01*
X66463Y-42451D01*
X66638Y-42451D01*
X66800Y-42519D01*
X66924Y-42643D01*
X66991Y-42805D01*
X66991Y-42996D01*
X67025Y-42996D01*
X67025Y-41996D01*
X66991Y-41996D01*
X66923Y-42158D01*
X66799Y-42282D01*
X66637Y-42349D01*
X66462Y-42349D01*
X66300Y-42281D01*
X66176Y-42157D01*
X66109Y-41995D01*
X66109Y-41804D01*
X66177Y-41642D01*
X66301Y-41518D01*
X66463Y-41451D01*
X66638Y-41451D01*
X66800Y-41519D01*
X66924Y-41643D01*
X66991Y-41805D01*
X66991Y-41996D01*
X67025Y-41996D01*
X67025Y-40996D01*
X66991Y-40996D01*
X66923Y-41158D01*
X66799Y-41282D01*
X66637Y-41349D01*
X66462Y-41349D01*
X66300Y-41281D01*
X66176Y-41157D01*
X66109Y-40995D01*
X66109Y-40804D01*
X66177Y-40642D01*
X66301Y-40518D01*
X66463Y-40451D01*
X66638Y-40451D01*
X66800Y-40519D01*
X66924Y-40643D01*
X66991Y-40805D01*
X66991Y-40996D01*
X67025Y-40996D01*
X67025Y-39996D01*
X66991Y-39996D01*
X66923Y-40158D01*
X66799Y-40282D01*
X66637Y-40349D01*
X66462Y-40349D01*
X66300Y-40281D01*
X66176Y-40157D01*
X66109Y-39995D01*
X66109Y-39804D01*
X66177Y-39642D01*
X66301Y-39518D01*
X66463Y-39451D01*
X66638Y-39451D01*
X66800Y-39519D01*
X66924Y-39643D01*
X66991Y-39805D01*
X66991Y-39996D01*
X67025Y-39996D01*
X67025Y-38996D01*
X66991Y-38996D01*
X66923Y-39158D01*
X66799Y-39282D01*
X66637Y-39349D01*
X66462Y-39349D01*
X66300Y-39281D01*
X66176Y-39157D01*
X66109Y-38995D01*
X66109Y-38804D01*
X66177Y-38642D01*
X66301Y-38518D01*
X66463Y-38451D01*
X66638Y-38451D01*
X66800Y-38519D01*
X66924Y-38643D01*
X66991Y-38805D01*
X66991Y-38996D01*
X67025Y-38996D01*
X67025Y-37996D01*
X66991Y-37996D01*
X66923Y-38158D01*
X66799Y-38282D01*
X66637Y-38349D01*
X66462Y-38349D01*
X66300Y-38281D01*
X66176Y-38157D01*
X66109Y-37995D01*
X66109Y-37804D01*
X66177Y-37642D01*
X66301Y-37518D01*
X66463Y-37451D01*
X66638Y-37451D01*
X66800Y-37519D01*
X66924Y-37643D01*
X66991Y-37805D01*
X66991Y-37996D01*
X67025Y-37996D01*
X67025Y-36996D01*
X66991Y-36996D01*
X66923Y-37158D01*
X66799Y-37282D01*
X66637Y-37349D01*
X66462Y-37349D01*
X66300Y-37281D01*
X66176Y-37157D01*
X66109Y-36995D01*
X66109Y-36804D01*
X66177Y-36642D01*
X66301Y-36518D01*
X66463Y-36451D01*
X66638Y-36451D01*
X66800Y-36519D01*
X66924Y-36643D01*
X66991Y-36805D01*
X66991Y-36996D01*
X67025Y-36996D01*
X67025Y-35996D01*
X66991Y-35996D01*
X66923Y-36158D01*
X66799Y-36282D01*
X66637Y-36349D01*
X66462Y-36349D01*
X66300Y-36281D01*
X66176Y-36157D01*
X66109Y-35995D01*
X66109Y-35804D01*
X66177Y-35642D01*
X66301Y-35518D01*
X66463Y-35451D01*
X66638Y-35451D01*
X66800Y-35519D01*
X66924Y-35643D01*
X66991Y-35805D01*
X66991Y-35996D01*
X67025Y-35996D01*
X67025Y-34996D01*
X66991Y-34996D01*
X66923Y-35158D01*
X66799Y-35282D01*
X66637Y-35349D01*
X66462Y-35349D01*
X66300Y-35281D01*
X66176Y-35157D01*
X66109Y-34995D01*
X66109Y-34804D01*
X66177Y-34642D01*
X66301Y-34518D01*
X66463Y-34451D01*
X66638Y-34451D01*
X66800Y-34519D01*
X66924Y-34643D01*
X66991Y-34805D01*
X66991Y-34996D01*
X67025Y-34996D01*
X67025Y-33996D01*
X66991Y-33996D01*
X66923Y-34158D01*
X66799Y-34282D01*
X66637Y-34349D01*
X66462Y-34349D01*
X66300Y-34281D01*
X66176Y-34157D01*
X66109Y-33995D01*
X66109Y-33804D01*
X66177Y-33642D01*
X66301Y-33518D01*
X66463Y-33451D01*
X66638Y-33451D01*
X66800Y-33519D01*
X66924Y-33643D01*
X66991Y-33805D01*
X66991Y-33996D01*
X67025Y-33996D01*
X67025Y-33178D01*
X66998Y-33234D01*
X66836Y-33380D01*
X66685Y-33432D01*
X66600Y-33385D01*
X66600Y-33400D01*
X66500Y-33400D01*
X66500Y-33385D01*
X66415Y-33432D01*
X66264Y-33380D01*
X66102Y-33234D01*
X66008Y-33037D01*
X66055Y-32950D01*
X66500Y-32950D01*
X66600Y-32950D01*
X66600Y-32850D01*
X66500Y-32850D01*
X66055Y-32850D01*
X66008Y-32763D01*
X66102Y-32566D01*
X66264Y-32420D01*
X66415Y-32368D01*
X66500Y-32415D01*
X66500Y-32850D01*
X66600Y-32850D01*
X66600Y-32415D01*
X66685Y-32368D01*
X66836Y-32420D01*
X66998Y-32566D01*
X67025Y-32623D01*
X67025Y-31785D01*
X66582Y-31785D01*
X66530Y-31936D01*
X66384Y-32098D01*
X66187Y-32192D01*
X66100Y-32145D01*
X66100Y-31738D01*
X66100Y-31700D01*
X66535Y-31700D01*
X66556Y-31738D01*
X66582Y-31785D01*
X67025Y-31785D01*
X67025Y-31175D01*
X43075Y-41225D02*
X58325Y-41225D01*
X43075Y-41305D02*
X58325Y-41305D01*
X43075Y-41385D02*
X58325Y-41385D01*
X43075Y-41465D02*
X58325Y-41465D01*
X43075Y-41545D02*
X58325Y-41545D01*
X43075Y-41625D02*
X45690Y-41625D01*
X46210Y-41625D02*
X46690Y-41625D01*
X47210Y-41625D02*
X47690Y-41625D01*
X48210Y-41625D02*
X48690Y-41625D01*
X49210Y-41625D02*
X49690Y-41625D01*
X50210Y-41625D02*
X58325Y-41625D01*
X43075Y-41705D02*
X45610Y-41705D01*
X46290Y-41705D02*
X46610Y-41705D01*
X47290Y-41705D02*
X47610Y-41705D01*
X48290Y-41705D02*
X48610Y-41705D01*
X49290Y-41705D02*
X49610Y-41705D01*
X50290Y-41705D02*
X58325Y-41705D01*
X43075Y-41785D02*
X45554Y-41785D01*
X46348Y-41785D02*
X46554Y-41785D01*
X47348Y-41785D02*
X47554Y-41785D01*
X48348Y-41785D02*
X48554Y-41785D01*
X49348Y-41785D02*
X49554Y-41785D01*
X50348Y-41785D02*
X58325Y-41785D01*
X43075Y-41865D02*
X45520Y-41865D01*
X46381Y-41865D02*
X46520Y-41865D01*
X47381Y-41865D02*
X47520Y-41865D01*
X48381Y-41865D02*
X48520Y-41865D01*
X49381Y-41865D02*
X49520Y-41865D01*
X50381Y-41865D02*
X58325Y-41865D01*
X43075Y-41945D02*
X45501Y-41945D01*
X46399Y-41945D02*
X46501Y-41945D01*
X47399Y-41945D02*
X47501Y-41945D01*
X48399Y-41945D02*
X48501Y-41945D01*
X49399Y-41945D02*
X49501Y-41945D01*
X50399Y-41945D02*
X58325Y-41945D01*
X43075Y-42025D02*
X45501Y-42025D01*
X46399Y-42025D02*
X46501Y-42025D01*
X47399Y-42025D02*
X47501Y-42025D01*
X48399Y-42025D02*
X48501Y-42025D01*
X49399Y-42025D02*
X49501Y-42025D01*
X50399Y-42025D02*
X58325Y-42025D01*
X43075Y-42105D02*
X45507Y-42105D01*
X46392Y-42105D02*
X46507Y-42105D01*
X47392Y-42105D02*
X47507Y-42105D01*
X48392Y-42105D02*
X48507Y-42105D01*
X49392Y-42105D02*
X49507Y-42105D01*
X50392Y-42105D02*
X58325Y-42105D01*
X43075Y-42185D02*
X45540Y-42185D01*
X46359Y-42185D02*
X46540Y-42185D01*
X47359Y-42185D02*
X47540Y-42185D01*
X48359Y-42185D02*
X48540Y-42185D01*
X49359Y-42185D02*
X49540Y-42185D01*
X50359Y-42185D02*
X58325Y-42185D01*
X43075Y-42265D02*
X45580Y-42265D01*
X46320Y-42265D02*
X46580Y-42265D01*
X47320Y-42265D02*
X47580Y-42265D01*
X48320Y-42265D02*
X48580Y-42265D01*
X49320Y-42265D02*
X49580Y-42265D01*
X50320Y-42265D02*
X58325Y-42265D01*
X43075Y-42345D02*
X45660Y-42345D01*
X46240Y-42345D02*
X46660Y-42345D01*
X47240Y-42345D02*
X47660Y-42345D01*
X48240Y-42345D02*
X48660Y-42345D01*
X49240Y-42345D02*
X49660Y-42345D01*
X50240Y-42345D02*
X58325Y-42345D01*
X43075Y-42425D02*
X45802Y-42425D01*
X46097Y-42425D02*
X46802Y-42425D01*
X47097Y-42425D02*
X47802Y-42425D01*
X48097Y-42425D02*
X48802Y-42425D01*
X49097Y-42425D02*
X49802Y-42425D01*
X50097Y-42425D02*
X58325Y-42425D01*
X43075Y-42505D02*
X49726Y-42505D01*
X50166Y-42505D02*
X58325Y-42505D01*
X43075Y-42585D02*
X45554Y-42585D01*
X46346Y-42585D02*
X46778Y-42585D01*
X47122Y-42585D02*
X47778Y-42585D01*
X48122Y-42585D02*
X48778Y-42585D01*
X49122Y-42585D02*
X49653Y-42585D01*
X50248Y-42585D02*
X58325Y-42585D01*
X43075Y-42665D02*
X45504Y-42665D01*
X46397Y-42665D02*
X46650Y-42665D01*
X47250Y-42665D02*
X47650Y-42665D01*
X48250Y-42665D02*
X48650Y-42665D01*
X49250Y-42665D02*
X49685Y-42665D01*
X50214Y-42665D02*
X58325Y-42665D01*
X43075Y-42745D02*
X45501Y-42745D01*
X46399Y-42745D02*
X46570Y-42745D01*
X47330Y-42745D02*
X47570Y-42745D01*
X48330Y-42745D02*
X48570Y-42745D01*
X49330Y-42745D02*
X49469Y-42745D01*
X49625Y-42745D02*
X49765Y-42745D01*
X50134Y-42745D02*
X50276Y-42745D01*
X50433Y-42745D02*
X56305Y-42745D01*
X56596Y-42745D02*
X57305Y-42745D01*
X57596Y-42745D02*
X58325Y-42745D01*
X43075Y-42825D02*
X45501Y-42825D01*
X46399Y-42825D02*
X46537Y-42825D01*
X47364Y-42825D02*
X47537Y-42825D01*
X48364Y-42825D02*
X48537Y-42825D01*
X49364Y-42825D02*
X49441Y-42825D01*
X49705Y-42825D02*
X49845Y-42825D01*
X50054Y-42825D02*
X50196Y-42825D01*
X50466Y-42825D02*
X56167Y-42825D01*
X56733Y-42825D02*
X57167Y-42825D01*
X57733Y-42825D02*
X58325Y-42825D01*
X43075Y-42905D02*
X45501Y-42905D01*
X46399Y-42905D02*
X46504Y-42905D01*
X47397Y-42905D02*
X47504Y-42905D01*
X48397Y-42905D02*
X48504Y-42905D01*
X49397Y-42905D02*
X49413Y-42905D01*
X49785Y-42905D02*
X49926Y-42905D01*
X49974Y-42905D02*
X50116Y-42905D01*
X50485Y-42905D02*
X56087Y-42905D01*
X56813Y-42905D02*
X57087Y-42905D01*
X57813Y-42905D02*
X58325Y-42905D01*
X43075Y-42985D02*
X45501Y-42985D01*
X46399Y-42985D02*
X46501Y-42985D01*
X47399Y-42985D02*
X47501Y-42985D01*
X48399Y-42985D02*
X48501Y-42985D01*
X49399Y-42985D02*
X49410Y-42985D01*
X49865Y-42985D02*
X50036Y-42985D01*
X50489Y-42985D02*
X56053Y-42985D01*
X56848Y-42985D02*
X57053Y-42985D01*
X57848Y-42985D02*
X58325Y-42985D01*
X43075Y-43065D02*
X45501Y-43065D01*
X46399Y-43065D02*
X46501Y-43065D01*
X47399Y-43065D02*
X47501Y-43065D01*
X48399Y-43065D02*
X48501Y-43065D01*
X49399Y-43065D02*
X49414Y-43065D01*
X49814Y-43065D02*
X50085Y-43065D01*
X50493Y-43065D02*
X56020Y-43065D01*
X56880Y-43065D02*
X57020Y-43065D01*
X57880Y-43065D02*
X58325Y-43065D01*
X43075Y-43145D02*
X45501Y-43145D01*
X46399Y-43145D02*
X46524Y-43145D01*
X47376Y-43145D02*
X47524Y-43145D01*
X48376Y-43145D02*
X48524Y-43145D01*
X49376Y-43145D02*
X49422Y-43145D01*
X49734Y-43145D02*
X49876Y-43145D01*
X50025Y-43145D02*
X50165Y-43145D01*
X50469Y-43145D02*
X56020Y-43145D01*
X56880Y-43145D02*
X57020Y-43145D01*
X57880Y-43145D02*
X58325Y-43145D01*
X43075Y-43225D02*
X45501Y-43225D01*
X46399Y-43225D02*
X46557Y-43225D01*
X47342Y-43225D02*
X47557Y-43225D01*
X48342Y-43225D02*
X48557Y-43225D01*
X49342Y-43225D02*
X49455Y-43225D01*
X49654Y-43225D02*
X49795Y-43225D01*
X50105Y-43225D02*
X50245Y-43225D01*
X50441Y-43225D02*
X56020Y-43225D01*
X56880Y-43225D02*
X57020Y-43225D01*
X57880Y-43225D02*
X58325Y-43225D01*
X43075Y-43305D02*
X45501Y-43305D01*
X46399Y-43305D02*
X46620Y-43305D01*
X47280Y-43305D02*
X47620Y-43305D01*
X48280Y-43305D02*
X48620Y-43305D01*
X49280Y-43305D02*
X49561Y-43305D01*
X49574Y-43305D02*
X49715Y-43305D01*
X50185Y-43305D02*
X50325Y-43305D01*
X50338Y-43305D02*
X56048Y-43305D01*
X56851Y-43305D02*
X57048Y-43305D01*
X57851Y-43305D02*
X58325Y-43305D01*
X43075Y-43385D02*
X45524Y-43385D01*
X46376Y-43385D02*
X46706Y-43385D01*
X47194Y-43385D02*
X47706Y-43385D01*
X48194Y-43385D02*
X48706Y-43385D01*
X49194Y-43385D02*
X49644Y-43385D01*
X50255Y-43385D02*
X56081Y-43385D01*
X56817Y-43385D02*
X57081Y-43385D01*
X57817Y-43385D02*
X58325Y-43385D01*
X43075Y-43465D02*
X49666Y-43465D01*
X50233Y-43465D02*
X56157Y-43465D01*
X56743Y-43465D02*
X57157Y-43465D01*
X57743Y-43465D02*
X58325Y-43465D01*
X43075Y-43545D02*
X56280Y-43545D01*
X56620Y-43545D02*
X57280Y-43545D01*
X57620Y-43545D02*
X58325Y-43545D01*
X43075Y-43625D02*
X58325Y-43625D01*
X43075Y-43705D02*
X57179Y-43705D01*
X57722Y-43705D02*
X58325Y-43705D01*
X43075Y-43785D02*
X56207Y-43785D01*
X56692Y-43785D02*
X57158Y-43785D01*
X57743Y-43785D02*
X58325Y-43785D01*
X43075Y-43865D02*
X56127Y-43865D01*
X56773Y-43865D02*
X57056Y-43865D01*
X57094Y-43865D02*
X57236Y-43865D01*
X57664Y-43865D02*
X57806Y-43865D01*
X57845Y-43865D02*
X58325Y-43865D01*
X43075Y-43945D02*
X56070Y-43945D01*
X56831Y-43945D02*
X56972Y-43945D01*
X57174Y-43945D02*
X57316Y-43945D01*
X57584Y-43945D02*
X57726Y-43945D01*
X57933Y-43945D02*
X58325Y-43945D01*
X43075Y-44025D02*
X56037Y-44025D01*
X56864Y-44025D02*
X56944Y-44025D01*
X57254Y-44025D02*
X57396Y-44025D01*
X57504Y-44025D02*
X57646Y-44025D01*
X57964Y-44025D02*
X58325Y-44025D01*
X43075Y-44105D02*
X50687Y-44105D01*
X51014Y-44105D02*
X56020Y-44105D01*
X56880Y-44105D02*
X56927Y-44105D01*
X57334Y-44105D02*
X57566Y-44105D01*
X57968Y-44105D02*
X58325Y-44105D01*
X43075Y-44185D02*
X50180Y-44185D01*
X51094Y-44185D02*
X56020Y-44185D01*
X56880Y-44185D02*
X56931Y-44185D01*
X57414Y-44185D02*
X57556Y-44185D01*
X57972Y-44185D02*
X58325Y-44185D01*
X43075Y-44265D02*
X50080Y-44265D01*
X51128Y-44265D02*
X56032Y-44265D01*
X56867Y-44265D02*
X56936Y-44265D01*
X57494Y-44265D02*
X57636Y-44265D01*
X57959Y-44265D02*
X58325Y-44265D01*
X43075Y-44345D02*
X50000Y-44345D01*
X51139Y-44345D02*
X51912Y-44345D01*
X52190Y-44345D02*
X56065Y-44345D01*
X56899Y-44345D02*
X56963Y-44345D01*
X57574Y-44345D02*
X57716Y-44345D01*
X57931Y-44345D02*
X58325Y-44345D01*
X43075Y-44425D02*
X49920Y-44425D01*
X52284Y-44425D02*
X56117Y-44425D01*
X56979Y-44425D02*
X57017Y-44425D01*
X57654Y-44425D02*
X57796Y-44425D01*
X57883Y-44425D02*
X58325Y-44425D01*
X43075Y-44505D02*
X49840Y-44505D01*
X52324Y-44505D02*
X56197Y-44505D01*
X57059Y-44505D02*
X57114Y-44505D01*
X57734Y-44505D02*
X58325Y-44505D01*
X43075Y-44585D02*
X49760Y-44585D01*
X52339Y-44585D02*
X56631Y-44585D01*
X57117Y-44585D02*
X57175Y-44585D01*
X57724Y-44585D02*
X58325Y-44585D01*
X43075Y-44665D02*
X49680Y-44665D01*
X52336Y-44665D02*
X56711Y-44665D01*
X57130Y-44665D02*
X57251Y-44665D01*
X57637Y-44665D02*
X58325Y-44665D01*
X43075Y-44745D02*
X49600Y-44745D01*
X52302Y-44745D02*
X56305Y-44745D01*
X56596Y-44745D02*
X56770Y-44745D01*
X57130Y-44745D02*
X57168Y-44745D01*
X57733Y-44745D02*
X58325Y-44745D01*
X43075Y-44825D02*
X49519Y-44825D01*
X50328Y-44825D02*
X50711Y-44825D01*
X51289Y-44825D02*
X51866Y-44825D01*
X52233Y-44825D02*
X56167Y-44825D01*
X56733Y-44825D02*
X56770Y-44825D01*
X57704Y-44825D02*
X58325Y-44825D01*
X43075Y-44905D02*
X49439Y-44905D01*
X50248Y-44905D02*
X50711Y-44905D01*
X51309Y-44905D02*
X56087Y-44905D01*
X57624Y-44905D02*
X57766Y-44905D01*
X57916Y-44905D02*
X58325Y-44905D01*
X43075Y-44985D02*
X49236Y-44985D01*
X50168Y-44985D02*
X50743Y-44985D01*
X51389Y-44985D02*
X56053Y-44985D01*
X57544Y-44985D02*
X57686Y-44985D01*
X57950Y-44985D02*
X58325Y-44985D01*
X43075Y-45065D02*
X49127Y-45065D01*
X50088Y-45065D02*
X50806Y-45065D01*
X51469Y-45065D02*
X52477Y-45065D01*
X52824Y-45065D02*
X56020Y-45065D01*
X57464Y-45065D02*
X57606Y-45065D01*
X57966Y-45065D02*
X58325Y-45065D01*
X43075Y-45145D02*
X49081Y-45145D01*
X50008Y-45145D02*
X51041Y-45145D01*
X51549Y-45145D02*
X52402Y-45145D01*
X52899Y-45145D02*
X56020Y-45145D01*
X57384Y-45145D02*
X57526Y-45145D01*
X57970Y-45145D02*
X58325Y-45145D01*
X43075Y-45225D02*
X49061Y-45225D01*
X49989Y-45225D02*
X51121Y-45225D01*
X51629Y-45225D02*
X52369Y-45225D01*
X52932Y-45225D02*
X56020Y-45225D01*
X57454Y-45225D02*
X57596Y-45225D01*
X57973Y-45225D02*
X58325Y-45225D01*
X43075Y-45305D02*
X49061Y-45305D01*
X49969Y-45305D02*
X51201Y-45305D01*
X51709Y-45305D02*
X52361Y-45305D01*
X52939Y-45305D02*
X56048Y-45305D01*
X57534Y-45305D02*
X57676Y-45305D01*
X57945Y-45305D02*
X58325Y-45305D01*
X43075Y-45385D02*
X49093Y-45385D01*
X49923Y-45385D02*
X51281Y-45385D01*
X51789Y-45385D02*
X52372Y-45385D01*
X52989Y-45385D02*
X56081Y-45385D01*
X57614Y-45385D02*
X57756Y-45385D01*
X57917Y-45385D02*
X58325Y-45385D01*
X43075Y-45465D02*
X49156Y-45465D01*
X49543Y-45465D02*
X49584Y-45465D01*
X49814Y-45465D02*
X51361Y-45465D01*
X51869Y-45465D02*
X52406Y-45465D01*
X53069Y-45465D02*
X56157Y-45465D01*
X56743Y-45465D02*
X56770Y-45465D01*
X57694Y-45465D02*
X58325Y-45465D01*
X43075Y-45545D02*
X51441Y-45545D01*
X51949Y-45545D02*
X52486Y-45545D01*
X53149Y-45545D02*
X56280Y-45545D01*
X56620Y-45545D02*
X56770Y-45545D01*
X57734Y-45545D02*
X58325Y-45545D01*
X43075Y-45625D02*
X51521Y-45625D01*
X52029Y-45625D02*
X52721Y-45625D01*
X53229Y-45625D02*
X56770Y-45625D01*
X57672Y-45625D02*
X58325Y-45625D01*
X43075Y-45705D02*
X51601Y-45705D01*
X52109Y-45705D02*
X52801Y-45705D01*
X53309Y-45705D02*
X56770Y-45705D01*
X57722Y-45705D02*
X58325Y-45705D01*
X43075Y-45785D02*
X51681Y-45785D01*
X52189Y-45785D02*
X52881Y-45785D01*
X53389Y-45785D02*
X56207Y-45785D01*
X56692Y-45785D02*
X56770Y-45785D01*
X57743Y-45785D02*
X58325Y-45785D01*
X43075Y-45865D02*
X46677Y-45865D01*
X47024Y-45865D02*
X51761Y-45865D01*
X52269Y-45865D02*
X52961Y-45865D01*
X53469Y-45865D02*
X56127Y-45865D01*
X57664Y-45865D02*
X57806Y-45865D01*
X57845Y-45865D02*
X58325Y-45865D01*
X43075Y-45945D02*
X46415Y-45945D01*
X47099Y-45945D02*
X51841Y-45945D01*
X52349Y-45945D02*
X53041Y-45945D01*
X53549Y-45945D02*
X56070Y-45945D01*
X57584Y-45945D02*
X57726Y-45945D01*
X57933Y-45945D02*
X58325Y-45945D01*
X43075Y-46025D02*
X46321Y-46025D01*
X47132Y-46025D02*
X51921Y-46025D01*
X52429Y-46025D02*
X53121Y-46025D01*
X53629Y-46025D02*
X56037Y-46025D01*
X57504Y-46025D02*
X57646Y-46025D01*
X57964Y-46025D02*
X58325Y-46025D01*
X43075Y-46105D02*
X46241Y-46105D01*
X47139Y-46105D02*
X52001Y-46105D01*
X52509Y-46105D02*
X53201Y-46105D01*
X53709Y-46105D02*
X56020Y-46105D01*
X57424Y-46105D02*
X57566Y-46105D01*
X57968Y-46105D02*
X58325Y-46105D01*
X43075Y-46185D02*
X46161Y-46185D01*
X47127Y-46185D02*
X52081Y-46185D01*
X52589Y-46185D02*
X53281Y-46185D01*
X53789Y-46185D02*
X56020Y-46185D01*
X57414Y-46185D02*
X57556Y-46185D01*
X57972Y-46185D02*
X58325Y-46185D01*
X43075Y-46265D02*
X46081Y-46265D01*
X47093Y-46265D02*
X52161Y-46265D01*
X52669Y-46265D02*
X53361Y-46265D01*
X53869Y-46265D02*
X56032Y-46265D01*
X57494Y-46265D02*
X57636Y-46265D01*
X57959Y-46265D02*
X58325Y-46265D01*
X43075Y-46345D02*
X45862Y-46345D01*
X46509Y-46345D02*
X46686Y-46345D01*
X47013Y-46345D02*
X52241Y-46345D01*
X52749Y-46345D02*
X53441Y-46345D01*
X53949Y-46345D02*
X56065Y-46345D01*
X57574Y-46345D02*
X57716Y-46345D01*
X57931Y-46345D02*
X58325Y-46345D01*
X43075Y-46425D02*
X45767Y-46425D01*
X46429Y-46425D02*
X52321Y-46425D01*
X52829Y-46425D02*
X52960Y-46425D01*
X53142Y-46425D02*
X53521Y-46425D01*
X54029Y-46425D02*
X56117Y-46425D01*
X57654Y-46425D02*
X57796Y-46425D01*
X57883Y-46425D02*
X58325Y-46425D01*
X43075Y-46505D02*
X45727Y-46505D01*
X46349Y-46505D02*
X52401Y-46505D01*
X53264Y-46505D02*
X53601Y-46505D01*
X54109Y-46505D02*
X56197Y-46505D01*
X56703Y-46505D02*
X56770Y-46505D01*
X57734Y-46505D02*
X58325Y-46505D01*
X43075Y-46585D02*
X45711Y-46585D01*
X46289Y-46585D02*
X52481Y-46585D01*
X53315Y-46585D02*
X53681Y-46585D01*
X54189Y-46585D02*
X56770Y-46585D01*
X57724Y-46585D02*
X58325Y-46585D01*
X43075Y-46665D02*
X45714Y-46665D01*
X46286Y-46665D02*
X52561Y-46665D01*
X53339Y-46665D02*
X53761Y-46665D01*
X54269Y-46665D02*
X56770Y-46665D01*
X57637Y-46665D02*
X58325Y-46665D01*
X43075Y-46745D02*
X45747Y-46745D01*
X46252Y-46745D02*
X52641Y-46745D01*
X53339Y-46745D02*
X53841Y-46745D01*
X54349Y-46745D02*
X56305Y-46745D01*
X56596Y-46745D02*
X56770Y-46745D01*
X57733Y-46745D02*
X58325Y-46745D01*
X43075Y-46825D02*
X45816Y-46825D01*
X46183Y-46825D02*
X52721Y-46825D01*
X53311Y-46825D02*
X53921Y-46825D01*
X54429Y-46825D02*
X56167Y-46825D01*
X56733Y-46825D02*
X56770Y-46825D01*
X57704Y-46825D02*
X58325Y-46825D01*
X43075Y-46905D02*
X52846Y-46905D01*
X53253Y-46905D02*
X54001Y-46905D01*
X54509Y-46905D02*
X56087Y-46905D01*
X57624Y-46905D02*
X57766Y-46905D01*
X57916Y-46905D02*
X58325Y-46905D01*
X43075Y-46985D02*
X49136Y-46985D01*
X49366Y-46985D02*
X52982Y-46985D01*
X53116Y-46985D02*
X54081Y-46985D01*
X54589Y-46985D02*
X56053Y-46985D01*
X57544Y-46985D02*
X57686Y-46985D01*
X57950Y-46985D02*
X58325Y-46985D01*
X43075Y-47065D02*
X49027Y-47065D01*
X49474Y-47065D02*
X54161Y-47065D01*
X54669Y-47065D02*
X56020Y-47065D01*
X57464Y-47065D02*
X57606Y-47065D01*
X57966Y-47065D02*
X58325Y-47065D01*
X43075Y-47145D02*
X48662Y-47145D01*
X48941Y-47145D02*
X48980Y-47145D01*
X49520Y-47145D02*
X54241Y-47145D01*
X54749Y-47145D02*
X56020Y-47145D01*
X57384Y-47145D02*
X57526Y-47145D01*
X57970Y-47145D02*
X58325Y-47145D01*
X43075Y-47225D02*
X48567Y-47225D01*
X49539Y-47225D02*
X54321Y-47225D01*
X54829Y-47225D02*
X56020Y-47225D01*
X57454Y-47225D02*
X57596Y-47225D01*
X57973Y-47225D02*
X58325Y-47225D01*
X43075Y-47305D02*
X48527Y-47305D01*
X49539Y-47305D02*
X54401Y-47305D01*
X54909Y-47305D02*
X56048Y-47305D01*
X57534Y-47305D02*
X57676Y-47305D01*
X57945Y-47305D02*
X58325Y-47305D01*
X43075Y-47385D02*
X48511Y-47385D01*
X49530Y-47385D02*
X50007Y-47385D01*
X50394Y-47385D02*
X54481Y-47385D01*
X54989Y-47385D02*
X56081Y-47385D01*
X57614Y-47385D02*
X57756Y-47385D01*
X57917Y-47385D02*
X58325Y-47385D01*
X43075Y-47465D02*
X48495Y-47465D01*
X49530Y-47465D02*
X49943Y-47465D01*
X50457Y-47465D02*
X54561Y-47465D01*
X55069Y-47465D02*
X56157Y-47465D01*
X56743Y-47465D02*
X56770Y-47465D01*
X57694Y-47465D02*
X58325Y-47465D01*
X43075Y-47545D02*
X48472Y-47545D01*
X49052Y-47545D02*
X49170Y-47545D01*
X49530Y-47545D02*
X49911Y-47545D01*
X50489Y-47545D02*
X54641Y-47545D01*
X55149Y-47545D02*
X56280Y-47545D01*
X56620Y-47545D02*
X56770Y-47545D01*
X57734Y-47545D02*
X58325Y-47545D01*
X43075Y-47625D02*
X48470Y-47625D01*
X48983Y-47625D02*
X49170Y-47625D01*
X49530Y-47625D02*
X49911Y-47625D01*
X50489Y-47625D02*
X52017Y-47625D01*
X52384Y-47625D02*
X54721Y-47625D01*
X55229Y-47625D02*
X56770Y-47625D01*
X57672Y-47625D02*
X58325Y-47625D01*
X43075Y-47705D02*
X48470Y-47705D01*
X48830Y-47705D02*
X49170Y-47705D01*
X49530Y-47705D02*
X49930Y-47705D01*
X52453Y-47705D02*
X54801Y-47705D01*
X55309Y-47705D02*
X56770Y-47705D01*
X57722Y-47705D02*
X58325Y-47705D01*
X43075Y-47785D02*
X48470Y-47785D01*
X48830Y-47785D02*
X49170Y-47785D01*
X49530Y-47785D02*
X49976Y-47785D01*
X52486Y-47785D02*
X54881Y-47785D01*
X55389Y-47785D02*
X56207Y-47785D01*
X56692Y-47785D02*
X56770Y-47785D01*
X57743Y-47785D02*
X58325Y-47785D01*
X43075Y-47865D02*
X48470Y-47865D01*
X48830Y-47865D02*
X49170Y-47865D01*
X49530Y-47865D02*
X50084Y-47865D01*
X52489Y-47865D02*
X54961Y-47865D01*
X55469Y-47865D02*
X56127Y-47865D01*
X57664Y-47865D02*
X57806Y-47865D01*
X57845Y-47865D02*
X58325Y-47865D01*
X43075Y-47945D02*
X48470Y-47945D01*
X48830Y-47945D02*
X49170Y-47945D01*
X49530Y-47945D02*
X50290Y-47945D01*
X52473Y-47945D02*
X55041Y-47945D01*
X55549Y-47945D02*
X56070Y-47945D01*
X57584Y-47945D02*
X57726Y-47945D01*
X57933Y-47945D02*
X58325Y-47945D01*
X43075Y-48025D02*
X48470Y-48025D01*
X48830Y-48025D02*
X49170Y-48025D01*
X49530Y-48025D02*
X50425Y-48025D01*
X52433Y-48025D02*
X55121Y-48025D01*
X55629Y-48025D02*
X56037Y-48025D01*
X57504Y-48025D02*
X57646Y-48025D01*
X57964Y-48025D02*
X58325Y-48025D01*
X43075Y-48105D02*
X48470Y-48105D01*
X48830Y-48105D02*
X49170Y-48105D01*
X49530Y-48105D02*
X51137Y-48105D01*
X51564Y-48105D02*
X52060Y-48105D01*
X52338Y-48105D02*
X55201Y-48105D01*
X55709Y-48105D02*
X56020Y-48105D01*
X57424Y-48105D02*
X57566Y-48105D01*
X57968Y-48105D02*
X58325Y-48105D01*
X43075Y-48185D02*
X48470Y-48185D01*
X48830Y-48185D02*
X49170Y-48185D01*
X49530Y-48185D02*
X51085Y-48185D01*
X51615Y-48185D02*
X55281Y-48185D01*
X55789Y-48185D02*
X56020Y-48185D01*
X57414Y-48185D02*
X57556Y-48185D01*
X57972Y-48185D02*
X58325Y-48185D01*
X43075Y-48265D02*
X48470Y-48265D01*
X48830Y-48265D02*
X49170Y-48265D01*
X49530Y-48265D02*
X51061Y-48265D01*
X51639Y-48265D02*
X55361Y-48265D01*
X55869Y-48265D02*
X56032Y-48265D01*
X57494Y-48265D02*
X57636Y-48265D01*
X57959Y-48265D02*
X58325Y-48265D01*
X43075Y-48345D02*
X48470Y-48345D01*
X48830Y-48345D02*
X49170Y-48345D01*
X49530Y-48345D02*
X51061Y-48345D01*
X51639Y-48345D02*
X55441Y-48345D01*
X55949Y-48345D02*
X56065Y-48345D01*
X57574Y-48345D02*
X57716Y-48345D01*
X57931Y-48345D02*
X58325Y-48345D01*
X43075Y-48425D02*
X48470Y-48425D01*
X48830Y-48425D02*
X49170Y-48425D01*
X49530Y-48425D02*
X51089Y-48425D01*
X51884Y-48425D02*
X55521Y-48425D01*
X56029Y-48425D02*
X56117Y-48425D01*
X57654Y-48425D02*
X57796Y-48425D01*
X57883Y-48425D02*
X58325Y-48425D01*
X43075Y-48505D02*
X48470Y-48505D01*
X48830Y-48505D02*
X49170Y-48505D01*
X49530Y-48505D02*
X51147Y-48505D01*
X51953Y-48505D02*
X55601Y-48505D01*
X56109Y-48505D02*
X56197Y-48505D01*
X56703Y-48505D02*
X56770Y-48505D01*
X57734Y-48505D02*
X58325Y-48505D01*
X43075Y-48585D02*
X48470Y-48585D01*
X48830Y-48585D02*
X49170Y-48585D01*
X49530Y-48585D02*
X50786Y-48585D01*
X51016Y-48585D02*
X51170Y-48585D01*
X51986Y-48585D02*
X55681Y-48585D01*
X56189Y-48585D02*
X56770Y-48585D01*
X57724Y-48585D02*
X58325Y-48585D01*
X43075Y-48665D02*
X48470Y-48665D01*
X48830Y-48665D02*
X49170Y-48665D01*
X49530Y-48665D02*
X50677Y-48665D01*
X51124Y-48665D02*
X51170Y-48665D01*
X51989Y-48665D02*
X55761Y-48665D01*
X56269Y-48665D02*
X56770Y-48665D01*
X57637Y-48665D02*
X58325Y-48665D01*
X43075Y-48745D02*
X48470Y-48745D01*
X48830Y-48745D02*
X49170Y-48745D01*
X49530Y-48745D02*
X50631Y-48745D01*
X51170Y-48745D02*
X51170Y-48745D01*
X52050Y-48745D02*
X55841Y-48745D01*
X56596Y-48745D02*
X56770Y-48745D01*
X57733Y-48745D02*
X58325Y-48745D01*
X43075Y-48825D02*
X48470Y-48825D01*
X48830Y-48825D02*
X49170Y-48825D01*
X49530Y-48825D02*
X50611Y-48825D01*
X52130Y-48825D02*
X55921Y-48825D01*
X56733Y-48825D02*
X56770Y-48825D01*
X57704Y-48825D02*
X58325Y-48825D01*
X43075Y-48905D02*
X48470Y-48905D01*
X48830Y-48905D02*
X49170Y-48905D01*
X49530Y-48905D02*
X50611Y-48905D01*
X52210Y-48905D02*
X56001Y-48905D01*
X57624Y-48905D02*
X57766Y-48905D01*
X57916Y-48905D02*
X58325Y-48905D01*
X43075Y-48985D02*
X48470Y-48985D01*
X48830Y-48985D02*
X49170Y-48985D01*
X49530Y-48985D02*
X50643Y-48985D01*
X54440Y-48985D02*
X56053Y-48985D01*
X57544Y-48985D02*
X57686Y-48985D01*
X57950Y-48985D02*
X58325Y-48985D01*
X43075Y-49065D02*
X48470Y-49065D01*
X48830Y-49065D02*
X49170Y-49065D01*
X49530Y-49065D02*
X50706Y-49065D01*
X54520Y-49065D02*
X56020Y-49065D01*
X57464Y-49065D02*
X57606Y-49065D01*
X57966Y-49065D02*
X58325Y-49065D01*
X43075Y-49145D02*
X48470Y-49145D01*
X48830Y-49145D02*
X49170Y-49145D01*
X49530Y-49145D02*
X50770Y-49145D01*
X54600Y-49145D02*
X56020Y-49145D01*
X57384Y-49145D02*
X57526Y-49145D01*
X57970Y-49145D02*
X58325Y-49145D01*
X43075Y-49225D02*
X48470Y-49225D01*
X48830Y-49225D02*
X49170Y-49225D01*
X49530Y-49225D02*
X50770Y-49225D01*
X54663Y-49225D02*
X56020Y-49225D01*
X57454Y-49225D02*
X57596Y-49225D01*
X57973Y-49225D02*
X58325Y-49225D01*
X43075Y-49305D02*
X48470Y-49305D01*
X48830Y-49305D02*
X49170Y-49305D01*
X49530Y-49305D02*
X50770Y-49305D01*
X53853Y-49305D02*
X54250Y-49305D01*
X54680Y-49305D02*
X56048Y-49305D01*
X57534Y-49305D02*
X57676Y-49305D01*
X57945Y-49305D02*
X58325Y-49305D01*
X43075Y-49385D02*
X48470Y-49385D01*
X48830Y-49385D02*
X49170Y-49385D01*
X49530Y-49385D02*
X50770Y-49385D01*
X53886Y-49385D02*
X54320Y-49385D01*
X54680Y-49385D02*
X56081Y-49385D01*
X57614Y-49385D02*
X57756Y-49385D01*
X57917Y-49385D02*
X58325Y-49385D01*
X43075Y-49465D02*
X48470Y-49465D01*
X48830Y-49465D02*
X49170Y-49465D01*
X49530Y-49465D02*
X50770Y-49465D01*
X53889Y-49465D02*
X54320Y-49465D01*
X54680Y-49465D02*
X56157Y-49465D01*
X56743Y-49465D02*
X56770Y-49465D01*
X57694Y-49465D02*
X58325Y-49465D01*
X43075Y-49545D02*
X48402Y-49545D01*
X48899Y-49545D02*
X49170Y-49545D01*
X49530Y-49545D02*
X50770Y-49545D01*
X53873Y-49545D02*
X54320Y-49545D01*
X54680Y-49545D02*
X56280Y-49545D01*
X56620Y-49545D02*
X56770Y-49545D01*
X57734Y-49545D02*
X58325Y-49545D01*
X43075Y-49625D02*
X45698Y-49625D01*
X46046Y-49625D02*
X48369Y-49625D01*
X48932Y-49625D02*
X49170Y-49625D01*
X49530Y-49625D02*
X50770Y-49625D01*
X51130Y-49625D02*
X51166Y-49625D01*
X53833Y-49625D02*
X54320Y-49625D01*
X54680Y-49625D02*
X56770Y-49625D01*
X57672Y-49625D02*
X58325Y-49625D01*
X43075Y-49705D02*
X44498Y-49705D01*
X44746Y-49705D02*
X45127Y-49705D01*
X45375Y-49705D02*
X45612Y-49705D01*
X46147Y-49705D02*
X48361Y-49705D01*
X48939Y-49705D02*
X49170Y-49705D01*
X49530Y-49705D02*
X50770Y-49705D01*
X51130Y-49705D02*
X51400Y-49705D01*
X53738Y-49705D02*
X54320Y-49705D01*
X54680Y-49705D02*
X56770Y-49705D01*
X57722Y-49705D02*
X58325Y-49705D01*
X43075Y-49785D02*
X44356Y-49785D01*
X44888Y-49785D02*
X44985Y-49785D01*
X45517Y-49785D02*
X45642Y-49785D01*
X46116Y-49785D02*
X48372Y-49785D01*
X48927Y-49785D02*
X49170Y-49785D01*
X49530Y-49785D02*
X50770Y-49785D01*
X51130Y-49785D02*
X51480Y-49785D01*
X53519Y-49785D02*
X54320Y-49785D01*
X54680Y-49785D02*
X56207Y-49785D01*
X56692Y-49785D02*
X56770Y-49785D01*
X57743Y-49785D02*
X58325Y-49785D01*
X43075Y-49865D02*
X44276Y-49865D01*
X45595Y-49865D02*
X45722Y-49865D01*
X46036Y-49865D02*
X46178Y-49865D01*
X46328Y-49865D02*
X48406Y-49865D01*
X48893Y-49865D02*
X49170Y-49865D01*
X49530Y-49865D02*
X50770Y-49865D01*
X51130Y-49865D02*
X51560Y-49865D01*
X53439Y-49865D02*
X54320Y-49865D01*
X54680Y-49865D02*
X56127Y-49865D01*
X57664Y-49865D02*
X57806Y-49865D01*
X57845Y-49865D02*
X58325Y-49865D01*
X43075Y-49945D02*
X44243Y-49945D01*
X45660Y-49945D02*
X45802Y-49945D01*
X45956Y-49945D02*
X46098Y-49945D01*
X46361Y-49945D02*
X48486Y-49945D01*
X48813Y-49945D02*
X49170Y-49945D01*
X49530Y-49945D02*
X50770Y-49945D01*
X51130Y-49945D02*
X51649Y-49945D01*
X53350Y-49945D02*
X54320Y-49945D01*
X54680Y-49945D02*
X56070Y-49945D01*
X57584Y-49945D02*
X57726Y-49945D01*
X57933Y-49945D02*
X58325Y-49945D01*
X43075Y-50025D02*
X44215Y-50025D01*
X45740Y-50025D02*
X46018Y-50025D01*
X46373Y-50025D02*
X49170Y-50025D01*
X49530Y-50025D02*
X50770Y-50025D01*
X51130Y-50025D02*
X54320Y-50025D01*
X54680Y-50025D02*
X56037Y-50025D01*
X57504Y-50025D02*
X57646Y-50025D01*
X57964Y-50025D02*
X58325Y-50025D01*
X43075Y-50105D02*
X44215Y-50105D01*
X45820Y-50105D02*
X45962Y-50105D01*
X46378Y-50105D02*
X49170Y-50105D01*
X49530Y-50105D02*
X50770Y-50105D01*
X51130Y-50105D02*
X54320Y-50105D01*
X54709Y-50105D02*
X56020Y-50105D01*
X57424Y-50105D02*
X57566Y-50105D01*
X57968Y-50105D02*
X58325Y-50105D01*
X43075Y-50185D02*
X44219Y-50185D01*
X45900Y-50185D02*
X46042Y-50185D01*
X46373Y-50185D02*
X49170Y-50185D01*
X49530Y-50185D02*
X50770Y-50185D01*
X51130Y-50185D02*
X54327Y-50185D01*
X54789Y-50185D02*
X56020Y-50185D01*
X57414Y-50185D02*
X57556Y-50185D01*
X57972Y-50185D02*
X58325Y-50185D01*
X43075Y-50265D02*
X44253Y-50265D01*
X45980Y-50265D02*
X46122Y-50265D01*
X46345Y-50265D02*
X49130Y-50265D01*
X49530Y-50265D02*
X50770Y-50265D01*
X51130Y-50265D02*
X54364Y-50265D01*
X54869Y-50265D02*
X56032Y-50265D01*
X57494Y-50265D02*
X57636Y-50265D01*
X57959Y-50265D02*
X58325Y-50265D01*
X43075Y-50345D02*
X44299Y-50345D01*
X46060Y-50345D02*
X46202Y-50345D01*
X46317Y-50345D02*
X49050Y-50345D01*
X49520Y-50345D02*
X50770Y-50345D01*
X51130Y-50345D02*
X52050Y-50345D01*
X57574Y-50345D02*
X57716Y-50345D01*
X57931Y-50345D02*
X58325Y-50345D01*
X43075Y-50425D02*
X44378Y-50425D01*
X46140Y-50425D02*
X48970Y-50425D01*
X49478Y-50425D02*
X50770Y-50425D01*
X51130Y-50425D02*
X51970Y-50425D01*
X57654Y-50425D02*
X57796Y-50425D01*
X57883Y-50425D02*
X58325Y-50425D01*
X43075Y-50505D02*
X44530Y-50505D01*
X46140Y-50505D02*
X48890Y-50505D01*
X49399Y-50505D02*
X50736Y-50505D01*
X51164Y-50505D02*
X51890Y-50505D01*
X56703Y-50505D02*
X56770Y-50505D01*
X57734Y-50505D02*
X58325Y-50505D01*
X43075Y-50585D02*
X44530Y-50585D01*
X45970Y-50585D02*
X47986Y-50585D01*
X48216Y-50585D02*
X48810Y-50585D01*
X49319Y-50585D02*
X50685Y-50585D01*
X51215Y-50585D02*
X51657Y-50585D01*
X56265Y-50585D02*
X56770Y-50585D01*
X57724Y-50585D02*
X58325Y-50585D01*
X43075Y-50665D02*
X44538Y-50665D01*
X45962Y-50665D02*
X47877Y-50665D01*
X48324Y-50665D02*
X48730Y-50665D01*
X49239Y-50665D02*
X50661Y-50665D01*
X51239Y-50665D02*
X51593Y-50665D01*
X52239Y-50665D02*
X56770Y-50665D01*
X57637Y-50665D02*
X58325Y-50665D01*
X43075Y-50745D02*
X44571Y-50745D01*
X45929Y-50745D02*
X47831Y-50745D01*
X49159Y-50745D02*
X50661Y-50745D01*
X51239Y-50745D02*
X51561Y-50745D01*
X52159Y-50745D02*
X56305Y-50745D01*
X56596Y-50745D02*
X56770Y-50745D01*
X57733Y-50745D02*
X58325Y-50745D01*
X43075Y-50825D02*
X44622Y-50825D01*
X45250Y-50825D02*
X45250Y-50825D01*
X45878Y-50825D02*
X47811Y-50825D01*
X49079Y-50825D02*
X50689Y-50825D01*
X51211Y-50825D02*
X51561Y-50825D01*
X52139Y-50825D02*
X52367Y-50825D01*
X52734Y-50825D02*
X56167Y-50825D01*
X56733Y-50825D02*
X56770Y-50825D01*
X57704Y-50825D02*
X58325Y-50825D01*
X43075Y-50905D02*
X44701Y-50905D01*
X45169Y-50905D02*
X45329Y-50905D01*
X45797Y-50905D02*
X47811Y-50905D01*
X48999Y-50905D02*
X50746Y-50905D01*
X51153Y-50905D02*
X51580Y-50905D01*
X52119Y-50905D02*
X52298Y-50905D01*
X52803Y-50905D02*
X56087Y-50905D01*
X57624Y-50905D02*
X57766Y-50905D01*
X57916Y-50905D02*
X58325Y-50905D01*
X43075Y-50985D02*
X47843Y-50985D01*
X48915Y-50985D02*
X50882Y-50985D01*
X51016Y-50985D02*
X51626Y-50985D01*
X52073Y-50985D02*
X52264Y-50985D01*
X52836Y-50985D02*
X56053Y-50985D01*
X57544Y-50985D02*
X57686Y-50985D01*
X57950Y-50985D02*
X58325Y-50985D01*
X43075Y-51065D02*
X47906Y-51065D01*
X48293Y-51065D02*
X51734Y-51065D01*
X51964Y-51065D02*
X52261Y-51065D01*
X52839Y-51065D02*
X56020Y-51065D01*
X57464Y-51065D02*
X57606Y-51065D01*
X57966Y-51065D02*
X58325Y-51065D01*
X43075Y-51145D02*
X52276Y-51145D01*
X52899Y-51145D02*
X56020Y-51145D01*
X57384Y-51145D02*
X57526Y-51145D01*
X57970Y-51145D02*
X58325Y-51145D01*
X43075Y-51225D02*
X52316Y-51225D01*
X52979Y-51225D02*
X56020Y-51225D01*
X57454Y-51225D02*
X57596Y-51225D01*
X57973Y-51225D02*
X58325Y-51225D01*
X43075Y-51305D02*
X52410Y-51305D01*
X53059Y-51305D02*
X56048Y-51305D01*
X57534Y-51305D02*
X57676Y-51305D01*
X57945Y-51305D02*
X58325Y-51305D01*
X43075Y-51385D02*
X52631Y-51385D01*
X53139Y-51385D02*
X56081Y-51385D01*
X57614Y-51385D02*
X57756Y-51385D01*
X57917Y-51385D02*
X58325Y-51385D01*
X43075Y-51465D02*
X43491Y-51465D01*
X44136Y-51465D02*
X46365Y-51465D01*
X47010Y-51465D02*
X52711Y-51465D01*
X53219Y-51465D02*
X56157Y-51465D01*
X57694Y-51465D02*
X58325Y-51465D01*
X43075Y-51545D02*
X43364Y-51545D01*
X44262Y-51545D02*
X46238Y-51545D01*
X47136Y-51545D02*
X52791Y-51545D01*
X57130Y-51545D02*
X57165Y-51545D01*
X57734Y-51545D02*
X58325Y-51545D01*
X43075Y-51625D02*
X43284Y-51625D01*
X44342Y-51625D02*
X46158Y-51625D01*
X47216Y-51625D02*
X52871Y-51625D01*
X57111Y-51625D02*
X57235Y-51625D01*
X57672Y-51625D02*
X58325Y-51625D01*
X43075Y-51705D02*
X43209Y-51705D01*
X44418Y-51705D02*
X46083Y-51705D01*
X47292Y-51705D02*
X52951Y-51705D01*
X57049Y-51705D02*
X57179Y-51705D01*
X57722Y-51705D02*
X58325Y-51705D01*
X43075Y-51785D02*
X43175Y-51785D01*
X44451Y-51785D02*
X46049Y-51785D01*
X47325Y-51785D02*
X53031Y-51785D01*
X56969Y-51785D02*
X57158Y-51785D01*
X57743Y-51785D02*
X58325Y-51785D01*
X43075Y-51865D02*
X43142Y-51865D01*
X44485Y-51865D02*
X46016Y-51865D01*
X47359Y-51865D02*
X53129Y-51865D01*
X56870Y-51865D02*
X57056Y-51865D01*
X57094Y-51865D02*
X57236Y-51865D01*
X57664Y-51865D02*
X57806Y-51865D01*
X57845Y-51865D02*
X58325Y-51865D01*
X43075Y-51945D02*
X43109Y-51945D01*
X44518Y-51945D02*
X45983Y-51945D01*
X47392Y-51945D02*
X56070Y-51945D01*
X56831Y-51945D02*
X56972Y-51945D01*
X57174Y-51945D02*
X57316Y-51945D01*
X57584Y-51945D02*
X57726Y-51945D01*
X57933Y-51945D02*
X58325Y-51945D01*
X43075Y-52025D02*
X43103Y-52025D01*
X44523Y-52025D02*
X45977Y-52025D01*
X47397Y-52025D02*
X56037Y-52025D01*
X56864Y-52025D02*
X56944Y-52025D01*
X57254Y-52025D02*
X57396Y-52025D01*
X57504Y-52025D02*
X57646Y-52025D01*
X57964Y-52025D02*
X58325Y-52025D01*
X43075Y-52105D02*
X43103Y-52105D01*
X44523Y-52105D02*
X45977Y-52105D01*
X47397Y-52105D02*
X56020Y-52105D01*
X56880Y-52105D02*
X56927Y-52105D01*
X57334Y-52105D02*
X57566Y-52105D01*
X57968Y-52105D02*
X58325Y-52105D01*
X43075Y-52185D02*
X43103Y-52185D01*
X44523Y-52185D02*
X45977Y-52185D01*
X47397Y-52185D02*
X56020Y-52185D01*
X56880Y-52185D02*
X56931Y-52185D01*
X57344Y-52185D02*
X57556Y-52185D01*
X57972Y-52185D02*
X58325Y-52185D01*
X43075Y-52265D02*
X43112Y-52265D01*
X44513Y-52265D02*
X45986Y-52265D01*
X47387Y-52265D02*
X56032Y-52265D01*
X56867Y-52265D02*
X56936Y-52265D01*
X57264Y-52265D02*
X57406Y-52265D01*
X57494Y-52265D02*
X57636Y-52265D01*
X57959Y-52265D02*
X58325Y-52265D01*
X43075Y-52345D02*
X43146Y-52345D01*
X44479Y-52345D02*
X46020Y-52345D01*
X47353Y-52345D02*
X56065Y-52345D01*
X56834Y-52345D02*
X56963Y-52345D01*
X57184Y-52345D02*
X57326Y-52345D01*
X57574Y-52345D02*
X57716Y-52345D01*
X57931Y-52345D02*
X58325Y-52345D01*
X43075Y-52425D02*
X43179Y-52425D01*
X44446Y-52425D02*
X46053Y-52425D01*
X47320Y-52425D02*
X56117Y-52425D01*
X56783Y-52425D02*
X57017Y-52425D01*
X57104Y-52425D02*
X57246Y-52425D01*
X57654Y-52425D02*
X57796Y-52425D01*
X57883Y-52425D02*
X58325Y-52425D01*
X43075Y-52505D02*
X43214Y-52505D01*
X44412Y-52505D02*
X46088Y-52505D01*
X47286Y-52505D02*
X56197Y-52505D01*
X56703Y-52505D02*
X57166Y-52505D01*
X57734Y-52505D02*
X58325Y-52505D01*
X43075Y-52585D02*
X43294Y-52585D01*
X44332Y-52585D02*
X46168Y-52585D01*
X47206Y-52585D02*
X57175Y-52585D01*
X57724Y-52585D02*
X58325Y-52585D01*
X43075Y-52665D02*
X43374Y-52665D01*
X44252Y-52665D02*
X46248Y-52665D01*
X47126Y-52665D02*
X57352Y-52665D01*
X57544Y-52665D02*
X58325Y-52665D01*
X43075Y-52745D02*
X43514Y-52745D01*
X44111Y-52745D02*
X46388Y-52745D01*
X46985Y-52745D02*
X58325Y-52745D01*
X43075Y-52825D02*
X58325Y-52825D01*
X43075Y-52905D02*
X58325Y-52905D01*
X43075Y-52985D02*
X58325Y-52985D01*
X43075Y-53065D02*
X58325Y-53065D01*
X43075Y-53145D02*
X58325Y-53145D01*
X43075Y-53225D02*
X58325Y-53225D01*
X43075Y-53305D02*
X58325Y-53305D01*
X43075Y-53385D02*
X58325Y-53385D01*
X43075Y-53465D02*
X58325Y-53465D01*
X43075Y-53545D02*
X58325Y-53545D01*
X43075Y-53625D02*
X58325Y-53625D01*
X58325Y-53675D02*
X58325Y-41225D01*
X43075Y-41225D01*
X43075Y-53675D01*
X43672Y-53675D01*
X43672Y-52810D01*
X43411Y-52702D01*
X43211Y-52502D01*
X43103Y-52241D01*
X43103Y-51959D01*
X43211Y-51698D01*
X43411Y-51498D01*
X43672Y-51390D01*
X43954Y-51390D01*
X44215Y-51498D01*
X44415Y-51698D01*
X44523Y-51959D01*
X44523Y-52241D01*
X44415Y-52502D01*
X44215Y-52702D01*
X43954Y-52810D01*
X43672Y-52810D01*
X43672Y-53675D01*
X45483Y-53675D01*
X45483Y-50971D01*
X45333Y-50909D01*
X45250Y-50825D01*
X45165Y-50909D01*
X45016Y-50971D01*
X44855Y-50971D01*
X44705Y-50909D01*
X44592Y-50794D01*
X44530Y-50645D01*
X44530Y-50494D01*
X44390Y-50437D01*
X44277Y-50322D01*
X44215Y-50173D01*
X44215Y-50012D01*
X44277Y-49862D01*
X44392Y-49749D01*
X44541Y-49687D01*
X44702Y-49687D01*
X44852Y-49749D01*
X44935Y-49833D01*
X45021Y-49749D01*
X45170Y-49687D01*
X45331Y-49687D01*
X45481Y-49749D01*
X45594Y-49864D01*
X45604Y-49889D01*
X45808Y-50093D01*
X45879Y-50164D01*
X45879Y-50022D01*
X45602Y-49745D01*
X45621Y-49664D01*
X45621Y-43449D01*
X45566Y-43427D01*
X45524Y-43385D01*
X45501Y-43330D01*
X45501Y-42671D01*
X45523Y-42616D01*
X45565Y-42574D01*
X45620Y-42551D01*
X45860Y-42551D01*
X45860Y-42449D01*
X45695Y-42380D01*
X45569Y-42254D01*
X45501Y-42089D01*
X45501Y-41910D01*
X45570Y-41745D01*
X45696Y-41619D01*
X45861Y-41551D01*
X46040Y-41551D01*
X46205Y-41620D01*
X46331Y-41746D01*
X46399Y-41911D01*
X46399Y-42090D01*
X46330Y-42255D01*
X46204Y-42381D01*
X46039Y-42449D01*
X45860Y-42449D01*
X45860Y-42551D01*
X46279Y-42551D01*
X46334Y-42573D01*
X46376Y-42615D01*
X46399Y-42670D01*
X46399Y-43329D01*
X46377Y-43384D01*
X46335Y-43426D01*
X46280Y-43449D01*
X45621Y-43449D01*
X45621Y-49664D01*
X45623Y-49656D01*
X45751Y-49603D01*
X45942Y-49591D01*
X45942Y-46889D01*
X45836Y-46845D01*
X45755Y-46763D01*
X45711Y-46657D01*
X45711Y-46542D01*
X45755Y-46436D01*
X45837Y-46355D01*
X45943Y-46311D01*
X46035Y-46311D01*
X46373Y-45973D01*
X46431Y-45934D01*
X46500Y-45920D01*
X46621Y-45920D01*
X46687Y-45855D01*
X46793Y-45811D01*
X46860Y-45811D01*
X46860Y-43449D01*
X46695Y-43380D01*
X46569Y-43254D01*
X46501Y-43089D01*
X46501Y-42910D01*
X46570Y-42745D01*
X46696Y-42619D01*
X46860Y-42551D01*
X46860Y-42449D01*
X46695Y-42380D01*
X46569Y-42254D01*
X46501Y-42089D01*
X46501Y-41910D01*
X46570Y-41745D01*
X46696Y-41619D01*
X46861Y-41551D01*
X47040Y-41551D01*
X47205Y-41620D01*
X47331Y-41746D01*
X47399Y-41911D01*
X47399Y-42090D01*
X47330Y-42255D01*
X47204Y-42381D01*
X47039Y-42449D01*
X46860Y-42449D01*
X46860Y-42551D01*
X47040Y-42551D01*
X47205Y-42620D01*
X47331Y-42746D01*
X47399Y-42911D01*
X47399Y-43090D01*
X47330Y-43255D01*
X47204Y-43381D01*
X47039Y-43449D01*
X46860Y-43449D01*
X46860Y-45811D01*
X46908Y-45811D01*
X47014Y-45855D01*
X47095Y-45937D01*
X47139Y-46043D01*
X47139Y-46158D01*
X47095Y-46264D01*
X47013Y-46345D01*
X46907Y-46389D01*
X46792Y-46389D01*
X46686Y-46345D01*
X46621Y-46280D01*
X46574Y-46280D01*
X46289Y-46565D01*
X46289Y-46658D01*
X46245Y-46764D01*
X46163Y-46845D01*
X46057Y-46889D01*
X45942Y-46889D01*
X45942Y-49591D01*
X45948Y-49591D01*
X46135Y-49656D01*
X46156Y-49745D01*
X45879Y-50022D01*
X45879Y-50164D01*
X46156Y-50441D01*
X46135Y-50530D01*
X46007Y-50583D01*
X45970Y-50585D01*
X45970Y-50646D01*
X45908Y-50796D01*
X45793Y-50909D01*
X45644Y-50971D01*
X45483Y-50971D01*
X45483Y-53675D01*
X46546Y-53675D01*
X46546Y-52810D01*
X46285Y-52702D01*
X46085Y-52502D01*
X45977Y-52241D01*
X45977Y-51959D01*
X46085Y-51698D01*
X46227Y-51556D01*
X46227Y-50370D01*
X45950Y-50093D01*
X46227Y-49816D01*
X46316Y-49837D01*
X46369Y-49965D01*
X46381Y-50162D01*
X46316Y-50349D01*
X46227Y-50370D01*
X46227Y-51556D01*
X46285Y-51498D01*
X46546Y-51390D01*
X46828Y-51390D01*
X47089Y-51498D01*
X47289Y-51698D01*
X47397Y-51959D01*
X47397Y-52241D01*
X47289Y-52502D01*
X47089Y-52702D01*
X46828Y-52810D01*
X46546Y-52810D01*
X46546Y-53675D01*
X48042Y-53675D01*
X48042Y-51139D01*
X47936Y-51095D01*
X47855Y-51013D01*
X47811Y-50907D01*
X47811Y-50792D01*
X47855Y-50686D01*
X47860Y-50681D01*
X47860Y-43449D01*
X47695Y-43380D01*
X47569Y-43254D01*
X47501Y-43089D01*
X47501Y-42910D01*
X47570Y-42745D01*
X47696Y-42619D01*
X47860Y-42551D01*
X47860Y-42449D01*
X47695Y-42380D01*
X47569Y-42254D01*
X47501Y-42089D01*
X47501Y-41910D01*
X47570Y-41745D01*
X47696Y-41619D01*
X47861Y-41551D01*
X48040Y-41551D01*
X48205Y-41620D01*
X48331Y-41746D01*
X48399Y-41911D01*
X48399Y-42090D01*
X48330Y-42255D01*
X48204Y-42381D01*
X48039Y-42449D01*
X47860Y-42449D01*
X47860Y-42551D01*
X48040Y-42551D01*
X48205Y-42620D01*
X48331Y-42746D01*
X48399Y-42911D01*
X48399Y-43090D01*
X48330Y-43255D01*
X48204Y-43381D01*
X48039Y-43449D01*
X47860Y-43449D01*
X47860Y-50681D01*
X47937Y-50605D01*
X48043Y-50561D01*
X48158Y-50561D01*
X48264Y-50605D01*
X48328Y-50670D01*
X48725Y-50670D01*
X49170Y-50225D01*
X49170Y-47529D01*
X49086Y-47495D01*
X49077Y-47486D01*
X49045Y-47564D01*
X48963Y-47645D01*
X48857Y-47689D01*
X48830Y-47689D01*
X48830Y-49471D01*
X48895Y-49537D01*
X48939Y-49643D01*
X48939Y-49758D01*
X48895Y-49864D01*
X48813Y-49945D01*
X48707Y-49989D01*
X48592Y-49989D01*
X48486Y-49945D01*
X48405Y-49863D01*
X48361Y-49757D01*
X48361Y-49642D01*
X48405Y-49536D01*
X48470Y-49471D01*
X48470Y-47550D01*
X48484Y-47481D01*
X48511Y-47440D01*
X48511Y-47342D01*
X48555Y-47236D01*
X48637Y-47155D01*
X48743Y-47111D01*
X48860Y-47111D01*
X48860Y-43449D01*
X48695Y-43380D01*
X48569Y-43254D01*
X48501Y-43089D01*
X48501Y-42910D01*
X48570Y-42745D01*
X48696Y-42619D01*
X48860Y-42551D01*
X48860Y-42449D01*
X48695Y-42380D01*
X48569Y-42254D01*
X48501Y-42089D01*
X48501Y-41910D01*
X48570Y-41745D01*
X48696Y-41619D01*
X48861Y-41551D01*
X49040Y-41551D01*
X49205Y-41620D01*
X49331Y-41746D01*
X49399Y-41911D01*
X49399Y-42090D01*
X49330Y-42255D01*
X49204Y-42381D01*
X49039Y-42449D01*
X48860Y-42449D01*
X48860Y-42551D01*
X49040Y-42551D01*
X49205Y-42620D01*
X49331Y-42746D01*
X49399Y-42911D01*
X49399Y-43090D01*
X49330Y-43255D01*
X49204Y-43381D01*
X49039Y-43449D01*
X48860Y-43449D01*
X48860Y-47111D01*
X48964Y-47155D01*
X48972Y-47163D01*
X49005Y-47086D01*
X49087Y-47005D01*
X49193Y-46961D01*
X49308Y-46961D01*
X49414Y-47005D01*
X49495Y-47087D01*
X49539Y-47193D01*
X49539Y-47308D01*
X49527Y-47336D01*
X49530Y-47350D01*
X49530Y-50300D01*
X49516Y-50369D01*
X49477Y-50428D01*
X48927Y-50977D01*
X48869Y-51016D01*
X48800Y-51030D01*
X48328Y-51030D01*
X48263Y-51095D01*
X48157Y-51139D01*
X48042Y-51139D01*
X48042Y-53675D01*
X56364Y-53675D01*
X56364Y-52580D01*
X56206Y-52514D01*
X56085Y-52393D01*
X56020Y-52235D01*
X56020Y-52064D01*
X56086Y-51906D01*
X56112Y-51880D01*
X53200Y-51880D01*
X53131Y-51866D01*
X53073Y-51827D01*
X52585Y-51339D01*
X52492Y-51339D01*
X52386Y-51295D01*
X52305Y-51213D01*
X52261Y-51107D01*
X52261Y-50992D01*
X52305Y-50886D01*
X52387Y-50805D01*
X52493Y-50761D01*
X52608Y-50761D01*
X52714Y-50805D01*
X52795Y-50887D01*
X52839Y-50993D01*
X52839Y-51085D01*
X53274Y-51520D01*
X56220Y-51520D01*
X56206Y-51514D01*
X56085Y-51393D01*
X56020Y-51235D01*
X56020Y-51064D01*
X56086Y-50906D01*
X56207Y-50785D01*
X56365Y-50720D01*
X56536Y-50720D01*
X56694Y-50786D01*
X56770Y-50862D01*
X56770Y-50438D01*
X56693Y-50515D01*
X56535Y-50580D01*
X56364Y-50580D01*
X56300Y-50553D01*
X56277Y-50577D01*
X56219Y-50616D01*
X56150Y-50630D01*
X52274Y-50630D01*
X52139Y-50765D01*
X52139Y-50858D01*
X52095Y-50964D01*
X52013Y-51045D01*
X51907Y-51089D01*
X51792Y-51089D01*
X51686Y-51045D01*
X51605Y-50963D01*
X51561Y-50857D01*
X51561Y-50742D01*
X51605Y-50636D01*
X51687Y-50555D01*
X51793Y-50511D01*
X51884Y-50511D01*
X52072Y-50323D01*
X52095Y-50307D01*
X52131Y-50284D01*
X52200Y-50270D01*
X54368Y-50270D01*
X54334Y-50219D01*
X54320Y-50150D01*
X54320Y-49374D01*
X54225Y-49280D01*
X53838Y-49280D01*
X53845Y-49287D01*
X53889Y-49393D01*
X53889Y-49508D01*
X53845Y-49614D01*
X53763Y-49695D01*
X53657Y-49739D01*
X53565Y-49739D01*
X53377Y-49927D01*
X53319Y-49966D01*
X53250Y-49980D01*
X51750Y-49980D01*
X51681Y-49966D01*
X51622Y-49927D01*
X51384Y-49689D01*
X51292Y-49689D01*
X51186Y-49645D01*
X51130Y-49588D01*
X51130Y-50471D01*
X51195Y-50537D01*
X51239Y-50643D01*
X51239Y-50758D01*
X51195Y-50864D01*
X51113Y-50945D01*
X51007Y-50989D01*
X50892Y-50989D01*
X50786Y-50945D01*
X50705Y-50863D01*
X50661Y-50757D01*
X50661Y-50642D01*
X50705Y-50536D01*
X50770Y-50471D01*
X50770Y-49109D01*
X50736Y-49095D01*
X50655Y-49013D01*
X50611Y-48907D01*
X50611Y-48792D01*
X50655Y-48686D01*
X50737Y-48605D01*
X50843Y-48561D01*
X50958Y-48561D01*
X51064Y-48605D01*
X51145Y-48687D01*
X51170Y-48747D01*
X51170Y-48528D01*
X51105Y-48463D01*
X51061Y-48357D01*
X51061Y-48242D01*
X51105Y-48136D01*
X51187Y-48055D01*
X51247Y-48030D01*
X50450Y-48030D01*
X50381Y-48016D01*
X50322Y-47977D01*
X50234Y-47889D01*
X50142Y-47889D01*
X50036Y-47845D01*
X49955Y-47763D01*
X49911Y-47657D01*
X49911Y-47542D01*
X49955Y-47436D01*
X50037Y-47355D01*
X50143Y-47311D01*
X50258Y-47311D01*
X50364Y-47355D01*
X50445Y-47437D01*
X50489Y-47543D01*
X50489Y-47634D01*
X50524Y-47670D01*
X51971Y-47670D01*
X52037Y-47605D01*
X52143Y-47561D01*
X52258Y-47561D01*
X52364Y-47605D01*
X52445Y-47687D01*
X52489Y-47793D01*
X52489Y-47908D01*
X52445Y-48014D01*
X52363Y-48095D01*
X52257Y-48139D01*
X52142Y-48139D01*
X52036Y-48095D01*
X51971Y-48030D01*
X51453Y-48030D01*
X51514Y-48055D01*
X51595Y-48137D01*
X51639Y-48243D01*
X51639Y-48358D01*
X51636Y-48363D01*
X51643Y-48361D01*
X51758Y-48361D01*
X51864Y-48405D01*
X51945Y-48487D01*
X51989Y-48593D01*
X51989Y-48684D01*
X52224Y-48920D01*
X52992Y-48920D01*
X52992Y-46989D01*
X52886Y-46945D01*
X52814Y-46872D01*
X52781Y-46866D01*
X52722Y-46826D01*
X51035Y-45139D01*
X50942Y-45139D01*
X50836Y-45095D01*
X50755Y-45013D01*
X50711Y-44907D01*
X50711Y-44792D01*
X50715Y-44780D01*
X50374Y-44779D01*
X49989Y-45165D01*
X49989Y-45258D01*
X49945Y-45364D01*
X49863Y-45445D01*
X49757Y-45489D01*
X49642Y-45489D01*
X49555Y-45453D01*
X49513Y-45495D01*
X49407Y-45539D01*
X49292Y-45539D01*
X49186Y-45495D01*
X49105Y-45413D01*
X49061Y-45307D01*
X49061Y-45192D01*
X49105Y-45086D01*
X49187Y-45005D01*
X49293Y-44961D01*
X49384Y-44960D01*
X49572Y-44772D01*
X49572Y-43308D01*
X49478Y-43281D01*
X49418Y-43134D01*
X49407Y-42921D01*
X49478Y-42719D01*
X49572Y-42692D01*
X49860Y-42980D01*
X49879Y-43000D01*
X49860Y-43019D01*
X49572Y-43308D01*
X49572Y-44772D01*
X49860Y-44485D01*
X49871Y-44473D01*
X49871Y-43543D01*
X49860Y-43539D01*
X49669Y-43472D01*
X49642Y-43378D01*
X49860Y-43160D01*
X49950Y-43071D01*
X49950Y-42929D01*
X49860Y-42839D01*
X49642Y-42622D01*
X49669Y-42528D01*
X49816Y-42468D01*
X49860Y-42465D01*
X49860Y-42449D01*
X49695Y-42380D01*
X49569Y-42254D01*
X49501Y-42089D01*
X49501Y-41910D01*
X49570Y-41745D01*
X49696Y-41619D01*
X49861Y-41551D01*
X50040Y-41551D01*
X50205Y-41620D01*
X50331Y-41746D01*
X50399Y-41911D01*
X50399Y-42090D01*
X50330Y-42255D01*
X50204Y-42381D01*
X50039Y-42449D01*
X49860Y-42449D01*
X49860Y-42465D01*
X50029Y-42457D01*
X50231Y-42528D01*
X50258Y-42622D01*
X49950Y-42929D01*
X49950Y-43071D01*
X50258Y-43378D01*
X50231Y-43472D01*
X50084Y-43532D01*
X49871Y-43543D01*
X49871Y-44473D01*
X50122Y-44223D01*
X50181Y-44184D01*
X50250Y-44170D01*
X50328Y-44170D01*
X50328Y-43308D01*
X50021Y-43000D01*
X50328Y-42692D01*
X50422Y-42719D01*
X50482Y-42866D01*
X50493Y-43079D01*
X50422Y-43281D01*
X50328Y-43308D01*
X50328Y-44170D01*
X50621Y-44170D01*
X50687Y-44105D01*
X50793Y-44061D01*
X50908Y-44061D01*
X51014Y-44105D01*
X51095Y-44187D01*
X51139Y-44293D01*
X51139Y-44408D01*
X51134Y-44420D01*
X51821Y-44420D01*
X51887Y-44355D01*
X51993Y-44311D01*
X52108Y-44311D01*
X52214Y-44355D01*
X52295Y-44437D01*
X52339Y-44543D01*
X52339Y-44658D01*
X52295Y-44764D01*
X52213Y-44845D01*
X52107Y-44889D01*
X51992Y-44889D01*
X51886Y-44845D01*
X51821Y-44780D01*
X51283Y-44780D01*
X51289Y-44793D01*
X51289Y-44885D01*
X52872Y-46468D01*
X52887Y-46455D01*
X52993Y-46411D01*
X53108Y-46411D01*
X53214Y-46455D01*
X53295Y-46537D01*
X53339Y-46643D01*
X53339Y-46758D01*
X53295Y-46864D01*
X53213Y-46945D01*
X53107Y-46989D01*
X52992Y-46989D01*
X52992Y-48920D01*
X54300Y-48920D01*
X54369Y-48934D01*
X54427Y-48973D01*
X54627Y-49172D01*
X54666Y-49231D01*
X54680Y-49300D01*
X54680Y-50076D01*
X54874Y-50270D01*
X56034Y-50270D01*
X56020Y-50235D01*
X56020Y-50064D01*
X56086Y-49906D01*
X56207Y-49785D01*
X56365Y-49720D01*
X56536Y-49720D01*
X56694Y-49786D01*
X56770Y-49862D01*
X56770Y-49438D01*
X56693Y-49515D01*
X56535Y-49580D01*
X56364Y-49580D01*
X56206Y-49514D01*
X56085Y-49393D01*
X56020Y-49235D01*
X56020Y-49064D01*
X56061Y-48965D01*
X52685Y-45589D01*
X52592Y-45589D01*
X52486Y-45545D01*
X52405Y-45463D01*
X52361Y-45357D01*
X52361Y-45242D01*
X52405Y-45136D01*
X52487Y-45055D01*
X52593Y-45011D01*
X52708Y-45011D01*
X52814Y-45055D01*
X52895Y-45137D01*
X52939Y-45243D01*
X52939Y-45335D01*
X56335Y-48731D01*
X56365Y-48720D01*
X56536Y-48720D01*
X56694Y-48786D01*
X56770Y-48862D01*
X56770Y-48438D01*
X56693Y-48515D01*
X56535Y-48580D01*
X56364Y-48580D01*
X56206Y-48514D01*
X56085Y-48393D01*
X56020Y-48235D01*
X56020Y-48064D01*
X56086Y-47906D01*
X56207Y-47785D01*
X56365Y-47720D01*
X56536Y-47720D01*
X56694Y-47786D01*
X56770Y-47862D01*
X56770Y-47438D01*
X56693Y-47515D01*
X56535Y-47580D01*
X56364Y-47580D01*
X56206Y-47514D01*
X56085Y-47393D01*
X56020Y-47235D01*
X56020Y-47064D01*
X56086Y-46906D01*
X56207Y-46785D01*
X56365Y-46720D01*
X56536Y-46720D01*
X56694Y-46786D01*
X56770Y-46862D01*
X56770Y-46438D01*
X56693Y-46515D01*
X56535Y-46580D01*
X56364Y-46580D01*
X56206Y-46514D01*
X56085Y-46393D01*
X56020Y-46235D01*
X56020Y-46064D01*
X56086Y-45906D01*
X56207Y-45785D01*
X56365Y-45720D01*
X56536Y-45720D01*
X56694Y-45786D01*
X56770Y-45862D01*
X56770Y-45438D01*
X56693Y-45515D01*
X56535Y-45580D01*
X56364Y-45580D01*
X56206Y-45514D01*
X56085Y-45393D01*
X56020Y-45235D01*
X56020Y-45064D01*
X56086Y-44906D01*
X56207Y-44785D01*
X56365Y-44720D01*
X56536Y-44720D01*
X56694Y-44786D01*
X56770Y-44862D01*
X56770Y-44724D01*
X56599Y-44553D01*
X56535Y-44580D01*
X56364Y-44580D01*
X56206Y-44514D01*
X56085Y-44393D01*
X56020Y-44235D01*
X56020Y-44064D01*
X56086Y-43906D01*
X56207Y-43785D01*
X56364Y-43720D01*
X56364Y-43580D01*
X56206Y-43514D01*
X56085Y-43393D01*
X56020Y-43235D01*
X56020Y-43064D01*
X56086Y-42906D01*
X56207Y-42785D01*
X56365Y-42720D01*
X56536Y-42720D01*
X56694Y-42786D01*
X56815Y-42907D01*
X56880Y-43065D01*
X56880Y-43236D01*
X56814Y-43394D01*
X56693Y-43515D01*
X56535Y-43580D01*
X56364Y-43580D01*
X56364Y-43720D01*
X56536Y-43720D01*
X56694Y-43786D01*
X56815Y-43907D01*
X56880Y-44065D01*
X56880Y-44236D01*
X56853Y-44299D01*
X57077Y-44523D01*
X57086Y-44536D01*
X57116Y-44581D01*
X57130Y-44650D01*
X57130Y-44779D01*
X57140Y-44769D01*
X57157Y-44786D01*
X57181Y-44694D01*
X57296Y-44646D01*
X57181Y-44606D01*
X57157Y-44514D01*
X57140Y-44531D01*
X57086Y-44477D01*
X57069Y-44460D01*
X57086Y-44443D01*
X56994Y-44419D01*
X56937Y-44282D01*
X56926Y-44076D01*
X56994Y-43881D01*
X57086Y-43857D01*
X57379Y-44150D01*
X57450Y-44221D01*
X57450Y-44079D01*
X57157Y-43786D01*
X57181Y-43694D01*
X57318Y-43637D01*
X57364Y-43634D01*
X57364Y-43580D01*
X57206Y-43514D01*
X57085Y-43393D01*
X57020Y-43235D01*
X57020Y-43064D01*
X57086Y-42906D01*
X57207Y-42785D01*
X57365Y-42720D01*
X57536Y-42720D01*
X57694Y-42786D01*
X57815Y-42907D01*
X57880Y-43065D01*
X57880Y-43236D01*
X57814Y-43394D01*
X57693Y-43515D01*
X57535Y-43580D01*
X57364Y-43580D01*
X57364Y-43634D01*
X57524Y-43626D01*
X57719Y-43694D01*
X57743Y-43786D01*
X57450Y-44079D01*
X57450Y-44221D01*
X57743Y-44514D01*
X57719Y-44606D01*
X57603Y-44653D01*
X57719Y-44694D01*
X57743Y-44786D01*
X57450Y-45079D01*
X57379Y-45150D01*
X57450Y-45221D01*
X57743Y-45514D01*
X57719Y-45606D01*
X57603Y-45653D01*
X57719Y-45694D01*
X57743Y-45786D01*
X57450Y-46079D01*
X57379Y-46150D01*
X57450Y-46221D01*
X57743Y-46514D01*
X57719Y-46606D01*
X57603Y-46653D01*
X57719Y-46694D01*
X57743Y-46786D01*
X57450Y-47079D01*
X57379Y-47150D01*
X57450Y-47221D01*
X57743Y-47514D01*
X57719Y-47606D01*
X57603Y-47653D01*
X57719Y-47694D01*
X57743Y-47786D01*
X57450Y-48079D01*
X57379Y-48150D01*
X57450Y-48221D01*
X57743Y-48514D01*
X57719Y-48606D01*
X57603Y-48653D01*
X57719Y-48694D01*
X57743Y-48786D01*
X57450Y-49079D01*
X57379Y-49150D01*
X57450Y-49221D01*
X57743Y-49514D01*
X57719Y-49606D01*
X57603Y-49653D01*
X57719Y-49694D01*
X57743Y-49786D01*
X57450Y-50079D01*
X57379Y-50150D01*
X57450Y-50221D01*
X57743Y-50514D01*
X57719Y-50606D01*
X57603Y-50653D01*
X57719Y-50694D01*
X57743Y-50786D01*
X57450Y-51079D01*
X57379Y-51150D01*
X57450Y-51221D01*
X57743Y-51514D01*
X57719Y-51606D01*
X57603Y-51653D01*
X57719Y-51694D01*
X57743Y-51786D01*
X57450Y-52079D01*
X57157Y-51786D01*
X57181Y-51694D01*
X57296Y-51646D01*
X57181Y-51606D01*
X57157Y-51514D01*
X57140Y-51531D01*
X57130Y-51521D01*
X57130Y-51550D01*
X57116Y-51619D01*
X57077Y-51677D01*
X56927Y-51827D01*
X56869Y-51866D01*
X56800Y-51880D01*
X56787Y-51880D01*
X56815Y-51907D01*
X56880Y-52065D01*
X56880Y-52236D01*
X56814Y-52394D01*
X56693Y-52515D01*
X56535Y-52580D01*
X56364Y-52580D01*
X56364Y-53675D01*
X57086Y-53675D01*
X57086Y-52443D01*
X56994Y-52419D01*
X56937Y-52282D01*
X56926Y-52076D01*
X56994Y-51881D01*
X57086Y-51857D01*
X57379Y-52150D01*
X57086Y-52443D01*
X57086Y-53675D01*
X57376Y-53675D01*
X57376Y-52674D01*
X57364Y-52669D01*
X57181Y-52606D01*
X57157Y-52514D01*
X57450Y-52221D01*
X57743Y-52514D01*
X57719Y-52606D01*
X57582Y-52663D01*
X57376Y-52674D01*
X57376Y-53675D01*
X57814Y-53675D01*
X57814Y-52443D01*
X57521Y-52150D01*
X57814Y-51857D01*
X57814Y-51443D01*
X57521Y-51150D01*
X57814Y-50857D01*
X57814Y-50443D01*
X57521Y-50150D01*
X57814Y-49857D01*
X57814Y-49443D01*
X57521Y-49150D01*
X57814Y-48857D01*
X57814Y-48443D01*
X57521Y-48150D01*
X57814Y-47857D01*
X57814Y-47443D01*
X57521Y-47150D01*
X57814Y-46857D01*
X57814Y-46443D01*
X57521Y-46150D01*
X57814Y-45857D01*
X57814Y-45443D01*
X57521Y-45150D01*
X57814Y-44857D01*
X57814Y-44443D01*
X57521Y-44150D01*
X57814Y-43857D01*
X57906Y-43881D01*
X57963Y-44018D01*
X57974Y-44224D01*
X57906Y-44419D01*
X57814Y-44443D01*
X57814Y-44857D01*
X57906Y-44881D01*
X57963Y-45018D01*
X57974Y-45224D01*
X57906Y-45419D01*
X57814Y-45443D01*
X57814Y-45857D01*
X57906Y-45881D01*
X57963Y-46018D01*
X57974Y-46224D01*
X57906Y-46419D01*
X57814Y-46443D01*
X57814Y-46857D01*
X57906Y-46881D01*
X57963Y-47018D01*
X57974Y-47224D01*
X57906Y-47419D01*
X57814Y-47443D01*
X57814Y-47857D01*
X57906Y-47881D01*
X57963Y-48018D01*
X57974Y-48224D01*
X57906Y-48419D01*
X57814Y-48443D01*
X57814Y-48857D01*
X57906Y-48881D01*
X57963Y-49018D01*
X57974Y-49224D01*
X57906Y-49419D01*
X57814Y-49443D01*
X57814Y-49857D01*
X57906Y-49881D01*
X57963Y-50018D01*
X57974Y-50224D01*
X57906Y-50419D01*
X57814Y-50443D01*
X57814Y-50857D01*
X57906Y-50881D01*
X57963Y-51018D01*
X57974Y-51224D01*
X57906Y-51419D01*
X57814Y-51443D01*
X57814Y-51857D01*
X57906Y-51881D01*
X57963Y-52018D01*
X57974Y-52224D01*
X57906Y-52419D01*
X57814Y-52443D01*
X57814Y-53675D01*
X58325Y-53675D01*
M02*
