M48
;DRILL file {PCBnew (2010-03-14)-final} date jue 03 nov 2011 22:05:55 ART
;FORMAT={-.-/ absolute / metric / decimal}
R,T
VER,1
FMAT,2
METRIC,TZ
TCST,OFF
ICI,OFF
ATC,ON
T1C0.300
T2C0.635
T3C0.798
T4C0.800
T5C0.914
T6C1.016
T7C1.900
%
M47
G05
M71
T1
X127.254Y89.408
X127.254Y90.424
X127.254Y91.440
X128.270Y89.408
X128.270Y90.424
X128.270Y91.440
T2
X111.506Y120.904
X114.808Y90.170
X115.443Y94.234
X116.078Y89.027
X116.205Y91.948
X116.840Y118.364
X118.364Y97.282
X118.999Y117.094
X119.634Y80.645
X121.285Y98.489
X121.539Y96.774
X121.539Y119.126
X121.793Y80.264
X121.793Y85.344
X122.174Y129.159
X122.428Y95.123
X123.444Y77.724
X123.571Y126.238
X123.952Y120.396
X125.095Y120.015
X125.222Y94.298
X125.349Y114.935
X125.984Y118.618
X126.111Y87.249
X126.238Y114.808
X127.000Y100.203
X127.508Y120.904
X127.953Y80.201
X128.651Y97.917
X129.032Y93.726
X129.159Y112.649
X129.286Y124.079
X129.413Y128.778
X129.540Y113.919
X130.429Y122.682
X130.429Y125.476
X131.318Y123.571
X131.635Y94.742
X131.699Y129.032
X131.826Y124.968
X132.080Y84.201
X132.207Y113.284
X132.588Y121.539
X132.842Y98.552
X133.477Y129.667
X133.731Y115.062
X134.366Y97.028
X134.747Y82.677
X134.747Y118.618
X134.811Y87.122
X135.255Y125.476
X136.144Y125.603
X138.938Y76.327
X140.462Y87.440
X141.478Y85.979
X143.510Y90.234
X144.272Y102.235
X144.399Y97.028
X156.718Y102.997
X157.099Y102.235
X157.099Y103.759
X157.099Y106.172
X157.099Y107.188
X157.353Y100.838
X157.607Y129.794
X158.242Y96.393
X158.242Y99.822
X159.004Y95.504
X159.385Y126.365
X159.512Y129.667
X159.893Y106.680
X159.893Y121.793
X161.163Y130.302
X161.417Y106.959
X162.687Y123.952
X164.719Y103.632
X164.973Y130.175
X165.481Y100.203
X165.608Y103.632
X165.608Y104.521
X165.608Y105.410
X167.005Y125.857
T3
X113.337Y127.236
X114.137Y128.435
X114.935Y127.236
X115.733Y128.435
X116.533Y127.236
T4
X111.887Y85.598
X112.077Y77.026
X129.286Y76.708
X143.764Y92.837
X148.209Y76.708
T5
X143.383Y109.601
X143.383Y112.141
X143.383Y114.681
X143.383Y117.221
X143.383Y119.761
X143.383Y122.301
X143.383Y124.841
X143.383Y127.381
X143.383Y129.921
X143.383Y132.461
X145.923Y109.601
X145.923Y112.141
X145.923Y114.681
X145.923Y117.221
X145.923Y119.761
X145.923Y122.301
X145.923Y124.841
X145.923Y127.381
X145.923Y129.921
X145.923Y132.461
T6
X108.966Y85.598
X108.966Y88.138
X108.966Y90.678
X108.966Y93.218
X116.713Y106.680
X116.713Y109.220
X119.253Y106.680
X119.253Y109.220
X121.793Y106.680
X121.793Y109.220
X124.333Y106.680
X124.333Y109.220
X126.873Y106.680
X126.873Y109.220
X147.066Y81.788
X147.066Y84.328
X147.066Y86.868
X147.066Y89.408
X147.066Y91.948
X147.066Y94.488
X147.066Y97.028
X153.797Y83.566
X153.797Y86.106
X153.797Y88.646
X153.797Y91.186
X153.797Y93.726
X153.797Y96.266
X153.797Y98.806
X153.797Y101.346
X153.797Y103.886
X153.797Y106.426
X153.797Y108.966
X153.797Y111.506
X153.797Y114.046
X153.797Y116.586
X153.797Y119.126
X153.797Y121.666
X153.797Y124.206
X153.797Y126.746
X153.797Y129.286
X153.797Y131.826
X155.067Y80.391
X157.607Y80.391
X160.147Y80.391
X162.687Y80.391
X165.227Y80.391
X167.767Y80.391
X169.037Y83.566
X169.037Y86.106
X169.037Y88.646
X169.037Y91.186
X169.037Y93.726
X169.037Y96.266
X169.037Y98.806
X169.037Y101.346
X169.037Y103.886
X169.037Y106.426
X169.037Y108.966
X169.037Y111.506
X169.037Y114.046
X169.037Y116.586
X169.037Y119.126
X169.037Y121.666
X169.037Y124.206
X169.037Y126.746
X169.037Y129.286
X169.037Y131.826
T7
X111.285Y132.334
X118.585Y132.334
T0
M30
