G04 (created by PCBNEW-RS274X (2010-03-14)-final) date jue 03 nov 2011 01:18:38 ART*
G01*
G70*
G90*
%MOIN*%
G04 Gerber Fmt 3.4, Leading zero omitted, Abs format*
%FSLAX34Y34*%
G04 APERTURE LIST*
%ADD10C,0.000100*%
%ADD11C,0.015000*%
%ADD12C,0.051400*%
%ADD13C,0.112200*%
%ADD14C,0.056000*%
%ADD15R,0.060000X0.060000*%
%ADD16C,0.060000*%
%ADD17R,0.055000X0.035000*%
%ADD18R,0.045000X0.025000*%
%ADD19O,0.060000X0.060000*%
%ADD20R,0.075000X0.075000*%
%ADD21C,0.075000*%
%ADD22R,0.040000X0.040000*%
%ADD23C,0.070900*%
%ADD24C,0.045000*%
%ADD25C,0.028000*%
%ADD26C,0.030000*%
%ADD27C,0.010000*%
%ADD28C,0.020000*%
%ADD29C,0.006000*%
G04 APERTURE END LIST*
G54D10*
G54D11*
X38950Y-56100D02*
X38950Y-31400D01*
X39000Y-56100D02*
X38950Y-56100D01*
X39200Y-56100D02*
X39000Y-56100D01*
X39450Y-56100D02*
X39200Y-56100D01*
X42700Y-56100D02*
X39450Y-56100D01*
X65600Y-56100D02*
X42700Y-56100D01*
X65600Y-31400D02*
X65600Y-56100D01*
X38950Y-31400D02*
X65600Y-31400D01*
G54D12*
X43800Y-52343D03*
X43486Y-52815D03*
X44429Y-52343D03*
X44114Y-52815D03*
G54D13*
X45237Y-54350D03*
X42363Y-54350D03*
G54D12*
X43171Y-52343D03*
G54D14*
X55000Y-45400D03*
X56000Y-45400D03*
X55000Y-46400D03*
X56000Y-46400D03*
X55000Y-47400D03*
X56000Y-47400D03*
X55000Y-48400D03*
X56000Y-48400D03*
X55000Y-49400D03*
X56000Y-49400D03*
X55000Y-50400D03*
X56000Y-50400D03*
X55000Y-51400D03*
X56000Y-51400D03*
X55000Y-52400D03*
X56000Y-52400D03*
X55000Y-53400D03*
X56000Y-53400D03*
X55000Y-54400D03*
X56000Y-54400D03*
G54D15*
X44500Y-45250D03*
G54D16*
X44500Y-44250D03*
X45500Y-45250D03*
X45500Y-44250D03*
X46500Y-45250D03*
X46500Y-44250D03*
X47500Y-45250D03*
X47500Y-44250D03*
X48500Y-45250D03*
X48500Y-44250D03*
G54D17*
X61375Y-42300D03*
X61375Y-43050D03*
G54D18*
X60775Y-42375D03*
X60775Y-42975D03*
G54D19*
X64975Y-54025D03*
X64975Y-53025D03*
X64975Y-52025D03*
X64975Y-51025D03*
X64975Y-50025D03*
X64975Y-49025D03*
X64975Y-48025D03*
X64975Y-47025D03*
X64975Y-46025D03*
X64975Y-45025D03*
X64975Y-44025D03*
X64975Y-43025D03*
X64975Y-42025D03*
X64975Y-41025D03*
X64975Y-40025D03*
X64975Y-39025D03*
X64975Y-38025D03*
X64975Y-37025D03*
X64975Y-36025D03*
X64975Y-35025D03*
X58975Y-54025D03*
X58975Y-53025D03*
X58975Y-52025D03*
X58975Y-51025D03*
X58975Y-50025D03*
X58975Y-49025D03*
X58975Y-48025D03*
X58975Y-47025D03*
X58975Y-46025D03*
X58975Y-45025D03*
X58975Y-44025D03*
X58975Y-43025D03*
X58975Y-42025D03*
X58975Y-41025D03*
X58975Y-40025D03*
X58975Y-39025D03*
X58975Y-38025D03*
X58975Y-37025D03*
X58975Y-36025D03*
X58975Y-35025D03*
X59475Y-33775D03*
X60475Y-33775D03*
X61475Y-33775D03*
X62475Y-33775D03*
X63475Y-33775D03*
X64475Y-33775D03*
G54D20*
X55900Y-40450D03*
G54D21*
X55900Y-39450D03*
X55900Y-38450D03*
X55900Y-37450D03*
X55900Y-36450D03*
X55900Y-35450D03*
X55900Y-34450D03*
G54D20*
X40900Y-38950D03*
G54D21*
X40900Y-37950D03*
X40900Y-36950D03*
X40900Y-35950D03*
G54D22*
X48100Y-37450D03*
X48100Y-37850D03*
X48100Y-38250D03*
X48500Y-38250D03*
X48500Y-37850D03*
X48500Y-37450D03*
G54D23*
X54600Y-38800D03*
X56350Y-32450D03*
X42050Y-35950D03*
X48900Y-32450D03*
X42125Y-32575D03*
G54D24*
X50000Y-35400D03*
X45950Y-35850D03*
X47300Y-39375D03*
X50900Y-40450D03*
X50300Y-41050D03*
X49825Y-39550D03*
X46200Y-39700D03*
X47650Y-36600D03*
X51075Y-36550D03*
X43450Y-39350D03*
X43750Y-38450D03*
X45100Y-34000D03*
X45950Y-33850D03*
X53700Y-36100D03*
X53300Y-36675D03*
X54500Y-37775D03*
X48800Y-39150D03*
G54D25*
X63275Y-42925D03*
X63625Y-42925D03*
X63625Y-43275D03*
X63625Y-43625D03*
X60125Y-42675D03*
X60275Y-43925D03*
X60275Y-44325D03*
X63575Y-41575D03*
X60275Y-42975D03*
X61375Y-50075D03*
X61375Y-44125D03*
X61175Y-51875D03*
X49900Y-50550D03*
X52150Y-51700D03*
X49900Y-51650D03*
X51800Y-51650D03*
X50450Y-51450D03*
X50750Y-50100D03*
X48750Y-49850D03*
X49400Y-46600D03*
X47900Y-47500D03*
X50400Y-53050D03*
X50250Y-50900D03*
X51600Y-48950D03*
X49550Y-47100D03*
X60375Y-41825D03*
X61025Y-39725D03*
X51200Y-47550D03*
X60725Y-41425D03*
X60725Y-40075D03*
X51100Y-53300D03*
X50600Y-46850D03*
X48250Y-47450D03*
X60275Y-42375D03*
X61225Y-53175D03*
X61975Y-44235D03*
X49500Y-52950D03*
X49450Y-51100D03*
X62475Y-50925D03*
G54D24*
X52700Y-32300D03*
X51050Y-34800D03*
X48650Y-40800D03*
X54850Y-40450D03*
X46600Y-32850D03*
X48375Y-33825D03*
X54800Y-42500D03*
G54D25*
X42450Y-49850D03*
X46400Y-49150D03*
X48150Y-48950D03*
G54D24*
X43700Y-37300D03*
X43200Y-37750D03*
X45750Y-41025D03*
X45850Y-40350D03*
X48000Y-41700D03*
X44600Y-40550D03*
G54D25*
X47200Y-51950D03*
X47350Y-49650D03*
X46650Y-53100D03*
X47800Y-49500D03*
X63375Y-53375D03*
X64175Y-51675D03*
X60475Y-53225D03*
X61875Y-53425D03*
X45400Y-48350D03*
X44550Y-48850D03*
G54D26*
X46750Y-38050D02*
X46700Y-38000D01*
X46700Y-38000D02*
X46775Y-38075D01*
X46775Y-38075D02*
X47675Y-38975D01*
X49850Y-40450D02*
X49850Y-40450D01*
X49850Y-40450D02*
X49850Y-40450D01*
X49850Y-40450D02*
X49150Y-40450D01*
X47675Y-38975D02*
X49150Y-40450D01*
X43075Y-36425D02*
X43950Y-36425D01*
X43950Y-36425D02*
X43925Y-36425D01*
X41550Y-37950D02*
X43075Y-36425D01*
X41550Y-37950D02*
X40900Y-37950D01*
G54D27*
X49750Y-35150D02*
X50000Y-35400D01*
X49750Y-35150D02*
X46750Y-35150D01*
X45950Y-35850D02*
X45950Y-35150D01*
X47675Y-38975D02*
X47675Y-39000D01*
G54D28*
X46700Y-39100D02*
X46700Y-39075D01*
X46975Y-39375D02*
X46700Y-39100D01*
X47050Y-39375D02*
X46975Y-39375D01*
X47300Y-39375D02*
X47050Y-39375D01*
X46700Y-38000D02*
X46700Y-38100D01*
X46700Y-39075D02*
X46700Y-38100D01*
X49850Y-40450D02*
X50900Y-40450D01*
G54D26*
X46750Y-35150D02*
X45950Y-35150D01*
X45950Y-35150D02*
X43650Y-35150D01*
X43650Y-35150D02*
X43700Y-35150D01*
G54D28*
X40900Y-35950D02*
X42050Y-35950D01*
G54D26*
X43650Y-35150D02*
X41700Y-35150D01*
X41700Y-35150D02*
X40900Y-35950D01*
G54D28*
X49850Y-40500D02*
X49850Y-40450D01*
X49850Y-40600D02*
X49850Y-40500D01*
X50300Y-41050D02*
X49850Y-40600D01*
G54D27*
X49850Y-40450D02*
X49825Y-40450D01*
X49825Y-39550D02*
X49825Y-40450D01*
G54D28*
X46700Y-39200D02*
X46700Y-39075D01*
X46700Y-39200D02*
X46200Y-39700D01*
G54D26*
X43950Y-36425D02*
X45050Y-36425D01*
X45050Y-36425D02*
X46775Y-38150D01*
X46750Y-35150D02*
X46750Y-38050D01*
X46750Y-38050D02*
X46775Y-38075D01*
G54D27*
X47750Y-36600D02*
X47650Y-36600D01*
X51075Y-36550D02*
X50975Y-36600D01*
X48525Y-36600D02*
X47750Y-36600D01*
X50975Y-36600D02*
X48525Y-36600D01*
X43750Y-38450D02*
X43750Y-39050D01*
X43750Y-39050D02*
X43450Y-39350D01*
X43750Y-38450D02*
X43750Y-38450D01*
G54D26*
X45950Y-34350D02*
X46250Y-34350D01*
X52450Y-36100D02*
X52925Y-36100D01*
X52925Y-36100D02*
X52875Y-36100D01*
X52875Y-36100D02*
X52850Y-36100D01*
X52850Y-36100D02*
X52850Y-36100D01*
X51450Y-36100D02*
X52450Y-36100D01*
X49700Y-34350D02*
X51450Y-36100D01*
X46250Y-34350D02*
X49700Y-34350D01*
X45950Y-34350D02*
X45900Y-34350D01*
X45900Y-34350D02*
X45450Y-34350D01*
X45450Y-34350D02*
X45100Y-34000D01*
X45950Y-33850D02*
X45950Y-34350D01*
X52875Y-36100D02*
X53700Y-36100D01*
X53300Y-36675D02*
X52925Y-36300D01*
X52925Y-36300D02*
X52925Y-36100D01*
G54D27*
X53700Y-37950D02*
X52500Y-39150D01*
X52500Y-39150D02*
X51850Y-39150D01*
X51750Y-39150D02*
X48800Y-39150D01*
X51750Y-39150D02*
X51850Y-39150D01*
X54500Y-37775D02*
X53875Y-37775D01*
X53875Y-37775D02*
X53700Y-37950D01*
G54D29*
X63275Y-42925D02*
X63025Y-43175D01*
X63025Y-43175D02*
X63025Y-47075D01*
X63025Y-47075D02*
X64975Y-49025D01*
X63625Y-42925D02*
X63175Y-43375D01*
X63175Y-43375D02*
X63175Y-46225D01*
X63175Y-46225D02*
X64975Y-48025D01*
X63625Y-43275D02*
X63375Y-43525D01*
X63375Y-43525D02*
X63375Y-45425D01*
X63375Y-45425D02*
X64975Y-47025D01*
X63625Y-43625D02*
X64475Y-44475D01*
X64475Y-44475D02*
X64475Y-45525D01*
X64475Y-45525D02*
X64975Y-46025D01*
X60125Y-42675D02*
X59625Y-42175D01*
X59625Y-42175D02*
X59625Y-39675D01*
X59625Y-39675D02*
X58975Y-39025D01*
X60275Y-43925D02*
X60525Y-44175D01*
X60525Y-44175D02*
X60525Y-44575D01*
X60525Y-44575D02*
X59775Y-45325D01*
X59775Y-45325D02*
X59775Y-47225D01*
X59775Y-47225D02*
X58975Y-48025D01*
X60275Y-44325D02*
X59575Y-45025D01*
X59575Y-45025D02*
X59575Y-46425D01*
X59575Y-46425D02*
X58975Y-47025D01*
G54D28*
X64475Y-34525D02*
X64975Y-35025D01*
X64475Y-33775D02*
X64475Y-34525D01*
G54D29*
X63575Y-41575D02*
X64525Y-40625D01*
X64525Y-40625D02*
X64525Y-35475D01*
X64525Y-35475D02*
X64975Y-35025D01*
X60275Y-42975D02*
X60775Y-42975D01*
X61300Y-42975D02*
X61375Y-43050D01*
X60775Y-42975D02*
X61300Y-42975D01*
G54D28*
X61375Y-43625D02*
X61375Y-43050D01*
X61375Y-50025D02*
X61375Y-43625D01*
X61375Y-50075D02*
X61375Y-50025D01*
G54D29*
X61375Y-44125D02*
X61375Y-43625D01*
G54D28*
X60025Y-53025D02*
X58975Y-53025D01*
X61175Y-51875D02*
X60025Y-53025D01*
G54D29*
X49900Y-50550D02*
X49900Y-51650D01*
X51800Y-52050D02*
X52150Y-51700D01*
X50300Y-52050D02*
X51800Y-52050D01*
X49900Y-51650D02*
X50300Y-52050D01*
X50650Y-51650D02*
X51800Y-51650D01*
X50450Y-51450D02*
X50650Y-51650D01*
X49000Y-50100D02*
X50750Y-50100D01*
X48750Y-49850D02*
X49000Y-50100D01*
X48800Y-46600D02*
X49400Y-46600D01*
X47900Y-47500D02*
X48800Y-46600D01*
X53050Y-52400D02*
X53350Y-52700D01*
X53350Y-52700D02*
X53400Y-52700D01*
X50750Y-52700D02*
X53400Y-52700D01*
X50400Y-53050D02*
X50750Y-52700D01*
X53400Y-52700D02*
X54700Y-52700D01*
X54700Y-52700D02*
X55000Y-52400D01*
X52150Y-51350D02*
X52850Y-51350D01*
X53050Y-51550D02*
X53050Y-52400D01*
X52850Y-51350D02*
X53050Y-51550D01*
X50700Y-51350D02*
X52150Y-51350D01*
X50250Y-50900D02*
X50700Y-51350D01*
X51400Y-48950D02*
X51600Y-48950D01*
X49550Y-47100D02*
X51400Y-48950D01*
X60375Y-41825D02*
X61625Y-41825D01*
X61625Y-41825D02*
X62175Y-41275D01*
X62175Y-41275D02*
X62175Y-34075D01*
X62175Y-34075D02*
X62475Y-33775D01*
X61025Y-39725D02*
X61025Y-34725D01*
X61025Y-34725D02*
X60475Y-34175D01*
X60475Y-34175D02*
X60475Y-33775D01*
X55000Y-51400D02*
X55000Y-51350D01*
X55000Y-51350D02*
X51200Y-47550D01*
X60725Y-41425D02*
X61475Y-40675D01*
X61475Y-40675D02*
X61475Y-33775D01*
X60725Y-40075D02*
X60725Y-35425D01*
X60725Y-35425D02*
X59475Y-34175D01*
X59475Y-34175D02*
X59475Y-33775D01*
X55500Y-46900D02*
X55000Y-46400D01*
X55500Y-53800D02*
X55500Y-46900D01*
X55350Y-53950D02*
X55500Y-53800D01*
X51750Y-53950D02*
X55350Y-53950D01*
X51100Y-53300D02*
X51750Y-53950D01*
X48850Y-46850D02*
X50600Y-46850D01*
X48250Y-47450D02*
X48850Y-46850D01*
X60275Y-42375D02*
X60775Y-42375D01*
X61300Y-42375D02*
X61375Y-42300D01*
X60775Y-42375D02*
X61300Y-42375D01*
G54D28*
X61975Y-42425D02*
X61850Y-42300D01*
X61975Y-43975D02*
X61975Y-42425D01*
X61375Y-42300D02*
X61850Y-42300D01*
X61975Y-52425D02*
X61975Y-43975D01*
X61975Y-52425D02*
X61225Y-53175D01*
G54D29*
X61975Y-44235D02*
X61975Y-43975D01*
X49500Y-51150D02*
X49500Y-52950D01*
X49450Y-51100D02*
X49500Y-51150D01*
G54D28*
X63475Y-36425D02*
X63475Y-33775D01*
X62525Y-37375D02*
X63475Y-36425D01*
X62475Y-50925D02*
X62525Y-37375D01*
G54D27*
X48500Y-37850D02*
X48100Y-37850D01*
X48100Y-37850D02*
X48100Y-37450D01*
X48100Y-37450D02*
X48500Y-37450D01*
X48500Y-37450D02*
X48500Y-37850D01*
X48500Y-37850D02*
X48500Y-38250D01*
X48500Y-38250D02*
X48100Y-38250D01*
X48100Y-38250D02*
X48100Y-37850D01*
X48100Y-37850D02*
X48100Y-38250D01*
X48100Y-38250D02*
X48500Y-38250D01*
X52700Y-32300D02*
X52700Y-33350D01*
X51050Y-34775D02*
X51050Y-34800D01*
X51050Y-34775D02*
X51050Y-33350D01*
G54D26*
X51600Y-33350D02*
X51050Y-33350D01*
X51600Y-33350D02*
X52700Y-33350D01*
X51050Y-33350D02*
X48300Y-33350D01*
X48300Y-33350D02*
X47750Y-33350D01*
X47750Y-33350D02*
X47850Y-33350D01*
X47850Y-33350D02*
X47350Y-33350D01*
X47350Y-33350D02*
X46600Y-33350D01*
X46600Y-33350D02*
X46650Y-33350D01*
X46650Y-33350D02*
X44450Y-33350D01*
X44450Y-33350D02*
X44500Y-33350D01*
X52700Y-33350D02*
X54650Y-33350D01*
X55250Y-33950D02*
X54650Y-33350D01*
X55250Y-33950D02*
X55250Y-34450D01*
X55250Y-34450D02*
X55250Y-36450D01*
X55250Y-36450D02*
X55250Y-37350D01*
X55250Y-37350D02*
X55250Y-37300D01*
X55250Y-37300D02*
X55250Y-37350D01*
X55250Y-37350D02*
X55250Y-37425D01*
X55250Y-37425D02*
X55250Y-38450D01*
X55250Y-38450D02*
X55250Y-40400D01*
X55250Y-40400D02*
X55250Y-40450D01*
X53900Y-42000D02*
X51425Y-42000D01*
X51425Y-42000D02*
X51450Y-42000D01*
X55250Y-40650D02*
X53900Y-42000D01*
X55250Y-40450D02*
X55250Y-40650D01*
X40900Y-39600D02*
X40900Y-38950D01*
X43300Y-42000D02*
X40900Y-39600D01*
X43300Y-42000D02*
X43300Y-42000D01*
G54D27*
X48650Y-42525D02*
X48650Y-42550D01*
X48650Y-42000D02*
X48650Y-42525D01*
X48650Y-40800D02*
X48650Y-42000D01*
G54D26*
X55250Y-40450D02*
X55150Y-40450D01*
X55150Y-40450D02*
X54850Y-40450D01*
X44450Y-33350D02*
X42450Y-33350D01*
X42450Y-33350D02*
X42125Y-33350D01*
X42125Y-33350D02*
X41350Y-33350D01*
X41350Y-33350D02*
X40250Y-34450D01*
X40250Y-34450D02*
X40250Y-36300D01*
X40250Y-36300D02*
X40900Y-36950D01*
G54D27*
X46600Y-33350D02*
X46600Y-32850D01*
X48300Y-33350D02*
X48300Y-33750D01*
X48300Y-33750D02*
X48375Y-33825D01*
G54D28*
X54800Y-42500D02*
X54300Y-42000D01*
X54300Y-42000D02*
X53950Y-42000D01*
X53950Y-42000D02*
X53950Y-41950D01*
G54D26*
X55900Y-34450D02*
X55250Y-34450D01*
X55900Y-36450D02*
X55250Y-36450D01*
X55900Y-38450D02*
X55250Y-38450D01*
X55250Y-40450D02*
X55900Y-40450D01*
G54D27*
X55250Y-37350D02*
X50625Y-37350D01*
X50625Y-37350D02*
X50100Y-37875D01*
X50100Y-37875D02*
X50110Y-37865D01*
X50110Y-37865D02*
X50110Y-37865D01*
X50110Y-37865D02*
X50125Y-37850D01*
G54D26*
X51425Y-42000D02*
X50875Y-42550D01*
X50875Y-42550D02*
X48650Y-42550D01*
X43850Y-42550D02*
X43300Y-42000D01*
X48650Y-42550D02*
X43850Y-42550D01*
G54D28*
X42125Y-32575D02*
X42125Y-33325D01*
X42125Y-33325D02*
X42125Y-33350D01*
G54D27*
X50100Y-37875D02*
X48525Y-37875D01*
X48525Y-37875D02*
X48500Y-37850D01*
G54D29*
X42450Y-49850D02*
X46400Y-49850D01*
X44429Y-52343D02*
X45807Y-52343D01*
X45807Y-52343D02*
X46400Y-51750D01*
X46400Y-51750D02*
X46400Y-49850D01*
X46400Y-49850D02*
X46400Y-49150D01*
X46600Y-48950D02*
X46400Y-49150D01*
X46600Y-48950D02*
X48150Y-48950D01*
G54D26*
X45000Y-38600D02*
X44150Y-37750D01*
X45300Y-40000D02*
X45000Y-39700D01*
X45000Y-39700D02*
X45000Y-38600D01*
X44150Y-37750D02*
X43700Y-37300D01*
X43200Y-37750D02*
X44150Y-37750D01*
X45300Y-40000D02*
X45300Y-40550D01*
X45300Y-40550D02*
X45750Y-41025D01*
X45850Y-40350D02*
X45500Y-40000D01*
X45500Y-40000D02*
X45300Y-40000D01*
G54D27*
X48000Y-41700D02*
X48000Y-41700D01*
X45750Y-41700D02*
X48000Y-41700D01*
X45750Y-41700D02*
X44600Y-40550D01*
G54D29*
X47200Y-49800D02*
X47200Y-51950D01*
X47350Y-49650D02*
X47200Y-49800D01*
X47900Y-51850D02*
X47900Y-52550D01*
X47350Y-53100D02*
X46650Y-53100D01*
X47900Y-52550D02*
X47350Y-53100D01*
X47900Y-49600D02*
X47900Y-51850D01*
X47800Y-49500D02*
X47900Y-49600D01*
X63375Y-53375D02*
X64175Y-52575D01*
X64175Y-52575D02*
X64175Y-51675D01*
X60475Y-53225D02*
X60675Y-53425D01*
X60675Y-53425D02*
X61875Y-53425D01*
X45050Y-48350D02*
X45400Y-48350D01*
X44550Y-48850D02*
X45050Y-48350D01*
G54D27*
X41600Y-43450D02*
X56900Y-43450D01*
X41600Y-43530D02*
X56900Y-43530D01*
X41600Y-43610D02*
X56900Y-43610D01*
X41600Y-43690D02*
X56900Y-43690D01*
X41600Y-43770D02*
X56900Y-43770D01*
X41600Y-43850D02*
X44293Y-43850D01*
X44708Y-43850D02*
X45293Y-43850D01*
X45708Y-43850D02*
X46293Y-43850D01*
X46708Y-43850D02*
X47293Y-43850D01*
X47708Y-43850D02*
X48293Y-43850D01*
X48708Y-43850D02*
X56900Y-43850D01*
X41600Y-43930D02*
X44185Y-43930D01*
X44815Y-43930D02*
X45185Y-43930D01*
X45815Y-43930D02*
X46185Y-43930D01*
X46815Y-43930D02*
X47185Y-43930D01*
X47815Y-43930D02*
X48185Y-43930D01*
X48815Y-43930D02*
X56900Y-43930D01*
X41600Y-44010D02*
X44114Y-44010D01*
X44887Y-44010D02*
X45114Y-44010D01*
X45887Y-44010D02*
X46114Y-44010D01*
X46887Y-44010D02*
X47114Y-44010D01*
X47887Y-44010D02*
X48114Y-44010D01*
X48887Y-44010D02*
X56900Y-44010D01*
X41600Y-44090D02*
X44081Y-44090D01*
X44920Y-44090D02*
X45081Y-44090D01*
X45920Y-44090D02*
X46081Y-44090D01*
X46920Y-44090D02*
X47081Y-44090D01*
X47920Y-44090D02*
X48081Y-44090D01*
X48920Y-44090D02*
X56900Y-44090D01*
X41600Y-44170D02*
X44051Y-44170D01*
X44949Y-44170D02*
X45051Y-44170D01*
X45949Y-44170D02*
X46051Y-44170D01*
X46949Y-44170D02*
X47051Y-44170D01*
X47949Y-44170D02*
X48051Y-44170D01*
X48949Y-44170D02*
X56900Y-44170D01*
X41600Y-44250D02*
X44051Y-44250D01*
X44949Y-44250D02*
X45051Y-44250D01*
X45949Y-44250D02*
X46051Y-44250D01*
X46949Y-44250D02*
X47051Y-44250D01*
X47949Y-44250D02*
X48051Y-44250D01*
X48949Y-44250D02*
X56900Y-44250D01*
X41600Y-44330D02*
X44051Y-44330D01*
X44949Y-44330D02*
X45051Y-44330D01*
X45949Y-44330D02*
X46051Y-44330D01*
X46949Y-44330D02*
X47051Y-44330D01*
X47949Y-44330D02*
X48051Y-44330D01*
X48949Y-44330D02*
X56900Y-44330D01*
X41600Y-44410D02*
X44080Y-44410D01*
X44919Y-44410D02*
X45080Y-44410D01*
X45919Y-44410D02*
X46080Y-44410D01*
X46919Y-44410D02*
X47080Y-44410D01*
X47919Y-44410D02*
X48080Y-44410D01*
X48919Y-44410D02*
X56900Y-44410D01*
X41600Y-44490D02*
X44113Y-44490D01*
X44886Y-44490D02*
X45113Y-44490D01*
X45886Y-44490D02*
X46113Y-44490D01*
X46886Y-44490D02*
X47113Y-44490D01*
X47886Y-44490D02*
X48113Y-44490D01*
X48886Y-44490D02*
X56900Y-44490D01*
X41600Y-44570D02*
X44185Y-44570D01*
X44815Y-44570D02*
X45185Y-44570D01*
X45815Y-44570D02*
X46185Y-44570D01*
X46815Y-44570D02*
X47185Y-44570D01*
X47815Y-44570D02*
X48185Y-44570D01*
X48815Y-44570D02*
X56900Y-44570D01*
X41600Y-44650D02*
X44292Y-44650D01*
X44707Y-44650D02*
X45292Y-44650D01*
X45707Y-44650D02*
X46292Y-44650D01*
X46707Y-44650D02*
X47292Y-44650D01*
X47707Y-44650D02*
X48292Y-44650D01*
X48707Y-44650D02*
X56900Y-44650D01*
X41600Y-44730D02*
X48337Y-44730D01*
X48645Y-44730D02*
X56900Y-44730D01*
X41600Y-44810D02*
X44149Y-44810D01*
X44852Y-44810D02*
X45389Y-44810D01*
X45612Y-44810D02*
X46389Y-44810D01*
X46612Y-44810D02*
X47389Y-44810D01*
X47612Y-44810D02*
X48210Y-44810D01*
X48791Y-44810D02*
X56900Y-44810D01*
X41600Y-44890D02*
X44064Y-44890D01*
X44937Y-44890D02*
X45225Y-44890D01*
X45775Y-44890D02*
X46225Y-44890D01*
X46775Y-44890D02*
X47225Y-44890D01*
X47775Y-44890D02*
X48210Y-44890D01*
X48789Y-44890D02*
X56900Y-44890D01*
X41600Y-44970D02*
X44051Y-44970D01*
X44949Y-44970D02*
X45145Y-44970D01*
X45855Y-44970D02*
X46145Y-44970D01*
X46855Y-44970D02*
X47145Y-44970D01*
X47855Y-44970D02*
X48028Y-44970D01*
X48150Y-44970D02*
X48290Y-44970D01*
X48709Y-44970D02*
X48851Y-44970D01*
X48973Y-44970D02*
X54915Y-44970D01*
X55086Y-44970D02*
X55915Y-44970D01*
X56086Y-44970D02*
X56900Y-44970D01*
X41600Y-45050D02*
X44051Y-45050D01*
X44949Y-45050D02*
X45097Y-45050D01*
X45904Y-45050D02*
X46097Y-45050D01*
X46904Y-45050D02*
X47097Y-45050D01*
X47904Y-45050D02*
X48000Y-45050D01*
X48230Y-45050D02*
X48370Y-45050D01*
X48629Y-45050D02*
X48771Y-45050D01*
X49006Y-45050D02*
X54742Y-45050D01*
X55258Y-45050D02*
X55742Y-45050D01*
X56258Y-45050D02*
X56900Y-45050D01*
X41600Y-45130D02*
X44051Y-45130D01*
X44949Y-45130D02*
X45064Y-45130D01*
X45937Y-45130D02*
X46064Y-45130D01*
X46937Y-45130D02*
X47064Y-45130D01*
X47937Y-45130D02*
X47972Y-45130D01*
X48310Y-45130D02*
X48451Y-45130D01*
X48549Y-45130D02*
X48691Y-45130D01*
X49033Y-45130D02*
X54662Y-45130D01*
X55338Y-45130D02*
X55662Y-45130D01*
X56338Y-45130D02*
X56900Y-45130D01*
X41600Y-45210D02*
X44051Y-45210D01*
X44949Y-45210D02*
X45051Y-45210D01*
X45949Y-45210D02*
X46051Y-45210D01*
X46949Y-45210D02*
X47051Y-45210D01*
X47949Y-45210D02*
X47959Y-45210D01*
X48390Y-45210D02*
X48611Y-45210D01*
X49037Y-45210D02*
X54614Y-45210D01*
X55387Y-45210D02*
X55614Y-45210D01*
X56387Y-45210D02*
X56900Y-45210D01*
X41600Y-45290D02*
X44051Y-45290D01*
X44949Y-45290D02*
X45051Y-45290D01*
X45949Y-45290D02*
X46051Y-45290D01*
X46949Y-45290D02*
X47051Y-45290D01*
X47949Y-45290D02*
X47963Y-45290D01*
X48389Y-45290D02*
X48610Y-45290D01*
X49041Y-45290D02*
X54581Y-45290D01*
X55420Y-45290D02*
X55581Y-45290D01*
X56420Y-45290D02*
X56900Y-45290D01*
X41600Y-45370D02*
X44051Y-45370D01*
X44949Y-45370D02*
X45063Y-45370D01*
X45936Y-45370D02*
X46063Y-45370D01*
X46936Y-45370D02*
X47063Y-45370D01*
X47936Y-45370D02*
X47967Y-45370D01*
X48309Y-45370D02*
X48451Y-45370D01*
X48550Y-45370D02*
X48690Y-45370D01*
X49028Y-45370D02*
X54570Y-45370D01*
X55430Y-45370D02*
X55570Y-45370D01*
X56430Y-45370D02*
X56900Y-45370D01*
X41600Y-45450D02*
X44051Y-45450D01*
X44949Y-45450D02*
X45096Y-45450D01*
X45903Y-45450D02*
X46096Y-45450D01*
X46903Y-45450D02*
X47096Y-45450D01*
X47903Y-45450D02*
X47994Y-45450D01*
X48229Y-45450D02*
X48370Y-45450D01*
X48630Y-45450D02*
X48770Y-45450D01*
X49000Y-45450D02*
X54570Y-45450D01*
X55430Y-45450D02*
X55570Y-45450D01*
X56430Y-45450D02*
X56900Y-45450D01*
X41600Y-45530D02*
X44051Y-45530D01*
X44949Y-45530D02*
X45145Y-45530D01*
X45855Y-45530D02*
X46145Y-45530D01*
X46855Y-45530D02*
X47145Y-45530D01*
X47855Y-45530D02*
X48027Y-45530D01*
X48149Y-45530D02*
X48290Y-45530D01*
X48710Y-45530D02*
X48850Y-45530D01*
X48972Y-45530D02*
X54588Y-45530D01*
X55411Y-45530D02*
X55588Y-45530D01*
X56411Y-45530D02*
X56900Y-45530D01*
X41600Y-45610D02*
X44063Y-45610D01*
X44936Y-45610D02*
X45225Y-45610D01*
X45775Y-45610D02*
X46225Y-45610D01*
X46775Y-45610D02*
X47225Y-45610D01*
X47775Y-45610D02*
X48210Y-45610D01*
X48790Y-45610D02*
X54621Y-45610D01*
X55378Y-45610D02*
X55621Y-45610D01*
X56378Y-45610D02*
X56900Y-45610D01*
X41600Y-45690D02*
X44148Y-45690D01*
X44851Y-45690D02*
X45388Y-45690D01*
X45610Y-45690D02*
X46388Y-45690D01*
X46610Y-45690D02*
X47388Y-45690D01*
X47610Y-45690D02*
X48209Y-45690D01*
X48790Y-45690D02*
X54682Y-45690D01*
X55318Y-45690D02*
X55682Y-45690D01*
X56318Y-45690D02*
X56900Y-45690D01*
X41600Y-45770D02*
X48355Y-45770D01*
X48663Y-45770D02*
X54770Y-45770D01*
X55230Y-45770D02*
X55770Y-45770D01*
X56230Y-45770D02*
X56900Y-45770D01*
X41600Y-45850D02*
X56900Y-45850D01*
X41600Y-45930D02*
X55765Y-45930D01*
X56229Y-45930D02*
X56900Y-45930D01*
X41600Y-46010D02*
X54818Y-46010D01*
X55182Y-46010D02*
X55714Y-46010D01*
X56287Y-46010D02*
X56900Y-46010D01*
X41600Y-46090D02*
X54702Y-46090D01*
X55298Y-46090D02*
X55761Y-46090D01*
X56239Y-46090D02*
X56900Y-46090D01*
X41600Y-46170D02*
X54631Y-46170D01*
X55371Y-46170D02*
X55531Y-46170D01*
X55699Y-46170D02*
X55841Y-46170D01*
X56159Y-46170D02*
X56301Y-46170D01*
X56473Y-46170D02*
X56900Y-46170D01*
X41600Y-46250D02*
X54597Y-46250D01*
X55404Y-46250D02*
X55503Y-46250D01*
X55779Y-46250D02*
X55921Y-46250D01*
X56079Y-46250D02*
X56221Y-46250D01*
X56506Y-46250D02*
X56900Y-46250D01*
X41600Y-46330D02*
X49298Y-46330D01*
X49504Y-46330D02*
X54570Y-46330D01*
X55430Y-46330D02*
X55476Y-46330D01*
X55859Y-46330D02*
X56141Y-46330D01*
X56517Y-46330D02*
X56900Y-46330D01*
X41600Y-46410D02*
X49182Y-46410D01*
X49619Y-46410D02*
X54570Y-46410D01*
X55430Y-46410D02*
X55480Y-46410D01*
X55939Y-46410D02*
X56081Y-46410D01*
X56521Y-46410D02*
X56900Y-46410D01*
X41600Y-46490D02*
X48655Y-46490D01*
X49667Y-46490D02*
X54572Y-46490D01*
X55428Y-46490D02*
X55484Y-46490D01*
X56019Y-46490D02*
X56161Y-46490D01*
X56518Y-46490D02*
X56900Y-46490D01*
X41600Y-46570D02*
X48575Y-46570D01*
X49689Y-46570D02*
X50522Y-46570D01*
X50680Y-46570D02*
X54604Y-46570D01*
X55424Y-46570D02*
X55502Y-46570D01*
X56099Y-46570D02*
X56241Y-46570D01*
X56490Y-46570D02*
X56900Y-46570D01*
X41600Y-46650D02*
X48495Y-46650D01*
X49689Y-46650D02*
X50392Y-46650D01*
X50809Y-46650D02*
X54642Y-46650D01*
X55504Y-46650D02*
X55536Y-46650D01*
X56179Y-46650D02*
X56321Y-46650D01*
X56462Y-46650D02*
X56900Y-46650D01*
X41600Y-46730D02*
X48415Y-46730D01*
X50863Y-46730D02*
X54722Y-46730D01*
X55584Y-46730D02*
X55639Y-46730D01*
X56259Y-46730D02*
X56900Y-46730D01*
X41600Y-46810D02*
X48335Y-46810D01*
X50889Y-46810D02*
X54866Y-46810D01*
X55132Y-46810D02*
X55156Y-46810D01*
X55652Y-46810D02*
X55719Y-46810D01*
X56281Y-46810D02*
X56900Y-46810D01*
X41600Y-46890D02*
X48255Y-46890D01*
X50889Y-46890D02*
X55236Y-46890D01*
X55678Y-46890D02*
X55828Y-46890D01*
X56185Y-46890D02*
X56900Y-46890D01*
X41600Y-46970D02*
X48175Y-46970D01*
X50863Y-46970D02*
X54915Y-46970D01*
X55086Y-46970D02*
X55316Y-46970D01*
X55680Y-46970D02*
X55725Y-46970D01*
X56276Y-46970D02*
X56900Y-46970D01*
X41600Y-47050D02*
X48095Y-47050D01*
X48904Y-47050D02*
X49261Y-47050D01*
X49839Y-47050D02*
X50391Y-47050D01*
X50808Y-47050D02*
X54742Y-47050D01*
X55258Y-47050D02*
X55320Y-47050D01*
X56279Y-47050D02*
X56900Y-47050D01*
X41600Y-47130D02*
X48015Y-47130D01*
X48824Y-47130D02*
X49261Y-47130D01*
X49839Y-47130D02*
X50520Y-47130D01*
X50678Y-47130D02*
X54662Y-47130D01*
X56199Y-47130D02*
X56341Y-47130D01*
X56453Y-47130D02*
X56900Y-47130D01*
X41600Y-47210D02*
X47935Y-47210D01*
X48744Y-47210D02*
X49283Y-47210D01*
X49914Y-47210D02*
X54614Y-47210D01*
X56119Y-47210D02*
X56261Y-47210D01*
X56489Y-47210D02*
X56900Y-47210D01*
X41600Y-47290D02*
X47702Y-47290D01*
X48664Y-47290D02*
X49331Y-47290D01*
X49994Y-47290D02*
X51074Y-47290D01*
X51328Y-47290D02*
X54581Y-47290D01*
X56039Y-47290D02*
X56181Y-47290D01*
X56515Y-47290D02*
X56900Y-47290D01*
X41600Y-47370D02*
X47641Y-47370D01*
X48584Y-47370D02*
X49446Y-47370D01*
X50074Y-47370D02*
X50972Y-47370D01*
X51429Y-47370D02*
X54570Y-47370D01*
X55959Y-47370D02*
X56101Y-47370D01*
X56519Y-47370D02*
X56900Y-47370D01*
X41600Y-47450D02*
X47611Y-47450D01*
X48539Y-47450D02*
X49646Y-47450D01*
X50154Y-47450D02*
X50929Y-47450D01*
X51472Y-47450D02*
X54570Y-47450D01*
X55979Y-47450D02*
X56121Y-47450D01*
X56523Y-47450D02*
X56900Y-47450D01*
X41600Y-47530D02*
X47611Y-47530D01*
X48529Y-47530D02*
X49726Y-47530D01*
X50234Y-47530D02*
X50911Y-47530D01*
X51489Y-47530D02*
X54588Y-47530D01*
X56059Y-47530D02*
X56201Y-47530D01*
X56504Y-47530D02*
X56900Y-47530D01*
X41600Y-47610D02*
X47633Y-47610D01*
X48496Y-47610D02*
X49806Y-47610D01*
X50314Y-47610D02*
X50912Y-47610D01*
X51514Y-47610D02*
X54621Y-47610D01*
X56139Y-47610D02*
X56281Y-47610D01*
X56476Y-47610D02*
X56900Y-47610D01*
X41600Y-47690D02*
X47681Y-47690D01*
X48418Y-47690D02*
X49886Y-47690D01*
X50394Y-47690D02*
X50945Y-47690D01*
X51594Y-47690D02*
X54682Y-47690D01*
X55318Y-47690D02*
X55320Y-47690D01*
X56219Y-47690D02*
X56361Y-47690D01*
X56375Y-47690D02*
X56900Y-47690D01*
X41600Y-47770D02*
X47796Y-47770D01*
X48002Y-47770D02*
X49966Y-47770D01*
X50474Y-47770D02*
X51011Y-47770D01*
X51674Y-47770D02*
X54770Y-47770D01*
X55230Y-47770D02*
X55320Y-47770D01*
X56291Y-47770D02*
X56900Y-47770D01*
X41600Y-47850D02*
X50046Y-47850D01*
X50554Y-47850D02*
X51246Y-47850D01*
X51754Y-47850D02*
X55320Y-47850D01*
X56270Y-47850D02*
X56900Y-47850D01*
X41600Y-47930D02*
X50126Y-47930D01*
X50634Y-47930D02*
X51326Y-47930D01*
X51834Y-47930D02*
X55320Y-47930D01*
X56230Y-47930D02*
X56900Y-47930D01*
X41600Y-48010D02*
X50206Y-48010D01*
X50714Y-48010D02*
X51406Y-48010D01*
X51914Y-48010D02*
X54818Y-48010D01*
X55182Y-48010D02*
X55320Y-48010D01*
X56287Y-48010D02*
X56900Y-48010D01*
X41600Y-48090D02*
X45274Y-48090D01*
X45528Y-48090D02*
X50286Y-48090D01*
X50794Y-48090D02*
X51486Y-48090D01*
X51994Y-48090D02*
X54702Y-48090D01*
X55298Y-48090D02*
X55320Y-48090D01*
X56239Y-48090D02*
X56900Y-48090D01*
X41600Y-48170D02*
X45050Y-48170D01*
X45629Y-48170D02*
X50366Y-48170D01*
X50874Y-48170D02*
X51566Y-48170D01*
X52074Y-48170D02*
X54631Y-48170D01*
X56159Y-48170D02*
X56301Y-48170D01*
X56473Y-48170D02*
X56900Y-48170D01*
X41600Y-48250D02*
X44895Y-48250D01*
X45672Y-48250D02*
X50446Y-48250D01*
X50954Y-48250D02*
X51646Y-48250D01*
X52154Y-48250D02*
X54597Y-48250D01*
X56079Y-48250D02*
X56221Y-48250D01*
X56506Y-48250D02*
X56900Y-48250D01*
X41600Y-48330D02*
X44815Y-48330D01*
X45689Y-48330D02*
X50526Y-48330D01*
X51034Y-48330D02*
X51726Y-48330D01*
X52234Y-48330D02*
X54570Y-48330D01*
X55999Y-48330D02*
X56141Y-48330D01*
X56517Y-48330D02*
X56900Y-48330D01*
X41600Y-48410D02*
X44736Y-48410D01*
X45688Y-48410D02*
X50606Y-48410D01*
X51114Y-48410D02*
X51806Y-48410D01*
X52314Y-48410D02*
X54570Y-48410D01*
X55939Y-48410D02*
X56081Y-48410D01*
X56521Y-48410D02*
X56900Y-48410D01*
X41600Y-48490D02*
X44656Y-48490D01*
X45654Y-48490D02*
X50686Y-48490D01*
X51194Y-48490D02*
X51886Y-48490D01*
X52394Y-48490D02*
X54572Y-48490D01*
X56019Y-48490D02*
X56161Y-48490D01*
X56518Y-48490D02*
X56900Y-48490D01*
X41600Y-48570D02*
X44472Y-48570D01*
X45084Y-48570D02*
X45211Y-48570D01*
X45588Y-48570D02*
X50766Y-48570D01*
X51274Y-48570D02*
X51966Y-48570D01*
X52474Y-48570D02*
X54604Y-48570D01*
X56099Y-48570D02*
X56241Y-48570D01*
X56490Y-48570D02*
X56900Y-48570D01*
X41600Y-48650D02*
X44342Y-48650D01*
X45004Y-48650D02*
X50846Y-48650D01*
X51354Y-48650D02*
X52046Y-48650D01*
X52554Y-48650D02*
X54642Y-48650D01*
X56179Y-48650D02*
X56321Y-48650D01*
X56462Y-48650D02*
X56900Y-48650D01*
X41600Y-48730D02*
X44287Y-48730D01*
X44924Y-48730D02*
X50926Y-48730D01*
X51789Y-48730D02*
X52126Y-48730D01*
X52634Y-48730D02*
X54722Y-48730D01*
X55278Y-48730D02*
X55320Y-48730D01*
X56259Y-48730D02*
X56900Y-48730D01*
X41600Y-48810D02*
X44261Y-48810D01*
X44844Y-48810D02*
X51006Y-48810D01*
X51855Y-48810D02*
X52206Y-48810D01*
X52714Y-48810D02*
X54866Y-48810D01*
X55133Y-48810D02*
X55320Y-48810D01*
X56281Y-48810D02*
X56900Y-48810D01*
X41600Y-48890D02*
X44261Y-48890D01*
X44839Y-48890D02*
X51086Y-48890D01*
X51888Y-48890D02*
X52286Y-48890D01*
X52794Y-48890D02*
X55320Y-48890D01*
X56185Y-48890D02*
X56900Y-48890D01*
X41600Y-48970D02*
X44287Y-48970D01*
X44813Y-48970D02*
X51166Y-48970D01*
X51889Y-48970D02*
X52366Y-48970D01*
X52874Y-48970D02*
X54915Y-48970D01*
X55086Y-48970D02*
X55320Y-48970D01*
X56276Y-48970D02*
X56900Y-48970D01*
X41600Y-49050D02*
X44341Y-49050D01*
X44758Y-49050D02*
X51246Y-49050D01*
X51871Y-49050D02*
X52446Y-49050D01*
X52954Y-49050D02*
X54742Y-49050D01*
X55258Y-49050D02*
X55320Y-49050D01*
X56279Y-49050D02*
X56900Y-49050D01*
X41600Y-49130D02*
X44470Y-49130D01*
X44628Y-49130D02*
X51371Y-49130D01*
X51828Y-49130D02*
X52526Y-49130D01*
X53034Y-49130D02*
X54662Y-49130D01*
X56199Y-49130D02*
X56341Y-49130D01*
X56453Y-49130D02*
X56900Y-49130D01*
X41600Y-49210D02*
X51472Y-49210D01*
X51726Y-49210D02*
X52606Y-49210D01*
X53114Y-49210D02*
X54614Y-49210D01*
X56119Y-49210D02*
X56261Y-49210D01*
X56489Y-49210D02*
X56900Y-49210D01*
X41600Y-49290D02*
X47602Y-49290D01*
X47999Y-49290D02*
X52686Y-49290D01*
X53194Y-49290D02*
X54581Y-49290D01*
X56039Y-49290D02*
X56181Y-49290D01*
X56515Y-49290D02*
X56900Y-49290D01*
X41600Y-49370D02*
X47272Y-49370D01*
X47432Y-49370D02*
X47541Y-49370D01*
X48059Y-49370D02*
X52766Y-49370D01*
X53274Y-49370D02*
X54570Y-49370D01*
X55959Y-49370D02*
X56101Y-49370D01*
X56519Y-49370D02*
X56900Y-49370D01*
X41600Y-49450D02*
X47142Y-49450D01*
X48089Y-49450D02*
X52846Y-49450D01*
X53354Y-49450D02*
X54570Y-49450D01*
X55979Y-49450D02*
X56121Y-49450D01*
X56523Y-49450D02*
X56900Y-49450D01*
X41600Y-49530D02*
X47087Y-49530D01*
X48089Y-49530D02*
X52926Y-49530D01*
X53434Y-49530D02*
X54588Y-49530D01*
X56059Y-49530D02*
X56201Y-49530D01*
X56504Y-49530D02*
X56900Y-49530D01*
X41600Y-49610D02*
X47061Y-49610D01*
X48080Y-49610D02*
X48582Y-49610D01*
X48919Y-49610D02*
X53006Y-49610D01*
X53514Y-49610D02*
X54621Y-49610D01*
X56139Y-49610D02*
X56281Y-49610D01*
X56476Y-49610D02*
X56900Y-49610D01*
X41600Y-49690D02*
X47061Y-49690D01*
X48080Y-49690D02*
X48504Y-49690D01*
X48997Y-49690D02*
X53086Y-49690D01*
X53594Y-49690D02*
X54682Y-49690D01*
X55318Y-49690D02*
X55320Y-49690D01*
X56219Y-49690D02*
X56361Y-49690D01*
X56375Y-49690D02*
X56900Y-49690D01*
X41600Y-49770D02*
X47027Y-49770D01*
X47613Y-49770D02*
X47697Y-49770D01*
X48080Y-49770D02*
X48471Y-49770D01*
X49030Y-49770D02*
X53166Y-49770D01*
X53674Y-49770D02*
X54770Y-49770D01*
X55230Y-49770D02*
X55320Y-49770D01*
X56291Y-49770D02*
X56900Y-49770D01*
X41600Y-49850D02*
X47020Y-49850D01*
X47558Y-49850D02*
X47720Y-49850D01*
X48080Y-49850D02*
X48461Y-49850D01*
X49039Y-49850D02*
X50600Y-49850D01*
X50902Y-49850D02*
X53246Y-49850D01*
X53754Y-49850D02*
X55320Y-49850D01*
X56270Y-49850D02*
X56900Y-49850D01*
X41600Y-49930D02*
X47020Y-49930D01*
X47428Y-49930D02*
X47720Y-49930D01*
X48080Y-49930D02*
X48470Y-49930D01*
X50989Y-49930D02*
X53326Y-49930D01*
X53834Y-49930D02*
X55320Y-49930D01*
X56230Y-49930D02*
X56900Y-49930D01*
X41600Y-50010D02*
X47020Y-50010D01*
X47380Y-50010D02*
X47720Y-50010D01*
X48080Y-50010D02*
X48503Y-50010D01*
X51026Y-50010D02*
X53406Y-50010D01*
X53914Y-50010D02*
X54818Y-50010D01*
X55182Y-50010D02*
X55320Y-50010D01*
X56287Y-50010D02*
X56900Y-50010D01*
X41600Y-50090D02*
X47020Y-50090D01*
X47380Y-50090D02*
X47720Y-50090D01*
X48080Y-50090D02*
X48581Y-50090D01*
X51039Y-50090D02*
X53486Y-50090D01*
X53994Y-50090D02*
X54702Y-50090D01*
X55298Y-50090D02*
X55320Y-50090D01*
X56239Y-50090D02*
X56900Y-50090D01*
X41600Y-50170D02*
X47020Y-50170D01*
X47380Y-50170D02*
X47720Y-50170D01*
X48080Y-50170D02*
X48815Y-50170D01*
X51034Y-50170D02*
X53566Y-50170D01*
X54074Y-50170D02*
X54631Y-50170D01*
X56159Y-50170D02*
X56301Y-50170D01*
X56473Y-50170D02*
X56900Y-50170D01*
X41600Y-50250D02*
X47020Y-50250D01*
X47380Y-50250D02*
X47720Y-50250D01*
X48080Y-50250D02*
X48906Y-50250D01*
X51000Y-50250D02*
X53646Y-50250D01*
X54154Y-50250D02*
X54597Y-50250D01*
X56079Y-50250D02*
X56221Y-50250D01*
X56506Y-50250D02*
X56900Y-50250D01*
X41600Y-50330D02*
X47020Y-50330D01*
X47380Y-50330D02*
X47720Y-50330D01*
X48080Y-50330D02*
X49712Y-50330D01*
X50089Y-50330D02*
X50571Y-50330D01*
X50928Y-50330D02*
X53726Y-50330D01*
X54234Y-50330D02*
X54570Y-50330D01*
X55999Y-50330D02*
X56141Y-50330D01*
X56517Y-50330D02*
X56900Y-50330D01*
X41600Y-50410D02*
X47020Y-50410D01*
X47380Y-50410D02*
X47720Y-50410D01*
X48080Y-50410D02*
X49646Y-50410D01*
X50155Y-50410D02*
X53806Y-50410D01*
X54314Y-50410D02*
X54570Y-50410D01*
X55939Y-50410D02*
X56081Y-50410D01*
X56521Y-50410D02*
X56900Y-50410D01*
X41600Y-50490D02*
X47020Y-50490D01*
X47380Y-50490D02*
X47720Y-50490D01*
X48080Y-50490D02*
X49612Y-50490D01*
X50188Y-50490D02*
X53886Y-50490D01*
X54394Y-50490D02*
X54572Y-50490D01*
X56019Y-50490D02*
X56161Y-50490D01*
X56518Y-50490D02*
X56900Y-50490D01*
X41600Y-50570D02*
X47020Y-50570D01*
X47380Y-50570D02*
X47720Y-50570D01*
X48080Y-50570D02*
X49611Y-50570D01*
X50189Y-50570D02*
X53966Y-50570D01*
X54474Y-50570D02*
X54604Y-50570D01*
X56099Y-50570D02*
X56241Y-50570D01*
X56490Y-50570D02*
X56900Y-50570D01*
X41600Y-50650D02*
X47020Y-50650D01*
X47380Y-50650D02*
X47720Y-50650D01*
X48080Y-50650D02*
X49628Y-50650D01*
X50402Y-50650D02*
X54046Y-50650D01*
X54554Y-50650D02*
X54642Y-50650D01*
X56179Y-50650D02*
X56321Y-50650D01*
X56462Y-50650D02*
X56900Y-50650D01*
X41600Y-50730D02*
X47020Y-50730D01*
X47380Y-50730D02*
X47720Y-50730D01*
X48080Y-50730D02*
X49672Y-50730D01*
X50489Y-50730D02*
X54126Y-50730D01*
X54634Y-50730D02*
X54722Y-50730D01*
X55278Y-50730D02*
X55320Y-50730D01*
X56259Y-50730D02*
X56900Y-50730D01*
X41600Y-50810D02*
X47020Y-50810D01*
X47380Y-50810D02*
X47720Y-50810D01*
X48080Y-50810D02*
X49720Y-50810D01*
X50526Y-50810D02*
X54206Y-50810D01*
X54714Y-50810D02*
X54866Y-50810D01*
X55133Y-50810D02*
X55320Y-50810D01*
X56281Y-50810D02*
X56900Y-50810D01*
X41600Y-50890D02*
X47020Y-50890D01*
X47380Y-50890D02*
X47720Y-50890D01*
X48080Y-50890D02*
X49252Y-50890D01*
X49649Y-50890D02*
X49720Y-50890D01*
X50539Y-50890D02*
X54286Y-50890D01*
X54794Y-50890D02*
X55320Y-50890D01*
X56185Y-50890D02*
X56900Y-50890D01*
X41600Y-50970D02*
X47020Y-50970D01*
X47380Y-50970D02*
X47720Y-50970D01*
X48080Y-50970D02*
X49191Y-50970D01*
X49709Y-50970D02*
X49720Y-50970D01*
X50575Y-50970D02*
X54366Y-50970D01*
X54874Y-50970D02*
X54915Y-50970D01*
X55086Y-50970D02*
X55320Y-50970D01*
X56276Y-50970D02*
X56900Y-50970D01*
X41600Y-51050D02*
X47020Y-51050D01*
X47380Y-51050D02*
X47720Y-51050D01*
X48080Y-51050D02*
X49161Y-51050D01*
X50655Y-51050D02*
X54446Y-51050D01*
X55258Y-51050D02*
X55320Y-51050D01*
X56279Y-51050D02*
X56900Y-51050D01*
X41600Y-51130D02*
X47020Y-51130D01*
X47380Y-51130D02*
X47720Y-51130D01*
X48080Y-51130D02*
X49161Y-51130D01*
X50735Y-51130D02*
X54526Y-51130D01*
X56199Y-51130D02*
X56341Y-51130D01*
X56453Y-51130D02*
X56900Y-51130D01*
X41600Y-51210D02*
X47020Y-51210D01*
X47380Y-51210D02*
X47720Y-51210D01*
X48080Y-51210D02*
X49183Y-51210D01*
X52958Y-51210D02*
X54606Y-51210D01*
X56119Y-51210D02*
X56261Y-51210D01*
X56489Y-51210D02*
X56900Y-51210D01*
X41600Y-51290D02*
X47020Y-51290D01*
X47380Y-51290D02*
X47720Y-51290D01*
X48080Y-51290D02*
X49231Y-51290D01*
X53045Y-51290D02*
X54580Y-51290D01*
X56039Y-51290D02*
X56181Y-51290D01*
X56515Y-51290D02*
X56900Y-51290D01*
X41600Y-51370D02*
X47020Y-51370D01*
X47380Y-51370D02*
X47720Y-51370D01*
X48080Y-51370D02*
X49320Y-51370D01*
X53125Y-51370D02*
X54570Y-51370D01*
X55959Y-51370D02*
X56101Y-51370D01*
X56519Y-51370D02*
X56900Y-51370D01*
X41600Y-51450D02*
X47020Y-51450D01*
X47380Y-51450D02*
X47720Y-51450D01*
X48080Y-51450D02*
X49320Y-51450D01*
X53196Y-51450D02*
X54570Y-51450D01*
X55979Y-51450D02*
X56121Y-51450D01*
X56523Y-51450D02*
X56900Y-51450D01*
X41600Y-51530D02*
X47020Y-51530D01*
X47380Y-51530D02*
X47720Y-51530D01*
X48080Y-51530D02*
X49320Y-51530D01*
X52388Y-51530D02*
X52775Y-51530D01*
X53226Y-51530D02*
X54588Y-51530D01*
X56059Y-51530D02*
X56201Y-51530D01*
X56504Y-51530D02*
X56900Y-51530D01*
X41600Y-51610D02*
X47020Y-51610D01*
X47380Y-51610D02*
X47720Y-51610D01*
X48080Y-51610D02*
X49320Y-51610D01*
X52426Y-51610D02*
X52855Y-51610D01*
X53230Y-51610D02*
X54621Y-51610D01*
X56139Y-51610D02*
X56281Y-51610D01*
X56476Y-51610D02*
X56900Y-51610D01*
X41600Y-51690D02*
X47020Y-51690D01*
X47380Y-51690D02*
X47720Y-51690D01*
X48080Y-51690D02*
X49320Y-51690D01*
X52439Y-51690D02*
X52870Y-51690D01*
X53230Y-51690D02*
X54682Y-51690D01*
X55318Y-51690D02*
X55320Y-51690D01*
X56219Y-51690D02*
X56361Y-51690D01*
X56375Y-51690D02*
X56900Y-51690D01*
X41600Y-51770D02*
X46971Y-51770D01*
X47429Y-51770D02*
X47720Y-51770D01*
X48080Y-51770D02*
X49320Y-51770D01*
X52434Y-51770D02*
X52870Y-51770D01*
X53230Y-51770D02*
X54770Y-51770D01*
X55230Y-51770D02*
X55320Y-51770D01*
X56291Y-51770D02*
X56900Y-51770D01*
X41600Y-51850D02*
X44349Y-51850D01*
X44524Y-51850D02*
X46929Y-51850D01*
X47472Y-51850D02*
X47720Y-51850D01*
X48080Y-51850D02*
X49320Y-51850D01*
X49680Y-51850D02*
X49691Y-51850D01*
X52400Y-51850D02*
X52870Y-51850D01*
X53230Y-51850D02*
X55320Y-51850D01*
X56270Y-51850D02*
X56900Y-51850D01*
X41600Y-51930D02*
X44168Y-51930D01*
X44691Y-51930D02*
X46911Y-51930D01*
X47489Y-51930D02*
X47720Y-51930D01*
X48080Y-51930D02*
X49320Y-51930D01*
X49680Y-51930D02*
X49820Y-51930D01*
X52328Y-51930D02*
X52870Y-51930D01*
X53230Y-51930D02*
X55320Y-51930D01*
X56230Y-51930D02*
X56900Y-51930D01*
X41600Y-52010D02*
X42931Y-52010D01*
X43413Y-52010D02*
X43560Y-52010D01*
X44042Y-52010D02*
X44167Y-52010D01*
X44691Y-52010D02*
X46912Y-52010D01*
X47488Y-52010D02*
X47720Y-52010D01*
X48080Y-52010D02*
X49320Y-52010D01*
X49680Y-52010D02*
X50005Y-52010D01*
X52094Y-52010D02*
X52870Y-52010D01*
X53230Y-52010D02*
X54818Y-52010D01*
X55182Y-52010D02*
X55320Y-52010D01*
X56287Y-52010D02*
X56900Y-52010D01*
X41600Y-52090D02*
X42850Y-52090D01*
X44121Y-52090D02*
X44247Y-52090D01*
X44611Y-52090D02*
X44753Y-52090D01*
X44868Y-52090D02*
X46945Y-52090D01*
X47454Y-52090D02*
X47720Y-52090D01*
X48080Y-52090D02*
X49320Y-52090D01*
X49680Y-52090D02*
X50085Y-52090D01*
X52014Y-52090D02*
X52870Y-52090D01*
X53230Y-52090D02*
X54702Y-52090D01*
X55298Y-52090D02*
X55320Y-52090D01*
X56239Y-52090D02*
X56900Y-52090D01*
X41600Y-52170D02*
X42804Y-52170D01*
X44185Y-52170D02*
X44327Y-52170D01*
X44531Y-52170D02*
X44673Y-52170D01*
X44901Y-52170D02*
X47011Y-52170D01*
X47388Y-52170D02*
X47720Y-52170D01*
X48080Y-52170D02*
X49320Y-52170D01*
X49680Y-52170D02*
X50165Y-52170D01*
X51934Y-52170D02*
X52870Y-52170D01*
X53230Y-52170D02*
X54631Y-52170D01*
X56159Y-52170D02*
X56301Y-52170D01*
X56473Y-52170D02*
X56900Y-52170D01*
X41600Y-52250D02*
X42770Y-52250D01*
X44265Y-52250D02*
X44407Y-52250D01*
X44451Y-52250D02*
X44593Y-52250D01*
X44922Y-52250D02*
X47720Y-52250D01*
X48080Y-52250D02*
X49320Y-52250D01*
X49680Y-52250D02*
X52870Y-52250D01*
X53230Y-52250D02*
X54597Y-52250D01*
X56079Y-52250D02*
X56221Y-52250D01*
X56506Y-52250D02*
X56900Y-52250D01*
X41600Y-52330D02*
X42765Y-52330D01*
X44345Y-52330D02*
X44513Y-52330D01*
X44927Y-52330D02*
X47720Y-52330D01*
X48080Y-52330D02*
X49320Y-52330D01*
X49680Y-52330D02*
X52870Y-52330D01*
X53234Y-52330D02*
X54570Y-52330D01*
X55999Y-52330D02*
X56141Y-52330D01*
X56517Y-52330D02*
X56900Y-52330D01*
X41600Y-52410D02*
X42765Y-52410D01*
X44425Y-52410D02*
X44567Y-52410D01*
X44931Y-52410D02*
X47720Y-52410D01*
X48080Y-52410D02*
X49320Y-52410D01*
X49680Y-52410D02*
X52872Y-52410D01*
X53314Y-52410D02*
X54570Y-52410D01*
X55939Y-52410D02*
X56081Y-52410D01*
X56521Y-52410D02*
X56900Y-52410D01*
X41600Y-52490D02*
X42792Y-52490D01*
X44505Y-52490D02*
X44647Y-52490D01*
X44903Y-52490D02*
X47705Y-52490D01*
X48080Y-52490D02*
X49320Y-52490D01*
X49680Y-52490D02*
X52898Y-52490D01*
X53394Y-52490D02*
X54572Y-52490D01*
X56019Y-52490D02*
X56161Y-52490D01*
X56518Y-52490D02*
X56900Y-52490D01*
X41600Y-52570D02*
X42826Y-52570D01*
X44585Y-52570D02*
X44727Y-52570D01*
X44876Y-52570D02*
X47625Y-52570D01*
X48075Y-52570D02*
X49320Y-52570D01*
X49680Y-52570D02*
X50627Y-52570D01*
X56099Y-52570D02*
X56241Y-52570D01*
X56490Y-52570D02*
X56900Y-52570D01*
X41600Y-52650D02*
X42903Y-52650D01*
X44665Y-52650D02*
X47545Y-52650D01*
X48045Y-52650D02*
X49320Y-52650D01*
X49680Y-52650D02*
X50545Y-52650D01*
X56179Y-52650D02*
X56321Y-52650D01*
X56462Y-52650D02*
X56900Y-52650D01*
X41600Y-52730D02*
X43045Y-52730D01*
X44696Y-52730D02*
X47465Y-52730D01*
X47974Y-52730D02*
X49311Y-52730D01*
X49689Y-52730D02*
X50465Y-52730D01*
X55278Y-52730D02*
X55320Y-52730D01*
X56259Y-52730D02*
X56900Y-52730D01*
X41600Y-52810D02*
X43080Y-52810D01*
X44612Y-52810D02*
X47385Y-52810D01*
X47894Y-52810D02*
X49246Y-52810D01*
X49755Y-52810D02*
X50232Y-52810D01*
X54843Y-52810D02*
X54866Y-52810D01*
X55133Y-52810D02*
X55320Y-52810D01*
X56281Y-52810D02*
X56900Y-52810D01*
X41600Y-52890D02*
X43080Y-52890D01*
X44520Y-52890D02*
X46452Y-52890D01*
X46849Y-52890D02*
X47305Y-52890D01*
X47814Y-52890D02*
X49212Y-52890D01*
X49788Y-52890D02*
X50154Y-52890D01*
X50813Y-52890D02*
X55320Y-52890D01*
X56185Y-52890D02*
X56900Y-52890D01*
X41600Y-52970D02*
X43111Y-52970D01*
X44489Y-52970D02*
X46391Y-52970D01*
X47734Y-52970D02*
X49211Y-52970D01*
X49789Y-52970D02*
X50121Y-52970D01*
X50733Y-52970D02*
X54915Y-52970D01*
X55086Y-52970D02*
X55320Y-52970D01*
X56276Y-52970D02*
X56900Y-52970D01*
X41600Y-53050D02*
X43147Y-53050D01*
X44453Y-53050D02*
X46361Y-53050D01*
X47654Y-53050D02*
X49228Y-53050D01*
X49771Y-53050D02*
X50111Y-53050D01*
X50689Y-53050D02*
X50950Y-53050D01*
X51252Y-53050D02*
X54742Y-53050D01*
X55258Y-53050D02*
X55320Y-53050D01*
X56279Y-53050D02*
X56900Y-53050D01*
X41600Y-53130D02*
X43226Y-53130D01*
X43744Y-53130D02*
X43854Y-53130D01*
X44372Y-53130D02*
X46361Y-53130D01*
X47574Y-53130D02*
X49271Y-53130D01*
X49728Y-53130D02*
X50120Y-53130D01*
X50679Y-53130D02*
X50862Y-53130D01*
X51339Y-53130D02*
X54662Y-53130D01*
X56199Y-53130D02*
X56341Y-53130D01*
X56453Y-53130D02*
X56900Y-53130D01*
X41600Y-53210D02*
X43378Y-53210D01*
X43592Y-53210D02*
X44006Y-53210D01*
X44220Y-53210D02*
X46383Y-53210D01*
X47494Y-53210D02*
X49372Y-53210D01*
X49626Y-53210D02*
X50153Y-53210D01*
X50646Y-53210D02*
X50825Y-53210D01*
X51376Y-53210D02*
X54614Y-53210D01*
X56119Y-53210D02*
X56261Y-53210D01*
X56489Y-53210D02*
X56900Y-53210D01*
X41600Y-53290D02*
X46431Y-53290D01*
X46868Y-53290D02*
X50231Y-53290D01*
X50568Y-53290D02*
X50811Y-53290D01*
X51389Y-53290D02*
X54581Y-53290D01*
X56039Y-53290D02*
X56181Y-53290D01*
X56515Y-53290D02*
X56900Y-53290D01*
X41600Y-53370D02*
X46546Y-53370D01*
X46752Y-53370D02*
X50816Y-53370D01*
X51424Y-53370D02*
X54570Y-53370D01*
X55959Y-53370D02*
X56101Y-53370D01*
X56519Y-53370D02*
X56900Y-53370D01*
X41600Y-53450D02*
X50849Y-53450D01*
X51504Y-53450D02*
X54570Y-53450D01*
X55979Y-53450D02*
X56121Y-53450D01*
X56523Y-53450D02*
X56900Y-53450D01*
X41600Y-53530D02*
X50921Y-53530D01*
X51584Y-53530D02*
X54588Y-53530D01*
X56059Y-53530D02*
X56201Y-53530D01*
X56504Y-53530D02*
X56900Y-53530D01*
X41600Y-53610D02*
X51155Y-53610D01*
X51664Y-53610D02*
X54621Y-53610D01*
X56139Y-53610D02*
X56281Y-53610D01*
X56476Y-53610D02*
X56900Y-53610D01*
X41600Y-53690D02*
X42102Y-53690D01*
X42625Y-53690D02*
X44976Y-53690D01*
X45499Y-53690D02*
X51235Y-53690D01*
X51744Y-53690D02*
X54682Y-53690D01*
X56219Y-53690D02*
X56361Y-53690D01*
X56375Y-53690D02*
X56900Y-53690D01*
X41600Y-53770D02*
X41939Y-53770D01*
X42787Y-53770D02*
X44813Y-53770D01*
X45661Y-53770D02*
X51315Y-53770D01*
X55701Y-53770D02*
X55708Y-53770D01*
X56291Y-53770D02*
X56900Y-53770D01*
X41600Y-53850D02*
X41859Y-53850D01*
X42867Y-53850D02*
X44733Y-53850D01*
X45741Y-53850D02*
X51395Y-53850D01*
X55669Y-53850D02*
X55729Y-53850D01*
X56270Y-53850D02*
X56900Y-53850D01*
X41600Y-53930D02*
X41779Y-53930D01*
X42947Y-53930D02*
X44653Y-53930D01*
X45821Y-53930D02*
X51475Y-53930D01*
X55624Y-53930D02*
X55765Y-53930D01*
X56230Y-53930D02*
X56900Y-53930D01*
X41600Y-54010D02*
X41736Y-54010D01*
X42991Y-54010D02*
X44610Y-54010D01*
X45865Y-54010D02*
X51555Y-54010D01*
X55544Y-54010D02*
X55714Y-54010D01*
X56287Y-54010D02*
X56900Y-54010D01*
X41600Y-54090D02*
X41703Y-54090D01*
X43024Y-54090D02*
X44577Y-54090D01*
X45898Y-54090D02*
X51641Y-54090D01*
X55457Y-54090D02*
X55761Y-54090D01*
X56239Y-54090D02*
X56900Y-54090D01*
X41600Y-54170D02*
X41670Y-54170D01*
X43057Y-54170D02*
X44544Y-54170D01*
X45931Y-54170D02*
X54631Y-54170D01*
X55371Y-54170D02*
X55531Y-54170D01*
X55699Y-54170D02*
X55841Y-54170D01*
X56159Y-54170D02*
X56301Y-54170D01*
X56473Y-54170D02*
X56900Y-54170D01*
X41600Y-54250D02*
X41653Y-54250D01*
X43073Y-54250D02*
X44527Y-54250D01*
X45947Y-54250D02*
X54597Y-54250D01*
X55404Y-54250D02*
X55503Y-54250D01*
X55779Y-54250D02*
X55921Y-54250D01*
X56079Y-54250D02*
X56221Y-54250D01*
X56506Y-54250D02*
X56900Y-54250D01*
X41600Y-54330D02*
X41653Y-54330D01*
X43073Y-54330D02*
X44527Y-54330D01*
X45947Y-54330D02*
X54570Y-54330D01*
X55430Y-54330D02*
X55476Y-54330D01*
X55859Y-54330D02*
X56141Y-54330D01*
X56517Y-54330D02*
X56900Y-54330D01*
X41600Y-54410D02*
X41653Y-54410D01*
X43073Y-54410D02*
X44527Y-54410D01*
X45947Y-54410D02*
X54570Y-54410D01*
X55430Y-54410D02*
X55480Y-54410D01*
X55919Y-54410D02*
X56081Y-54410D01*
X56521Y-54410D02*
X56900Y-54410D01*
X41600Y-54490D02*
X41653Y-54490D01*
X43073Y-54490D02*
X44527Y-54490D01*
X45947Y-54490D02*
X54572Y-54490D01*
X55428Y-54490D02*
X55484Y-54490D01*
X55839Y-54490D02*
X55981Y-54490D01*
X56019Y-54490D02*
X56161Y-54490D01*
X56518Y-54490D02*
X56900Y-54490D01*
X41600Y-54570D02*
X41685Y-54570D01*
X43040Y-54570D02*
X44559Y-54570D01*
X45914Y-54570D02*
X54604Y-54570D01*
X55394Y-54570D02*
X55502Y-54570D01*
X55759Y-54570D02*
X55901Y-54570D01*
X56099Y-54570D02*
X56241Y-54570D01*
X56490Y-54570D02*
X56900Y-54570D01*
X41600Y-54650D02*
X41718Y-54650D01*
X43007Y-54650D02*
X44592Y-54650D01*
X45881Y-54650D02*
X54642Y-54650D01*
X55358Y-54650D02*
X55536Y-54650D01*
X55679Y-54650D02*
X55821Y-54650D01*
X56179Y-54650D02*
X56321Y-54650D01*
X56462Y-54650D02*
X56900Y-54650D01*
X41600Y-54730D02*
X41751Y-54730D01*
X42974Y-54730D02*
X44625Y-54730D01*
X45848Y-54730D02*
X54722Y-54730D01*
X55278Y-54730D02*
X55741Y-54730D01*
X56259Y-54730D02*
X56900Y-54730D01*
X41600Y-54810D02*
X41819Y-54810D01*
X42907Y-54810D02*
X44693Y-54810D01*
X45781Y-54810D02*
X54866Y-54810D01*
X55133Y-54810D02*
X55719Y-54810D01*
X56281Y-54810D02*
X56900Y-54810D01*
X41600Y-54890D02*
X41899Y-54890D01*
X42827Y-54890D02*
X44773Y-54890D01*
X45701Y-54890D02*
X55829Y-54890D01*
X56187Y-54890D02*
X56900Y-54890D01*
X41600Y-54970D02*
X42004Y-54970D01*
X42721Y-54970D02*
X44878Y-54970D01*
X45595Y-54970D02*
X56900Y-54970D01*
X41600Y-55050D02*
X42197Y-55050D01*
X42528Y-55050D02*
X45071Y-55050D01*
X45402Y-55050D02*
X56900Y-55050D01*
X41600Y-55130D02*
X56900Y-55130D01*
X41600Y-55210D02*
X56900Y-55210D01*
X41600Y-55290D02*
X56900Y-55290D01*
X41600Y-55370D02*
X56900Y-55370D01*
X41600Y-55450D02*
X56900Y-55450D01*
X41600Y-55530D02*
X56900Y-55530D01*
X41600Y-55610D02*
X56900Y-55610D01*
X41600Y-55690D02*
X56900Y-55690D01*
X41600Y-55770D02*
X56900Y-55770D01*
X41600Y-55850D02*
X56900Y-55850D01*
X56900Y-55925D02*
X56900Y-43450D01*
X41600Y-43450D01*
X41600Y-55925D01*
X42222Y-55925D01*
X42222Y-55060D01*
X41961Y-54952D01*
X41761Y-54752D01*
X41653Y-54491D01*
X41653Y-54209D01*
X41761Y-53948D01*
X41961Y-53748D01*
X42222Y-53640D01*
X42504Y-53640D01*
X42765Y-53748D01*
X42965Y-53948D01*
X43073Y-54209D01*
X43073Y-54491D01*
X42965Y-54752D01*
X42765Y-54952D01*
X42504Y-55060D01*
X42222Y-55060D01*
X42222Y-55925D01*
X44033Y-55925D01*
X44033Y-53221D01*
X43883Y-53159D01*
X43800Y-53075D01*
X43715Y-53159D01*
X43566Y-53221D01*
X43405Y-53221D01*
X43255Y-53159D01*
X43142Y-53044D01*
X43080Y-52895D01*
X43080Y-52744D01*
X42940Y-52687D01*
X42827Y-52572D01*
X42765Y-52423D01*
X42765Y-52262D01*
X42827Y-52112D01*
X42942Y-51999D01*
X43091Y-51937D01*
X43252Y-51937D01*
X43402Y-51999D01*
X43485Y-52083D01*
X43571Y-51999D01*
X43720Y-51937D01*
X43881Y-51937D01*
X44031Y-51999D01*
X44144Y-52114D01*
X44154Y-52139D01*
X44358Y-52343D01*
X44429Y-52414D01*
X44429Y-52272D01*
X44152Y-51995D01*
X44171Y-51914D01*
X44171Y-45699D01*
X44116Y-45677D01*
X44074Y-45635D01*
X44051Y-45580D01*
X44051Y-44921D01*
X44073Y-44866D01*
X44115Y-44824D01*
X44170Y-44801D01*
X44410Y-44801D01*
X44410Y-44699D01*
X44245Y-44630D01*
X44119Y-44504D01*
X44051Y-44339D01*
X44051Y-44160D01*
X44120Y-43995D01*
X44246Y-43869D01*
X44411Y-43801D01*
X44590Y-43801D01*
X44755Y-43870D01*
X44881Y-43996D01*
X44949Y-44161D01*
X44949Y-44340D01*
X44880Y-44505D01*
X44754Y-44631D01*
X44589Y-44699D01*
X44410Y-44699D01*
X44410Y-44801D01*
X44829Y-44801D01*
X44884Y-44823D01*
X44926Y-44865D01*
X44949Y-44920D01*
X44949Y-45579D01*
X44927Y-45634D01*
X44885Y-45676D01*
X44830Y-45699D01*
X44171Y-45699D01*
X44171Y-51914D01*
X44173Y-51906D01*
X44301Y-51853D01*
X44492Y-51841D01*
X44492Y-49139D01*
X44386Y-49095D01*
X44305Y-49013D01*
X44261Y-48907D01*
X44261Y-48792D01*
X44305Y-48686D01*
X44387Y-48605D01*
X44493Y-48561D01*
X44585Y-48561D01*
X44922Y-48222D01*
X44981Y-48184D01*
X45050Y-48170D01*
X45171Y-48170D01*
X45237Y-48105D01*
X45343Y-48061D01*
X45410Y-48061D01*
X45410Y-45699D01*
X45245Y-45630D01*
X45119Y-45504D01*
X45051Y-45339D01*
X45051Y-45160D01*
X45120Y-44995D01*
X45246Y-44869D01*
X45410Y-44801D01*
X45410Y-44699D01*
X45245Y-44630D01*
X45119Y-44504D01*
X45051Y-44339D01*
X45051Y-44160D01*
X45120Y-43995D01*
X45246Y-43869D01*
X45411Y-43801D01*
X45590Y-43801D01*
X45755Y-43870D01*
X45881Y-43996D01*
X45949Y-44161D01*
X45949Y-44340D01*
X45880Y-44505D01*
X45754Y-44631D01*
X45589Y-44699D01*
X45410Y-44699D01*
X45410Y-44801D01*
X45590Y-44801D01*
X45755Y-44870D01*
X45881Y-44996D01*
X45949Y-45161D01*
X45949Y-45340D01*
X45880Y-45505D01*
X45754Y-45631D01*
X45589Y-45699D01*
X45410Y-45699D01*
X45410Y-48061D01*
X45458Y-48061D01*
X45564Y-48105D01*
X45645Y-48187D01*
X45689Y-48293D01*
X45689Y-48408D01*
X45645Y-48514D01*
X45563Y-48595D01*
X45457Y-48639D01*
X45342Y-48639D01*
X45236Y-48595D01*
X45171Y-48530D01*
X45124Y-48530D01*
X44839Y-48815D01*
X44839Y-48908D01*
X44795Y-49014D01*
X44713Y-49095D01*
X44607Y-49139D01*
X44492Y-49139D01*
X44492Y-51841D01*
X44498Y-51841D01*
X44685Y-51906D01*
X44706Y-51995D01*
X44429Y-52272D01*
X44429Y-52414D01*
X44706Y-52691D01*
X44685Y-52780D01*
X44557Y-52833D01*
X44520Y-52835D01*
X44520Y-52896D01*
X44458Y-53046D01*
X44343Y-53159D01*
X44194Y-53221D01*
X44033Y-53221D01*
X44033Y-55925D01*
X45096Y-55925D01*
X45096Y-55060D01*
X44835Y-54952D01*
X44635Y-54752D01*
X44527Y-54491D01*
X44527Y-54209D01*
X44635Y-53948D01*
X44777Y-53805D01*
X44777Y-52620D01*
X44500Y-52343D01*
X44777Y-52066D01*
X44866Y-52087D01*
X44919Y-52215D01*
X44931Y-52412D01*
X44866Y-52599D01*
X44777Y-52620D01*
X44777Y-53805D01*
X44835Y-53748D01*
X45096Y-53640D01*
X45378Y-53640D01*
X45639Y-53748D01*
X45839Y-53948D01*
X45947Y-54209D01*
X45947Y-54491D01*
X45839Y-54752D01*
X45639Y-54952D01*
X45378Y-55060D01*
X45096Y-55060D01*
X45096Y-55925D01*
X46592Y-55925D01*
X46592Y-53389D01*
X46486Y-53345D01*
X46405Y-53263D01*
X46361Y-53157D01*
X46361Y-53042D01*
X46405Y-52936D01*
X46410Y-52931D01*
X46410Y-45699D01*
X46245Y-45630D01*
X46119Y-45504D01*
X46051Y-45339D01*
X46051Y-45160D01*
X46120Y-44995D01*
X46246Y-44869D01*
X46410Y-44801D01*
X46410Y-44699D01*
X46245Y-44630D01*
X46119Y-44504D01*
X46051Y-44339D01*
X46051Y-44160D01*
X46120Y-43995D01*
X46246Y-43869D01*
X46411Y-43801D01*
X46590Y-43801D01*
X46755Y-43870D01*
X46881Y-43996D01*
X46949Y-44161D01*
X46949Y-44340D01*
X46880Y-44505D01*
X46754Y-44631D01*
X46589Y-44699D01*
X46410Y-44699D01*
X46410Y-44801D01*
X46590Y-44801D01*
X46755Y-44870D01*
X46881Y-44996D01*
X46949Y-45161D01*
X46949Y-45340D01*
X46880Y-45505D01*
X46754Y-45631D01*
X46589Y-45699D01*
X46410Y-45699D01*
X46410Y-52931D01*
X46487Y-52855D01*
X46593Y-52811D01*
X46708Y-52811D01*
X46814Y-52855D01*
X46878Y-52920D01*
X47275Y-52920D01*
X47720Y-52475D01*
X47720Y-49779D01*
X47636Y-49745D01*
X47627Y-49736D01*
X47595Y-49814D01*
X47513Y-49895D01*
X47407Y-49939D01*
X47380Y-49939D01*
X47380Y-51721D01*
X47445Y-51787D01*
X47489Y-51893D01*
X47489Y-52008D01*
X47445Y-52114D01*
X47363Y-52195D01*
X47257Y-52239D01*
X47142Y-52239D01*
X47036Y-52195D01*
X46955Y-52113D01*
X46911Y-52007D01*
X46911Y-51892D01*
X46955Y-51786D01*
X47020Y-51721D01*
X47020Y-49800D01*
X47034Y-49731D01*
X47061Y-49690D01*
X47061Y-49592D01*
X47105Y-49486D01*
X47187Y-49405D01*
X47293Y-49361D01*
X47410Y-49361D01*
X47410Y-45699D01*
X47245Y-45630D01*
X47119Y-45504D01*
X47051Y-45339D01*
X47051Y-45160D01*
X47120Y-44995D01*
X47246Y-44869D01*
X47410Y-44801D01*
X47410Y-44699D01*
X47245Y-44630D01*
X47119Y-44504D01*
X47051Y-44339D01*
X47051Y-44160D01*
X47120Y-43995D01*
X47246Y-43869D01*
X47411Y-43801D01*
X47590Y-43801D01*
X47755Y-43870D01*
X47881Y-43996D01*
X47949Y-44161D01*
X47949Y-44340D01*
X47880Y-44505D01*
X47754Y-44631D01*
X47589Y-44699D01*
X47410Y-44699D01*
X47410Y-44801D01*
X47590Y-44801D01*
X47755Y-44870D01*
X47881Y-44996D01*
X47949Y-45161D01*
X47949Y-45340D01*
X47880Y-45505D01*
X47754Y-45631D01*
X47589Y-45699D01*
X47410Y-45699D01*
X47410Y-49361D01*
X47514Y-49405D01*
X47522Y-49413D01*
X47555Y-49336D01*
X47637Y-49255D01*
X47743Y-49211D01*
X47858Y-49211D01*
X47964Y-49255D01*
X48045Y-49337D01*
X48089Y-49443D01*
X48089Y-49558D01*
X48077Y-49586D01*
X48080Y-49600D01*
X48080Y-52550D01*
X48066Y-52619D01*
X48027Y-52678D01*
X47477Y-53227D01*
X47419Y-53266D01*
X47350Y-53280D01*
X46878Y-53280D01*
X46813Y-53345D01*
X46707Y-53389D01*
X46592Y-53389D01*
X46592Y-55925D01*
X54914Y-55925D01*
X54914Y-54830D01*
X54756Y-54764D01*
X54635Y-54643D01*
X54570Y-54485D01*
X54570Y-54314D01*
X54636Y-54156D01*
X54661Y-54130D01*
X51750Y-54130D01*
X51681Y-54116D01*
X51622Y-54077D01*
X51134Y-53589D01*
X51042Y-53589D01*
X50936Y-53545D01*
X50855Y-53463D01*
X50811Y-53357D01*
X50811Y-53242D01*
X50855Y-53136D01*
X50937Y-53055D01*
X51043Y-53011D01*
X51158Y-53011D01*
X51264Y-53055D01*
X51345Y-53137D01*
X51389Y-53243D01*
X51389Y-53335D01*
X51824Y-53770D01*
X54770Y-53770D01*
X54756Y-53764D01*
X54635Y-53643D01*
X54570Y-53485D01*
X54570Y-53314D01*
X54636Y-53156D01*
X54757Y-53035D01*
X54915Y-52970D01*
X55086Y-52970D01*
X55244Y-53036D01*
X55320Y-53112D01*
X55320Y-52688D01*
X55243Y-52765D01*
X55085Y-52830D01*
X54914Y-52830D01*
X54850Y-52803D01*
X54827Y-52827D01*
X54769Y-52866D01*
X54700Y-52880D01*
X53350Y-52880D01*
X50824Y-52879D01*
X50689Y-53015D01*
X50689Y-53108D01*
X50645Y-53214D01*
X50563Y-53295D01*
X50457Y-53339D01*
X50342Y-53339D01*
X50236Y-53295D01*
X50155Y-53213D01*
X50111Y-53107D01*
X50111Y-52992D01*
X50155Y-52886D01*
X50237Y-52805D01*
X50343Y-52761D01*
X50434Y-52760D01*
X50622Y-52573D01*
X50645Y-52557D01*
X50681Y-52534D01*
X50750Y-52520D01*
X52918Y-52520D01*
X52884Y-52469D01*
X52870Y-52400D01*
X52870Y-51624D01*
X52775Y-51530D01*
X52388Y-51530D01*
X52395Y-51537D01*
X52439Y-51643D01*
X52439Y-51758D01*
X52395Y-51864D01*
X52313Y-51945D01*
X52207Y-51989D01*
X52115Y-51989D01*
X51927Y-52177D01*
X51869Y-52216D01*
X51800Y-52230D01*
X50300Y-52230D01*
X50231Y-52216D01*
X50172Y-52177D01*
X49934Y-51939D01*
X49842Y-51939D01*
X49736Y-51895D01*
X49680Y-51838D01*
X49680Y-52721D01*
X49745Y-52787D01*
X49789Y-52893D01*
X49789Y-53008D01*
X49745Y-53114D01*
X49663Y-53195D01*
X49557Y-53239D01*
X49442Y-53239D01*
X49336Y-53195D01*
X49255Y-53113D01*
X49211Y-53007D01*
X49211Y-52892D01*
X49255Y-52786D01*
X49320Y-52721D01*
X49320Y-51359D01*
X49286Y-51345D01*
X49205Y-51263D01*
X49161Y-51157D01*
X49161Y-51042D01*
X49205Y-50936D01*
X49287Y-50855D01*
X49393Y-50811D01*
X49508Y-50811D01*
X49614Y-50855D01*
X49695Y-50937D01*
X49720Y-50997D01*
X49720Y-50778D01*
X49655Y-50713D01*
X49611Y-50607D01*
X49611Y-50492D01*
X49655Y-50386D01*
X49737Y-50305D01*
X49797Y-50279D01*
X49000Y-50280D01*
X48931Y-50266D01*
X48872Y-50227D01*
X48784Y-50139D01*
X48692Y-50139D01*
X48586Y-50095D01*
X48505Y-50013D01*
X48461Y-49907D01*
X48461Y-49792D01*
X48505Y-49686D01*
X48587Y-49605D01*
X48693Y-49561D01*
X48808Y-49561D01*
X48914Y-49605D01*
X48995Y-49687D01*
X49039Y-49793D01*
X49039Y-49884D01*
X49074Y-49920D01*
X50521Y-49920D01*
X50587Y-49855D01*
X50693Y-49811D01*
X50808Y-49811D01*
X50914Y-49855D01*
X50995Y-49937D01*
X51039Y-50043D01*
X51039Y-50158D01*
X50995Y-50264D01*
X50913Y-50345D01*
X50807Y-50389D01*
X50692Y-50389D01*
X50586Y-50345D01*
X50521Y-50280D01*
X50003Y-50279D01*
X50064Y-50305D01*
X50145Y-50387D01*
X50189Y-50493D01*
X50189Y-50608D01*
X50186Y-50613D01*
X50193Y-50611D01*
X50308Y-50611D01*
X50414Y-50655D01*
X50495Y-50737D01*
X50539Y-50843D01*
X50539Y-50934D01*
X50774Y-51170D01*
X51542Y-51170D01*
X51542Y-49239D01*
X51436Y-49195D01*
X51364Y-49122D01*
X51331Y-49116D01*
X51273Y-49077D01*
X49585Y-47389D01*
X49492Y-47389D01*
X49386Y-47345D01*
X49305Y-47263D01*
X49261Y-47157D01*
X49261Y-47042D01*
X49265Y-47030D01*
X48924Y-47030D01*
X48539Y-47415D01*
X48539Y-47508D01*
X48495Y-47614D01*
X48413Y-47695D01*
X48307Y-47739D01*
X48192Y-47739D01*
X48105Y-47703D01*
X48063Y-47745D01*
X47957Y-47789D01*
X47842Y-47789D01*
X47736Y-47745D01*
X47655Y-47663D01*
X47611Y-47557D01*
X47611Y-47442D01*
X47655Y-47336D01*
X47737Y-47255D01*
X47843Y-47211D01*
X47934Y-47211D01*
X48122Y-47023D01*
X48122Y-45558D01*
X48028Y-45531D01*
X47968Y-45384D01*
X47957Y-45171D01*
X48028Y-44969D01*
X48122Y-44942D01*
X48410Y-45230D01*
X48429Y-45250D01*
X48410Y-45269D01*
X48122Y-45558D01*
X48122Y-47023D01*
X48421Y-46724D01*
X48421Y-45793D01*
X48410Y-45789D01*
X48219Y-45722D01*
X48192Y-45628D01*
X48410Y-45410D01*
X48500Y-45321D01*
X48500Y-45179D01*
X48410Y-45089D01*
X48192Y-44872D01*
X48219Y-44778D01*
X48366Y-44718D01*
X48410Y-44715D01*
X48410Y-44699D01*
X48245Y-44630D01*
X48119Y-44504D01*
X48051Y-44339D01*
X48051Y-44160D01*
X48120Y-43995D01*
X48246Y-43869D01*
X48411Y-43801D01*
X48590Y-43801D01*
X48755Y-43870D01*
X48881Y-43996D01*
X48949Y-44161D01*
X48949Y-44340D01*
X48880Y-44505D01*
X48754Y-44631D01*
X48589Y-44699D01*
X48410Y-44699D01*
X48410Y-44715D01*
X48579Y-44707D01*
X48781Y-44778D01*
X48808Y-44872D01*
X48500Y-45179D01*
X48500Y-45321D01*
X48808Y-45628D01*
X48781Y-45722D01*
X48634Y-45782D01*
X48421Y-45793D01*
X48421Y-46724D01*
X48672Y-46473D01*
X48731Y-46434D01*
X48800Y-46420D01*
X48878Y-46420D01*
X48878Y-45558D01*
X48571Y-45250D01*
X48878Y-44942D01*
X48972Y-44969D01*
X49032Y-45116D01*
X49043Y-45329D01*
X48972Y-45531D01*
X48878Y-45558D01*
X48878Y-46420D01*
X49171Y-46420D01*
X49237Y-46355D01*
X49343Y-46311D01*
X49458Y-46311D01*
X49564Y-46355D01*
X49645Y-46437D01*
X49689Y-46543D01*
X49689Y-46658D01*
X49684Y-46670D01*
X50371Y-46670D01*
X50437Y-46605D01*
X50543Y-46561D01*
X50658Y-46561D01*
X50764Y-46605D01*
X50845Y-46687D01*
X50889Y-46793D01*
X50889Y-46908D01*
X50845Y-47014D01*
X50763Y-47095D01*
X50657Y-47139D01*
X50542Y-47139D01*
X50436Y-47095D01*
X50371Y-47030D01*
X49833Y-47030D01*
X49839Y-47043D01*
X49839Y-47135D01*
X51422Y-48718D01*
X51437Y-48705D01*
X51543Y-48661D01*
X51658Y-48661D01*
X51764Y-48705D01*
X51845Y-48787D01*
X51889Y-48893D01*
X51889Y-49008D01*
X51845Y-49114D01*
X51763Y-49195D01*
X51657Y-49239D01*
X51542Y-49239D01*
X51542Y-51170D01*
X52850Y-51170D01*
X52919Y-51184D01*
X52977Y-51223D01*
X53177Y-51422D01*
X53216Y-51481D01*
X53230Y-51550D01*
X53230Y-52326D01*
X53424Y-52520D01*
X54584Y-52520D01*
X54570Y-52485D01*
X54570Y-52314D01*
X54636Y-52156D01*
X54757Y-52035D01*
X54915Y-51970D01*
X55086Y-51970D01*
X55244Y-52036D01*
X55320Y-52112D01*
X55320Y-51688D01*
X55243Y-51765D01*
X55085Y-51830D01*
X54914Y-51830D01*
X54756Y-51764D01*
X54635Y-51643D01*
X54570Y-51485D01*
X54570Y-51314D01*
X54611Y-51215D01*
X51235Y-47839D01*
X51142Y-47839D01*
X51036Y-47795D01*
X50955Y-47713D01*
X50911Y-47607D01*
X50911Y-47492D01*
X50955Y-47386D01*
X51037Y-47305D01*
X51143Y-47261D01*
X51258Y-47261D01*
X51364Y-47305D01*
X51445Y-47387D01*
X51489Y-47493D01*
X51489Y-47585D01*
X54885Y-50981D01*
X54915Y-50970D01*
X55086Y-50970D01*
X55244Y-51036D01*
X55320Y-51112D01*
X55320Y-50688D01*
X55243Y-50765D01*
X55085Y-50830D01*
X54914Y-50830D01*
X54756Y-50764D01*
X54635Y-50643D01*
X54570Y-50485D01*
X54570Y-50314D01*
X54636Y-50156D01*
X54757Y-50035D01*
X54915Y-49970D01*
X55086Y-49970D01*
X55244Y-50036D01*
X55320Y-50112D01*
X55320Y-49688D01*
X55243Y-49765D01*
X55085Y-49830D01*
X54914Y-49830D01*
X54756Y-49764D01*
X54635Y-49643D01*
X54570Y-49485D01*
X54570Y-49314D01*
X54636Y-49156D01*
X54757Y-49035D01*
X54915Y-48970D01*
X55086Y-48970D01*
X55244Y-49036D01*
X55320Y-49112D01*
X55320Y-48688D01*
X55243Y-48765D01*
X55085Y-48830D01*
X54914Y-48830D01*
X54756Y-48764D01*
X54635Y-48643D01*
X54570Y-48485D01*
X54570Y-48314D01*
X54636Y-48156D01*
X54757Y-48035D01*
X54915Y-47970D01*
X55086Y-47970D01*
X55244Y-48036D01*
X55320Y-48112D01*
X55320Y-47688D01*
X55243Y-47765D01*
X55085Y-47830D01*
X54914Y-47830D01*
X54756Y-47764D01*
X54635Y-47643D01*
X54570Y-47485D01*
X54570Y-47314D01*
X54636Y-47156D01*
X54757Y-47035D01*
X54915Y-46970D01*
X55086Y-46970D01*
X55244Y-47036D01*
X55320Y-47112D01*
X55320Y-46974D01*
X55149Y-46803D01*
X55085Y-46830D01*
X54914Y-46830D01*
X54756Y-46764D01*
X54635Y-46643D01*
X54570Y-46485D01*
X54570Y-46314D01*
X54636Y-46156D01*
X54757Y-46035D01*
X54914Y-45970D01*
X54914Y-45830D01*
X54756Y-45764D01*
X54635Y-45643D01*
X54570Y-45485D01*
X54570Y-45314D01*
X54636Y-45156D01*
X54757Y-45035D01*
X54915Y-44970D01*
X55086Y-44970D01*
X55244Y-45036D01*
X55365Y-45157D01*
X55430Y-45315D01*
X55430Y-45486D01*
X55364Y-45644D01*
X55243Y-45765D01*
X55085Y-45830D01*
X54914Y-45830D01*
X54914Y-45970D01*
X55086Y-45970D01*
X55244Y-46036D01*
X55365Y-46157D01*
X55430Y-46315D01*
X55430Y-46486D01*
X55403Y-46549D01*
X55627Y-46773D01*
X55636Y-46786D01*
X55666Y-46831D01*
X55680Y-46900D01*
X55680Y-47029D01*
X55690Y-47019D01*
X55707Y-47036D01*
X55731Y-46944D01*
X55846Y-46896D01*
X55731Y-46856D01*
X55707Y-46764D01*
X55690Y-46781D01*
X55636Y-46727D01*
X55619Y-46710D01*
X55636Y-46693D01*
X55544Y-46669D01*
X55487Y-46532D01*
X55476Y-46326D01*
X55544Y-46131D01*
X55636Y-46107D01*
X55929Y-46400D01*
X56000Y-46471D01*
X56000Y-46329D01*
X55707Y-46036D01*
X55731Y-45944D01*
X55868Y-45887D01*
X55914Y-45884D01*
X55914Y-45830D01*
X55756Y-45764D01*
X55635Y-45643D01*
X55570Y-45485D01*
X55570Y-45314D01*
X55636Y-45156D01*
X55757Y-45035D01*
X55915Y-44970D01*
X56086Y-44970D01*
X56244Y-45036D01*
X56365Y-45157D01*
X56430Y-45315D01*
X56430Y-45486D01*
X56364Y-45644D01*
X56243Y-45765D01*
X56085Y-45830D01*
X55914Y-45830D01*
X55914Y-45884D01*
X56074Y-45876D01*
X56269Y-45944D01*
X56293Y-46036D01*
X56000Y-46329D01*
X56000Y-46471D01*
X56293Y-46764D01*
X56269Y-46856D01*
X56153Y-46903D01*
X56269Y-46944D01*
X56293Y-47036D01*
X56000Y-47329D01*
X55929Y-47400D01*
X56000Y-47471D01*
X56293Y-47764D01*
X56269Y-47856D01*
X56153Y-47903D01*
X56269Y-47944D01*
X56293Y-48036D01*
X56000Y-48329D01*
X55929Y-48400D01*
X56000Y-48471D01*
X56293Y-48764D01*
X56269Y-48856D01*
X56153Y-48903D01*
X56269Y-48944D01*
X56293Y-49036D01*
X56000Y-49329D01*
X55929Y-49400D01*
X56000Y-49471D01*
X56293Y-49764D01*
X56269Y-49856D01*
X56153Y-49903D01*
X56269Y-49944D01*
X56293Y-50036D01*
X56000Y-50329D01*
X55929Y-50400D01*
X56000Y-50471D01*
X56293Y-50764D01*
X56269Y-50856D01*
X56153Y-50903D01*
X56269Y-50944D01*
X56293Y-51036D01*
X56000Y-51329D01*
X55929Y-51400D01*
X56000Y-51471D01*
X56293Y-51764D01*
X56269Y-51856D01*
X56153Y-51903D01*
X56269Y-51944D01*
X56293Y-52036D01*
X56000Y-52329D01*
X55929Y-52400D01*
X56000Y-52471D01*
X56293Y-52764D01*
X56269Y-52856D01*
X56153Y-52903D01*
X56269Y-52944D01*
X56293Y-53036D01*
X56000Y-53329D01*
X55929Y-53400D01*
X56000Y-53471D01*
X56293Y-53764D01*
X56269Y-53856D01*
X56153Y-53903D01*
X56269Y-53944D01*
X56293Y-54036D01*
X56000Y-54329D01*
X55707Y-54036D01*
X55731Y-53944D01*
X55846Y-53896D01*
X55731Y-53856D01*
X55707Y-53764D01*
X55690Y-53781D01*
X55680Y-53771D01*
X55680Y-53800D01*
X55666Y-53869D01*
X55627Y-53927D01*
X55477Y-54077D01*
X55419Y-54116D01*
X55350Y-54130D01*
X55337Y-54130D01*
X55365Y-54157D01*
X55430Y-54315D01*
X55430Y-54486D01*
X55364Y-54644D01*
X55243Y-54765D01*
X55085Y-54830D01*
X54914Y-54830D01*
X54914Y-55925D01*
X55636Y-55925D01*
X55636Y-54693D01*
X55544Y-54669D01*
X55487Y-54532D01*
X55476Y-54326D01*
X55544Y-54131D01*
X55636Y-54107D01*
X55929Y-54400D01*
X55636Y-54693D01*
X55636Y-55925D01*
X55926Y-55925D01*
X55926Y-54924D01*
X55914Y-54919D01*
X55731Y-54856D01*
X55707Y-54764D01*
X56000Y-54471D01*
X56293Y-54764D01*
X56269Y-54856D01*
X56132Y-54913D01*
X55926Y-54924D01*
X55926Y-55925D01*
X56364Y-55925D01*
X56364Y-54693D01*
X56071Y-54400D01*
X56364Y-54107D01*
X56364Y-53693D01*
X56071Y-53400D01*
X56364Y-53107D01*
X56364Y-52693D01*
X56071Y-52400D01*
X56364Y-52107D01*
X56364Y-51693D01*
X56071Y-51400D01*
X56364Y-51107D01*
X56364Y-50693D01*
X56071Y-50400D01*
X56364Y-50107D01*
X56364Y-49693D01*
X56071Y-49400D01*
X56364Y-49107D01*
X56364Y-48693D01*
X56071Y-48400D01*
X56364Y-48107D01*
X56364Y-47693D01*
X56071Y-47400D01*
X56364Y-47107D01*
X56364Y-46693D01*
X56071Y-46400D01*
X56364Y-46107D01*
X56456Y-46131D01*
X56513Y-46268D01*
X56524Y-46474D01*
X56456Y-46669D01*
X56364Y-46693D01*
X56364Y-47107D01*
X56456Y-47131D01*
X56513Y-47268D01*
X56524Y-47474D01*
X56456Y-47669D01*
X56364Y-47693D01*
X56364Y-48107D01*
X56456Y-48131D01*
X56513Y-48268D01*
X56524Y-48474D01*
X56456Y-48669D01*
X56364Y-48693D01*
X56364Y-49107D01*
X56456Y-49131D01*
X56513Y-49268D01*
X56524Y-49474D01*
X56456Y-49669D01*
X56364Y-49693D01*
X56364Y-50107D01*
X56456Y-50131D01*
X56513Y-50268D01*
X56524Y-50474D01*
X56456Y-50669D01*
X56364Y-50693D01*
X56364Y-51107D01*
X56456Y-51131D01*
X56513Y-51268D01*
X56524Y-51474D01*
X56456Y-51669D01*
X56364Y-51693D01*
X56364Y-52107D01*
X56456Y-52131D01*
X56513Y-52268D01*
X56524Y-52474D01*
X56456Y-52669D01*
X56364Y-52693D01*
X56364Y-53107D01*
X56456Y-53131D01*
X56513Y-53268D01*
X56524Y-53474D01*
X56456Y-53669D01*
X56364Y-53693D01*
X56364Y-54107D01*
X56456Y-54131D01*
X56513Y-54268D01*
X56524Y-54474D01*
X56456Y-54669D01*
X56364Y-54693D01*
X56364Y-55925D01*
X56900Y-55925D01*
X58475Y-33275D02*
X64249Y-33275D01*
X64700Y-33275D02*
X65425Y-33275D01*
X58475Y-33355D02*
X59330Y-33355D01*
X59622Y-33355D02*
X60330Y-33355D01*
X60622Y-33355D02*
X61330Y-33355D01*
X61622Y-33355D02*
X62330Y-33355D01*
X62622Y-33355D02*
X63330Y-33355D01*
X63622Y-33355D02*
X64116Y-33355D01*
X64835Y-33355D02*
X65425Y-33355D01*
X58475Y-33435D02*
X59184Y-33435D01*
X59766Y-33435D02*
X60184Y-33435D01*
X60766Y-33435D02*
X61184Y-33435D01*
X61766Y-33435D02*
X62184Y-33435D01*
X62766Y-33435D02*
X63184Y-33435D01*
X63766Y-33435D02*
X64044Y-33435D01*
X64907Y-33435D02*
X65425Y-33435D01*
X58475Y-33515D02*
X59104Y-33515D01*
X59846Y-33515D02*
X60104Y-33515D01*
X60846Y-33515D02*
X61104Y-33515D01*
X61846Y-33515D02*
X62104Y-33515D01*
X62846Y-33515D02*
X63104Y-33515D01*
X63846Y-33515D02*
X63987Y-33515D01*
X64964Y-33515D02*
X65425Y-33515D01*
X58475Y-33595D02*
X59065Y-33595D01*
X59886Y-33595D02*
X60065Y-33595D01*
X60886Y-33595D02*
X61065Y-33595D01*
X61886Y-33595D02*
X62065Y-33595D01*
X62886Y-33595D02*
X63065Y-33595D01*
X63886Y-33595D02*
X63959Y-33595D01*
X64992Y-33595D02*
X65425Y-33595D01*
X58475Y-33675D02*
X59032Y-33675D01*
X59919Y-33675D02*
X60032Y-33675D01*
X60919Y-33675D02*
X61032Y-33675D01*
X61919Y-33675D02*
X62032Y-33675D01*
X62919Y-33675D02*
X63032Y-33675D01*
X63919Y-33675D02*
X63962Y-33675D01*
X64987Y-33675D02*
X65425Y-33675D01*
X58475Y-33755D02*
X59026Y-33755D01*
X59924Y-33755D02*
X60026Y-33755D01*
X60924Y-33755D02*
X61026Y-33755D01*
X61924Y-33755D02*
X62026Y-33755D01*
X62924Y-33755D02*
X63026Y-33755D01*
X63924Y-33755D02*
X63975Y-33755D01*
X64425Y-33755D02*
X65425Y-33755D01*
X58475Y-33835D02*
X59026Y-33835D01*
X59924Y-33835D02*
X60026Y-33835D01*
X60924Y-33835D02*
X61026Y-33835D01*
X61924Y-33835D02*
X62026Y-33835D01*
X62924Y-33835D02*
X63026Y-33835D01*
X63924Y-33835D02*
X63985Y-33835D01*
X64425Y-33835D02*
X64525Y-33835D01*
X64966Y-33835D02*
X65425Y-33835D01*
X58475Y-33915D02*
X59047Y-33915D01*
X59902Y-33915D02*
X60047Y-33915D01*
X60902Y-33915D02*
X61047Y-33915D01*
X61902Y-33915D02*
X62047Y-33915D01*
X62902Y-33915D02*
X63047Y-33915D01*
X63902Y-33915D02*
X63944Y-33915D01*
X64425Y-33915D02*
X64525Y-33915D01*
X65005Y-33915D02*
X65425Y-33915D01*
X58475Y-33995D02*
X59081Y-33995D01*
X59868Y-33995D02*
X60081Y-33995D01*
X60868Y-33995D02*
X61081Y-33995D01*
X61868Y-33995D02*
X62017Y-33995D01*
X62868Y-33995D02*
X63081Y-33995D01*
X63868Y-33995D02*
X63972Y-33995D01*
X64425Y-33995D02*
X64525Y-33995D01*
X64977Y-33995D02*
X65425Y-33995D01*
X58475Y-34075D02*
X59144Y-34075D01*
X59806Y-34075D02*
X60144Y-34075D01*
X60806Y-34075D02*
X61144Y-34075D01*
X61806Y-34075D02*
X61995Y-34075D01*
X62806Y-34075D02*
X63144Y-34075D01*
X63806Y-34075D02*
X64007Y-34075D01*
X64425Y-34075D02*
X64525Y-34075D01*
X64942Y-34075D02*
X65425Y-34075D01*
X58475Y-34155D02*
X59233Y-34155D01*
X59716Y-34155D02*
X60233Y-34155D01*
X60716Y-34155D02*
X61234Y-34155D01*
X61717Y-34155D02*
X61995Y-34155D01*
X62717Y-34155D02*
X63225Y-34155D01*
X63725Y-34155D02*
X64079Y-34155D01*
X64425Y-34155D02*
X64525Y-34155D01*
X64870Y-34155D02*
X65425Y-34155D01*
X58475Y-34235D02*
X59307Y-34235D01*
X59790Y-34235D02*
X60307Y-34235D01*
X60790Y-34235D02*
X61295Y-34235D01*
X61655Y-34235D02*
X61995Y-34235D01*
X62355Y-34235D02*
X63225Y-34235D01*
X63725Y-34235D02*
X64166Y-34235D01*
X64425Y-34235D02*
X64525Y-34235D01*
X64783Y-34235D02*
X65425Y-34235D01*
X58475Y-34315D02*
X59361Y-34315D01*
X59870Y-34315D02*
X60361Y-34315D01*
X60870Y-34315D02*
X61295Y-34315D01*
X61655Y-34315D02*
X61995Y-34315D01*
X62355Y-34315D02*
X63225Y-34315D01*
X63725Y-34315D02*
X64333Y-34315D01*
X64341Y-34315D02*
X64608Y-34315D01*
X64616Y-34315D02*
X65425Y-34315D01*
X58475Y-34395D02*
X59441Y-34395D01*
X59950Y-34395D02*
X60441Y-34395D01*
X60950Y-34395D02*
X61295Y-34395D01*
X61655Y-34395D02*
X61995Y-34395D01*
X62355Y-34395D02*
X63225Y-34395D01*
X63725Y-34395D02*
X65425Y-34395D01*
X58475Y-34475D02*
X59521Y-34475D01*
X60030Y-34475D02*
X60521Y-34475D01*
X61030Y-34475D02*
X61295Y-34475D01*
X61655Y-34475D02*
X61995Y-34475D01*
X62355Y-34475D02*
X63225Y-34475D01*
X63725Y-34475D02*
X65425Y-34475D01*
X58475Y-34555D02*
X58678Y-34555D01*
X58925Y-34555D02*
X59025Y-34555D01*
X59273Y-34555D02*
X59601Y-34555D01*
X60110Y-34555D02*
X60601Y-34555D01*
X61110Y-34555D02*
X61295Y-34555D01*
X61655Y-34555D02*
X61995Y-34555D01*
X62355Y-34555D02*
X63225Y-34555D01*
X63725Y-34555D02*
X64678Y-34555D01*
X64925Y-34555D02*
X65025Y-34555D01*
X65273Y-34555D02*
X65425Y-34555D01*
X58475Y-34635D02*
X58590Y-34635D01*
X58925Y-34635D02*
X59025Y-34635D01*
X59361Y-34635D02*
X59681Y-34635D01*
X60190Y-34635D02*
X60681Y-34635D01*
X61178Y-34635D02*
X61295Y-34635D01*
X61655Y-34635D02*
X61995Y-34635D01*
X62355Y-34635D02*
X63225Y-34635D01*
X63725Y-34635D02*
X64589Y-34635D01*
X64925Y-34635D02*
X65025Y-34635D01*
X65361Y-34635D02*
X65425Y-34635D01*
X58475Y-34715D02*
X58516Y-34715D01*
X58925Y-34715D02*
X59025Y-34715D01*
X59435Y-34715D02*
X59761Y-34715D01*
X60270Y-34715D02*
X60761Y-34715D01*
X61203Y-34715D02*
X61295Y-34715D01*
X61655Y-34715D02*
X61995Y-34715D01*
X62355Y-34715D02*
X63225Y-34715D01*
X63725Y-34715D02*
X64516Y-34715D01*
X64925Y-34715D02*
X65025Y-34715D01*
X58475Y-34795D02*
X58477Y-34795D01*
X58925Y-34795D02*
X59025Y-34795D01*
X59473Y-34795D02*
X59841Y-34795D01*
X60350Y-34795D02*
X60841Y-34795D01*
X61205Y-34795D02*
X61295Y-34795D01*
X61655Y-34795D02*
X61995Y-34795D01*
X62355Y-34795D02*
X63225Y-34795D01*
X63725Y-34795D02*
X64478Y-34795D01*
X64925Y-34795D02*
X65025Y-34795D01*
X58925Y-34875D02*
X59025Y-34875D01*
X59511Y-34875D02*
X59921Y-34875D01*
X60430Y-34875D02*
X60845Y-34875D01*
X61205Y-34875D02*
X61295Y-34875D01*
X61655Y-34875D02*
X61995Y-34875D01*
X62355Y-34875D02*
X63225Y-34875D01*
X63725Y-34875D02*
X64440Y-34875D01*
X64925Y-34875D02*
X65025Y-34875D01*
X58925Y-34955D02*
X59025Y-34955D01*
X59480Y-34955D02*
X60001Y-34955D01*
X60510Y-34955D02*
X60845Y-34955D01*
X61205Y-34955D02*
X61295Y-34955D01*
X61655Y-34955D02*
X61995Y-34955D01*
X62355Y-34955D02*
X63225Y-34955D01*
X63725Y-34955D02*
X64469Y-34955D01*
X64925Y-34955D02*
X65025Y-34955D01*
X58925Y-35035D02*
X60081Y-35035D01*
X60590Y-35035D02*
X60845Y-35035D01*
X61205Y-35035D02*
X61295Y-35035D01*
X61655Y-35035D02*
X61995Y-35035D01*
X62355Y-35035D02*
X63225Y-35035D01*
X63725Y-35035D02*
X65025Y-35035D01*
X59492Y-35115D02*
X60161Y-35115D01*
X60670Y-35115D02*
X60845Y-35115D01*
X61205Y-35115D02*
X61295Y-35115D01*
X61655Y-35115D02*
X61995Y-35115D01*
X62355Y-35115D02*
X63225Y-35115D01*
X63725Y-35115D02*
X64459Y-35115D01*
X59501Y-35195D02*
X60241Y-35195D01*
X60750Y-35195D02*
X60845Y-35195D01*
X61205Y-35195D02*
X61295Y-35195D01*
X61655Y-35195D02*
X61995Y-35195D01*
X62355Y-35195D02*
X63225Y-35195D01*
X63725Y-35195D02*
X64448Y-35195D01*
X58475Y-35275D02*
X58486Y-35275D01*
X59463Y-35275D02*
X60321Y-35275D01*
X60830Y-35275D02*
X60845Y-35275D01*
X61205Y-35275D02*
X61295Y-35275D01*
X61655Y-35275D02*
X61995Y-35275D01*
X62355Y-35275D02*
X63225Y-35275D01*
X63725Y-35275D02*
X64486Y-35275D01*
X58475Y-35355D02*
X58525Y-35355D01*
X59424Y-35355D02*
X60401Y-35355D01*
X61205Y-35355D02*
X61295Y-35355D01*
X61655Y-35355D02*
X61995Y-35355D01*
X62355Y-35355D02*
X63225Y-35355D01*
X63725Y-35355D02*
X64525Y-35355D01*
X65424Y-35355D02*
X65425Y-35355D01*
X58475Y-35435D02*
X58611Y-35435D01*
X59338Y-35435D02*
X60481Y-35435D01*
X61205Y-35435D02*
X61295Y-35435D01*
X61655Y-35435D02*
X61995Y-35435D01*
X62355Y-35435D02*
X63225Y-35435D01*
X63725Y-35435D02*
X64611Y-35435D01*
X65338Y-35435D02*
X65425Y-35435D01*
X58475Y-35515D02*
X58718Y-35515D01*
X58915Y-35515D02*
X58925Y-35515D01*
X59025Y-35515D02*
X59034Y-35515D01*
X59231Y-35515D02*
X60545Y-35515D01*
X61205Y-35515D02*
X61295Y-35515D01*
X61655Y-35515D02*
X61995Y-35515D01*
X62355Y-35515D02*
X63225Y-35515D01*
X63725Y-35515D02*
X64718Y-35515D01*
X64915Y-35515D02*
X64925Y-35515D01*
X65025Y-35515D02*
X65034Y-35515D01*
X65231Y-35515D02*
X65425Y-35515D01*
X58475Y-35595D02*
X58843Y-35595D01*
X59110Y-35595D02*
X60545Y-35595D01*
X61205Y-35595D02*
X61295Y-35595D01*
X61655Y-35595D02*
X61995Y-35595D01*
X62355Y-35595D02*
X63225Y-35595D01*
X63725Y-35595D02*
X64840Y-35595D01*
X65109Y-35595D02*
X65425Y-35595D01*
X58475Y-35675D02*
X58694Y-35675D01*
X59256Y-35675D02*
X60545Y-35675D01*
X61205Y-35675D02*
X61295Y-35675D01*
X61655Y-35675D02*
X61995Y-35675D01*
X62355Y-35675D02*
X63225Y-35675D01*
X63725Y-35675D02*
X64694Y-35675D01*
X65256Y-35675D02*
X65425Y-35675D01*
X58475Y-35755D02*
X58614Y-35755D01*
X59336Y-35755D02*
X60545Y-35755D01*
X61205Y-35755D02*
X61295Y-35755D01*
X61655Y-35755D02*
X61995Y-35755D01*
X62355Y-35755D02*
X63225Y-35755D01*
X63725Y-35755D02*
X64614Y-35755D01*
X65336Y-35755D02*
X65425Y-35755D01*
X58475Y-35835D02*
X58574Y-35835D01*
X59377Y-35835D02*
X60545Y-35835D01*
X61205Y-35835D02*
X61295Y-35835D01*
X61655Y-35835D02*
X61995Y-35835D01*
X62355Y-35835D02*
X63225Y-35835D01*
X63725Y-35835D02*
X64574Y-35835D01*
X65377Y-35835D02*
X65425Y-35835D01*
X58475Y-35915D02*
X58540Y-35915D01*
X59410Y-35915D02*
X60545Y-35915D01*
X61205Y-35915D02*
X61295Y-35915D01*
X61655Y-35915D02*
X61995Y-35915D01*
X62355Y-35915D02*
X63225Y-35915D01*
X63725Y-35915D02*
X64540Y-35915D01*
X65410Y-35915D02*
X65425Y-35915D01*
X58475Y-35995D02*
X58534Y-35995D01*
X59416Y-35995D02*
X60545Y-35995D01*
X61205Y-35995D02*
X61295Y-35995D01*
X61655Y-35995D02*
X61995Y-35995D01*
X62355Y-35995D02*
X63225Y-35995D01*
X63725Y-35995D02*
X64534Y-35995D01*
X65416Y-35995D02*
X65425Y-35995D01*
X58475Y-36075D02*
X58534Y-36075D01*
X59416Y-36075D02*
X60545Y-36075D01*
X61205Y-36075D02*
X61295Y-36075D01*
X61655Y-36075D02*
X61995Y-36075D01*
X62355Y-36075D02*
X63225Y-36075D01*
X63725Y-36075D02*
X64534Y-36075D01*
X65416Y-36075D02*
X65425Y-36075D01*
X58475Y-36155D02*
X58548Y-36155D01*
X59401Y-36155D02*
X60545Y-36155D01*
X61205Y-36155D02*
X61295Y-36155D01*
X61655Y-36155D02*
X61995Y-36155D01*
X62355Y-36155D02*
X63225Y-36155D01*
X63725Y-36155D02*
X64548Y-36155D01*
X65401Y-36155D02*
X65425Y-36155D01*
X58475Y-36235D02*
X58581Y-36235D01*
X59368Y-36235D02*
X60545Y-36235D01*
X61205Y-36235D02*
X61295Y-36235D01*
X61655Y-36235D02*
X61995Y-36235D01*
X62355Y-36235D02*
X63225Y-36235D01*
X63725Y-36235D02*
X64581Y-36235D01*
X65368Y-36235D02*
X65425Y-36235D01*
X58475Y-36315D02*
X58634Y-36315D01*
X59316Y-36315D02*
X60545Y-36315D01*
X61205Y-36315D02*
X61295Y-36315D01*
X61655Y-36315D02*
X61995Y-36315D01*
X62355Y-36315D02*
X63225Y-36315D01*
X63725Y-36315D02*
X64634Y-36315D01*
X65316Y-36315D02*
X65425Y-36315D01*
X58475Y-36395D02*
X58714Y-36395D01*
X59236Y-36395D02*
X60545Y-36395D01*
X61205Y-36395D02*
X61295Y-36395D01*
X61655Y-36395D02*
X61995Y-36395D01*
X62355Y-36395D02*
X63151Y-36395D01*
X63725Y-36395D02*
X64714Y-36395D01*
X65236Y-36395D02*
X65425Y-36395D01*
X58475Y-36475D02*
X60545Y-36475D01*
X61205Y-36475D02*
X61295Y-36475D01*
X61655Y-36475D02*
X61995Y-36475D01*
X62355Y-36475D02*
X63071Y-36475D01*
X63715Y-36475D02*
X65425Y-36475D01*
X58475Y-36555D02*
X60545Y-36555D01*
X61205Y-36555D02*
X61295Y-36555D01*
X61655Y-36555D02*
X61995Y-36555D01*
X62355Y-36555D02*
X62991Y-36555D01*
X63683Y-36555D02*
X65425Y-36555D01*
X58475Y-36635D02*
X58746Y-36635D01*
X59204Y-36635D02*
X60545Y-36635D01*
X61205Y-36635D02*
X61295Y-36635D01*
X61655Y-36635D02*
X61995Y-36635D01*
X62355Y-36635D02*
X62911Y-36635D01*
X63617Y-36635D02*
X64746Y-36635D01*
X65204Y-36635D02*
X65425Y-36635D01*
X58475Y-36715D02*
X58654Y-36715D01*
X59296Y-36715D02*
X60545Y-36715D01*
X61205Y-36715D02*
X61295Y-36715D01*
X61655Y-36715D02*
X61995Y-36715D01*
X62355Y-36715D02*
X62831Y-36715D01*
X63537Y-36715D02*
X64654Y-36715D01*
X65296Y-36715D02*
X65425Y-36715D01*
X58475Y-36795D02*
X58591Y-36795D01*
X59361Y-36795D02*
X60545Y-36795D01*
X61205Y-36795D02*
X61295Y-36795D01*
X61655Y-36795D02*
X61995Y-36795D01*
X62355Y-36795D02*
X62751Y-36795D01*
X63457Y-36795D02*
X64591Y-36795D01*
X65361Y-36795D02*
X65425Y-36795D01*
X58475Y-36875D02*
X58557Y-36875D01*
X59394Y-36875D02*
X60545Y-36875D01*
X61205Y-36875D02*
X61295Y-36875D01*
X61655Y-36875D02*
X61995Y-36875D01*
X62355Y-36875D02*
X62671Y-36875D01*
X63377Y-36875D02*
X64557Y-36875D01*
X65394Y-36875D02*
X65425Y-36875D01*
X58475Y-36955D02*
X58534Y-36955D01*
X59416Y-36955D02*
X60545Y-36955D01*
X61205Y-36955D02*
X61295Y-36955D01*
X61655Y-36955D02*
X61995Y-36955D01*
X62355Y-36955D02*
X62591Y-36955D01*
X63297Y-36955D02*
X64534Y-36955D01*
X65416Y-36955D02*
X65425Y-36955D01*
X58475Y-37035D02*
X58534Y-37035D01*
X59416Y-37035D02*
X60545Y-37035D01*
X61205Y-37035D02*
X61295Y-37035D01*
X61655Y-37035D02*
X61995Y-37035D01*
X62355Y-37035D02*
X62511Y-37035D01*
X63217Y-37035D02*
X64534Y-37035D01*
X65416Y-37035D02*
X65425Y-37035D01*
X58475Y-37115D02*
X58534Y-37115D01*
X59416Y-37115D02*
X60545Y-37115D01*
X61205Y-37115D02*
X61295Y-37115D01*
X61655Y-37115D02*
X61995Y-37115D01*
X62355Y-37115D02*
X62431Y-37115D01*
X63137Y-37115D02*
X64534Y-37115D01*
X65416Y-37115D02*
X65425Y-37115D01*
X58475Y-37195D02*
X58565Y-37195D01*
X59384Y-37195D02*
X60545Y-37195D01*
X61205Y-37195D02*
X61295Y-37195D01*
X61655Y-37195D02*
X61995Y-37195D01*
X63057Y-37195D02*
X64565Y-37195D01*
X65384Y-37195D02*
X65425Y-37195D01*
X58475Y-37275D02*
X58598Y-37275D01*
X59351Y-37275D02*
X60545Y-37275D01*
X61205Y-37275D02*
X61295Y-37275D01*
X61655Y-37275D02*
X61995Y-37275D01*
X62977Y-37275D02*
X64598Y-37275D01*
X65351Y-37275D02*
X65425Y-37275D01*
X58475Y-37355D02*
X58674Y-37355D01*
X59276Y-37355D02*
X60545Y-37355D01*
X61205Y-37355D02*
X61295Y-37355D01*
X61655Y-37355D02*
X61995Y-37355D01*
X62897Y-37355D02*
X64674Y-37355D01*
X65276Y-37355D02*
X65425Y-37355D01*
X58475Y-37435D02*
X58794Y-37435D01*
X59156Y-37435D02*
X60545Y-37435D01*
X61205Y-37435D02*
X61295Y-37435D01*
X61655Y-37435D02*
X61995Y-37435D01*
X62817Y-37435D02*
X64794Y-37435D01*
X65156Y-37435D02*
X65425Y-37435D01*
X58475Y-37515D02*
X60545Y-37515D01*
X61205Y-37515D02*
X61295Y-37515D01*
X61655Y-37515D02*
X61995Y-37515D01*
X62770Y-37515D02*
X65425Y-37515D01*
X58475Y-37595D02*
X58842Y-37595D01*
X59109Y-37595D02*
X60545Y-37595D01*
X61205Y-37595D02*
X61295Y-37595D01*
X61655Y-37595D02*
X61995Y-37595D01*
X62770Y-37595D02*
X64842Y-37595D01*
X65109Y-37595D02*
X65425Y-37595D01*
X58475Y-37675D02*
X58694Y-37675D01*
X59256Y-37675D02*
X60545Y-37675D01*
X61205Y-37675D02*
X61295Y-37675D01*
X61655Y-37675D02*
X61995Y-37675D01*
X62770Y-37675D02*
X64694Y-37675D01*
X65256Y-37675D02*
X65425Y-37675D01*
X58475Y-37755D02*
X58614Y-37755D01*
X59336Y-37755D02*
X60545Y-37755D01*
X61205Y-37755D02*
X61295Y-37755D01*
X61655Y-37755D02*
X61995Y-37755D01*
X62770Y-37755D02*
X64614Y-37755D01*
X65336Y-37755D02*
X65425Y-37755D01*
X58475Y-37835D02*
X58574Y-37835D01*
X59377Y-37835D02*
X60545Y-37835D01*
X61205Y-37835D02*
X61295Y-37835D01*
X61655Y-37835D02*
X61995Y-37835D01*
X62769Y-37835D02*
X64574Y-37835D01*
X65377Y-37835D02*
X65425Y-37835D01*
X58475Y-37915D02*
X58540Y-37915D01*
X59410Y-37915D02*
X60545Y-37915D01*
X61205Y-37915D02*
X61295Y-37915D01*
X61655Y-37915D02*
X61995Y-37915D01*
X62769Y-37915D02*
X64540Y-37915D01*
X65410Y-37915D02*
X65425Y-37915D01*
X58475Y-37995D02*
X58534Y-37995D01*
X59416Y-37995D02*
X60545Y-37995D01*
X61205Y-37995D02*
X61295Y-37995D01*
X61655Y-37995D02*
X61995Y-37995D01*
X62769Y-37995D02*
X64534Y-37995D01*
X65416Y-37995D02*
X65425Y-37995D01*
X58475Y-38075D02*
X58534Y-38075D01*
X59416Y-38075D02*
X60545Y-38075D01*
X61205Y-38075D02*
X61295Y-38075D01*
X61655Y-38075D02*
X61995Y-38075D01*
X62768Y-38075D02*
X64534Y-38075D01*
X65416Y-38075D02*
X65425Y-38075D01*
X58475Y-38155D02*
X58548Y-38155D01*
X59401Y-38155D02*
X60545Y-38155D01*
X61205Y-38155D02*
X61295Y-38155D01*
X61655Y-38155D02*
X61995Y-38155D01*
X62768Y-38155D02*
X64548Y-38155D01*
X65401Y-38155D02*
X65425Y-38155D01*
X58475Y-38235D02*
X58581Y-38235D01*
X59368Y-38235D02*
X60545Y-38235D01*
X61205Y-38235D02*
X61295Y-38235D01*
X61655Y-38235D02*
X61995Y-38235D01*
X62768Y-38235D02*
X64581Y-38235D01*
X65368Y-38235D02*
X65425Y-38235D01*
X58475Y-38315D02*
X58634Y-38315D01*
X59316Y-38315D02*
X60545Y-38315D01*
X61205Y-38315D02*
X61295Y-38315D01*
X61655Y-38315D02*
X61995Y-38315D01*
X62768Y-38315D02*
X64634Y-38315D01*
X65316Y-38315D02*
X65425Y-38315D01*
X58475Y-38395D02*
X58714Y-38395D01*
X59236Y-38395D02*
X60545Y-38395D01*
X61205Y-38395D02*
X61295Y-38395D01*
X61655Y-38395D02*
X61995Y-38395D01*
X62767Y-38395D02*
X64714Y-38395D01*
X65236Y-38395D02*
X65425Y-38395D01*
X58475Y-38475D02*
X60545Y-38475D01*
X61205Y-38475D02*
X61295Y-38475D01*
X61655Y-38475D02*
X61995Y-38475D01*
X62767Y-38475D02*
X65425Y-38475D01*
X58475Y-38555D02*
X60545Y-38555D01*
X61205Y-38555D02*
X61295Y-38555D01*
X61655Y-38555D02*
X61995Y-38555D01*
X62767Y-38555D02*
X65425Y-38555D01*
X58475Y-38635D02*
X58746Y-38635D01*
X59204Y-38635D02*
X60545Y-38635D01*
X61205Y-38635D02*
X61295Y-38635D01*
X61655Y-38635D02*
X61995Y-38635D01*
X62767Y-38635D02*
X64746Y-38635D01*
X65204Y-38635D02*
X65425Y-38635D01*
X58475Y-38715D02*
X58654Y-38715D01*
X59296Y-38715D02*
X60545Y-38715D01*
X61205Y-38715D02*
X61295Y-38715D01*
X61655Y-38715D02*
X61995Y-38715D01*
X62766Y-38715D02*
X64654Y-38715D01*
X65296Y-38715D02*
X65425Y-38715D01*
X58475Y-38795D02*
X58591Y-38795D01*
X59361Y-38795D02*
X60545Y-38795D01*
X61205Y-38795D02*
X61295Y-38795D01*
X61655Y-38795D02*
X61995Y-38795D01*
X62766Y-38795D02*
X64591Y-38795D01*
X65361Y-38795D02*
X65425Y-38795D01*
X58475Y-38875D02*
X58557Y-38875D01*
X59394Y-38875D02*
X60545Y-38875D01*
X61205Y-38875D02*
X61295Y-38875D01*
X61655Y-38875D02*
X61995Y-38875D01*
X62766Y-38875D02*
X64557Y-38875D01*
X65394Y-38875D02*
X65425Y-38875D01*
X58475Y-38955D02*
X58534Y-38955D01*
X59416Y-38955D02*
X60545Y-38955D01*
X61205Y-38955D02*
X61295Y-38955D01*
X61655Y-38955D02*
X61995Y-38955D01*
X62765Y-38955D02*
X64534Y-38955D01*
X65416Y-38955D02*
X65425Y-38955D01*
X58475Y-39035D02*
X58534Y-39035D01*
X59416Y-39035D02*
X60545Y-39035D01*
X61205Y-39035D02*
X61295Y-39035D01*
X61655Y-39035D02*
X61995Y-39035D01*
X62765Y-39035D02*
X64534Y-39035D01*
X65416Y-39035D02*
X65425Y-39035D01*
X58475Y-39115D02*
X58534Y-39115D01*
X59416Y-39115D02*
X60545Y-39115D01*
X61205Y-39115D02*
X61295Y-39115D01*
X61655Y-39115D02*
X61995Y-39115D01*
X62765Y-39115D02*
X64534Y-39115D01*
X65416Y-39115D02*
X65425Y-39115D01*
X58475Y-39195D02*
X58565Y-39195D01*
X59399Y-39195D02*
X60545Y-39195D01*
X61205Y-39195D02*
X61295Y-39195D01*
X61655Y-39195D02*
X61995Y-39195D01*
X62765Y-39195D02*
X64565Y-39195D01*
X65384Y-39195D02*
X65425Y-39195D01*
X58475Y-39275D02*
X58598Y-39275D01*
X59479Y-39275D02*
X60545Y-39275D01*
X61205Y-39275D02*
X61295Y-39275D01*
X61655Y-39275D02*
X61995Y-39275D01*
X62764Y-39275D02*
X64598Y-39275D01*
X65351Y-39275D02*
X65425Y-39275D01*
X58475Y-39355D02*
X58674Y-39355D01*
X59559Y-39355D02*
X60545Y-39355D01*
X61205Y-39355D02*
X61295Y-39355D01*
X61655Y-39355D02*
X61995Y-39355D01*
X62764Y-39355D02*
X64674Y-39355D01*
X65276Y-39355D02*
X65425Y-39355D01*
X58475Y-39435D02*
X58794Y-39435D01*
X59639Y-39435D02*
X60545Y-39435D01*
X61205Y-39435D02*
X61295Y-39435D01*
X61655Y-39435D02*
X61995Y-39435D01*
X62764Y-39435D02*
X64794Y-39435D01*
X65156Y-39435D02*
X65425Y-39435D01*
X58475Y-39515D02*
X59211Y-39515D01*
X59719Y-39515D02*
X60545Y-39515D01*
X61224Y-39515D02*
X61295Y-39515D01*
X61655Y-39515D02*
X61995Y-39515D01*
X62763Y-39515D02*
X65425Y-39515D01*
X58475Y-39595D02*
X58843Y-39595D01*
X59109Y-39595D02*
X59291Y-39595D01*
X59784Y-39595D02*
X60545Y-39595D01*
X61284Y-39595D02*
X61295Y-39595D01*
X61655Y-39595D02*
X61995Y-39595D01*
X62763Y-39595D02*
X64842Y-39595D01*
X65109Y-39595D02*
X65425Y-39595D01*
X58475Y-39675D02*
X58694Y-39675D01*
X59256Y-39675D02*
X59371Y-39675D01*
X59805Y-39675D02*
X60545Y-39675D01*
X61655Y-39675D02*
X61995Y-39675D01*
X62763Y-39675D02*
X64694Y-39675D01*
X65256Y-39675D02*
X65425Y-39675D01*
X58475Y-39755D02*
X58614Y-39755D01*
X59336Y-39755D02*
X59445Y-39755D01*
X59805Y-39755D02*
X60545Y-39755D01*
X61655Y-39755D02*
X61995Y-39755D01*
X62763Y-39755D02*
X64614Y-39755D01*
X65336Y-39755D02*
X65425Y-39755D01*
X58475Y-39835D02*
X58574Y-39835D01*
X59377Y-39835D02*
X59445Y-39835D01*
X59805Y-39835D02*
X60545Y-39835D01*
X61292Y-39835D02*
X61295Y-39835D01*
X61655Y-39835D02*
X61995Y-39835D01*
X62762Y-39835D02*
X64574Y-39835D01*
X65377Y-39835D02*
X65425Y-39835D01*
X58475Y-39915D02*
X58540Y-39915D01*
X59410Y-39915D02*
X59445Y-39915D01*
X59805Y-39915D02*
X60479Y-39915D01*
X61243Y-39915D02*
X61295Y-39915D01*
X61655Y-39915D02*
X61995Y-39915D01*
X62762Y-39915D02*
X64540Y-39915D01*
X65410Y-39915D02*
X65425Y-39915D01*
X58475Y-39995D02*
X58534Y-39995D01*
X59416Y-39995D02*
X59445Y-39995D01*
X59805Y-39995D02*
X60446Y-39995D01*
X61127Y-39995D02*
X61295Y-39995D01*
X61655Y-39995D02*
X61995Y-39995D01*
X62762Y-39995D02*
X64534Y-39995D01*
X65416Y-39995D02*
X65425Y-39995D01*
X58475Y-40075D02*
X58534Y-40075D01*
X59416Y-40075D02*
X59445Y-40075D01*
X59805Y-40075D02*
X60436Y-40075D01*
X61014Y-40075D02*
X61295Y-40075D01*
X61655Y-40075D02*
X61995Y-40075D01*
X62762Y-40075D02*
X64534Y-40075D01*
X65416Y-40075D02*
X65425Y-40075D01*
X58475Y-40155D02*
X58548Y-40155D01*
X59401Y-40155D02*
X59445Y-40155D01*
X59805Y-40155D02*
X60445Y-40155D01*
X61004Y-40155D02*
X61295Y-40155D01*
X61655Y-40155D02*
X61995Y-40155D01*
X62761Y-40155D02*
X64548Y-40155D01*
X65401Y-40155D02*
X65425Y-40155D01*
X58475Y-40235D02*
X58581Y-40235D01*
X59368Y-40235D02*
X59445Y-40235D01*
X59805Y-40235D02*
X60478Y-40235D01*
X60971Y-40235D02*
X61295Y-40235D01*
X61655Y-40235D02*
X61995Y-40235D01*
X62761Y-40235D02*
X64581Y-40235D01*
X65368Y-40235D02*
X65425Y-40235D01*
X58475Y-40315D02*
X58634Y-40315D01*
X59316Y-40315D02*
X59445Y-40315D01*
X59805Y-40315D02*
X60556Y-40315D01*
X60893Y-40315D02*
X61295Y-40315D01*
X61655Y-40315D02*
X61995Y-40315D01*
X62761Y-40315D02*
X64634Y-40315D01*
X65316Y-40315D02*
X65425Y-40315D01*
X58475Y-40395D02*
X58714Y-40395D01*
X59236Y-40395D02*
X59445Y-40395D01*
X59805Y-40395D02*
X61295Y-40395D01*
X61655Y-40395D02*
X61995Y-40395D01*
X62760Y-40395D02*
X64714Y-40395D01*
X65236Y-40395D02*
X65425Y-40395D01*
X58475Y-40475D02*
X59445Y-40475D01*
X59805Y-40475D02*
X61295Y-40475D01*
X61655Y-40475D02*
X61995Y-40475D01*
X62760Y-40475D02*
X65425Y-40475D01*
X58475Y-40555D02*
X59445Y-40555D01*
X59805Y-40555D02*
X61295Y-40555D01*
X61655Y-40555D02*
X61995Y-40555D01*
X62760Y-40555D02*
X65425Y-40555D01*
X58475Y-40635D02*
X58746Y-40635D01*
X59204Y-40635D02*
X59445Y-40635D01*
X59805Y-40635D02*
X61260Y-40635D01*
X61655Y-40635D02*
X61995Y-40635D01*
X62760Y-40635D02*
X64746Y-40635D01*
X65204Y-40635D02*
X65425Y-40635D01*
X58475Y-40715D02*
X58654Y-40715D01*
X59296Y-40715D02*
X59445Y-40715D01*
X59805Y-40715D02*
X61180Y-40715D01*
X61646Y-40715D02*
X61995Y-40715D01*
X62759Y-40715D02*
X64654Y-40715D01*
X65296Y-40715D02*
X65425Y-40715D01*
X58475Y-40795D02*
X58591Y-40795D01*
X59361Y-40795D02*
X59445Y-40795D01*
X59805Y-40795D02*
X61100Y-40795D01*
X61607Y-40795D02*
X61995Y-40795D01*
X62759Y-40795D02*
X64591Y-40795D01*
X65361Y-40795D02*
X65425Y-40795D01*
X58475Y-40875D02*
X58557Y-40875D01*
X59394Y-40875D02*
X59445Y-40875D01*
X59805Y-40875D02*
X61020Y-40875D01*
X61529Y-40875D02*
X61995Y-40875D01*
X62759Y-40875D02*
X64557Y-40875D01*
X65394Y-40875D02*
X65425Y-40875D01*
X58475Y-40955D02*
X58534Y-40955D01*
X59416Y-40955D02*
X59445Y-40955D01*
X59805Y-40955D02*
X60940Y-40955D01*
X61449Y-40955D02*
X61995Y-40955D01*
X62758Y-40955D02*
X64534Y-40955D01*
X65416Y-40955D02*
X65425Y-40955D01*
X58475Y-41035D02*
X58534Y-41035D01*
X59416Y-41035D02*
X59445Y-41035D01*
X59805Y-41035D02*
X60860Y-41035D01*
X61369Y-41035D02*
X61995Y-41035D01*
X62758Y-41035D02*
X64534Y-41035D01*
X65416Y-41035D02*
X65425Y-41035D01*
X58475Y-41115D02*
X58534Y-41115D01*
X59416Y-41115D02*
X59445Y-41115D01*
X59805Y-41115D02*
X60780Y-41115D01*
X61289Y-41115D02*
X61995Y-41115D01*
X62758Y-41115D02*
X64534Y-41115D01*
X65416Y-41115D02*
X65425Y-41115D01*
X58475Y-41195D02*
X58565Y-41195D01*
X59384Y-41195D02*
X59445Y-41195D01*
X59805Y-41195D02*
X60547Y-41195D01*
X61209Y-41195D02*
X61995Y-41195D01*
X62758Y-41195D02*
X64565Y-41195D01*
X65384Y-41195D02*
X65425Y-41195D01*
X58475Y-41275D02*
X58598Y-41275D01*
X59351Y-41275D02*
X59445Y-41275D01*
X59805Y-41275D02*
X60475Y-41275D01*
X61129Y-41275D02*
X61920Y-41275D01*
X62757Y-41275D02*
X64598Y-41275D01*
X65351Y-41275D02*
X65425Y-41275D01*
X58475Y-41355D02*
X58674Y-41355D01*
X59276Y-41355D02*
X59445Y-41355D01*
X59805Y-41355D02*
X60441Y-41355D01*
X61049Y-41355D02*
X61840Y-41355D01*
X62757Y-41355D02*
X64674Y-41355D01*
X65276Y-41355D02*
X65425Y-41355D01*
X58475Y-41435D02*
X58794Y-41435D01*
X59156Y-41435D02*
X59445Y-41435D01*
X59805Y-41435D02*
X60436Y-41435D01*
X61014Y-41435D02*
X61760Y-41435D01*
X62757Y-41435D02*
X64794Y-41435D01*
X65156Y-41435D02*
X65425Y-41435D01*
X58475Y-41515D02*
X59445Y-41515D01*
X59805Y-41515D02*
X60449Y-41515D01*
X61000Y-41515D02*
X61680Y-41515D01*
X62757Y-41515D02*
X65425Y-41515D01*
X58475Y-41595D02*
X58842Y-41595D01*
X59109Y-41595D02*
X59445Y-41595D01*
X59805Y-41595D02*
X60197Y-41595D01*
X60963Y-41595D02*
X61600Y-41595D01*
X62756Y-41595D02*
X64842Y-41595D01*
X65109Y-41595D02*
X65425Y-41595D01*
X58475Y-41675D02*
X58694Y-41675D01*
X59256Y-41675D02*
X59445Y-41675D01*
X59805Y-41675D02*
X60125Y-41675D01*
X62756Y-41675D02*
X64694Y-41675D01*
X65256Y-41675D02*
X65425Y-41675D01*
X58475Y-41755D02*
X58614Y-41755D01*
X59336Y-41755D02*
X59445Y-41755D01*
X59805Y-41755D02*
X60091Y-41755D01*
X62756Y-41755D02*
X64614Y-41755D01*
X65336Y-41755D02*
X65425Y-41755D01*
X58475Y-41835D02*
X58574Y-41835D01*
X59377Y-41835D02*
X59445Y-41835D01*
X59805Y-41835D02*
X60086Y-41835D01*
X62755Y-41835D02*
X64574Y-41835D01*
X65377Y-41835D02*
X65425Y-41835D01*
X58475Y-41915D02*
X58540Y-41915D01*
X59410Y-41915D02*
X59445Y-41915D01*
X59805Y-41915D02*
X60099Y-41915D01*
X62755Y-41915D02*
X64540Y-41915D01*
X65410Y-41915D02*
X65425Y-41915D01*
X58475Y-41995D02*
X58534Y-41995D01*
X59416Y-41995D02*
X59445Y-41995D01*
X59805Y-41995D02*
X60136Y-41995D01*
X62755Y-41995D02*
X64534Y-41995D01*
X65416Y-41995D02*
X65425Y-41995D01*
X58475Y-42075D02*
X58534Y-42075D01*
X59416Y-42075D02*
X59445Y-42075D01*
X59805Y-42075D02*
X60222Y-42075D01*
X62755Y-42075D02*
X64534Y-42075D01*
X65416Y-42075D02*
X65425Y-42075D01*
X58475Y-42155D02*
X58548Y-42155D01*
X59401Y-42155D02*
X59445Y-42155D01*
X59859Y-42155D02*
X60087Y-42155D01*
X62754Y-42155D02*
X64548Y-42155D01*
X65401Y-42155D02*
X65425Y-42155D01*
X58475Y-42235D02*
X58581Y-42235D01*
X59368Y-42235D02*
X59457Y-42235D01*
X59939Y-42235D02*
X60020Y-42235D01*
X62754Y-42235D02*
X64581Y-42235D01*
X65368Y-42235D02*
X65425Y-42235D01*
X58475Y-42315D02*
X58634Y-42315D01*
X59316Y-42315D02*
X59511Y-42315D01*
X62754Y-42315D02*
X64634Y-42315D01*
X65316Y-42315D02*
X65425Y-42315D01*
X58475Y-42395D02*
X58714Y-42395D01*
X59236Y-42395D02*
X59591Y-42395D01*
X62753Y-42395D02*
X64714Y-42395D01*
X65236Y-42395D02*
X65425Y-42395D01*
X58475Y-42475D02*
X59671Y-42475D01*
X62753Y-42475D02*
X65425Y-42475D01*
X58475Y-42555D02*
X59751Y-42555D01*
X62753Y-42555D02*
X65425Y-42555D01*
X58475Y-42635D02*
X58746Y-42635D01*
X59204Y-42635D02*
X59831Y-42635D01*
X62753Y-42635D02*
X64746Y-42635D01*
X65204Y-42635D02*
X65425Y-42635D01*
X58475Y-42715D02*
X58654Y-42715D01*
X59296Y-42715D02*
X59836Y-42715D01*
X62752Y-42715D02*
X63077Y-42715D01*
X63824Y-42715D02*
X64654Y-42715D01*
X65296Y-42715D02*
X65425Y-42715D01*
X58475Y-42795D02*
X58591Y-42795D01*
X59361Y-42795D02*
X59862Y-42795D01*
X62752Y-42795D02*
X63016Y-42795D01*
X63884Y-42795D02*
X64591Y-42795D01*
X65361Y-42795D02*
X65425Y-42795D01*
X58475Y-42875D02*
X58557Y-42875D01*
X59394Y-42875D02*
X59916Y-42875D01*
X62752Y-42875D02*
X62986Y-42875D01*
X63914Y-42875D02*
X64557Y-42875D01*
X65394Y-42875D02*
X65425Y-42875D01*
X58475Y-42955D02*
X58534Y-42955D01*
X59416Y-42955D02*
X60045Y-42955D01*
X60203Y-42955D02*
X60825Y-42955D01*
X62752Y-42955D02*
X62986Y-42955D01*
X63914Y-42955D02*
X64534Y-42955D01*
X65416Y-42955D02*
X65425Y-42955D01*
X58475Y-43035D02*
X58534Y-43035D01*
X59416Y-43035D02*
X60352Y-43035D01*
X60725Y-43035D02*
X60825Y-43035D01*
X61325Y-43035D02*
X61425Y-43035D01*
X62751Y-43035D02*
X62911Y-43035D01*
X63892Y-43035D02*
X64534Y-43035D01*
X65416Y-43035D02*
X65425Y-43035D01*
X58475Y-43115D02*
X58534Y-43115D01*
X59416Y-43115D02*
X60300Y-43115D01*
X60725Y-43115D02*
X60825Y-43115D01*
X61325Y-43115D02*
X61425Y-43115D01*
X62751Y-43115D02*
X62858Y-43115D01*
X63872Y-43115D02*
X64534Y-43115D01*
X65416Y-43115D02*
X65425Y-43115D01*
X58475Y-43195D02*
X58565Y-43195D01*
X59384Y-43195D02*
X60320Y-43195D01*
X60725Y-43195D02*
X60825Y-43195D01*
X61325Y-43195D02*
X61425Y-43195D01*
X62751Y-43195D02*
X62845Y-43195D01*
X63905Y-43195D02*
X64565Y-43195D01*
X65384Y-43195D02*
X65425Y-43195D01*
X58475Y-43275D02*
X58598Y-43275D01*
X59351Y-43275D02*
X60373Y-43275D01*
X60725Y-43275D02*
X60825Y-43275D01*
X61325Y-43275D02*
X61425Y-43275D01*
X62750Y-43275D02*
X62845Y-43275D01*
X63914Y-43275D02*
X64598Y-43275D01*
X65351Y-43275D02*
X65425Y-43275D01*
X58475Y-43355D02*
X58674Y-43355D01*
X59276Y-43355D02*
X60884Y-43355D01*
X61325Y-43355D02*
X61425Y-43355D01*
X62750Y-43355D02*
X62845Y-43355D01*
X63904Y-43355D02*
X64674Y-43355D01*
X65276Y-43355D02*
X65425Y-43355D01*
X58475Y-43435D02*
X58794Y-43435D01*
X59156Y-43435D02*
X60958Y-43435D01*
X61303Y-43435D02*
X61447Y-43435D01*
X62750Y-43435D02*
X62845Y-43435D01*
X63871Y-43435D02*
X64794Y-43435D01*
X65156Y-43435D02*
X65425Y-43435D01*
X58475Y-43515D02*
X61725Y-43515D01*
X62750Y-43515D02*
X62845Y-43515D01*
X63892Y-43515D02*
X65425Y-43515D01*
X58475Y-43595D02*
X58842Y-43595D01*
X59109Y-43595D02*
X61725Y-43595D01*
X62749Y-43595D02*
X62845Y-43595D01*
X63914Y-43595D02*
X64842Y-43595D01*
X65109Y-43595D02*
X65425Y-43595D01*
X58475Y-43675D02*
X58694Y-43675D01*
X59256Y-43675D02*
X60125Y-43675D01*
X60427Y-43675D02*
X61725Y-43675D01*
X62749Y-43675D02*
X62845Y-43675D01*
X63929Y-43675D02*
X64694Y-43675D01*
X65256Y-43675D02*
X65425Y-43675D01*
X58475Y-43755D02*
X58614Y-43755D01*
X59336Y-43755D02*
X60037Y-43755D01*
X60514Y-43755D02*
X61725Y-43755D01*
X62749Y-43755D02*
X62845Y-43755D01*
X64009Y-43755D02*
X64614Y-43755D01*
X65336Y-43755D02*
X65425Y-43755D01*
X58475Y-43835D02*
X58574Y-43835D01*
X59377Y-43835D02*
X60000Y-43835D01*
X60551Y-43835D02*
X61725Y-43835D01*
X62749Y-43835D02*
X62845Y-43835D01*
X64089Y-43835D02*
X64574Y-43835D01*
X65377Y-43835D02*
X65425Y-43835D01*
X58475Y-43915D02*
X58540Y-43915D01*
X59410Y-43915D02*
X59986Y-43915D01*
X60564Y-43915D02*
X61725Y-43915D01*
X62748Y-43915D02*
X62845Y-43915D01*
X63555Y-43915D02*
X63661Y-43915D01*
X64169Y-43915D02*
X64540Y-43915D01*
X65410Y-43915D02*
X65425Y-43915D01*
X58475Y-43995D02*
X58534Y-43995D01*
X59416Y-43995D02*
X59991Y-43995D01*
X60600Y-43995D02*
X61725Y-43995D01*
X62748Y-43995D02*
X62845Y-43995D01*
X63555Y-43995D02*
X63741Y-43995D01*
X64249Y-43995D02*
X64534Y-43995D01*
X65416Y-43995D02*
X65425Y-43995D01*
X58475Y-44075D02*
X58534Y-44075D01*
X59416Y-44075D02*
X60024Y-44075D01*
X60671Y-44075D02*
X61725Y-44075D01*
X62748Y-44075D02*
X62845Y-44075D01*
X63555Y-44075D02*
X63821Y-44075D01*
X64329Y-44075D02*
X64534Y-44075D01*
X65416Y-44075D02*
X65425Y-44075D01*
X58475Y-44155D02*
X58548Y-44155D01*
X59401Y-44155D02*
X60036Y-44155D01*
X60701Y-44155D02*
X61696Y-44155D01*
X62747Y-44155D02*
X62845Y-44155D01*
X63555Y-44155D02*
X63901Y-44155D01*
X64409Y-44155D02*
X64548Y-44155D01*
X65401Y-44155D02*
X65425Y-44155D01*
X58475Y-44235D02*
X58581Y-44235D01*
X59368Y-44235D02*
X60000Y-44235D01*
X60705Y-44235D02*
X61686Y-44235D01*
X62747Y-44235D02*
X62845Y-44235D01*
X63555Y-44235D02*
X63981Y-44235D01*
X64489Y-44235D02*
X64581Y-44235D01*
X65368Y-44235D02*
X65425Y-44235D01*
X58475Y-44315D02*
X58634Y-44315D01*
X59316Y-44315D02*
X59986Y-44315D01*
X60705Y-44315D02*
X61695Y-44315D01*
X62747Y-44315D02*
X62845Y-44315D01*
X63555Y-44315D02*
X64061Y-44315D01*
X64569Y-44315D02*
X64634Y-44315D01*
X65316Y-44315D02*
X65425Y-44315D01*
X58475Y-44395D02*
X58714Y-44395D01*
X59236Y-44395D02*
X59951Y-44395D01*
X60705Y-44395D02*
X61725Y-44395D01*
X62747Y-44395D02*
X62845Y-44395D01*
X63555Y-44395D02*
X64141Y-44395D01*
X64634Y-44395D02*
X64714Y-44395D01*
X65236Y-44395D02*
X65425Y-44395D01*
X58475Y-44475D02*
X59871Y-44475D01*
X60705Y-44475D02*
X61725Y-44475D01*
X62746Y-44475D02*
X62845Y-44475D01*
X63555Y-44475D02*
X64221Y-44475D01*
X64655Y-44475D02*
X65425Y-44475D01*
X58475Y-44555D02*
X59791Y-44555D01*
X60705Y-44555D02*
X61725Y-44555D01*
X62746Y-44555D02*
X62845Y-44555D01*
X63555Y-44555D02*
X64295Y-44555D01*
X64655Y-44555D02*
X65425Y-44555D01*
X58475Y-44635D02*
X58746Y-44635D01*
X59204Y-44635D02*
X59711Y-44635D01*
X60692Y-44635D02*
X61725Y-44635D01*
X62746Y-44635D02*
X62845Y-44635D01*
X63555Y-44635D02*
X64295Y-44635D01*
X64655Y-44635D02*
X64746Y-44635D01*
X65204Y-44635D02*
X65425Y-44635D01*
X58475Y-44715D02*
X58654Y-44715D01*
X59296Y-44715D02*
X59631Y-44715D01*
X60639Y-44715D02*
X61725Y-44715D01*
X62745Y-44715D02*
X62845Y-44715D01*
X63555Y-44715D02*
X64295Y-44715D01*
X65296Y-44715D02*
X65425Y-44715D01*
X58475Y-44795D02*
X58591Y-44795D01*
X59361Y-44795D02*
X59551Y-44795D01*
X60559Y-44795D02*
X61725Y-44795D01*
X62745Y-44795D02*
X62845Y-44795D01*
X63555Y-44795D02*
X64295Y-44795D01*
X65361Y-44795D02*
X65425Y-44795D01*
X58475Y-44875D02*
X58557Y-44875D01*
X59394Y-44875D02*
X59471Y-44875D01*
X60479Y-44875D02*
X61725Y-44875D01*
X62745Y-44875D02*
X62845Y-44875D01*
X63555Y-44875D02*
X64295Y-44875D01*
X65394Y-44875D02*
X65425Y-44875D01*
X58475Y-44955D02*
X58534Y-44955D01*
X60399Y-44955D02*
X61725Y-44955D01*
X62745Y-44955D02*
X62845Y-44955D01*
X63555Y-44955D02*
X64295Y-44955D01*
X65416Y-44955D02*
X65425Y-44955D01*
X58475Y-45035D02*
X58534Y-45035D01*
X60319Y-45035D02*
X61725Y-45035D01*
X62744Y-45035D02*
X62845Y-45035D01*
X63555Y-45035D02*
X64295Y-45035D01*
X65416Y-45035D02*
X65425Y-45035D01*
X58475Y-45115D02*
X58534Y-45115D01*
X60239Y-45115D02*
X61725Y-45115D01*
X62744Y-45115D02*
X62845Y-45115D01*
X63555Y-45115D02*
X64295Y-45115D01*
X65416Y-45115D02*
X65425Y-45115D01*
X58475Y-45195D02*
X58565Y-45195D01*
X59384Y-45195D02*
X59395Y-45195D01*
X60159Y-45195D02*
X61725Y-45195D01*
X62744Y-45195D02*
X62845Y-45195D01*
X63555Y-45195D02*
X64295Y-45195D01*
X65384Y-45195D02*
X65425Y-45195D01*
X58475Y-45275D02*
X58598Y-45275D01*
X59351Y-45275D02*
X59395Y-45275D01*
X60079Y-45275D02*
X61725Y-45275D01*
X62744Y-45275D02*
X62845Y-45275D01*
X63555Y-45275D02*
X64295Y-45275D01*
X65351Y-45275D02*
X65425Y-45275D01*
X58475Y-45355D02*
X58674Y-45355D01*
X59276Y-45355D02*
X59395Y-45355D01*
X59999Y-45355D02*
X61725Y-45355D01*
X62743Y-45355D02*
X62845Y-45355D01*
X63560Y-45355D02*
X64295Y-45355D01*
X64655Y-45355D02*
X64674Y-45355D01*
X65276Y-45355D02*
X65425Y-45355D01*
X58475Y-45435D02*
X58794Y-45435D01*
X59156Y-45435D02*
X59395Y-45435D01*
X59955Y-45435D02*
X61725Y-45435D01*
X62743Y-45435D02*
X62845Y-45435D01*
X63640Y-45435D02*
X64295Y-45435D01*
X64655Y-45435D02*
X64794Y-45435D01*
X65156Y-45435D02*
X65425Y-45435D01*
X58475Y-45515D02*
X59395Y-45515D01*
X59955Y-45515D02*
X61725Y-45515D01*
X62743Y-45515D02*
X62845Y-45515D01*
X63720Y-45515D02*
X64295Y-45515D01*
X64719Y-45515D02*
X65425Y-45515D01*
X58475Y-45595D02*
X58843Y-45595D01*
X59109Y-45595D02*
X59395Y-45595D01*
X59955Y-45595D02*
X61725Y-45595D01*
X62742Y-45595D02*
X62845Y-45595D01*
X63800Y-45595D02*
X64309Y-45595D01*
X64799Y-45595D02*
X64841Y-45595D01*
X65109Y-45595D02*
X65425Y-45595D01*
X58475Y-45675D02*
X58694Y-45675D01*
X59256Y-45675D02*
X59395Y-45675D01*
X59955Y-45675D02*
X61725Y-45675D01*
X62742Y-45675D02*
X62845Y-45675D01*
X63355Y-45675D02*
X63370Y-45675D01*
X63880Y-45675D02*
X64371Y-45675D01*
X65256Y-45675D02*
X65425Y-45675D01*
X58475Y-45755D02*
X58614Y-45755D01*
X59336Y-45755D02*
X59395Y-45755D01*
X59955Y-45755D02*
X61725Y-45755D01*
X62742Y-45755D02*
X62845Y-45755D01*
X63355Y-45755D02*
X63450Y-45755D01*
X63960Y-45755D02*
X64451Y-45755D01*
X65336Y-45755D02*
X65425Y-45755D01*
X58475Y-45835D02*
X58574Y-45835D01*
X59377Y-45835D02*
X59395Y-45835D01*
X59955Y-45835D02*
X61725Y-45835D01*
X62742Y-45835D02*
X62845Y-45835D01*
X63355Y-45835D02*
X63530Y-45835D01*
X64040Y-45835D02*
X64531Y-45835D01*
X65377Y-45835D02*
X65425Y-45835D01*
X58475Y-45915D02*
X58540Y-45915D01*
X59955Y-45915D02*
X61725Y-45915D01*
X62741Y-45915D02*
X62845Y-45915D01*
X63355Y-45915D02*
X63610Y-45915D01*
X64120Y-45915D02*
X64540Y-45915D01*
X65410Y-45915D02*
X65425Y-45915D01*
X58475Y-45995D02*
X58534Y-45995D01*
X59955Y-45995D02*
X61725Y-45995D01*
X62741Y-45995D02*
X62845Y-45995D01*
X63355Y-45995D02*
X63690Y-45995D01*
X64200Y-45995D02*
X64534Y-45995D01*
X65416Y-45995D02*
X65425Y-45995D01*
X58475Y-46075D02*
X58534Y-46075D01*
X59955Y-46075D02*
X61725Y-46075D01*
X62741Y-46075D02*
X62845Y-46075D01*
X63355Y-46075D02*
X63770Y-46075D01*
X64280Y-46075D02*
X64534Y-46075D01*
X65416Y-46075D02*
X65425Y-46075D01*
X58475Y-46155D02*
X58548Y-46155D01*
X59955Y-46155D02*
X61725Y-46155D01*
X62740Y-46155D02*
X62845Y-46155D01*
X63360Y-46155D02*
X63850Y-46155D01*
X64360Y-46155D02*
X64548Y-46155D01*
X65401Y-46155D02*
X65425Y-46155D01*
X58475Y-46235D02*
X58581Y-46235D01*
X59368Y-46235D02*
X59395Y-46235D01*
X59955Y-46235D02*
X61725Y-46235D01*
X62740Y-46235D02*
X62845Y-46235D01*
X63440Y-46235D02*
X63930Y-46235D01*
X64440Y-46235D02*
X64581Y-46235D01*
X65368Y-46235D02*
X65425Y-46235D01*
X58475Y-46315D02*
X58634Y-46315D01*
X59316Y-46315D02*
X59395Y-46315D01*
X59955Y-46315D02*
X61725Y-46315D01*
X62740Y-46315D02*
X62845Y-46315D01*
X63520Y-46315D02*
X64010Y-46315D01*
X64520Y-46315D02*
X64634Y-46315D01*
X65316Y-46315D02*
X65425Y-46315D01*
X58475Y-46395D02*
X58714Y-46395D01*
X59236Y-46395D02*
X59350Y-46395D01*
X59955Y-46395D02*
X61725Y-46395D01*
X62740Y-46395D02*
X62845Y-46395D01*
X63600Y-46395D02*
X64090Y-46395D01*
X64600Y-46395D02*
X64714Y-46395D01*
X65236Y-46395D02*
X65425Y-46395D01*
X58475Y-46475D02*
X59270Y-46475D01*
X59955Y-46475D02*
X61725Y-46475D01*
X62739Y-46475D02*
X62845Y-46475D01*
X63680Y-46475D02*
X64170Y-46475D01*
X64680Y-46475D02*
X65425Y-46475D01*
X58475Y-46555D02*
X59190Y-46555D01*
X59955Y-46555D02*
X61725Y-46555D01*
X62739Y-46555D02*
X62845Y-46555D01*
X63205Y-46555D02*
X63250Y-46555D01*
X63760Y-46555D02*
X64250Y-46555D01*
X64760Y-46555D02*
X65425Y-46555D01*
X58475Y-46635D02*
X58746Y-46635D01*
X59955Y-46635D02*
X61725Y-46635D01*
X62739Y-46635D02*
X62845Y-46635D01*
X63205Y-46635D02*
X63330Y-46635D01*
X63840Y-46635D02*
X64330Y-46635D01*
X65204Y-46635D02*
X65425Y-46635D01*
X58475Y-46715D02*
X58654Y-46715D01*
X59539Y-46715D02*
X59595Y-46715D01*
X59955Y-46715D02*
X61725Y-46715D01*
X62739Y-46715D02*
X62845Y-46715D01*
X63205Y-46715D02*
X63410Y-46715D01*
X63920Y-46715D02*
X64410Y-46715D01*
X65296Y-46715D02*
X65425Y-46715D01*
X58475Y-46795D02*
X58591Y-46795D01*
X59459Y-46795D02*
X59595Y-46795D01*
X59955Y-46795D02*
X61725Y-46795D01*
X62738Y-46795D02*
X62845Y-46795D01*
X63205Y-46795D02*
X63490Y-46795D01*
X64000Y-46795D02*
X64490Y-46795D01*
X65361Y-46795D02*
X65425Y-46795D01*
X58475Y-46875D02*
X58557Y-46875D01*
X59394Y-46875D02*
X59595Y-46875D01*
X59955Y-46875D02*
X61725Y-46875D01*
X62738Y-46875D02*
X62845Y-46875D01*
X63205Y-46875D02*
X63570Y-46875D01*
X64080Y-46875D02*
X64556Y-46875D01*
X65394Y-46875D02*
X65425Y-46875D01*
X58475Y-46955D02*
X58534Y-46955D01*
X59416Y-46955D02*
X59595Y-46955D01*
X59955Y-46955D02*
X61725Y-46955D01*
X62738Y-46955D02*
X62845Y-46955D01*
X63205Y-46955D02*
X63650Y-46955D01*
X64160Y-46955D02*
X64534Y-46955D01*
X65416Y-46955D02*
X65425Y-46955D01*
X58475Y-47035D02*
X58534Y-47035D01*
X59416Y-47035D02*
X59595Y-47035D01*
X59955Y-47035D02*
X61725Y-47035D01*
X62737Y-47035D02*
X62845Y-47035D01*
X63240Y-47035D02*
X63730Y-47035D01*
X64240Y-47035D02*
X64534Y-47035D01*
X65416Y-47035D02*
X65425Y-47035D01*
X58475Y-47115D02*
X58534Y-47115D01*
X59416Y-47115D02*
X59595Y-47115D01*
X59955Y-47115D02*
X61725Y-47115D01*
X62737Y-47115D02*
X62853Y-47115D01*
X63320Y-47115D02*
X63810Y-47115D01*
X64320Y-47115D02*
X64534Y-47115D01*
X65416Y-47115D02*
X65425Y-47115D01*
X58475Y-47195D02*
X58565Y-47195D01*
X59384Y-47195D02*
X59550Y-47195D01*
X59955Y-47195D02*
X61725Y-47195D01*
X62737Y-47195D02*
X62893Y-47195D01*
X63400Y-47195D02*
X63890Y-47195D01*
X64400Y-47195D02*
X64565Y-47195D01*
X65384Y-47195D02*
X65425Y-47195D01*
X58475Y-47275D02*
X58598Y-47275D01*
X59351Y-47275D02*
X59470Y-47275D01*
X59944Y-47275D02*
X61725Y-47275D01*
X62737Y-47275D02*
X62970Y-47275D01*
X63480Y-47275D02*
X63970Y-47275D01*
X64480Y-47275D02*
X64598Y-47275D01*
X65351Y-47275D02*
X65425Y-47275D01*
X58475Y-47355D02*
X58674Y-47355D01*
X59276Y-47355D02*
X59390Y-47355D01*
X59899Y-47355D02*
X61725Y-47355D01*
X62736Y-47355D02*
X63050Y-47355D01*
X63560Y-47355D02*
X64050Y-47355D01*
X64560Y-47355D02*
X64674Y-47355D01*
X65276Y-47355D02*
X65425Y-47355D01*
X58475Y-47435D02*
X58794Y-47435D01*
X59156Y-47435D02*
X59310Y-47435D01*
X59819Y-47435D02*
X61725Y-47435D01*
X62736Y-47435D02*
X63130Y-47435D01*
X63640Y-47435D02*
X64130Y-47435D01*
X64640Y-47435D02*
X64794Y-47435D01*
X65156Y-47435D02*
X65425Y-47435D01*
X58475Y-47515D02*
X59230Y-47515D01*
X59739Y-47515D02*
X61725Y-47515D01*
X62736Y-47515D02*
X63210Y-47515D01*
X63720Y-47515D02*
X64210Y-47515D01*
X64720Y-47515D02*
X65425Y-47515D01*
X58475Y-47595D02*
X58843Y-47595D01*
X59109Y-47595D02*
X59150Y-47595D01*
X59659Y-47595D02*
X61725Y-47595D01*
X62736Y-47595D02*
X63290Y-47595D01*
X63800Y-47595D02*
X64290Y-47595D01*
X64800Y-47595D02*
X64842Y-47595D01*
X65109Y-47595D02*
X65425Y-47595D01*
X58475Y-47675D02*
X58694Y-47675D01*
X59579Y-47675D02*
X61725Y-47675D01*
X62735Y-47675D02*
X63370Y-47675D01*
X63880Y-47675D02*
X64370Y-47675D01*
X65256Y-47675D02*
X65425Y-47675D01*
X58475Y-47755D02*
X58614Y-47755D01*
X59499Y-47755D02*
X61725Y-47755D01*
X62735Y-47755D02*
X63450Y-47755D01*
X63960Y-47755D02*
X64450Y-47755D01*
X65336Y-47755D02*
X65425Y-47755D01*
X58475Y-47835D02*
X58574Y-47835D01*
X59419Y-47835D02*
X61725Y-47835D01*
X62735Y-47835D02*
X63530Y-47835D01*
X64040Y-47835D02*
X64530Y-47835D01*
X65377Y-47835D02*
X65425Y-47835D01*
X58475Y-47915D02*
X58540Y-47915D01*
X59410Y-47915D02*
X61725Y-47915D01*
X62734Y-47915D02*
X63610Y-47915D01*
X64120Y-47915D02*
X64540Y-47915D01*
X65410Y-47915D02*
X65425Y-47915D01*
X58475Y-47995D02*
X58534Y-47995D01*
X59416Y-47995D02*
X61725Y-47995D01*
X62734Y-47995D02*
X63690Y-47995D01*
X64200Y-47995D02*
X64534Y-47995D01*
X65416Y-47995D02*
X65425Y-47995D01*
X58475Y-48075D02*
X58534Y-48075D01*
X59416Y-48075D02*
X61725Y-48075D01*
X62734Y-48075D02*
X63770Y-48075D01*
X64280Y-48075D02*
X64534Y-48075D01*
X65416Y-48075D02*
X65425Y-48075D01*
X58475Y-48155D02*
X58548Y-48155D01*
X59401Y-48155D02*
X61725Y-48155D01*
X62734Y-48155D02*
X63850Y-48155D01*
X64360Y-48155D02*
X64548Y-48155D01*
X65401Y-48155D02*
X65425Y-48155D01*
X58475Y-48235D02*
X58581Y-48235D01*
X59368Y-48235D02*
X61725Y-48235D01*
X62733Y-48235D02*
X63930Y-48235D01*
X64440Y-48235D02*
X64581Y-48235D01*
X65368Y-48235D02*
X65425Y-48235D01*
X58475Y-48315D02*
X58634Y-48315D01*
X59316Y-48315D02*
X61725Y-48315D01*
X62733Y-48315D02*
X64010Y-48315D01*
X64520Y-48315D02*
X64634Y-48315D01*
X65316Y-48315D02*
X65425Y-48315D01*
X58475Y-48395D02*
X58714Y-48395D01*
X59236Y-48395D02*
X61725Y-48395D01*
X62733Y-48395D02*
X64090Y-48395D01*
X64600Y-48395D02*
X64714Y-48395D01*
X65236Y-48395D02*
X65425Y-48395D01*
X58475Y-48475D02*
X61725Y-48475D01*
X62732Y-48475D02*
X64170Y-48475D01*
X64680Y-48475D02*
X65425Y-48475D01*
X58475Y-48555D02*
X61725Y-48555D01*
X62732Y-48555D02*
X64250Y-48555D01*
X64760Y-48555D02*
X65425Y-48555D01*
X58475Y-48635D02*
X58746Y-48635D01*
X59204Y-48635D02*
X61725Y-48635D01*
X62732Y-48635D02*
X64330Y-48635D01*
X65204Y-48635D02*
X65425Y-48635D01*
X58475Y-48715D02*
X58654Y-48715D01*
X59296Y-48715D02*
X61725Y-48715D01*
X62732Y-48715D02*
X64410Y-48715D01*
X65296Y-48715D02*
X65425Y-48715D01*
X58475Y-48795D02*
X58591Y-48795D01*
X59361Y-48795D02*
X61725Y-48795D01*
X62731Y-48795D02*
X64490Y-48795D01*
X65361Y-48795D02*
X65425Y-48795D01*
X58475Y-48875D02*
X58557Y-48875D01*
X59394Y-48875D02*
X61725Y-48875D01*
X62731Y-48875D02*
X64556Y-48875D01*
X65394Y-48875D02*
X65425Y-48875D01*
X58475Y-48955D02*
X58534Y-48955D01*
X59416Y-48955D02*
X61725Y-48955D01*
X62731Y-48955D02*
X64534Y-48955D01*
X65416Y-48955D02*
X65425Y-48955D01*
X58475Y-49035D02*
X58534Y-49035D01*
X59416Y-49035D02*
X61725Y-49035D01*
X62731Y-49035D02*
X64534Y-49035D01*
X65416Y-49035D02*
X65425Y-49035D01*
X58475Y-49115D02*
X58534Y-49115D01*
X59416Y-49115D02*
X61725Y-49115D01*
X62730Y-49115D02*
X64534Y-49115D01*
X65416Y-49115D02*
X65425Y-49115D01*
X58475Y-49195D02*
X58565Y-49195D01*
X59384Y-49195D02*
X61725Y-49195D01*
X62730Y-49195D02*
X64565Y-49195D01*
X65384Y-49195D02*
X65425Y-49195D01*
X58475Y-49275D02*
X58598Y-49275D01*
X59351Y-49275D02*
X61725Y-49275D01*
X62730Y-49275D02*
X64598Y-49275D01*
X65351Y-49275D02*
X65425Y-49275D01*
X58475Y-49355D02*
X58674Y-49355D01*
X59276Y-49355D02*
X61725Y-49355D01*
X62729Y-49355D02*
X64674Y-49355D01*
X65276Y-49355D02*
X65425Y-49355D01*
X58475Y-49435D02*
X58794Y-49435D01*
X59156Y-49435D02*
X61725Y-49435D01*
X62729Y-49435D02*
X64794Y-49435D01*
X65156Y-49435D02*
X65425Y-49435D01*
X58475Y-49515D02*
X61725Y-49515D01*
X62729Y-49515D02*
X65425Y-49515D01*
X58475Y-49595D02*
X58842Y-49595D01*
X59109Y-49595D02*
X61725Y-49595D01*
X62729Y-49595D02*
X64842Y-49595D01*
X65109Y-49595D02*
X65425Y-49595D01*
X58475Y-49675D02*
X58694Y-49675D01*
X59256Y-49675D02*
X61725Y-49675D01*
X62728Y-49675D02*
X64694Y-49675D01*
X65256Y-49675D02*
X65425Y-49675D01*
X58475Y-49755D02*
X58614Y-49755D01*
X59336Y-49755D02*
X61725Y-49755D01*
X62728Y-49755D02*
X64614Y-49755D01*
X65336Y-49755D02*
X65425Y-49755D01*
X58475Y-49835D02*
X58574Y-49835D01*
X59377Y-49835D02*
X61725Y-49835D01*
X62728Y-49835D02*
X64574Y-49835D01*
X65377Y-49835D02*
X65425Y-49835D01*
X58475Y-49915D02*
X58540Y-49915D01*
X59410Y-49915D02*
X61725Y-49915D01*
X62727Y-49915D02*
X64540Y-49915D01*
X65410Y-49915D02*
X65425Y-49915D01*
X58475Y-49995D02*
X58534Y-49995D01*
X59416Y-49995D02*
X61725Y-49995D01*
X62727Y-49995D02*
X64534Y-49995D01*
X65416Y-49995D02*
X65425Y-49995D01*
X58475Y-50075D02*
X58534Y-50075D01*
X59416Y-50075D02*
X61725Y-50075D01*
X62727Y-50075D02*
X64534Y-50075D01*
X65416Y-50075D02*
X65425Y-50075D01*
X58475Y-50155D02*
X58548Y-50155D01*
X59401Y-50155D02*
X61725Y-50155D01*
X62727Y-50155D02*
X64548Y-50155D01*
X65401Y-50155D02*
X65425Y-50155D01*
X58475Y-50235D02*
X58581Y-50235D01*
X59368Y-50235D02*
X61725Y-50235D01*
X62726Y-50235D02*
X64581Y-50235D01*
X65368Y-50235D02*
X65425Y-50235D01*
X58475Y-50315D02*
X58634Y-50315D01*
X59316Y-50315D02*
X61725Y-50315D01*
X62726Y-50315D02*
X64634Y-50315D01*
X65316Y-50315D02*
X65425Y-50315D01*
X58475Y-50395D02*
X58714Y-50395D01*
X59236Y-50395D02*
X61725Y-50395D01*
X62726Y-50395D02*
X64714Y-50395D01*
X65236Y-50395D02*
X65425Y-50395D01*
X58475Y-50475D02*
X61725Y-50475D01*
X62726Y-50475D02*
X65425Y-50475D01*
X58475Y-50555D02*
X61725Y-50555D01*
X62725Y-50555D02*
X65425Y-50555D01*
X58475Y-50635D02*
X58746Y-50635D01*
X59204Y-50635D02*
X61725Y-50635D01*
X62725Y-50635D02*
X64746Y-50635D01*
X65204Y-50635D02*
X65425Y-50635D01*
X58475Y-50715D02*
X58654Y-50715D01*
X59296Y-50715D02*
X61725Y-50715D01*
X62725Y-50715D02*
X64654Y-50715D01*
X65296Y-50715D02*
X65425Y-50715D01*
X58475Y-50795D02*
X58591Y-50795D01*
X59361Y-50795D02*
X61725Y-50795D01*
X62734Y-50795D02*
X64591Y-50795D01*
X65361Y-50795D02*
X65425Y-50795D01*
X58475Y-50875D02*
X58557Y-50875D01*
X59394Y-50875D02*
X61725Y-50875D01*
X62764Y-50875D02*
X64557Y-50875D01*
X65394Y-50875D02*
X65425Y-50875D01*
X58475Y-50955D02*
X58534Y-50955D01*
X59416Y-50955D02*
X61725Y-50955D01*
X62764Y-50955D02*
X64534Y-50955D01*
X65416Y-50955D02*
X65425Y-50955D01*
X58475Y-51035D02*
X58534Y-51035D01*
X59416Y-51035D02*
X61725Y-51035D01*
X62742Y-51035D02*
X64534Y-51035D01*
X65416Y-51035D02*
X65425Y-51035D01*
X58475Y-51115D02*
X58534Y-51115D01*
X59416Y-51115D02*
X61725Y-51115D01*
X62225Y-51115D02*
X62256Y-51115D01*
X62693Y-51115D02*
X64534Y-51115D01*
X65416Y-51115D02*
X65425Y-51115D01*
X58475Y-51195D02*
X58565Y-51195D01*
X59384Y-51195D02*
X61725Y-51195D01*
X62225Y-51195D02*
X62371Y-51195D01*
X62577Y-51195D02*
X64565Y-51195D01*
X65384Y-51195D02*
X65425Y-51195D01*
X58475Y-51275D02*
X58598Y-51275D01*
X59351Y-51275D02*
X61725Y-51275D01*
X62225Y-51275D02*
X64598Y-51275D01*
X65351Y-51275D02*
X65425Y-51275D01*
X58475Y-51355D02*
X58674Y-51355D01*
X59276Y-51355D02*
X61725Y-51355D01*
X62225Y-51355D02*
X64674Y-51355D01*
X65276Y-51355D02*
X65425Y-51355D01*
X58475Y-51435D02*
X58794Y-51435D01*
X59156Y-51435D02*
X61725Y-51435D01*
X62225Y-51435D02*
X64007Y-51435D01*
X64344Y-51435D02*
X64794Y-51435D01*
X65156Y-51435D02*
X65425Y-51435D01*
X58475Y-51515D02*
X61725Y-51515D01*
X62225Y-51515D02*
X63929Y-51515D01*
X64422Y-51515D02*
X65425Y-51515D01*
X58475Y-51595D02*
X58842Y-51595D01*
X59109Y-51595D02*
X61725Y-51595D01*
X62225Y-51595D02*
X63896Y-51595D01*
X64455Y-51595D02*
X64842Y-51595D01*
X65109Y-51595D02*
X65425Y-51595D01*
X58475Y-51675D02*
X58694Y-51675D01*
X59256Y-51675D02*
X61725Y-51675D01*
X62225Y-51675D02*
X63886Y-51675D01*
X64464Y-51675D02*
X64694Y-51675D01*
X65256Y-51675D02*
X65425Y-51675D01*
X58475Y-51755D02*
X58614Y-51755D01*
X59336Y-51755D02*
X61725Y-51755D01*
X62225Y-51755D02*
X63895Y-51755D01*
X64454Y-51755D02*
X64614Y-51755D01*
X65336Y-51755D02*
X65425Y-51755D01*
X58475Y-51835D02*
X58574Y-51835D01*
X59377Y-51835D02*
X61725Y-51835D01*
X62225Y-51835D02*
X63928Y-51835D01*
X64421Y-51835D02*
X64574Y-51835D01*
X65377Y-51835D02*
X65425Y-51835D01*
X58475Y-51915D02*
X58540Y-51915D01*
X59410Y-51915D02*
X61725Y-51915D01*
X62225Y-51915D02*
X63995Y-51915D01*
X64355Y-51915D02*
X64540Y-51915D01*
X65410Y-51915D02*
X65425Y-51915D01*
X58475Y-51995D02*
X58534Y-51995D01*
X59416Y-51995D02*
X61725Y-51995D01*
X62225Y-51995D02*
X63995Y-51995D01*
X64355Y-51995D02*
X64534Y-51995D01*
X65416Y-51995D02*
X65425Y-51995D01*
X58475Y-52075D02*
X58534Y-52075D01*
X59416Y-52075D02*
X61725Y-52075D01*
X62225Y-52075D02*
X63995Y-52075D01*
X64355Y-52075D02*
X64534Y-52075D01*
X65416Y-52075D02*
X65425Y-52075D01*
X58475Y-52155D02*
X58548Y-52155D01*
X59401Y-52155D02*
X61725Y-52155D01*
X62225Y-52155D02*
X63995Y-52155D01*
X64355Y-52155D02*
X64548Y-52155D01*
X65401Y-52155D02*
X65425Y-52155D01*
X58475Y-52235D02*
X58581Y-52235D01*
X59368Y-52235D02*
X61725Y-52235D01*
X62225Y-52235D02*
X63995Y-52235D01*
X64355Y-52235D02*
X64581Y-52235D01*
X65368Y-52235D02*
X65425Y-52235D01*
X58475Y-52315D02*
X58634Y-52315D01*
X59316Y-52315D02*
X61725Y-52315D01*
X62225Y-52315D02*
X63995Y-52315D01*
X64355Y-52315D02*
X64634Y-52315D01*
X65316Y-52315D02*
X65425Y-52315D01*
X58475Y-52395D02*
X58714Y-52395D01*
X59236Y-52395D02*
X61651Y-52395D01*
X62225Y-52395D02*
X63995Y-52395D01*
X64355Y-52395D02*
X64714Y-52395D01*
X65236Y-52395D02*
X65425Y-52395D01*
X58475Y-52475D02*
X61571Y-52475D01*
X62215Y-52475D02*
X63995Y-52475D01*
X64355Y-52475D02*
X65425Y-52475D01*
X58475Y-52555D02*
X58678Y-52555D01*
X59273Y-52555D02*
X61491Y-52555D01*
X62183Y-52555D02*
X63940Y-52555D01*
X64355Y-52555D02*
X64678Y-52555D01*
X65273Y-52555D02*
X65425Y-52555D01*
X58475Y-52635D02*
X58590Y-52635D01*
X59361Y-52635D02*
X61411Y-52635D01*
X62117Y-52635D02*
X63860Y-52635D01*
X64342Y-52635D02*
X64590Y-52635D01*
X65361Y-52635D02*
X65425Y-52635D01*
X58475Y-52715D02*
X58516Y-52715D01*
X59435Y-52715D02*
X61331Y-52715D01*
X62037Y-52715D02*
X63780Y-52715D01*
X64289Y-52715D02*
X64516Y-52715D01*
X58475Y-52795D02*
X58477Y-52795D01*
X59473Y-52795D02*
X61250Y-52795D01*
X61957Y-52795D02*
X63700Y-52795D01*
X64209Y-52795D02*
X64478Y-52795D01*
X59511Y-52875D02*
X61170Y-52875D01*
X61877Y-52875D02*
X63620Y-52875D01*
X64129Y-52875D02*
X64440Y-52875D01*
X59480Y-52955D02*
X60373Y-52955D01*
X60579Y-52955D02*
X61037Y-52955D01*
X61797Y-52955D02*
X63540Y-52955D01*
X64049Y-52955D02*
X64469Y-52955D01*
X58925Y-53035D02*
X60257Y-53035D01*
X60694Y-53035D02*
X60971Y-53035D01*
X61717Y-53035D02*
X63460Y-53035D01*
X63969Y-53035D02*
X65025Y-53035D01*
X59492Y-53115D02*
X60208Y-53115D01*
X60742Y-53115D02*
X60937Y-53115D01*
X61637Y-53115D02*
X63249Y-53115D01*
X63889Y-53115D02*
X64459Y-53115D01*
X59501Y-53195D02*
X60186Y-53195D01*
X60764Y-53195D02*
X60936Y-53195D01*
X61557Y-53195D02*
X61697Y-53195D01*
X62054Y-53195D02*
X63147Y-53195D01*
X63809Y-53195D02*
X64448Y-53195D01*
X58475Y-53275D02*
X58486Y-53275D01*
X59463Y-53275D02*
X60186Y-53275D01*
X62126Y-53275D02*
X63104Y-53275D01*
X63729Y-53275D02*
X64486Y-53275D01*
X58475Y-53355D02*
X58525Y-53355D01*
X59424Y-53355D02*
X60216Y-53355D01*
X62159Y-53355D02*
X63086Y-53355D01*
X63664Y-53355D02*
X64525Y-53355D01*
X65424Y-53355D02*
X65425Y-53355D01*
X58475Y-53435D02*
X58611Y-53435D01*
X59338Y-53435D02*
X60276Y-53435D01*
X62164Y-53435D02*
X63087Y-53435D01*
X63663Y-53435D02*
X64611Y-53435D01*
X65338Y-53435D02*
X65425Y-53435D01*
X58475Y-53515D02*
X58718Y-53515D01*
X58915Y-53515D02*
X58925Y-53515D01*
X59025Y-53515D02*
X59034Y-53515D01*
X59231Y-53515D02*
X60510Y-53515D01*
X62150Y-53515D02*
X63120Y-53515D01*
X63629Y-53515D02*
X64718Y-53515D01*
X64915Y-53515D02*
X64925Y-53515D01*
X65025Y-53515D02*
X65034Y-53515D01*
X65231Y-53515D02*
X65425Y-53515D01*
X58475Y-53595D02*
X58842Y-53595D01*
X59110Y-53595D02*
X60625Y-53595D01*
X62113Y-53595D02*
X63186Y-53595D01*
X63563Y-53595D02*
X64840Y-53595D01*
X65109Y-53595D02*
X65425Y-53595D01*
X58475Y-53675D02*
X58694Y-53675D01*
X59256Y-53675D02*
X61723Y-53675D01*
X62025Y-53675D02*
X64694Y-53675D01*
X65256Y-53675D02*
X65425Y-53675D01*
X58475Y-53755D02*
X58614Y-53755D01*
X59336Y-53755D02*
X64614Y-53755D01*
X65336Y-53755D02*
X65425Y-53755D01*
X58475Y-53835D02*
X58574Y-53835D01*
X59377Y-53835D02*
X64574Y-53835D01*
X65377Y-53835D02*
X65425Y-53835D01*
X58475Y-53915D02*
X58540Y-53915D01*
X59410Y-53915D02*
X64540Y-53915D01*
X65410Y-53915D02*
X65425Y-53915D01*
X58475Y-53995D02*
X58534Y-53995D01*
X59416Y-53995D02*
X64534Y-53995D01*
X65416Y-53995D02*
X65425Y-53995D01*
X58475Y-54075D02*
X58534Y-54075D01*
X59416Y-54075D02*
X64534Y-54075D01*
X65416Y-54075D02*
X65425Y-54075D01*
X58475Y-54155D02*
X58548Y-54155D01*
X59401Y-54155D02*
X64548Y-54155D01*
X65401Y-54155D02*
X65425Y-54155D01*
X58475Y-54235D02*
X58581Y-54235D01*
X59368Y-54235D02*
X64581Y-54235D01*
X65368Y-54235D02*
X65425Y-54235D01*
X58475Y-54315D02*
X58634Y-54315D01*
X59316Y-54315D02*
X64634Y-54315D01*
X65316Y-54315D02*
X65425Y-54315D01*
X58475Y-54395D02*
X58714Y-54395D01*
X59236Y-54395D02*
X64714Y-54395D01*
X65236Y-54395D02*
X65425Y-54395D01*
X58475Y-54475D02*
X65425Y-54475D01*
X65425Y-54525D02*
X65425Y-53354D01*
X65423Y-53359D01*
X65261Y-53505D01*
X65110Y-53557D01*
X65025Y-53510D01*
X65025Y-53525D01*
X64925Y-53525D01*
X64925Y-53510D01*
X64887Y-53531D01*
X64840Y-53557D01*
X64689Y-53505D01*
X64527Y-53359D01*
X64433Y-53162D01*
X64480Y-53075D01*
X64887Y-53075D01*
X64925Y-53075D01*
X65025Y-53075D01*
X65025Y-52975D01*
X64925Y-52975D01*
X64887Y-52975D01*
X64480Y-52975D01*
X64433Y-52888D01*
X64527Y-52691D01*
X64689Y-52545D01*
X64840Y-52493D01*
X64887Y-52518D01*
X64887Y-52474D01*
X64725Y-52406D01*
X64601Y-52282D01*
X64534Y-52120D01*
X64534Y-51929D01*
X64602Y-51767D01*
X64726Y-51643D01*
X64887Y-51576D01*
X64887Y-51474D01*
X64725Y-51406D01*
X64601Y-51282D01*
X64534Y-51120D01*
X64534Y-50929D01*
X64602Y-50767D01*
X64726Y-50643D01*
X64887Y-50576D01*
X64887Y-50474D01*
X64725Y-50406D01*
X64601Y-50282D01*
X64534Y-50120D01*
X64534Y-49929D01*
X64602Y-49767D01*
X64726Y-49643D01*
X64887Y-49576D01*
X64887Y-49474D01*
X64725Y-49406D01*
X64601Y-49282D01*
X64534Y-49120D01*
X64534Y-48929D01*
X64560Y-48865D01*
X62898Y-47202D01*
X62859Y-47144D01*
X62845Y-47075D01*
X62845Y-43175D01*
X62859Y-43106D01*
X62898Y-43048D01*
X62986Y-42959D01*
X62986Y-42867D01*
X63030Y-42761D01*
X63112Y-42680D01*
X63218Y-42636D01*
X63333Y-42636D01*
X63439Y-42680D01*
X63450Y-42691D01*
X63462Y-42680D01*
X63568Y-42636D01*
X63683Y-42636D01*
X63789Y-42680D01*
X63870Y-42762D01*
X63914Y-42868D01*
X63914Y-42983D01*
X63870Y-43089D01*
X63858Y-43100D01*
X63870Y-43112D01*
X63914Y-43218D01*
X63914Y-43333D01*
X63870Y-43439D01*
X63858Y-43450D01*
X63870Y-43462D01*
X63914Y-43568D01*
X63914Y-43660D01*
X64338Y-44084D01*
X64602Y-44348D01*
X64641Y-44406D01*
X64655Y-44475D01*
X64655Y-44714D01*
X64726Y-44643D01*
X64887Y-44576D01*
X64887Y-44474D01*
X64725Y-44406D01*
X64601Y-44282D01*
X64534Y-44120D01*
X64534Y-43929D01*
X64602Y-43767D01*
X64726Y-43643D01*
X64887Y-43576D01*
X64887Y-43474D01*
X64725Y-43406D01*
X64601Y-43282D01*
X64534Y-43120D01*
X64534Y-42929D01*
X64602Y-42767D01*
X64726Y-42643D01*
X64887Y-42576D01*
X64887Y-42474D01*
X64725Y-42406D01*
X64601Y-42282D01*
X64534Y-42120D01*
X64534Y-41929D01*
X64602Y-41767D01*
X64726Y-41643D01*
X64887Y-41576D01*
X64887Y-41474D01*
X64725Y-41406D01*
X64601Y-41282D01*
X64534Y-41120D01*
X64534Y-40929D01*
X64602Y-40767D01*
X64726Y-40643D01*
X64887Y-40576D01*
X64887Y-40474D01*
X64725Y-40406D01*
X64601Y-40282D01*
X64534Y-40120D01*
X64534Y-39929D01*
X64602Y-39767D01*
X64726Y-39643D01*
X64887Y-39576D01*
X64887Y-39474D01*
X64725Y-39406D01*
X64601Y-39282D01*
X64534Y-39120D01*
X64534Y-38929D01*
X64602Y-38767D01*
X64726Y-38643D01*
X64887Y-38576D01*
X64887Y-38474D01*
X64725Y-38406D01*
X64601Y-38282D01*
X64534Y-38120D01*
X64534Y-37929D01*
X64602Y-37767D01*
X64726Y-37643D01*
X64887Y-37576D01*
X64887Y-37474D01*
X64725Y-37406D01*
X64601Y-37282D01*
X64534Y-37120D01*
X64534Y-36929D01*
X64602Y-36767D01*
X64726Y-36643D01*
X64887Y-36576D01*
X64887Y-36474D01*
X64725Y-36406D01*
X64601Y-36282D01*
X64534Y-36120D01*
X64534Y-35929D01*
X64602Y-35767D01*
X64726Y-35643D01*
X64840Y-35595D01*
X64888Y-35576D01*
X65063Y-35576D01*
X65225Y-35644D01*
X65349Y-35768D01*
X65416Y-35930D01*
X65416Y-36121D01*
X65348Y-36283D01*
X65224Y-36407D01*
X65062Y-36474D01*
X64887Y-36474D01*
X64887Y-36576D01*
X65063Y-36576D01*
X65225Y-36644D01*
X65349Y-36768D01*
X65416Y-36930D01*
X65416Y-37121D01*
X65348Y-37283D01*
X65224Y-37407D01*
X65062Y-37474D01*
X64887Y-37474D01*
X64887Y-37576D01*
X65063Y-37576D01*
X65225Y-37644D01*
X65349Y-37768D01*
X65416Y-37930D01*
X65416Y-38121D01*
X65348Y-38283D01*
X65224Y-38407D01*
X65062Y-38474D01*
X64887Y-38474D01*
X64887Y-38576D01*
X65063Y-38576D01*
X65225Y-38644D01*
X65349Y-38768D01*
X65416Y-38930D01*
X65416Y-39121D01*
X65348Y-39283D01*
X65224Y-39407D01*
X65062Y-39474D01*
X64887Y-39474D01*
X64887Y-39576D01*
X65063Y-39576D01*
X65225Y-39644D01*
X65349Y-39768D01*
X65416Y-39930D01*
X65416Y-40121D01*
X65348Y-40283D01*
X65224Y-40407D01*
X65062Y-40474D01*
X64887Y-40474D01*
X64887Y-40576D01*
X65063Y-40576D01*
X65225Y-40644D01*
X65349Y-40768D01*
X65416Y-40930D01*
X65416Y-41121D01*
X65348Y-41283D01*
X65224Y-41407D01*
X65062Y-41474D01*
X64887Y-41474D01*
X64887Y-41576D01*
X65063Y-41576D01*
X65225Y-41644D01*
X65349Y-41768D01*
X65416Y-41930D01*
X65416Y-42121D01*
X65348Y-42283D01*
X65224Y-42407D01*
X65062Y-42474D01*
X64887Y-42474D01*
X64887Y-42576D01*
X65063Y-42576D01*
X65225Y-42644D01*
X65349Y-42768D01*
X65416Y-42930D01*
X65416Y-43121D01*
X65348Y-43283D01*
X65224Y-43407D01*
X65062Y-43474D01*
X64887Y-43474D01*
X64887Y-43576D01*
X65063Y-43576D01*
X65225Y-43644D01*
X65349Y-43768D01*
X65416Y-43930D01*
X65416Y-44121D01*
X65348Y-44283D01*
X65224Y-44407D01*
X65062Y-44474D01*
X64887Y-44474D01*
X64887Y-44576D01*
X65063Y-44576D01*
X65225Y-44644D01*
X65349Y-44768D01*
X65416Y-44930D01*
X65416Y-45121D01*
X65348Y-45283D01*
X65224Y-45407D01*
X65062Y-45474D01*
X64887Y-45474D01*
X64725Y-45406D01*
X64655Y-45336D01*
X64655Y-45451D01*
X64811Y-45607D01*
X64888Y-45576D01*
X65063Y-45576D01*
X65225Y-45644D01*
X65349Y-45768D01*
X65416Y-45930D01*
X65416Y-46121D01*
X65348Y-46283D01*
X65224Y-46407D01*
X65062Y-46474D01*
X64887Y-46474D01*
X64725Y-46406D01*
X64601Y-46282D01*
X64534Y-46120D01*
X64534Y-45929D01*
X64560Y-45864D01*
X64348Y-45652D01*
X64309Y-45594D01*
X64295Y-45525D01*
X64295Y-44549D01*
X63660Y-43914D01*
X63567Y-43914D01*
X63555Y-43909D01*
X63555Y-45350D01*
X64812Y-46607D01*
X64888Y-46576D01*
X65063Y-46576D01*
X65225Y-46644D01*
X65349Y-46768D01*
X65416Y-46930D01*
X65416Y-47121D01*
X65348Y-47283D01*
X65224Y-47407D01*
X65062Y-47474D01*
X64887Y-47474D01*
X64725Y-47406D01*
X64601Y-47282D01*
X64534Y-47120D01*
X64534Y-46929D01*
X64560Y-46865D01*
X63355Y-45659D01*
X63355Y-46150D01*
X64812Y-47607D01*
X64888Y-47576D01*
X65063Y-47576D01*
X65225Y-47644D01*
X65349Y-47768D01*
X65416Y-47930D01*
X65416Y-48121D01*
X65348Y-48283D01*
X65224Y-48407D01*
X65062Y-48474D01*
X64887Y-48474D01*
X64725Y-48406D01*
X64601Y-48282D01*
X64534Y-48120D01*
X64534Y-47929D01*
X64560Y-47865D01*
X63205Y-46509D01*
X63205Y-47000D01*
X64812Y-48607D01*
X64888Y-48576D01*
X65063Y-48576D01*
X65225Y-48644D01*
X65349Y-48768D01*
X65416Y-48930D01*
X65416Y-49121D01*
X65348Y-49283D01*
X65224Y-49407D01*
X65062Y-49474D01*
X64887Y-49474D01*
X64887Y-49576D01*
X65063Y-49576D01*
X65225Y-49644D01*
X65349Y-49768D01*
X65416Y-49930D01*
X65416Y-50121D01*
X65348Y-50283D01*
X65224Y-50407D01*
X65062Y-50474D01*
X64887Y-50474D01*
X64887Y-50576D01*
X65063Y-50576D01*
X65225Y-50644D01*
X65349Y-50768D01*
X65416Y-50930D01*
X65416Y-51121D01*
X65348Y-51283D01*
X65224Y-51407D01*
X65062Y-51474D01*
X64887Y-51474D01*
X64887Y-51576D01*
X65063Y-51576D01*
X65225Y-51644D01*
X65349Y-51768D01*
X65416Y-51930D01*
X65416Y-52121D01*
X65348Y-52283D01*
X65224Y-52407D01*
X65062Y-52474D01*
X64887Y-52474D01*
X64887Y-52518D01*
X64925Y-52540D01*
X64925Y-52525D01*
X65025Y-52525D01*
X65025Y-52540D01*
X65110Y-52493D01*
X65261Y-52545D01*
X65423Y-52691D01*
X65425Y-52695D01*
X65425Y-35354D01*
X65423Y-35359D01*
X65261Y-35505D01*
X65110Y-35557D01*
X65025Y-35510D01*
X65025Y-35525D01*
X64925Y-35525D01*
X64925Y-35510D01*
X64840Y-35557D01*
X64689Y-35505D01*
X64527Y-35359D01*
X64433Y-35162D01*
X64480Y-35075D01*
X64480Y-34975D01*
X64433Y-34888D01*
X64527Y-34691D01*
X64612Y-34614D01*
X64612Y-34317D01*
X64525Y-34270D01*
X64525Y-33825D01*
X64960Y-33825D01*
X65007Y-33910D01*
X64955Y-34061D01*
X64809Y-34223D01*
X64612Y-34317D01*
X64612Y-34614D01*
X64689Y-34545D01*
X64840Y-34493D01*
X64925Y-34540D01*
X64925Y-34975D01*
X64480Y-34975D01*
X64480Y-35075D01*
X64925Y-35075D01*
X65025Y-35075D01*
X65025Y-34975D01*
X65025Y-34540D01*
X65110Y-34493D01*
X65261Y-34545D01*
X65423Y-34691D01*
X65425Y-34695D01*
X65425Y-33275D01*
X64700Y-33275D01*
X64809Y-33327D01*
X64955Y-33489D01*
X65007Y-33640D01*
X64960Y-33725D01*
X64525Y-33725D01*
X64425Y-33725D01*
X64425Y-33825D01*
X64425Y-34270D01*
X64338Y-34317D01*
X64141Y-34223D01*
X63995Y-34061D01*
X63943Y-33910D01*
X63990Y-33825D01*
X63975Y-33825D01*
X63975Y-33725D01*
X63990Y-33725D01*
X63943Y-33640D01*
X63995Y-33489D01*
X64141Y-33327D01*
X64249Y-33275D01*
X58475Y-33275D01*
X58475Y-34799D01*
X58527Y-34691D01*
X58689Y-34545D01*
X58840Y-34493D01*
X58925Y-34540D01*
X58925Y-34975D01*
X58925Y-35075D01*
X59025Y-35075D01*
X59025Y-34975D01*
X59025Y-34540D01*
X59110Y-34493D01*
X59261Y-34545D01*
X59423Y-34691D01*
X59517Y-34888D01*
X59470Y-34975D01*
X59025Y-34975D01*
X59025Y-35075D01*
X59470Y-35075D01*
X59517Y-35162D01*
X59423Y-35359D01*
X59261Y-35505D01*
X59110Y-35557D01*
X59025Y-35510D01*
X59025Y-35525D01*
X58925Y-35525D01*
X58925Y-35510D01*
X58840Y-35557D01*
X58689Y-35505D01*
X58527Y-35359D01*
X58475Y-35250D01*
X58475Y-52799D01*
X58527Y-52691D01*
X58689Y-52545D01*
X58840Y-52493D01*
X58887Y-52518D01*
X58887Y-52474D01*
X58725Y-52406D01*
X58601Y-52282D01*
X58534Y-52120D01*
X58534Y-51929D01*
X58602Y-51767D01*
X58726Y-51643D01*
X58887Y-51576D01*
X58887Y-51474D01*
X58725Y-51406D01*
X58601Y-51282D01*
X58534Y-51120D01*
X58534Y-50929D01*
X58602Y-50767D01*
X58726Y-50643D01*
X58887Y-50576D01*
X58887Y-50474D01*
X58725Y-50406D01*
X58601Y-50282D01*
X58534Y-50120D01*
X58534Y-49929D01*
X58602Y-49767D01*
X58726Y-49643D01*
X58887Y-49576D01*
X58887Y-49474D01*
X58725Y-49406D01*
X58601Y-49282D01*
X58534Y-49120D01*
X58534Y-48929D01*
X58602Y-48767D01*
X58726Y-48643D01*
X58887Y-48576D01*
X58887Y-48474D01*
X58725Y-48406D01*
X58601Y-48282D01*
X58534Y-48120D01*
X58534Y-47929D01*
X58602Y-47767D01*
X58726Y-47643D01*
X58888Y-47576D01*
X59063Y-47576D01*
X59138Y-47607D01*
X59595Y-47150D01*
X59595Y-46659D01*
X59389Y-46865D01*
X59416Y-46930D01*
X59416Y-47121D01*
X59348Y-47283D01*
X59224Y-47407D01*
X59062Y-47474D01*
X58887Y-47474D01*
X58725Y-47406D01*
X58601Y-47282D01*
X58534Y-47120D01*
X58534Y-46929D01*
X58602Y-46767D01*
X58726Y-46643D01*
X58888Y-46576D01*
X59063Y-46576D01*
X59138Y-46607D01*
X59395Y-46350D01*
X59395Y-46171D01*
X59348Y-46283D01*
X59224Y-46407D01*
X59062Y-46474D01*
X58887Y-46474D01*
X58725Y-46406D01*
X58601Y-46282D01*
X58534Y-46120D01*
X58534Y-45929D01*
X58602Y-45767D01*
X58726Y-45643D01*
X58888Y-45576D01*
X59063Y-45576D01*
X59225Y-45644D01*
X59349Y-45768D01*
X59395Y-45879D01*
X59395Y-45171D01*
X59348Y-45283D01*
X59224Y-45407D01*
X59062Y-45474D01*
X58887Y-45474D01*
X58725Y-45406D01*
X58601Y-45282D01*
X58534Y-45120D01*
X58534Y-44929D01*
X58602Y-44767D01*
X58726Y-44643D01*
X58887Y-44576D01*
X58887Y-44474D01*
X58725Y-44406D01*
X58601Y-44282D01*
X58534Y-44120D01*
X58534Y-43929D01*
X58602Y-43767D01*
X58726Y-43643D01*
X58887Y-43576D01*
X58887Y-43474D01*
X58725Y-43406D01*
X58601Y-43282D01*
X58534Y-43120D01*
X58534Y-42929D01*
X58602Y-42767D01*
X58726Y-42643D01*
X58887Y-42576D01*
X58887Y-42474D01*
X58725Y-42406D01*
X58601Y-42282D01*
X58534Y-42120D01*
X58534Y-41929D01*
X58602Y-41767D01*
X58726Y-41643D01*
X58887Y-41576D01*
X58887Y-41474D01*
X58725Y-41406D01*
X58601Y-41282D01*
X58534Y-41120D01*
X58534Y-40929D01*
X58602Y-40767D01*
X58726Y-40643D01*
X58887Y-40576D01*
X58887Y-40474D01*
X58725Y-40406D01*
X58601Y-40282D01*
X58534Y-40120D01*
X58534Y-39929D01*
X58602Y-39767D01*
X58726Y-39643D01*
X58888Y-39576D01*
X59063Y-39576D01*
X59225Y-39644D01*
X59349Y-39768D01*
X59416Y-39930D01*
X59416Y-40121D01*
X59348Y-40283D01*
X59224Y-40407D01*
X59062Y-40474D01*
X58887Y-40474D01*
X58887Y-40576D01*
X59063Y-40576D01*
X59225Y-40644D01*
X59349Y-40768D01*
X59416Y-40930D01*
X59416Y-41121D01*
X59348Y-41283D01*
X59224Y-41407D01*
X59062Y-41474D01*
X58887Y-41474D01*
X58887Y-41576D01*
X59063Y-41576D01*
X59225Y-41644D01*
X59349Y-41768D01*
X59416Y-41930D01*
X59416Y-42121D01*
X59348Y-42283D01*
X59224Y-42407D01*
X59062Y-42474D01*
X58887Y-42474D01*
X58887Y-42576D01*
X59063Y-42576D01*
X59225Y-42644D01*
X59349Y-42768D01*
X59416Y-42930D01*
X59416Y-43121D01*
X59348Y-43283D01*
X59224Y-43407D01*
X59062Y-43474D01*
X58887Y-43474D01*
X58887Y-43576D01*
X59063Y-43576D01*
X59225Y-43644D01*
X59349Y-43768D01*
X59416Y-43930D01*
X59416Y-44121D01*
X59348Y-44283D01*
X59224Y-44407D01*
X59062Y-44474D01*
X58887Y-44474D01*
X58887Y-44576D01*
X59063Y-44576D01*
X59225Y-44644D01*
X59349Y-44768D01*
X59416Y-44930D01*
X59416Y-44945D01*
X59448Y-44898D01*
X59986Y-44359D01*
X59986Y-44267D01*
X60030Y-44161D01*
X60066Y-44124D01*
X60030Y-44088D01*
X59986Y-43982D01*
X59986Y-43867D01*
X60030Y-43761D01*
X60112Y-43680D01*
X60218Y-43636D01*
X60333Y-43636D01*
X60439Y-43680D01*
X60520Y-43762D01*
X60564Y-43868D01*
X60564Y-43959D01*
X60652Y-44047D01*
X60663Y-44063D01*
X60663Y-43350D01*
X60599Y-43349D01*
X60500Y-43349D01*
X60409Y-43311D01*
X60339Y-43241D01*
X60301Y-43149D01*
X60300Y-43087D01*
X60362Y-43025D01*
X60725Y-43025D01*
X60725Y-43288D01*
X60663Y-43350D01*
X60663Y-44063D01*
X60691Y-44106D01*
X60705Y-44175D01*
X60705Y-44575D01*
X60691Y-44644D01*
X60652Y-44703D01*
X59955Y-45399D01*
X59955Y-47225D01*
X59941Y-47294D01*
X59902Y-47353D01*
X59389Y-47865D01*
X59416Y-47930D01*
X59416Y-48121D01*
X59348Y-48283D01*
X59224Y-48407D01*
X59062Y-48474D01*
X58887Y-48474D01*
X58887Y-48576D01*
X59063Y-48576D01*
X59225Y-48644D01*
X59349Y-48768D01*
X59416Y-48930D01*
X59416Y-49121D01*
X59348Y-49283D01*
X59224Y-49407D01*
X59062Y-49474D01*
X58887Y-49474D01*
X58887Y-49576D01*
X59063Y-49576D01*
X59225Y-49644D01*
X59349Y-49768D01*
X59416Y-49930D01*
X59416Y-50121D01*
X59348Y-50283D01*
X59224Y-50407D01*
X59062Y-50474D01*
X58887Y-50474D01*
X58887Y-50576D01*
X59063Y-50576D01*
X59225Y-50644D01*
X59349Y-50768D01*
X59416Y-50930D01*
X59416Y-51121D01*
X59348Y-51283D01*
X59224Y-51407D01*
X59062Y-51474D01*
X58887Y-51474D01*
X58887Y-51576D01*
X59063Y-51576D01*
X59225Y-51644D01*
X59349Y-51768D01*
X59416Y-51930D01*
X59416Y-52121D01*
X59348Y-52283D01*
X59224Y-52407D01*
X59062Y-52474D01*
X58887Y-52474D01*
X58887Y-52518D01*
X58925Y-52540D01*
X58925Y-52525D01*
X59025Y-52525D01*
X59025Y-52540D01*
X59110Y-52493D01*
X59261Y-52545D01*
X59423Y-52691D01*
X59517Y-52888D01*
X59470Y-52975D01*
X59025Y-52975D01*
X58925Y-52975D01*
X58925Y-53075D01*
X59025Y-53075D01*
X59470Y-53075D01*
X59517Y-53162D01*
X59423Y-53359D01*
X59261Y-53505D01*
X59110Y-53557D01*
X59025Y-53510D01*
X59025Y-53525D01*
X58925Y-53525D01*
X58925Y-53510D01*
X58887Y-53531D01*
X58840Y-53557D01*
X58689Y-53505D01*
X58527Y-53359D01*
X58475Y-53250D01*
X58475Y-54525D01*
X58887Y-54525D01*
X58887Y-54474D01*
X58725Y-54406D01*
X58601Y-54282D01*
X58534Y-54120D01*
X58534Y-53929D01*
X58602Y-53767D01*
X58726Y-53643D01*
X58887Y-53576D01*
X59063Y-53576D01*
X59110Y-53595D01*
X59225Y-53644D01*
X59349Y-53768D01*
X59416Y-53930D01*
X59416Y-54121D01*
X59348Y-54283D01*
X59224Y-54407D01*
X59062Y-54474D01*
X58887Y-54474D01*
X58887Y-54525D01*
X61817Y-54525D01*
X61817Y-53714D01*
X61711Y-53670D01*
X61646Y-53605D01*
X60675Y-53605D01*
X60606Y-53591D01*
X60547Y-53552D01*
X60509Y-53513D01*
X60417Y-53514D01*
X60311Y-53470D01*
X60230Y-53388D01*
X60186Y-53282D01*
X60186Y-53167D01*
X60230Y-53061D01*
X60312Y-52980D01*
X60418Y-52936D01*
X60533Y-52936D01*
X60639Y-52980D01*
X60720Y-53062D01*
X60764Y-53168D01*
X60764Y-53245D01*
X60941Y-53245D01*
X60936Y-53232D01*
X60936Y-53117D01*
X60980Y-53011D01*
X61062Y-52930D01*
X61154Y-52891D01*
X61263Y-52782D01*
X61725Y-52321D01*
X61725Y-44385D01*
X61686Y-44292D01*
X61686Y-44177D01*
X61725Y-44083D01*
X61725Y-43463D01*
X61700Y-43474D01*
X61601Y-43474D01*
X61487Y-43475D01*
X61425Y-43413D01*
X61425Y-43100D01*
X61425Y-43000D01*
X61325Y-43000D01*
X61325Y-43100D01*
X61325Y-43413D01*
X61263Y-43475D01*
X61149Y-43474D01*
X61050Y-43474D01*
X60959Y-43436D01*
X60889Y-43366D01*
X60879Y-43342D01*
X60825Y-43288D01*
X60825Y-43025D01*
X60825Y-42925D01*
X60725Y-42925D01*
X60362Y-42925D01*
X60322Y-42885D01*
X60288Y-42920D01*
X60182Y-42964D01*
X60067Y-42964D01*
X59961Y-42920D01*
X59880Y-42838D01*
X59836Y-42732D01*
X59836Y-42640D01*
X59498Y-42302D01*
X59459Y-42244D01*
X59445Y-42175D01*
X59445Y-39749D01*
X59138Y-39442D01*
X59062Y-39474D01*
X58887Y-39474D01*
X58725Y-39406D01*
X58601Y-39282D01*
X58534Y-39120D01*
X58534Y-38929D01*
X58602Y-38767D01*
X58726Y-38643D01*
X58887Y-38576D01*
X58887Y-38474D01*
X58725Y-38406D01*
X58601Y-38282D01*
X58534Y-38120D01*
X58534Y-37929D01*
X58602Y-37767D01*
X58726Y-37643D01*
X58887Y-37576D01*
X58887Y-37474D01*
X58725Y-37406D01*
X58601Y-37282D01*
X58534Y-37120D01*
X58534Y-36929D01*
X58602Y-36767D01*
X58726Y-36643D01*
X58887Y-36576D01*
X58887Y-36474D01*
X58725Y-36406D01*
X58601Y-36282D01*
X58534Y-36120D01*
X58534Y-35929D01*
X58602Y-35767D01*
X58726Y-35643D01*
X58888Y-35576D01*
X59063Y-35576D01*
X59110Y-35595D01*
X59225Y-35644D01*
X59349Y-35768D01*
X59416Y-35930D01*
X59416Y-36121D01*
X59348Y-36283D01*
X59224Y-36407D01*
X59062Y-36474D01*
X58887Y-36474D01*
X58887Y-36576D01*
X59063Y-36576D01*
X59225Y-36644D01*
X59349Y-36768D01*
X59416Y-36930D01*
X59416Y-37121D01*
X59348Y-37283D01*
X59224Y-37407D01*
X59062Y-37474D01*
X58887Y-37474D01*
X58887Y-37576D01*
X59063Y-37576D01*
X59225Y-37644D01*
X59349Y-37768D01*
X59416Y-37930D01*
X59416Y-38121D01*
X59348Y-38283D01*
X59224Y-38407D01*
X59062Y-38474D01*
X58887Y-38474D01*
X58887Y-38576D01*
X59063Y-38576D01*
X59225Y-38644D01*
X59349Y-38768D01*
X59416Y-38930D01*
X59416Y-39121D01*
X59389Y-39185D01*
X59752Y-39548D01*
X59791Y-39606D01*
X59805Y-39675D01*
X59805Y-42101D01*
X59996Y-42292D01*
X60030Y-42211D01*
X60112Y-42130D01*
X60218Y-42086D01*
X60249Y-42086D01*
X60211Y-42070D01*
X60130Y-41988D01*
X60086Y-41882D01*
X60086Y-41767D01*
X60130Y-41661D01*
X60212Y-41580D01*
X60318Y-41536D01*
X60433Y-41536D01*
X60463Y-41548D01*
X60436Y-41482D01*
X60436Y-41367D01*
X60480Y-41261D01*
X60562Y-41180D01*
X60668Y-41136D01*
X60759Y-41136D01*
X61295Y-40600D01*
X61295Y-39828D01*
X61270Y-39889D01*
X61188Y-39970D01*
X61082Y-40014D01*
X61012Y-40014D01*
X61014Y-40018D01*
X61014Y-40133D01*
X60970Y-40239D01*
X60888Y-40320D01*
X60782Y-40364D01*
X60667Y-40364D01*
X60561Y-40320D01*
X60480Y-40238D01*
X60436Y-40132D01*
X60436Y-40017D01*
X60480Y-39911D01*
X60545Y-39846D01*
X60545Y-35499D01*
X59348Y-34302D01*
X59309Y-34244D01*
X59296Y-34181D01*
X59217Y-34148D01*
X59093Y-34024D01*
X59026Y-33862D01*
X59026Y-33687D01*
X59094Y-33525D01*
X59218Y-33401D01*
X59380Y-33334D01*
X59571Y-33334D01*
X59733Y-33402D01*
X59857Y-33526D01*
X59924Y-33688D01*
X59924Y-33863D01*
X59856Y-34025D01*
X59732Y-34149D01*
X59711Y-34157D01*
X60845Y-35290D01*
X60845Y-34799D01*
X60348Y-34302D01*
X60309Y-34244D01*
X60296Y-34181D01*
X60217Y-34148D01*
X60093Y-34024D01*
X60026Y-33862D01*
X60026Y-33687D01*
X60094Y-33525D01*
X60218Y-33401D01*
X60380Y-33334D01*
X60571Y-33334D01*
X60733Y-33402D01*
X60857Y-33526D01*
X60924Y-33688D01*
X60924Y-33863D01*
X60856Y-34025D01*
X60732Y-34149D01*
X60711Y-34157D01*
X61152Y-34597D01*
X61191Y-34656D01*
X61205Y-34725D01*
X61205Y-39496D01*
X61270Y-39562D01*
X61295Y-39622D01*
X61295Y-34180D01*
X61217Y-34148D01*
X61093Y-34024D01*
X61026Y-33862D01*
X61026Y-33687D01*
X61094Y-33525D01*
X61218Y-33401D01*
X61380Y-33334D01*
X61571Y-33334D01*
X61733Y-33402D01*
X61857Y-33526D01*
X61924Y-33688D01*
X61924Y-33863D01*
X61856Y-34025D01*
X61732Y-34149D01*
X61655Y-34180D01*
X61655Y-40675D01*
X61641Y-40744D01*
X61602Y-40803D01*
X61014Y-41390D01*
X61014Y-41483D01*
X60970Y-41589D01*
X60913Y-41645D01*
X61550Y-41645D01*
X61995Y-41200D01*
X61995Y-34075D01*
X62009Y-34006D01*
X62048Y-33948D01*
X62057Y-33938D01*
X62026Y-33862D01*
X62026Y-33687D01*
X62094Y-33525D01*
X62218Y-33401D01*
X62380Y-33334D01*
X62571Y-33334D01*
X62733Y-33402D01*
X62857Y-33526D01*
X62924Y-33688D01*
X62924Y-33863D01*
X62856Y-34025D01*
X62732Y-34149D01*
X62570Y-34216D01*
X62379Y-34216D01*
X62355Y-34205D01*
X62355Y-37191D01*
X63225Y-36321D01*
X63225Y-34151D01*
X63217Y-34148D01*
X63093Y-34024D01*
X63026Y-33862D01*
X63026Y-33687D01*
X63094Y-33525D01*
X63218Y-33401D01*
X63380Y-33334D01*
X63571Y-33334D01*
X63733Y-33402D01*
X63857Y-33526D01*
X63924Y-33688D01*
X63924Y-33863D01*
X63856Y-34025D01*
X63732Y-34149D01*
X63725Y-34151D01*
X63725Y-36425D01*
X63706Y-36521D01*
X63652Y-36602D01*
X63649Y-36603D01*
X62771Y-37482D01*
X62725Y-50775D01*
X62764Y-50868D01*
X62764Y-50983D01*
X62720Y-51089D01*
X62638Y-51170D01*
X62532Y-51214D01*
X62417Y-51214D01*
X62311Y-51170D01*
X62230Y-51088D01*
X62225Y-51075D01*
X62225Y-52425D01*
X62206Y-52521D01*
X62152Y-52602D01*
X62149Y-52603D01*
X61509Y-53244D01*
X61509Y-53245D01*
X61646Y-53245D01*
X61712Y-53180D01*
X61818Y-53136D01*
X61933Y-53136D01*
X62039Y-53180D01*
X62120Y-53262D01*
X62164Y-53368D01*
X62164Y-53483D01*
X62120Y-53589D01*
X62038Y-53670D01*
X61932Y-53714D01*
X61817Y-53714D01*
X61817Y-54525D01*
X63317Y-54525D01*
X63317Y-53664D01*
X63211Y-53620D01*
X63130Y-53538D01*
X63086Y-53432D01*
X63086Y-53317D01*
X63130Y-53211D01*
X63212Y-53130D01*
X63318Y-53086D01*
X63409Y-53086D01*
X63995Y-52500D01*
X63995Y-51903D01*
X63930Y-51838D01*
X63886Y-51732D01*
X63886Y-51617D01*
X63930Y-51511D01*
X64012Y-51430D01*
X64118Y-51386D01*
X64233Y-51386D01*
X64339Y-51430D01*
X64420Y-51512D01*
X64464Y-51618D01*
X64464Y-51733D01*
X64420Y-51839D01*
X64355Y-51903D01*
X64355Y-52575D01*
X64341Y-52644D01*
X64302Y-52703D01*
X63664Y-53340D01*
X63664Y-53433D01*
X63620Y-53539D01*
X63538Y-53620D01*
X63432Y-53664D01*
X63317Y-53664D01*
X63317Y-54525D01*
X64887Y-54525D01*
X64887Y-54474D01*
X64725Y-54406D01*
X64601Y-54282D01*
X64534Y-54120D01*
X64534Y-53929D01*
X64602Y-53767D01*
X64726Y-53643D01*
X64840Y-53595D01*
X64887Y-53576D01*
X65063Y-53576D01*
X65225Y-53644D01*
X65349Y-53768D01*
X65416Y-53930D01*
X65416Y-54121D01*
X65348Y-54283D01*
X65224Y-54407D01*
X65062Y-54474D01*
X64887Y-54474D01*
X64887Y-54525D01*
X65425Y-54525D01*
M02*
