G04 (created by PCBNEW-RS274X (2010-03-14)-final) date dom 30 oct 2011 23:58:25 ART*
G01*
G70*
G90*
%MOIN*%
G04 Gerber Fmt 3.4, Leading zero omitted, Abs format*
%FSLAX34Y34*%
G04 APERTURE LIST*
%ADD10C,0.000000*%
%ADD11C,0.015000*%
%ADD12R,0.055000X0.075000*%
%ADD13R,0.045000X0.065000*%
%ADD14O,0.080000X0.080000*%
G04 APERTURE END LIST*
G54D10*
G54D11*
X79150Y-29750D02*
X79126Y-29992D01*
X79055Y-30226D01*
X78941Y-30441D01*
X78786Y-30630D01*
X78598Y-30786D01*
X78384Y-30902D01*
X78151Y-30974D01*
X77908Y-30999D01*
X77666Y-30977D01*
X77432Y-30908D01*
X77216Y-30795D01*
X77026Y-30643D01*
X76869Y-30456D01*
X76752Y-30242D01*
X76678Y-30009D01*
X76651Y-29767D01*
X76671Y-29525D01*
X76738Y-29290D01*
X76850Y-29073D01*
X77001Y-28882D01*
X77187Y-28724D01*
X77400Y-28605D01*
X77632Y-28530D01*
X77874Y-28501D01*
X78117Y-28519D01*
X78352Y-28585D01*
X78569Y-28695D01*
X78762Y-28845D01*
X78921Y-29030D01*
X79041Y-29242D01*
X79118Y-29474D01*
X79149Y-29716D01*
X79150Y-29750D01*
X75400Y-29750D02*
X80400Y-29750D01*
X77900Y-27250D02*
X77900Y-32250D01*
X79150Y-54150D02*
X79126Y-54392D01*
X79055Y-54626D01*
X78941Y-54841D01*
X78786Y-55030D01*
X78598Y-55186D01*
X78384Y-55302D01*
X78151Y-55374D01*
X77908Y-55399D01*
X77666Y-55377D01*
X77432Y-55308D01*
X77216Y-55195D01*
X77026Y-55043D01*
X76869Y-54856D01*
X76752Y-54642D01*
X76678Y-54409D01*
X76651Y-54167D01*
X76671Y-53925D01*
X76738Y-53690D01*
X76850Y-53473D01*
X77001Y-53282D01*
X77187Y-53124D01*
X77400Y-53005D01*
X77632Y-52930D01*
X77874Y-52901D01*
X78117Y-52919D01*
X78352Y-52985D01*
X78569Y-53095D01*
X78762Y-53245D01*
X78921Y-53430D01*
X79041Y-53642D01*
X79118Y-53874D01*
X79149Y-54116D01*
X79150Y-54150D01*
X75400Y-54150D02*
X80400Y-54150D01*
X77900Y-51650D02*
X77900Y-56650D01*
X55600Y-54200D02*
X55576Y-54442D01*
X55505Y-54676D01*
X55391Y-54891D01*
X55236Y-55080D01*
X55048Y-55236D01*
X54834Y-55352D01*
X54601Y-55424D01*
X54358Y-55449D01*
X54116Y-55427D01*
X53882Y-55358D01*
X53666Y-55245D01*
X53476Y-55093D01*
X53319Y-54906D01*
X53202Y-54692D01*
X53128Y-54459D01*
X53101Y-54217D01*
X53121Y-53975D01*
X53188Y-53740D01*
X53300Y-53523D01*
X53451Y-53332D01*
X53637Y-53174D01*
X53850Y-53055D01*
X54082Y-52980D01*
X54324Y-52951D01*
X54567Y-52969D01*
X54802Y-53035D01*
X55019Y-53145D01*
X55212Y-53295D01*
X55371Y-53480D01*
X55491Y-53692D01*
X55568Y-53924D01*
X55599Y-54166D01*
X55600Y-54200D01*
X51850Y-54200D02*
X56850Y-54200D01*
X54350Y-51700D02*
X54350Y-56700D01*
X55600Y-29750D02*
X55576Y-29992D01*
X55505Y-30226D01*
X55391Y-30441D01*
X55236Y-30630D01*
X55048Y-30786D01*
X54834Y-30902D01*
X54601Y-30974D01*
X54358Y-30999D01*
X54116Y-30977D01*
X53882Y-30908D01*
X53666Y-30795D01*
X53476Y-30643D01*
X53319Y-30456D01*
X53202Y-30242D01*
X53128Y-30009D01*
X53101Y-29767D01*
X53121Y-29525D01*
X53188Y-29290D01*
X53300Y-29073D01*
X53451Y-28882D01*
X53637Y-28724D01*
X53850Y-28605D01*
X54082Y-28530D01*
X54324Y-28501D01*
X54567Y-28519D01*
X54802Y-28585D01*
X55019Y-28695D01*
X55212Y-28845D01*
X55371Y-29030D01*
X55491Y-29242D01*
X55568Y-29474D01*
X55599Y-29716D01*
X55600Y-29750D01*
X51850Y-29750D02*
X56850Y-29750D01*
X54350Y-27250D02*
X54350Y-32250D01*
X76900Y-45850D02*
X76900Y-53150D01*
X76900Y-53150D02*
X55350Y-53150D01*
X55350Y-53150D02*
X55350Y-45850D01*
X55350Y-45850D02*
X76900Y-45850D01*
X55350Y-38300D02*
X76900Y-38300D01*
X55350Y-45600D02*
X55350Y-38300D01*
X76900Y-45600D02*
X55350Y-45600D01*
X76900Y-38300D02*
X76900Y-45600D01*
X55350Y-30750D02*
X76900Y-30750D01*
X55350Y-38050D02*
X55350Y-30750D01*
X76900Y-38050D02*
X55350Y-38050D01*
X76900Y-30750D02*
X76900Y-38050D01*
G54D12*
X67725Y-48900D03*
X66975Y-48900D03*
G54D13*
X67650Y-48300D03*
X67050Y-48300D03*
G54D14*
X56000Y-52500D03*
X57000Y-52500D03*
X58000Y-52500D03*
X59000Y-52500D03*
X60000Y-52500D03*
X61000Y-52500D03*
X62000Y-52500D03*
X63000Y-52500D03*
X64000Y-52500D03*
X65000Y-52500D03*
X66000Y-52500D03*
X67000Y-52500D03*
X68000Y-52500D03*
X69000Y-52500D03*
X70000Y-52500D03*
X71000Y-52500D03*
X72000Y-52500D03*
X73000Y-52500D03*
X74000Y-52500D03*
X75000Y-52500D03*
X56000Y-46500D03*
X57000Y-46500D03*
X58000Y-46500D03*
X59000Y-46500D03*
X60000Y-46500D03*
X61000Y-46500D03*
X62000Y-46500D03*
X63000Y-46500D03*
X64000Y-46500D03*
X65000Y-46500D03*
X66000Y-46500D03*
X67000Y-46500D03*
X68000Y-46500D03*
X69000Y-46500D03*
X70000Y-46500D03*
X71000Y-46500D03*
X72000Y-46500D03*
X73000Y-46500D03*
X74000Y-46500D03*
X75000Y-46500D03*
X76250Y-47000D03*
X76250Y-48000D03*
X76250Y-49000D03*
X76250Y-50000D03*
X76250Y-51000D03*
X76250Y-52000D03*
X76250Y-39450D03*
X76250Y-40450D03*
X76250Y-41450D03*
X76250Y-42450D03*
X76250Y-43450D03*
X76250Y-44450D03*
X56000Y-38950D03*
X57000Y-38950D03*
X58000Y-38950D03*
X59000Y-38950D03*
X60000Y-38950D03*
X61000Y-38950D03*
X62000Y-38950D03*
X63000Y-38950D03*
X64000Y-38950D03*
X65000Y-38950D03*
X66000Y-38950D03*
X67000Y-38950D03*
X68000Y-38950D03*
X69000Y-38950D03*
X70000Y-38950D03*
X71000Y-38950D03*
X72000Y-38950D03*
X73000Y-38950D03*
X74000Y-38950D03*
X75000Y-38950D03*
X56000Y-44950D03*
X57000Y-44950D03*
X58000Y-44950D03*
X59000Y-44950D03*
X60000Y-44950D03*
X61000Y-44950D03*
X62000Y-44950D03*
X63000Y-44950D03*
X64000Y-44950D03*
X65000Y-44950D03*
X66000Y-44950D03*
X67000Y-44950D03*
X68000Y-44950D03*
X69000Y-44950D03*
X70000Y-44950D03*
X71000Y-44950D03*
X72000Y-44950D03*
X73000Y-44950D03*
X74000Y-44950D03*
X75000Y-44950D03*
G54D13*
X67650Y-40750D03*
X67050Y-40750D03*
G54D12*
X67725Y-41350D03*
X66975Y-41350D03*
G54D14*
X76250Y-31900D03*
X76250Y-32900D03*
X76250Y-33900D03*
X76250Y-34900D03*
X76250Y-35900D03*
X76250Y-36900D03*
X56000Y-31400D03*
X57000Y-31400D03*
X58000Y-31400D03*
X59000Y-31400D03*
X60000Y-31400D03*
X61000Y-31400D03*
X62000Y-31400D03*
X63000Y-31400D03*
X64000Y-31400D03*
X65000Y-31400D03*
X66000Y-31400D03*
X67000Y-31400D03*
X68000Y-31400D03*
X69000Y-31400D03*
X70000Y-31400D03*
X71000Y-31400D03*
X72000Y-31400D03*
X73000Y-31400D03*
X74000Y-31400D03*
X75000Y-31400D03*
X56000Y-37400D03*
X57000Y-37400D03*
X58000Y-37400D03*
X59000Y-37400D03*
X60000Y-37400D03*
X61000Y-37400D03*
X62000Y-37400D03*
X63000Y-37400D03*
X64000Y-37400D03*
X65000Y-37400D03*
X66000Y-37400D03*
X67000Y-37400D03*
X68000Y-37400D03*
X69000Y-37400D03*
X70000Y-37400D03*
X71000Y-37400D03*
X72000Y-37400D03*
X73000Y-37400D03*
X74000Y-37400D03*
X75000Y-37400D03*
G54D13*
X67650Y-33200D03*
X67050Y-33200D03*
G54D12*
X67725Y-33800D03*
X66975Y-33800D03*
M02*
