G04 (created by PCBNEW-RS274X (2010-03-14)-final) date dom 30 oct 2011 23:58:16 ART*
G01*
G70*
G90*
%MOIN*%
G04 Gerber Fmt 3.4, Leading zero omitted, Abs format*
%FSLAX34Y34*%
G04 APERTURE LIST*
%ADD10C,0.000000*%
%ADD11C,0.015000*%
%ADD12C,0.010000*%
%ADD13C,0.005000*%
G04 APERTURE END LIST*
G54D10*
G54D11*
X79150Y-29750D02*
X79126Y-29992D01*
X79055Y-30226D01*
X78941Y-30441D01*
X78786Y-30630D01*
X78598Y-30786D01*
X78384Y-30902D01*
X78151Y-30974D01*
X77908Y-30999D01*
X77666Y-30977D01*
X77432Y-30908D01*
X77216Y-30795D01*
X77026Y-30643D01*
X76869Y-30456D01*
X76752Y-30242D01*
X76678Y-30009D01*
X76651Y-29767D01*
X76671Y-29525D01*
X76738Y-29290D01*
X76850Y-29073D01*
X77001Y-28882D01*
X77187Y-28724D01*
X77400Y-28605D01*
X77632Y-28530D01*
X77874Y-28501D01*
X78117Y-28519D01*
X78352Y-28585D01*
X78569Y-28695D01*
X78762Y-28845D01*
X78921Y-29030D01*
X79041Y-29242D01*
X79118Y-29474D01*
X79149Y-29716D01*
X79150Y-29750D01*
X75400Y-29750D02*
X80400Y-29750D01*
X77900Y-27250D02*
X77900Y-32250D01*
X79150Y-54150D02*
X79126Y-54392D01*
X79055Y-54626D01*
X78941Y-54841D01*
X78786Y-55030D01*
X78598Y-55186D01*
X78384Y-55302D01*
X78151Y-55374D01*
X77908Y-55399D01*
X77666Y-55377D01*
X77432Y-55308D01*
X77216Y-55195D01*
X77026Y-55043D01*
X76869Y-54856D01*
X76752Y-54642D01*
X76678Y-54409D01*
X76651Y-54167D01*
X76671Y-53925D01*
X76738Y-53690D01*
X76850Y-53473D01*
X77001Y-53282D01*
X77187Y-53124D01*
X77400Y-53005D01*
X77632Y-52930D01*
X77874Y-52901D01*
X78117Y-52919D01*
X78352Y-52985D01*
X78569Y-53095D01*
X78762Y-53245D01*
X78921Y-53430D01*
X79041Y-53642D01*
X79118Y-53874D01*
X79149Y-54116D01*
X79150Y-54150D01*
X75400Y-54150D02*
X80400Y-54150D01*
X77900Y-51650D02*
X77900Y-56650D01*
X55600Y-54200D02*
X55576Y-54442D01*
X55505Y-54676D01*
X55391Y-54891D01*
X55236Y-55080D01*
X55048Y-55236D01*
X54834Y-55352D01*
X54601Y-55424D01*
X54358Y-55449D01*
X54116Y-55427D01*
X53882Y-55358D01*
X53666Y-55245D01*
X53476Y-55093D01*
X53319Y-54906D01*
X53202Y-54692D01*
X53128Y-54459D01*
X53101Y-54217D01*
X53121Y-53975D01*
X53188Y-53740D01*
X53300Y-53523D01*
X53451Y-53332D01*
X53637Y-53174D01*
X53850Y-53055D01*
X54082Y-52980D01*
X54324Y-52951D01*
X54567Y-52969D01*
X54802Y-53035D01*
X55019Y-53145D01*
X55212Y-53295D01*
X55371Y-53480D01*
X55491Y-53692D01*
X55568Y-53924D01*
X55599Y-54166D01*
X55600Y-54200D01*
X51850Y-54200D02*
X56850Y-54200D01*
X54350Y-51700D02*
X54350Y-56700D01*
X55600Y-29750D02*
X55576Y-29992D01*
X55505Y-30226D01*
X55391Y-30441D01*
X55236Y-30630D01*
X55048Y-30786D01*
X54834Y-30902D01*
X54601Y-30974D01*
X54358Y-30999D01*
X54116Y-30977D01*
X53882Y-30908D01*
X53666Y-30795D01*
X53476Y-30643D01*
X53319Y-30456D01*
X53202Y-30242D01*
X53128Y-30009D01*
X53101Y-29767D01*
X53121Y-29525D01*
X53188Y-29290D01*
X53300Y-29073D01*
X53451Y-28882D01*
X53637Y-28724D01*
X53850Y-28605D01*
X54082Y-28530D01*
X54324Y-28501D01*
X54567Y-28519D01*
X54802Y-28585D01*
X55019Y-28695D01*
X55212Y-28845D01*
X55371Y-29030D01*
X55491Y-29242D01*
X55568Y-29474D01*
X55599Y-29716D01*
X55600Y-29750D01*
X51850Y-29750D02*
X56850Y-29750D01*
X54350Y-27250D02*
X54350Y-32250D01*
G54D12*
X80905Y-44119D02*
X80905Y-44405D01*
X81286Y-44435D01*
X81248Y-44406D01*
X81210Y-44349D01*
X81210Y-44206D01*
X81248Y-44149D01*
X81286Y-44120D01*
X81362Y-44092D01*
X81552Y-44092D01*
X81629Y-44120D01*
X81667Y-44149D01*
X81705Y-44207D01*
X81705Y-44350D01*
X81667Y-44406D01*
X81629Y-44435D01*
X80906Y-43577D02*
X80906Y-43691D01*
X80944Y-43748D01*
X80982Y-43777D01*
X81096Y-43834D01*
X81249Y-43864D01*
X81553Y-43864D01*
X81630Y-43835D01*
X81668Y-43807D01*
X81706Y-43750D01*
X81706Y-43636D01*
X81668Y-43578D01*
X81630Y-43549D01*
X81553Y-43521D01*
X81363Y-43521D01*
X81287Y-43549D01*
X81249Y-43578D01*
X81211Y-43635D01*
X81211Y-43749D01*
X81249Y-43807D01*
X81287Y-43835D01*
X81363Y-43864D01*
X81669Y-43236D02*
X81707Y-43237D01*
X81783Y-43265D01*
X81821Y-43294D01*
X81250Y-42892D02*
X81212Y-42950D01*
X81173Y-42978D01*
X81097Y-43006D01*
X81059Y-43006D01*
X80983Y-42977D01*
X80945Y-42949D01*
X80907Y-42891D01*
X80908Y-42777D01*
X80946Y-42720D01*
X80984Y-42691D01*
X81060Y-42663D01*
X81098Y-42663D01*
X81174Y-42692D01*
X81213Y-42721D01*
X81251Y-42778D01*
X81250Y-42892D01*
X81288Y-42950D01*
X81326Y-42978D01*
X81402Y-43007D01*
X81554Y-43007D01*
X81631Y-42978D01*
X81669Y-42950D01*
X81707Y-42893D01*
X81708Y-42779D01*
X81670Y-42721D01*
X81632Y-42692D01*
X81555Y-42664D01*
X81403Y-42664D01*
X81327Y-42692D01*
X81289Y-42721D01*
X81251Y-42778D01*
X81708Y-42380D02*
X81708Y-42265D01*
X81671Y-42207D01*
X81633Y-42179D01*
X81518Y-42121D01*
X81366Y-42093D01*
X81061Y-42092D01*
X80985Y-42120D01*
X80947Y-42149D01*
X80909Y-42206D01*
X80908Y-42320D01*
X80946Y-42378D01*
X80984Y-42406D01*
X81060Y-42435D01*
X81251Y-42436D01*
X81327Y-42407D01*
X81365Y-42379D01*
X81403Y-42321D01*
X81404Y-42207D01*
X81366Y-42150D01*
X81328Y-42121D01*
X81252Y-42093D01*
X80910Y-41578D02*
X80909Y-41692D01*
X80947Y-41749D01*
X80985Y-41778D01*
X81099Y-41836D01*
X81252Y-41865D01*
X81556Y-41865D01*
X81633Y-41836D01*
X81671Y-41808D01*
X81709Y-41751D01*
X81710Y-41637D01*
X81672Y-41579D01*
X81634Y-41550D01*
X81557Y-41522D01*
X81367Y-41522D01*
X81291Y-41550D01*
X81253Y-41579D01*
X81215Y-41636D01*
X81214Y-41750D01*
X81252Y-41808D01*
X81290Y-41836D01*
X81366Y-41865D01*
X81711Y-40809D02*
X81177Y-40808D01*
X81254Y-40808D02*
X81216Y-40780D01*
X81177Y-40722D01*
X81177Y-40637D01*
X81216Y-40580D01*
X81292Y-40551D01*
X81711Y-40552D01*
X81292Y-40551D02*
X81216Y-40522D01*
X81178Y-40465D01*
X81178Y-40380D01*
X81217Y-40322D01*
X81293Y-40294D01*
X81712Y-40295D01*
X81712Y-40009D02*
X81178Y-40008D01*
X81255Y-40008D02*
X81217Y-39980D01*
X81179Y-39922D01*
X81179Y-39837D01*
X81218Y-39780D01*
X81294Y-39751D01*
X81713Y-39752D01*
X81294Y-39751D02*
X81218Y-39722D01*
X81179Y-39665D01*
X81179Y-39580D01*
X81218Y-39522D01*
X81294Y-39494D01*
X81713Y-39495D01*
G54D11*
X80700Y-53150D02*
X80700Y-30750D01*
X76900Y-53150D02*
X82070Y-53150D01*
X76900Y-30750D02*
X82070Y-30750D01*
X80700Y-30750D02*
X80930Y-31193D01*
X80700Y-30750D02*
X80470Y-31193D01*
X80700Y-53150D02*
X80930Y-52707D01*
X80700Y-53150D02*
X80470Y-52707D01*
G54D12*
X63955Y-57558D02*
X63669Y-57558D01*
X63640Y-57939D01*
X63669Y-57901D01*
X63726Y-57863D01*
X63869Y-57863D01*
X63926Y-57901D01*
X63955Y-57939D01*
X63983Y-58015D01*
X63983Y-58205D01*
X63955Y-58282D01*
X63926Y-58320D01*
X63869Y-58358D01*
X63726Y-58358D01*
X63669Y-58320D01*
X63640Y-58282D01*
X64497Y-57824D02*
X64497Y-58358D01*
X64354Y-57520D02*
X64211Y-58091D01*
X64583Y-58091D01*
X64839Y-58320D02*
X64839Y-58358D01*
X64811Y-58434D01*
X64782Y-58472D01*
X65040Y-57558D02*
X65440Y-57558D01*
X65183Y-58358D01*
X65611Y-57558D02*
X65982Y-57558D01*
X65782Y-57863D01*
X65868Y-57863D01*
X65925Y-57901D01*
X65954Y-57939D01*
X65982Y-58015D01*
X65982Y-58205D01*
X65954Y-58282D01*
X65925Y-58320D01*
X65868Y-58358D01*
X65696Y-58358D01*
X65639Y-58320D01*
X65611Y-58282D01*
X66182Y-57558D02*
X66582Y-57558D01*
X66325Y-58358D01*
X67267Y-58358D02*
X67267Y-57824D01*
X67267Y-57901D02*
X67295Y-57863D01*
X67353Y-57824D01*
X67438Y-57824D01*
X67495Y-57863D01*
X67524Y-57939D01*
X67524Y-58358D01*
X67524Y-57939D02*
X67553Y-57863D01*
X67610Y-57824D01*
X67695Y-57824D01*
X67753Y-57863D01*
X67781Y-57939D01*
X67781Y-58358D01*
X68067Y-58358D02*
X68067Y-57824D01*
X68067Y-57901D02*
X68095Y-57863D01*
X68153Y-57824D01*
X68238Y-57824D01*
X68295Y-57863D01*
X68324Y-57939D01*
X68324Y-58358D01*
X68324Y-57939D02*
X68353Y-57863D01*
X68410Y-57824D01*
X68495Y-57824D01*
X68553Y-57863D01*
X68581Y-57939D01*
X68581Y-58358D01*
G54D11*
X55350Y-57349D02*
X76900Y-57349D01*
X55350Y-53250D02*
X55350Y-58719D01*
X76900Y-53250D02*
X76900Y-58719D01*
X76900Y-57349D02*
X76457Y-57579D01*
X76900Y-57349D02*
X76457Y-57119D01*
X55350Y-57349D02*
X55793Y-57579D01*
X55350Y-57349D02*
X55793Y-57119D01*
X76900Y-45850D02*
X76900Y-53150D01*
X76900Y-53150D02*
X55350Y-53150D01*
X55350Y-53150D02*
X55350Y-45850D01*
X55350Y-45850D02*
X76900Y-45850D01*
X55350Y-38300D02*
X76900Y-38300D01*
X55350Y-45600D02*
X55350Y-38300D01*
X76900Y-45600D02*
X55350Y-45600D01*
X76900Y-38300D02*
X76900Y-45600D01*
X55350Y-30750D02*
X76900Y-30750D01*
X55350Y-38050D02*
X55350Y-30750D01*
X76900Y-38050D02*
X55350Y-38050D01*
X76900Y-30750D02*
X76900Y-38050D01*
G54D13*
X60681Y-51702D02*
X60681Y-51202D01*
X60872Y-51202D01*
X60919Y-51226D01*
X60943Y-51250D01*
X60967Y-51298D01*
X60967Y-51369D01*
X60943Y-51417D01*
X60919Y-51440D01*
X60872Y-51464D01*
X60681Y-51464D01*
X61443Y-51702D02*
X61157Y-51702D01*
X61300Y-51702D02*
X61300Y-51202D01*
X61252Y-51274D01*
X61205Y-51321D01*
X61157Y-51345D01*
X55903Y-51805D02*
X55879Y-51829D01*
X55808Y-51852D01*
X55760Y-51852D01*
X55688Y-51829D01*
X55641Y-51781D01*
X55617Y-51733D01*
X55593Y-51638D01*
X55593Y-51567D01*
X55617Y-51471D01*
X55641Y-51424D01*
X55688Y-51376D01*
X55760Y-51352D01*
X55808Y-51352D01*
X55879Y-51376D01*
X55903Y-51400D01*
X56212Y-51352D02*
X56308Y-51352D01*
X56355Y-51376D01*
X56403Y-51424D01*
X56427Y-51519D01*
X56427Y-51686D01*
X56403Y-51781D01*
X56355Y-51829D01*
X56308Y-51852D01*
X56212Y-51852D01*
X56165Y-51829D01*
X56117Y-51781D01*
X56093Y-51686D01*
X56093Y-51519D01*
X56117Y-51424D01*
X56165Y-51376D01*
X56212Y-51352D01*
X56641Y-51852D02*
X56641Y-51352D01*
X56927Y-51852D01*
X56927Y-51352D01*
X57046Y-51900D02*
X57427Y-51900D01*
X57808Y-51852D02*
X57522Y-51852D01*
X57665Y-51852D02*
X57665Y-51352D01*
X57617Y-51424D01*
X57570Y-51471D01*
X57522Y-51495D01*
X60681Y-47652D02*
X60681Y-47152D01*
X60872Y-47152D01*
X60919Y-47176D01*
X60943Y-47200D01*
X60967Y-47248D01*
X60967Y-47319D01*
X60943Y-47367D01*
X60919Y-47390D01*
X60872Y-47414D01*
X60681Y-47414D01*
X61157Y-47200D02*
X61181Y-47176D01*
X61229Y-47152D01*
X61348Y-47152D01*
X61395Y-47176D01*
X61419Y-47200D01*
X61443Y-47248D01*
X61443Y-47295D01*
X61419Y-47367D01*
X61133Y-47652D01*
X61443Y-47652D01*
X55903Y-47605D02*
X55879Y-47629D01*
X55808Y-47652D01*
X55760Y-47652D01*
X55688Y-47629D01*
X55641Y-47581D01*
X55617Y-47533D01*
X55593Y-47438D01*
X55593Y-47367D01*
X55617Y-47271D01*
X55641Y-47224D01*
X55688Y-47176D01*
X55760Y-47152D01*
X55808Y-47152D01*
X55879Y-47176D01*
X55903Y-47200D01*
X56212Y-47152D02*
X56308Y-47152D01*
X56355Y-47176D01*
X56403Y-47224D01*
X56427Y-47319D01*
X56427Y-47486D01*
X56403Y-47581D01*
X56355Y-47629D01*
X56308Y-47652D01*
X56212Y-47652D01*
X56165Y-47629D01*
X56117Y-47581D01*
X56093Y-47486D01*
X56093Y-47319D01*
X56117Y-47224D01*
X56165Y-47176D01*
X56212Y-47152D01*
X56641Y-47652D02*
X56641Y-47152D01*
X56927Y-47652D01*
X56927Y-47152D01*
X57046Y-47700D02*
X57427Y-47700D01*
X57522Y-47200D02*
X57546Y-47176D01*
X57594Y-47152D01*
X57713Y-47152D01*
X57760Y-47176D01*
X57784Y-47200D01*
X57808Y-47248D01*
X57808Y-47295D01*
X57784Y-47367D01*
X57498Y-47652D01*
X57808Y-47652D01*
X74802Y-49769D02*
X74302Y-49769D01*
X74302Y-49578D01*
X74326Y-49531D01*
X74350Y-49507D01*
X74398Y-49483D01*
X74469Y-49483D01*
X74517Y-49507D01*
X74540Y-49531D01*
X74564Y-49578D01*
X74564Y-49769D01*
X74302Y-49317D02*
X74302Y-49007D01*
X74493Y-49174D01*
X74493Y-49102D01*
X74517Y-49055D01*
X74540Y-49031D01*
X74588Y-49007D01*
X74707Y-49007D01*
X74755Y-49031D01*
X74779Y-49055D01*
X74802Y-49102D01*
X74802Y-49245D01*
X74779Y-49293D01*
X74755Y-49317D01*
X75102Y-51616D02*
X75460Y-51616D01*
X75531Y-51640D01*
X75579Y-51688D01*
X75602Y-51759D01*
X75602Y-51807D01*
X75102Y-51449D02*
X75102Y-51164D01*
X75602Y-51307D02*
X75102Y-51307D01*
X75460Y-51021D02*
X75460Y-50783D01*
X75602Y-51068D02*
X75102Y-50902D01*
X75602Y-50735D01*
X75126Y-50306D02*
X75102Y-50354D01*
X75102Y-50425D01*
X75126Y-50497D01*
X75174Y-50544D01*
X75221Y-50568D01*
X75317Y-50592D01*
X75388Y-50592D01*
X75483Y-50568D01*
X75531Y-50544D01*
X75579Y-50497D01*
X75602Y-50425D01*
X75602Y-50377D01*
X75579Y-50306D01*
X75555Y-50282D01*
X75388Y-50282D01*
X75388Y-50377D01*
X75412Y-50068D02*
X75412Y-49687D01*
X75602Y-49449D02*
X75102Y-49449D01*
X75102Y-49258D01*
X75126Y-49211D01*
X75150Y-49187D01*
X75198Y-49163D01*
X75269Y-49163D01*
X75317Y-49187D01*
X75340Y-49211D01*
X75364Y-49258D01*
X75364Y-49449D01*
X75102Y-48854D02*
X75102Y-48758D01*
X75126Y-48711D01*
X75174Y-48663D01*
X75269Y-48639D01*
X75436Y-48639D01*
X75531Y-48663D01*
X75579Y-48711D01*
X75602Y-48758D01*
X75602Y-48854D01*
X75579Y-48901D01*
X75531Y-48949D01*
X75436Y-48973D01*
X75269Y-48973D01*
X75174Y-48949D01*
X75126Y-48901D01*
X75102Y-48854D01*
X75102Y-48473D02*
X75602Y-48354D01*
X75245Y-48258D01*
X75602Y-48163D01*
X75102Y-48044D01*
X75340Y-47854D02*
X75340Y-47687D01*
X75602Y-47616D02*
X75602Y-47854D01*
X75102Y-47854D01*
X75102Y-47616D01*
X75602Y-47116D02*
X75364Y-47283D01*
X75602Y-47402D02*
X75102Y-47402D01*
X75102Y-47211D01*
X75126Y-47164D01*
X75150Y-47140D01*
X75198Y-47116D01*
X75269Y-47116D01*
X75317Y-47140D01*
X75340Y-47164D01*
X75364Y-47211D01*
X75364Y-47402D01*
X74802Y-42219D02*
X74302Y-42219D01*
X74302Y-42028D01*
X74326Y-41981D01*
X74350Y-41957D01*
X74398Y-41933D01*
X74469Y-41933D01*
X74517Y-41957D01*
X74540Y-41981D01*
X74564Y-42028D01*
X74564Y-42219D01*
X74302Y-41767D02*
X74302Y-41457D01*
X74493Y-41624D01*
X74493Y-41552D01*
X74517Y-41505D01*
X74540Y-41481D01*
X74588Y-41457D01*
X74707Y-41457D01*
X74755Y-41481D01*
X74779Y-41505D01*
X74802Y-41552D01*
X74802Y-41695D01*
X74779Y-41743D01*
X74755Y-41767D01*
X75102Y-44066D02*
X75460Y-44066D01*
X75531Y-44090D01*
X75579Y-44138D01*
X75602Y-44209D01*
X75602Y-44257D01*
X75102Y-43899D02*
X75102Y-43614D01*
X75602Y-43757D02*
X75102Y-43757D01*
X75460Y-43471D02*
X75460Y-43233D01*
X75602Y-43518D02*
X75102Y-43352D01*
X75602Y-43185D01*
X75126Y-42756D02*
X75102Y-42804D01*
X75102Y-42875D01*
X75126Y-42947D01*
X75174Y-42994D01*
X75221Y-43018D01*
X75317Y-43042D01*
X75388Y-43042D01*
X75483Y-43018D01*
X75531Y-42994D01*
X75579Y-42947D01*
X75602Y-42875D01*
X75602Y-42827D01*
X75579Y-42756D01*
X75555Y-42732D01*
X75388Y-42732D01*
X75388Y-42827D01*
X75412Y-42518D02*
X75412Y-42137D01*
X75602Y-41899D02*
X75102Y-41899D01*
X75102Y-41708D01*
X75126Y-41661D01*
X75150Y-41637D01*
X75198Y-41613D01*
X75269Y-41613D01*
X75317Y-41637D01*
X75340Y-41661D01*
X75364Y-41708D01*
X75364Y-41899D01*
X75102Y-41304D02*
X75102Y-41208D01*
X75126Y-41161D01*
X75174Y-41113D01*
X75269Y-41089D01*
X75436Y-41089D01*
X75531Y-41113D01*
X75579Y-41161D01*
X75602Y-41208D01*
X75602Y-41304D01*
X75579Y-41351D01*
X75531Y-41399D01*
X75436Y-41423D01*
X75269Y-41423D01*
X75174Y-41399D01*
X75126Y-41351D01*
X75102Y-41304D01*
X75102Y-40923D02*
X75602Y-40804D01*
X75245Y-40708D01*
X75602Y-40613D01*
X75102Y-40494D01*
X75340Y-40304D02*
X75340Y-40137D01*
X75602Y-40066D02*
X75602Y-40304D01*
X75102Y-40304D01*
X75102Y-40066D01*
X75602Y-39566D02*
X75364Y-39733D01*
X75602Y-39852D02*
X75102Y-39852D01*
X75102Y-39661D01*
X75126Y-39614D01*
X75150Y-39590D01*
X75198Y-39566D01*
X75269Y-39566D01*
X75317Y-39590D01*
X75340Y-39614D01*
X75364Y-39661D01*
X75364Y-39852D01*
X60681Y-40102D02*
X60681Y-39602D01*
X60872Y-39602D01*
X60919Y-39626D01*
X60943Y-39650D01*
X60967Y-39698D01*
X60967Y-39769D01*
X60943Y-39817D01*
X60919Y-39840D01*
X60872Y-39864D01*
X60681Y-39864D01*
X61157Y-39650D02*
X61181Y-39626D01*
X61229Y-39602D01*
X61348Y-39602D01*
X61395Y-39626D01*
X61419Y-39650D01*
X61443Y-39698D01*
X61443Y-39745D01*
X61419Y-39817D01*
X61133Y-40102D01*
X61443Y-40102D01*
X55903Y-40055D02*
X55879Y-40079D01*
X55808Y-40102D01*
X55760Y-40102D01*
X55688Y-40079D01*
X55641Y-40031D01*
X55617Y-39983D01*
X55593Y-39888D01*
X55593Y-39817D01*
X55617Y-39721D01*
X55641Y-39674D01*
X55688Y-39626D01*
X55760Y-39602D01*
X55808Y-39602D01*
X55879Y-39626D01*
X55903Y-39650D01*
X56212Y-39602D02*
X56308Y-39602D01*
X56355Y-39626D01*
X56403Y-39674D01*
X56427Y-39769D01*
X56427Y-39936D01*
X56403Y-40031D01*
X56355Y-40079D01*
X56308Y-40102D01*
X56212Y-40102D01*
X56165Y-40079D01*
X56117Y-40031D01*
X56093Y-39936D01*
X56093Y-39769D01*
X56117Y-39674D01*
X56165Y-39626D01*
X56212Y-39602D01*
X56641Y-40102D02*
X56641Y-39602D01*
X56927Y-40102D01*
X56927Y-39602D01*
X57046Y-40150D02*
X57427Y-40150D01*
X57522Y-39650D02*
X57546Y-39626D01*
X57594Y-39602D01*
X57713Y-39602D01*
X57760Y-39626D01*
X57784Y-39650D01*
X57808Y-39698D01*
X57808Y-39745D01*
X57784Y-39817D01*
X57498Y-40102D01*
X57808Y-40102D01*
X60681Y-44152D02*
X60681Y-43652D01*
X60872Y-43652D01*
X60919Y-43676D01*
X60943Y-43700D01*
X60967Y-43748D01*
X60967Y-43819D01*
X60943Y-43867D01*
X60919Y-43890D01*
X60872Y-43914D01*
X60681Y-43914D01*
X61443Y-44152D02*
X61157Y-44152D01*
X61300Y-44152D02*
X61300Y-43652D01*
X61252Y-43724D01*
X61205Y-43771D01*
X61157Y-43795D01*
X55903Y-44255D02*
X55879Y-44279D01*
X55808Y-44302D01*
X55760Y-44302D01*
X55688Y-44279D01*
X55641Y-44231D01*
X55617Y-44183D01*
X55593Y-44088D01*
X55593Y-44017D01*
X55617Y-43921D01*
X55641Y-43874D01*
X55688Y-43826D01*
X55760Y-43802D01*
X55808Y-43802D01*
X55879Y-43826D01*
X55903Y-43850D01*
X56212Y-43802D02*
X56308Y-43802D01*
X56355Y-43826D01*
X56403Y-43874D01*
X56427Y-43969D01*
X56427Y-44136D01*
X56403Y-44231D01*
X56355Y-44279D01*
X56308Y-44302D01*
X56212Y-44302D01*
X56165Y-44279D01*
X56117Y-44231D01*
X56093Y-44136D01*
X56093Y-43969D01*
X56117Y-43874D01*
X56165Y-43826D01*
X56212Y-43802D01*
X56641Y-44302D02*
X56641Y-43802D01*
X56927Y-44302D01*
X56927Y-43802D01*
X57046Y-44350D02*
X57427Y-44350D01*
X57808Y-44302D02*
X57522Y-44302D01*
X57665Y-44302D02*
X57665Y-43802D01*
X57617Y-43874D01*
X57570Y-43921D01*
X57522Y-43945D01*
X74802Y-34669D02*
X74302Y-34669D01*
X74302Y-34478D01*
X74326Y-34431D01*
X74350Y-34407D01*
X74398Y-34383D01*
X74469Y-34383D01*
X74517Y-34407D01*
X74540Y-34431D01*
X74564Y-34478D01*
X74564Y-34669D01*
X74302Y-34217D02*
X74302Y-33907D01*
X74493Y-34074D01*
X74493Y-34002D01*
X74517Y-33955D01*
X74540Y-33931D01*
X74588Y-33907D01*
X74707Y-33907D01*
X74755Y-33931D01*
X74779Y-33955D01*
X74802Y-34002D01*
X74802Y-34145D01*
X74779Y-34193D01*
X74755Y-34217D01*
X75102Y-36516D02*
X75460Y-36516D01*
X75531Y-36540D01*
X75579Y-36588D01*
X75602Y-36659D01*
X75602Y-36707D01*
X75102Y-36349D02*
X75102Y-36064D01*
X75602Y-36207D02*
X75102Y-36207D01*
X75460Y-35921D02*
X75460Y-35683D01*
X75602Y-35968D02*
X75102Y-35802D01*
X75602Y-35635D01*
X75126Y-35206D02*
X75102Y-35254D01*
X75102Y-35325D01*
X75126Y-35397D01*
X75174Y-35444D01*
X75221Y-35468D01*
X75317Y-35492D01*
X75388Y-35492D01*
X75483Y-35468D01*
X75531Y-35444D01*
X75579Y-35397D01*
X75602Y-35325D01*
X75602Y-35277D01*
X75579Y-35206D01*
X75555Y-35182D01*
X75388Y-35182D01*
X75388Y-35277D01*
X75412Y-34968D02*
X75412Y-34587D01*
X75602Y-34349D02*
X75102Y-34349D01*
X75102Y-34158D01*
X75126Y-34111D01*
X75150Y-34087D01*
X75198Y-34063D01*
X75269Y-34063D01*
X75317Y-34087D01*
X75340Y-34111D01*
X75364Y-34158D01*
X75364Y-34349D01*
X75102Y-33754D02*
X75102Y-33658D01*
X75126Y-33611D01*
X75174Y-33563D01*
X75269Y-33539D01*
X75436Y-33539D01*
X75531Y-33563D01*
X75579Y-33611D01*
X75602Y-33658D01*
X75602Y-33754D01*
X75579Y-33801D01*
X75531Y-33849D01*
X75436Y-33873D01*
X75269Y-33873D01*
X75174Y-33849D01*
X75126Y-33801D01*
X75102Y-33754D01*
X75102Y-33373D02*
X75602Y-33254D01*
X75245Y-33158D01*
X75602Y-33063D01*
X75102Y-32944D01*
X75340Y-32754D02*
X75340Y-32587D01*
X75602Y-32516D02*
X75602Y-32754D01*
X75102Y-32754D01*
X75102Y-32516D01*
X75602Y-32016D02*
X75364Y-32183D01*
X75602Y-32302D02*
X75102Y-32302D01*
X75102Y-32111D01*
X75126Y-32064D01*
X75150Y-32040D01*
X75198Y-32016D01*
X75269Y-32016D01*
X75317Y-32040D01*
X75340Y-32064D01*
X75364Y-32111D01*
X75364Y-32302D01*
X60681Y-32552D02*
X60681Y-32052D01*
X60872Y-32052D01*
X60919Y-32076D01*
X60943Y-32100D01*
X60967Y-32148D01*
X60967Y-32219D01*
X60943Y-32267D01*
X60919Y-32290D01*
X60872Y-32314D01*
X60681Y-32314D01*
X61157Y-32100D02*
X61181Y-32076D01*
X61229Y-32052D01*
X61348Y-32052D01*
X61395Y-32076D01*
X61419Y-32100D01*
X61443Y-32148D01*
X61443Y-32195D01*
X61419Y-32267D01*
X61133Y-32552D01*
X61443Y-32552D01*
X55903Y-32505D02*
X55879Y-32529D01*
X55808Y-32552D01*
X55760Y-32552D01*
X55688Y-32529D01*
X55641Y-32481D01*
X55617Y-32433D01*
X55593Y-32338D01*
X55593Y-32267D01*
X55617Y-32171D01*
X55641Y-32124D01*
X55688Y-32076D01*
X55760Y-32052D01*
X55808Y-32052D01*
X55879Y-32076D01*
X55903Y-32100D01*
X56212Y-32052D02*
X56308Y-32052D01*
X56355Y-32076D01*
X56403Y-32124D01*
X56427Y-32219D01*
X56427Y-32386D01*
X56403Y-32481D01*
X56355Y-32529D01*
X56308Y-32552D01*
X56212Y-32552D01*
X56165Y-32529D01*
X56117Y-32481D01*
X56093Y-32386D01*
X56093Y-32219D01*
X56117Y-32124D01*
X56165Y-32076D01*
X56212Y-32052D01*
X56641Y-32552D02*
X56641Y-32052D01*
X56927Y-32552D01*
X56927Y-32052D01*
X57046Y-32600D02*
X57427Y-32600D01*
X57522Y-32100D02*
X57546Y-32076D01*
X57594Y-32052D01*
X57713Y-32052D01*
X57760Y-32076D01*
X57784Y-32100D01*
X57808Y-32148D01*
X57808Y-32195D01*
X57784Y-32267D01*
X57498Y-32552D01*
X57808Y-32552D01*
X60681Y-36602D02*
X60681Y-36102D01*
X60872Y-36102D01*
X60919Y-36126D01*
X60943Y-36150D01*
X60967Y-36198D01*
X60967Y-36269D01*
X60943Y-36317D01*
X60919Y-36340D01*
X60872Y-36364D01*
X60681Y-36364D01*
X61443Y-36602D02*
X61157Y-36602D01*
X61300Y-36602D02*
X61300Y-36102D01*
X61252Y-36174D01*
X61205Y-36221D01*
X61157Y-36245D01*
X55903Y-36705D02*
X55879Y-36729D01*
X55808Y-36752D01*
X55760Y-36752D01*
X55688Y-36729D01*
X55641Y-36681D01*
X55617Y-36633D01*
X55593Y-36538D01*
X55593Y-36467D01*
X55617Y-36371D01*
X55641Y-36324D01*
X55688Y-36276D01*
X55760Y-36252D01*
X55808Y-36252D01*
X55879Y-36276D01*
X55903Y-36300D01*
X56212Y-36252D02*
X56308Y-36252D01*
X56355Y-36276D01*
X56403Y-36324D01*
X56427Y-36419D01*
X56427Y-36586D01*
X56403Y-36681D01*
X56355Y-36729D01*
X56308Y-36752D01*
X56212Y-36752D01*
X56165Y-36729D01*
X56117Y-36681D01*
X56093Y-36586D01*
X56093Y-36419D01*
X56117Y-36324D01*
X56165Y-36276D01*
X56212Y-36252D01*
X56641Y-36752D02*
X56641Y-36252D01*
X56927Y-36752D01*
X56927Y-36252D01*
X57046Y-36800D02*
X57427Y-36800D01*
X57808Y-36752D02*
X57522Y-36752D01*
X57665Y-36752D02*
X57665Y-36252D01*
X57617Y-36324D01*
X57570Y-36371D01*
X57522Y-36395D01*
M02*
