G04 (created by PCBNEW-RS274X (2010-03-14)-final) date dom 30 oct 2011 23:58:25 ART*
G01*
G70*
G90*
%MOIN*%
G04 Gerber Fmt 3.4, Leading zero omitted, Abs format*
%FSLAX34Y34*%
G04 APERTURE LIST*
%ADD10C,0.000000*%
%ADD11C,0.015000*%
%ADD12C,0.010000*%
%ADD13C,0.012000*%
%ADD14C,0.008000*%
%ADD15C,0.005000*%
%ADD16C,0.002600*%
%ADD17C,0.004000*%
%ADD18C,0.002000*%
%ADD19C,0.006000*%
%ADD20C,0.006700*%
%ADD21C,0.004200*%
%ADD22C,0.003000*%
G04 APERTURE END LIST*
G54D10*
G54D11*
X79150Y-29750D02*
X79126Y-29992D01*
X79055Y-30226D01*
X78941Y-30441D01*
X78786Y-30630D01*
X78598Y-30786D01*
X78384Y-30902D01*
X78151Y-30974D01*
X77908Y-30999D01*
X77666Y-30977D01*
X77432Y-30908D01*
X77216Y-30795D01*
X77026Y-30643D01*
X76869Y-30456D01*
X76752Y-30242D01*
X76678Y-30009D01*
X76651Y-29767D01*
X76671Y-29525D01*
X76738Y-29290D01*
X76850Y-29073D01*
X77001Y-28882D01*
X77187Y-28724D01*
X77400Y-28605D01*
X77632Y-28530D01*
X77874Y-28501D01*
X78117Y-28519D01*
X78352Y-28585D01*
X78569Y-28695D01*
X78762Y-28845D01*
X78921Y-29030D01*
X79041Y-29242D01*
X79118Y-29474D01*
X79149Y-29716D01*
X79150Y-29750D01*
X75400Y-29750D02*
X80400Y-29750D01*
X77900Y-27250D02*
X77900Y-32250D01*
X79150Y-54150D02*
X79126Y-54392D01*
X79055Y-54626D01*
X78941Y-54841D01*
X78786Y-55030D01*
X78598Y-55186D01*
X78384Y-55302D01*
X78151Y-55374D01*
X77908Y-55399D01*
X77666Y-55377D01*
X77432Y-55308D01*
X77216Y-55195D01*
X77026Y-55043D01*
X76869Y-54856D01*
X76752Y-54642D01*
X76678Y-54409D01*
X76651Y-54167D01*
X76671Y-53925D01*
X76738Y-53690D01*
X76850Y-53473D01*
X77001Y-53282D01*
X77187Y-53124D01*
X77400Y-53005D01*
X77632Y-52930D01*
X77874Y-52901D01*
X78117Y-52919D01*
X78352Y-52985D01*
X78569Y-53095D01*
X78762Y-53245D01*
X78921Y-53430D01*
X79041Y-53642D01*
X79118Y-53874D01*
X79149Y-54116D01*
X79150Y-54150D01*
X75400Y-54150D02*
X80400Y-54150D01*
X77900Y-51650D02*
X77900Y-56650D01*
X55600Y-54200D02*
X55576Y-54442D01*
X55505Y-54676D01*
X55391Y-54891D01*
X55236Y-55080D01*
X55048Y-55236D01*
X54834Y-55352D01*
X54601Y-55424D01*
X54358Y-55449D01*
X54116Y-55427D01*
X53882Y-55358D01*
X53666Y-55245D01*
X53476Y-55093D01*
X53319Y-54906D01*
X53202Y-54692D01*
X53128Y-54459D01*
X53101Y-54217D01*
X53121Y-53975D01*
X53188Y-53740D01*
X53300Y-53523D01*
X53451Y-53332D01*
X53637Y-53174D01*
X53850Y-53055D01*
X54082Y-52980D01*
X54324Y-52951D01*
X54567Y-52969D01*
X54802Y-53035D01*
X55019Y-53145D01*
X55212Y-53295D01*
X55371Y-53480D01*
X55491Y-53692D01*
X55568Y-53924D01*
X55599Y-54166D01*
X55600Y-54200D01*
X51850Y-54200D02*
X56850Y-54200D01*
X54350Y-51700D02*
X54350Y-56700D01*
X55600Y-29750D02*
X55576Y-29992D01*
X55505Y-30226D01*
X55391Y-30441D01*
X55236Y-30630D01*
X55048Y-30786D01*
X54834Y-30902D01*
X54601Y-30974D01*
X54358Y-30999D01*
X54116Y-30977D01*
X53882Y-30908D01*
X53666Y-30795D01*
X53476Y-30643D01*
X53319Y-30456D01*
X53202Y-30242D01*
X53128Y-30009D01*
X53101Y-29767D01*
X53121Y-29525D01*
X53188Y-29290D01*
X53300Y-29073D01*
X53451Y-28882D01*
X53637Y-28724D01*
X53850Y-28605D01*
X54082Y-28530D01*
X54324Y-28501D01*
X54567Y-28519D01*
X54802Y-28585D01*
X55019Y-28695D01*
X55212Y-28845D01*
X55371Y-29030D01*
X55491Y-29242D01*
X55568Y-29474D01*
X55599Y-29716D01*
X55600Y-29750D01*
X51850Y-29750D02*
X56850Y-29750D01*
X54350Y-27250D02*
X54350Y-32250D01*
X76900Y-45850D02*
X76900Y-53150D01*
X76900Y-53150D02*
X55350Y-53150D01*
X55350Y-53150D02*
X55350Y-45850D01*
X55350Y-45850D02*
X76900Y-45850D01*
G54D12*
X60015Y-48498D02*
X59986Y-48536D01*
X59900Y-48574D01*
X59843Y-48574D01*
X59758Y-48536D01*
X59700Y-48460D01*
X59672Y-48383D01*
X59643Y-48231D01*
X59643Y-48117D01*
X59672Y-47964D01*
X59700Y-47888D01*
X59758Y-47812D01*
X59843Y-47774D01*
X59900Y-47774D01*
X59986Y-47812D01*
X60015Y-47850D01*
X60272Y-48574D02*
X60272Y-47774D01*
X60500Y-47774D01*
X60558Y-47812D01*
X60586Y-47850D01*
X60615Y-47926D01*
X60615Y-48040D01*
X60586Y-48117D01*
X60558Y-48155D01*
X60500Y-48193D01*
X60272Y-48193D01*
X61158Y-48574D02*
X60872Y-48574D01*
X60872Y-47774D01*
X61358Y-48574D02*
X61358Y-47774D01*
X61501Y-47774D01*
X61586Y-47812D01*
X61644Y-47888D01*
X61672Y-47964D01*
X61701Y-48117D01*
X61701Y-48231D01*
X61672Y-48383D01*
X61644Y-48460D01*
X61586Y-48536D01*
X61501Y-48574D01*
X61358Y-48574D01*
X61929Y-47850D02*
X61958Y-47812D01*
X62015Y-47774D01*
X62158Y-47774D01*
X62215Y-47812D01*
X62244Y-47850D01*
X62272Y-47926D01*
X62272Y-48002D01*
X62244Y-48117D01*
X61901Y-48574D01*
X62272Y-48574D01*
X62529Y-48574D02*
X62529Y-47774D01*
X62672Y-47774D01*
X62757Y-47812D01*
X62815Y-47888D01*
X62843Y-47964D01*
X62872Y-48117D01*
X62872Y-48231D01*
X62843Y-48383D01*
X62815Y-48460D01*
X62757Y-48536D01*
X62672Y-48574D01*
X62529Y-48574D01*
X63129Y-48574D02*
X63129Y-47774D01*
X63415Y-48574D02*
X63415Y-47774D01*
X63643Y-47774D01*
X63701Y-47812D01*
X63729Y-47850D01*
X63758Y-47926D01*
X63758Y-48040D01*
X63729Y-48117D01*
X63701Y-48155D01*
X63643Y-48193D01*
X63415Y-48193D01*
X60715Y-49738D02*
X60686Y-49776D01*
X60600Y-49814D01*
X60543Y-49814D01*
X60458Y-49776D01*
X60400Y-49700D01*
X60372Y-49623D01*
X60343Y-49471D01*
X60343Y-49357D01*
X60372Y-49204D01*
X60400Y-49128D01*
X60458Y-49052D01*
X60543Y-49014D01*
X60600Y-49014D01*
X60686Y-49052D01*
X60715Y-49090D01*
X60972Y-49014D02*
X60972Y-49661D01*
X61000Y-49738D01*
X61029Y-49776D01*
X61086Y-49814D01*
X61200Y-49814D01*
X61258Y-49776D01*
X61286Y-49738D01*
X61315Y-49661D01*
X61315Y-49014D01*
X61601Y-49814D02*
X61601Y-49014D01*
X61744Y-49014D01*
X61829Y-49052D01*
X61887Y-49128D01*
X61915Y-49204D01*
X61944Y-49357D01*
X61944Y-49471D01*
X61915Y-49623D01*
X61887Y-49700D01*
X61829Y-49776D01*
X61744Y-49814D01*
X61601Y-49814D01*
X62172Y-49585D02*
X62458Y-49585D01*
X62115Y-49814D02*
X62315Y-49014D01*
X62515Y-49814D01*
X63058Y-49814D02*
X62858Y-49433D01*
X62715Y-49814D02*
X62715Y-49014D01*
X62943Y-49014D01*
X63001Y-49052D01*
X63029Y-49090D01*
X63058Y-49166D01*
X63058Y-49280D01*
X63029Y-49357D01*
X63001Y-49395D01*
X62943Y-49433D01*
X62715Y-49433D01*
X60672Y-50330D02*
X60701Y-50292D01*
X60758Y-50254D01*
X60901Y-50254D01*
X60958Y-50292D01*
X60987Y-50330D01*
X61015Y-50406D01*
X61015Y-50482D01*
X60987Y-50597D01*
X60644Y-51054D01*
X61015Y-51054D01*
X61386Y-50254D02*
X61443Y-50254D01*
X61500Y-50292D01*
X61529Y-50330D01*
X61558Y-50406D01*
X61586Y-50559D01*
X61586Y-50749D01*
X61558Y-50901D01*
X61529Y-50978D01*
X61500Y-51016D01*
X61443Y-51054D01*
X61386Y-51054D01*
X61329Y-51016D01*
X61300Y-50978D01*
X61272Y-50901D01*
X61243Y-50749D01*
X61243Y-50559D01*
X61272Y-50406D01*
X61300Y-50330D01*
X61329Y-50292D01*
X61386Y-50254D01*
X62157Y-51054D02*
X61814Y-51054D01*
X61986Y-51054D02*
X61986Y-50254D01*
X61929Y-50368D01*
X61871Y-50444D01*
X61814Y-50482D01*
X62728Y-51054D02*
X62385Y-51054D01*
X62557Y-51054D02*
X62557Y-50254D01*
X62500Y-50368D01*
X62442Y-50444D01*
X62385Y-50482D01*
X60015Y-40948D02*
X59986Y-40986D01*
X59900Y-41024D01*
X59843Y-41024D01*
X59758Y-40986D01*
X59700Y-40910D01*
X59672Y-40833D01*
X59643Y-40681D01*
X59643Y-40567D01*
X59672Y-40414D01*
X59700Y-40338D01*
X59758Y-40262D01*
X59843Y-40224D01*
X59900Y-40224D01*
X59986Y-40262D01*
X60015Y-40300D01*
X60272Y-41024D02*
X60272Y-40224D01*
X60500Y-40224D01*
X60558Y-40262D01*
X60586Y-40300D01*
X60615Y-40376D01*
X60615Y-40490D01*
X60586Y-40567D01*
X60558Y-40605D01*
X60500Y-40643D01*
X60272Y-40643D01*
X61158Y-41024D02*
X60872Y-41024D01*
X60872Y-40224D01*
X61358Y-41024D02*
X61358Y-40224D01*
X61501Y-40224D01*
X61586Y-40262D01*
X61644Y-40338D01*
X61672Y-40414D01*
X61701Y-40567D01*
X61701Y-40681D01*
X61672Y-40833D01*
X61644Y-40910D01*
X61586Y-40986D01*
X61501Y-41024D01*
X61358Y-41024D01*
X61929Y-40300D02*
X61958Y-40262D01*
X62015Y-40224D01*
X62158Y-40224D01*
X62215Y-40262D01*
X62244Y-40300D01*
X62272Y-40376D01*
X62272Y-40452D01*
X62244Y-40567D01*
X61901Y-41024D01*
X62272Y-41024D01*
X62529Y-41024D02*
X62529Y-40224D01*
X62672Y-40224D01*
X62757Y-40262D01*
X62815Y-40338D01*
X62843Y-40414D01*
X62872Y-40567D01*
X62872Y-40681D01*
X62843Y-40833D01*
X62815Y-40910D01*
X62757Y-40986D01*
X62672Y-41024D01*
X62529Y-41024D01*
X63129Y-41024D02*
X63129Y-40224D01*
X63415Y-41024D02*
X63415Y-40224D01*
X63643Y-40224D01*
X63701Y-40262D01*
X63729Y-40300D01*
X63758Y-40376D01*
X63758Y-40490D01*
X63729Y-40567D01*
X63701Y-40605D01*
X63643Y-40643D01*
X63415Y-40643D01*
X60715Y-42188D02*
X60686Y-42226D01*
X60600Y-42264D01*
X60543Y-42264D01*
X60458Y-42226D01*
X60400Y-42150D01*
X60372Y-42073D01*
X60343Y-41921D01*
X60343Y-41807D01*
X60372Y-41654D01*
X60400Y-41578D01*
X60458Y-41502D01*
X60543Y-41464D01*
X60600Y-41464D01*
X60686Y-41502D01*
X60715Y-41540D01*
X60972Y-41464D02*
X60972Y-42111D01*
X61000Y-42188D01*
X61029Y-42226D01*
X61086Y-42264D01*
X61200Y-42264D01*
X61258Y-42226D01*
X61286Y-42188D01*
X61315Y-42111D01*
X61315Y-41464D01*
X61601Y-42264D02*
X61601Y-41464D01*
X61744Y-41464D01*
X61829Y-41502D01*
X61887Y-41578D01*
X61915Y-41654D01*
X61944Y-41807D01*
X61944Y-41921D01*
X61915Y-42073D01*
X61887Y-42150D01*
X61829Y-42226D01*
X61744Y-42264D01*
X61601Y-42264D01*
X62172Y-42035D02*
X62458Y-42035D01*
X62115Y-42264D02*
X62315Y-41464D01*
X62515Y-42264D01*
X63058Y-42264D02*
X62858Y-41883D01*
X62715Y-42264D02*
X62715Y-41464D01*
X62943Y-41464D01*
X63001Y-41502D01*
X63029Y-41540D01*
X63058Y-41616D01*
X63058Y-41730D01*
X63029Y-41807D01*
X63001Y-41845D01*
X62943Y-41883D01*
X62715Y-41883D01*
X60672Y-42780D02*
X60701Y-42742D01*
X60758Y-42704D01*
X60901Y-42704D01*
X60958Y-42742D01*
X60987Y-42780D01*
X61015Y-42856D01*
X61015Y-42932D01*
X60987Y-43047D01*
X60644Y-43504D01*
X61015Y-43504D01*
X61386Y-42704D02*
X61443Y-42704D01*
X61500Y-42742D01*
X61529Y-42780D01*
X61558Y-42856D01*
X61586Y-43009D01*
X61586Y-43199D01*
X61558Y-43351D01*
X61529Y-43428D01*
X61500Y-43466D01*
X61443Y-43504D01*
X61386Y-43504D01*
X61329Y-43466D01*
X61300Y-43428D01*
X61272Y-43351D01*
X61243Y-43199D01*
X61243Y-43009D01*
X61272Y-42856D01*
X61300Y-42780D01*
X61329Y-42742D01*
X61386Y-42704D01*
X62157Y-43504D02*
X61814Y-43504D01*
X61986Y-43504D02*
X61986Y-42704D01*
X61929Y-42818D01*
X61871Y-42894D01*
X61814Y-42932D01*
X62728Y-43504D02*
X62385Y-43504D01*
X62557Y-43504D02*
X62557Y-42704D01*
X62500Y-42818D01*
X62442Y-42894D01*
X62385Y-42932D01*
G54D11*
X55350Y-38300D02*
X76900Y-38300D01*
X55350Y-45600D02*
X55350Y-38300D01*
X76900Y-45600D02*
X55350Y-45600D01*
X76900Y-38300D02*
X76900Y-45600D01*
G54D12*
X60015Y-33398D02*
X59986Y-33436D01*
X59900Y-33474D01*
X59843Y-33474D01*
X59758Y-33436D01*
X59700Y-33360D01*
X59672Y-33283D01*
X59643Y-33131D01*
X59643Y-33017D01*
X59672Y-32864D01*
X59700Y-32788D01*
X59758Y-32712D01*
X59843Y-32674D01*
X59900Y-32674D01*
X59986Y-32712D01*
X60015Y-32750D01*
X60272Y-33474D02*
X60272Y-32674D01*
X60500Y-32674D01*
X60558Y-32712D01*
X60586Y-32750D01*
X60615Y-32826D01*
X60615Y-32940D01*
X60586Y-33017D01*
X60558Y-33055D01*
X60500Y-33093D01*
X60272Y-33093D01*
X61158Y-33474D02*
X60872Y-33474D01*
X60872Y-32674D01*
X61358Y-33474D02*
X61358Y-32674D01*
X61501Y-32674D01*
X61586Y-32712D01*
X61644Y-32788D01*
X61672Y-32864D01*
X61701Y-33017D01*
X61701Y-33131D01*
X61672Y-33283D01*
X61644Y-33360D01*
X61586Y-33436D01*
X61501Y-33474D01*
X61358Y-33474D01*
X61929Y-32750D02*
X61958Y-32712D01*
X62015Y-32674D01*
X62158Y-32674D01*
X62215Y-32712D01*
X62244Y-32750D01*
X62272Y-32826D01*
X62272Y-32902D01*
X62244Y-33017D01*
X61901Y-33474D01*
X62272Y-33474D01*
X62529Y-33474D02*
X62529Y-32674D01*
X62672Y-32674D01*
X62757Y-32712D01*
X62815Y-32788D01*
X62843Y-32864D01*
X62872Y-33017D01*
X62872Y-33131D01*
X62843Y-33283D01*
X62815Y-33360D01*
X62757Y-33436D01*
X62672Y-33474D01*
X62529Y-33474D01*
X63129Y-33474D02*
X63129Y-32674D01*
X63415Y-33474D02*
X63415Y-32674D01*
X63643Y-32674D01*
X63701Y-32712D01*
X63729Y-32750D01*
X63758Y-32826D01*
X63758Y-32940D01*
X63729Y-33017D01*
X63701Y-33055D01*
X63643Y-33093D01*
X63415Y-33093D01*
X60715Y-34638D02*
X60686Y-34676D01*
X60600Y-34714D01*
X60543Y-34714D01*
X60458Y-34676D01*
X60400Y-34600D01*
X60372Y-34523D01*
X60343Y-34371D01*
X60343Y-34257D01*
X60372Y-34104D01*
X60400Y-34028D01*
X60458Y-33952D01*
X60543Y-33914D01*
X60600Y-33914D01*
X60686Y-33952D01*
X60715Y-33990D01*
X60972Y-33914D02*
X60972Y-34561D01*
X61000Y-34638D01*
X61029Y-34676D01*
X61086Y-34714D01*
X61200Y-34714D01*
X61258Y-34676D01*
X61286Y-34638D01*
X61315Y-34561D01*
X61315Y-33914D01*
X61601Y-34714D02*
X61601Y-33914D01*
X61744Y-33914D01*
X61829Y-33952D01*
X61887Y-34028D01*
X61915Y-34104D01*
X61944Y-34257D01*
X61944Y-34371D01*
X61915Y-34523D01*
X61887Y-34600D01*
X61829Y-34676D01*
X61744Y-34714D01*
X61601Y-34714D01*
X62172Y-34485D02*
X62458Y-34485D01*
X62115Y-34714D02*
X62315Y-33914D01*
X62515Y-34714D01*
X63058Y-34714D02*
X62858Y-34333D01*
X62715Y-34714D02*
X62715Y-33914D01*
X62943Y-33914D01*
X63001Y-33952D01*
X63029Y-33990D01*
X63058Y-34066D01*
X63058Y-34180D01*
X63029Y-34257D01*
X63001Y-34295D01*
X62943Y-34333D01*
X62715Y-34333D01*
X60672Y-35230D02*
X60701Y-35192D01*
X60758Y-35154D01*
X60901Y-35154D01*
X60958Y-35192D01*
X60987Y-35230D01*
X61015Y-35306D01*
X61015Y-35382D01*
X60987Y-35497D01*
X60644Y-35954D01*
X61015Y-35954D01*
X61386Y-35154D02*
X61443Y-35154D01*
X61500Y-35192D01*
X61529Y-35230D01*
X61558Y-35306D01*
X61586Y-35459D01*
X61586Y-35649D01*
X61558Y-35801D01*
X61529Y-35878D01*
X61500Y-35916D01*
X61443Y-35954D01*
X61386Y-35954D01*
X61329Y-35916D01*
X61300Y-35878D01*
X61272Y-35801D01*
X61243Y-35649D01*
X61243Y-35459D01*
X61272Y-35306D01*
X61300Y-35230D01*
X61329Y-35192D01*
X61386Y-35154D01*
X62157Y-35954D02*
X61814Y-35954D01*
X61986Y-35954D02*
X61986Y-35154D01*
X61929Y-35268D01*
X61871Y-35344D01*
X61814Y-35382D01*
X62728Y-35954D02*
X62385Y-35954D01*
X62557Y-35954D02*
X62557Y-35154D01*
X62500Y-35268D01*
X62442Y-35344D01*
X62385Y-35382D01*
G54D11*
X55350Y-30750D02*
X76900Y-30750D01*
X55350Y-38050D02*
X55350Y-30750D01*
X76900Y-38050D02*
X55350Y-38050D01*
X76900Y-30750D02*
X76900Y-38050D01*
G54D13*
X65080Y-51470D02*
X65080Y-47530D01*
X65080Y-47530D02*
X69020Y-47530D01*
X69020Y-51280D02*
X69020Y-47530D01*
X68830Y-51470D02*
X65080Y-51470D01*
X69020Y-51280D02*
X68830Y-51470D01*
G54D14*
X68800Y-51000D02*
X68795Y-51048D01*
X68781Y-51095D01*
X68758Y-51138D01*
X68727Y-51176D01*
X68689Y-51207D01*
X68646Y-51230D01*
X68600Y-51244D01*
X68551Y-51249D01*
X68504Y-51245D01*
X68457Y-51231D01*
X68414Y-51209D01*
X68376Y-51178D01*
X68344Y-51141D01*
X68321Y-51098D01*
X68306Y-51051D01*
X68301Y-51003D01*
X68305Y-50955D01*
X68318Y-50908D01*
X68340Y-50865D01*
X68371Y-50827D01*
X68408Y-50795D01*
X68450Y-50771D01*
X68497Y-50756D01*
X68545Y-50751D01*
X68593Y-50754D01*
X68640Y-50767D01*
X68683Y-50789D01*
X68722Y-50819D01*
X68754Y-50856D01*
X68778Y-50899D01*
X68793Y-50945D01*
X68799Y-50994D01*
X68800Y-51000D01*
G54D15*
X57000Y-47400D02*
X57700Y-47400D01*
X57700Y-47400D02*
X57700Y-48600D01*
X57700Y-48600D02*
X57000Y-48600D01*
X57000Y-48600D02*
X57000Y-47400D01*
X58200Y-48450D02*
X58200Y-47550D01*
X58200Y-47550D02*
X58700Y-47550D01*
X58700Y-47550D02*
X58700Y-48450D01*
X58700Y-48450D02*
X58200Y-48450D01*
X56050Y-48450D02*
X56050Y-47550D01*
X56050Y-47550D02*
X56550Y-47550D01*
X56550Y-47550D02*
X56550Y-48450D01*
X56550Y-48450D02*
X56050Y-48450D01*
X57050Y-48850D02*
X57950Y-48850D01*
X57950Y-48850D02*
X57950Y-49350D01*
X57950Y-49350D02*
X57050Y-49350D01*
X57050Y-49350D02*
X57050Y-48850D01*
X57050Y-50150D02*
X57950Y-50150D01*
X57950Y-50150D02*
X57950Y-50650D01*
X57950Y-50650D02*
X57050Y-50650D01*
X57050Y-50650D02*
X57050Y-50150D01*
X57950Y-50050D02*
X57050Y-50050D01*
X57050Y-50050D02*
X57050Y-49550D01*
X57050Y-49550D02*
X57950Y-49550D01*
X57950Y-49550D02*
X57950Y-50050D01*
X56400Y-50550D02*
X56400Y-49650D01*
X56400Y-49650D02*
X56900Y-49650D01*
X56900Y-49650D02*
X56900Y-50550D01*
X56900Y-50550D02*
X56400Y-50550D01*
G54D16*
X58568Y-50504D02*
X58696Y-50504D01*
X58696Y-50504D02*
X58696Y-50307D01*
X58568Y-50307D02*
X58696Y-50307D01*
X58568Y-50504D02*
X58568Y-50307D01*
X58323Y-50504D02*
X58382Y-50504D01*
X58382Y-50504D02*
X58382Y-50405D01*
X58323Y-50405D02*
X58382Y-50405D01*
X58323Y-50504D02*
X58323Y-50405D01*
X58518Y-50504D02*
X58577Y-50504D01*
X58577Y-50504D02*
X58577Y-50405D01*
X58518Y-50405D02*
X58577Y-50405D01*
X58518Y-50504D02*
X58518Y-50405D01*
X58372Y-50504D02*
X58528Y-50504D01*
X58528Y-50504D02*
X58528Y-50435D01*
X58372Y-50435D02*
X58528Y-50435D01*
X58372Y-50504D02*
X58372Y-50435D01*
X58568Y-51093D02*
X58696Y-51093D01*
X58696Y-51093D02*
X58696Y-50896D01*
X58568Y-50896D02*
X58696Y-50896D01*
X58568Y-51093D02*
X58568Y-50896D01*
X58204Y-51093D02*
X58332Y-51093D01*
X58332Y-51093D02*
X58332Y-50896D01*
X58204Y-50896D02*
X58332Y-50896D01*
X58204Y-51093D02*
X58204Y-50896D01*
X58518Y-50995D02*
X58577Y-50995D01*
X58577Y-50995D02*
X58577Y-50896D01*
X58518Y-50896D02*
X58577Y-50896D01*
X58518Y-50995D02*
X58518Y-50896D01*
X58323Y-50995D02*
X58382Y-50995D01*
X58382Y-50995D02*
X58382Y-50896D01*
X58323Y-50896D02*
X58382Y-50896D01*
X58323Y-50995D02*
X58323Y-50896D01*
X58372Y-50965D02*
X58528Y-50965D01*
X58528Y-50965D02*
X58528Y-50896D01*
X58372Y-50896D02*
X58528Y-50896D01*
X58372Y-50965D02*
X58372Y-50896D01*
X58411Y-50700D02*
X58489Y-50700D01*
X58489Y-50700D02*
X58489Y-50622D01*
X58411Y-50622D02*
X58489Y-50622D01*
X58411Y-50700D02*
X58411Y-50622D01*
X58214Y-50504D02*
X58332Y-50504D01*
X58332Y-50504D02*
X58332Y-50386D01*
X58214Y-50386D02*
X58332Y-50386D01*
X58214Y-50504D02*
X58214Y-50386D01*
X58204Y-50336D02*
X58293Y-50336D01*
X58293Y-50336D02*
X58293Y-50307D01*
X58204Y-50307D02*
X58293Y-50307D01*
X58204Y-50336D02*
X58204Y-50307D01*
G54D17*
X58676Y-50494D02*
X58676Y-50906D01*
X58224Y-50896D02*
X58224Y-50336D01*
G54D18*
X58301Y-50366D02*
X58300Y-50371D01*
X58298Y-50376D01*
X58296Y-50381D01*
X58292Y-50385D01*
X58288Y-50389D01*
X58283Y-50391D01*
X58278Y-50393D01*
X58273Y-50393D01*
X58268Y-50393D01*
X58263Y-50391D01*
X58258Y-50389D01*
X58254Y-50386D01*
X58250Y-50381D01*
X58248Y-50377D01*
X58246Y-50371D01*
X58246Y-50366D01*
X58246Y-50361D01*
X58247Y-50356D01*
X58250Y-50351D01*
X58253Y-50347D01*
X58258Y-50344D01*
X58262Y-50341D01*
X58267Y-50339D01*
X58273Y-50339D01*
X58277Y-50339D01*
X58283Y-50340D01*
X58288Y-50343D01*
X58292Y-50346D01*
X58295Y-50350D01*
X58298Y-50355D01*
X58300Y-50360D01*
X58300Y-50366D01*
X58301Y-50366D01*
G54D17*
X58313Y-50307D02*
X58314Y-50318D01*
X58316Y-50330D01*
X58318Y-50342D01*
X58322Y-50353D01*
X58326Y-50364D01*
X58332Y-50375D01*
X58338Y-50385D01*
X58346Y-50395D01*
X58354Y-50403D01*
X58362Y-50411D01*
X58372Y-50419D01*
X58382Y-50425D01*
X58393Y-50431D01*
X58404Y-50435D01*
X58415Y-50439D01*
X58427Y-50441D01*
X58439Y-50443D01*
X58450Y-50444D01*
X58461Y-50443D01*
X58473Y-50441D01*
X58485Y-50439D01*
X58496Y-50435D01*
X58507Y-50431D01*
X58518Y-50425D01*
X58528Y-50419D01*
X58538Y-50411D01*
X58546Y-50403D01*
X58554Y-50395D01*
X58562Y-50385D01*
X58568Y-50375D01*
X58574Y-50364D01*
X58578Y-50353D01*
X58582Y-50342D01*
X58584Y-50330D01*
X58586Y-50318D01*
X58587Y-50307D01*
X58586Y-50296D01*
X58584Y-50284D01*
X58582Y-50272D01*
X58578Y-50261D01*
X58574Y-50250D01*
X58568Y-50239D01*
X58562Y-50229D01*
X58554Y-50219D01*
X58546Y-50211D01*
X58538Y-50203D01*
X58528Y-50195D01*
X58518Y-50189D01*
X58507Y-50183D01*
X58496Y-50179D01*
X58485Y-50175D01*
X58473Y-50173D01*
X58461Y-50171D01*
X58450Y-50170D01*
X58439Y-50171D01*
X58427Y-50173D01*
X58415Y-50175D01*
X58404Y-50179D01*
X58393Y-50183D01*
X58382Y-50189D01*
X58372Y-50195D01*
X58362Y-50203D01*
X58354Y-50211D01*
X58346Y-50219D01*
X58338Y-50229D01*
X58332Y-50239D01*
X58326Y-50250D01*
X58322Y-50261D01*
X58318Y-50272D01*
X58316Y-50284D01*
X58314Y-50296D01*
X58313Y-50307D01*
X58314Y-50318D01*
X58316Y-50330D01*
X58318Y-50342D01*
X58322Y-50353D01*
X58326Y-50364D01*
X58332Y-50375D01*
X58338Y-50385D01*
X58346Y-50395D01*
X58354Y-50403D01*
X58362Y-50411D01*
X58372Y-50419D01*
X58382Y-50425D01*
X58393Y-50431D01*
X58404Y-50435D01*
X58415Y-50439D01*
X58427Y-50441D01*
X58439Y-50443D01*
X58450Y-50444D01*
X58461Y-50443D01*
X58473Y-50441D01*
X58485Y-50439D01*
X58496Y-50435D01*
X58507Y-50431D01*
X58518Y-50425D01*
X58528Y-50419D01*
X58538Y-50411D01*
X58546Y-50403D01*
X58554Y-50395D01*
X58562Y-50385D01*
X58568Y-50375D01*
X58574Y-50364D01*
X58578Y-50353D01*
X58582Y-50342D01*
X58584Y-50330D01*
X58586Y-50318D01*
X58587Y-50307D01*
X58587Y-51093D02*
X58586Y-51082D01*
X58584Y-51070D01*
X58582Y-51058D01*
X58578Y-51047D01*
X58574Y-51036D01*
X58568Y-51025D01*
X58562Y-51015D01*
X58554Y-51005D01*
X58546Y-50997D01*
X58538Y-50989D01*
X58528Y-50981D01*
X58518Y-50975D01*
X58507Y-50969D01*
X58496Y-50965D01*
X58485Y-50961D01*
X58473Y-50959D01*
X58461Y-50957D01*
X58450Y-50956D01*
X58439Y-50957D01*
X58427Y-50959D01*
X58415Y-50961D01*
X58404Y-50965D01*
X58393Y-50969D01*
X58382Y-50975D01*
X58372Y-50981D01*
X58362Y-50989D01*
X58354Y-50997D01*
X58346Y-51005D01*
X58338Y-51015D01*
X58332Y-51025D01*
X58326Y-51036D01*
X58322Y-51047D01*
X58318Y-51058D01*
X58316Y-51070D01*
X58314Y-51082D01*
X58313Y-51093D01*
X58314Y-51104D01*
X58316Y-51116D01*
X58318Y-51128D01*
X58322Y-51139D01*
X58326Y-51150D01*
X58332Y-51161D01*
X58338Y-51171D01*
X58346Y-51181D01*
X58354Y-51189D01*
X58362Y-51197D01*
X58372Y-51205D01*
X58382Y-51211D01*
X58393Y-51217D01*
X58404Y-51221D01*
X58415Y-51225D01*
X58427Y-51227D01*
X58439Y-51229D01*
X58450Y-51230D01*
X58461Y-51229D01*
X58473Y-51227D01*
X58485Y-51225D01*
X58496Y-51221D01*
X58507Y-51217D01*
X58518Y-51211D01*
X58528Y-51205D01*
X58538Y-51197D01*
X58546Y-51189D01*
X58554Y-51181D01*
X58562Y-51171D01*
X58568Y-51161D01*
X58574Y-51150D01*
X58578Y-51139D01*
X58582Y-51128D01*
X58584Y-51116D01*
X58586Y-51104D01*
X58587Y-51093D01*
X58586Y-51082D01*
X58584Y-51070D01*
X58582Y-51058D01*
X58578Y-51047D01*
X58574Y-51036D01*
X58568Y-51025D01*
X58562Y-51015D01*
X58554Y-51005D01*
X58546Y-50997D01*
X58538Y-50989D01*
X58528Y-50981D01*
X58518Y-50975D01*
X58507Y-50969D01*
X58496Y-50965D01*
X58485Y-50961D01*
X58473Y-50959D01*
X58461Y-50957D01*
X58450Y-50956D01*
X58439Y-50957D01*
X58427Y-50959D01*
X58415Y-50961D01*
X58404Y-50965D01*
X58393Y-50969D01*
X58382Y-50975D01*
X58372Y-50981D01*
X58362Y-50989D01*
X58354Y-50997D01*
X58346Y-51005D01*
X58338Y-51015D01*
X58332Y-51025D01*
X58326Y-51036D01*
X58322Y-51047D01*
X58318Y-51058D01*
X58316Y-51070D01*
X58314Y-51082D01*
X58313Y-51093D01*
G54D14*
X73900Y-52600D02*
X74100Y-52600D01*
X74100Y-52600D02*
X74100Y-52400D01*
X73900Y-52400D02*
X74100Y-52400D01*
X73900Y-52600D02*
X73900Y-52400D01*
X72900Y-52600D02*
X73100Y-52600D01*
X73100Y-52600D02*
X73100Y-52400D01*
X72900Y-52400D02*
X73100Y-52400D01*
X72900Y-52600D02*
X72900Y-52400D01*
X71900Y-52600D02*
X72100Y-52600D01*
X72100Y-52600D02*
X72100Y-52400D01*
X71900Y-52400D02*
X72100Y-52400D01*
X71900Y-52600D02*
X71900Y-52400D01*
X70900Y-52600D02*
X71100Y-52600D01*
X71100Y-52600D02*
X71100Y-52400D01*
X70900Y-52400D02*
X71100Y-52400D01*
X70900Y-52600D02*
X70900Y-52400D01*
X69900Y-52600D02*
X70100Y-52600D01*
X70100Y-52600D02*
X70100Y-52400D01*
X69900Y-52400D02*
X70100Y-52400D01*
X69900Y-52600D02*
X69900Y-52400D01*
X68900Y-52600D02*
X69100Y-52600D01*
X69100Y-52600D02*
X69100Y-52400D01*
X68900Y-52400D02*
X69100Y-52400D01*
X68900Y-52600D02*
X68900Y-52400D01*
X67900Y-52600D02*
X68100Y-52600D01*
X68100Y-52600D02*
X68100Y-52400D01*
X67900Y-52400D02*
X68100Y-52400D01*
X67900Y-52600D02*
X67900Y-52400D01*
X66900Y-52600D02*
X67100Y-52600D01*
X67100Y-52600D02*
X67100Y-52400D01*
X66900Y-52400D02*
X67100Y-52400D01*
X66900Y-52600D02*
X66900Y-52400D01*
X65900Y-52600D02*
X66100Y-52600D01*
X66100Y-52600D02*
X66100Y-52400D01*
X65900Y-52400D02*
X66100Y-52400D01*
X65900Y-52600D02*
X65900Y-52400D01*
X64900Y-52600D02*
X65100Y-52600D01*
X65100Y-52600D02*
X65100Y-52400D01*
X64900Y-52400D02*
X65100Y-52400D01*
X64900Y-52600D02*
X64900Y-52400D01*
X63900Y-52600D02*
X64100Y-52600D01*
X64100Y-52600D02*
X64100Y-52400D01*
X63900Y-52400D02*
X64100Y-52400D01*
X63900Y-52600D02*
X63900Y-52400D01*
X62900Y-52600D02*
X63100Y-52600D01*
X63100Y-52600D02*
X63100Y-52400D01*
X62900Y-52400D02*
X63100Y-52400D01*
X62900Y-52600D02*
X62900Y-52400D01*
X61900Y-52600D02*
X62100Y-52600D01*
X62100Y-52600D02*
X62100Y-52400D01*
X61900Y-52400D02*
X62100Y-52400D01*
X61900Y-52600D02*
X61900Y-52400D01*
X60900Y-52600D02*
X61100Y-52600D01*
X61100Y-52600D02*
X61100Y-52400D01*
X60900Y-52400D02*
X61100Y-52400D01*
X60900Y-52600D02*
X60900Y-52400D01*
X59900Y-52600D02*
X60100Y-52600D01*
X60100Y-52600D02*
X60100Y-52400D01*
X59900Y-52400D02*
X60100Y-52400D01*
X59900Y-52600D02*
X59900Y-52400D01*
X58900Y-52600D02*
X59100Y-52600D01*
X59100Y-52600D02*
X59100Y-52400D01*
X58900Y-52400D02*
X59100Y-52400D01*
X58900Y-52600D02*
X58900Y-52400D01*
X57900Y-52600D02*
X58100Y-52600D01*
X58100Y-52600D02*
X58100Y-52400D01*
X57900Y-52400D02*
X58100Y-52400D01*
X57900Y-52600D02*
X57900Y-52400D01*
X56900Y-52600D02*
X57100Y-52600D01*
X57100Y-52600D02*
X57100Y-52400D01*
X56900Y-52400D02*
X57100Y-52400D01*
X56900Y-52600D02*
X56900Y-52400D01*
X55900Y-52600D02*
X56100Y-52600D01*
X56100Y-52600D02*
X56100Y-52400D01*
X55900Y-52400D02*
X56100Y-52400D01*
X55900Y-52600D02*
X55900Y-52400D01*
X74900Y-52600D02*
X75100Y-52600D01*
X75100Y-52600D02*
X75100Y-52400D01*
X74900Y-52400D02*
X75100Y-52400D01*
X74900Y-52600D02*
X74900Y-52400D01*
G54D19*
X73750Y-52000D02*
X74250Y-52000D01*
X74250Y-52000D02*
X74500Y-52250D01*
X74500Y-52250D02*
X74500Y-52750D01*
X74500Y-52750D02*
X74250Y-53000D01*
X72500Y-52250D02*
X72750Y-52000D01*
X72750Y-52000D02*
X73250Y-52000D01*
X73250Y-52000D02*
X73500Y-52250D01*
X73500Y-52250D02*
X73500Y-52750D01*
X73500Y-52750D02*
X73250Y-53000D01*
X73250Y-53000D02*
X72750Y-53000D01*
X72750Y-53000D02*
X72500Y-52750D01*
X73750Y-52000D02*
X73500Y-52250D01*
X73500Y-52750D02*
X73750Y-53000D01*
X74250Y-53000D02*
X73750Y-53000D01*
X70750Y-52000D02*
X71250Y-52000D01*
X71250Y-52000D02*
X71500Y-52250D01*
X71500Y-52250D02*
X71500Y-52750D01*
X71500Y-52750D02*
X71250Y-53000D01*
X71500Y-52250D02*
X71750Y-52000D01*
X71750Y-52000D02*
X72250Y-52000D01*
X72250Y-52000D02*
X72500Y-52250D01*
X72500Y-52250D02*
X72500Y-52750D01*
X72500Y-52750D02*
X72250Y-53000D01*
X72250Y-53000D02*
X71750Y-53000D01*
X71750Y-53000D02*
X71500Y-52750D01*
X69500Y-52250D02*
X69750Y-52000D01*
X69750Y-52000D02*
X70250Y-52000D01*
X70250Y-52000D02*
X70500Y-52250D01*
X70500Y-52250D02*
X70500Y-52750D01*
X70500Y-52750D02*
X70250Y-53000D01*
X70250Y-53000D02*
X69750Y-53000D01*
X69750Y-53000D02*
X69500Y-52750D01*
X70750Y-52000D02*
X70500Y-52250D01*
X70500Y-52750D02*
X70750Y-53000D01*
X71250Y-53000D02*
X70750Y-53000D01*
X67750Y-52000D02*
X68250Y-52000D01*
X68250Y-52000D02*
X68500Y-52250D01*
X68500Y-52250D02*
X68500Y-52750D01*
X68500Y-52750D02*
X68250Y-53000D01*
X68500Y-52250D02*
X68750Y-52000D01*
X68750Y-52000D02*
X69250Y-52000D01*
X69250Y-52000D02*
X69500Y-52250D01*
X69500Y-52250D02*
X69500Y-52750D01*
X69500Y-52750D02*
X69250Y-53000D01*
X69250Y-53000D02*
X68750Y-53000D01*
X68750Y-53000D02*
X68500Y-52750D01*
X66500Y-52250D02*
X66750Y-52000D01*
X66750Y-52000D02*
X67250Y-52000D01*
X67250Y-52000D02*
X67500Y-52250D01*
X67500Y-52250D02*
X67500Y-52750D01*
X67500Y-52750D02*
X67250Y-53000D01*
X67250Y-53000D02*
X66750Y-53000D01*
X66750Y-53000D02*
X66500Y-52750D01*
X67750Y-52000D02*
X67500Y-52250D01*
X67500Y-52750D02*
X67750Y-53000D01*
X68250Y-53000D02*
X67750Y-53000D01*
X64750Y-52000D02*
X65250Y-52000D01*
X65250Y-52000D02*
X65500Y-52250D01*
X65500Y-52250D02*
X65500Y-52750D01*
X65500Y-52750D02*
X65250Y-53000D01*
X65500Y-52250D02*
X65750Y-52000D01*
X65750Y-52000D02*
X66250Y-52000D01*
X66250Y-52000D02*
X66500Y-52250D01*
X66500Y-52250D02*
X66500Y-52750D01*
X66500Y-52750D02*
X66250Y-53000D01*
X66250Y-53000D02*
X65750Y-53000D01*
X65750Y-53000D02*
X65500Y-52750D01*
X63500Y-52250D02*
X63750Y-52000D01*
X63750Y-52000D02*
X64250Y-52000D01*
X64250Y-52000D02*
X64500Y-52250D01*
X64500Y-52250D02*
X64500Y-52750D01*
X64500Y-52750D02*
X64250Y-53000D01*
X64250Y-53000D02*
X63750Y-53000D01*
X63750Y-53000D02*
X63500Y-52750D01*
X64750Y-52000D02*
X64500Y-52250D01*
X64500Y-52750D02*
X64750Y-53000D01*
X65250Y-53000D02*
X64750Y-53000D01*
X61750Y-52000D02*
X62250Y-52000D01*
X62250Y-52000D02*
X62500Y-52250D01*
X62500Y-52250D02*
X62500Y-52750D01*
X62500Y-52750D02*
X62250Y-53000D01*
X62500Y-52250D02*
X62750Y-52000D01*
X62750Y-52000D02*
X63250Y-52000D01*
X63250Y-52000D02*
X63500Y-52250D01*
X63500Y-52250D02*
X63500Y-52750D01*
X63500Y-52750D02*
X63250Y-53000D01*
X63250Y-53000D02*
X62750Y-53000D01*
X62750Y-53000D02*
X62500Y-52750D01*
X60500Y-52250D02*
X60750Y-52000D01*
X60750Y-52000D02*
X61250Y-52000D01*
X61250Y-52000D02*
X61500Y-52250D01*
X61500Y-52250D02*
X61500Y-52750D01*
X61500Y-52750D02*
X61250Y-53000D01*
X61250Y-53000D02*
X60750Y-53000D01*
X60750Y-53000D02*
X60500Y-52750D01*
X61750Y-52000D02*
X61500Y-52250D01*
X61500Y-52750D02*
X61750Y-53000D01*
X62250Y-53000D02*
X61750Y-53000D01*
X58750Y-52000D02*
X59250Y-52000D01*
X59250Y-52000D02*
X59500Y-52250D01*
X59500Y-52250D02*
X59500Y-52750D01*
X59500Y-52750D02*
X59250Y-53000D01*
X59500Y-52250D02*
X59750Y-52000D01*
X59750Y-52000D02*
X60250Y-52000D01*
X60250Y-52000D02*
X60500Y-52250D01*
X60500Y-52250D02*
X60500Y-52750D01*
X60500Y-52750D02*
X60250Y-53000D01*
X60250Y-53000D02*
X59750Y-53000D01*
X59750Y-53000D02*
X59500Y-52750D01*
X57500Y-52250D02*
X57750Y-52000D01*
X57750Y-52000D02*
X58250Y-52000D01*
X58250Y-52000D02*
X58500Y-52250D01*
X58500Y-52250D02*
X58500Y-52750D01*
X58500Y-52750D02*
X58250Y-53000D01*
X58250Y-53000D02*
X57750Y-53000D01*
X57750Y-53000D02*
X57500Y-52750D01*
X58750Y-52000D02*
X58500Y-52250D01*
X58500Y-52750D02*
X58750Y-53000D01*
X59250Y-53000D02*
X58750Y-53000D01*
X55750Y-52000D02*
X56250Y-52000D01*
X56250Y-52000D02*
X56500Y-52250D01*
X56500Y-52250D02*
X56500Y-52750D01*
X56500Y-52750D02*
X56250Y-53000D01*
X56500Y-52250D02*
X56750Y-52000D01*
X56750Y-52000D02*
X57250Y-52000D01*
X57250Y-52000D02*
X57500Y-52250D01*
X57500Y-52250D02*
X57500Y-52750D01*
X57500Y-52750D02*
X57250Y-53000D01*
X57250Y-53000D02*
X56750Y-53000D01*
X56750Y-53000D02*
X56500Y-52750D01*
X55500Y-52250D02*
X55500Y-52750D01*
X55750Y-52000D02*
X55500Y-52250D01*
X55500Y-52750D02*
X55750Y-53000D01*
X56250Y-53000D02*
X55750Y-53000D01*
X74750Y-52000D02*
X75250Y-52000D01*
X75250Y-52000D02*
X75500Y-52250D01*
X75500Y-52250D02*
X75500Y-52750D01*
X75500Y-52750D02*
X75250Y-53000D01*
X74750Y-52000D02*
X74500Y-52250D01*
X74500Y-52750D02*
X74750Y-53000D01*
X75250Y-53000D02*
X74750Y-53000D01*
G54D14*
X73900Y-46600D02*
X74100Y-46600D01*
X74100Y-46600D02*
X74100Y-46400D01*
X73900Y-46400D02*
X74100Y-46400D01*
X73900Y-46600D02*
X73900Y-46400D01*
X72900Y-46600D02*
X73100Y-46600D01*
X73100Y-46600D02*
X73100Y-46400D01*
X72900Y-46400D02*
X73100Y-46400D01*
X72900Y-46600D02*
X72900Y-46400D01*
X71900Y-46600D02*
X72100Y-46600D01*
X72100Y-46600D02*
X72100Y-46400D01*
X71900Y-46400D02*
X72100Y-46400D01*
X71900Y-46600D02*
X71900Y-46400D01*
X70900Y-46600D02*
X71100Y-46600D01*
X71100Y-46600D02*
X71100Y-46400D01*
X70900Y-46400D02*
X71100Y-46400D01*
X70900Y-46600D02*
X70900Y-46400D01*
X69900Y-46600D02*
X70100Y-46600D01*
X70100Y-46600D02*
X70100Y-46400D01*
X69900Y-46400D02*
X70100Y-46400D01*
X69900Y-46600D02*
X69900Y-46400D01*
X68900Y-46600D02*
X69100Y-46600D01*
X69100Y-46600D02*
X69100Y-46400D01*
X68900Y-46400D02*
X69100Y-46400D01*
X68900Y-46600D02*
X68900Y-46400D01*
X67900Y-46600D02*
X68100Y-46600D01*
X68100Y-46600D02*
X68100Y-46400D01*
X67900Y-46400D02*
X68100Y-46400D01*
X67900Y-46600D02*
X67900Y-46400D01*
X66900Y-46600D02*
X67100Y-46600D01*
X67100Y-46600D02*
X67100Y-46400D01*
X66900Y-46400D02*
X67100Y-46400D01*
X66900Y-46600D02*
X66900Y-46400D01*
X65900Y-46600D02*
X66100Y-46600D01*
X66100Y-46600D02*
X66100Y-46400D01*
X65900Y-46400D02*
X66100Y-46400D01*
X65900Y-46600D02*
X65900Y-46400D01*
X64900Y-46600D02*
X65100Y-46600D01*
X65100Y-46600D02*
X65100Y-46400D01*
X64900Y-46400D02*
X65100Y-46400D01*
X64900Y-46600D02*
X64900Y-46400D01*
X63900Y-46600D02*
X64100Y-46600D01*
X64100Y-46600D02*
X64100Y-46400D01*
X63900Y-46400D02*
X64100Y-46400D01*
X63900Y-46600D02*
X63900Y-46400D01*
X62900Y-46600D02*
X63100Y-46600D01*
X63100Y-46600D02*
X63100Y-46400D01*
X62900Y-46400D02*
X63100Y-46400D01*
X62900Y-46600D02*
X62900Y-46400D01*
X61900Y-46600D02*
X62100Y-46600D01*
X62100Y-46600D02*
X62100Y-46400D01*
X61900Y-46400D02*
X62100Y-46400D01*
X61900Y-46600D02*
X61900Y-46400D01*
X60900Y-46600D02*
X61100Y-46600D01*
X61100Y-46600D02*
X61100Y-46400D01*
X60900Y-46400D02*
X61100Y-46400D01*
X60900Y-46600D02*
X60900Y-46400D01*
X59900Y-46600D02*
X60100Y-46600D01*
X60100Y-46600D02*
X60100Y-46400D01*
X59900Y-46400D02*
X60100Y-46400D01*
X59900Y-46600D02*
X59900Y-46400D01*
X58900Y-46600D02*
X59100Y-46600D01*
X59100Y-46600D02*
X59100Y-46400D01*
X58900Y-46400D02*
X59100Y-46400D01*
X58900Y-46600D02*
X58900Y-46400D01*
X57900Y-46600D02*
X58100Y-46600D01*
X58100Y-46600D02*
X58100Y-46400D01*
X57900Y-46400D02*
X58100Y-46400D01*
X57900Y-46600D02*
X57900Y-46400D01*
X56900Y-46600D02*
X57100Y-46600D01*
X57100Y-46600D02*
X57100Y-46400D01*
X56900Y-46400D02*
X57100Y-46400D01*
X56900Y-46600D02*
X56900Y-46400D01*
X55900Y-46600D02*
X56100Y-46600D01*
X56100Y-46600D02*
X56100Y-46400D01*
X55900Y-46400D02*
X56100Y-46400D01*
X55900Y-46600D02*
X55900Y-46400D01*
X74900Y-46600D02*
X75100Y-46600D01*
X75100Y-46600D02*
X75100Y-46400D01*
X74900Y-46400D02*
X75100Y-46400D01*
X74900Y-46600D02*
X74900Y-46400D01*
G54D19*
X73750Y-46000D02*
X74250Y-46000D01*
X74250Y-46000D02*
X74500Y-46250D01*
X74500Y-46250D02*
X74500Y-46750D01*
X74500Y-46750D02*
X74250Y-47000D01*
X72500Y-46250D02*
X72750Y-46000D01*
X72750Y-46000D02*
X73250Y-46000D01*
X73250Y-46000D02*
X73500Y-46250D01*
X73500Y-46250D02*
X73500Y-46750D01*
X73500Y-46750D02*
X73250Y-47000D01*
X73250Y-47000D02*
X72750Y-47000D01*
X72750Y-47000D02*
X72500Y-46750D01*
X73750Y-46000D02*
X73500Y-46250D01*
X73500Y-46750D02*
X73750Y-47000D01*
X74250Y-47000D02*
X73750Y-47000D01*
X70750Y-46000D02*
X71250Y-46000D01*
X71250Y-46000D02*
X71500Y-46250D01*
X71500Y-46250D02*
X71500Y-46750D01*
X71500Y-46750D02*
X71250Y-47000D01*
X71500Y-46250D02*
X71750Y-46000D01*
X71750Y-46000D02*
X72250Y-46000D01*
X72250Y-46000D02*
X72500Y-46250D01*
X72500Y-46250D02*
X72500Y-46750D01*
X72500Y-46750D02*
X72250Y-47000D01*
X72250Y-47000D02*
X71750Y-47000D01*
X71750Y-47000D02*
X71500Y-46750D01*
X69500Y-46250D02*
X69750Y-46000D01*
X69750Y-46000D02*
X70250Y-46000D01*
X70250Y-46000D02*
X70500Y-46250D01*
X70500Y-46250D02*
X70500Y-46750D01*
X70500Y-46750D02*
X70250Y-47000D01*
X70250Y-47000D02*
X69750Y-47000D01*
X69750Y-47000D02*
X69500Y-46750D01*
X70750Y-46000D02*
X70500Y-46250D01*
X70500Y-46750D02*
X70750Y-47000D01*
X71250Y-47000D02*
X70750Y-47000D01*
X67750Y-46000D02*
X68250Y-46000D01*
X68250Y-46000D02*
X68500Y-46250D01*
X68500Y-46250D02*
X68500Y-46750D01*
X68500Y-46750D02*
X68250Y-47000D01*
X68500Y-46250D02*
X68750Y-46000D01*
X68750Y-46000D02*
X69250Y-46000D01*
X69250Y-46000D02*
X69500Y-46250D01*
X69500Y-46250D02*
X69500Y-46750D01*
X69500Y-46750D02*
X69250Y-47000D01*
X69250Y-47000D02*
X68750Y-47000D01*
X68750Y-47000D02*
X68500Y-46750D01*
X66500Y-46250D02*
X66750Y-46000D01*
X66750Y-46000D02*
X67250Y-46000D01*
X67250Y-46000D02*
X67500Y-46250D01*
X67500Y-46250D02*
X67500Y-46750D01*
X67500Y-46750D02*
X67250Y-47000D01*
X67250Y-47000D02*
X66750Y-47000D01*
X66750Y-47000D02*
X66500Y-46750D01*
X67750Y-46000D02*
X67500Y-46250D01*
X67500Y-46750D02*
X67750Y-47000D01*
X68250Y-47000D02*
X67750Y-47000D01*
X64750Y-46000D02*
X65250Y-46000D01*
X65250Y-46000D02*
X65500Y-46250D01*
X65500Y-46250D02*
X65500Y-46750D01*
X65500Y-46750D02*
X65250Y-47000D01*
X65500Y-46250D02*
X65750Y-46000D01*
X65750Y-46000D02*
X66250Y-46000D01*
X66250Y-46000D02*
X66500Y-46250D01*
X66500Y-46250D02*
X66500Y-46750D01*
X66500Y-46750D02*
X66250Y-47000D01*
X66250Y-47000D02*
X65750Y-47000D01*
X65750Y-47000D02*
X65500Y-46750D01*
X63500Y-46250D02*
X63750Y-46000D01*
X63750Y-46000D02*
X64250Y-46000D01*
X64250Y-46000D02*
X64500Y-46250D01*
X64500Y-46250D02*
X64500Y-46750D01*
X64500Y-46750D02*
X64250Y-47000D01*
X64250Y-47000D02*
X63750Y-47000D01*
X63750Y-47000D02*
X63500Y-46750D01*
X64750Y-46000D02*
X64500Y-46250D01*
X64500Y-46750D02*
X64750Y-47000D01*
X65250Y-47000D02*
X64750Y-47000D01*
X61750Y-46000D02*
X62250Y-46000D01*
X62250Y-46000D02*
X62500Y-46250D01*
X62500Y-46250D02*
X62500Y-46750D01*
X62500Y-46750D02*
X62250Y-47000D01*
X62500Y-46250D02*
X62750Y-46000D01*
X62750Y-46000D02*
X63250Y-46000D01*
X63250Y-46000D02*
X63500Y-46250D01*
X63500Y-46250D02*
X63500Y-46750D01*
X63500Y-46750D02*
X63250Y-47000D01*
X63250Y-47000D02*
X62750Y-47000D01*
X62750Y-47000D02*
X62500Y-46750D01*
X60500Y-46250D02*
X60750Y-46000D01*
X60750Y-46000D02*
X61250Y-46000D01*
X61250Y-46000D02*
X61500Y-46250D01*
X61500Y-46250D02*
X61500Y-46750D01*
X61500Y-46750D02*
X61250Y-47000D01*
X61250Y-47000D02*
X60750Y-47000D01*
X60750Y-47000D02*
X60500Y-46750D01*
X61750Y-46000D02*
X61500Y-46250D01*
X61500Y-46750D02*
X61750Y-47000D01*
X62250Y-47000D02*
X61750Y-47000D01*
X58750Y-46000D02*
X59250Y-46000D01*
X59250Y-46000D02*
X59500Y-46250D01*
X59500Y-46250D02*
X59500Y-46750D01*
X59500Y-46750D02*
X59250Y-47000D01*
X59500Y-46250D02*
X59750Y-46000D01*
X59750Y-46000D02*
X60250Y-46000D01*
X60250Y-46000D02*
X60500Y-46250D01*
X60500Y-46250D02*
X60500Y-46750D01*
X60500Y-46750D02*
X60250Y-47000D01*
X60250Y-47000D02*
X59750Y-47000D01*
X59750Y-47000D02*
X59500Y-46750D01*
X57500Y-46250D02*
X57750Y-46000D01*
X57750Y-46000D02*
X58250Y-46000D01*
X58250Y-46000D02*
X58500Y-46250D01*
X58500Y-46250D02*
X58500Y-46750D01*
X58500Y-46750D02*
X58250Y-47000D01*
X58250Y-47000D02*
X57750Y-47000D01*
X57750Y-47000D02*
X57500Y-46750D01*
X58750Y-46000D02*
X58500Y-46250D01*
X58500Y-46750D02*
X58750Y-47000D01*
X59250Y-47000D02*
X58750Y-47000D01*
X55750Y-46000D02*
X56250Y-46000D01*
X56250Y-46000D02*
X56500Y-46250D01*
X56500Y-46250D02*
X56500Y-46750D01*
X56500Y-46750D02*
X56250Y-47000D01*
X56500Y-46250D02*
X56750Y-46000D01*
X56750Y-46000D02*
X57250Y-46000D01*
X57250Y-46000D02*
X57500Y-46250D01*
X57500Y-46250D02*
X57500Y-46750D01*
X57500Y-46750D02*
X57250Y-47000D01*
X57250Y-47000D02*
X56750Y-47000D01*
X56750Y-47000D02*
X56500Y-46750D01*
X55500Y-46250D02*
X55500Y-46750D01*
X55750Y-46000D02*
X55500Y-46250D01*
X55500Y-46750D02*
X55750Y-47000D01*
X56250Y-47000D02*
X55750Y-47000D01*
X74750Y-46000D02*
X75250Y-46000D01*
X75250Y-46000D02*
X75500Y-46250D01*
X75500Y-46250D02*
X75500Y-46750D01*
X75500Y-46750D02*
X75250Y-47000D01*
X74750Y-46000D02*
X74500Y-46250D01*
X74500Y-46750D02*
X74750Y-47000D01*
X75250Y-47000D02*
X74750Y-47000D01*
G54D14*
X76150Y-50900D02*
X76150Y-51100D01*
X76150Y-51100D02*
X76350Y-51100D01*
X76350Y-50900D02*
X76350Y-51100D01*
X76150Y-50900D02*
X76350Y-50900D01*
X76150Y-49900D02*
X76150Y-50100D01*
X76150Y-50100D02*
X76350Y-50100D01*
X76350Y-49900D02*
X76350Y-50100D01*
X76150Y-49900D02*
X76350Y-49900D01*
X76150Y-48900D02*
X76150Y-49100D01*
X76150Y-49100D02*
X76350Y-49100D01*
X76350Y-48900D02*
X76350Y-49100D01*
X76150Y-48900D02*
X76350Y-48900D01*
X76150Y-47900D02*
X76150Y-48100D01*
X76150Y-48100D02*
X76350Y-48100D01*
X76350Y-47900D02*
X76350Y-48100D01*
X76150Y-47900D02*
X76350Y-47900D01*
X76150Y-46900D02*
X76150Y-47100D01*
X76150Y-47100D02*
X76350Y-47100D01*
X76350Y-46900D02*
X76350Y-47100D01*
X76150Y-46900D02*
X76350Y-46900D01*
X76150Y-51900D02*
X76150Y-52100D01*
X76150Y-52100D02*
X76350Y-52100D01*
X76350Y-51900D02*
X76350Y-52100D01*
X76150Y-51900D02*
X76350Y-51900D01*
G54D19*
X76750Y-49750D02*
X76750Y-50250D01*
X76750Y-50250D02*
X76500Y-50500D01*
X76500Y-50500D02*
X76000Y-50500D01*
X76000Y-50500D02*
X75750Y-50250D01*
X76500Y-50500D02*
X76750Y-50750D01*
X76750Y-50750D02*
X76750Y-51250D01*
X76750Y-51250D02*
X76500Y-51500D01*
X76500Y-51500D02*
X76000Y-51500D01*
X76000Y-51500D02*
X75750Y-51250D01*
X75750Y-51250D02*
X75750Y-50750D01*
X75750Y-50750D02*
X76000Y-50500D01*
X76500Y-48500D02*
X76750Y-48750D01*
X76750Y-48750D02*
X76750Y-49250D01*
X76750Y-49250D02*
X76500Y-49500D01*
X76500Y-49500D02*
X76000Y-49500D01*
X76000Y-49500D02*
X75750Y-49250D01*
X75750Y-49250D02*
X75750Y-48750D01*
X75750Y-48750D02*
X76000Y-48500D01*
X76750Y-49750D02*
X76500Y-49500D01*
X76000Y-49500D02*
X75750Y-49750D01*
X75750Y-50250D02*
X75750Y-49750D01*
X76750Y-46750D02*
X76750Y-47250D01*
X76750Y-47250D02*
X76500Y-47500D01*
X76500Y-47500D02*
X76000Y-47500D01*
X76000Y-47500D02*
X75750Y-47250D01*
X76500Y-47500D02*
X76750Y-47750D01*
X76750Y-47750D02*
X76750Y-48250D01*
X76750Y-48250D02*
X76500Y-48500D01*
X76500Y-48500D02*
X76000Y-48500D01*
X76000Y-48500D02*
X75750Y-48250D01*
X75750Y-48250D02*
X75750Y-47750D01*
X75750Y-47750D02*
X76000Y-47500D01*
X76500Y-46500D02*
X76000Y-46500D01*
X76750Y-46750D02*
X76500Y-46500D01*
X76000Y-46500D02*
X75750Y-46750D01*
X75750Y-47250D02*
X75750Y-46750D01*
X76750Y-51750D02*
X76750Y-52250D01*
X76750Y-52250D02*
X76500Y-52500D01*
X76500Y-52500D02*
X76000Y-52500D01*
X76000Y-52500D02*
X75750Y-52250D01*
X76750Y-51750D02*
X76500Y-51500D01*
X76000Y-51500D02*
X75750Y-51750D01*
X75750Y-52250D02*
X75750Y-51750D01*
G54D14*
X76150Y-43350D02*
X76150Y-43550D01*
X76150Y-43550D02*
X76350Y-43550D01*
X76350Y-43350D02*
X76350Y-43550D01*
X76150Y-43350D02*
X76350Y-43350D01*
X76150Y-42350D02*
X76150Y-42550D01*
X76150Y-42550D02*
X76350Y-42550D01*
X76350Y-42350D02*
X76350Y-42550D01*
X76150Y-42350D02*
X76350Y-42350D01*
X76150Y-41350D02*
X76150Y-41550D01*
X76150Y-41550D02*
X76350Y-41550D01*
X76350Y-41350D02*
X76350Y-41550D01*
X76150Y-41350D02*
X76350Y-41350D01*
X76150Y-40350D02*
X76150Y-40550D01*
X76150Y-40550D02*
X76350Y-40550D01*
X76350Y-40350D02*
X76350Y-40550D01*
X76150Y-40350D02*
X76350Y-40350D01*
X76150Y-39350D02*
X76150Y-39550D01*
X76150Y-39550D02*
X76350Y-39550D01*
X76350Y-39350D02*
X76350Y-39550D01*
X76150Y-39350D02*
X76350Y-39350D01*
X76150Y-44350D02*
X76150Y-44550D01*
X76150Y-44550D02*
X76350Y-44550D01*
X76350Y-44350D02*
X76350Y-44550D01*
X76150Y-44350D02*
X76350Y-44350D01*
G54D19*
X76750Y-42200D02*
X76750Y-42700D01*
X76750Y-42700D02*
X76500Y-42950D01*
X76500Y-42950D02*
X76000Y-42950D01*
X76000Y-42950D02*
X75750Y-42700D01*
X76500Y-42950D02*
X76750Y-43200D01*
X76750Y-43200D02*
X76750Y-43700D01*
X76750Y-43700D02*
X76500Y-43950D01*
X76500Y-43950D02*
X76000Y-43950D01*
X76000Y-43950D02*
X75750Y-43700D01*
X75750Y-43700D02*
X75750Y-43200D01*
X75750Y-43200D02*
X76000Y-42950D01*
X76500Y-40950D02*
X76750Y-41200D01*
X76750Y-41200D02*
X76750Y-41700D01*
X76750Y-41700D02*
X76500Y-41950D01*
X76500Y-41950D02*
X76000Y-41950D01*
X76000Y-41950D02*
X75750Y-41700D01*
X75750Y-41700D02*
X75750Y-41200D01*
X75750Y-41200D02*
X76000Y-40950D01*
X76750Y-42200D02*
X76500Y-41950D01*
X76000Y-41950D02*
X75750Y-42200D01*
X75750Y-42700D02*
X75750Y-42200D01*
X76750Y-39200D02*
X76750Y-39700D01*
X76750Y-39700D02*
X76500Y-39950D01*
X76500Y-39950D02*
X76000Y-39950D01*
X76000Y-39950D02*
X75750Y-39700D01*
X76500Y-39950D02*
X76750Y-40200D01*
X76750Y-40200D02*
X76750Y-40700D01*
X76750Y-40700D02*
X76500Y-40950D01*
X76500Y-40950D02*
X76000Y-40950D01*
X76000Y-40950D02*
X75750Y-40700D01*
X75750Y-40700D02*
X75750Y-40200D01*
X75750Y-40200D02*
X76000Y-39950D01*
X76500Y-38950D02*
X76000Y-38950D01*
X76750Y-39200D02*
X76500Y-38950D01*
X76000Y-38950D02*
X75750Y-39200D01*
X75750Y-39700D02*
X75750Y-39200D01*
X76750Y-44200D02*
X76750Y-44700D01*
X76750Y-44700D02*
X76500Y-44950D01*
X76500Y-44950D02*
X76000Y-44950D01*
X76000Y-44950D02*
X75750Y-44700D01*
X76750Y-44200D02*
X76500Y-43950D01*
X76000Y-43950D02*
X75750Y-44200D01*
X75750Y-44700D02*
X75750Y-44200D01*
G54D14*
X73900Y-39050D02*
X74100Y-39050D01*
X74100Y-39050D02*
X74100Y-38850D01*
X73900Y-38850D02*
X74100Y-38850D01*
X73900Y-39050D02*
X73900Y-38850D01*
X72900Y-39050D02*
X73100Y-39050D01*
X73100Y-39050D02*
X73100Y-38850D01*
X72900Y-38850D02*
X73100Y-38850D01*
X72900Y-39050D02*
X72900Y-38850D01*
X71900Y-39050D02*
X72100Y-39050D01*
X72100Y-39050D02*
X72100Y-38850D01*
X71900Y-38850D02*
X72100Y-38850D01*
X71900Y-39050D02*
X71900Y-38850D01*
X70900Y-39050D02*
X71100Y-39050D01*
X71100Y-39050D02*
X71100Y-38850D01*
X70900Y-38850D02*
X71100Y-38850D01*
X70900Y-39050D02*
X70900Y-38850D01*
X69900Y-39050D02*
X70100Y-39050D01*
X70100Y-39050D02*
X70100Y-38850D01*
X69900Y-38850D02*
X70100Y-38850D01*
X69900Y-39050D02*
X69900Y-38850D01*
X68900Y-39050D02*
X69100Y-39050D01*
X69100Y-39050D02*
X69100Y-38850D01*
X68900Y-38850D02*
X69100Y-38850D01*
X68900Y-39050D02*
X68900Y-38850D01*
X67900Y-39050D02*
X68100Y-39050D01*
X68100Y-39050D02*
X68100Y-38850D01*
X67900Y-38850D02*
X68100Y-38850D01*
X67900Y-39050D02*
X67900Y-38850D01*
X66900Y-39050D02*
X67100Y-39050D01*
X67100Y-39050D02*
X67100Y-38850D01*
X66900Y-38850D02*
X67100Y-38850D01*
X66900Y-39050D02*
X66900Y-38850D01*
X65900Y-39050D02*
X66100Y-39050D01*
X66100Y-39050D02*
X66100Y-38850D01*
X65900Y-38850D02*
X66100Y-38850D01*
X65900Y-39050D02*
X65900Y-38850D01*
X64900Y-39050D02*
X65100Y-39050D01*
X65100Y-39050D02*
X65100Y-38850D01*
X64900Y-38850D02*
X65100Y-38850D01*
X64900Y-39050D02*
X64900Y-38850D01*
X63900Y-39050D02*
X64100Y-39050D01*
X64100Y-39050D02*
X64100Y-38850D01*
X63900Y-38850D02*
X64100Y-38850D01*
X63900Y-39050D02*
X63900Y-38850D01*
X62900Y-39050D02*
X63100Y-39050D01*
X63100Y-39050D02*
X63100Y-38850D01*
X62900Y-38850D02*
X63100Y-38850D01*
X62900Y-39050D02*
X62900Y-38850D01*
X61900Y-39050D02*
X62100Y-39050D01*
X62100Y-39050D02*
X62100Y-38850D01*
X61900Y-38850D02*
X62100Y-38850D01*
X61900Y-39050D02*
X61900Y-38850D01*
X60900Y-39050D02*
X61100Y-39050D01*
X61100Y-39050D02*
X61100Y-38850D01*
X60900Y-38850D02*
X61100Y-38850D01*
X60900Y-39050D02*
X60900Y-38850D01*
X59900Y-39050D02*
X60100Y-39050D01*
X60100Y-39050D02*
X60100Y-38850D01*
X59900Y-38850D02*
X60100Y-38850D01*
X59900Y-39050D02*
X59900Y-38850D01*
X58900Y-39050D02*
X59100Y-39050D01*
X59100Y-39050D02*
X59100Y-38850D01*
X58900Y-38850D02*
X59100Y-38850D01*
X58900Y-39050D02*
X58900Y-38850D01*
X57900Y-39050D02*
X58100Y-39050D01*
X58100Y-39050D02*
X58100Y-38850D01*
X57900Y-38850D02*
X58100Y-38850D01*
X57900Y-39050D02*
X57900Y-38850D01*
X56900Y-39050D02*
X57100Y-39050D01*
X57100Y-39050D02*
X57100Y-38850D01*
X56900Y-38850D02*
X57100Y-38850D01*
X56900Y-39050D02*
X56900Y-38850D01*
X55900Y-39050D02*
X56100Y-39050D01*
X56100Y-39050D02*
X56100Y-38850D01*
X55900Y-38850D02*
X56100Y-38850D01*
X55900Y-39050D02*
X55900Y-38850D01*
X74900Y-39050D02*
X75100Y-39050D01*
X75100Y-39050D02*
X75100Y-38850D01*
X74900Y-38850D02*
X75100Y-38850D01*
X74900Y-39050D02*
X74900Y-38850D01*
G54D19*
X73750Y-38450D02*
X74250Y-38450D01*
X74250Y-38450D02*
X74500Y-38700D01*
X74500Y-38700D02*
X74500Y-39200D01*
X74500Y-39200D02*
X74250Y-39450D01*
X72500Y-38700D02*
X72750Y-38450D01*
X72750Y-38450D02*
X73250Y-38450D01*
X73250Y-38450D02*
X73500Y-38700D01*
X73500Y-38700D02*
X73500Y-39200D01*
X73500Y-39200D02*
X73250Y-39450D01*
X73250Y-39450D02*
X72750Y-39450D01*
X72750Y-39450D02*
X72500Y-39200D01*
X73750Y-38450D02*
X73500Y-38700D01*
X73500Y-39200D02*
X73750Y-39450D01*
X74250Y-39450D02*
X73750Y-39450D01*
X70750Y-38450D02*
X71250Y-38450D01*
X71250Y-38450D02*
X71500Y-38700D01*
X71500Y-38700D02*
X71500Y-39200D01*
X71500Y-39200D02*
X71250Y-39450D01*
X71500Y-38700D02*
X71750Y-38450D01*
X71750Y-38450D02*
X72250Y-38450D01*
X72250Y-38450D02*
X72500Y-38700D01*
X72500Y-38700D02*
X72500Y-39200D01*
X72500Y-39200D02*
X72250Y-39450D01*
X72250Y-39450D02*
X71750Y-39450D01*
X71750Y-39450D02*
X71500Y-39200D01*
X69500Y-38700D02*
X69750Y-38450D01*
X69750Y-38450D02*
X70250Y-38450D01*
X70250Y-38450D02*
X70500Y-38700D01*
X70500Y-38700D02*
X70500Y-39200D01*
X70500Y-39200D02*
X70250Y-39450D01*
X70250Y-39450D02*
X69750Y-39450D01*
X69750Y-39450D02*
X69500Y-39200D01*
X70750Y-38450D02*
X70500Y-38700D01*
X70500Y-39200D02*
X70750Y-39450D01*
X71250Y-39450D02*
X70750Y-39450D01*
X67750Y-38450D02*
X68250Y-38450D01*
X68250Y-38450D02*
X68500Y-38700D01*
X68500Y-38700D02*
X68500Y-39200D01*
X68500Y-39200D02*
X68250Y-39450D01*
X68500Y-38700D02*
X68750Y-38450D01*
X68750Y-38450D02*
X69250Y-38450D01*
X69250Y-38450D02*
X69500Y-38700D01*
X69500Y-38700D02*
X69500Y-39200D01*
X69500Y-39200D02*
X69250Y-39450D01*
X69250Y-39450D02*
X68750Y-39450D01*
X68750Y-39450D02*
X68500Y-39200D01*
X66500Y-38700D02*
X66750Y-38450D01*
X66750Y-38450D02*
X67250Y-38450D01*
X67250Y-38450D02*
X67500Y-38700D01*
X67500Y-38700D02*
X67500Y-39200D01*
X67500Y-39200D02*
X67250Y-39450D01*
X67250Y-39450D02*
X66750Y-39450D01*
X66750Y-39450D02*
X66500Y-39200D01*
X67750Y-38450D02*
X67500Y-38700D01*
X67500Y-39200D02*
X67750Y-39450D01*
X68250Y-39450D02*
X67750Y-39450D01*
X64750Y-38450D02*
X65250Y-38450D01*
X65250Y-38450D02*
X65500Y-38700D01*
X65500Y-38700D02*
X65500Y-39200D01*
X65500Y-39200D02*
X65250Y-39450D01*
X65500Y-38700D02*
X65750Y-38450D01*
X65750Y-38450D02*
X66250Y-38450D01*
X66250Y-38450D02*
X66500Y-38700D01*
X66500Y-38700D02*
X66500Y-39200D01*
X66500Y-39200D02*
X66250Y-39450D01*
X66250Y-39450D02*
X65750Y-39450D01*
X65750Y-39450D02*
X65500Y-39200D01*
X63500Y-38700D02*
X63750Y-38450D01*
X63750Y-38450D02*
X64250Y-38450D01*
X64250Y-38450D02*
X64500Y-38700D01*
X64500Y-38700D02*
X64500Y-39200D01*
X64500Y-39200D02*
X64250Y-39450D01*
X64250Y-39450D02*
X63750Y-39450D01*
X63750Y-39450D02*
X63500Y-39200D01*
X64750Y-38450D02*
X64500Y-38700D01*
X64500Y-39200D02*
X64750Y-39450D01*
X65250Y-39450D02*
X64750Y-39450D01*
X61750Y-38450D02*
X62250Y-38450D01*
X62250Y-38450D02*
X62500Y-38700D01*
X62500Y-38700D02*
X62500Y-39200D01*
X62500Y-39200D02*
X62250Y-39450D01*
X62500Y-38700D02*
X62750Y-38450D01*
X62750Y-38450D02*
X63250Y-38450D01*
X63250Y-38450D02*
X63500Y-38700D01*
X63500Y-38700D02*
X63500Y-39200D01*
X63500Y-39200D02*
X63250Y-39450D01*
X63250Y-39450D02*
X62750Y-39450D01*
X62750Y-39450D02*
X62500Y-39200D01*
X60500Y-38700D02*
X60750Y-38450D01*
X60750Y-38450D02*
X61250Y-38450D01*
X61250Y-38450D02*
X61500Y-38700D01*
X61500Y-38700D02*
X61500Y-39200D01*
X61500Y-39200D02*
X61250Y-39450D01*
X61250Y-39450D02*
X60750Y-39450D01*
X60750Y-39450D02*
X60500Y-39200D01*
X61750Y-38450D02*
X61500Y-38700D01*
X61500Y-39200D02*
X61750Y-39450D01*
X62250Y-39450D02*
X61750Y-39450D01*
X58750Y-38450D02*
X59250Y-38450D01*
X59250Y-38450D02*
X59500Y-38700D01*
X59500Y-38700D02*
X59500Y-39200D01*
X59500Y-39200D02*
X59250Y-39450D01*
X59500Y-38700D02*
X59750Y-38450D01*
X59750Y-38450D02*
X60250Y-38450D01*
X60250Y-38450D02*
X60500Y-38700D01*
X60500Y-38700D02*
X60500Y-39200D01*
X60500Y-39200D02*
X60250Y-39450D01*
X60250Y-39450D02*
X59750Y-39450D01*
X59750Y-39450D02*
X59500Y-39200D01*
X57500Y-38700D02*
X57750Y-38450D01*
X57750Y-38450D02*
X58250Y-38450D01*
X58250Y-38450D02*
X58500Y-38700D01*
X58500Y-38700D02*
X58500Y-39200D01*
X58500Y-39200D02*
X58250Y-39450D01*
X58250Y-39450D02*
X57750Y-39450D01*
X57750Y-39450D02*
X57500Y-39200D01*
X58750Y-38450D02*
X58500Y-38700D01*
X58500Y-39200D02*
X58750Y-39450D01*
X59250Y-39450D02*
X58750Y-39450D01*
X55750Y-38450D02*
X56250Y-38450D01*
X56250Y-38450D02*
X56500Y-38700D01*
X56500Y-38700D02*
X56500Y-39200D01*
X56500Y-39200D02*
X56250Y-39450D01*
X56500Y-38700D02*
X56750Y-38450D01*
X56750Y-38450D02*
X57250Y-38450D01*
X57250Y-38450D02*
X57500Y-38700D01*
X57500Y-38700D02*
X57500Y-39200D01*
X57500Y-39200D02*
X57250Y-39450D01*
X57250Y-39450D02*
X56750Y-39450D01*
X56750Y-39450D02*
X56500Y-39200D01*
X55500Y-38700D02*
X55500Y-39200D01*
X55750Y-38450D02*
X55500Y-38700D01*
X55500Y-39200D02*
X55750Y-39450D01*
X56250Y-39450D02*
X55750Y-39450D01*
X74750Y-38450D02*
X75250Y-38450D01*
X75250Y-38450D02*
X75500Y-38700D01*
X75500Y-38700D02*
X75500Y-39200D01*
X75500Y-39200D02*
X75250Y-39450D01*
X74750Y-38450D02*
X74500Y-38700D01*
X74500Y-39200D02*
X74750Y-39450D01*
X75250Y-39450D02*
X74750Y-39450D01*
G54D14*
X73900Y-45050D02*
X74100Y-45050D01*
X74100Y-45050D02*
X74100Y-44850D01*
X73900Y-44850D02*
X74100Y-44850D01*
X73900Y-45050D02*
X73900Y-44850D01*
X72900Y-45050D02*
X73100Y-45050D01*
X73100Y-45050D02*
X73100Y-44850D01*
X72900Y-44850D02*
X73100Y-44850D01*
X72900Y-45050D02*
X72900Y-44850D01*
X71900Y-45050D02*
X72100Y-45050D01*
X72100Y-45050D02*
X72100Y-44850D01*
X71900Y-44850D02*
X72100Y-44850D01*
X71900Y-45050D02*
X71900Y-44850D01*
X70900Y-45050D02*
X71100Y-45050D01*
X71100Y-45050D02*
X71100Y-44850D01*
X70900Y-44850D02*
X71100Y-44850D01*
X70900Y-45050D02*
X70900Y-44850D01*
X69900Y-45050D02*
X70100Y-45050D01*
X70100Y-45050D02*
X70100Y-44850D01*
X69900Y-44850D02*
X70100Y-44850D01*
X69900Y-45050D02*
X69900Y-44850D01*
X68900Y-45050D02*
X69100Y-45050D01*
X69100Y-45050D02*
X69100Y-44850D01*
X68900Y-44850D02*
X69100Y-44850D01*
X68900Y-45050D02*
X68900Y-44850D01*
X67900Y-45050D02*
X68100Y-45050D01*
X68100Y-45050D02*
X68100Y-44850D01*
X67900Y-44850D02*
X68100Y-44850D01*
X67900Y-45050D02*
X67900Y-44850D01*
X66900Y-45050D02*
X67100Y-45050D01*
X67100Y-45050D02*
X67100Y-44850D01*
X66900Y-44850D02*
X67100Y-44850D01*
X66900Y-45050D02*
X66900Y-44850D01*
X65900Y-45050D02*
X66100Y-45050D01*
X66100Y-45050D02*
X66100Y-44850D01*
X65900Y-44850D02*
X66100Y-44850D01*
X65900Y-45050D02*
X65900Y-44850D01*
X64900Y-45050D02*
X65100Y-45050D01*
X65100Y-45050D02*
X65100Y-44850D01*
X64900Y-44850D02*
X65100Y-44850D01*
X64900Y-45050D02*
X64900Y-44850D01*
X63900Y-45050D02*
X64100Y-45050D01*
X64100Y-45050D02*
X64100Y-44850D01*
X63900Y-44850D02*
X64100Y-44850D01*
X63900Y-45050D02*
X63900Y-44850D01*
X62900Y-45050D02*
X63100Y-45050D01*
X63100Y-45050D02*
X63100Y-44850D01*
X62900Y-44850D02*
X63100Y-44850D01*
X62900Y-45050D02*
X62900Y-44850D01*
X61900Y-45050D02*
X62100Y-45050D01*
X62100Y-45050D02*
X62100Y-44850D01*
X61900Y-44850D02*
X62100Y-44850D01*
X61900Y-45050D02*
X61900Y-44850D01*
X60900Y-45050D02*
X61100Y-45050D01*
X61100Y-45050D02*
X61100Y-44850D01*
X60900Y-44850D02*
X61100Y-44850D01*
X60900Y-45050D02*
X60900Y-44850D01*
X59900Y-45050D02*
X60100Y-45050D01*
X60100Y-45050D02*
X60100Y-44850D01*
X59900Y-44850D02*
X60100Y-44850D01*
X59900Y-45050D02*
X59900Y-44850D01*
X58900Y-45050D02*
X59100Y-45050D01*
X59100Y-45050D02*
X59100Y-44850D01*
X58900Y-44850D02*
X59100Y-44850D01*
X58900Y-45050D02*
X58900Y-44850D01*
X57900Y-45050D02*
X58100Y-45050D01*
X58100Y-45050D02*
X58100Y-44850D01*
X57900Y-44850D02*
X58100Y-44850D01*
X57900Y-45050D02*
X57900Y-44850D01*
X56900Y-45050D02*
X57100Y-45050D01*
X57100Y-45050D02*
X57100Y-44850D01*
X56900Y-44850D02*
X57100Y-44850D01*
X56900Y-45050D02*
X56900Y-44850D01*
X55900Y-45050D02*
X56100Y-45050D01*
X56100Y-45050D02*
X56100Y-44850D01*
X55900Y-44850D02*
X56100Y-44850D01*
X55900Y-45050D02*
X55900Y-44850D01*
X74900Y-45050D02*
X75100Y-45050D01*
X75100Y-45050D02*
X75100Y-44850D01*
X74900Y-44850D02*
X75100Y-44850D01*
X74900Y-45050D02*
X74900Y-44850D01*
G54D19*
X73750Y-44450D02*
X74250Y-44450D01*
X74250Y-44450D02*
X74500Y-44700D01*
X74500Y-44700D02*
X74500Y-45200D01*
X74500Y-45200D02*
X74250Y-45450D01*
X72500Y-44700D02*
X72750Y-44450D01*
X72750Y-44450D02*
X73250Y-44450D01*
X73250Y-44450D02*
X73500Y-44700D01*
X73500Y-44700D02*
X73500Y-45200D01*
X73500Y-45200D02*
X73250Y-45450D01*
X73250Y-45450D02*
X72750Y-45450D01*
X72750Y-45450D02*
X72500Y-45200D01*
X73750Y-44450D02*
X73500Y-44700D01*
X73500Y-45200D02*
X73750Y-45450D01*
X74250Y-45450D02*
X73750Y-45450D01*
X70750Y-44450D02*
X71250Y-44450D01*
X71250Y-44450D02*
X71500Y-44700D01*
X71500Y-44700D02*
X71500Y-45200D01*
X71500Y-45200D02*
X71250Y-45450D01*
X71500Y-44700D02*
X71750Y-44450D01*
X71750Y-44450D02*
X72250Y-44450D01*
X72250Y-44450D02*
X72500Y-44700D01*
X72500Y-44700D02*
X72500Y-45200D01*
X72500Y-45200D02*
X72250Y-45450D01*
X72250Y-45450D02*
X71750Y-45450D01*
X71750Y-45450D02*
X71500Y-45200D01*
X69500Y-44700D02*
X69750Y-44450D01*
X69750Y-44450D02*
X70250Y-44450D01*
X70250Y-44450D02*
X70500Y-44700D01*
X70500Y-44700D02*
X70500Y-45200D01*
X70500Y-45200D02*
X70250Y-45450D01*
X70250Y-45450D02*
X69750Y-45450D01*
X69750Y-45450D02*
X69500Y-45200D01*
X70750Y-44450D02*
X70500Y-44700D01*
X70500Y-45200D02*
X70750Y-45450D01*
X71250Y-45450D02*
X70750Y-45450D01*
X67750Y-44450D02*
X68250Y-44450D01*
X68250Y-44450D02*
X68500Y-44700D01*
X68500Y-44700D02*
X68500Y-45200D01*
X68500Y-45200D02*
X68250Y-45450D01*
X68500Y-44700D02*
X68750Y-44450D01*
X68750Y-44450D02*
X69250Y-44450D01*
X69250Y-44450D02*
X69500Y-44700D01*
X69500Y-44700D02*
X69500Y-45200D01*
X69500Y-45200D02*
X69250Y-45450D01*
X69250Y-45450D02*
X68750Y-45450D01*
X68750Y-45450D02*
X68500Y-45200D01*
X66500Y-44700D02*
X66750Y-44450D01*
X66750Y-44450D02*
X67250Y-44450D01*
X67250Y-44450D02*
X67500Y-44700D01*
X67500Y-44700D02*
X67500Y-45200D01*
X67500Y-45200D02*
X67250Y-45450D01*
X67250Y-45450D02*
X66750Y-45450D01*
X66750Y-45450D02*
X66500Y-45200D01*
X67750Y-44450D02*
X67500Y-44700D01*
X67500Y-45200D02*
X67750Y-45450D01*
X68250Y-45450D02*
X67750Y-45450D01*
X64750Y-44450D02*
X65250Y-44450D01*
X65250Y-44450D02*
X65500Y-44700D01*
X65500Y-44700D02*
X65500Y-45200D01*
X65500Y-45200D02*
X65250Y-45450D01*
X65500Y-44700D02*
X65750Y-44450D01*
X65750Y-44450D02*
X66250Y-44450D01*
X66250Y-44450D02*
X66500Y-44700D01*
X66500Y-44700D02*
X66500Y-45200D01*
X66500Y-45200D02*
X66250Y-45450D01*
X66250Y-45450D02*
X65750Y-45450D01*
X65750Y-45450D02*
X65500Y-45200D01*
X63500Y-44700D02*
X63750Y-44450D01*
X63750Y-44450D02*
X64250Y-44450D01*
X64250Y-44450D02*
X64500Y-44700D01*
X64500Y-44700D02*
X64500Y-45200D01*
X64500Y-45200D02*
X64250Y-45450D01*
X64250Y-45450D02*
X63750Y-45450D01*
X63750Y-45450D02*
X63500Y-45200D01*
X64750Y-44450D02*
X64500Y-44700D01*
X64500Y-45200D02*
X64750Y-45450D01*
X65250Y-45450D02*
X64750Y-45450D01*
X61750Y-44450D02*
X62250Y-44450D01*
X62250Y-44450D02*
X62500Y-44700D01*
X62500Y-44700D02*
X62500Y-45200D01*
X62500Y-45200D02*
X62250Y-45450D01*
X62500Y-44700D02*
X62750Y-44450D01*
X62750Y-44450D02*
X63250Y-44450D01*
X63250Y-44450D02*
X63500Y-44700D01*
X63500Y-44700D02*
X63500Y-45200D01*
X63500Y-45200D02*
X63250Y-45450D01*
X63250Y-45450D02*
X62750Y-45450D01*
X62750Y-45450D02*
X62500Y-45200D01*
X60500Y-44700D02*
X60750Y-44450D01*
X60750Y-44450D02*
X61250Y-44450D01*
X61250Y-44450D02*
X61500Y-44700D01*
X61500Y-44700D02*
X61500Y-45200D01*
X61500Y-45200D02*
X61250Y-45450D01*
X61250Y-45450D02*
X60750Y-45450D01*
X60750Y-45450D02*
X60500Y-45200D01*
X61750Y-44450D02*
X61500Y-44700D01*
X61500Y-45200D02*
X61750Y-45450D01*
X62250Y-45450D02*
X61750Y-45450D01*
X58750Y-44450D02*
X59250Y-44450D01*
X59250Y-44450D02*
X59500Y-44700D01*
X59500Y-44700D02*
X59500Y-45200D01*
X59500Y-45200D02*
X59250Y-45450D01*
X59500Y-44700D02*
X59750Y-44450D01*
X59750Y-44450D02*
X60250Y-44450D01*
X60250Y-44450D02*
X60500Y-44700D01*
X60500Y-44700D02*
X60500Y-45200D01*
X60500Y-45200D02*
X60250Y-45450D01*
X60250Y-45450D02*
X59750Y-45450D01*
X59750Y-45450D02*
X59500Y-45200D01*
X57500Y-44700D02*
X57750Y-44450D01*
X57750Y-44450D02*
X58250Y-44450D01*
X58250Y-44450D02*
X58500Y-44700D01*
X58500Y-44700D02*
X58500Y-45200D01*
X58500Y-45200D02*
X58250Y-45450D01*
X58250Y-45450D02*
X57750Y-45450D01*
X57750Y-45450D02*
X57500Y-45200D01*
X58750Y-44450D02*
X58500Y-44700D01*
X58500Y-45200D02*
X58750Y-45450D01*
X59250Y-45450D02*
X58750Y-45450D01*
X55750Y-44450D02*
X56250Y-44450D01*
X56250Y-44450D02*
X56500Y-44700D01*
X56500Y-44700D02*
X56500Y-45200D01*
X56500Y-45200D02*
X56250Y-45450D01*
X56500Y-44700D02*
X56750Y-44450D01*
X56750Y-44450D02*
X57250Y-44450D01*
X57250Y-44450D02*
X57500Y-44700D01*
X57500Y-44700D02*
X57500Y-45200D01*
X57500Y-45200D02*
X57250Y-45450D01*
X57250Y-45450D02*
X56750Y-45450D01*
X56750Y-45450D02*
X56500Y-45200D01*
X55500Y-44700D02*
X55500Y-45200D01*
X55750Y-44450D02*
X55500Y-44700D01*
X55500Y-45200D02*
X55750Y-45450D01*
X56250Y-45450D02*
X55750Y-45450D01*
X74750Y-44450D02*
X75250Y-44450D01*
X75250Y-44450D02*
X75500Y-44700D01*
X75500Y-44700D02*
X75500Y-45200D01*
X75500Y-45200D02*
X75250Y-45450D01*
X74750Y-44450D02*
X74500Y-44700D01*
X74500Y-45200D02*
X74750Y-45450D01*
X75250Y-45450D02*
X74750Y-45450D01*
G54D16*
X58568Y-42954D02*
X58696Y-42954D01*
X58696Y-42954D02*
X58696Y-42757D01*
X58568Y-42757D02*
X58696Y-42757D01*
X58568Y-42954D02*
X58568Y-42757D01*
X58323Y-42954D02*
X58382Y-42954D01*
X58382Y-42954D02*
X58382Y-42855D01*
X58323Y-42855D02*
X58382Y-42855D01*
X58323Y-42954D02*
X58323Y-42855D01*
X58518Y-42954D02*
X58577Y-42954D01*
X58577Y-42954D02*
X58577Y-42855D01*
X58518Y-42855D02*
X58577Y-42855D01*
X58518Y-42954D02*
X58518Y-42855D01*
X58372Y-42954D02*
X58528Y-42954D01*
X58528Y-42954D02*
X58528Y-42885D01*
X58372Y-42885D02*
X58528Y-42885D01*
X58372Y-42954D02*
X58372Y-42885D01*
X58568Y-43543D02*
X58696Y-43543D01*
X58696Y-43543D02*
X58696Y-43346D01*
X58568Y-43346D02*
X58696Y-43346D01*
X58568Y-43543D02*
X58568Y-43346D01*
X58204Y-43543D02*
X58332Y-43543D01*
X58332Y-43543D02*
X58332Y-43346D01*
X58204Y-43346D02*
X58332Y-43346D01*
X58204Y-43543D02*
X58204Y-43346D01*
X58518Y-43445D02*
X58577Y-43445D01*
X58577Y-43445D02*
X58577Y-43346D01*
X58518Y-43346D02*
X58577Y-43346D01*
X58518Y-43445D02*
X58518Y-43346D01*
X58323Y-43445D02*
X58382Y-43445D01*
X58382Y-43445D02*
X58382Y-43346D01*
X58323Y-43346D02*
X58382Y-43346D01*
X58323Y-43445D02*
X58323Y-43346D01*
X58372Y-43415D02*
X58528Y-43415D01*
X58528Y-43415D02*
X58528Y-43346D01*
X58372Y-43346D02*
X58528Y-43346D01*
X58372Y-43415D02*
X58372Y-43346D01*
X58411Y-43150D02*
X58489Y-43150D01*
X58489Y-43150D02*
X58489Y-43072D01*
X58411Y-43072D02*
X58489Y-43072D01*
X58411Y-43150D02*
X58411Y-43072D01*
X58214Y-42954D02*
X58332Y-42954D01*
X58332Y-42954D02*
X58332Y-42836D01*
X58214Y-42836D02*
X58332Y-42836D01*
X58214Y-42954D02*
X58214Y-42836D01*
X58204Y-42786D02*
X58293Y-42786D01*
X58293Y-42786D02*
X58293Y-42757D01*
X58204Y-42757D02*
X58293Y-42757D01*
X58204Y-42786D02*
X58204Y-42757D01*
G54D17*
X58676Y-42944D02*
X58676Y-43356D01*
X58224Y-43346D02*
X58224Y-42786D01*
G54D18*
X58301Y-42816D02*
X58300Y-42821D01*
X58298Y-42826D01*
X58296Y-42831D01*
X58292Y-42835D01*
X58288Y-42839D01*
X58283Y-42841D01*
X58278Y-42843D01*
X58273Y-42843D01*
X58268Y-42843D01*
X58263Y-42841D01*
X58258Y-42839D01*
X58254Y-42836D01*
X58250Y-42831D01*
X58248Y-42827D01*
X58246Y-42821D01*
X58246Y-42816D01*
X58246Y-42811D01*
X58247Y-42806D01*
X58250Y-42801D01*
X58253Y-42797D01*
X58258Y-42794D01*
X58262Y-42791D01*
X58267Y-42789D01*
X58273Y-42789D01*
X58277Y-42789D01*
X58283Y-42790D01*
X58288Y-42793D01*
X58292Y-42796D01*
X58295Y-42800D01*
X58298Y-42805D01*
X58300Y-42810D01*
X58300Y-42816D01*
X58301Y-42816D01*
G54D17*
X58313Y-42757D02*
X58314Y-42768D01*
X58316Y-42780D01*
X58318Y-42792D01*
X58322Y-42803D01*
X58326Y-42814D01*
X58332Y-42825D01*
X58338Y-42835D01*
X58346Y-42845D01*
X58354Y-42853D01*
X58362Y-42861D01*
X58372Y-42869D01*
X58382Y-42875D01*
X58393Y-42881D01*
X58404Y-42885D01*
X58415Y-42889D01*
X58427Y-42891D01*
X58439Y-42893D01*
X58450Y-42894D01*
X58461Y-42893D01*
X58473Y-42891D01*
X58485Y-42889D01*
X58496Y-42885D01*
X58507Y-42881D01*
X58518Y-42875D01*
X58528Y-42869D01*
X58538Y-42861D01*
X58546Y-42853D01*
X58554Y-42845D01*
X58562Y-42835D01*
X58568Y-42825D01*
X58574Y-42814D01*
X58578Y-42803D01*
X58582Y-42792D01*
X58584Y-42780D01*
X58586Y-42768D01*
X58587Y-42757D01*
X58586Y-42746D01*
X58584Y-42734D01*
X58582Y-42722D01*
X58578Y-42711D01*
X58574Y-42700D01*
X58568Y-42689D01*
X58562Y-42679D01*
X58554Y-42669D01*
X58546Y-42661D01*
X58538Y-42653D01*
X58528Y-42645D01*
X58518Y-42639D01*
X58507Y-42633D01*
X58496Y-42629D01*
X58485Y-42625D01*
X58473Y-42623D01*
X58461Y-42621D01*
X58450Y-42620D01*
X58439Y-42621D01*
X58427Y-42623D01*
X58415Y-42625D01*
X58404Y-42629D01*
X58393Y-42633D01*
X58382Y-42639D01*
X58372Y-42645D01*
X58362Y-42653D01*
X58354Y-42661D01*
X58346Y-42669D01*
X58338Y-42679D01*
X58332Y-42689D01*
X58326Y-42700D01*
X58322Y-42711D01*
X58318Y-42722D01*
X58316Y-42734D01*
X58314Y-42746D01*
X58313Y-42757D01*
X58314Y-42768D01*
X58316Y-42780D01*
X58318Y-42792D01*
X58322Y-42803D01*
X58326Y-42814D01*
X58332Y-42825D01*
X58338Y-42835D01*
X58346Y-42845D01*
X58354Y-42853D01*
X58362Y-42861D01*
X58372Y-42869D01*
X58382Y-42875D01*
X58393Y-42881D01*
X58404Y-42885D01*
X58415Y-42889D01*
X58427Y-42891D01*
X58439Y-42893D01*
X58450Y-42894D01*
X58461Y-42893D01*
X58473Y-42891D01*
X58485Y-42889D01*
X58496Y-42885D01*
X58507Y-42881D01*
X58518Y-42875D01*
X58528Y-42869D01*
X58538Y-42861D01*
X58546Y-42853D01*
X58554Y-42845D01*
X58562Y-42835D01*
X58568Y-42825D01*
X58574Y-42814D01*
X58578Y-42803D01*
X58582Y-42792D01*
X58584Y-42780D01*
X58586Y-42768D01*
X58587Y-42757D01*
X58587Y-43543D02*
X58586Y-43532D01*
X58584Y-43520D01*
X58582Y-43508D01*
X58578Y-43497D01*
X58574Y-43486D01*
X58568Y-43475D01*
X58562Y-43465D01*
X58554Y-43455D01*
X58546Y-43447D01*
X58538Y-43439D01*
X58528Y-43431D01*
X58518Y-43425D01*
X58507Y-43419D01*
X58496Y-43415D01*
X58485Y-43411D01*
X58473Y-43409D01*
X58461Y-43407D01*
X58450Y-43406D01*
X58439Y-43407D01*
X58427Y-43409D01*
X58415Y-43411D01*
X58404Y-43415D01*
X58393Y-43419D01*
X58382Y-43425D01*
X58372Y-43431D01*
X58362Y-43439D01*
X58354Y-43447D01*
X58346Y-43455D01*
X58338Y-43465D01*
X58332Y-43475D01*
X58326Y-43486D01*
X58322Y-43497D01*
X58318Y-43508D01*
X58316Y-43520D01*
X58314Y-43532D01*
X58313Y-43543D01*
X58314Y-43554D01*
X58316Y-43566D01*
X58318Y-43578D01*
X58322Y-43589D01*
X58326Y-43600D01*
X58332Y-43611D01*
X58338Y-43621D01*
X58346Y-43631D01*
X58354Y-43639D01*
X58362Y-43647D01*
X58372Y-43655D01*
X58382Y-43661D01*
X58393Y-43667D01*
X58404Y-43671D01*
X58415Y-43675D01*
X58427Y-43677D01*
X58439Y-43679D01*
X58450Y-43680D01*
X58461Y-43679D01*
X58473Y-43677D01*
X58485Y-43675D01*
X58496Y-43671D01*
X58507Y-43667D01*
X58518Y-43661D01*
X58528Y-43655D01*
X58538Y-43647D01*
X58546Y-43639D01*
X58554Y-43631D01*
X58562Y-43621D01*
X58568Y-43611D01*
X58574Y-43600D01*
X58578Y-43589D01*
X58582Y-43578D01*
X58584Y-43566D01*
X58586Y-43554D01*
X58587Y-43543D01*
X58586Y-43532D01*
X58584Y-43520D01*
X58582Y-43508D01*
X58578Y-43497D01*
X58574Y-43486D01*
X58568Y-43475D01*
X58562Y-43465D01*
X58554Y-43455D01*
X58546Y-43447D01*
X58538Y-43439D01*
X58528Y-43431D01*
X58518Y-43425D01*
X58507Y-43419D01*
X58496Y-43415D01*
X58485Y-43411D01*
X58473Y-43409D01*
X58461Y-43407D01*
X58450Y-43406D01*
X58439Y-43407D01*
X58427Y-43409D01*
X58415Y-43411D01*
X58404Y-43415D01*
X58393Y-43419D01*
X58382Y-43425D01*
X58372Y-43431D01*
X58362Y-43439D01*
X58354Y-43447D01*
X58346Y-43455D01*
X58338Y-43465D01*
X58332Y-43475D01*
X58326Y-43486D01*
X58322Y-43497D01*
X58318Y-43508D01*
X58316Y-43520D01*
X58314Y-43532D01*
X58313Y-43543D01*
G54D15*
X56400Y-43000D02*
X56400Y-42100D01*
X56400Y-42100D02*
X56900Y-42100D01*
X56900Y-42100D02*
X56900Y-43000D01*
X56900Y-43000D02*
X56400Y-43000D01*
X57950Y-42500D02*
X57050Y-42500D01*
X57050Y-42500D02*
X57050Y-42000D01*
X57050Y-42000D02*
X57950Y-42000D01*
X57950Y-42000D02*
X57950Y-42500D01*
X57050Y-42600D02*
X57950Y-42600D01*
X57950Y-42600D02*
X57950Y-43100D01*
X57950Y-43100D02*
X57050Y-43100D01*
X57050Y-43100D02*
X57050Y-42600D01*
X57050Y-41300D02*
X57950Y-41300D01*
X57950Y-41300D02*
X57950Y-41800D01*
X57950Y-41800D02*
X57050Y-41800D01*
X57050Y-41800D02*
X57050Y-41300D01*
X56050Y-40900D02*
X56050Y-40000D01*
X56050Y-40000D02*
X56550Y-40000D01*
X56550Y-40000D02*
X56550Y-40900D01*
X56550Y-40900D02*
X56050Y-40900D01*
X58200Y-40900D02*
X58200Y-40000D01*
X58200Y-40000D02*
X58700Y-40000D01*
X58700Y-40000D02*
X58700Y-40900D01*
X58700Y-40900D02*
X58200Y-40900D01*
X57000Y-39850D02*
X57700Y-39850D01*
X57700Y-39850D02*
X57700Y-41050D01*
X57700Y-41050D02*
X57000Y-41050D01*
X57000Y-41050D02*
X57000Y-39850D01*
G54D13*
X65080Y-43920D02*
X65080Y-39980D01*
X65080Y-39980D02*
X69020Y-39980D01*
X69020Y-43730D02*
X69020Y-39980D01*
X68830Y-43920D02*
X65080Y-43920D01*
X69020Y-43730D02*
X68830Y-43920D01*
G54D14*
X68800Y-43450D02*
X68795Y-43498D01*
X68781Y-43545D01*
X68758Y-43588D01*
X68727Y-43626D01*
X68689Y-43657D01*
X68646Y-43680D01*
X68600Y-43694D01*
X68551Y-43699D01*
X68504Y-43695D01*
X68457Y-43681D01*
X68414Y-43659D01*
X68376Y-43628D01*
X68344Y-43591D01*
X68321Y-43548D01*
X68306Y-43501D01*
X68301Y-43453D01*
X68305Y-43405D01*
X68318Y-43358D01*
X68340Y-43315D01*
X68371Y-43277D01*
X68408Y-43245D01*
X68450Y-43221D01*
X68497Y-43206D01*
X68545Y-43201D01*
X68593Y-43204D01*
X68640Y-43217D01*
X68683Y-43239D01*
X68722Y-43269D01*
X68754Y-43306D01*
X68778Y-43349D01*
X68793Y-43395D01*
X68799Y-43444D01*
X68800Y-43450D01*
X76150Y-35800D02*
X76150Y-36000D01*
X76150Y-36000D02*
X76350Y-36000D01*
X76350Y-35800D02*
X76350Y-36000D01*
X76150Y-35800D02*
X76350Y-35800D01*
X76150Y-34800D02*
X76150Y-35000D01*
X76150Y-35000D02*
X76350Y-35000D01*
X76350Y-34800D02*
X76350Y-35000D01*
X76150Y-34800D02*
X76350Y-34800D01*
X76150Y-33800D02*
X76150Y-34000D01*
X76150Y-34000D02*
X76350Y-34000D01*
X76350Y-33800D02*
X76350Y-34000D01*
X76150Y-33800D02*
X76350Y-33800D01*
X76150Y-32800D02*
X76150Y-33000D01*
X76150Y-33000D02*
X76350Y-33000D01*
X76350Y-32800D02*
X76350Y-33000D01*
X76150Y-32800D02*
X76350Y-32800D01*
X76150Y-31800D02*
X76150Y-32000D01*
X76150Y-32000D02*
X76350Y-32000D01*
X76350Y-31800D02*
X76350Y-32000D01*
X76150Y-31800D02*
X76350Y-31800D01*
X76150Y-36800D02*
X76150Y-37000D01*
X76150Y-37000D02*
X76350Y-37000D01*
X76350Y-36800D02*
X76350Y-37000D01*
X76150Y-36800D02*
X76350Y-36800D01*
G54D19*
X76750Y-34650D02*
X76750Y-35150D01*
X76750Y-35150D02*
X76500Y-35400D01*
X76500Y-35400D02*
X76000Y-35400D01*
X76000Y-35400D02*
X75750Y-35150D01*
X76500Y-35400D02*
X76750Y-35650D01*
X76750Y-35650D02*
X76750Y-36150D01*
X76750Y-36150D02*
X76500Y-36400D01*
X76500Y-36400D02*
X76000Y-36400D01*
X76000Y-36400D02*
X75750Y-36150D01*
X75750Y-36150D02*
X75750Y-35650D01*
X75750Y-35650D02*
X76000Y-35400D01*
X76500Y-33400D02*
X76750Y-33650D01*
X76750Y-33650D02*
X76750Y-34150D01*
X76750Y-34150D02*
X76500Y-34400D01*
X76500Y-34400D02*
X76000Y-34400D01*
X76000Y-34400D02*
X75750Y-34150D01*
X75750Y-34150D02*
X75750Y-33650D01*
X75750Y-33650D02*
X76000Y-33400D01*
X76750Y-34650D02*
X76500Y-34400D01*
X76000Y-34400D02*
X75750Y-34650D01*
X75750Y-35150D02*
X75750Y-34650D01*
X76750Y-31650D02*
X76750Y-32150D01*
X76750Y-32150D02*
X76500Y-32400D01*
X76500Y-32400D02*
X76000Y-32400D01*
X76000Y-32400D02*
X75750Y-32150D01*
X76500Y-32400D02*
X76750Y-32650D01*
X76750Y-32650D02*
X76750Y-33150D01*
X76750Y-33150D02*
X76500Y-33400D01*
X76500Y-33400D02*
X76000Y-33400D01*
X76000Y-33400D02*
X75750Y-33150D01*
X75750Y-33150D02*
X75750Y-32650D01*
X75750Y-32650D02*
X76000Y-32400D01*
X76500Y-31400D02*
X76000Y-31400D01*
X76750Y-31650D02*
X76500Y-31400D01*
X76000Y-31400D02*
X75750Y-31650D01*
X75750Y-32150D02*
X75750Y-31650D01*
X76750Y-36650D02*
X76750Y-37150D01*
X76750Y-37150D02*
X76500Y-37400D01*
X76500Y-37400D02*
X76000Y-37400D01*
X76000Y-37400D02*
X75750Y-37150D01*
X76750Y-36650D02*
X76500Y-36400D01*
X76000Y-36400D02*
X75750Y-36650D01*
X75750Y-37150D02*
X75750Y-36650D01*
G54D14*
X73900Y-31500D02*
X74100Y-31500D01*
X74100Y-31500D02*
X74100Y-31300D01*
X73900Y-31300D02*
X74100Y-31300D01*
X73900Y-31500D02*
X73900Y-31300D01*
X72900Y-31500D02*
X73100Y-31500D01*
X73100Y-31500D02*
X73100Y-31300D01*
X72900Y-31300D02*
X73100Y-31300D01*
X72900Y-31500D02*
X72900Y-31300D01*
X71900Y-31500D02*
X72100Y-31500D01*
X72100Y-31500D02*
X72100Y-31300D01*
X71900Y-31300D02*
X72100Y-31300D01*
X71900Y-31500D02*
X71900Y-31300D01*
X70900Y-31500D02*
X71100Y-31500D01*
X71100Y-31500D02*
X71100Y-31300D01*
X70900Y-31300D02*
X71100Y-31300D01*
X70900Y-31500D02*
X70900Y-31300D01*
X69900Y-31500D02*
X70100Y-31500D01*
X70100Y-31500D02*
X70100Y-31300D01*
X69900Y-31300D02*
X70100Y-31300D01*
X69900Y-31500D02*
X69900Y-31300D01*
X68900Y-31500D02*
X69100Y-31500D01*
X69100Y-31500D02*
X69100Y-31300D01*
X68900Y-31300D02*
X69100Y-31300D01*
X68900Y-31500D02*
X68900Y-31300D01*
X67900Y-31500D02*
X68100Y-31500D01*
X68100Y-31500D02*
X68100Y-31300D01*
X67900Y-31300D02*
X68100Y-31300D01*
X67900Y-31500D02*
X67900Y-31300D01*
X66900Y-31500D02*
X67100Y-31500D01*
X67100Y-31500D02*
X67100Y-31300D01*
X66900Y-31300D02*
X67100Y-31300D01*
X66900Y-31500D02*
X66900Y-31300D01*
X65900Y-31500D02*
X66100Y-31500D01*
X66100Y-31500D02*
X66100Y-31300D01*
X65900Y-31300D02*
X66100Y-31300D01*
X65900Y-31500D02*
X65900Y-31300D01*
X64900Y-31500D02*
X65100Y-31500D01*
X65100Y-31500D02*
X65100Y-31300D01*
X64900Y-31300D02*
X65100Y-31300D01*
X64900Y-31500D02*
X64900Y-31300D01*
X63900Y-31500D02*
X64100Y-31500D01*
X64100Y-31500D02*
X64100Y-31300D01*
X63900Y-31300D02*
X64100Y-31300D01*
X63900Y-31500D02*
X63900Y-31300D01*
X62900Y-31500D02*
X63100Y-31500D01*
X63100Y-31500D02*
X63100Y-31300D01*
X62900Y-31300D02*
X63100Y-31300D01*
X62900Y-31500D02*
X62900Y-31300D01*
X61900Y-31500D02*
X62100Y-31500D01*
X62100Y-31500D02*
X62100Y-31300D01*
X61900Y-31300D02*
X62100Y-31300D01*
X61900Y-31500D02*
X61900Y-31300D01*
X60900Y-31500D02*
X61100Y-31500D01*
X61100Y-31500D02*
X61100Y-31300D01*
X60900Y-31300D02*
X61100Y-31300D01*
X60900Y-31500D02*
X60900Y-31300D01*
X59900Y-31500D02*
X60100Y-31500D01*
X60100Y-31500D02*
X60100Y-31300D01*
X59900Y-31300D02*
X60100Y-31300D01*
X59900Y-31500D02*
X59900Y-31300D01*
X58900Y-31500D02*
X59100Y-31500D01*
X59100Y-31500D02*
X59100Y-31300D01*
X58900Y-31300D02*
X59100Y-31300D01*
X58900Y-31500D02*
X58900Y-31300D01*
X57900Y-31500D02*
X58100Y-31500D01*
X58100Y-31500D02*
X58100Y-31300D01*
X57900Y-31300D02*
X58100Y-31300D01*
X57900Y-31500D02*
X57900Y-31300D01*
X56900Y-31500D02*
X57100Y-31500D01*
X57100Y-31500D02*
X57100Y-31300D01*
X56900Y-31300D02*
X57100Y-31300D01*
X56900Y-31500D02*
X56900Y-31300D01*
X55900Y-31500D02*
X56100Y-31500D01*
X56100Y-31500D02*
X56100Y-31300D01*
X55900Y-31300D02*
X56100Y-31300D01*
X55900Y-31500D02*
X55900Y-31300D01*
X74900Y-31500D02*
X75100Y-31500D01*
X75100Y-31500D02*
X75100Y-31300D01*
X74900Y-31300D02*
X75100Y-31300D01*
X74900Y-31500D02*
X74900Y-31300D01*
G54D19*
X73750Y-30900D02*
X74250Y-30900D01*
X74250Y-30900D02*
X74500Y-31150D01*
X74500Y-31150D02*
X74500Y-31650D01*
X74500Y-31650D02*
X74250Y-31900D01*
X72500Y-31150D02*
X72750Y-30900D01*
X72750Y-30900D02*
X73250Y-30900D01*
X73250Y-30900D02*
X73500Y-31150D01*
X73500Y-31150D02*
X73500Y-31650D01*
X73500Y-31650D02*
X73250Y-31900D01*
X73250Y-31900D02*
X72750Y-31900D01*
X72750Y-31900D02*
X72500Y-31650D01*
X73750Y-30900D02*
X73500Y-31150D01*
X73500Y-31650D02*
X73750Y-31900D01*
X74250Y-31900D02*
X73750Y-31900D01*
X70750Y-30900D02*
X71250Y-30900D01*
X71250Y-30900D02*
X71500Y-31150D01*
X71500Y-31150D02*
X71500Y-31650D01*
X71500Y-31650D02*
X71250Y-31900D01*
X71500Y-31150D02*
X71750Y-30900D01*
X71750Y-30900D02*
X72250Y-30900D01*
X72250Y-30900D02*
X72500Y-31150D01*
X72500Y-31150D02*
X72500Y-31650D01*
X72500Y-31650D02*
X72250Y-31900D01*
X72250Y-31900D02*
X71750Y-31900D01*
X71750Y-31900D02*
X71500Y-31650D01*
X69500Y-31150D02*
X69750Y-30900D01*
X69750Y-30900D02*
X70250Y-30900D01*
X70250Y-30900D02*
X70500Y-31150D01*
X70500Y-31150D02*
X70500Y-31650D01*
X70500Y-31650D02*
X70250Y-31900D01*
X70250Y-31900D02*
X69750Y-31900D01*
X69750Y-31900D02*
X69500Y-31650D01*
X70750Y-30900D02*
X70500Y-31150D01*
X70500Y-31650D02*
X70750Y-31900D01*
X71250Y-31900D02*
X70750Y-31900D01*
X67750Y-30900D02*
X68250Y-30900D01*
X68250Y-30900D02*
X68500Y-31150D01*
X68500Y-31150D02*
X68500Y-31650D01*
X68500Y-31650D02*
X68250Y-31900D01*
X68500Y-31150D02*
X68750Y-30900D01*
X68750Y-30900D02*
X69250Y-30900D01*
X69250Y-30900D02*
X69500Y-31150D01*
X69500Y-31150D02*
X69500Y-31650D01*
X69500Y-31650D02*
X69250Y-31900D01*
X69250Y-31900D02*
X68750Y-31900D01*
X68750Y-31900D02*
X68500Y-31650D01*
X66500Y-31150D02*
X66750Y-30900D01*
X66750Y-30900D02*
X67250Y-30900D01*
X67250Y-30900D02*
X67500Y-31150D01*
X67500Y-31150D02*
X67500Y-31650D01*
X67500Y-31650D02*
X67250Y-31900D01*
X67250Y-31900D02*
X66750Y-31900D01*
X66750Y-31900D02*
X66500Y-31650D01*
X67750Y-30900D02*
X67500Y-31150D01*
X67500Y-31650D02*
X67750Y-31900D01*
X68250Y-31900D02*
X67750Y-31900D01*
X64750Y-30900D02*
X65250Y-30900D01*
X65250Y-30900D02*
X65500Y-31150D01*
X65500Y-31150D02*
X65500Y-31650D01*
X65500Y-31650D02*
X65250Y-31900D01*
X65500Y-31150D02*
X65750Y-30900D01*
X65750Y-30900D02*
X66250Y-30900D01*
X66250Y-30900D02*
X66500Y-31150D01*
X66500Y-31150D02*
X66500Y-31650D01*
X66500Y-31650D02*
X66250Y-31900D01*
X66250Y-31900D02*
X65750Y-31900D01*
X65750Y-31900D02*
X65500Y-31650D01*
X63500Y-31150D02*
X63750Y-30900D01*
X63750Y-30900D02*
X64250Y-30900D01*
X64250Y-30900D02*
X64500Y-31150D01*
X64500Y-31150D02*
X64500Y-31650D01*
X64500Y-31650D02*
X64250Y-31900D01*
X64250Y-31900D02*
X63750Y-31900D01*
X63750Y-31900D02*
X63500Y-31650D01*
X64750Y-30900D02*
X64500Y-31150D01*
X64500Y-31650D02*
X64750Y-31900D01*
X65250Y-31900D02*
X64750Y-31900D01*
X61750Y-30900D02*
X62250Y-30900D01*
X62250Y-30900D02*
X62500Y-31150D01*
X62500Y-31150D02*
X62500Y-31650D01*
X62500Y-31650D02*
X62250Y-31900D01*
X62500Y-31150D02*
X62750Y-30900D01*
X62750Y-30900D02*
X63250Y-30900D01*
X63250Y-30900D02*
X63500Y-31150D01*
X63500Y-31150D02*
X63500Y-31650D01*
X63500Y-31650D02*
X63250Y-31900D01*
X63250Y-31900D02*
X62750Y-31900D01*
X62750Y-31900D02*
X62500Y-31650D01*
X60500Y-31150D02*
X60750Y-30900D01*
X60750Y-30900D02*
X61250Y-30900D01*
X61250Y-30900D02*
X61500Y-31150D01*
X61500Y-31150D02*
X61500Y-31650D01*
X61500Y-31650D02*
X61250Y-31900D01*
X61250Y-31900D02*
X60750Y-31900D01*
X60750Y-31900D02*
X60500Y-31650D01*
X61750Y-30900D02*
X61500Y-31150D01*
X61500Y-31650D02*
X61750Y-31900D01*
X62250Y-31900D02*
X61750Y-31900D01*
X58750Y-30900D02*
X59250Y-30900D01*
X59250Y-30900D02*
X59500Y-31150D01*
X59500Y-31150D02*
X59500Y-31650D01*
X59500Y-31650D02*
X59250Y-31900D01*
X59500Y-31150D02*
X59750Y-30900D01*
X59750Y-30900D02*
X60250Y-30900D01*
X60250Y-30900D02*
X60500Y-31150D01*
X60500Y-31150D02*
X60500Y-31650D01*
X60500Y-31650D02*
X60250Y-31900D01*
X60250Y-31900D02*
X59750Y-31900D01*
X59750Y-31900D02*
X59500Y-31650D01*
X57500Y-31150D02*
X57750Y-30900D01*
X57750Y-30900D02*
X58250Y-30900D01*
X58250Y-30900D02*
X58500Y-31150D01*
X58500Y-31150D02*
X58500Y-31650D01*
X58500Y-31650D02*
X58250Y-31900D01*
X58250Y-31900D02*
X57750Y-31900D01*
X57750Y-31900D02*
X57500Y-31650D01*
X58750Y-30900D02*
X58500Y-31150D01*
X58500Y-31650D02*
X58750Y-31900D01*
X59250Y-31900D02*
X58750Y-31900D01*
X55750Y-30900D02*
X56250Y-30900D01*
X56250Y-30900D02*
X56500Y-31150D01*
X56500Y-31150D02*
X56500Y-31650D01*
X56500Y-31650D02*
X56250Y-31900D01*
X56500Y-31150D02*
X56750Y-30900D01*
X56750Y-30900D02*
X57250Y-30900D01*
X57250Y-30900D02*
X57500Y-31150D01*
X57500Y-31150D02*
X57500Y-31650D01*
X57500Y-31650D02*
X57250Y-31900D01*
X57250Y-31900D02*
X56750Y-31900D01*
X56750Y-31900D02*
X56500Y-31650D01*
X55500Y-31150D02*
X55500Y-31650D01*
X55750Y-30900D02*
X55500Y-31150D01*
X55500Y-31650D02*
X55750Y-31900D01*
X56250Y-31900D02*
X55750Y-31900D01*
X74750Y-30900D02*
X75250Y-30900D01*
X75250Y-30900D02*
X75500Y-31150D01*
X75500Y-31150D02*
X75500Y-31650D01*
X75500Y-31650D02*
X75250Y-31900D01*
X74750Y-30900D02*
X74500Y-31150D01*
X74500Y-31650D02*
X74750Y-31900D01*
X75250Y-31900D02*
X74750Y-31900D01*
G54D14*
X73900Y-37500D02*
X74100Y-37500D01*
X74100Y-37500D02*
X74100Y-37300D01*
X73900Y-37300D02*
X74100Y-37300D01*
X73900Y-37500D02*
X73900Y-37300D01*
X72900Y-37500D02*
X73100Y-37500D01*
X73100Y-37500D02*
X73100Y-37300D01*
X72900Y-37300D02*
X73100Y-37300D01*
X72900Y-37500D02*
X72900Y-37300D01*
X71900Y-37500D02*
X72100Y-37500D01*
X72100Y-37500D02*
X72100Y-37300D01*
X71900Y-37300D02*
X72100Y-37300D01*
X71900Y-37500D02*
X71900Y-37300D01*
X70900Y-37500D02*
X71100Y-37500D01*
X71100Y-37500D02*
X71100Y-37300D01*
X70900Y-37300D02*
X71100Y-37300D01*
X70900Y-37500D02*
X70900Y-37300D01*
X69900Y-37500D02*
X70100Y-37500D01*
X70100Y-37500D02*
X70100Y-37300D01*
X69900Y-37300D02*
X70100Y-37300D01*
X69900Y-37500D02*
X69900Y-37300D01*
X68900Y-37500D02*
X69100Y-37500D01*
X69100Y-37500D02*
X69100Y-37300D01*
X68900Y-37300D02*
X69100Y-37300D01*
X68900Y-37500D02*
X68900Y-37300D01*
X67900Y-37500D02*
X68100Y-37500D01*
X68100Y-37500D02*
X68100Y-37300D01*
X67900Y-37300D02*
X68100Y-37300D01*
X67900Y-37500D02*
X67900Y-37300D01*
X66900Y-37500D02*
X67100Y-37500D01*
X67100Y-37500D02*
X67100Y-37300D01*
X66900Y-37300D02*
X67100Y-37300D01*
X66900Y-37500D02*
X66900Y-37300D01*
X65900Y-37500D02*
X66100Y-37500D01*
X66100Y-37500D02*
X66100Y-37300D01*
X65900Y-37300D02*
X66100Y-37300D01*
X65900Y-37500D02*
X65900Y-37300D01*
X64900Y-37500D02*
X65100Y-37500D01*
X65100Y-37500D02*
X65100Y-37300D01*
X64900Y-37300D02*
X65100Y-37300D01*
X64900Y-37500D02*
X64900Y-37300D01*
X63900Y-37500D02*
X64100Y-37500D01*
X64100Y-37500D02*
X64100Y-37300D01*
X63900Y-37300D02*
X64100Y-37300D01*
X63900Y-37500D02*
X63900Y-37300D01*
X62900Y-37500D02*
X63100Y-37500D01*
X63100Y-37500D02*
X63100Y-37300D01*
X62900Y-37300D02*
X63100Y-37300D01*
X62900Y-37500D02*
X62900Y-37300D01*
X61900Y-37500D02*
X62100Y-37500D01*
X62100Y-37500D02*
X62100Y-37300D01*
X61900Y-37300D02*
X62100Y-37300D01*
X61900Y-37500D02*
X61900Y-37300D01*
X60900Y-37500D02*
X61100Y-37500D01*
X61100Y-37500D02*
X61100Y-37300D01*
X60900Y-37300D02*
X61100Y-37300D01*
X60900Y-37500D02*
X60900Y-37300D01*
X59900Y-37500D02*
X60100Y-37500D01*
X60100Y-37500D02*
X60100Y-37300D01*
X59900Y-37300D02*
X60100Y-37300D01*
X59900Y-37500D02*
X59900Y-37300D01*
X58900Y-37500D02*
X59100Y-37500D01*
X59100Y-37500D02*
X59100Y-37300D01*
X58900Y-37300D02*
X59100Y-37300D01*
X58900Y-37500D02*
X58900Y-37300D01*
X57900Y-37500D02*
X58100Y-37500D01*
X58100Y-37500D02*
X58100Y-37300D01*
X57900Y-37300D02*
X58100Y-37300D01*
X57900Y-37500D02*
X57900Y-37300D01*
X56900Y-37500D02*
X57100Y-37500D01*
X57100Y-37500D02*
X57100Y-37300D01*
X56900Y-37300D02*
X57100Y-37300D01*
X56900Y-37500D02*
X56900Y-37300D01*
X55900Y-37500D02*
X56100Y-37500D01*
X56100Y-37500D02*
X56100Y-37300D01*
X55900Y-37300D02*
X56100Y-37300D01*
X55900Y-37500D02*
X55900Y-37300D01*
X74900Y-37500D02*
X75100Y-37500D01*
X75100Y-37500D02*
X75100Y-37300D01*
X74900Y-37300D02*
X75100Y-37300D01*
X74900Y-37500D02*
X74900Y-37300D01*
G54D19*
X73750Y-36900D02*
X74250Y-36900D01*
X74250Y-36900D02*
X74500Y-37150D01*
X74500Y-37150D02*
X74500Y-37650D01*
X74500Y-37650D02*
X74250Y-37900D01*
X72500Y-37150D02*
X72750Y-36900D01*
X72750Y-36900D02*
X73250Y-36900D01*
X73250Y-36900D02*
X73500Y-37150D01*
X73500Y-37150D02*
X73500Y-37650D01*
X73500Y-37650D02*
X73250Y-37900D01*
X73250Y-37900D02*
X72750Y-37900D01*
X72750Y-37900D02*
X72500Y-37650D01*
X73750Y-36900D02*
X73500Y-37150D01*
X73500Y-37650D02*
X73750Y-37900D01*
X74250Y-37900D02*
X73750Y-37900D01*
X70750Y-36900D02*
X71250Y-36900D01*
X71250Y-36900D02*
X71500Y-37150D01*
X71500Y-37150D02*
X71500Y-37650D01*
X71500Y-37650D02*
X71250Y-37900D01*
X71500Y-37150D02*
X71750Y-36900D01*
X71750Y-36900D02*
X72250Y-36900D01*
X72250Y-36900D02*
X72500Y-37150D01*
X72500Y-37150D02*
X72500Y-37650D01*
X72500Y-37650D02*
X72250Y-37900D01*
X72250Y-37900D02*
X71750Y-37900D01*
X71750Y-37900D02*
X71500Y-37650D01*
X69500Y-37150D02*
X69750Y-36900D01*
X69750Y-36900D02*
X70250Y-36900D01*
X70250Y-36900D02*
X70500Y-37150D01*
X70500Y-37150D02*
X70500Y-37650D01*
X70500Y-37650D02*
X70250Y-37900D01*
X70250Y-37900D02*
X69750Y-37900D01*
X69750Y-37900D02*
X69500Y-37650D01*
X70750Y-36900D02*
X70500Y-37150D01*
X70500Y-37650D02*
X70750Y-37900D01*
X71250Y-37900D02*
X70750Y-37900D01*
X67750Y-36900D02*
X68250Y-36900D01*
X68250Y-36900D02*
X68500Y-37150D01*
X68500Y-37150D02*
X68500Y-37650D01*
X68500Y-37650D02*
X68250Y-37900D01*
X68500Y-37150D02*
X68750Y-36900D01*
X68750Y-36900D02*
X69250Y-36900D01*
X69250Y-36900D02*
X69500Y-37150D01*
X69500Y-37150D02*
X69500Y-37650D01*
X69500Y-37650D02*
X69250Y-37900D01*
X69250Y-37900D02*
X68750Y-37900D01*
X68750Y-37900D02*
X68500Y-37650D01*
X66500Y-37150D02*
X66750Y-36900D01*
X66750Y-36900D02*
X67250Y-36900D01*
X67250Y-36900D02*
X67500Y-37150D01*
X67500Y-37150D02*
X67500Y-37650D01*
X67500Y-37650D02*
X67250Y-37900D01*
X67250Y-37900D02*
X66750Y-37900D01*
X66750Y-37900D02*
X66500Y-37650D01*
X67750Y-36900D02*
X67500Y-37150D01*
X67500Y-37650D02*
X67750Y-37900D01*
X68250Y-37900D02*
X67750Y-37900D01*
X64750Y-36900D02*
X65250Y-36900D01*
X65250Y-36900D02*
X65500Y-37150D01*
X65500Y-37150D02*
X65500Y-37650D01*
X65500Y-37650D02*
X65250Y-37900D01*
X65500Y-37150D02*
X65750Y-36900D01*
X65750Y-36900D02*
X66250Y-36900D01*
X66250Y-36900D02*
X66500Y-37150D01*
X66500Y-37150D02*
X66500Y-37650D01*
X66500Y-37650D02*
X66250Y-37900D01*
X66250Y-37900D02*
X65750Y-37900D01*
X65750Y-37900D02*
X65500Y-37650D01*
X63500Y-37150D02*
X63750Y-36900D01*
X63750Y-36900D02*
X64250Y-36900D01*
X64250Y-36900D02*
X64500Y-37150D01*
X64500Y-37150D02*
X64500Y-37650D01*
X64500Y-37650D02*
X64250Y-37900D01*
X64250Y-37900D02*
X63750Y-37900D01*
X63750Y-37900D02*
X63500Y-37650D01*
X64750Y-36900D02*
X64500Y-37150D01*
X64500Y-37650D02*
X64750Y-37900D01*
X65250Y-37900D02*
X64750Y-37900D01*
X61750Y-36900D02*
X62250Y-36900D01*
X62250Y-36900D02*
X62500Y-37150D01*
X62500Y-37150D02*
X62500Y-37650D01*
X62500Y-37650D02*
X62250Y-37900D01*
X62500Y-37150D02*
X62750Y-36900D01*
X62750Y-36900D02*
X63250Y-36900D01*
X63250Y-36900D02*
X63500Y-37150D01*
X63500Y-37150D02*
X63500Y-37650D01*
X63500Y-37650D02*
X63250Y-37900D01*
X63250Y-37900D02*
X62750Y-37900D01*
X62750Y-37900D02*
X62500Y-37650D01*
X60500Y-37150D02*
X60750Y-36900D01*
X60750Y-36900D02*
X61250Y-36900D01*
X61250Y-36900D02*
X61500Y-37150D01*
X61500Y-37150D02*
X61500Y-37650D01*
X61500Y-37650D02*
X61250Y-37900D01*
X61250Y-37900D02*
X60750Y-37900D01*
X60750Y-37900D02*
X60500Y-37650D01*
X61750Y-36900D02*
X61500Y-37150D01*
X61500Y-37650D02*
X61750Y-37900D01*
X62250Y-37900D02*
X61750Y-37900D01*
X58750Y-36900D02*
X59250Y-36900D01*
X59250Y-36900D02*
X59500Y-37150D01*
X59500Y-37150D02*
X59500Y-37650D01*
X59500Y-37650D02*
X59250Y-37900D01*
X59500Y-37150D02*
X59750Y-36900D01*
X59750Y-36900D02*
X60250Y-36900D01*
X60250Y-36900D02*
X60500Y-37150D01*
X60500Y-37150D02*
X60500Y-37650D01*
X60500Y-37650D02*
X60250Y-37900D01*
X60250Y-37900D02*
X59750Y-37900D01*
X59750Y-37900D02*
X59500Y-37650D01*
X57500Y-37150D02*
X57750Y-36900D01*
X57750Y-36900D02*
X58250Y-36900D01*
X58250Y-36900D02*
X58500Y-37150D01*
X58500Y-37150D02*
X58500Y-37650D01*
X58500Y-37650D02*
X58250Y-37900D01*
X58250Y-37900D02*
X57750Y-37900D01*
X57750Y-37900D02*
X57500Y-37650D01*
X58750Y-36900D02*
X58500Y-37150D01*
X58500Y-37650D02*
X58750Y-37900D01*
X59250Y-37900D02*
X58750Y-37900D01*
X55750Y-36900D02*
X56250Y-36900D01*
X56250Y-36900D02*
X56500Y-37150D01*
X56500Y-37150D02*
X56500Y-37650D01*
X56500Y-37650D02*
X56250Y-37900D01*
X56500Y-37150D02*
X56750Y-36900D01*
X56750Y-36900D02*
X57250Y-36900D01*
X57250Y-36900D02*
X57500Y-37150D01*
X57500Y-37150D02*
X57500Y-37650D01*
X57500Y-37650D02*
X57250Y-37900D01*
X57250Y-37900D02*
X56750Y-37900D01*
X56750Y-37900D02*
X56500Y-37650D01*
X55500Y-37150D02*
X55500Y-37650D01*
X55750Y-36900D02*
X55500Y-37150D01*
X55500Y-37650D02*
X55750Y-37900D01*
X56250Y-37900D02*
X55750Y-37900D01*
X74750Y-36900D02*
X75250Y-36900D01*
X75250Y-36900D02*
X75500Y-37150D01*
X75500Y-37150D02*
X75500Y-37650D01*
X75500Y-37650D02*
X75250Y-37900D01*
X74750Y-36900D02*
X74500Y-37150D01*
X74500Y-37650D02*
X74750Y-37900D01*
X75250Y-37900D02*
X74750Y-37900D01*
G54D16*
X58568Y-35404D02*
X58696Y-35404D01*
X58696Y-35404D02*
X58696Y-35207D01*
X58568Y-35207D02*
X58696Y-35207D01*
X58568Y-35404D02*
X58568Y-35207D01*
X58323Y-35404D02*
X58382Y-35404D01*
X58382Y-35404D02*
X58382Y-35305D01*
X58323Y-35305D02*
X58382Y-35305D01*
X58323Y-35404D02*
X58323Y-35305D01*
X58518Y-35404D02*
X58577Y-35404D01*
X58577Y-35404D02*
X58577Y-35305D01*
X58518Y-35305D02*
X58577Y-35305D01*
X58518Y-35404D02*
X58518Y-35305D01*
X58372Y-35404D02*
X58528Y-35404D01*
X58528Y-35404D02*
X58528Y-35335D01*
X58372Y-35335D02*
X58528Y-35335D01*
X58372Y-35404D02*
X58372Y-35335D01*
X58568Y-35993D02*
X58696Y-35993D01*
X58696Y-35993D02*
X58696Y-35796D01*
X58568Y-35796D02*
X58696Y-35796D01*
X58568Y-35993D02*
X58568Y-35796D01*
X58204Y-35993D02*
X58332Y-35993D01*
X58332Y-35993D02*
X58332Y-35796D01*
X58204Y-35796D02*
X58332Y-35796D01*
X58204Y-35993D02*
X58204Y-35796D01*
X58518Y-35895D02*
X58577Y-35895D01*
X58577Y-35895D02*
X58577Y-35796D01*
X58518Y-35796D02*
X58577Y-35796D01*
X58518Y-35895D02*
X58518Y-35796D01*
X58323Y-35895D02*
X58382Y-35895D01*
X58382Y-35895D02*
X58382Y-35796D01*
X58323Y-35796D02*
X58382Y-35796D01*
X58323Y-35895D02*
X58323Y-35796D01*
X58372Y-35865D02*
X58528Y-35865D01*
X58528Y-35865D02*
X58528Y-35796D01*
X58372Y-35796D02*
X58528Y-35796D01*
X58372Y-35865D02*
X58372Y-35796D01*
X58411Y-35600D02*
X58489Y-35600D01*
X58489Y-35600D02*
X58489Y-35522D01*
X58411Y-35522D02*
X58489Y-35522D01*
X58411Y-35600D02*
X58411Y-35522D01*
X58214Y-35404D02*
X58332Y-35404D01*
X58332Y-35404D02*
X58332Y-35286D01*
X58214Y-35286D02*
X58332Y-35286D01*
X58214Y-35404D02*
X58214Y-35286D01*
X58204Y-35236D02*
X58293Y-35236D01*
X58293Y-35236D02*
X58293Y-35207D01*
X58204Y-35207D02*
X58293Y-35207D01*
X58204Y-35236D02*
X58204Y-35207D01*
G54D17*
X58676Y-35394D02*
X58676Y-35806D01*
X58224Y-35796D02*
X58224Y-35236D01*
G54D18*
X58301Y-35266D02*
X58300Y-35271D01*
X58298Y-35276D01*
X58296Y-35281D01*
X58292Y-35285D01*
X58288Y-35289D01*
X58283Y-35291D01*
X58278Y-35293D01*
X58273Y-35293D01*
X58268Y-35293D01*
X58263Y-35291D01*
X58258Y-35289D01*
X58254Y-35286D01*
X58250Y-35281D01*
X58248Y-35277D01*
X58246Y-35271D01*
X58246Y-35266D01*
X58246Y-35261D01*
X58247Y-35256D01*
X58250Y-35251D01*
X58253Y-35247D01*
X58258Y-35244D01*
X58262Y-35241D01*
X58267Y-35239D01*
X58273Y-35239D01*
X58277Y-35239D01*
X58283Y-35240D01*
X58288Y-35243D01*
X58292Y-35246D01*
X58295Y-35250D01*
X58298Y-35255D01*
X58300Y-35260D01*
X58300Y-35266D01*
X58301Y-35266D01*
G54D17*
X58313Y-35207D02*
X58314Y-35218D01*
X58316Y-35230D01*
X58318Y-35242D01*
X58322Y-35253D01*
X58326Y-35264D01*
X58332Y-35275D01*
X58338Y-35285D01*
X58346Y-35295D01*
X58354Y-35303D01*
X58362Y-35311D01*
X58372Y-35319D01*
X58382Y-35325D01*
X58393Y-35331D01*
X58404Y-35335D01*
X58415Y-35339D01*
X58427Y-35341D01*
X58439Y-35343D01*
X58450Y-35344D01*
X58461Y-35343D01*
X58473Y-35341D01*
X58485Y-35339D01*
X58496Y-35335D01*
X58507Y-35331D01*
X58518Y-35325D01*
X58528Y-35319D01*
X58538Y-35311D01*
X58546Y-35303D01*
X58554Y-35295D01*
X58562Y-35285D01*
X58568Y-35275D01*
X58574Y-35264D01*
X58578Y-35253D01*
X58582Y-35242D01*
X58584Y-35230D01*
X58586Y-35218D01*
X58587Y-35207D01*
X58586Y-35196D01*
X58584Y-35184D01*
X58582Y-35172D01*
X58578Y-35161D01*
X58574Y-35150D01*
X58568Y-35139D01*
X58562Y-35129D01*
X58554Y-35119D01*
X58546Y-35111D01*
X58538Y-35103D01*
X58528Y-35095D01*
X58518Y-35089D01*
X58507Y-35083D01*
X58496Y-35079D01*
X58485Y-35075D01*
X58473Y-35073D01*
X58461Y-35071D01*
X58450Y-35070D01*
X58439Y-35071D01*
X58427Y-35073D01*
X58415Y-35075D01*
X58404Y-35079D01*
X58393Y-35083D01*
X58382Y-35089D01*
X58372Y-35095D01*
X58362Y-35103D01*
X58354Y-35111D01*
X58346Y-35119D01*
X58338Y-35129D01*
X58332Y-35139D01*
X58326Y-35150D01*
X58322Y-35161D01*
X58318Y-35172D01*
X58316Y-35184D01*
X58314Y-35196D01*
X58313Y-35207D01*
X58314Y-35218D01*
X58316Y-35230D01*
X58318Y-35242D01*
X58322Y-35253D01*
X58326Y-35264D01*
X58332Y-35275D01*
X58338Y-35285D01*
X58346Y-35295D01*
X58354Y-35303D01*
X58362Y-35311D01*
X58372Y-35319D01*
X58382Y-35325D01*
X58393Y-35331D01*
X58404Y-35335D01*
X58415Y-35339D01*
X58427Y-35341D01*
X58439Y-35343D01*
X58450Y-35344D01*
X58461Y-35343D01*
X58473Y-35341D01*
X58485Y-35339D01*
X58496Y-35335D01*
X58507Y-35331D01*
X58518Y-35325D01*
X58528Y-35319D01*
X58538Y-35311D01*
X58546Y-35303D01*
X58554Y-35295D01*
X58562Y-35285D01*
X58568Y-35275D01*
X58574Y-35264D01*
X58578Y-35253D01*
X58582Y-35242D01*
X58584Y-35230D01*
X58586Y-35218D01*
X58587Y-35207D01*
X58587Y-35993D02*
X58586Y-35982D01*
X58584Y-35970D01*
X58582Y-35958D01*
X58578Y-35947D01*
X58574Y-35936D01*
X58568Y-35925D01*
X58562Y-35915D01*
X58554Y-35905D01*
X58546Y-35897D01*
X58538Y-35889D01*
X58528Y-35881D01*
X58518Y-35875D01*
X58507Y-35869D01*
X58496Y-35865D01*
X58485Y-35861D01*
X58473Y-35859D01*
X58461Y-35857D01*
X58450Y-35856D01*
X58439Y-35857D01*
X58427Y-35859D01*
X58415Y-35861D01*
X58404Y-35865D01*
X58393Y-35869D01*
X58382Y-35875D01*
X58372Y-35881D01*
X58362Y-35889D01*
X58354Y-35897D01*
X58346Y-35905D01*
X58338Y-35915D01*
X58332Y-35925D01*
X58326Y-35936D01*
X58322Y-35947D01*
X58318Y-35958D01*
X58316Y-35970D01*
X58314Y-35982D01*
X58313Y-35993D01*
X58314Y-36004D01*
X58316Y-36016D01*
X58318Y-36028D01*
X58322Y-36039D01*
X58326Y-36050D01*
X58332Y-36061D01*
X58338Y-36071D01*
X58346Y-36081D01*
X58354Y-36089D01*
X58362Y-36097D01*
X58372Y-36105D01*
X58382Y-36111D01*
X58393Y-36117D01*
X58404Y-36121D01*
X58415Y-36125D01*
X58427Y-36127D01*
X58439Y-36129D01*
X58450Y-36130D01*
X58461Y-36129D01*
X58473Y-36127D01*
X58485Y-36125D01*
X58496Y-36121D01*
X58507Y-36117D01*
X58518Y-36111D01*
X58528Y-36105D01*
X58538Y-36097D01*
X58546Y-36089D01*
X58554Y-36081D01*
X58562Y-36071D01*
X58568Y-36061D01*
X58574Y-36050D01*
X58578Y-36039D01*
X58582Y-36028D01*
X58584Y-36016D01*
X58586Y-36004D01*
X58587Y-35993D01*
X58586Y-35982D01*
X58584Y-35970D01*
X58582Y-35958D01*
X58578Y-35947D01*
X58574Y-35936D01*
X58568Y-35925D01*
X58562Y-35915D01*
X58554Y-35905D01*
X58546Y-35897D01*
X58538Y-35889D01*
X58528Y-35881D01*
X58518Y-35875D01*
X58507Y-35869D01*
X58496Y-35865D01*
X58485Y-35861D01*
X58473Y-35859D01*
X58461Y-35857D01*
X58450Y-35856D01*
X58439Y-35857D01*
X58427Y-35859D01*
X58415Y-35861D01*
X58404Y-35865D01*
X58393Y-35869D01*
X58382Y-35875D01*
X58372Y-35881D01*
X58362Y-35889D01*
X58354Y-35897D01*
X58346Y-35905D01*
X58338Y-35915D01*
X58332Y-35925D01*
X58326Y-35936D01*
X58322Y-35947D01*
X58318Y-35958D01*
X58316Y-35970D01*
X58314Y-35982D01*
X58313Y-35993D01*
G54D15*
X56400Y-35450D02*
X56400Y-34550D01*
X56400Y-34550D02*
X56900Y-34550D01*
X56900Y-34550D02*
X56900Y-35450D01*
X56900Y-35450D02*
X56400Y-35450D01*
X57950Y-34950D02*
X57050Y-34950D01*
X57050Y-34950D02*
X57050Y-34450D01*
X57050Y-34450D02*
X57950Y-34450D01*
X57950Y-34450D02*
X57950Y-34950D01*
X57050Y-35050D02*
X57950Y-35050D01*
X57950Y-35050D02*
X57950Y-35550D01*
X57950Y-35550D02*
X57050Y-35550D01*
X57050Y-35550D02*
X57050Y-35050D01*
X57050Y-33750D02*
X57950Y-33750D01*
X57950Y-33750D02*
X57950Y-34250D01*
X57950Y-34250D02*
X57050Y-34250D01*
X57050Y-34250D02*
X57050Y-33750D01*
X56050Y-33350D02*
X56050Y-32450D01*
X56050Y-32450D02*
X56550Y-32450D01*
X56550Y-32450D02*
X56550Y-33350D01*
X56550Y-33350D02*
X56050Y-33350D01*
X58200Y-33350D02*
X58200Y-32450D01*
X58200Y-32450D02*
X58700Y-32450D01*
X58700Y-32450D02*
X58700Y-33350D01*
X58700Y-33350D02*
X58200Y-33350D01*
X57000Y-32300D02*
X57700Y-32300D01*
X57700Y-32300D02*
X57700Y-33500D01*
X57700Y-33500D02*
X57000Y-33500D01*
X57000Y-33500D02*
X57000Y-32300D01*
G54D13*
X65080Y-36370D02*
X65080Y-32430D01*
X65080Y-32430D02*
X69020Y-32430D01*
X69020Y-36180D02*
X69020Y-32430D01*
X68830Y-36370D02*
X65080Y-36370D01*
X69020Y-36180D02*
X68830Y-36370D01*
G54D14*
X68800Y-35900D02*
X68795Y-35948D01*
X68781Y-35995D01*
X68758Y-36038D01*
X68727Y-36076D01*
X68689Y-36107D01*
X68646Y-36130D01*
X68600Y-36144D01*
X68551Y-36149D01*
X68504Y-36145D01*
X68457Y-36131D01*
X68414Y-36109D01*
X68376Y-36078D01*
X68344Y-36041D01*
X68321Y-35998D01*
X68306Y-35951D01*
X68301Y-35903D01*
X68305Y-35855D01*
X68318Y-35808D01*
X68340Y-35765D01*
X68371Y-35727D01*
X68408Y-35695D01*
X68450Y-35671D01*
X68497Y-35656D01*
X68545Y-35651D01*
X68593Y-35654D01*
X68640Y-35667D01*
X68683Y-35689D01*
X68722Y-35719D01*
X68754Y-35756D01*
X68778Y-35799D01*
X68793Y-35845D01*
X68799Y-35894D01*
X68800Y-35900D01*
G54D20*
X66745Y-49893D02*
X66745Y-50379D01*
X66764Y-50436D01*
X66783Y-50464D01*
X66821Y-50493D01*
X66898Y-50493D01*
X66936Y-50464D01*
X66955Y-50436D01*
X66974Y-50379D01*
X66974Y-49893D01*
X67145Y-49950D02*
X67164Y-49921D01*
X67202Y-49893D01*
X67298Y-49893D01*
X67336Y-49921D01*
X67355Y-49950D01*
X67374Y-50007D01*
X67374Y-50064D01*
X67355Y-50150D01*
X67126Y-50493D01*
X67374Y-50493D01*
X65602Y-48393D02*
X65869Y-48993D01*
X65869Y-48393D02*
X65602Y-48993D01*
X66250Y-48936D02*
X66231Y-48964D01*
X66174Y-48993D01*
X66136Y-48993D01*
X66078Y-48964D01*
X66040Y-48907D01*
X66021Y-48850D01*
X66002Y-48736D01*
X66002Y-48650D01*
X66021Y-48536D01*
X66040Y-48479D01*
X66078Y-48421D01*
X66136Y-48393D01*
X66174Y-48393D01*
X66231Y-48421D01*
X66250Y-48450D01*
X66440Y-48993D02*
X66516Y-48993D01*
X66555Y-48964D01*
X66574Y-48936D01*
X66612Y-48850D01*
X66631Y-48736D01*
X66631Y-48507D01*
X66612Y-48450D01*
X66593Y-48421D01*
X66555Y-48393D01*
X66478Y-48393D01*
X66440Y-48421D01*
X66421Y-48450D01*
X66402Y-48507D01*
X66402Y-48650D01*
X66421Y-48707D01*
X66440Y-48736D01*
X66478Y-48764D01*
X66555Y-48764D01*
X66593Y-48736D01*
X66612Y-48707D01*
X66631Y-48650D01*
X66993Y-48393D02*
X66802Y-48393D01*
X66783Y-48679D01*
X66802Y-48650D01*
X66840Y-48621D01*
X66936Y-48621D01*
X66974Y-48650D01*
X66993Y-48679D01*
X67012Y-48736D01*
X67012Y-48879D01*
X66993Y-48936D01*
X66974Y-48964D01*
X66936Y-48993D01*
X66840Y-48993D01*
X66802Y-48964D01*
X66783Y-48936D01*
X67145Y-48393D02*
X67412Y-48393D01*
X67240Y-48993D01*
X67545Y-48450D02*
X67564Y-48421D01*
X67602Y-48393D01*
X67698Y-48393D01*
X67736Y-48421D01*
X67755Y-48450D01*
X67774Y-48507D01*
X67774Y-48564D01*
X67755Y-48650D01*
X67526Y-48993D01*
X67774Y-48993D01*
X67907Y-48393D02*
X68174Y-48993D01*
X68174Y-48393D02*
X67907Y-48993D01*
X68517Y-48993D02*
X68326Y-48993D01*
X68326Y-48393D01*
G54D21*
X57021Y-48190D02*
X57264Y-48190D01*
X57293Y-48179D01*
X57307Y-48167D01*
X57321Y-48143D01*
X57321Y-48095D01*
X57307Y-48071D01*
X57293Y-48060D01*
X57264Y-48048D01*
X57021Y-48048D01*
X57321Y-47798D02*
X57321Y-47940D01*
X57321Y-47869D02*
X57021Y-47869D01*
X57064Y-47893D01*
X57093Y-47917D01*
X57107Y-47940D01*
X67308Y-48977D02*
X67296Y-48989D01*
X67261Y-49001D01*
X67237Y-49001D01*
X67201Y-48989D01*
X67177Y-48965D01*
X67166Y-48942D01*
X67154Y-48894D01*
X67154Y-48858D01*
X67166Y-48811D01*
X67177Y-48787D01*
X67201Y-48763D01*
X67237Y-48751D01*
X67261Y-48751D01*
X67296Y-48763D01*
X67308Y-48775D01*
X67523Y-48751D02*
X67475Y-48751D01*
X67451Y-48763D01*
X67439Y-48775D01*
X67416Y-48811D01*
X67404Y-48858D01*
X67404Y-48954D01*
X67416Y-48977D01*
X67427Y-48989D01*
X67451Y-49001D01*
X67499Y-49001D01*
X67523Y-48989D01*
X67535Y-48977D01*
X67546Y-48954D01*
X67546Y-48894D01*
X67535Y-48870D01*
X67523Y-48858D01*
X67499Y-48846D01*
X67451Y-48846D01*
X67427Y-48858D01*
X67416Y-48870D01*
X67404Y-48894D01*
G54D22*
X58537Y-48029D02*
X58550Y-48038D01*
X58563Y-48064D01*
X58563Y-48081D01*
X58550Y-48106D01*
X58523Y-48124D01*
X58497Y-48132D01*
X58443Y-48141D01*
X58403Y-48141D01*
X58350Y-48132D01*
X58323Y-48124D01*
X58297Y-48106D01*
X58283Y-48081D01*
X58283Y-48064D01*
X58297Y-48038D01*
X58310Y-48029D01*
X58563Y-47858D02*
X58563Y-47961D01*
X58563Y-47909D02*
X58283Y-47909D01*
X58323Y-47926D01*
X58350Y-47944D01*
X58363Y-47961D01*
X56387Y-48029D02*
X56400Y-48038D01*
X56413Y-48064D01*
X56413Y-48081D01*
X56400Y-48106D01*
X56373Y-48124D01*
X56347Y-48132D01*
X56293Y-48141D01*
X56253Y-48141D01*
X56200Y-48132D01*
X56173Y-48124D01*
X56147Y-48106D01*
X56133Y-48081D01*
X56133Y-48064D01*
X56147Y-48038D01*
X56160Y-48029D01*
X56160Y-47961D02*
X56147Y-47952D01*
X56133Y-47935D01*
X56133Y-47892D01*
X56147Y-47875D01*
X56160Y-47866D01*
X56187Y-47858D01*
X56213Y-47858D01*
X56253Y-47866D01*
X56413Y-47969D01*
X56413Y-47858D01*
X57471Y-49187D02*
X57462Y-49200D01*
X57436Y-49213D01*
X57419Y-49213D01*
X57394Y-49200D01*
X57376Y-49173D01*
X57368Y-49147D01*
X57359Y-49093D01*
X57359Y-49053D01*
X57368Y-49000D01*
X57376Y-48973D01*
X57394Y-48947D01*
X57419Y-48933D01*
X57436Y-48933D01*
X57462Y-48947D01*
X57471Y-48960D01*
X57531Y-48933D02*
X57642Y-48933D01*
X57582Y-49040D01*
X57608Y-49040D01*
X57625Y-49053D01*
X57634Y-49067D01*
X57642Y-49093D01*
X57642Y-49160D01*
X57634Y-49187D01*
X57625Y-49200D01*
X57608Y-49213D01*
X57556Y-49213D01*
X57539Y-49200D01*
X57531Y-49187D01*
X57471Y-50487D02*
X57462Y-50500D01*
X57436Y-50513D01*
X57419Y-50513D01*
X57394Y-50500D01*
X57376Y-50473D01*
X57368Y-50447D01*
X57359Y-50393D01*
X57359Y-50353D01*
X57368Y-50300D01*
X57376Y-50273D01*
X57394Y-50247D01*
X57419Y-50233D01*
X57436Y-50233D01*
X57462Y-50247D01*
X57471Y-50260D01*
X57625Y-50327D02*
X57625Y-50513D01*
X57582Y-50220D02*
X57539Y-50420D01*
X57651Y-50420D01*
X67321Y-48387D02*
X67312Y-48400D01*
X67286Y-48413D01*
X67269Y-48413D01*
X67244Y-48400D01*
X67226Y-48373D01*
X67218Y-48347D01*
X67209Y-48293D01*
X67209Y-48253D01*
X67218Y-48200D01*
X67226Y-48173D01*
X67244Y-48147D01*
X67269Y-48133D01*
X67286Y-48133D01*
X67312Y-48147D01*
X67321Y-48160D01*
X67484Y-48133D02*
X67398Y-48133D01*
X67389Y-48267D01*
X67398Y-48253D01*
X67415Y-48240D01*
X67458Y-48240D01*
X67475Y-48253D01*
X67484Y-48267D01*
X67492Y-48293D01*
X67492Y-48360D01*
X67484Y-48387D01*
X67475Y-48400D01*
X67458Y-48413D01*
X67415Y-48413D01*
X67398Y-48400D01*
X67389Y-48387D01*
X57471Y-49913D02*
X57411Y-49780D01*
X57368Y-49913D02*
X57368Y-49633D01*
X57436Y-49633D01*
X57454Y-49647D01*
X57462Y-49660D01*
X57471Y-49687D01*
X57471Y-49727D01*
X57462Y-49753D01*
X57454Y-49767D01*
X57436Y-49780D01*
X57368Y-49780D01*
X57642Y-49913D02*
X57539Y-49913D01*
X57591Y-49913D02*
X57591Y-49633D01*
X57574Y-49673D01*
X57556Y-49700D01*
X57539Y-49713D01*
X56763Y-50129D02*
X56630Y-50189D01*
X56763Y-50232D02*
X56483Y-50232D01*
X56483Y-50164D01*
X56497Y-50146D01*
X56510Y-50138D01*
X56537Y-50129D01*
X56577Y-50129D01*
X56603Y-50138D01*
X56617Y-50146D01*
X56630Y-50164D01*
X56630Y-50232D01*
X56510Y-50061D02*
X56497Y-50052D01*
X56483Y-50035D01*
X56483Y-49992D01*
X56497Y-49975D01*
X56510Y-49966D01*
X56537Y-49958D01*
X56563Y-49958D01*
X56603Y-49966D01*
X56763Y-50069D01*
X56763Y-49958D01*
G54D15*
X58071Y-50922D02*
X57771Y-50922D01*
X57771Y-50850D01*
X57786Y-50807D01*
X57814Y-50779D01*
X57843Y-50764D01*
X57900Y-50750D01*
X57943Y-50750D01*
X58000Y-50764D01*
X58029Y-50779D01*
X58057Y-50807D01*
X58071Y-50850D01*
X58071Y-50922D01*
X58071Y-50464D02*
X58071Y-50636D01*
X58071Y-50550D02*
X57771Y-50550D01*
X57814Y-50579D01*
X57843Y-50607D01*
X57857Y-50636D01*
X58871Y-51278D02*
X59171Y-51278D01*
X58886Y-51278D02*
X58871Y-51249D01*
X58871Y-51192D01*
X58886Y-51163D01*
X58900Y-51149D01*
X58929Y-51135D01*
X59014Y-51135D01*
X59043Y-51149D01*
X59057Y-51163D01*
X59071Y-51192D01*
X59071Y-51249D01*
X59057Y-51278D01*
X59071Y-50964D02*
X59057Y-50992D01*
X59043Y-51007D01*
X59014Y-51021D01*
X58929Y-51021D01*
X58900Y-51007D01*
X58886Y-50992D01*
X58871Y-50964D01*
X58871Y-50921D01*
X58886Y-50892D01*
X58900Y-50878D01*
X58929Y-50864D01*
X59014Y-50864D01*
X59043Y-50878D01*
X59057Y-50892D01*
X59071Y-50921D01*
X59071Y-50964D01*
X58871Y-50764D02*
X59071Y-50707D01*
X58929Y-50650D01*
X59071Y-50593D01*
X58871Y-50536D01*
X59057Y-50307D02*
X59071Y-50336D01*
X59071Y-50393D01*
X59057Y-50422D01*
X59029Y-50436D01*
X58914Y-50436D01*
X58886Y-50422D01*
X58871Y-50393D01*
X58871Y-50336D01*
X58886Y-50307D01*
X58914Y-50293D01*
X58943Y-50293D01*
X58971Y-50436D01*
X59071Y-50165D02*
X58871Y-50165D01*
X58929Y-50165D02*
X58900Y-50150D01*
X58886Y-50136D01*
X58871Y-50107D01*
X58871Y-50079D01*
X60681Y-51702D02*
X60681Y-51202D01*
X60872Y-51202D01*
X60919Y-51226D01*
X60943Y-51250D01*
X60967Y-51298D01*
X60967Y-51369D01*
X60943Y-51417D01*
X60919Y-51440D01*
X60872Y-51464D01*
X60681Y-51464D01*
X61443Y-51702D02*
X61157Y-51702D01*
X61300Y-51702D02*
X61300Y-51202D01*
X61252Y-51274D01*
X61205Y-51321D01*
X61157Y-51345D01*
X55903Y-51805D02*
X55879Y-51829D01*
X55808Y-51852D01*
X55760Y-51852D01*
X55688Y-51829D01*
X55641Y-51781D01*
X55617Y-51733D01*
X55593Y-51638D01*
X55593Y-51567D01*
X55617Y-51471D01*
X55641Y-51424D01*
X55688Y-51376D01*
X55760Y-51352D01*
X55808Y-51352D01*
X55879Y-51376D01*
X55903Y-51400D01*
X56212Y-51352D02*
X56308Y-51352D01*
X56355Y-51376D01*
X56403Y-51424D01*
X56427Y-51519D01*
X56427Y-51686D01*
X56403Y-51781D01*
X56355Y-51829D01*
X56308Y-51852D01*
X56212Y-51852D01*
X56165Y-51829D01*
X56117Y-51781D01*
X56093Y-51686D01*
X56093Y-51519D01*
X56117Y-51424D01*
X56165Y-51376D01*
X56212Y-51352D01*
X56641Y-51852D02*
X56641Y-51352D01*
X56927Y-51852D01*
X56927Y-51352D01*
X57046Y-51900D02*
X57427Y-51900D01*
X57808Y-51852D02*
X57522Y-51852D01*
X57665Y-51852D02*
X57665Y-51352D01*
X57617Y-51424D01*
X57570Y-51471D01*
X57522Y-51495D01*
X60681Y-47652D02*
X60681Y-47152D01*
X60872Y-47152D01*
X60919Y-47176D01*
X60943Y-47200D01*
X60967Y-47248D01*
X60967Y-47319D01*
X60943Y-47367D01*
X60919Y-47390D01*
X60872Y-47414D01*
X60681Y-47414D01*
X61157Y-47200D02*
X61181Y-47176D01*
X61229Y-47152D01*
X61348Y-47152D01*
X61395Y-47176D01*
X61419Y-47200D01*
X61443Y-47248D01*
X61443Y-47295D01*
X61419Y-47367D01*
X61133Y-47652D01*
X61443Y-47652D01*
X55903Y-47605D02*
X55879Y-47629D01*
X55808Y-47652D01*
X55760Y-47652D01*
X55688Y-47629D01*
X55641Y-47581D01*
X55617Y-47533D01*
X55593Y-47438D01*
X55593Y-47367D01*
X55617Y-47271D01*
X55641Y-47224D01*
X55688Y-47176D01*
X55760Y-47152D01*
X55808Y-47152D01*
X55879Y-47176D01*
X55903Y-47200D01*
X56212Y-47152D02*
X56308Y-47152D01*
X56355Y-47176D01*
X56403Y-47224D01*
X56427Y-47319D01*
X56427Y-47486D01*
X56403Y-47581D01*
X56355Y-47629D01*
X56308Y-47652D01*
X56212Y-47652D01*
X56165Y-47629D01*
X56117Y-47581D01*
X56093Y-47486D01*
X56093Y-47319D01*
X56117Y-47224D01*
X56165Y-47176D01*
X56212Y-47152D01*
X56641Y-47652D02*
X56641Y-47152D01*
X56927Y-47652D01*
X56927Y-47152D01*
X57046Y-47700D02*
X57427Y-47700D01*
X57522Y-47200D02*
X57546Y-47176D01*
X57594Y-47152D01*
X57713Y-47152D01*
X57760Y-47176D01*
X57784Y-47200D01*
X57808Y-47248D01*
X57808Y-47295D01*
X57784Y-47367D01*
X57498Y-47652D01*
X57808Y-47652D01*
X74802Y-49769D02*
X74302Y-49769D01*
X74302Y-49578D01*
X74326Y-49531D01*
X74350Y-49507D01*
X74398Y-49483D01*
X74469Y-49483D01*
X74517Y-49507D01*
X74540Y-49531D01*
X74564Y-49578D01*
X74564Y-49769D01*
X74302Y-49317D02*
X74302Y-49007D01*
X74493Y-49174D01*
X74493Y-49102D01*
X74517Y-49055D01*
X74540Y-49031D01*
X74588Y-49007D01*
X74707Y-49007D01*
X74755Y-49031D01*
X74779Y-49055D01*
X74802Y-49102D01*
X74802Y-49245D01*
X74779Y-49293D01*
X74755Y-49317D01*
X75102Y-51616D02*
X75460Y-51616D01*
X75531Y-51640D01*
X75579Y-51688D01*
X75602Y-51759D01*
X75602Y-51807D01*
X75102Y-51449D02*
X75102Y-51164D01*
X75602Y-51307D02*
X75102Y-51307D01*
X75460Y-51021D02*
X75460Y-50783D01*
X75602Y-51068D02*
X75102Y-50902D01*
X75602Y-50735D01*
X75126Y-50306D02*
X75102Y-50354D01*
X75102Y-50425D01*
X75126Y-50497D01*
X75174Y-50544D01*
X75221Y-50568D01*
X75317Y-50592D01*
X75388Y-50592D01*
X75483Y-50568D01*
X75531Y-50544D01*
X75579Y-50497D01*
X75602Y-50425D01*
X75602Y-50377D01*
X75579Y-50306D01*
X75555Y-50282D01*
X75388Y-50282D01*
X75388Y-50377D01*
X75412Y-50068D02*
X75412Y-49687D01*
X75602Y-49449D02*
X75102Y-49449D01*
X75102Y-49258D01*
X75126Y-49211D01*
X75150Y-49187D01*
X75198Y-49163D01*
X75269Y-49163D01*
X75317Y-49187D01*
X75340Y-49211D01*
X75364Y-49258D01*
X75364Y-49449D01*
X75102Y-48854D02*
X75102Y-48758D01*
X75126Y-48711D01*
X75174Y-48663D01*
X75269Y-48639D01*
X75436Y-48639D01*
X75531Y-48663D01*
X75579Y-48711D01*
X75602Y-48758D01*
X75602Y-48854D01*
X75579Y-48901D01*
X75531Y-48949D01*
X75436Y-48973D01*
X75269Y-48973D01*
X75174Y-48949D01*
X75126Y-48901D01*
X75102Y-48854D01*
X75102Y-48473D02*
X75602Y-48354D01*
X75245Y-48258D01*
X75602Y-48163D01*
X75102Y-48044D01*
X75340Y-47854D02*
X75340Y-47687D01*
X75602Y-47616D02*
X75602Y-47854D01*
X75102Y-47854D01*
X75102Y-47616D01*
X75602Y-47116D02*
X75364Y-47283D01*
X75602Y-47402D02*
X75102Y-47402D01*
X75102Y-47211D01*
X75126Y-47164D01*
X75150Y-47140D01*
X75198Y-47116D01*
X75269Y-47116D01*
X75317Y-47140D01*
X75340Y-47164D01*
X75364Y-47211D01*
X75364Y-47402D01*
X74802Y-42219D02*
X74302Y-42219D01*
X74302Y-42028D01*
X74326Y-41981D01*
X74350Y-41957D01*
X74398Y-41933D01*
X74469Y-41933D01*
X74517Y-41957D01*
X74540Y-41981D01*
X74564Y-42028D01*
X74564Y-42219D01*
X74302Y-41767D02*
X74302Y-41457D01*
X74493Y-41624D01*
X74493Y-41552D01*
X74517Y-41505D01*
X74540Y-41481D01*
X74588Y-41457D01*
X74707Y-41457D01*
X74755Y-41481D01*
X74779Y-41505D01*
X74802Y-41552D01*
X74802Y-41695D01*
X74779Y-41743D01*
X74755Y-41767D01*
X75102Y-44066D02*
X75460Y-44066D01*
X75531Y-44090D01*
X75579Y-44138D01*
X75602Y-44209D01*
X75602Y-44257D01*
X75102Y-43899D02*
X75102Y-43614D01*
X75602Y-43757D02*
X75102Y-43757D01*
X75460Y-43471D02*
X75460Y-43233D01*
X75602Y-43518D02*
X75102Y-43352D01*
X75602Y-43185D01*
X75126Y-42756D02*
X75102Y-42804D01*
X75102Y-42875D01*
X75126Y-42947D01*
X75174Y-42994D01*
X75221Y-43018D01*
X75317Y-43042D01*
X75388Y-43042D01*
X75483Y-43018D01*
X75531Y-42994D01*
X75579Y-42947D01*
X75602Y-42875D01*
X75602Y-42827D01*
X75579Y-42756D01*
X75555Y-42732D01*
X75388Y-42732D01*
X75388Y-42827D01*
X75412Y-42518D02*
X75412Y-42137D01*
X75602Y-41899D02*
X75102Y-41899D01*
X75102Y-41708D01*
X75126Y-41661D01*
X75150Y-41637D01*
X75198Y-41613D01*
X75269Y-41613D01*
X75317Y-41637D01*
X75340Y-41661D01*
X75364Y-41708D01*
X75364Y-41899D01*
X75102Y-41304D02*
X75102Y-41208D01*
X75126Y-41161D01*
X75174Y-41113D01*
X75269Y-41089D01*
X75436Y-41089D01*
X75531Y-41113D01*
X75579Y-41161D01*
X75602Y-41208D01*
X75602Y-41304D01*
X75579Y-41351D01*
X75531Y-41399D01*
X75436Y-41423D01*
X75269Y-41423D01*
X75174Y-41399D01*
X75126Y-41351D01*
X75102Y-41304D01*
X75102Y-40923D02*
X75602Y-40804D01*
X75245Y-40708D01*
X75602Y-40613D01*
X75102Y-40494D01*
X75340Y-40304D02*
X75340Y-40137D01*
X75602Y-40066D02*
X75602Y-40304D01*
X75102Y-40304D01*
X75102Y-40066D01*
X75602Y-39566D02*
X75364Y-39733D01*
X75602Y-39852D02*
X75102Y-39852D01*
X75102Y-39661D01*
X75126Y-39614D01*
X75150Y-39590D01*
X75198Y-39566D01*
X75269Y-39566D01*
X75317Y-39590D01*
X75340Y-39614D01*
X75364Y-39661D01*
X75364Y-39852D01*
X60681Y-40102D02*
X60681Y-39602D01*
X60872Y-39602D01*
X60919Y-39626D01*
X60943Y-39650D01*
X60967Y-39698D01*
X60967Y-39769D01*
X60943Y-39817D01*
X60919Y-39840D01*
X60872Y-39864D01*
X60681Y-39864D01*
X61157Y-39650D02*
X61181Y-39626D01*
X61229Y-39602D01*
X61348Y-39602D01*
X61395Y-39626D01*
X61419Y-39650D01*
X61443Y-39698D01*
X61443Y-39745D01*
X61419Y-39817D01*
X61133Y-40102D01*
X61443Y-40102D01*
X55903Y-40055D02*
X55879Y-40079D01*
X55808Y-40102D01*
X55760Y-40102D01*
X55688Y-40079D01*
X55641Y-40031D01*
X55617Y-39983D01*
X55593Y-39888D01*
X55593Y-39817D01*
X55617Y-39721D01*
X55641Y-39674D01*
X55688Y-39626D01*
X55760Y-39602D01*
X55808Y-39602D01*
X55879Y-39626D01*
X55903Y-39650D01*
X56212Y-39602D02*
X56308Y-39602D01*
X56355Y-39626D01*
X56403Y-39674D01*
X56427Y-39769D01*
X56427Y-39936D01*
X56403Y-40031D01*
X56355Y-40079D01*
X56308Y-40102D01*
X56212Y-40102D01*
X56165Y-40079D01*
X56117Y-40031D01*
X56093Y-39936D01*
X56093Y-39769D01*
X56117Y-39674D01*
X56165Y-39626D01*
X56212Y-39602D01*
X56641Y-40102D02*
X56641Y-39602D01*
X56927Y-40102D01*
X56927Y-39602D01*
X57046Y-40150D02*
X57427Y-40150D01*
X57522Y-39650D02*
X57546Y-39626D01*
X57594Y-39602D01*
X57713Y-39602D01*
X57760Y-39626D01*
X57784Y-39650D01*
X57808Y-39698D01*
X57808Y-39745D01*
X57784Y-39817D01*
X57498Y-40102D01*
X57808Y-40102D01*
X60681Y-44152D02*
X60681Y-43652D01*
X60872Y-43652D01*
X60919Y-43676D01*
X60943Y-43700D01*
X60967Y-43748D01*
X60967Y-43819D01*
X60943Y-43867D01*
X60919Y-43890D01*
X60872Y-43914D01*
X60681Y-43914D01*
X61443Y-44152D02*
X61157Y-44152D01*
X61300Y-44152D02*
X61300Y-43652D01*
X61252Y-43724D01*
X61205Y-43771D01*
X61157Y-43795D01*
X55903Y-44255D02*
X55879Y-44279D01*
X55808Y-44302D01*
X55760Y-44302D01*
X55688Y-44279D01*
X55641Y-44231D01*
X55617Y-44183D01*
X55593Y-44088D01*
X55593Y-44017D01*
X55617Y-43921D01*
X55641Y-43874D01*
X55688Y-43826D01*
X55760Y-43802D01*
X55808Y-43802D01*
X55879Y-43826D01*
X55903Y-43850D01*
X56212Y-43802D02*
X56308Y-43802D01*
X56355Y-43826D01*
X56403Y-43874D01*
X56427Y-43969D01*
X56427Y-44136D01*
X56403Y-44231D01*
X56355Y-44279D01*
X56308Y-44302D01*
X56212Y-44302D01*
X56165Y-44279D01*
X56117Y-44231D01*
X56093Y-44136D01*
X56093Y-43969D01*
X56117Y-43874D01*
X56165Y-43826D01*
X56212Y-43802D01*
X56641Y-44302D02*
X56641Y-43802D01*
X56927Y-44302D01*
X56927Y-43802D01*
X57046Y-44350D02*
X57427Y-44350D01*
X57808Y-44302D02*
X57522Y-44302D01*
X57665Y-44302D02*
X57665Y-43802D01*
X57617Y-43874D01*
X57570Y-43921D01*
X57522Y-43945D01*
X58071Y-43372D02*
X57771Y-43372D01*
X57771Y-43300D01*
X57786Y-43257D01*
X57814Y-43229D01*
X57843Y-43214D01*
X57900Y-43200D01*
X57943Y-43200D01*
X58000Y-43214D01*
X58029Y-43229D01*
X58057Y-43257D01*
X58071Y-43300D01*
X58071Y-43372D01*
X58071Y-42914D02*
X58071Y-43086D01*
X58071Y-43000D02*
X57771Y-43000D01*
X57814Y-43029D01*
X57843Y-43057D01*
X57857Y-43086D01*
X58871Y-43728D02*
X59171Y-43728D01*
X58886Y-43728D02*
X58871Y-43699D01*
X58871Y-43642D01*
X58886Y-43613D01*
X58900Y-43599D01*
X58929Y-43585D01*
X59014Y-43585D01*
X59043Y-43599D01*
X59057Y-43613D01*
X59071Y-43642D01*
X59071Y-43699D01*
X59057Y-43728D01*
X59071Y-43414D02*
X59057Y-43442D01*
X59043Y-43457D01*
X59014Y-43471D01*
X58929Y-43471D01*
X58900Y-43457D01*
X58886Y-43442D01*
X58871Y-43414D01*
X58871Y-43371D01*
X58886Y-43342D01*
X58900Y-43328D01*
X58929Y-43314D01*
X59014Y-43314D01*
X59043Y-43328D01*
X59057Y-43342D01*
X59071Y-43371D01*
X59071Y-43414D01*
X58871Y-43214D02*
X59071Y-43157D01*
X58929Y-43100D01*
X59071Y-43043D01*
X58871Y-42986D01*
X59057Y-42757D02*
X59071Y-42786D01*
X59071Y-42843D01*
X59057Y-42872D01*
X59029Y-42886D01*
X58914Y-42886D01*
X58886Y-42872D01*
X58871Y-42843D01*
X58871Y-42786D01*
X58886Y-42757D01*
X58914Y-42743D01*
X58943Y-42743D01*
X58971Y-42886D01*
X59071Y-42615D02*
X58871Y-42615D01*
X58929Y-42615D02*
X58900Y-42600D01*
X58886Y-42586D01*
X58871Y-42557D01*
X58871Y-42529D01*
G54D22*
X56763Y-42579D02*
X56630Y-42639D01*
X56763Y-42682D02*
X56483Y-42682D01*
X56483Y-42614D01*
X56497Y-42596D01*
X56510Y-42588D01*
X56537Y-42579D01*
X56577Y-42579D01*
X56603Y-42588D01*
X56617Y-42596D01*
X56630Y-42614D01*
X56630Y-42682D01*
X56510Y-42511D02*
X56497Y-42502D01*
X56483Y-42485D01*
X56483Y-42442D01*
X56497Y-42425D01*
X56510Y-42416D01*
X56537Y-42408D01*
X56563Y-42408D01*
X56603Y-42416D01*
X56763Y-42519D01*
X56763Y-42408D01*
X57471Y-42363D02*
X57411Y-42230D01*
X57368Y-42363D02*
X57368Y-42083D01*
X57436Y-42083D01*
X57454Y-42097D01*
X57462Y-42110D01*
X57471Y-42137D01*
X57471Y-42177D01*
X57462Y-42203D01*
X57454Y-42217D01*
X57436Y-42230D01*
X57368Y-42230D01*
X57642Y-42363D02*
X57539Y-42363D01*
X57591Y-42363D02*
X57591Y-42083D01*
X57574Y-42123D01*
X57556Y-42150D01*
X57539Y-42163D01*
X67321Y-40837D02*
X67312Y-40850D01*
X67286Y-40863D01*
X67269Y-40863D01*
X67244Y-40850D01*
X67226Y-40823D01*
X67218Y-40797D01*
X67209Y-40743D01*
X67209Y-40703D01*
X67218Y-40650D01*
X67226Y-40623D01*
X67244Y-40597D01*
X67269Y-40583D01*
X67286Y-40583D01*
X67312Y-40597D01*
X67321Y-40610D01*
X67484Y-40583D02*
X67398Y-40583D01*
X67389Y-40717D01*
X67398Y-40703D01*
X67415Y-40690D01*
X67458Y-40690D01*
X67475Y-40703D01*
X67484Y-40717D01*
X67492Y-40743D01*
X67492Y-40810D01*
X67484Y-40837D01*
X67475Y-40850D01*
X67458Y-40863D01*
X67415Y-40863D01*
X67398Y-40850D01*
X67389Y-40837D01*
X57471Y-42937D02*
X57462Y-42950D01*
X57436Y-42963D01*
X57419Y-42963D01*
X57394Y-42950D01*
X57376Y-42923D01*
X57368Y-42897D01*
X57359Y-42843D01*
X57359Y-42803D01*
X57368Y-42750D01*
X57376Y-42723D01*
X57394Y-42697D01*
X57419Y-42683D01*
X57436Y-42683D01*
X57462Y-42697D01*
X57471Y-42710D01*
X57625Y-42777D02*
X57625Y-42963D01*
X57582Y-42670D02*
X57539Y-42870D01*
X57651Y-42870D01*
X57471Y-41637D02*
X57462Y-41650D01*
X57436Y-41663D01*
X57419Y-41663D01*
X57394Y-41650D01*
X57376Y-41623D01*
X57368Y-41597D01*
X57359Y-41543D01*
X57359Y-41503D01*
X57368Y-41450D01*
X57376Y-41423D01*
X57394Y-41397D01*
X57419Y-41383D01*
X57436Y-41383D01*
X57462Y-41397D01*
X57471Y-41410D01*
X57531Y-41383D02*
X57642Y-41383D01*
X57582Y-41490D01*
X57608Y-41490D01*
X57625Y-41503D01*
X57634Y-41517D01*
X57642Y-41543D01*
X57642Y-41610D01*
X57634Y-41637D01*
X57625Y-41650D01*
X57608Y-41663D01*
X57556Y-41663D01*
X57539Y-41650D01*
X57531Y-41637D01*
X56387Y-40479D02*
X56400Y-40488D01*
X56413Y-40514D01*
X56413Y-40531D01*
X56400Y-40556D01*
X56373Y-40574D01*
X56347Y-40582D01*
X56293Y-40591D01*
X56253Y-40591D01*
X56200Y-40582D01*
X56173Y-40574D01*
X56147Y-40556D01*
X56133Y-40531D01*
X56133Y-40514D01*
X56147Y-40488D01*
X56160Y-40479D01*
X56160Y-40411D02*
X56147Y-40402D01*
X56133Y-40385D01*
X56133Y-40342D01*
X56147Y-40325D01*
X56160Y-40316D01*
X56187Y-40308D01*
X56213Y-40308D01*
X56253Y-40316D01*
X56413Y-40419D01*
X56413Y-40308D01*
X58537Y-40479D02*
X58550Y-40488D01*
X58563Y-40514D01*
X58563Y-40531D01*
X58550Y-40556D01*
X58523Y-40574D01*
X58497Y-40582D01*
X58443Y-40591D01*
X58403Y-40591D01*
X58350Y-40582D01*
X58323Y-40574D01*
X58297Y-40556D01*
X58283Y-40531D01*
X58283Y-40514D01*
X58297Y-40488D01*
X58310Y-40479D01*
X58563Y-40308D02*
X58563Y-40411D01*
X58563Y-40359D02*
X58283Y-40359D01*
X58323Y-40376D01*
X58350Y-40394D01*
X58363Y-40411D01*
G54D21*
X67308Y-41427D02*
X67296Y-41439D01*
X67261Y-41451D01*
X67237Y-41451D01*
X67201Y-41439D01*
X67177Y-41415D01*
X67166Y-41392D01*
X67154Y-41344D01*
X67154Y-41308D01*
X67166Y-41261D01*
X67177Y-41237D01*
X67201Y-41213D01*
X67237Y-41201D01*
X67261Y-41201D01*
X67296Y-41213D01*
X67308Y-41225D01*
X67523Y-41201D02*
X67475Y-41201D01*
X67451Y-41213D01*
X67439Y-41225D01*
X67416Y-41261D01*
X67404Y-41308D01*
X67404Y-41404D01*
X67416Y-41427D01*
X67427Y-41439D01*
X67451Y-41451D01*
X67499Y-41451D01*
X67523Y-41439D01*
X67535Y-41427D01*
X67546Y-41404D01*
X67546Y-41344D01*
X67535Y-41320D01*
X67523Y-41308D01*
X67499Y-41296D01*
X67451Y-41296D01*
X67427Y-41308D01*
X67416Y-41320D01*
X67404Y-41344D01*
X57021Y-40640D02*
X57264Y-40640D01*
X57293Y-40629D01*
X57307Y-40617D01*
X57321Y-40593D01*
X57321Y-40545D01*
X57307Y-40521D01*
X57293Y-40510D01*
X57264Y-40498D01*
X57021Y-40498D01*
X57321Y-40248D02*
X57321Y-40390D01*
X57321Y-40319D02*
X57021Y-40319D01*
X57064Y-40343D01*
X57093Y-40367D01*
X57107Y-40390D01*
G54D20*
X66745Y-42343D02*
X66745Y-42829D01*
X66764Y-42886D01*
X66783Y-42914D01*
X66821Y-42943D01*
X66898Y-42943D01*
X66936Y-42914D01*
X66955Y-42886D01*
X66974Y-42829D01*
X66974Y-42343D01*
X67145Y-42400D02*
X67164Y-42371D01*
X67202Y-42343D01*
X67298Y-42343D01*
X67336Y-42371D01*
X67355Y-42400D01*
X67374Y-42457D01*
X67374Y-42514D01*
X67355Y-42600D01*
X67126Y-42943D01*
X67374Y-42943D01*
X65602Y-40843D02*
X65869Y-41443D01*
X65869Y-40843D02*
X65602Y-41443D01*
X66250Y-41386D02*
X66231Y-41414D01*
X66174Y-41443D01*
X66136Y-41443D01*
X66078Y-41414D01*
X66040Y-41357D01*
X66021Y-41300D01*
X66002Y-41186D01*
X66002Y-41100D01*
X66021Y-40986D01*
X66040Y-40929D01*
X66078Y-40871D01*
X66136Y-40843D01*
X66174Y-40843D01*
X66231Y-40871D01*
X66250Y-40900D01*
X66440Y-41443D02*
X66516Y-41443D01*
X66555Y-41414D01*
X66574Y-41386D01*
X66612Y-41300D01*
X66631Y-41186D01*
X66631Y-40957D01*
X66612Y-40900D01*
X66593Y-40871D01*
X66555Y-40843D01*
X66478Y-40843D01*
X66440Y-40871D01*
X66421Y-40900D01*
X66402Y-40957D01*
X66402Y-41100D01*
X66421Y-41157D01*
X66440Y-41186D01*
X66478Y-41214D01*
X66555Y-41214D01*
X66593Y-41186D01*
X66612Y-41157D01*
X66631Y-41100D01*
X66993Y-40843D02*
X66802Y-40843D01*
X66783Y-41129D01*
X66802Y-41100D01*
X66840Y-41071D01*
X66936Y-41071D01*
X66974Y-41100D01*
X66993Y-41129D01*
X67012Y-41186D01*
X67012Y-41329D01*
X66993Y-41386D01*
X66974Y-41414D01*
X66936Y-41443D01*
X66840Y-41443D01*
X66802Y-41414D01*
X66783Y-41386D01*
X67145Y-40843D02*
X67412Y-40843D01*
X67240Y-41443D01*
X67545Y-40900D02*
X67564Y-40871D01*
X67602Y-40843D01*
X67698Y-40843D01*
X67736Y-40871D01*
X67755Y-40900D01*
X67774Y-40957D01*
X67774Y-41014D01*
X67755Y-41100D01*
X67526Y-41443D01*
X67774Y-41443D01*
X67907Y-40843D02*
X68174Y-41443D01*
X68174Y-40843D02*
X67907Y-41443D01*
X68517Y-41443D02*
X68326Y-41443D01*
X68326Y-40843D01*
G54D15*
X74802Y-34669D02*
X74302Y-34669D01*
X74302Y-34478D01*
X74326Y-34431D01*
X74350Y-34407D01*
X74398Y-34383D01*
X74469Y-34383D01*
X74517Y-34407D01*
X74540Y-34431D01*
X74564Y-34478D01*
X74564Y-34669D01*
X74302Y-34217D02*
X74302Y-33907D01*
X74493Y-34074D01*
X74493Y-34002D01*
X74517Y-33955D01*
X74540Y-33931D01*
X74588Y-33907D01*
X74707Y-33907D01*
X74755Y-33931D01*
X74779Y-33955D01*
X74802Y-34002D01*
X74802Y-34145D01*
X74779Y-34193D01*
X74755Y-34217D01*
X75102Y-36516D02*
X75460Y-36516D01*
X75531Y-36540D01*
X75579Y-36588D01*
X75602Y-36659D01*
X75602Y-36707D01*
X75102Y-36349D02*
X75102Y-36064D01*
X75602Y-36207D02*
X75102Y-36207D01*
X75460Y-35921D02*
X75460Y-35683D01*
X75602Y-35968D02*
X75102Y-35802D01*
X75602Y-35635D01*
X75126Y-35206D02*
X75102Y-35254D01*
X75102Y-35325D01*
X75126Y-35397D01*
X75174Y-35444D01*
X75221Y-35468D01*
X75317Y-35492D01*
X75388Y-35492D01*
X75483Y-35468D01*
X75531Y-35444D01*
X75579Y-35397D01*
X75602Y-35325D01*
X75602Y-35277D01*
X75579Y-35206D01*
X75555Y-35182D01*
X75388Y-35182D01*
X75388Y-35277D01*
X75412Y-34968D02*
X75412Y-34587D01*
X75602Y-34349D02*
X75102Y-34349D01*
X75102Y-34158D01*
X75126Y-34111D01*
X75150Y-34087D01*
X75198Y-34063D01*
X75269Y-34063D01*
X75317Y-34087D01*
X75340Y-34111D01*
X75364Y-34158D01*
X75364Y-34349D01*
X75102Y-33754D02*
X75102Y-33658D01*
X75126Y-33611D01*
X75174Y-33563D01*
X75269Y-33539D01*
X75436Y-33539D01*
X75531Y-33563D01*
X75579Y-33611D01*
X75602Y-33658D01*
X75602Y-33754D01*
X75579Y-33801D01*
X75531Y-33849D01*
X75436Y-33873D01*
X75269Y-33873D01*
X75174Y-33849D01*
X75126Y-33801D01*
X75102Y-33754D01*
X75102Y-33373D02*
X75602Y-33254D01*
X75245Y-33158D01*
X75602Y-33063D01*
X75102Y-32944D01*
X75340Y-32754D02*
X75340Y-32587D01*
X75602Y-32516D02*
X75602Y-32754D01*
X75102Y-32754D01*
X75102Y-32516D01*
X75602Y-32016D02*
X75364Y-32183D01*
X75602Y-32302D02*
X75102Y-32302D01*
X75102Y-32111D01*
X75126Y-32064D01*
X75150Y-32040D01*
X75198Y-32016D01*
X75269Y-32016D01*
X75317Y-32040D01*
X75340Y-32064D01*
X75364Y-32111D01*
X75364Y-32302D01*
X60681Y-32552D02*
X60681Y-32052D01*
X60872Y-32052D01*
X60919Y-32076D01*
X60943Y-32100D01*
X60967Y-32148D01*
X60967Y-32219D01*
X60943Y-32267D01*
X60919Y-32290D01*
X60872Y-32314D01*
X60681Y-32314D01*
X61157Y-32100D02*
X61181Y-32076D01*
X61229Y-32052D01*
X61348Y-32052D01*
X61395Y-32076D01*
X61419Y-32100D01*
X61443Y-32148D01*
X61443Y-32195D01*
X61419Y-32267D01*
X61133Y-32552D01*
X61443Y-32552D01*
X55903Y-32505D02*
X55879Y-32529D01*
X55808Y-32552D01*
X55760Y-32552D01*
X55688Y-32529D01*
X55641Y-32481D01*
X55617Y-32433D01*
X55593Y-32338D01*
X55593Y-32267D01*
X55617Y-32171D01*
X55641Y-32124D01*
X55688Y-32076D01*
X55760Y-32052D01*
X55808Y-32052D01*
X55879Y-32076D01*
X55903Y-32100D01*
X56212Y-32052D02*
X56308Y-32052D01*
X56355Y-32076D01*
X56403Y-32124D01*
X56427Y-32219D01*
X56427Y-32386D01*
X56403Y-32481D01*
X56355Y-32529D01*
X56308Y-32552D01*
X56212Y-32552D01*
X56165Y-32529D01*
X56117Y-32481D01*
X56093Y-32386D01*
X56093Y-32219D01*
X56117Y-32124D01*
X56165Y-32076D01*
X56212Y-32052D01*
X56641Y-32552D02*
X56641Y-32052D01*
X56927Y-32552D01*
X56927Y-32052D01*
X57046Y-32600D02*
X57427Y-32600D01*
X57522Y-32100D02*
X57546Y-32076D01*
X57594Y-32052D01*
X57713Y-32052D01*
X57760Y-32076D01*
X57784Y-32100D01*
X57808Y-32148D01*
X57808Y-32195D01*
X57784Y-32267D01*
X57498Y-32552D01*
X57808Y-32552D01*
X60681Y-36602D02*
X60681Y-36102D01*
X60872Y-36102D01*
X60919Y-36126D01*
X60943Y-36150D01*
X60967Y-36198D01*
X60967Y-36269D01*
X60943Y-36317D01*
X60919Y-36340D01*
X60872Y-36364D01*
X60681Y-36364D01*
X61443Y-36602D02*
X61157Y-36602D01*
X61300Y-36602D02*
X61300Y-36102D01*
X61252Y-36174D01*
X61205Y-36221D01*
X61157Y-36245D01*
X55903Y-36705D02*
X55879Y-36729D01*
X55808Y-36752D01*
X55760Y-36752D01*
X55688Y-36729D01*
X55641Y-36681D01*
X55617Y-36633D01*
X55593Y-36538D01*
X55593Y-36467D01*
X55617Y-36371D01*
X55641Y-36324D01*
X55688Y-36276D01*
X55760Y-36252D01*
X55808Y-36252D01*
X55879Y-36276D01*
X55903Y-36300D01*
X56212Y-36252D02*
X56308Y-36252D01*
X56355Y-36276D01*
X56403Y-36324D01*
X56427Y-36419D01*
X56427Y-36586D01*
X56403Y-36681D01*
X56355Y-36729D01*
X56308Y-36752D01*
X56212Y-36752D01*
X56165Y-36729D01*
X56117Y-36681D01*
X56093Y-36586D01*
X56093Y-36419D01*
X56117Y-36324D01*
X56165Y-36276D01*
X56212Y-36252D01*
X56641Y-36752D02*
X56641Y-36252D01*
X56927Y-36752D01*
X56927Y-36252D01*
X57046Y-36800D02*
X57427Y-36800D01*
X57808Y-36752D02*
X57522Y-36752D01*
X57665Y-36752D02*
X57665Y-36252D01*
X57617Y-36324D01*
X57570Y-36371D01*
X57522Y-36395D01*
X58071Y-35822D02*
X57771Y-35822D01*
X57771Y-35750D01*
X57786Y-35707D01*
X57814Y-35679D01*
X57843Y-35664D01*
X57900Y-35650D01*
X57943Y-35650D01*
X58000Y-35664D01*
X58029Y-35679D01*
X58057Y-35707D01*
X58071Y-35750D01*
X58071Y-35822D01*
X58071Y-35364D02*
X58071Y-35536D01*
X58071Y-35450D02*
X57771Y-35450D01*
X57814Y-35479D01*
X57843Y-35507D01*
X57857Y-35536D01*
X58871Y-36178D02*
X59171Y-36178D01*
X58886Y-36178D02*
X58871Y-36149D01*
X58871Y-36092D01*
X58886Y-36063D01*
X58900Y-36049D01*
X58929Y-36035D01*
X59014Y-36035D01*
X59043Y-36049D01*
X59057Y-36063D01*
X59071Y-36092D01*
X59071Y-36149D01*
X59057Y-36178D01*
X59071Y-35864D02*
X59057Y-35892D01*
X59043Y-35907D01*
X59014Y-35921D01*
X58929Y-35921D01*
X58900Y-35907D01*
X58886Y-35892D01*
X58871Y-35864D01*
X58871Y-35821D01*
X58886Y-35792D01*
X58900Y-35778D01*
X58929Y-35764D01*
X59014Y-35764D01*
X59043Y-35778D01*
X59057Y-35792D01*
X59071Y-35821D01*
X59071Y-35864D01*
X58871Y-35664D02*
X59071Y-35607D01*
X58929Y-35550D01*
X59071Y-35493D01*
X58871Y-35436D01*
X59057Y-35207D02*
X59071Y-35236D01*
X59071Y-35293D01*
X59057Y-35322D01*
X59029Y-35336D01*
X58914Y-35336D01*
X58886Y-35322D01*
X58871Y-35293D01*
X58871Y-35236D01*
X58886Y-35207D01*
X58914Y-35193D01*
X58943Y-35193D01*
X58971Y-35336D01*
X59071Y-35065D02*
X58871Y-35065D01*
X58929Y-35065D02*
X58900Y-35050D01*
X58886Y-35036D01*
X58871Y-35007D01*
X58871Y-34979D01*
G54D22*
X56763Y-35029D02*
X56630Y-35089D01*
X56763Y-35132D02*
X56483Y-35132D01*
X56483Y-35064D01*
X56497Y-35046D01*
X56510Y-35038D01*
X56537Y-35029D01*
X56577Y-35029D01*
X56603Y-35038D01*
X56617Y-35046D01*
X56630Y-35064D01*
X56630Y-35132D01*
X56510Y-34961D02*
X56497Y-34952D01*
X56483Y-34935D01*
X56483Y-34892D01*
X56497Y-34875D01*
X56510Y-34866D01*
X56537Y-34858D01*
X56563Y-34858D01*
X56603Y-34866D01*
X56763Y-34969D01*
X56763Y-34858D01*
X57471Y-34813D02*
X57411Y-34680D01*
X57368Y-34813D02*
X57368Y-34533D01*
X57436Y-34533D01*
X57454Y-34547D01*
X57462Y-34560D01*
X57471Y-34587D01*
X57471Y-34627D01*
X57462Y-34653D01*
X57454Y-34667D01*
X57436Y-34680D01*
X57368Y-34680D01*
X57642Y-34813D02*
X57539Y-34813D01*
X57591Y-34813D02*
X57591Y-34533D01*
X57574Y-34573D01*
X57556Y-34600D01*
X57539Y-34613D01*
X67321Y-33287D02*
X67312Y-33300D01*
X67286Y-33313D01*
X67269Y-33313D01*
X67244Y-33300D01*
X67226Y-33273D01*
X67218Y-33247D01*
X67209Y-33193D01*
X67209Y-33153D01*
X67218Y-33100D01*
X67226Y-33073D01*
X67244Y-33047D01*
X67269Y-33033D01*
X67286Y-33033D01*
X67312Y-33047D01*
X67321Y-33060D01*
X67484Y-33033D02*
X67398Y-33033D01*
X67389Y-33167D01*
X67398Y-33153D01*
X67415Y-33140D01*
X67458Y-33140D01*
X67475Y-33153D01*
X67484Y-33167D01*
X67492Y-33193D01*
X67492Y-33260D01*
X67484Y-33287D01*
X67475Y-33300D01*
X67458Y-33313D01*
X67415Y-33313D01*
X67398Y-33300D01*
X67389Y-33287D01*
X57471Y-35387D02*
X57462Y-35400D01*
X57436Y-35413D01*
X57419Y-35413D01*
X57394Y-35400D01*
X57376Y-35373D01*
X57368Y-35347D01*
X57359Y-35293D01*
X57359Y-35253D01*
X57368Y-35200D01*
X57376Y-35173D01*
X57394Y-35147D01*
X57419Y-35133D01*
X57436Y-35133D01*
X57462Y-35147D01*
X57471Y-35160D01*
X57625Y-35227D02*
X57625Y-35413D01*
X57582Y-35120D02*
X57539Y-35320D01*
X57651Y-35320D01*
X57471Y-34087D02*
X57462Y-34100D01*
X57436Y-34113D01*
X57419Y-34113D01*
X57394Y-34100D01*
X57376Y-34073D01*
X57368Y-34047D01*
X57359Y-33993D01*
X57359Y-33953D01*
X57368Y-33900D01*
X57376Y-33873D01*
X57394Y-33847D01*
X57419Y-33833D01*
X57436Y-33833D01*
X57462Y-33847D01*
X57471Y-33860D01*
X57531Y-33833D02*
X57642Y-33833D01*
X57582Y-33940D01*
X57608Y-33940D01*
X57625Y-33953D01*
X57634Y-33967D01*
X57642Y-33993D01*
X57642Y-34060D01*
X57634Y-34087D01*
X57625Y-34100D01*
X57608Y-34113D01*
X57556Y-34113D01*
X57539Y-34100D01*
X57531Y-34087D01*
X56387Y-32929D02*
X56400Y-32938D01*
X56413Y-32964D01*
X56413Y-32981D01*
X56400Y-33006D01*
X56373Y-33024D01*
X56347Y-33032D01*
X56293Y-33041D01*
X56253Y-33041D01*
X56200Y-33032D01*
X56173Y-33024D01*
X56147Y-33006D01*
X56133Y-32981D01*
X56133Y-32964D01*
X56147Y-32938D01*
X56160Y-32929D01*
X56160Y-32861D02*
X56147Y-32852D01*
X56133Y-32835D01*
X56133Y-32792D01*
X56147Y-32775D01*
X56160Y-32766D01*
X56187Y-32758D01*
X56213Y-32758D01*
X56253Y-32766D01*
X56413Y-32869D01*
X56413Y-32758D01*
X58537Y-32929D02*
X58550Y-32938D01*
X58563Y-32964D01*
X58563Y-32981D01*
X58550Y-33006D01*
X58523Y-33024D01*
X58497Y-33032D01*
X58443Y-33041D01*
X58403Y-33041D01*
X58350Y-33032D01*
X58323Y-33024D01*
X58297Y-33006D01*
X58283Y-32981D01*
X58283Y-32964D01*
X58297Y-32938D01*
X58310Y-32929D01*
X58563Y-32758D02*
X58563Y-32861D01*
X58563Y-32809D02*
X58283Y-32809D01*
X58323Y-32826D01*
X58350Y-32844D01*
X58363Y-32861D01*
G54D21*
X67308Y-33877D02*
X67296Y-33889D01*
X67261Y-33901D01*
X67237Y-33901D01*
X67201Y-33889D01*
X67177Y-33865D01*
X67166Y-33842D01*
X67154Y-33794D01*
X67154Y-33758D01*
X67166Y-33711D01*
X67177Y-33687D01*
X67201Y-33663D01*
X67237Y-33651D01*
X67261Y-33651D01*
X67296Y-33663D01*
X67308Y-33675D01*
X67523Y-33651D02*
X67475Y-33651D01*
X67451Y-33663D01*
X67439Y-33675D01*
X67416Y-33711D01*
X67404Y-33758D01*
X67404Y-33854D01*
X67416Y-33877D01*
X67427Y-33889D01*
X67451Y-33901D01*
X67499Y-33901D01*
X67523Y-33889D01*
X67535Y-33877D01*
X67546Y-33854D01*
X67546Y-33794D01*
X67535Y-33770D01*
X67523Y-33758D01*
X67499Y-33746D01*
X67451Y-33746D01*
X67427Y-33758D01*
X67416Y-33770D01*
X67404Y-33794D01*
X57021Y-33090D02*
X57264Y-33090D01*
X57293Y-33079D01*
X57307Y-33067D01*
X57321Y-33043D01*
X57321Y-32995D01*
X57307Y-32971D01*
X57293Y-32960D01*
X57264Y-32948D01*
X57021Y-32948D01*
X57321Y-32698D02*
X57321Y-32840D01*
X57321Y-32769D02*
X57021Y-32769D01*
X57064Y-32793D01*
X57093Y-32817D01*
X57107Y-32840D01*
G54D20*
X66745Y-34793D02*
X66745Y-35279D01*
X66764Y-35336D01*
X66783Y-35364D01*
X66821Y-35393D01*
X66898Y-35393D01*
X66936Y-35364D01*
X66955Y-35336D01*
X66974Y-35279D01*
X66974Y-34793D01*
X67145Y-34850D02*
X67164Y-34821D01*
X67202Y-34793D01*
X67298Y-34793D01*
X67336Y-34821D01*
X67355Y-34850D01*
X67374Y-34907D01*
X67374Y-34964D01*
X67355Y-35050D01*
X67126Y-35393D01*
X67374Y-35393D01*
X65602Y-33293D02*
X65869Y-33893D01*
X65869Y-33293D02*
X65602Y-33893D01*
X66250Y-33836D02*
X66231Y-33864D01*
X66174Y-33893D01*
X66136Y-33893D01*
X66078Y-33864D01*
X66040Y-33807D01*
X66021Y-33750D01*
X66002Y-33636D01*
X66002Y-33550D01*
X66021Y-33436D01*
X66040Y-33379D01*
X66078Y-33321D01*
X66136Y-33293D01*
X66174Y-33293D01*
X66231Y-33321D01*
X66250Y-33350D01*
X66440Y-33893D02*
X66516Y-33893D01*
X66555Y-33864D01*
X66574Y-33836D01*
X66612Y-33750D01*
X66631Y-33636D01*
X66631Y-33407D01*
X66612Y-33350D01*
X66593Y-33321D01*
X66555Y-33293D01*
X66478Y-33293D01*
X66440Y-33321D01*
X66421Y-33350D01*
X66402Y-33407D01*
X66402Y-33550D01*
X66421Y-33607D01*
X66440Y-33636D01*
X66478Y-33664D01*
X66555Y-33664D01*
X66593Y-33636D01*
X66612Y-33607D01*
X66631Y-33550D01*
X66993Y-33293D02*
X66802Y-33293D01*
X66783Y-33579D01*
X66802Y-33550D01*
X66840Y-33521D01*
X66936Y-33521D01*
X66974Y-33550D01*
X66993Y-33579D01*
X67012Y-33636D01*
X67012Y-33779D01*
X66993Y-33836D01*
X66974Y-33864D01*
X66936Y-33893D01*
X66840Y-33893D01*
X66802Y-33864D01*
X66783Y-33836D01*
X67145Y-33293D02*
X67412Y-33293D01*
X67240Y-33893D01*
X67545Y-33350D02*
X67564Y-33321D01*
X67602Y-33293D01*
X67698Y-33293D01*
X67736Y-33321D01*
X67755Y-33350D01*
X67774Y-33407D01*
X67774Y-33464D01*
X67755Y-33550D01*
X67526Y-33893D01*
X67774Y-33893D01*
X67907Y-33293D02*
X68174Y-33893D01*
X68174Y-33293D02*
X67907Y-33893D01*
X68517Y-33893D02*
X68326Y-33893D01*
X68326Y-33293D01*
M02*
