G04 (created by PCBNEW-RS274X (2010-03-14)-final) date jue 03 nov 2011 19:09:22 ART*
G01*
G70*
G90*
%MOIN*%
G04 Gerber Fmt 3.4, Leading zero omitted, Abs format*
%FSLAX34Y34*%
G04 APERTURE LIST*
%ADD10C,0.000100*%
%ADD11C,0.015000*%
%ADD12C,0.010000*%
%ADD13C,0.012000*%
%ADD14C,0.008000*%
%ADD15C,0.005000*%
%ADD16C,0.002600*%
%ADD17C,0.004000*%
%ADD18C,0.002000*%
%ADD19C,0.006000*%
%ADD20C,0.006700*%
%ADD21C,0.004200*%
%ADD22C,0.003000*%
G04 APERTURE END LIST*
G54D10*
G54D11*
X76900Y-45850D02*
X76900Y-53150D01*
X76900Y-53150D02*
X55350Y-53150D01*
X55350Y-53150D02*
X55350Y-45850D01*
X55350Y-45850D02*
X76900Y-45850D01*
G54D12*
X60015Y-48498D02*
X59986Y-48536D01*
X59900Y-48574D01*
X59843Y-48574D01*
X59758Y-48536D01*
X59700Y-48460D01*
X59672Y-48383D01*
X59643Y-48231D01*
X59643Y-48117D01*
X59672Y-47964D01*
X59700Y-47888D01*
X59758Y-47812D01*
X59843Y-47774D01*
X59900Y-47774D01*
X59986Y-47812D01*
X60015Y-47850D01*
X60272Y-48574D02*
X60272Y-47774D01*
X60500Y-47774D01*
X60558Y-47812D01*
X60586Y-47850D01*
X60615Y-47926D01*
X60615Y-48040D01*
X60586Y-48117D01*
X60558Y-48155D01*
X60500Y-48193D01*
X60272Y-48193D01*
X61158Y-48574D02*
X60872Y-48574D01*
X60872Y-47774D01*
X61358Y-48574D02*
X61358Y-47774D01*
X61501Y-47774D01*
X61586Y-47812D01*
X61644Y-47888D01*
X61672Y-47964D01*
X61701Y-48117D01*
X61701Y-48231D01*
X61672Y-48383D01*
X61644Y-48460D01*
X61586Y-48536D01*
X61501Y-48574D01*
X61358Y-48574D01*
X61929Y-47850D02*
X61958Y-47812D01*
X62015Y-47774D01*
X62158Y-47774D01*
X62215Y-47812D01*
X62244Y-47850D01*
X62272Y-47926D01*
X62272Y-48002D01*
X62244Y-48117D01*
X61901Y-48574D01*
X62272Y-48574D01*
X62529Y-48574D02*
X62529Y-47774D01*
X62672Y-47774D01*
X62757Y-47812D01*
X62815Y-47888D01*
X62843Y-47964D01*
X62872Y-48117D01*
X62872Y-48231D01*
X62843Y-48383D01*
X62815Y-48460D01*
X62757Y-48536D01*
X62672Y-48574D01*
X62529Y-48574D01*
X63129Y-48574D02*
X63129Y-47774D01*
X63415Y-48574D02*
X63415Y-47774D01*
X63643Y-47774D01*
X63701Y-47812D01*
X63729Y-47850D01*
X63758Y-47926D01*
X63758Y-48040D01*
X63729Y-48117D01*
X63701Y-48155D01*
X63643Y-48193D01*
X63415Y-48193D01*
X60715Y-49738D02*
X60686Y-49776D01*
X60600Y-49814D01*
X60543Y-49814D01*
X60458Y-49776D01*
X60400Y-49700D01*
X60372Y-49623D01*
X60343Y-49471D01*
X60343Y-49357D01*
X60372Y-49204D01*
X60400Y-49128D01*
X60458Y-49052D01*
X60543Y-49014D01*
X60600Y-49014D01*
X60686Y-49052D01*
X60715Y-49090D01*
X60972Y-49014D02*
X60972Y-49661D01*
X61000Y-49738D01*
X61029Y-49776D01*
X61086Y-49814D01*
X61200Y-49814D01*
X61258Y-49776D01*
X61286Y-49738D01*
X61315Y-49661D01*
X61315Y-49014D01*
X61601Y-49814D02*
X61601Y-49014D01*
X61744Y-49014D01*
X61829Y-49052D01*
X61887Y-49128D01*
X61915Y-49204D01*
X61944Y-49357D01*
X61944Y-49471D01*
X61915Y-49623D01*
X61887Y-49700D01*
X61829Y-49776D01*
X61744Y-49814D01*
X61601Y-49814D01*
X62172Y-49585D02*
X62458Y-49585D01*
X62115Y-49814D02*
X62315Y-49014D01*
X62515Y-49814D01*
X63058Y-49814D02*
X62858Y-49433D01*
X62715Y-49814D02*
X62715Y-49014D01*
X62943Y-49014D01*
X63001Y-49052D01*
X63029Y-49090D01*
X63058Y-49166D01*
X63058Y-49280D01*
X63029Y-49357D01*
X63001Y-49395D01*
X62943Y-49433D01*
X62715Y-49433D01*
X60672Y-50330D02*
X60701Y-50292D01*
X60758Y-50254D01*
X60901Y-50254D01*
X60958Y-50292D01*
X60987Y-50330D01*
X61015Y-50406D01*
X61015Y-50482D01*
X60987Y-50597D01*
X60644Y-51054D01*
X61015Y-51054D01*
X61386Y-50254D02*
X61443Y-50254D01*
X61500Y-50292D01*
X61529Y-50330D01*
X61558Y-50406D01*
X61586Y-50559D01*
X61586Y-50749D01*
X61558Y-50901D01*
X61529Y-50978D01*
X61500Y-51016D01*
X61443Y-51054D01*
X61386Y-51054D01*
X61329Y-51016D01*
X61300Y-50978D01*
X61272Y-50901D01*
X61243Y-50749D01*
X61243Y-50559D01*
X61272Y-50406D01*
X61300Y-50330D01*
X61329Y-50292D01*
X61386Y-50254D01*
X62157Y-51054D02*
X61814Y-51054D01*
X61986Y-51054D02*
X61986Y-50254D01*
X61929Y-50368D01*
X61871Y-50444D01*
X61814Y-50482D01*
X62728Y-51054D02*
X62385Y-51054D01*
X62557Y-51054D02*
X62557Y-50254D01*
X62500Y-50368D01*
X62442Y-50444D01*
X62385Y-50482D01*
G54D13*
X65080Y-51470D02*
X65080Y-47530D01*
X65080Y-47530D02*
X69020Y-47530D01*
X69020Y-51280D02*
X69020Y-47530D01*
X68830Y-51470D02*
X65080Y-51470D01*
X69020Y-51280D02*
X68830Y-51470D01*
G54D14*
X68800Y-51000D02*
X68795Y-51048D01*
X68781Y-51095D01*
X68758Y-51138D01*
X68727Y-51176D01*
X68689Y-51207D01*
X68646Y-51230D01*
X68600Y-51244D01*
X68551Y-51249D01*
X68504Y-51245D01*
X68457Y-51231D01*
X68414Y-51209D01*
X68376Y-51178D01*
X68344Y-51141D01*
X68321Y-51098D01*
X68306Y-51051D01*
X68301Y-51003D01*
X68305Y-50955D01*
X68318Y-50908D01*
X68340Y-50865D01*
X68371Y-50827D01*
X68408Y-50795D01*
X68450Y-50771D01*
X68497Y-50756D01*
X68545Y-50751D01*
X68593Y-50754D01*
X68640Y-50767D01*
X68683Y-50789D01*
X68722Y-50819D01*
X68754Y-50856D01*
X68778Y-50899D01*
X68793Y-50945D01*
X68799Y-50994D01*
X68800Y-51000D01*
G54D15*
X57000Y-47400D02*
X57700Y-47400D01*
X57700Y-47400D02*
X57700Y-48600D01*
X57700Y-48600D02*
X57000Y-48600D01*
X57000Y-48600D02*
X57000Y-47400D01*
X58200Y-48450D02*
X58200Y-47550D01*
X58200Y-47550D02*
X58700Y-47550D01*
X58700Y-47550D02*
X58700Y-48450D01*
X58700Y-48450D02*
X58200Y-48450D01*
X56050Y-48450D02*
X56050Y-47550D01*
X56050Y-47550D02*
X56550Y-47550D01*
X56550Y-47550D02*
X56550Y-48450D01*
X56550Y-48450D02*
X56050Y-48450D01*
X57050Y-48850D02*
X57950Y-48850D01*
X57950Y-48850D02*
X57950Y-49350D01*
X57950Y-49350D02*
X57050Y-49350D01*
X57050Y-49350D02*
X57050Y-48850D01*
X57050Y-50150D02*
X57950Y-50150D01*
X57950Y-50150D02*
X57950Y-50650D01*
X57950Y-50650D02*
X57050Y-50650D01*
X57050Y-50650D02*
X57050Y-50150D01*
X57950Y-50050D02*
X57050Y-50050D01*
X57050Y-50050D02*
X57050Y-49550D01*
X57050Y-49550D02*
X57950Y-49550D01*
X57950Y-49550D02*
X57950Y-50050D01*
X56400Y-50550D02*
X56400Y-49650D01*
X56400Y-49650D02*
X56900Y-49650D01*
X56900Y-49650D02*
X56900Y-50550D01*
X56900Y-50550D02*
X56400Y-50550D01*
G54D16*
X58568Y-50504D02*
X58696Y-50504D01*
X58696Y-50504D02*
X58696Y-50307D01*
X58568Y-50307D02*
X58696Y-50307D01*
X58568Y-50504D02*
X58568Y-50307D01*
X58323Y-50504D02*
X58382Y-50504D01*
X58382Y-50504D02*
X58382Y-50405D01*
X58323Y-50405D02*
X58382Y-50405D01*
X58323Y-50504D02*
X58323Y-50405D01*
X58518Y-50504D02*
X58577Y-50504D01*
X58577Y-50504D02*
X58577Y-50405D01*
X58518Y-50405D02*
X58577Y-50405D01*
X58518Y-50504D02*
X58518Y-50405D01*
X58372Y-50504D02*
X58528Y-50504D01*
X58528Y-50504D02*
X58528Y-50435D01*
X58372Y-50435D02*
X58528Y-50435D01*
X58372Y-50504D02*
X58372Y-50435D01*
X58568Y-51093D02*
X58696Y-51093D01*
X58696Y-51093D02*
X58696Y-50896D01*
X58568Y-50896D02*
X58696Y-50896D01*
X58568Y-51093D02*
X58568Y-50896D01*
X58204Y-51093D02*
X58332Y-51093D01*
X58332Y-51093D02*
X58332Y-50896D01*
X58204Y-50896D02*
X58332Y-50896D01*
X58204Y-51093D02*
X58204Y-50896D01*
X58518Y-50995D02*
X58577Y-50995D01*
X58577Y-50995D02*
X58577Y-50896D01*
X58518Y-50896D02*
X58577Y-50896D01*
X58518Y-50995D02*
X58518Y-50896D01*
X58323Y-50995D02*
X58382Y-50995D01*
X58382Y-50995D02*
X58382Y-50896D01*
X58323Y-50896D02*
X58382Y-50896D01*
X58323Y-50995D02*
X58323Y-50896D01*
X58372Y-50965D02*
X58528Y-50965D01*
X58528Y-50965D02*
X58528Y-50896D01*
X58372Y-50896D02*
X58528Y-50896D01*
X58372Y-50965D02*
X58372Y-50896D01*
X58411Y-50700D02*
X58489Y-50700D01*
X58489Y-50700D02*
X58489Y-50622D01*
X58411Y-50622D02*
X58489Y-50622D01*
X58411Y-50700D02*
X58411Y-50622D01*
X58214Y-50504D02*
X58332Y-50504D01*
X58332Y-50504D02*
X58332Y-50386D01*
X58214Y-50386D02*
X58332Y-50386D01*
X58214Y-50504D02*
X58214Y-50386D01*
X58204Y-50336D02*
X58293Y-50336D01*
X58293Y-50336D02*
X58293Y-50307D01*
X58204Y-50307D02*
X58293Y-50307D01*
X58204Y-50336D02*
X58204Y-50307D01*
G54D17*
X58676Y-50494D02*
X58676Y-50906D01*
X58224Y-50896D02*
X58224Y-50336D01*
G54D18*
X58301Y-50366D02*
X58300Y-50371D01*
X58298Y-50376D01*
X58296Y-50381D01*
X58292Y-50385D01*
X58288Y-50389D01*
X58283Y-50391D01*
X58278Y-50393D01*
X58273Y-50393D01*
X58268Y-50393D01*
X58263Y-50391D01*
X58258Y-50389D01*
X58254Y-50386D01*
X58250Y-50381D01*
X58248Y-50377D01*
X58246Y-50371D01*
X58246Y-50366D01*
X58246Y-50361D01*
X58247Y-50356D01*
X58250Y-50351D01*
X58253Y-50347D01*
X58258Y-50344D01*
X58262Y-50341D01*
X58267Y-50339D01*
X58273Y-50339D01*
X58277Y-50339D01*
X58283Y-50340D01*
X58288Y-50343D01*
X58292Y-50346D01*
X58295Y-50350D01*
X58298Y-50355D01*
X58300Y-50360D01*
X58300Y-50366D01*
X58301Y-50366D01*
G54D17*
X58313Y-50307D02*
X58314Y-50318D01*
X58316Y-50330D01*
X58318Y-50342D01*
X58322Y-50353D01*
X58326Y-50364D01*
X58332Y-50375D01*
X58338Y-50385D01*
X58346Y-50395D01*
X58354Y-50403D01*
X58362Y-50411D01*
X58372Y-50419D01*
X58382Y-50425D01*
X58393Y-50431D01*
X58404Y-50435D01*
X58415Y-50439D01*
X58427Y-50441D01*
X58439Y-50443D01*
X58450Y-50444D01*
X58461Y-50443D01*
X58473Y-50441D01*
X58485Y-50439D01*
X58496Y-50435D01*
X58507Y-50431D01*
X58518Y-50425D01*
X58528Y-50419D01*
X58538Y-50411D01*
X58546Y-50403D01*
X58554Y-50395D01*
X58562Y-50385D01*
X58568Y-50375D01*
X58574Y-50364D01*
X58578Y-50353D01*
X58582Y-50342D01*
X58584Y-50330D01*
X58586Y-50318D01*
X58587Y-50307D01*
X58586Y-50296D01*
X58584Y-50284D01*
X58582Y-50272D01*
X58578Y-50261D01*
X58574Y-50250D01*
X58568Y-50239D01*
X58562Y-50229D01*
X58554Y-50219D01*
X58546Y-50211D01*
X58538Y-50203D01*
X58528Y-50195D01*
X58518Y-50189D01*
X58507Y-50183D01*
X58496Y-50179D01*
X58485Y-50175D01*
X58473Y-50173D01*
X58461Y-50171D01*
X58450Y-50170D01*
X58439Y-50171D01*
X58427Y-50173D01*
X58415Y-50175D01*
X58404Y-50179D01*
X58393Y-50183D01*
X58382Y-50189D01*
X58372Y-50195D01*
X58362Y-50203D01*
X58354Y-50211D01*
X58346Y-50219D01*
X58338Y-50229D01*
X58332Y-50239D01*
X58326Y-50250D01*
X58322Y-50261D01*
X58318Y-50272D01*
X58316Y-50284D01*
X58314Y-50296D01*
X58313Y-50307D01*
X58314Y-50318D01*
X58316Y-50330D01*
X58318Y-50342D01*
X58322Y-50353D01*
X58326Y-50364D01*
X58332Y-50375D01*
X58338Y-50385D01*
X58346Y-50395D01*
X58354Y-50403D01*
X58362Y-50411D01*
X58372Y-50419D01*
X58382Y-50425D01*
X58393Y-50431D01*
X58404Y-50435D01*
X58415Y-50439D01*
X58427Y-50441D01*
X58439Y-50443D01*
X58450Y-50444D01*
X58461Y-50443D01*
X58473Y-50441D01*
X58485Y-50439D01*
X58496Y-50435D01*
X58507Y-50431D01*
X58518Y-50425D01*
X58528Y-50419D01*
X58538Y-50411D01*
X58546Y-50403D01*
X58554Y-50395D01*
X58562Y-50385D01*
X58568Y-50375D01*
X58574Y-50364D01*
X58578Y-50353D01*
X58582Y-50342D01*
X58584Y-50330D01*
X58586Y-50318D01*
X58587Y-50307D01*
X58587Y-51093D02*
X58586Y-51082D01*
X58584Y-51070D01*
X58582Y-51058D01*
X58578Y-51047D01*
X58574Y-51036D01*
X58568Y-51025D01*
X58562Y-51015D01*
X58554Y-51005D01*
X58546Y-50997D01*
X58538Y-50989D01*
X58528Y-50981D01*
X58518Y-50975D01*
X58507Y-50969D01*
X58496Y-50965D01*
X58485Y-50961D01*
X58473Y-50959D01*
X58461Y-50957D01*
X58450Y-50956D01*
X58439Y-50957D01*
X58427Y-50959D01*
X58415Y-50961D01*
X58404Y-50965D01*
X58393Y-50969D01*
X58382Y-50975D01*
X58372Y-50981D01*
X58362Y-50989D01*
X58354Y-50997D01*
X58346Y-51005D01*
X58338Y-51015D01*
X58332Y-51025D01*
X58326Y-51036D01*
X58322Y-51047D01*
X58318Y-51058D01*
X58316Y-51070D01*
X58314Y-51082D01*
X58313Y-51093D01*
X58314Y-51104D01*
X58316Y-51116D01*
X58318Y-51128D01*
X58322Y-51139D01*
X58326Y-51150D01*
X58332Y-51161D01*
X58338Y-51171D01*
X58346Y-51181D01*
X58354Y-51189D01*
X58362Y-51197D01*
X58372Y-51205D01*
X58382Y-51211D01*
X58393Y-51217D01*
X58404Y-51221D01*
X58415Y-51225D01*
X58427Y-51227D01*
X58439Y-51229D01*
X58450Y-51230D01*
X58461Y-51229D01*
X58473Y-51227D01*
X58485Y-51225D01*
X58496Y-51221D01*
X58507Y-51217D01*
X58518Y-51211D01*
X58528Y-51205D01*
X58538Y-51197D01*
X58546Y-51189D01*
X58554Y-51181D01*
X58562Y-51171D01*
X58568Y-51161D01*
X58574Y-51150D01*
X58578Y-51139D01*
X58582Y-51128D01*
X58584Y-51116D01*
X58586Y-51104D01*
X58587Y-51093D01*
X58586Y-51082D01*
X58584Y-51070D01*
X58582Y-51058D01*
X58578Y-51047D01*
X58574Y-51036D01*
X58568Y-51025D01*
X58562Y-51015D01*
X58554Y-51005D01*
X58546Y-50997D01*
X58538Y-50989D01*
X58528Y-50981D01*
X58518Y-50975D01*
X58507Y-50969D01*
X58496Y-50965D01*
X58485Y-50961D01*
X58473Y-50959D01*
X58461Y-50957D01*
X58450Y-50956D01*
X58439Y-50957D01*
X58427Y-50959D01*
X58415Y-50961D01*
X58404Y-50965D01*
X58393Y-50969D01*
X58382Y-50975D01*
X58372Y-50981D01*
X58362Y-50989D01*
X58354Y-50997D01*
X58346Y-51005D01*
X58338Y-51015D01*
X58332Y-51025D01*
X58326Y-51036D01*
X58322Y-51047D01*
X58318Y-51058D01*
X58316Y-51070D01*
X58314Y-51082D01*
X58313Y-51093D01*
G54D14*
X73900Y-52600D02*
X74100Y-52600D01*
X74100Y-52600D02*
X74100Y-52400D01*
X73900Y-52400D02*
X74100Y-52400D01*
X73900Y-52600D02*
X73900Y-52400D01*
X72900Y-52600D02*
X73100Y-52600D01*
X73100Y-52600D02*
X73100Y-52400D01*
X72900Y-52400D02*
X73100Y-52400D01*
X72900Y-52600D02*
X72900Y-52400D01*
X71900Y-52600D02*
X72100Y-52600D01*
X72100Y-52600D02*
X72100Y-52400D01*
X71900Y-52400D02*
X72100Y-52400D01*
X71900Y-52600D02*
X71900Y-52400D01*
X70900Y-52600D02*
X71100Y-52600D01*
X71100Y-52600D02*
X71100Y-52400D01*
X70900Y-52400D02*
X71100Y-52400D01*
X70900Y-52600D02*
X70900Y-52400D01*
X69900Y-52600D02*
X70100Y-52600D01*
X70100Y-52600D02*
X70100Y-52400D01*
X69900Y-52400D02*
X70100Y-52400D01*
X69900Y-52600D02*
X69900Y-52400D01*
X68900Y-52600D02*
X69100Y-52600D01*
X69100Y-52600D02*
X69100Y-52400D01*
X68900Y-52400D02*
X69100Y-52400D01*
X68900Y-52600D02*
X68900Y-52400D01*
X67900Y-52600D02*
X68100Y-52600D01*
X68100Y-52600D02*
X68100Y-52400D01*
X67900Y-52400D02*
X68100Y-52400D01*
X67900Y-52600D02*
X67900Y-52400D01*
X66900Y-52600D02*
X67100Y-52600D01*
X67100Y-52600D02*
X67100Y-52400D01*
X66900Y-52400D02*
X67100Y-52400D01*
X66900Y-52600D02*
X66900Y-52400D01*
X65900Y-52600D02*
X66100Y-52600D01*
X66100Y-52600D02*
X66100Y-52400D01*
X65900Y-52400D02*
X66100Y-52400D01*
X65900Y-52600D02*
X65900Y-52400D01*
X64900Y-52600D02*
X65100Y-52600D01*
X65100Y-52600D02*
X65100Y-52400D01*
X64900Y-52400D02*
X65100Y-52400D01*
X64900Y-52600D02*
X64900Y-52400D01*
X63900Y-52600D02*
X64100Y-52600D01*
X64100Y-52600D02*
X64100Y-52400D01*
X63900Y-52400D02*
X64100Y-52400D01*
X63900Y-52600D02*
X63900Y-52400D01*
X62900Y-52600D02*
X63100Y-52600D01*
X63100Y-52600D02*
X63100Y-52400D01*
X62900Y-52400D02*
X63100Y-52400D01*
X62900Y-52600D02*
X62900Y-52400D01*
X61900Y-52600D02*
X62100Y-52600D01*
X62100Y-52600D02*
X62100Y-52400D01*
X61900Y-52400D02*
X62100Y-52400D01*
X61900Y-52600D02*
X61900Y-52400D01*
X60900Y-52600D02*
X61100Y-52600D01*
X61100Y-52600D02*
X61100Y-52400D01*
X60900Y-52400D02*
X61100Y-52400D01*
X60900Y-52600D02*
X60900Y-52400D01*
X59900Y-52600D02*
X60100Y-52600D01*
X60100Y-52600D02*
X60100Y-52400D01*
X59900Y-52400D02*
X60100Y-52400D01*
X59900Y-52600D02*
X59900Y-52400D01*
X58900Y-52600D02*
X59100Y-52600D01*
X59100Y-52600D02*
X59100Y-52400D01*
X58900Y-52400D02*
X59100Y-52400D01*
X58900Y-52600D02*
X58900Y-52400D01*
X57900Y-52600D02*
X58100Y-52600D01*
X58100Y-52600D02*
X58100Y-52400D01*
X57900Y-52400D02*
X58100Y-52400D01*
X57900Y-52600D02*
X57900Y-52400D01*
X56900Y-52600D02*
X57100Y-52600D01*
X57100Y-52600D02*
X57100Y-52400D01*
X56900Y-52400D02*
X57100Y-52400D01*
X56900Y-52600D02*
X56900Y-52400D01*
X55900Y-52600D02*
X56100Y-52600D01*
X56100Y-52600D02*
X56100Y-52400D01*
X55900Y-52400D02*
X56100Y-52400D01*
X55900Y-52600D02*
X55900Y-52400D01*
X74900Y-52600D02*
X75100Y-52600D01*
X75100Y-52600D02*
X75100Y-52400D01*
X74900Y-52400D02*
X75100Y-52400D01*
X74900Y-52600D02*
X74900Y-52400D01*
G54D19*
X73750Y-52000D02*
X74250Y-52000D01*
X74250Y-52000D02*
X74500Y-52250D01*
X74500Y-52250D02*
X74500Y-52750D01*
X74500Y-52750D02*
X74250Y-53000D01*
X72500Y-52250D02*
X72750Y-52000D01*
X72750Y-52000D02*
X73250Y-52000D01*
X73250Y-52000D02*
X73500Y-52250D01*
X73500Y-52250D02*
X73500Y-52750D01*
X73500Y-52750D02*
X73250Y-53000D01*
X73250Y-53000D02*
X72750Y-53000D01*
X72750Y-53000D02*
X72500Y-52750D01*
X73750Y-52000D02*
X73500Y-52250D01*
X73500Y-52750D02*
X73750Y-53000D01*
X74250Y-53000D02*
X73750Y-53000D01*
X70750Y-52000D02*
X71250Y-52000D01*
X71250Y-52000D02*
X71500Y-52250D01*
X71500Y-52250D02*
X71500Y-52750D01*
X71500Y-52750D02*
X71250Y-53000D01*
X71500Y-52250D02*
X71750Y-52000D01*
X71750Y-52000D02*
X72250Y-52000D01*
X72250Y-52000D02*
X72500Y-52250D01*
X72500Y-52250D02*
X72500Y-52750D01*
X72500Y-52750D02*
X72250Y-53000D01*
X72250Y-53000D02*
X71750Y-53000D01*
X71750Y-53000D02*
X71500Y-52750D01*
X69500Y-52250D02*
X69750Y-52000D01*
X69750Y-52000D02*
X70250Y-52000D01*
X70250Y-52000D02*
X70500Y-52250D01*
X70500Y-52250D02*
X70500Y-52750D01*
X70500Y-52750D02*
X70250Y-53000D01*
X70250Y-53000D02*
X69750Y-53000D01*
X69750Y-53000D02*
X69500Y-52750D01*
X70750Y-52000D02*
X70500Y-52250D01*
X70500Y-52750D02*
X70750Y-53000D01*
X71250Y-53000D02*
X70750Y-53000D01*
X67750Y-52000D02*
X68250Y-52000D01*
X68250Y-52000D02*
X68500Y-52250D01*
X68500Y-52250D02*
X68500Y-52750D01*
X68500Y-52750D02*
X68250Y-53000D01*
X68500Y-52250D02*
X68750Y-52000D01*
X68750Y-52000D02*
X69250Y-52000D01*
X69250Y-52000D02*
X69500Y-52250D01*
X69500Y-52250D02*
X69500Y-52750D01*
X69500Y-52750D02*
X69250Y-53000D01*
X69250Y-53000D02*
X68750Y-53000D01*
X68750Y-53000D02*
X68500Y-52750D01*
X66500Y-52250D02*
X66750Y-52000D01*
X66750Y-52000D02*
X67250Y-52000D01*
X67250Y-52000D02*
X67500Y-52250D01*
X67500Y-52250D02*
X67500Y-52750D01*
X67500Y-52750D02*
X67250Y-53000D01*
X67250Y-53000D02*
X66750Y-53000D01*
X66750Y-53000D02*
X66500Y-52750D01*
X67750Y-52000D02*
X67500Y-52250D01*
X67500Y-52750D02*
X67750Y-53000D01*
X68250Y-53000D02*
X67750Y-53000D01*
X64750Y-52000D02*
X65250Y-52000D01*
X65250Y-52000D02*
X65500Y-52250D01*
X65500Y-52250D02*
X65500Y-52750D01*
X65500Y-52750D02*
X65250Y-53000D01*
X65500Y-52250D02*
X65750Y-52000D01*
X65750Y-52000D02*
X66250Y-52000D01*
X66250Y-52000D02*
X66500Y-52250D01*
X66500Y-52250D02*
X66500Y-52750D01*
X66500Y-52750D02*
X66250Y-53000D01*
X66250Y-53000D02*
X65750Y-53000D01*
X65750Y-53000D02*
X65500Y-52750D01*
X63500Y-52250D02*
X63750Y-52000D01*
X63750Y-52000D02*
X64250Y-52000D01*
X64250Y-52000D02*
X64500Y-52250D01*
X64500Y-52250D02*
X64500Y-52750D01*
X64500Y-52750D02*
X64250Y-53000D01*
X64250Y-53000D02*
X63750Y-53000D01*
X63750Y-53000D02*
X63500Y-52750D01*
X64750Y-52000D02*
X64500Y-52250D01*
X64500Y-52750D02*
X64750Y-53000D01*
X65250Y-53000D02*
X64750Y-53000D01*
X61750Y-52000D02*
X62250Y-52000D01*
X62250Y-52000D02*
X62500Y-52250D01*
X62500Y-52250D02*
X62500Y-52750D01*
X62500Y-52750D02*
X62250Y-53000D01*
X62500Y-52250D02*
X62750Y-52000D01*
X62750Y-52000D02*
X63250Y-52000D01*
X63250Y-52000D02*
X63500Y-52250D01*
X63500Y-52250D02*
X63500Y-52750D01*
X63500Y-52750D02*
X63250Y-53000D01*
X63250Y-53000D02*
X62750Y-53000D01*
X62750Y-53000D02*
X62500Y-52750D01*
X60500Y-52250D02*
X60750Y-52000D01*
X60750Y-52000D02*
X61250Y-52000D01*
X61250Y-52000D02*
X61500Y-52250D01*
X61500Y-52250D02*
X61500Y-52750D01*
X61500Y-52750D02*
X61250Y-53000D01*
X61250Y-53000D02*
X60750Y-53000D01*
X60750Y-53000D02*
X60500Y-52750D01*
X61750Y-52000D02*
X61500Y-52250D01*
X61500Y-52750D02*
X61750Y-53000D01*
X62250Y-53000D02*
X61750Y-53000D01*
X58750Y-52000D02*
X59250Y-52000D01*
X59250Y-52000D02*
X59500Y-52250D01*
X59500Y-52250D02*
X59500Y-52750D01*
X59500Y-52750D02*
X59250Y-53000D01*
X59500Y-52250D02*
X59750Y-52000D01*
X59750Y-52000D02*
X60250Y-52000D01*
X60250Y-52000D02*
X60500Y-52250D01*
X60500Y-52250D02*
X60500Y-52750D01*
X60500Y-52750D02*
X60250Y-53000D01*
X60250Y-53000D02*
X59750Y-53000D01*
X59750Y-53000D02*
X59500Y-52750D01*
X57500Y-52250D02*
X57750Y-52000D01*
X57750Y-52000D02*
X58250Y-52000D01*
X58250Y-52000D02*
X58500Y-52250D01*
X58500Y-52250D02*
X58500Y-52750D01*
X58500Y-52750D02*
X58250Y-53000D01*
X58250Y-53000D02*
X57750Y-53000D01*
X57750Y-53000D02*
X57500Y-52750D01*
X58750Y-52000D02*
X58500Y-52250D01*
X58500Y-52750D02*
X58750Y-53000D01*
X59250Y-53000D02*
X58750Y-53000D01*
X55750Y-52000D02*
X56250Y-52000D01*
X56250Y-52000D02*
X56500Y-52250D01*
X56500Y-52250D02*
X56500Y-52750D01*
X56500Y-52750D02*
X56250Y-53000D01*
X56500Y-52250D02*
X56750Y-52000D01*
X56750Y-52000D02*
X57250Y-52000D01*
X57250Y-52000D02*
X57500Y-52250D01*
X57500Y-52250D02*
X57500Y-52750D01*
X57500Y-52750D02*
X57250Y-53000D01*
X57250Y-53000D02*
X56750Y-53000D01*
X56750Y-53000D02*
X56500Y-52750D01*
X55500Y-52250D02*
X55500Y-52750D01*
X55750Y-52000D02*
X55500Y-52250D01*
X55500Y-52750D02*
X55750Y-53000D01*
X56250Y-53000D02*
X55750Y-53000D01*
X74750Y-52000D02*
X75250Y-52000D01*
X75250Y-52000D02*
X75500Y-52250D01*
X75500Y-52250D02*
X75500Y-52750D01*
X75500Y-52750D02*
X75250Y-53000D01*
X74750Y-52000D02*
X74500Y-52250D01*
X74500Y-52750D02*
X74750Y-53000D01*
X75250Y-53000D02*
X74750Y-53000D01*
G54D14*
X73900Y-46600D02*
X74100Y-46600D01*
X74100Y-46600D02*
X74100Y-46400D01*
X73900Y-46400D02*
X74100Y-46400D01*
X73900Y-46600D02*
X73900Y-46400D01*
X72900Y-46600D02*
X73100Y-46600D01*
X73100Y-46600D02*
X73100Y-46400D01*
X72900Y-46400D02*
X73100Y-46400D01*
X72900Y-46600D02*
X72900Y-46400D01*
X71900Y-46600D02*
X72100Y-46600D01*
X72100Y-46600D02*
X72100Y-46400D01*
X71900Y-46400D02*
X72100Y-46400D01*
X71900Y-46600D02*
X71900Y-46400D01*
X70900Y-46600D02*
X71100Y-46600D01*
X71100Y-46600D02*
X71100Y-46400D01*
X70900Y-46400D02*
X71100Y-46400D01*
X70900Y-46600D02*
X70900Y-46400D01*
X69900Y-46600D02*
X70100Y-46600D01*
X70100Y-46600D02*
X70100Y-46400D01*
X69900Y-46400D02*
X70100Y-46400D01*
X69900Y-46600D02*
X69900Y-46400D01*
X68900Y-46600D02*
X69100Y-46600D01*
X69100Y-46600D02*
X69100Y-46400D01*
X68900Y-46400D02*
X69100Y-46400D01*
X68900Y-46600D02*
X68900Y-46400D01*
X67900Y-46600D02*
X68100Y-46600D01*
X68100Y-46600D02*
X68100Y-46400D01*
X67900Y-46400D02*
X68100Y-46400D01*
X67900Y-46600D02*
X67900Y-46400D01*
X66900Y-46600D02*
X67100Y-46600D01*
X67100Y-46600D02*
X67100Y-46400D01*
X66900Y-46400D02*
X67100Y-46400D01*
X66900Y-46600D02*
X66900Y-46400D01*
X65900Y-46600D02*
X66100Y-46600D01*
X66100Y-46600D02*
X66100Y-46400D01*
X65900Y-46400D02*
X66100Y-46400D01*
X65900Y-46600D02*
X65900Y-46400D01*
X64900Y-46600D02*
X65100Y-46600D01*
X65100Y-46600D02*
X65100Y-46400D01*
X64900Y-46400D02*
X65100Y-46400D01*
X64900Y-46600D02*
X64900Y-46400D01*
X63900Y-46600D02*
X64100Y-46600D01*
X64100Y-46600D02*
X64100Y-46400D01*
X63900Y-46400D02*
X64100Y-46400D01*
X63900Y-46600D02*
X63900Y-46400D01*
X62900Y-46600D02*
X63100Y-46600D01*
X63100Y-46600D02*
X63100Y-46400D01*
X62900Y-46400D02*
X63100Y-46400D01*
X62900Y-46600D02*
X62900Y-46400D01*
X61900Y-46600D02*
X62100Y-46600D01*
X62100Y-46600D02*
X62100Y-46400D01*
X61900Y-46400D02*
X62100Y-46400D01*
X61900Y-46600D02*
X61900Y-46400D01*
X60900Y-46600D02*
X61100Y-46600D01*
X61100Y-46600D02*
X61100Y-46400D01*
X60900Y-46400D02*
X61100Y-46400D01*
X60900Y-46600D02*
X60900Y-46400D01*
X59900Y-46600D02*
X60100Y-46600D01*
X60100Y-46600D02*
X60100Y-46400D01*
X59900Y-46400D02*
X60100Y-46400D01*
X59900Y-46600D02*
X59900Y-46400D01*
X58900Y-46600D02*
X59100Y-46600D01*
X59100Y-46600D02*
X59100Y-46400D01*
X58900Y-46400D02*
X59100Y-46400D01*
X58900Y-46600D02*
X58900Y-46400D01*
X57900Y-46600D02*
X58100Y-46600D01*
X58100Y-46600D02*
X58100Y-46400D01*
X57900Y-46400D02*
X58100Y-46400D01*
X57900Y-46600D02*
X57900Y-46400D01*
X56900Y-46600D02*
X57100Y-46600D01*
X57100Y-46600D02*
X57100Y-46400D01*
X56900Y-46400D02*
X57100Y-46400D01*
X56900Y-46600D02*
X56900Y-46400D01*
X55900Y-46600D02*
X56100Y-46600D01*
X56100Y-46600D02*
X56100Y-46400D01*
X55900Y-46400D02*
X56100Y-46400D01*
X55900Y-46600D02*
X55900Y-46400D01*
X74900Y-46600D02*
X75100Y-46600D01*
X75100Y-46600D02*
X75100Y-46400D01*
X74900Y-46400D02*
X75100Y-46400D01*
X74900Y-46600D02*
X74900Y-46400D01*
G54D19*
X73750Y-46000D02*
X74250Y-46000D01*
X74250Y-46000D02*
X74500Y-46250D01*
X74500Y-46250D02*
X74500Y-46750D01*
X74500Y-46750D02*
X74250Y-47000D01*
X72500Y-46250D02*
X72750Y-46000D01*
X72750Y-46000D02*
X73250Y-46000D01*
X73250Y-46000D02*
X73500Y-46250D01*
X73500Y-46250D02*
X73500Y-46750D01*
X73500Y-46750D02*
X73250Y-47000D01*
X73250Y-47000D02*
X72750Y-47000D01*
X72750Y-47000D02*
X72500Y-46750D01*
X73750Y-46000D02*
X73500Y-46250D01*
X73500Y-46750D02*
X73750Y-47000D01*
X74250Y-47000D02*
X73750Y-47000D01*
X70750Y-46000D02*
X71250Y-46000D01*
X71250Y-46000D02*
X71500Y-46250D01*
X71500Y-46250D02*
X71500Y-46750D01*
X71500Y-46750D02*
X71250Y-47000D01*
X71500Y-46250D02*
X71750Y-46000D01*
X71750Y-46000D02*
X72250Y-46000D01*
X72250Y-46000D02*
X72500Y-46250D01*
X72500Y-46250D02*
X72500Y-46750D01*
X72500Y-46750D02*
X72250Y-47000D01*
X72250Y-47000D02*
X71750Y-47000D01*
X71750Y-47000D02*
X71500Y-46750D01*
X69500Y-46250D02*
X69750Y-46000D01*
X69750Y-46000D02*
X70250Y-46000D01*
X70250Y-46000D02*
X70500Y-46250D01*
X70500Y-46250D02*
X70500Y-46750D01*
X70500Y-46750D02*
X70250Y-47000D01*
X70250Y-47000D02*
X69750Y-47000D01*
X69750Y-47000D02*
X69500Y-46750D01*
X70750Y-46000D02*
X70500Y-46250D01*
X70500Y-46750D02*
X70750Y-47000D01*
X71250Y-47000D02*
X70750Y-47000D01*
X67750Y-46000D02*
X68250Y-46000D01*
X68250Y-46000D02*
X68500Y-46250D01*
X68500Y-46250D02*
X68500Y-46750D01*
X68500Y-46750D02*
X68250Y-47000D01*
X68500Y-46250D02*
X68750Y-46000D01*
X68750Y-46000D02*
X69250Y-46000D01*
X69250Y-46000D02*
X69500Y-46250D01*
X69500Y-46250D02*
X69500Y-46750D01*
X69500Y-46750D02*
X69250Y-47000D01*
X69250Y-47000D02*
X68750Y-47000D01*
X68750Y-47000D02*
X68500Y-46750D01*
X66500Y-46250D02*
X66750Y-46000D01*
X66750Y-46000D02*
X67250Y-46000D01*
X67250Y-46000D02*
X67500Y-46250D01*
X67500Y-46250D02*
X67500Y-46750D01*
X67500Y-46750D02*
X67250Y-47000D01*
X67250Y-47000D02*
X66750Y-47000D01*
X66750Y-47000D02*
X66500Y-46750D01*
X67750Y-46000D02*
X67500Y-46250D01*
X67500Y-46750D02*
X67750Y-47000D01*
X68250Y-47000D02*
X67750Y-47000D01*
X64750Y-46000D02*
X65250Y-46000D01*
X65250Y-46000D02*
X65500Y-46250D01*
X65500Y-46250D02*
X65500Y-46750D01*
X65500Y-46750D02*
X65250Y-47000D01*
X65500Y-46250D02*
X65750Y-46000D01*
X65750Y-46000D02*
X66250Y-46000D01*
X66250Y-46000D02*
X66500Y-46250D01*
X66500Y-46250D02*
X66500Y-46750D01*
X66500Y-46750D02*
X66250Y-47000D01*
X66250Y-47000D02*
X65750Y-47000D01*
X65750Y-47000D02*
X65500Y-46750D01*
X63500Y-46250D02*
X63750Y-46000D01*
X63750Y-46000D02*
X64250Y-46000D01*
X64250Y-46000D02*
X64500Y-46250D01*
X64500Y-46250D02*
X64500Y-46750D01*
X64500Y-46750D02*
X64250Y-47000D01*
X64250Y-47000D02*
X63750Y-47000D01*
X63750Y-47000D02*
X63500Y-46750D01*
X64750Y-46000D02*
X64500Y-46250D01*
X64500Y-46750D02*
X64750Y-47000D01*
X65250Y-47000D02*
X64750Y-47000D01*
X61750Y-46000D02*
X62250Y-46000D01*
X62250Y-46000D02*
X62500Y-46250D01*
X62500Y-46250D02*
X62500Y-46750D01*
X62500Y-46750D02*
X62250Y-47000D01*
X62500Y-46250D02*
X62750Y-46000D01*
X62750Y-46000D02*
X63250Y-46000D01*
X63250Y-46000D02*
X63500Y-46250D01*
X63500Y-46250D02*
X63500Y-46750D01*
X63500Y-46750D02*
X63250Y-47000D01*
X63250Y-47000D02*
X62750Y-47000D01*
X62750Y-47000D02*
X62500Y-46750D01*
X60500Y-46250D02*
X60750Y-46000D01*
X60750Y-46000D02*
X61250Y-46000D01*
X61250Y-46000D02*
X61500Y-46250D01*
X61500Y-46250D02*
X61500Y-46750D01*
X61500Y-46750D02*
X61250Y-47000D01*
X61250Y-47000D02*
X60750Y-47000D01*
X60750Y-47000D02*
X60500Y-46750D01*
X61750Y-46000D02*
X61500Y-46250D01*
X61500Y-46750D02*
X61750Y-47000D01*
X62250Y-47000D02*
X61750Y-47000D01*
X58750Y-46000D02*
X59250Y-46000D01*
X59250Y-46000D02*
X59500Y-46250D01*
X59500Y-46250D02*
X59500Y-46750D01*
X59500Y-46750D02*
X59250Y-47000D01*
X59500Y-46250D02*
X59750Y-46000D01*
X59750Y-46000D02*
X60250Y-46000D01*
X60250Y-46000D02*
X60500Y-46250D01*
X60500Y-46250D02*
X60500Y-46750D01*
X60500Y-46750D02*
X60250Y-47000D01*
X60250Y-47000D02*
X59750Y-47000D01*
X59750Y-47000D02*
X59500Y-46750D01*
X57500Y-46250D02*
X57750Y-46000D01*
X57750Y-46000D02*
X58250Y-46000D01*
X58250Y-46000D02*
X58500Y-46250D01*
X58500Y-46250D02*
X58500Y-46750D01*
X58500Y-46750D02*
X58250Y-47000D01*
X58250Y-47000D02*
X57750Y-47000D01*
X57750Y-47000D02*
X57500Y-46750D01*
X58750Y-46000D02*
X58500Y-46250D01*
X58500Y-46750D02*
X58750Y-47000D01*
X59250Y-47000D02*
X58750Y-47000D01*
X55750Y-46000D02*
X56250Y-46000D01*
X56250Y-46000D02*
X56500Y-46250D01*
X56500Y-46250D02*
X56500Y-46750D01*
X56500Y-46750D02*
X56250Y-47000D01*
X56500Y-46250D02*
X56750Y-46000D01*
X56750Y-46000D02*
X57250Y-46000D01*
X57250Y-46000D02*
X57500Y-46250D01*
X57500Y-46250D02*
X57500Y-46750D01*
X57500Y-46750D02*
X57250Y-47000D01*
X57250Y-47000D02*
X56750Y-47000D01*
X56750Y-47000D02*
X56500Y-46750D01*
X55500Y-46250D02*
X55500Y-46750D01*
X55750Y-46000D02*
X55500Y-46250D01*
X55500Y-46750D02*
X55750Y-47000D01*
X56250Y-47000D02*
X55750Y-47000D01*
X74750Y-46000D02*
X75250Y-46000D01*
X75250Y-46000D02*
X75500Y-46250D01*
X75500Y-46250D02*
X75500Y-46750D01*
X75500Y-46750D02*
X75250Y-47000D01*
X74750Y-46000D02*
X74500Y-46250D01*
X74500Y-46750D02*
X74750Y-47000D01*
X75250Y-47000D02*
X74750Y-47000D01*
G54D14*
X76150Y-50900D02*
X76150Y-51100D01*
X76150Y-51100D02*
X76350Y-51100D01*
X76350Y-50900D02*
X76350Y-51100D01*
X76150Y-50900D02*
X76350Y-50900D01*
X76150Y-49900D02*
X76150Y-50100D01*
X76150Y-50100D02*
X76350Y-50100D01*
X76350Y-49900D02*
X76350Y-50100D01*
X76150Y-49900D02*
X76350Y-49900D01*
X76150Y-48900D02*
X76150Y-49100D01*
X76150Y-49100D02*
X76350Y-49100D01*
X76350Y-48900D02*
X76350Y-49100D01*
X76150Y-48900D02*
X76350Y-48900D01*
X76150Y-47900D02*
X76150Y-48100D01*
X76150Y-48100D02*
X76350Y-48100D01*
X76350Y-47900D02*
X76350Y-48100D01*
X76150Y-47900D02*
X76350Y-47900D01*
X76150Y-46900D02*
X76150Y-47100D01*
X76150Y-47100D02*
X76350Y-47100D01*
X76350Y-46900D02*
X76350Y-47100D01*
X76150Y-46900D02*
X76350Y-46900D01*
X76150Y-51900D02*
X76150Y-52100D01*
X76150Y-52100D02*
X76350Y-52100D01*
X76350Y-51900D02*
X76350Y-52100D01*
X76150Y-51900D02*
X76350Y-51900D01*
G54D19*
X76750Y-49750D02*
X76750Y-50250D01*
X76750Y-50250D02*
X76500Y-50500D01*
X76500Y-50500D02*
X76000Y-50500D01*
X76000Y-50500D02*
X75750Y-50250D01*
X76500Y-50500D02*
X76750Y-50750D01*
X76750Y-50750D02*
X76750Y-51250D01*
X76750Y-51250D02*
X76500Y-51500D01*
X76500Y-51500D02*
X76000Y-51500D01*
X76000Y-51500D02*
X75750Y-51250D01*
X75750Y-51250D02*
X75750Y-50750D01*
X75750Y-50750D02*
X76000Y-50500D01*
X76500Y-48500D02*
X76750Y-48750D01*
X76750Y-48750D02*
X76750Y-49250D01*
X76750Y-49250D02*
X76500Y-49500D01*
X76500Y-49500D02*
X76000Y-49500D01*
X76000Y-49500D02*
X75750Y-49250D01*
X75750Y-49250D02*
X75750Y-48750D01*
X75750Y-48750D02*
X76000Y-48500D01*
X76750Y-49750D02*
X76500Y-49500D01*
X76000Y-49500D02*
X75750Y-49750D01*
X75750Y-50250D02*
X75750Y-49750D01*
X76750Y-46750D02*
X76750Y-47250D01*
X76750Y-47250D02*
X76500Y-47500D01*
X76500Y-47500D02*
X76000Y-47500D01*
X76000Y-47500D02*
X75750Y-47250D01*
X76500Y-47500D02*
X76750Y-47750D01*
X76750Y-47750D02*
X76750Y-48250D01*
X76750Y-48250D02*
X76500Y-48500D01*
X76500Y-48500D02*
X76000Y-48500D01*
X76000Y-48500D02*
X75750Y-48250D01*
X75750Y-48250D02*
X75750Y-47750D01*
X75750Y-47750D02*
X76000Y-47500D01*
X76500Y-46500D02*
X76000Y-46500D01*
X76750Y-46750D02*
X76500Y-46500D01*
X76000Y-46500D02*
X75750Y-46750D01*
X75750Y-47250D02*
X75750Y-46750D01*
X76750Y-51750D02*
X76750Y-52250D01*
X76750Y-52250D02*
X76500Y-52500D01*
X76500Y-52500D02*
X76000Y-52500D01*
X76000Y-52500D02*
X75750Y-52250D01*
X76750Y-51750D02*
X76500Y-51500D01*
X76000Y-51500D02*
X75750Y-51750D01*
X75750Y-52250D02*
X75750Y-51750D01*
G54D20*
X66745Y-49893D02*
X66745Y-50379D01*
X66764Y-50436D01*
X66783Y-50464D01*
X66821Y-50493D01*
X66898Y-50493D01*
X66936Y-50464D01*
X66955Y-50436D01*
X66974Y-50379D01*
X66974Y-49893D01*
X67145Y-49950D02*
X67164Y-49921D01*
X67202Y-49893D01*
X67298Y-49893D01*
X67336Y-49921D01*
X67355Y-49950D01*
X67374Y-50007D01*
X67374Y-50064D01*
X67355Y-50150D01*
X67126Y-50493D01*
X67374Y-50493D01*
X65602Y-48393D02*
X65869Y-48993D01*
X65869Y-48393D02*
X65602Y-48993D01*
X66250Y-48936D02*
X66231Y-48964D01*
X66174Y-48993D01*
X66136Y-48993D01*
X66078Y-48964D01*
X66040Y-48907D01*
X66021Y-48850D01*
X66002Y-48736D01*
X66002Y-48650D01*
X66021Y-48536D01*
X66040Y-48479D01*
X66078Y-48421D01*
X66136Y-48393D01*
X66174Y-48393D01*
X66231Y-48421D01*
X66250Y-48450D01*
X66440Y-48993D02*
X66516Y-48993D01*
X66555Y-48964D01*
X66574Y-48936D01*
X66612Y-48850D01*
X66631Y-48736D01*
X66631Y-48507D01*
X66612Y-48450D01*
X66593Y-48421D01*
X66555Y-48393D01*
X66478Y-48393D01*
X66440Y-48421D01*
X66421Y-48450D01*
X66402Y-48507D01*
X66402Y-48650D01*
X66421Y-48707D01*
X66440Y-48736D01*
X66478Y-48764D01*
X66555Y-48764D01*
X66593Y-48736D01*
X66612Y-48707D01*
X66631Y-48650D01*
X66993Y-48393D02*
X66802Y-48393D01*
X66783Y-48679D01*
X66802Y-48650D01*
X66840Y-48621D01*
X66936Y-48621D01*
X66974Y-48650D01*
X66993Y-48679D01*
X67012Y-48736D01*
X67012Y-48879D01*
X66993Y-48936D01*
X66974Y-48964D01*
X66936Y-48993D01*
X66840Y-48993D01*
X66802Y-48964D01*
X66783Y-48936D01*
X67145Y-48393D02*
X67412Y-48393D01*
X67240Y-48993D01*
X67545Y-48450D02*
X67564Y-48421D01*
X67602Y-48393D01*
X67698Y-48393D01*
X67736Y-48421D01*
X67755Y-48450D01*
X67774Y-48507D01*
X67774Y-48564D01*
X67755Y-48650D01*
X67526Y-48993D01*
X67774Y-48993D01*
X67907Y-48393D02*
X68174Y-48993D01*
X68174Y-48393D02*
X67907Y-48993D01*
X68517Y-48993D02*
X68326Y-48993D01*
X68326Y-48393D01*
G54D21*
X57021Y-48190D02*
X57264Y-48190D01*
X57293Y-48179D01*
X57307Y-48167D01*
X57321Y-48143D01*
X57321Y-48095D01*
X57307Y-48071D01*
X57293Y-48060D01*
X57264Y-48048D01*
X57021Y-48048D01*
X57321Y-47798D02*
X57321Y-47940D01*
X57321Y-47869D02*
X57021Y-47869D01*
X57064Y-47893D01*
X57093Y-47917D01*
X57107Y-47940D01*
X67308Y-48977D02*
X67296Y-48989D01*
X67261Y-49001D01*
X67237Y-49001D01*
X67201Y-48989D01*
X67177Y-48965D01*
X67166Y-48942D01*
X67154Y-48894D01*
X67154Y-48858D01*
X67166Y-48811D01*
X67177Y-48787D01*
X67201Y-48763D01*
X67237Y-48751D01*
X67261Y-48751D01*
X67296Y-48763D01*
X67308Y-48775D01*
X67523Y-48751D02*
X67475Y-48751D01*
X67451Y-48763D01*
X67439Y-48775D01*
X67416Y-48811D01*
X67404Y-48858D01*
X67404Y-48954D01*
X67416Y-48977D01*
X67427Y-48989D01*
X67451Y-49001D01*
X67499Y-49001D01*
X67523Y-48989D01*
X67535Y-48977D01*
X67546Y-48954D01*
X67546Y-48894D01*
X67535Y-48870D01*
X67523Y-48858D01*
X67499Y-48846D01*
X67451Y-48846D01*
X67427Y-48858D01*
X67416Y-48870D01*
X67404Y-48894D01*
G54D22*
X58537Y-48029D02*
X58550Y-48038D01*
X58563Y-48064D01*
X58563Y-48081D01*
X58550Y-48106D01*
X58523Y-48124D01*
X58497Y-48132D01*
X58443Y-48141D01*
X58403Y-48141D01*
X58350Y-48132D01*
X58323Y-48124D01*
X58297Y-48106D01*
X58283Y-48081D01*
X58283Y-48064D01*
X58297Y-48038D01*
X58310Y-48029D01*
X58563Y-47858D02*
X58563Y-47961D01*
X58563Y-47909D02*
X58283Y-47909D01*
X58323Y-47926D01*
X58350Y-47944D01*
X58363Y-47961D01*
X56387Y-48029D02*
X56400Y-48038D01*
X56413Y-48064D01*
X56413Y-48081D01*
X56400Y-48106D01*
X56373Y-48124D01*
X56347Y-48132D01*
X56293Y-48141D01*
X56253Y-48141D01*
X56200Y-48132D01*
X56173Y-48124D01*
X56147Y-48106D01*
X56133Y-48081D01*
X56133Y-48064D01*
X56147Y-48038D01*
X56160Y-48029D01*
X56160Y-47961D02*
X56147Y-47952D01*
X56133Y-47935D01*
X56133Y-47892D01*
X56147Y-47875D01*
X56160Y-47866D01*
X56187Y-47858D01*
X56213Y-47858D01*
X56253Y-47866D01*
X56413Y-47969D01*
X56413Y-47858D01*
X57471Y-49187D02*
X57462Y-49200D01*
X57436Y-49213D01*
X57419Y-49213D01*
X57394Y-49200D01*
X57376Y-49173D01*
X57368Y-49147D01*
X57359Y-49093D01*
X57359Y-49053D01*
X57368Y-49000D01*
X57376Y-48973D01*
X57394Y-48947D01*
X57419Y-48933D01*
X57436Y-48933D01*
X57462Y-48947D01*
X57471Y-48960D01*
X57531Y-48933D02*
X57642Y-48933D01*
X57582Y-49040D01*
X57608Y-49040D01*
X57625Y-49053D01*
X57634Y-49067D01*
X57642Y-49093D01*
X57642Y-49160D01*
X57634Y-49187D01*
X57625Y-49200D01*
X57608Y-49213D01*
X57556Y-49213D01*
X57539Y-49200D01*
X57531Y-49187D01*
X57471Y-50487D02*
X57462Y-50500D01*
X57436Y-50513D01*
X57419Y-50513D01*
X57394Y-50500D01*
X57376Y-50473D01*
X57368Y-50447D01*
X57359Y-50393D01*
X57359Y-50353D01*
X57368Y-50300D01*
X57376Y-50273D01*
X57394Y-50247D01*
X57419Y-50233D01*
X57436Y-50233D01*
X57462Y-50247D01*
X57471Y-50260D01*
X57625Y-50327D02*
X57625Y-50513D01*
X57582Y-50220D02*
X57539Y-50420D01*
X57651Y-50420D01*
X67321Y-48387D02*
X67312Y-48400D01*
X67286Y-48413D01*
X67269Y-48413D01*
X67244Y-48400D01*
X67226Y-48373D01*
X67218Y-48347D01*
X67209Y-48293D01*
X67209Y-48253D01*
X67218Y-48200D01*
X67226Y-48173D01*
X67244Y-48147D01*
X67269Y-48133D01*
X67286Y-48133D01*
X67312Y-48147D01*
X67321Y-48160D01*
X67484Y-48133D02*
X67398Y-48133D01*
X67389Y-48267D01*
X67398Y-48253D01*
X67415Y-48240D01*
X67458Y-48240D01*
X67475Y-48253D01*
X67484Y-48267D01*
X67492Y-48293D01*
X67492Y-48360D01*
X67484Y-48387D01*
X67475Y-48400D01*
X67458Y-48413D01*
X67415Y-48413D01*
X67398Y-48400D01*
X67389Y-48387D01*
X57471Y-49913D02*
X57411Y-49780D01*
X57368Y-49913D02*
X57368Y-49633D01*
X57436Y-49633D01*
X57454Y-49647D01*
X57462Y-49660D01*
X57471Y-49687D01*
X57471Y-49727D01*
X57462Y-49753D01*
X57454Y-49767D01*
X57436Y-49780D01*
X57368Y-49780D01*
X57642Y-49913D02*
X57539Y-49913D01*
X57591Y-49913D02*
X57591Y-49633D01*
X57574Y-49673D01*
X57556Y-49700D01*
X57539Y-49713D01*
X56763Y-50129D02*
X56630Y-50189D01*
X56763Y-50232D02*
X56483Y-50232D01*
X56483Y-50164D01*
X56497Y-50146D01*
X56510Y-50138D01*
X56537Y-50129D01*
X56577Y-50129D01*
X56603Y-50138D01*
X56617Y-50146D01*
X56630Y-50164D01*
X56630Y-50232D01*
X56510Y-50061D02*
X56497Y-50052D01*
X56483Y-50035D01*
X56483Y-49992D01*
X56497Y-49975D01*
X56510Y-49966D01*
X56537Y-49958D01*
X56563Y-49958D01*
X56603Y-49966D01*
X56763Y-50069D01*
X56763Y-49958D01*
G54D15*
X58071Y-50922D02*
X57771Y-50922D01*
X57771Y-50850D01*
X57786Y-50807D01*
X57814Y-50779D01*
X57843Y-50764D01*
X57900Y-50750D01*
X57943Y-50750D01*
X58000Y-50764D01*
X58029Y-50779D01*
X58057Y-50807D01*
X58071Y-50850D01*
X58071Y-50922D01*
X58071Y-50464D02*
X58071Y-50636D01*
X58071Y-50550D02*
X57771Y-50550D01*
X57814Y-50579D01*
X57843Y-50607D01*
X57857Y-50636D01*
X58871Y-51278D02*
X59171Y-51278D01*
X58886Y-51278D02*
X58871Y-51249D01*
X58871Y-51192D01*
X58886Y-51163D01*
X58900Y-51149D01*
X58929Y-51135D01*
X59014Y-51135D01*
X59043Y-51149D01*
X59057Y-51163D01*
X59071Y-51192D01*
X59071Y-51249D01*
X59057Y-51278D01*
X59071Y-50964D02*
X59057Y-50992D01*
X59043Y-51007D01*
X59014Y-51021D01*
X58929Y-51021D01*
X58900Y-51007D01*
X58886Y-50992D01*
X58871Y-50964D01*
X58871Y-50921D01*
X58886Y-50892D01*
X58900Y-50878D01*
X58929Y-50864D01*
X59014Y-50864D01*
X59043Y-50878D01*
X59057Y-50892D01*
X59071Y-50921D01*
X59071Y-50964D01*
X58871Y-50764D02*
X59071Y-50707D01*
X58929Y-50650D01*
X59071Y-50593D01*
X58871Y-50536D01*
X59057Y-50307D02*
X59071Y-50336D01*
X59071Y-50393D01*
X59057Y-50422D01*
X59029Y-50436D01*
X58914Y-50436D01*
X58886Y-50422D01*
X58871Y-50393D01*
X58871Y-50336D01*
X58886Y-50307D01*
X58914Y-50293D01*
X58943Y-50293D01*
X58971Y-50436D01*
X59071Y-50165D02*
X58871Y-50165D01*
X58929Y-50165D02*
X58900Y-50150D01*
X58886Y-50136D01*
X58871Y-50107D01*
X58871Y-50079D01*
X60681Y-51702D02*
X60681Y-51202D01*
X60872Y-51202D01*
X60919Y-51226D01*
X60943Y-51250D01*
X60967Y-51298D01*
X60967Y-51369D01*
X60943Y-51417D01*
X60919Y-51440D01*
X60872Y-51464D01*
X60681Y-51464D01*
X61443Y-51702D02*
X61157Y-51702D01*
X61300Y-51702D02*
X61300Y-51202D01*
X61252Y-51274D01*
X61205Y-51321D01*
X61157Y-51345D01*
X55903Y-51805D02*
X55879Y-51829D01*
X55808Y-51852D01*
X55760Y-51852D01*
X55688Y-51829D01*
X55641Y-51781D01*
X55617Y-51733D01*
X55593Y-51638D01*
X55593Y-51567D01*
X55617Y-51471D01*
X55641Y-51424D01*
X55688Y-51376D01*
X55760Y-51352D01*
X55808Y-51352D01*
X55879Y-51376D01*
X55903Y-51400D01*
X56212Y-51352D02*
X56308Y-51352D01*
X56355Y-51376D01*
X56403Y-51424D01*
X56427Y-51519D01*
X56427Y-51686D01*
X56403Y-51781D01*
X56355Y-51829D01*
X56308Y-51852D01*
X56212Y-51852D01*
X56165Y-51829D01*
X56117Y-51781D01*
X56093Y-51686D01*
X56093Y-51519D01*
X56117Y-51424D01*
X56165Y-51376D01*
X56212Y-51352D01*
X56641Y-51852D02*
X56641Y-51352D01*
X56927Y-51852D01*
X56927Y-51352D01*
X57046Y-51900D02*
X57427Y-51900D01*
X57808Y-51852D02*
X57522Y-51852D01*
X57665Y-51852D02*
X57665Y-51352D01*
X57617Y-51424D01*
X57570Y-51471D01*
X57522Y-51495D01*
X60681Y-47652D02*
X60681Y-47152D01*
X60872Y-47152D01*
X60919Y-47176D01*
X60943Y-47200D01*
X60967Y-47248D01*
X60967Y-47319D01*
X60943Y-47367D01*
X60919Y-47390D01*
X60872Y-47414D01*
X60681Y-47414D01*
X61157Y-47200D02*
X61181Y-47176D01*
X61229Y-47152D01*
X61348Y-47152D01*
X61395Y-47176D01*
X61419Y-47200D01*
X61443Y-47248D01*
X61443Y-47295D01*
X61419Y-47367D01*
X61133Y-47652D01*
X61443Y-47652D01*
X55903Y-47605D02*
X55879Y-47629D01*
X55808Y-47652D01*
X55760Y-47652D01*
X55688Y-47629D01*
X55641Y-47581D01*
X55617Y-47533D01*
X55593Y-47438D01*
X55593Y-47367D01*
X55617Y-47271D01*
X55641Y-47224D01*
X55688Y-47176D01*
X55760Y-47152D01*
X55808Y-47152D01*
X55879Y-47176D01*
X55903Y-47200D01*
X56212Y-47152D02*
X56308Y-47152D01*
X56355Y-47176D01*
X56403Y-47224D01*
X56427Y-47319D01*
X56427Y-47486D01*
X56403Y-47581D01*
X56355Y-47629D01*
X56308Y-47652D01*
X56212Y-47652D01*
X56165Y-47629D01*
X56117Y-47581D01*
X56093Y-47486D01*
X56093Y-47319D01*
X56117Y-47224D01*
X56165Y-47176D01*
X56212Y-47152D01*
X56641Y-47652D02*
X56641Y-47152D01*
X56927Y-47652D01*
X56927Y-47152D01*
X57046Y-47700D02*
X57427Y-47700D01*
X57522Y-47200D02*
X57546Y-47176D01*
X57594Y-47152D01*
X57713Y-47152D01*
X57760Y-47176D01*
X57784Y-47200D01*
X57808Y-47248D01*
X57808Y-47295D01*
X57784Y-47367D01*
X57498Y-47652D01*
X57808Y-47652D01*
X74802Y-49769D02*
X74302Y-49769D01*
X74302Y-49578D01*
X74326Y-49531D01*
X74350Y-49507D01*
X74398Y-49483D01*
X74469Y-49483D01*
X74517Y-49507D01*
X74540Y-49531D01*
X74564Y-49578D01*
X74564Y-49769D01*
X74302Y-49317D02*
X74302Y-49007D01*
X74493Y-49174D01*
X74493Y-49102D01*
X74517Y-49055D01*
X74540Y-49031D01*
X74588Y-49007D01*
X74707Y-49007D01*
X74755Y-49031D01*
X74779Y-49055D01*
X74802Y-49102D01*
X74802Y-49245D01*
X74779Y-49293D01*
X74755Y-49317D01*
X75102Y-51616D02*
X75460Y-51616D01*
X75531Y-51640D01*
X75579Y-51688D01*
X75602Y-51759D01*
X75602Y-51807D01*
X75102Y-51449D02*
X75102Y-51164D01*
X75602Y-51307D02*
X75102Y-51307D01*
X75460Y-51021D02*
X75460Y-50783D01*
X75602Y-51068D02*
X75102Y-50902D01*
X75602Y-50735D01*
X75126Y-50306D02*
X75102Y-50354D01*
X75102Y-50425D01*
X75126Y-50497D01*
X75174Y-50544D01*
X75221Y-50568D01*
X75317Y-50592D01*
X75388Y-50592D01*
X75483Y-50568D01*
X75531Y-50544D01*
X75579Y-50497D01*
X75602Y-50425D01*
X75602Y-50377D01*
X75579Y-50306D01*
X75555Y-50282D01*
X75388Y-50282D01*
X75388Y-50377D01*
X75412Y-50068D02*
X75412Y-49687D01*
X75602Y-49449D02*
X75102Y-49449D01*
X75102Y-49258D01*
X75126Y-49211D01*
X75150Y-49187D01*
X75198Y-49163D01*
X75269Y-49163D01*
X75317Y-49187D01*
X75340Y-49211D01*
X75364Y-49258D01*
X75364Y-49449D01*
X75102Y-48854D02*
X75102Y-48758D01*
X75126Y-48711D01*
X75174Y-48663D01*
X75269Y-48639D01*
X75436Y-48639D01*
X75531Y-48663D01*
X75579Y-48711D01*
X75602Y-48758D01*
X75602Y-48854D01*
X75579Y-48901D01*
X75531Y-48949D01*
X75436Y-48973D01*
X75269Y-48973D01*
X75174Y-48949D01*
X75126Y-48901D01*
X75102Y-48854D01*
X75102Y-48473D02*
X75602Y-48354D01*
X75245Y-48258D01*
X75602Y-48163D01*
X75102Y-48044D01*
X75340Y-47854D02*
X75340Y-47687D01*
X75602Y-47616D02*
X75602Y-47854D01*
X75102Y-47854D01*
X75102Y-47616D01*
X75602Y-47116D02*
X75364Y-47283D01*
X75602Y-47402D02*
X75102Y-47402D01*
X75102Y-47211D01*
X75126Y-47164D01*
X75150Y-47140D01*
X75198Y-47116D01*
X75269Y-47116D01*
X75317Y-47140D01*
X75340Y-47164D01*
X75364Y-47211D01*
X75364Y-47402D01*
M02*
