G04 (created by PCBNEW-RS274X (2010-03-14)-final) date jue 03 nov 2011 19:09:22 ART*
G01*
G70*
G90*
%MOIN*%
G04 Gerber Fmt 3.4, Leading zero omitted, Abs format*
%FSLAX34Y34*%
G04 APERTURE LIST*
%ADD10C,0.000100*%
%ADD11C,0.015000*%
%ADD12R,0.016000X0.060000*%
%ADD13R,0.060000X0.016000*%
%ADD14R,0.030000X0.020000*%
%ADD15R,0.045000X0.025000*%
%ADD16R,0.025000X0.045000*%
%ADD17R,0.047200X0.047200*%
G04 APERTURE END LIST*
G54D10*
G54D11*
X76900Y-45850D02*
X76900Y-53150D01*
X76900Y-53150D02*
X55350Y-53150D01*
X55350Y-53150D02*
X55350Y-45850D01*
X55350Y-45850D02*
X76900Y-45850D01*
G54D12*
X67050Y-51750D03*
X67365Y-51750D03*
X67680Y-51750D03*
X67995Y-51750D03*
X68310Y-51750D03*
X68625Y-51750D03*
X66735Y-51750D03*
X66420Y-51750D03*
X66105Y-51750D03*
X65790Y-51750D03*
X65475Y-51750D03*
X67050Y-47250D03*
X67365Y-47250D03*
X67680Y-47250D03*
X67995Y-47250D03*
X68310Y-47250D03*
X68625Y-47250D03*
X66735Y-47250D03*
X66420Y-47250D03*
X66105Y-47250D03*
X65790Y-47250D03*
X65475Y-47250D03*
G54D13*
X69300Y-49500D03*
X64800Y-49500D03*
X69300Y-49185D03*
X64800Y-49185D03*
X64800Y-48870D03*
X69300Y-48870D03*
X69300Y-48555D03*
X64800Y-48555D03*
X64800Y-48240D03*
X69300Y-48240D03*
X69300Y-47925D03*
X64800Y-47925D03*
X64800Y-49815D03*
X69300Y-49815D03*
X69300Y-50130D03*
X64800Y-50130D03*
X64800Y-50445D03*
X69300Y-50445D03*
X69300Y-50760D03*
X64800Y-50760D03*
X64800Y-51075D03*
X69300Y-51075D03*
G54D14*
X57850Y-48375D03*
X57850Y-47625D03*
X56850Y-48375D03*
X57850Y-48000D03*
X56850Y-47625D03*
G54D15*
X58450Y-48300D03*
X58450Y-47700D03*
X56300Y-48300D03*
X56300Y-47700D03*
G54D16*
X57200Y-49100D03*
X57800Y-49100D03*
X57200Y-50400D03*
X57800Y-50400D03*
X57800Y-49800D03*
X57200Y-49800D03*
G54D15*
X56650Y-50400D03*
X56650Y-49800D03*
G54D17*
X58450Y-51113D03*
X58450Y-50287D03*
M02*
