G04 (created by PCBNEW-RS274X (2010-03-14)-final) date jue 03 nov 2011 19:09:21 ART*
G01*
G70*
G90*
%MOIN*%
G04 Gerber Fmt 3.4, Leading zero omitted, Abs format*
%FSLAX34Y34*%
G04 APERTURE LIST*
%ADD10C,0.000100*%
%ADD11C,0.015000*%
%ADD12R,0.035000X0.055000*%
%ADD13R,0.025000X0.045000*%
%ADD14O,0.060000X0.060000*%
%ADD15C,0.028000*%
%ADD16C,0.006000*%
%ADD17C,0.020000*%
%ADD18C,0.010000*%
G04 APERTURE END LIST*
G54D10*
G54D11*
X76900Y-45850D02*
X76900Y-53150D01*
X76900Y-53150D02*
X55350Y-53150D01*
X55350Y-53150D02*
X55350Y-45850D01*
X55350Y-45850D02*
X76900Y-45850D01*
G54D12*
X67725Y-48900D03*
X66975Y-48900D03*
G54D13*
X67650Y-48300D03*
X67050Y-48300D03*
G54D14*
X56000Y-52500D03*
X57000Y-52500D03*
X58000Y-52500D03*
X59000Y-52500D03*
X60000Y-52500D03*
X61000Y-52500D03*
X62000Y-52500D03*
X63000Y-52500D03*
X64000Y-52500D03*
X65000Y-52500D03*
X66000Y-52500D03*
X67000Y-52500D03*
X68000Y-52500D03*
X69000Y-52500D03*
X70000Y-52500D03*
X71000Y-52500D03*
X72000Y-52500D03*
X73000Y-52500D03*
X74000Y-52500D03*
X75000Y-52500D03*
X56000Y-46500D03*
X57000Y-46500D03*
X58000Y-46500D03*
X59000Y-46500D03*
X60000Y-46500D03*
X61000Y-46500D03*
X62000Y-46500D03*
X63000Y-46500D03*
X64000Y-46500D03*
X65000Y-46500D03*
X66000Y-46500D03*
X67000Y-46500D03*
X68000Y-46500D03*
X69000Y-46500D03*
X70000Y-46500D03*
X71000Y-46500D03*
X72000Y-46500D03*
X73000Y-46500D03*
X74000Y-46500D03*
X75000Y-46500D03*
X76250Y-47000D03*
X76250Y-48000D03*
X76250Y-49000D03*
X76250Y-50000D03*
X76250Y-51000D03*
X76250Y-52000D03*
G54D15*
X67100Y-50800D03*
X67100Y-51150D03*
X66750Y-51150D03*
X66400Y-51150D03*
X67350Y-47650D03*
X66100Y-47800D03*
X65700Y-47800D03*
X68450Y-51100D03*
X67050Y-47800D03*
X59950Y-48900D03*
X65900Y-48900D03*
X58150Y-48700D03*
X68200Y-47900D03*
X70300Y-48550D03*
X68600Y-48250D03*
X69950Y-48250D03*
X67650Y-47800D03*
X56850Y-48750D03*
X65790Y-49500D03*
X59100Y-50000D03*
X56650Y-50900D03*
X58350Y-51700D03*
X56800Y-48000D03*
X56600Y-49400D03*
G54D16*
X67100Y-50800D02*
X66850Y-50550D01*
X66850Y-50550D02*
X62950Y-50550D01*
X62950Y-50550D02*
X61000Y-52500D01*
X67100Y-51150D02*
X66650Y-50700D01*
X66650Y-50700D02*
X63800Y-50700D01*
X63800Y-50700D02*
X62000Y-52500D01*
X66750Y-51150D02*
X66500Y-50900D01*
X66500Y-50900D02*
X64600Y-50900D01*
X64600Y-50900D02*
X63000Y-52500D01*
X66400Y-51150D02*
X65550Y-52000D01*
X65550Y-52000D02*
X64500Y-52000D01*
X64500Y-52000D02*
X64000Y-52500D01*
X67350Y-47650D02*
X67850Y-47150D01*
X67850Y-47150D02*
X70350Y-47150D01*
X70350Y-47150D02*
X71000Y-46500D01*
X66100Y-47800D02*
X65850Y-48050D01*
X65850Y-48050D02*
X65450Y-48050D01*
X65450Y-48050D02*
X64700Y-47300D01*
X64700Y-47300D02*
X62800Y-47300D01*
X62800Y-47300D02*
X62000Y-46500D01*
X65700Y-47800D02*
X65000Y-47100D01*
X65000Y-47100D02*
X63600Y-47100D01*
X63600Y-47100D02*
X63000Y-46500D01*
G54D17*
X75500Y-52000D02*
X75000Y-52500D01*
X76250Y-52000D02*
X75500Y-52000D01*
G54D16*
X68450Y-51100D02*
X69400Y-52050D01*
X69400Y-52050D02*
X74550Y-52050D01*
X74550Y-52050D02*
X75000Y-52500D01*
X67050Y-47800D02*
X67050Y-48300D01*
X67050Y-48825D02*
X66975Y-48900D01*
X67050Y-48300D02*
X67050Y-48825D01*
G54D17*
X66400Y-48900D02*
X66975Y-48900D01*
X60000Y-48900D02*
X66400Y-48900D01*
X59950Y-48900D02*
X60000Y-48900D01*
G54D16*
X65900Y-48900D02*
X66400Y-48900D01*
G54D17*
X57000Y-47550D02*
X57000Y-46500D01*
X58150Y-48700D02*
X57000Y-47550D01*
G54D16*
X68200Y-47900D02*
X68200Y-49150D01*
X68200Y-49150D02*
X68750Y-49700D01*
X68750Y-49700D02*
X75950Y-49700D01*
X75950Y-49700D02*
X76250Y-50000D01*
X70300Y-48550D02*
X75300Y-48550D01*
X75300Y-48550D02*
X75850Y-48000D01*
X75850Y-48000D02*
X76250Y-48000D01*
X68600Y-48250D02*
X69350Y-49000D01*
X69350Y-49000D02*
X76250Y-49000D01*
X69950Y-48250D02*
X74600Y-48250D01*
X74600Y-48250D02*
X75850Y-47000D01*
X75850Y-47000D02*
X76250Y-47000D01*
X67650Y-47800D02*
X67650Y-48300D01*
X67650Y-48825D02*
X67725Y-48900D01*
X67650Y-48300D02*
X67650Y-48825D01*
G54D17*
X67600Y-49500D02*
X67725Y-49375D01*
X66050Y-49500D02*
X67600Y-49500D01*
X67725Y-48900D02*
X67725Y-49375D01*
X57600Y-49500D02*
X66050Y-49500D01*
X57600Y-49500D02*
X56850Y-48750D01*
G54D16*
X65790Y-49500D02*
X66050Y-49500D01*
G54D17*
X73600Y-51000D02*
X76250Y-51000D01*
X72650Y-50050D02*
X73600Y-51000D01*
X59100Y-50000D02*
X72650Y-50050D01*
G54D16*
X56650Y-50900D02*
X57450Y-51700D01*
X57450Y-51700D02*
X58350Y-51700D01*
X56800Y-48000D02*
X56600Y-48200D01*
X56600Y-48200D02*
X56600Y-49400D01*
G54D18*
X55525Y-46025D02*
X56722Y-46025D01*
X57277Y-46025D02*
X74722Y-46025D01*
X75277Y-46025D02*
X76725Y-46025D01*
X55525Y-46105D02*
X55794Y-46105D01*
X56206Y-46105D02*
X56619Y-46105D01*
X57382Y-46105D02*
X57794Y-46105D01*
X58206Y-46105D02*
X58794Y-46105D01*
X59206Y-46105D02*
X59794Y-46105D01*
X60206Y-46105D02*
X60794Y-46105D01*
X61206Y-46105D02*
X61794Y-46105D01*
X62206Y-46105D02*
X62794Y-46105D01*
X63206Y-46105D02*
X63794Y-46105D01*
X64206Y-46105D02*
X64794Y-46105D01*
X65206Y-46105D02*
X65794Y-46105D01*
X66206Y-46105D02*
X66794Y-46105D01*
X67206Y-46105D02*
X67794Y-46105D01*
X68206Y-46105D02*
X68794Y-46105D01*
X69206Y-46105D02*
X69794Y-46105D01*
X70206Y-46105D02*
X70794Y-46105D01*
X71206Y-46105D02*
X71794Y-46105D01*
X72206Y-46105D02*
X72794Y-46105D01*
X73206Y-46105D02*
X73794Y-46105D01*
X74206Y-46105D02*
X74619Y-46105D01*
X75382Y-46105D02*
X76725Y-46105D01*
X55525Y-46185D02*
X55684Y-46185D01*
X56316Y-46185D02*
X56547Y-46185D01*
X57454Y-46185D02*
X57684Y-46185D01*
X58316Y-46185D02*
X58684Y-46185D01*
X59316Y-46185D02*
X59684Y-46185D01*
X60316Y-46185D02*
X60684Y-46185D01*
X61316Y-46185D02*
X61684Y-46185D01*
X62316Y-46185D02*
X62684Y-46185D01*
X63316Y-46185D02*
X63684Y-46185D01*
X64316Y-46185D02*
X64684Y-46185D01*
X65316Y-46185D02*
X65684Y-46185D01*
X66316Y-46185D02*
X66684Y-46185D01*
X67316Y-46185D02*
X67684Y-46185D01*
X68316Y-46185D02*
X68684Y-46185D01*
X69316Y-46185D02*
X69684Y-46185D01*
X70316Y-46185D02*
X70684Y-46185D01*
X71316Y-46185D02*
X71684Y-46185D01*
X72316Y-46185D02*
X72684Y-46185D01*
X73316Y-46185D02*
X73684Y-46185D01*
X74316Y-46185D02*
X74547Y-46185D01*
X75454Y-46185D02*
X76725Y-46185D01*
X55525Y-46265D02*
X55613Y-46265D01*
X56388Y-46265D02*
X56503Y-46265D01*
X57498Y-46265D02*
X57613Y-46265D01*
X58388Y-46265D02*
X58613Y-46265D01*
X59388Y-46265D02*
X59613Y-46265D01*
X60388Y-46265D02*
X60613Y-46265D01*
X61388Y-46265D02*
X61613Y-46265D01*
X62388Y-46265D02*
X62613Y-46265D01*
X63388Y-46265D02*
X63613Y-46265D01*
X64388Y-46265D02*
X64613Y-46265D01*
X65388Y-46265D02*
X65613Y-46265D01*
X66388Y-46265D02*
X66613Y-46265D01*
X67388Y-46265D02*
X67613Y-46265D01*
X68388Y-46265D02*
X68613Y-46265D01*
X69388Y-46265D02*
X69613Y-46265D01*
X70388Y-46265D02*
X70613Y-46265D01*
X71388Y-46265D02*
X71613Y-46265D01*
X72388Y-46265D02*
X72613Y-46265D01*
X73388Y-46265D02*
X73613Y-46265D01*
X74388Y-46265D02*
X74503Y-46265D01*
X75498Y-46265D02*
X76725Y-46265D01*
X55525Y-46345D02*
X55580Y-46345D01*
X56421Y-46345D02*
X56475Y-46345D01*
X57526Y-46345D02*
X57580Y-46345D01*
X58421Y-46345D02*
X58580Y-46345D01*
X59421Y-46345D02*
X59580Y-46345D01*
X60421Y-46345D02*
X60580Y-46345D01*
X61421Y-46345D02*
X61580Y-46345D01*
X62421Y-46345D02*
X62580Y-46345D01*
X63421Y-46345D02*
X63580Y-46345D01*
X64421Y-46345D02*
X64580Y-46345D01*
X65421Y-46345D02*
X65580Y-46345D01*
X66421Y-46345D02*
X66580Y-46345D01*
X67421Y-46345D02*
X67580Y-46345D01*
X68421Y-46345D02*
X68580Y-46345D01*
X69421Y-46345D02*
X69580Y-46345D01*
X70421Y-46345D02*
X70580Y-46345D01*
X71421Y-46345D02*
X71580Y-46345D01*
X72421Y-46345D02*
X72580Y-46345D01*
X73421Y-46345D02*
X73580Y-46345D01*
X74421Y-46345D02*
X74475Y-46345D01*
X75526Y-46345D02*
X76725Y-46345D01*
X55525Y-46425D02*
X55551Y-46425D01*
X56449Y-46425D02*
X56501Y-46425D01*
X57498Y-46425D02*
X57551Y-46425D01*
X58449Y-46425D02*
X58551Y-46425D01*
X59449Y-46425D02*
X59551Y-46425D01*
X60449Y-46425D02*
X60551Y-46425D01*
X61449Y-46425D02*
X61551Y-46425D01*
X62449Y-46425D02*
X62551Y-46425D01*
X63449Y-46425D02*
X63551Y-46425D01*
X64449Y-46425D02*
X64551Y-46425D01*
X65449Y-46425D02*
X65551Y-46425D01*
X66449Y-46425D02*
X66551Y-46425D01*
X67449Y-46425D02*
X67551Y-46425D01*
X68449Y-46425D02*
X68551Y-46425D01*
X69449Y-46425D02*
X69551Y-46425D01*
X70449Y-46425D02*
X70551Y-46425D01*
X71449Y-46425D02*
X71551Y-46425D01*
X72449Y-46425D02*
X72551Y-46425D01*
X73449Y-46425D02*
X73551Y-46425D01*
X74449Y-46425D02*
X74501Y-46425D01*
X75498Y-46425D02*
X76725Y-46425D01*
X55525Y-46505D02*
X55551Y-46505D01*
X56449Y-46505D02*
X56500Y-46505D01*
X56950Y-46505D02*
X57050Y-46505D01*
X57500Y-46505D02*
X57551Y-46505D01*
X58449Y-46505D02*
X58551Y-46505D01*
X59449Y-46505D02*
X59551Y-46505D01*
X60449Y-46505D02*
X60551Y-46505D01*
X61449Y-46505D02*
X61551Y-46505D01*
X62449Y-46505D02*
X62551Y-46505D01*
X63449Y-46505D02*
X63551Y-46505D01*
X64449Y-46505D02*
X64551Y-46505D01*
X65449Y-46505D02*
X65551Y-46505D01*
X66449Y-46505D02*
X66551Y-46505D01*
X67449Y-46505D02*
X67551Y-46505D01*
X68449Y-46505D02*
X68551Y-46505D01*
X69449Y-46505D02*
X69551Y-46505D01*
X70449Y-46505D02*
X70551Y-46505D01*
X71449Y-46505D02*
X71551Y-46505D01*
X72449Y-46505D02*
X72551Y-46505D01*
X73449Y-46505D02*
X73551Y-46505D01*
X74449Y-46505D02*
X74500Y-46505D01*
X74950Y-46505D02*
X76725Y-46505D01*
X55525Y-46585D02*
X55551Y-46585D01*
X56449Y-46585D02*
X56496Y-46585D01*
X56950Y-46585D02*
X57050Y-46585D01*
X57505Y-46585D02*
X57551Y-46585D01*
X58449Y-46585D02*
X58551Y-46585D01*
X59449Y-46585D02*
X59551Y-46585D01*
X60449Y-46585D02*
X60551Y-46585D01*
X61449Y-46585D02*
X61551Y-46585D01*
X62449Y-46585D02*
X62551Y-46585D01*
X63449Y-46585D02*
X63551Y-46585D01*
X64449Y-46585D02*
X64551Y-46585D01*
X65449Y-46585D02*
X65551Y-46585D01*
X66449Y-46585D02*
X66551Y-46585D01*
X67449Y-46585D02*
X67551Y-46585D01*
X68449Y-46585D02*
X68551Y-46585D01*
X69449Y-46585D02*
X69551Y-46585D01*
X70449Y-46585D02*
X70551Y-46585D01*
X71449Y-46585D02*
X71551Y-46585D01*
X72449Y-46585D02*
X72551Y-46585D01*
X73449Y-46585D02*
X73551Y-46585D01*
X74449Y-46585D02*
X74496Y-46585D01*
X74950Y-46585D02*
X75050Y-46585D01*
X75505Y-46585D02*
X76081Y-46585D01*
X76419Y-46585D02*
X76725Y-46585D01*
X55525Y-46665D02*
X55583Y-46665D01*
X56416Y-46665D02*
X56478Y-46665D01*
X56950Y-46665D02*
X57050Y-46665D01*
X57521Y-46665D02*
X57583Y-46665D01*
X58416Y-46665D02*
X58583Y-46665D01*
X59416Y-46665D02*
X59583Y-46665D01*
X60416Y-46665D02*
X60583Y-46665D01*
X61416Y-46665D02*
X61583Y-46665D01*
X62419Y-46665D02*
X62583Y-46665D01*
X63419Y-46665D02*
X63583Y-46665D01*
X64416Y-46665D02*
X64583Y-46665D01*
X65416Y-46665D02*
X65583Y-46665D01*
X66416Y-46665D02*
X66583Y-46665D01*
X67416Y-46665D02*
X67583Y-46665D01*
X68416Y-46665D02*
X68583Y-46665D01*
X69416Y-46665D02*
X69583Y-46665D01*
X70416Y-46665D02*
X70580Y-46665D01*
X71416Y-46665D02*
X71583Y-46665D01*
X72416Y-46665D02*
X72583Y-46665D01*
X73416Y-46665D02*
X73583Y-46665D01*
X74416Y-46665D02*
X74478Y-46665D01*
X74950Y-46665D02*
X75050Y-46665D01*
X75521Y-46665D02*
X75954Y-46665D01*
X76546Y-46665D02*
X76725Y-46665D01*
X55525Y-46745D02*
X55616Y-46745D01*
X56383Y-46745D02*
X56505Y-46745D01*
X56950Y-46745D02*
X57050Y-46745D01*
X57494Y-46745D02*
X57616Y-46745D01*
X58383Y-46745D02*
X58616Y-46745D01*
X59383Y-46745D02*
X59616Y-46745D01*
X60383Y-46745D02*
X60616Y-46745D01*
X61383Y-46745D02*
X61616Y-46745D01*
X62499Y-46745D02*
X62616Y-46745D01*
X63499Y-46745D02*
X63616Y-46745D01*
X64383Y-46745D02*
X64616Y-46745D01*
X65383Y-46745D02*
X65616Y-46745D01*
X66383Y-46745D02*
X66616Y-46745D01*
X67383Y-46745D02*
X67616Y-46745D01*
X68383Y-46745D02*
X68616Y-46745D01*
X69383Y-46745D02*
X69616Y-46745D01*
X70383Y-46745D02*
X70500Y-46745D01*
X71383Y-46745D02*
X71616Y-46745D01*
X72383Y-46745D02*
X72616Y-46745D01*
X73383Y-46745D02*
X73616Y-46745D01*
X74383Y-46745D02*
X74505Y-46745D01*
X74950Y-46745D02*
X75050Y-46745D01*
X75494Y-46745D02*
X75876Y-46745D01*
X76625Y-46745D02*
X76725Y-46745D01*
X55525Y-46825D02*
X55694Y-46825D01*
X56306Y-46825D02*
X56555Y-46825D01*
X56950Y-46825D02*
X57050Y-46825D01*
X57444Y-46825D02*
X57694Y-46825D01*
X58306Y-46825D02*
X58694Y-46825D01*
X59306Y-46825D02*
X59694Y-46825D01*
X60306Y-46825D02*
X60694Y-46825D01*
X61306Y-46825D02*
X61694Y-46825D01*
X62579Y-46825D02*
X62694Y-46825D01*
X63579Y-46825D02*
X63694Y-46825D01*
X64306Y-46825D02*
X64694Y-46825D01*
X65306Y-46825D02*
X65694Y-46825D01*
X66306Y-46825D02*
X66694Y-46825D01*
X67306Y-46825D02*
X67694Y-46825D01*
X68306Y-46825D02*
X68694Y-46825D01*
X69306Y-46825D02*
X69694Y-46825D01*
X70306Y-46825D02*
X70420Y-46825D01*
X71306Y-46825D02*
X71694Y-46825D01*
X72306Y-46825D02*
X72694Y-46825D01*
X73306Y-46825D02*
X73694Y-46825D01*
X74306Y-46825D02*
X74555Y-46825D01*
X74950Y-46825D02*
X75050Y-46825D01*
X75444Y-46825D02*
X75824Y-46825D01*
X76658Y-46825D02*
X76725Y-46825D01*
X55525Y-46905D02*
X55818Y-46905D01*
X56182Y-46905D02*
X56627Y-46905D01*
X56950Y-46905D02*
X57050Y-46905D01*
X57372Y-46905D02*
X57818Y-46905D01*
X58182Y-46905D02*
X58818Y-46905D01*
X59182Y-46905D02*
X59818Y-46905D01*
X60182Y-46905D02*
X60818Y-46905D01*
X61182Y-46905D02*
X61818Y-46905D01*
X62659Y-46905D02*
X62818Y-46905D01*
X63659Y-46905D02*
X63817Y-46905D01*
X64181Y-46905D02*
X64817Y-46905D01*
X65182Y-46905D02*
X65818Y-46905D01*
X66182Y-46905D02*
X66818Y-46905D01*
X67182Y-46905D02*
X67818Y-46905D01*
X68182Y-46905D02*
X68818Y-46905D01*
X69182Y-46905D02*
X69818Y-46905D01*
X70182Y-46905D02*
X70340Y-46905D01*
X71182Y-46905D02*
X71818Y-46905D01*
X72182Y-46905D02*
X72818Y-46905D01*
X73182Y-46905D02*
X73818Y-46905D01*
X74182Y-46905D02*
X74627Y-46905D01*
X74950Y-46905D02*
X75050Y-46905D01*
X75372Y-46905D02*
X75690Y-46905D01*
X76691Y-46905D02*
X76725Y-46905D01*
X55525Y-46985D02*
X56743Y-46985D01*
X56950Y-46985D02*
X57050Y-46985D01*
X57256Y-46985D02*
X62230Y-46985D01*
X62739Y-46985D02*
X63230Y-46985D01*
X65139Y-46985D02*
X67780Y-46985D01*
X70768Y-46985D02*
X74743Y-46985D01*
X74950Y-46985D02*
X75050Y-46985D01*
X75256Y-46985D02*
X75610Y-46985D01*
X76691Y-46985D02*
X76725Y-46985D01*
X55525Y-47065D02*
X62310Y-47065D01*
X62819Y-47065D02*
X63310Y-47065D01*
X65219Y-47065D02*
X67681Y-47065D01*
X70688Y-47065D02*
X75530Y-47065D01*
X76691Y-47065D02*
X76725Y-47065D01*
X55525Y-47145D02*
X62390Y-47145D01*
X65299Y-47145D02*
X67601Y-47145D01*
X70608Y-47145D02*
X75450Y-47145D01*
X76670Y-47145D02*
X76725Y-47145D01*
X55525Y-47225D02*
X62470Y-47225D01*
X65379Y-47225D02*
X67521Y-47225D01*
X70528Y-47225D02*
X75370Y-47225D01*
X76636Y-47225D02*
X76725Y-47225D01*
X55525Y-47305D02*
X62550Y-47305D01*
X65459Y-47305D02*
X67441Y-47305D01*
X70435Y-47305D02*
X75290Y-47305D01*
X75799Y-47305D02*
X75924Y-47305D01*
X76576Y-47305D02*
X76725Y-47305D01*
X55525Y-47385D02*
X62630Y-47385D01*
X65539Y-47385D02*
X67236Y-47385D01*
X67868Y-47385D02*
X75210Y-47385D01*
X75719Y-47385D02*
X76009Y-47385D01*
X76491Y-47385D02*
X76725Y-47385D01*
X55525Y-47465D02*
X62729Y-47465D01*
X65619Y-47465D02*
X67127Y-47465D01*
X67788Y-47465D02*
X75129Y-47465D01*
X75639Y-47465D02*
X76725Y-47465D01*
X55525Y-47545D02*
X64690Y-47545D01*
X65840Y-47545D02*
X65962Y-47545D01*
X66240Y-47545D02*
X67081Y-47545D01*
X67790Y-47545D02*
X75049Y-47545D01*
X75559Y-47545D02*
X76725Y-47545D01*
X55525Y-47625D02*
X64770Y-47625D01*
X66334Y-47625D02*
X67061Y-47625D01*
X67884Y-47625D02*
X68110Y-47625D01*
X68292Y-47625D02*
X74969Y-47625D01*
X75479Y-47625D02*
X75994Y-47625D01*
X76506Y-47625D02*
X76725Y-47625D01*
X55525Y-47705D02*
X64850Y-47705D01*
X66374Y-47705D02*
X67061Y-47705D01*
X67924Y-47705D02*
X67987Y-47705D01*
X68414Y-47705D02*
X74889Y-47705D01*
X75399Y-47705D02*
X75914Y-47705D01*
X76586Y-47705D02*
X76725Y-47705D01*
X55525Y-47785D02*
X56607Y-47785D01*
X56994Y-47785D02*
X64930Y-47785D01*
X66389Y-47785D02*
X67093Y-47785D01*
X68465Y-47785D02*
X74810Y-47785D01*
X75319Y-47785D02*
X75859Y-47785D01*
X76642Y-47785D02*
X76725Y-47785D01*
X55525Y-47865D02*
X56543Y-47865D01*
X57057Y-47865D02*
X65010Y-47865D01*
X66386Y-47865D02*
X66783Y-47865D01*
X66978Y-47865D02*
X67122Y-47865D01*
X68489Y-47865D02*
X74730Y-47865D01*
X75239Y-47865D02*
X75735Y-47865D01*
X76675Y-47865D02*
X76725Y-47865D01*
X55525Y-47945D02*
X56511Y-47945D01*
X57089Y-47945D02*
X65090Y-47945D01*
X66352Y-47945D02*
X66710Y-47945D01*
X67000Y-47945D02*
X67100Y-47945D01*
X68489Y-47945D02*
X74650Y-47945D01*
X75159Y-47945D02*
X75650Y-47945D01*
X76691Y-47945D02*
X76725Y-47945D01*
X55525Y-48025D02*
X56511Y-48025D01*
X57089Y-48025D02*
X65170Y-48025D01*
X66283Y-48025D02*
X66676Y-48025D01*
X67000Y-48025D02*
X67100Y-48025D01*
X68784Y-48025D02*
X69767Y-48025D01*
X70134Y-48025D02*
X74570Y-48025D01*
X75079Y-48025D02*
X75570Y-48025D01*
X76691Y-48025D02*
X76725Y-48025D01*
X55525Y-48105D02*
X56452Y-48105D01*
X57069Y-48105D02*
X65250Y-48105D01*
X66049Y-48105D02*
X66676Y-48105D01*
X67000Y-48105D02*
X67100Y-48105D01*
X68853Y-48105D02*
X69698Y-48105D01*
X74999Y-48105D02*
X75490Y-48105D01*
X76687Y-48105D02*
X76725Y-48105D01*
X55525Y-48185D02*
X56424Y-48185D01*
X57023Y-48185D02*
X65334Y-48185D01*
X65965Y-48185D02*
X66676Y-48185D01*
X67000Y-48185D02*
X67100Y-48185D01*
X68886Y-48185D02*
X69664Y-48185D01*
X74919Y-48185D02*
X75410Y-48185D01*
X76653Y-48185D02*
X76725Y-48185D01*
X55525Y-48265D02*
X56420Y-48265D01*
X56914Y-48265D02*
X67100Y-48265D01*
X68889Y-48265D02*
X69661Y-48265D01*
X74839Y-48265D02*
X75330Y-48265D01*
X75839Y-48265D02*
X75884Y-48265D01*
X76616Y-48265D02*
X76725Y-48265D01*
X55525Y-48345D02*
X56420Y-48345D01*
X56780Y-48345D02*
X67100Y-48345D01*
X68950Y-48345D02*
X69676Y-48345D01*
X74759Y-48345D02*
X75250Y-48345D01*
X75759Y-48345D02*
X75964Y-48345D01*
X76536Y-48345D02*
X76725Y-48345D01*
X55525Y-48425D02*
X56420Y-48425D01*
X56780Y-48425D02*
X66648Y-48425D01*
X69030Y-48425D02*
X69716Y-48425D01*
X75679Y-48425D02*
X76104Y-48425D01*
X76395Y-48425D02*
X76725Y-48425D01*
X55525Y-48505D02*
X56420Y-48505D01*
X57014Y-48505D02*
X66581Y-48505D01*
X68380Y-48505D02*
X68460Y-48505D01*
X69110Y-48505D02*
X69810Y-48505D01*
X75599Y-48505D02*
X76725Y-48505D01*
X55525Y-48585D02*
X56420Y-48585D01*
X57094Y-48585D02*
X66551Y-48585D01*
X68380Y-48585D02*
X68680Y-48585D01*
X69190Y-48585D02*
X70011Y-48585D01*
X75519Y-48585D02*
X76081Y-48585D01*
X76419Y-48585D02*
X76725Y-48585D01*
X55525Y-48665D02*
X56420Y-48665D01*
X57128Y-48665D02*
X66551Y-48665D01*
X68380Y-48665D02*
X68760Y-48665D01*
X69270Y-48665D02*
X70035Y-48665D01*
X75439Y-48665D02*
X75954Y-48665D01*
X76546Y-48665D02*
X76725Y-48665D01*
X55525Y-48745D02*
X56420Y-48745D01*
X57199Y-48745D02*
X66551Y-48745D01*
X68380Y-48745D02*
X68840Y-48745D01*
X69350Y-48745D02*
X70086Y-48745D01*
X70513Y-48745D02*
X75876Y-48745D01*
X76625Y-48745D02*
X76725Y-48745D01*
X55525Y-48825D02*
X56420Y-48825D01*
X57279Y-48825D02*
X66587Y-48825D01*
X68380Y-48825D02*
X68920Y-48825D01*
X76658Y-48825D02*
X76725Y-48825D01*
X55525Y-48905D02*
X56420Y-48905D01*
X57359Y-48905D02*
X67025Y-48905D01*
X68380Y-48905D02*
X69000Y-48905D01*
X76691Y-48905D02*
X76725Y-48905D01*
X55525Y-48985D02*
X56420Y-48985D01*
X57439Y-48985D02*
X66577Y-48985D01*
X68380Y-48985D02*
X69080Y-48985D01*
X76691Y-48985D02*
X76725Y-48985D01*
X55525Y-49065D02*
X56420Y-49065D01*
X56780Y-49065D02*
X56811Y-49065D01*
X57519Y-49065D02*
X66550Y-49065D01*
X68380Y-49065D02*
X69160Y-49065D01*
X76691Y-49065D02*
X76725Y-49065D01*
X55525Y-49145D02*
X56420Y-49145D01*
X56780Y-49145D02*
X56891Y-49145D01*
X57599Y-49145D02*
X66551Y-49145D01*
X68450Y-49145D02*
X69249Y-49145D01*
X76670Y-49145D02*
X76725Y-49145D01*
X55525Y-49225D02*
X56366Y-49225D01*
X56834Y-49225D02*
X56971Y-49225D01*
X57679Y-49225D02*
X65700Y-49225D01*
X65882Y-49225D02*
X66551Y-49225D01*
X68530Y-49225D02*
X75862Y-49225D01*
X76636Y-49225D02*
X76725Y-49225D01*
X55525Y-49305D02*
X56327Y-49305D01*
X56874Y-49305D02*
X57051Y-49305D01*
X68610Y-49305D02*
X75924Y-49305D01*
X76576Y-49305D02*
X76725Y-49305D01*
X55525Y-49385D02*
X56311Y-49385D01*
X56889Y-49385D02*
X57131Y-49385D01*
X68690Y-49385D02*
X76009Y-49385D01*
X76491Y-49385D02*
X76725Y-49385D01*
X55525Y-49465D02*
X56314Y-49465D01*
X56886Y-49465D02*
X57211Y-49465D01*
X68770Y-49465D02*
X76725Y-49465D01*
X55525Y-49545D02*
X56347Y-49545D01*
X56852Y-49545D02*
X57291Y-49545D01*
X76036Y-49545D02*
X76725Y-49545D01*
X55525Y-49625D02*
X56416Y-49625D01*
X56783Y-49625D02*
X57371Y-49625D01*
X76506Y-49625D02*
X76725Y-49625D01*
X55525Y-49705D02*
X57465Y-49705D01*
X76586Y-49705D02*
X76725Y-49705D01*
X55525Y-49785D02*
X58907Y-49785D01*
X76642Y-49785D02*
X76725Y-49785D01*
X55525Y-49865D02*
X58843Y-49865D01*
X76675Y-49865D02*
X76725Y-49865D01*
X55525Y-49945D02*
X58811Y-49945D01*
X72898Y-49945D02*
X75809Y-49945D01*
X76691Y-49945D02*
X76725Y-49945D01*
X55525Y-50025D02*
X58811Y-50025D01*
X72978Y-50025D02*
X75809Y-50025D01*
X76691Y-50025D02*
X76725Y-50025D01*
X55525Y-50105D02*
X58830Y-50105D01*
X73058Y-50105D02*
X75813Y-50105D01*
X76687Y-50105D02*
X76725Y-50105D01*
X55525Y-50185D02*
X58876Y-50185D01*
X73138Y-50185D02*
X75846Y-50185D01*
X76653Y-50185D02*
X76725Y-50185D01*
X55525Y-50265D02*
X58984Y-50265D01*
X59213Y-50265D02*
X63583Y-50265D01*
X73218Y-50265D02*
X75884Y-50265D01*
X76616Y-50265D02*
X76725Y-50265D01*
X55525Y-50345D02*
X72591Y-50345D01*
X73298Y-50345D02*
X75964Y-50345D01*
X76536Y-50345D02*
X76725Y-50345D01*
X55525Y-50425D02*
X62820Y-50425D01*
X66979Y-50425D02*
X72671Y-50425D01*
X73378Y-50425D02*
X76104Y-50425D01*
X76395Y-50425D02*
X76725Y-50425D01*
X55525Y-50505D02*
X62740Y-50505D01*
X67059Y-50505D02*
X72751Y-50505D01*
X73458Y-50505D02*
X76725Y-50505D01*
X55525Y-50585D02*
X62660Y-50585D01*
X67294Y-50585D02*
X72831Y-50585D01*
X73538Y-50585D02*
X76081Y-50585D01*
X76419Y-50585D02*
X76725Y-50585D01*
X55525Y-50665D02*
X56477Y-50665D01*
X56824Y-50665D02*
X62580Y-50665D01*
X67357Y-50665D02*
X72911Y-50665D01*
X73618Y-50665D02*
X75954Y-50665D01*
X76546Y-50665D02*
X76725Y-50665D01*
X55525Y-50745D02*
X56402Y-50745D01*
X56899Y-50745D02*
X62500Y-50745D01*
X63008Y-50745D02*
X63500Y-50745D01*
X67389Y-50745D02*
X72991Y-50745D01*
X73698Y-50745D02*
X75876Y-50745D01*
X76625Y-50745D02*
X76725Y-50745D01*
X55525Y-50825D02*
X56369Y-50825D01*
X56932Y-50825D02*
X62420Y-50825D01*
X62928Y-50825D02*
X63420Y-50825D01*
X67389Y-50825D02*
X73071Y-50825D01*
X76658Y-50825D02*
X76725Y-50825D01*
X55525Y-50905D02*
X56361Y-50905D01*
X56939Y-50905D02*
X62340Y-50905D01*
X62848Y-50905D02*
X63340Y-50905D01*
X63848Y-50905D02*
X64340Y-50905D01*
X67369Y-50905D02*
X73151Y-50905D01*
X76691Y-50905D02*
X76725Y-50905D01*
X55525Y-50985D02*
X56372Y-50985D01*
X56990Y-50985D02*
X62260Y-50985D01*
X62768Y-50985D02*
X63260Y-50985D01*
X63768Y-50985D02*
X64260Y-50985D01*
X67343Y-50985D02*
X73231Y-50985D01*
X76691Y-50985D02*
X76725Y-50985D01*
X55525Y-51065D02*
X56406Y-51065D01*
X57070Y-51065D02*
X62180Y-51065D01*
X62688Y-51065D02*
X63180Y-51065D01*
X63688Y-51065D02*
X64180Y-51065D01*
X67378Y-51065D02*
X73311Y-51065D01*
X76691Y-51065D02*
X76725Y-51065D01*
X55525Y-51145D02*
X56486Y-51145D01*
X57150Y-51145D02*
X62100Y-51145D01*
X62608Y-51145D02*
X63100Y-51145D01*
X63608Y-51145D02*
X64100Y-51145D01*
X64608Y-51145D02*
X66111Y-51145D01*
X67389Y-51145D02*
X73391Y-51145D01*
X76670Y-51145D02*
X76725Y-51145D01*
X55525Y-51225D02*
X56720Y-51225D01*
X57230Y-51225D02*
X62020Y-51225D01*
X62528Y-51225D02*
X63020Y-51225D01*
X63528Y-51225D02*
X64020Y-51225D01*
X64528Y-51225D02*
X66071Y-51225D01*
X67381Y-51225D02*
X73495Y-51225D01*
X76636Y-51225D02*
X76725Y-51225D01*
X55525Y-51305D02*
X56800Y-51305D01*
X57310Y-51305D02*
X61940Y-51305D01*
X62448Y-51305D02*
X62940Y-51305D01*
X63448Y-51305D02*
X63940Y-51305D01*
X64448Y-51305D02*
X65991Y-51305D01*
X67348Y-51305D02*
X75924Y-51305D01*
X76576Y-51305D02*
X76725Y-51305D01*
X55525Y-51385D02*
X56880Y-51385D01*
X57390Y-51385D02*
X61860Y-51385D01*
X62368Y-51385D02*
X62860Y-51385D01*
X63368Y-51385D02*
X63860Y-51385D01*
X64368Y-51385D02*
X65911Y-51385D01*
X66572Y-51385D02*
X66576Y-51385D01*
X66922Y-51385D02*
X66926Y-51385D01*
X67273Y-51385D02*
X76009Y-51385D01*
X76491Y-51385D02*
X76725Y-51385D01*
X55525Y-51465D02*
X56960Y-51465D01*
X57470Y-51465D02*
X58177Y-51465D01*
X58524Y-51465D02*
X61780Y-51465D01*
X62288Y-51465D02*
X62780Y-51465D01*
X63288Y-51465D02*
X63780Y-51465D01*
X64288Y-51465D02*
X65831Y-51465D01*
X66338Y-51465D02*
X76725Y-51465D01*
X55525Y-51545D02*
X57040Y-51545D01*
X58599Y-51545D02*
X61700Y-51545D01*
X62208Y-51545D02*
X62700Y-51545D01*
X63208Y-51545D02*
X63700Y-51545D01*
X64208Y-51545D02*
X65751Y-51545D01*
X66258Y-51545D02*
X75937Y-51545D01*
X76564Y-51545D02*
X76725Y-51545D01*
X55525Y-51625D02*
X57120Y-51625D01*
X58632Y-51625D02*
X61620Y-51625D01*
X62128Y-51625D02*
X62620Y-51625D01*
X63128Y-51625D02*
X63620Y-51625D01*
X64128Y-51625D02*
X65671Y-51625D01*
X66178Y-51625D02*
X75848Y-51625D01*
X76653Y-51625D02*
X76725Y-51625D01*
X55525Y-51705D02*
X57200Y-51705D01*
X58639Y-51705D02*
X61540Y-51705D01*
X62048Y-51705D02*
X62540Y-51705D01*
X63048Y-51705D02*
X63540Y-51705D01*
X64048Y-51705D02*
X65591Y-51705D01*
X66098Y-51705D02*
X75784Y-51705D01*
X76717Y-51705D02*
X76725Y-51705D01*
X55525Y-51785D02*
X57280Y-51785D01*
X58627Y-51785D02*
X61460Y-51785D01*
X61968Y-51785D02*
X62460Y-51785D01*
X62968Y-51785D02*
X63460Y-51785D01*
X63968Y-51785D02*
X65511Y-51785D01*
X66018Y-51785D02*
X75746Y-51785D01*
X55525Y-51865D02*
X57379Y-51865D01*
X58593Y-51865D02*
X61380Y-51865D01*
X61888Y-51865D02*
X62380Y-51865D01*
X62888Y-51865D02*
X63380Y-51865D01*
X63888Y-51865D02*
X64385Y-51865D01*
X65938Y-51865D02*
X75709Y-51865D01*
X55525Y-51945D02*
X58186Y-51945D01*
X58513Y-51945D02*
X61300Y-51945D01*
X61808Y-51945D02*
X62300Y-51945D01*
X62808Y-51945D02*
X63300Y-51945D01*
X63808Y-51945D02*
X64301Y-51945D01*
X65858Y-51945D02*
X75752Y-51945D01*
X55525Y-52025D02*
X56723Y-52025D01*
X56950Y-52025D02*
X57050Y-52025D01*
X57278Y-52025D02*
X61220Y-52025D01*
X61728Y-52025D02*
X62220Y-52025D01*
X62728Y-52025D02*
X63220Y-52025D01*
X63728Y-52025D02*
X64221Y-52025D01*
X65778Y-52025D02*
X74723Y-52025D01*
X74950Y-52025D02*
X75050Y-52025D01*
X75278Y-52025D02*
X76300Y-52025D01*
X55525Y-52105D02*
X55794Y-52105D01*
X56206Y-52105D02*
X56619Y-52105D01*
X56950Y-52105D02*
X57050Y-52105D01*
X57382Y-52105D02*
X57794Y-52105D01*
X58206Y-52105D02*
X58794Y-52105D01*
X59206Y-52105D02*
X59794Y-52105D01*
X60206Y-52105D02*
X60794Y-52105D01*
X61648Y-52105D02*
X61794Y-52105D01*
X62648Y-52105D02*
X62794Y-52105D01*
X63648Y-52105D02*
X63794Y-52105D01*
X65698Y-52105D02*
X65794Y-52105D01*
X66206Y-52105D02*
X66794Y-52105D01*
X67206Y-52105D02*
X67794Y-52105D01*
X68206Y-52105D02*
X68794Y-52105D01*
X69206Y-52105D02*
X69794Y-52105D01*
X70206Y-52105D02*
X70794Y-52105D01*
X71206Y-52105D02*
X71794Y-52105D01*
X72206Y-52105D02*
X72794Y-52105D01*
X73206Y-52105D02*
X73794Y-52105D01*
X74206Y-52105D02*
X74619Y-52105D01*
X74950Y-52105D02*
X75050Y-52105D01*
X75382Y-52105D02*
X75726Y-52105D01*
X76200Y-52105D02*
X76300Y-52105D01*
X55525Y-52185D02*
X55684Y-52185D01*
X56316Y-52185D02*
X56547Y-52185D01*
X56950Y-52185D02*
X57050Y-52185D01*
X57454Y-52185D02*
X57684Y-52185D01*
X58316Y-52185D02*
X58684Y-52185D01*
X59316Y-52185D02*
X59684Y-52185D01*
X60316Y-52185D02*
X60684Y-52185D01*
X61568Y-52185D02*
X61684Y-52185D01*
X62568Y-52185D02*
X62684Y-52185D01*
X63568Y-52185D02*
X63684Y-52185D01*
X64568Y-52185D02*
X64684Y-52185D01*
X65316Y-52185D02*
X65684Y-52185D01*
X66316Y-52185D02*
X66684Y-52185D01*
X67316Y-52185D02*
X67684Y-52185D01*
X68316Y-52185D02*
X68684Y-52185D01*
X69316Y-52185D02*
X69684Y-52185D01*
X70316Y-52185D02*
X70684Y-52185D01*
X71316Y-52185D02*
X71684Y-52185D01*
X72316Y-52185D02*
X72684Y-52185D01*
X73316Y-52185D02*
X73684Y-52185D01*
X74316Y-52185D02*
X74547Y-52185D01*
X74950Y-52185D02*
X75050Y-52185D01*
X75454Y-52185D02*
X75730Y-52185D01*
X76200Y-52185D02*
X76300Y-52185D01*
X55525Y-52265D02*
X55613Y-52265D01*
X56388Y-52265D02*
X56503Y-52265D01*
X56950Y-52265D02*
X57050Y-52265D01*
X57498Y-52265D02*
X57613Y-52265D01*
X58388Y-52265D02*
X58613Y-52265D01*
X59388Y-52265D02*
X59613Y-52265D01*
X60388Y-52265D02*
X60613Y-52265D01*
X61488Y-52265D02*
X61613Y-52265D01*
X62488Y-52265D02*
X62613Y-52265D01*
X63488Y-52265D02*
X63613Y-52265D01*
X64488Y-52265D02*
X64613Y-52265D01*
X65388Y-52265D02*
X65613Y-52265D01*
X66388Y-52265D02*
X66613Y-52265D01*
X67388Y-52265D02*
X67613Y-52265D01*
X68388Y-52265D02*
X68613Y-52265D01*
X69388Y-52265D02*
X69613Y-52265D01*
X70388Y-52265D02*
X70613Y-52265D01*
X71388Y-52265D02*
X71613Y-52265D01*
X72388Y-52265D02*
X72613Y-52265D01*
X73388Y-52265D02*
X73613Y-52265D01*
X74388Y-52265D02*
X74503Y-52265D01*
X74950Y-52265D02*
X75050Y-52265D01*
X75498Y-52265D02*
X75769Y-52265D01*
X76200Y-52265D02*
X76300Y-52265D01*
X55525Y-52345D02*
X55580Y-52345D01*
X56421Y-52345D02*
X56475Y-52345D01*
X56950Y-52345D02*
X57050Y-52345D01*
X57526Y-52345D02*
X57580Y-52345D01*
X58421Y-52345D02*
X58580Y-52345D01*
X59421Y-52345D02*
X59580Y-52345D01*
X60421Y-52345D02*
X60580Y-52345D01*
X61421Y-52345D02*
X61580Y-52345D01*
X62421Y-52345D02*
X62580Y-52345D01*
X63421Y-52345D02*
X63580Y-52345D01*
X64421Y-52345D02*
X64580Y-52345D01*
X65421Y-52345D02*
X65580Y-52345D01*
X66421Y-52345D02*
X66580Y-52345D01*
X67421Y-52345D02*
X67580Y-52345D01*
X68421Y-52345D02*
X68580Y-52345D01*
X69421Y-52345D02*
X69580Y-52345D01*
X70421Y-52345D02*
X70580Y-52345D01*
X71421Y-52345D02*
X71580Y-52345D01*
X72421Y-52345D02*
X72580Y-52345D01*
X73421Y-52345D02*
X73580Y-52345D01*
X74421Y-52345D02*
X74475Y-52345D01*
X74950Y-52345D02*
X75050Y-52345D01*
X75526Y-52345D02*
X75814Y-52345D01*
X76200Y-52345D02*
X76300Y-52345D01*
X76685Y-52345D02*
X76725Y-52345D01*
X55525Y-52425D02*
X55551Y-52425D01*
X56449Y-52425D02*
X56501Y-52425D01*
X56950Y-52425D02*
X57050Y-52425D01*
X57498Y-52425D02*
X57551Y-52425D01*
X58449Y-52425D02*
X58551Y-52425D01*
X59449Y-52425D02*
X59551Y-52425D01*
X60449Y-52425D02*
X60551Y-52425D01*
X61449Y-52425D02*
X61551Y-52425D01*
X62449Y-52425D02*
X62551Y-52425D01*
X63449Y-52425D02*
X63551Y-52425D01*
X64449Y-52425D02*
X64551Y-52425D01*
X65449Y-52425D02*
X65551Y-52425D01*
X66449Y-52425D02*
X66551Y-52425D01*
X67449Y-52425D02*
X67551Y-52425D01*
X68449Y-52425D02*
X68551Y-52425D01*
X69449Y-52425D02*
X69551Y-52425D01*
X70449Y-52425D02*
X70551Y-52425D01*
X71449Y-52425D02*
X71551Y-52425D01*
X72449Y-52425D02*
X72551Y-52425D01*
X73449Y-52425D02*
X73551Y-52425D01*
X74449Y-52425D02*
X74501Y-52425D01*
X74950Y-52425D02*
X75050Y-52425D01*
X75498Y-52425D02*
X75902Y-52425D01*
X76200Y-52425D02*
X76300Y-52425D01*
X76597Y-52425D02*
X76725Y-52425D01*
X55525Y-52505D02*
X55551Y-52505D01*
X56449Y-52505D02*
X56500Y-52505D01*
X56950Y-52505D02*
X57050Y-52505D01*
X57500Y-52505D02*
X57551Y-52505D01*
X58449Y-52505D02*
X58551Y-52505D01*
X59449Y-52505D02*
X59551Y-52505D01*
X60449Y-52505D02*
X60551Y-52505D01*
X61449Y-52505D02*
X61551Y-52505D01*
X62449Y-52505D02*
X62551Y-52505D01*
X63449Y-52505D02*
X63551Y-52505D01*
X64449Y-52505D02*
X64551Y-52505D01*
X65449Y-52505D02*
X65551Y-52505D01*
X66449Y-52505D02*
X66551Y-52505D01*
X67449Y-52505D02*
X67551Y-52505D01*
X68449Y-52505D02*
X68551Y-52505D01*
X69449Y-52505D02*
X69551Y-52505D01*
X70449Y-52505D02*
X70551Y-52505D01*
X71449Y-52505D02*
X71551Y-52505D01*
X72449Y-52505D02*
X72551Y-52505D01*
X73449Y-52505D02*
X73551Y-52505D01*
X74449Y-52505D02*
X74500Y-52505D01*
X74950Y-52505D02*
X76036Y-52505D01*
X76163Y-52505D02*
X76336Y-52505D01*
X76463Y-52505D02*
X76725Y-52505D01*
X55525Y-52585D02*
X55551Y-52585D01*
X56449Y-52585D02*
X56496Y-52585D01*
X57505Y-52585D02*
X57551Y-52585D01*
X58449Y-52585D02*
X58551Y-52585D01*
X59449Y-52585D02*
X59551Y-52585D01*
X60449Y-52585D02*
X60551Y-52585D01*
X61449Y-52585D02*
X61551Y-52585D01*
X62449Y-52585D02*
X62551Y-52585D01*
X63449Y-52585D02*
X63551Y-52585D01*
X64449Y-52585D02*
X64551Y-52585D01*
X65449Y-52585D02*
X65551Y-52585D01*
X66449Y-52585D02*
X66551Y-52585D01*
X67449Y-52585D02*
X67551Y-52585D01*
X68449Y-52585D02*
X68551Y-52585D01*
X69449Y-52585D02*
X69551Y-52585D01*
X70449Y-52585D02*
X70551Y-52585D01*
X71449Y-52585D02*
X71551Y-52585D01*
X72449Y-52585D02*
X72551Y-52585D01*
X73449Y-52585D02*
X73551Y-52585D01*
X74449Y-52585D02*
X74496Y-52585D01*
X75505Y-52585D02*
X76725Y-52585D01*
X55525Y-52665D02*
X55583Y-52665D01*
X56416Y-52665D02*
X56478Y-52665D01*
X57521Y-52665D02*
X57583Y-52665D01*
X58416Y-52665D02*
X58583Y-52665D01*
X59416Y-52665D02*
X59583Y-52665D01*
X60416Y-52665D02*
X60583Y-52665D01*
X61416Y-52665D02*
X61583Y-52665D01*
X62416Y-52665D02*
X62583Y-52665D01*
X63416Y-52665D02*
X63583Y-52665D01*
X64416Y-52665D02*
X64583Y-52665D01*
X65416Y-52665D02*
X65583Y-52665D01*
X66416Y-52665D02*
X66583Y-52665D01*
X67416Y-52665D02*
X67583Y-52665D01*
X68416Y-52665D02*
X68583Y-52665D01*
X69416Y-52665D02*
X69583Y-52665D01*
X70416Y-52665D02*
X70583Y-52665D01*
X71416Y-52665D02*
X71583Y-52665D01*
X72416Y-52665D02*
X72583Y-52665D01*
X73416Y-52665D02*
X73583Y-52665D01*
X74416Y-52665D02*
X74478Y-52665D01*
X75521Y-52665D02*
X76725Y-52665D01*
X55525Y-52745D02*
X55616Y-52745D01*
X56383Y-52745D02*
X56505Y-52745D01*
X57494Y-52745D02*
X57616Y-52745D01*
X58383Y-52745D02*
X58616Y-52745D01*
X59383Y-52745D02*
X59616Y-52745D01*
X60383Y-52745D02*
X60616Y-52745D01*
X61383Y-52745D02*
X61616Y-52745D01*
X62383Y-52745D02*
X62616Y-52745D01*
X63383Y-52745D02*
X63616Y-52745D01*
X64383Y-52745D02*
X64616Y-52745D01*
X65383Y-52745D02*
X65616Y-52745D01*
X66383Y-52745D02*
X66616Y-52745D01*
X67383Y-52745D02*
X67616Y-52745D01*
X68383Y-52745D02*
X68616Y-52745D01*
X69383Y-52745D02*
X69616Y-52745D01*
X70383Y-52745D02*
X70616Y-52745D01*
X71383Y-52745D02*
X71616Y-52745D01*
X72383Y-52745D02*
X72616Y-52745D01*
X73383Y-52745D02*
X73616Y-52745D01*
X74383Y-52745D02*
X74505Y-52745D01*
X75494Y-52745D02*
X76725Y-52745D01*
X55525Y-52825D02*
X55694Y-52825D01*
X56306Y-52825D02*
X56555Y-52825D01*
X57444Y-52825D02*
X57694Y-52825D01*
X58306Y-52825D02*
X58694Y-52825D01*
X59306Y-52825D02*
X59694Y-52825D01*
X60306Y-52825D02*
X60694Y-52825D01*
X61306Y-52825D02*
X61694Y-52825D01*
X62306Y-52825D02*
X62694Y-52825D01*
X63306Y-52825D02*
X63694Y-52825D01*
X64306Y-52825D02*
X64694Y-52825D01*
X65306Y-52825D02*
X65694Y-52825D01*
X66306Y-52825D02*
X66694Y-52825D01*
X67306Y-52825D02*
X67694Y-52825D01*
X68306Y-52825D02*
X68694Y-52825D01*
X69306Y-52825D02*
X69694Y-52825D01*
X70306Y-52825D02*
X70694Y-52825D01*
X71306Y-52825D02*
X71694Y-52825D01*
X72306Y-52825D02*
X72694Y-52825D01*
X73306Y-52825D02*
X73694Y-52825D01*
X74306Y-52825D02*
X74555Y-52825D01*
X75444Y-52825D02*
X76725Y-52825D01*
X55525Y-52905D02*
X55818Y-52905D01*
X56182Y-52905D02*
X56627Y-52905D01*
X57372Y-52905D02*
X57818Y-52905D01*
X58182Y-52905D02*
X58818Y-52905D01*
X59182Y-52905D02*
X59818Y-52905D01*
X60182Y-52905D02*
X60818Y-52905D01*
X61182Y-52905D02*
X61818Y-52905D01*
X62182Y-52905D02*
X62818Y-52905D01*
X63182Y-52905D02*
X63818Y-52905D01*
X64182Y-52905D02*
X64818Y-52905D01*
X65182Y-52905D02*
X65818Y-52905D01*
X66182Y-52905D02*
X66818Y-52905D01*
X67182Y-52905D02*
X67818Y-52905D01*
X68182Y-52905D02*
X68818Y-52905D01*
X69182Y-52905D02*
X69818Y-52905D01*
X70182Y-52905D02*
X70818Y-52905D01*
X71182Y-52905D02*
X71818Y-52905D01*
X72182Y-52905D02*
X72818Y-52905D01*
X73182Y-52905D02*
X73818Y-52905D01*
X74182Y-52905D02*
X74627Y-52905D01*
X75372Y-52905D02*
X76725Y-52905D01*
X76725Y-52975D02*
X76725Y-52277D01*
X76698Y-52334D01*
X76536Y-52480D01*
X76385Y-52532D01*
X76300Y-52485D01*
X76300Y-52050D01*
X76300Y-51950D01*
X76200Y-51950D01*
X76162Y-51950D01*
X75755Y-51950D01*
X75708Y-51863D01*
X75802Y-51666D01*
X75964Y-51520D01*
X76115Y-51468D01*
X76162Y-51493D01*
X76162Y-51449D01*
X76000Y-51381D01*
X75876Y-51257D01*
X75873Y-51250D01*
X73600Y-51250D01*
X73504Y-51231D01*
X73423Y-51177D01*
X73421Y-51174D01*
X72542Y-50296D01*
X59249Y-50250D01*
X59157Y-50289D01*
X59042Y-50289D01*
X58936Y-50245D01*
X58855Y-50163D01*
X58811Y-50057D01*
X58811Y-49942D01*
X58855Y-49836D01*
X58937Y-49755D01*
X58949Y-49750D01*
X57600Y-49750D01*
X57504Y-49731D01*
X57423Y-49677D01*
X57421Y-49674D01*
X56780Y-49034D01*
X56780Y-49171D01*
X56845Y-49237D01*
X56889Y-49343D01*
X56889Y-49458D01*
X56845Y-49564D01*
X56763Y-49645D01*
X56657Y-49689D01*
X56542Y-49689D01*
X56436Y-49645D01*
X56355Y-49563D01*
X56311Y-49457D01*
X56311Y-49342D01*
X56355Y-49236D01*
X56420Y-49171D01*
X56420Y-48200D01*
X56434Y-48131D01*
X56473Y-48073D01*
X56511Y-48034D01*
X56511Y-47942D01*
X56555Y-47836D01*
X56637Y-47755D01*
X56743Y-47711D01*
X56858Y-47711D01*
X56863Y-47713D01*
X56964Y-47755D01*
X57045Y-47837D01*
X57089Y-47943D01*
X57089Y-48058D01*
X57045Y-48164D01*
X56963Y-48245D01*
X56857Y-48289D01*
X56780Y-48289D01*
X56780Y-48466D01*
X56793Y-48461D01*
X56908Y-48461D01*
X57014Y-48505D01*
X57095Y-48587D01*
X57133Y-48679D01*
X57137Y-48683D01*
X57703Y-49250D01*
X57904Y-49250D01*
X57904Y-46941D01*
X57742Y-46873D01*
X57618Y-46749D01*
X57551Y-46587D01*
X57551Y-46412D01*
X57619Y-46250D01*
X57743Y-46126D01*
X57905Y-46059D01*
X58096Y-46059D01*
X58258Y-46127D01*
X58382Y-46251D01*
X58449Y-46413D01*
X58449Y-46588D01*
X58381Y-46750D01*
X58257Y-46874D01*
X58095Y-46941D01*
X57904Y-46941D01*
X57904Y-49250D01*
X58904Y-49250D01*
X58904Y-46941D01*
X58742Y-46873D01*
X58618Y-46749D01*
X58551Y-46587D01*
X58551Y-46412D01*
X58619Y-46250D01*
X58743Y-46126D01*
X58905Y-46059D01*
X59096Y-46059D01*
X59258Y-46127D01*
X59382Y-46251D01*
X59449Y-46413D01*
X59449Y-46588D01*
X59381Y-46750D01*
X59257Y-46874D01*
X59095Y-46941D01*
X58904Y-46941D01*
X58904Y-49250D01*
X59904Y-49250D01*
X59904Y-46941D01*
X59742Y-46873D01*
X59618Y-46749D01*
X59551Y-46587D01*
X59551Y-46412D01*
X59619Y-46250D01*
X59743Y-46126D01*
X59905Y-46059D01*
X60096Y-46059D01*
X60258Y-46127D01*
X60382Y-46251D01*
X60449Y-46413D01*
X60449Y-46588D01*
X60381Y-46750D01*
X60257Y-46874D01*
X60095Y-46941D01*
X59904Y-46941D01*
X59904Y-49250D01*
X60904Y-49250D01*
X60904Y-46941D01*
X60742Y-46873D01*
X60618Y-46749D01*
X60551Y-46587D01*
X60551Y-46412D01*
X60619Y-46250D01*
X60743Y-46126D01*
X60905Y-46059D01*
X61096Y-46059D01*
X61258Y-46127D01*
X61382Y-46251D01*
X61449Y-46413D01*
X61449Y-46588D01*
X61381Y-46750D01*
X61257Y-46874D01*
X61095Y-46941D01*
X60904Y-46941D01*
X60904Y-49250D01*
X65450Y-49250D01*
X65450Y-48230D01*
X65381Y-48216D01*
X65322Y-48177D01*
X64625Y-47480D01*
X62800Y-47480D01*
X62731Y-47466D01*
X62672Y-47427D01*
X62159Y-46914D01*
X62095Y-46941D01*
X61904Y-46941D01*
X61742Y-46873D01*
X61618Y-46749D01*
X61551Y-46587D01*
X61551Y-46412D01*
X61619Y-46250D01*
X61743Y-46126D01*
X61905Y-46059D01*
X62096Y-46059D01*
X62258Y-46127D01*
X62382Y-46251D01*
X62449Y-46413D01*
X62449Y-46588D01*
X62417Y-46663D01*
X62874Y-47120D01*
X63365Y-47120D01*
X63159Y-46914D01*
X63095Y-46941D01*
X62904Y-46941D01*
X62742Y-46873D01*
X62618Y-46749D01*
X62551Y-46587D01*
X62551Y-46412D01*
X62619Y-46250D01*
X62743Y-46126D01*
X62905Y-46059D01*
X63096Y-46059D01*
X63258Y-46127D01*
X63382Y-46251D01*
X63449Y-46413D01*
X63449Y-46588D01*
X63417Y-46663D01*
X63674Y-46920D01*
X63853Y-46920D01*
X63742Y-46873D01*
X63618Y-46749D01*
X63551Y-46587D01*
X63551Y-46412D01*
X63619Y-46250D01*
X63743Y-46126D01*
X63905Y-46059D01*
X64096Y-46059D01*
X64258Y-46127D01*
X64382Y-46251D01*
X64449Y-46413D01*
X64449Y-46588D01*
X64381Y-46750D01*
X64257Y-46874D01*
X64145Y-46920D01*
X64853Y-46920D01*
X64742Y-46873D01*
X64618Y-46749D01*
X64551Y-46587D01*
X64551Y-46412D01*
X64619Y-46250D01*
X64743Y-46126D01*
X64905Y-46059D01*
X65096Y-46059D01*
X65258Y-46127D01*
X65382Y-46251D01*
X65449Y-46413D01*
X65449Y-46588D01*
X65381Y-46750D01*
X65257Y-46874D01*
X65095Y-46941D01*
X65079Y-46941D01*
X65127Y-46973D01*
X65665Y-47511D01*
X65758Y-47511D01*
X65864Y-47555D01*
X65900Y-47591D01*
X65904Y-47587D01*
X65904Y-46941D01*
X65742Y-46873D01*
X65618Y-46749D01*
X65551Y-46587D01*
X65551Y-46412D01*
X65619Y-46250D01*
X65743Y-46126D01*
X65905Y-46059D01*
X66096Y-46059D01*
X66258Y-46127D01*
X66382Y-46251D01*
X66449Y-46413D01*
X66449Y-46588D01*
X66381Y-46750D01*
X66257Y-46874D01*
X66095Y-46941D01*
X65904Y-46941D01*
X65904Y-47587D01*
X65937Y-47555D01*
X66043Y-47511D01*
X66158Y-47511D01*
X66264Y-47555D01*
X66345Y-47637D01*
X66389Y-47743D01*
X66389Y-47858D01*
X66345Y-47964D01*
X66263Y-48045D01*
X66157Y-48089D01*
X66065Y-48089D01*
X65977Y-48177D01*
X65919Y-48216D01*
X65850Y-48230D01*
X65450Y-48230D01*
X65450Y-49250D01*
X65639Y-49250D01*
X65733Y-49211D01*
X65848Y-49211D01*
X65941Y-49250D01*
X66561Y-49250D01*
X66551Y-49225D01*
X66551Y-49126D01*
X66550Y-49012D01*
X66612Y-48950D01*
X66904Y-48950D01*
X66925Y-48950D01*
X67025Y-48950D01*
X67025Y-48850D01*
X66925Y-48850D01*
X66904Y-48850D01*
X66612Y-48850D01*
X66550Y-48788D01*
X66551Y-48674D01*
X66551Y-48575D01*
X66589Y-48484D01*
X66659Y-48414D01*
X66682Y-48404D01*
X66737Y-48350D01*
X66904Y-48350D01*
X66904Y-48250D01*
X66737Y-48250D01*
X66675Y-48188D01*
X66676Y-48124D01*
X66676Y-48025D01*
X66714Y-47934D01*
X66784Y-47864D01*
X66876Y-47826D01*
X66904Y-47825D01*
X66904Y-46941D01*
X66742Y-46873D01*
X66618Y-46749D01*
X66551Y-46587D01*
X66551Y-46412D01*
X66619Y-46250D01*
X66743Y-46126D01*
X66905Y-46059D01*
X67096Y-46059D01*
X67258Y-46127D01*
X67382Y-46251D01*
X67449Y-46413D01*
X67449Y-46588D01*
X67381Y-46750D01*
X67257Y-46874D01*
X67095Y-46941D01*
X66904Y-46941D01*
X66904Y-47825D01*
X66938Y-47825D01*
X67000Y-47887D01*
X67000Y-48250D01*
X66904Y-48250D01*
X66904Y-48350D01*
X67000Y-48350D01*
X67100Y-48350D01*
X67100Y-48250D01*
X67100Y-47887D01*
X67139Y-47847D01*
X67105Y-47813D01*
X67061Y-47707D01*
X67061Y-47592D01*
X67105Y-47486D01*
X67187Y-47405D01*
X67293Y-47361D01*
X67385Y-47361D01*
X67723Y-47023D01*
X67781Y-46984D01*
X67850Y-46970D01*
X67904Y-46970D01*
X67904Y-46941D01*
X67742Y-46873D01*
X67618Y-46749D01*
X67551Y-46587D01*
X67551Y-46412D01*
X67619Y-46250D01*
X67743Y-46126D01*
X67905Y-46059D01*
X68096Y-46059D01*
X68258Y-46127D01*
X68382Y-46251D01*
X68449Y-46413D01*
X68449Y-46588D01*
X68381Y-46750D01*
X68257Y-46874D01*
X68095Y-46941D01*
X67904Y-46941D01*
X67904Y-46970D01*
X68904Y-46970D01*
X68904Y-46941D01*
X68742Y-46873D01*
X68618Y-46749D01*
X68551Y-46587D01*
X68551Y-46412D01*
X68619Y-46250D01*
X68743Y-46126D01*
X68905Y-46059D01*
X69096Y-46059D01*
X69258Y-46127D01*
X69382Y-46251D01*
X69449Y-46413D01*
X69449Y-46588D01*
X69381Y-46750D01*
X69257Y-46874D01*
X69095Y-46941D01*
X68904Y-46941D01*
X68904Y-46970D01*
X69904Y-46970D01*
X69904Y-46941D01*
X69742Y-46873D01*
X69618Y-46749D01*
X69551Y-46587D01*
X69551Y-46412D01*
X69619Y-46250D01*
X69743Y-46126D01*
X69905Y-46059D01*
X70096Y-46059D01*
X70258Y-46127D01*
X70382Y-46251D01*
X70449Y-46413D01*
X70449Y-46588D01*
X70381Y-46750D01*
X70257Y-46874D01*
X70095Y-46941D01*
X69904Y-46941D01*
X69904Y-46970D01*
X70275Y-46970D01*
X70582Y-46663D01*
X70551Y-46587D01*
X70551Y-46412D01*
X70619Y-46250D01*
X70743Y-46126D01*
X70905Y-46059D01*
X71096Y-46059D01*
X71258Y-46127D01*
X71382Y-46251D01*
X71449Y-46413D01*
X71449Y-46588D01*
X71381Y-46750D01*
X71257Y-46874D01*
X71095Y-46941D01*
X70904Y-46941D01*
X70839Y-46914D01*
X70477Y-47277D01*
X70419Y-47316D01*
X70350Y-47330D01*
X67923Y-47330D01*
X67732Y-47521D01*
X67814Y-47555D01*
X67895Y-47637D01*
X67939Y-47743D01*
X67939Y-47774D01*
X67955Y-47736D01*
X68037Y-47655D01*
X68143Y-47611D01*
X68258Y-47611D01*
X68364Y-47655D01*
X68445Y-47737D01*
X68489Y-47843D01*
X68489Y-47958D01*
X68476Y-47988D01*
X68543Y-47961D01*
X68658Y-47961D01*
X68764Y-48005D01*
X68845Y-48087D01*
X68889Y-48193D01*
X68889Y-48284D01*
X69424Y-48820D01*
X70196Y-48820D01*
X70136Y-48795D01*
X70055Y-48713D01*
X70011Y-48607D01*
X70011Y-48537D01*
X70007Y-48539D01*
X69892Y-48539D01*
X69786Y-48495D01*
X69705Y-48413D01*
X69661Y-48307D01*
X69661Y-48192D01*
X69705Y-48086D01*
X69787Y-48005D01*
X69893Y-47961D01*
X70008Y-47961D01*
X70114Y-48005D01*
X70178Y-48070D01*
X71904Y-48070D01*
X71904Y-46941D01*
X71742Y-46873D01*
X71618Y-46749D01*
X71551Y-46587D01*
X71551Y-46412D01*
X71619Y-46250D01*
X71743Y-46126D01*
X71905Y-46059D01*
X72096Y-46059D01*
X72258Y-46127D01*
X72382Y-46251D01*
X72449Y-46413D01*
X72449Y-46588D01*
X72381Y-46750D01*
X72257Y-46874D01*
X72095Y-46941D01*
X71904Y-46941D01*
X71904Y-48070D01*
X72904Y-48070D01*
X72904Y-46941D01*
X72742Y-46873D01*
X72618Y-46749D01*
X72551Y-46587D01*
X72551Y-46412D01*
X72619Y-46250D01*
X72743Y-46126D01*
X72905Y-46059D01*
X73096Y-46059D01*
X73258Y-46127D01*
X73382Y-46251D01*
X73449Y-46413D01*
X73449Y-46588D01*
X73381Y-46750D01*
X73257Y-46874D01*
X73095Y-46941D01*
X72904Y-46941D01*
X72904Y-48070D01*
X73904Y-48070D01*
X73904Y-46941D01*
X73742Y-46873D01*
X73618Y-46749D01*
X73551Y-46587D01*
X73551Y-46412D01*
X73619Y-46250D01*
X73743Y-46126D01*
X73905Y-46059D01*
X74096Y-46059D01*
X74258Y-46127D01*
X74382Y-46251D01*
X74449Y-46413D01*
X74449Y-46588D01*
X74381Y-46750D01*
X74257Y-46874D01*
X74095Y-46941D01*
X73904Y-46941D01*
X73904Y-48070D01*
X74525Y-48070D01*
X74863Y-47731D01*
X75137Y-47457D01*
X75137Y-47042D01*
X75050Y-46995D01*
X75050Y-46550D01*
X75485Y-46550D01*
X75532Y-46635D01*
X75480Y-46786D01*
X75334Y-46948D01*
X75137Y-47042D01*
X75137Y-47457D01*
X75722Y-46873D01*
X75781Y-46834D01*
X75843Y-46821D01*
X75877Y-46742D01*
X76001Y-46618D01*
X76163Y-46551D01*
X76338Y-46551D01*
X76500Y-46619D01*
X76624Y-46743D01*
X76691Y-46905D01*
X76691Y-47096D01*
X76623Y-47258D01*
X76499Y-47382D01*
X76337Y-47449D01*
X76162Y-47449D01*
X76000Y-47381D01*
X75876Y-47257D01*
X75867Y-47237D01*
X74734Y-48370D01*
X75225Y-48370D01*
X75722Y-47873D01*
X75781Y-47834D01*
X75843Y-47821D01*
X75877Y-47742D01*
X76001Y-47618D01*
X76163Y-47551D01*
X76338Y-47551D01*
X76500Y-47619D01*
X76624Y-47743D01*
X76691Y-47905D01*
X76691Y-48096D01*
X76623Y-48258D01*
X76499Y-48382D01*
X76337Y-48449D01*
X76162Y-48449D01*
X76000Y-48381D01*
X75876Y-48257D01*
X75867Y-48237D01*
X75427Y-48677D01*
X75369Y-48716D01*
X75300Y-48730D01*
X70528Y-48730D01*
X70463Y-48795D01*
X70402Y-48820D01*
X75844Y-48820D01*
X75877Y-48742D01*
X76001Y-48618D01*
X76163Y-48551D01*
X76338Y-48551D01*
X76500Y-48619D01*
X76624Y-48743D01*
X76691Y-48905D01*
X76691Y-49096D01*
X76623Y-49258D01*
X76499Y-49382D01*
X76337Y-49449D01*
X76162Y-49449D01*
X76000Y-49381D01*
X75876Y-49257D01*
X75844Y-49180D01*
X69350Y-49180D01*
X69281Y-49166D01*
X69222Y-49127D01*
X68634Y-48539D01*
X68542Y-48539D01*
X68436Y-48495D01*
X68380Y-48438D01*
X68380Y-49075D01*
X68824Y-49520D01*
X75950Y-49520D01*
X76019Y-49534D01*
X76077Y-49573D01*
X76086Y-49582D01*
X76163Y-49551D01*
X76338Y-49551D01*
X76500Y-49619D01*
X76624Y-49743D01*
X76691Y-49905D01*
X76691Y-50096D01*
X76623Y-50258D01*
X76499Y-50382D01*
X76337Y-50449D01*
X76162Y-50449D01*
X76000Y-50381D01*
X75876Y-50257D01*
X75809Y-50095D01*
X75809Y-49904D01*
X75819Y-49880D01*
X72833Y-49880D01*
X73703Y-50750D01*
X75873Y-50750D01*
X75877Y-50742D01*
X76001Y-50618D01*
X76163Y-50551D01*
X76338Y-50551D01*
X76500Y-50619D01*
X76624Y-50743D01*
X76691Y-50905D01*
X76691Y-51096D01*
X76623Y-51258D01*
X76499Y-51382D01*
X76337Y-51449D01*
X76162Y-51449D01*
X76162Y-51493D01*
X76200Y-51515D01*
X76200Y-51500D01*
X76300Y-51500D01*
X76300Y-51515D01*
X76385Y-51468D01*
X76536Y-51520D01*
X76698Y-51666D01*
X76725Y-51722D01*
X76725Y-46025D01*
X75277Y-46025D01*
X75334Y-46052D01*
X75480Y-46214D01*
X75532Y-46365D01*
X75485Y-46450D01*
X75050Y-46450D01*
X74950Y-46450D01*
X74950Y-46550D01*
X74950Y-46995D01*
X74863Y-47042D01*
X74666Y-46948D01*
X74520Y-46786D01*
X74468Y-46635D01*
X74515Y-46550D01*
X74500Y-46550D01*
X74500Y-46450D01*
X74515Y-46450D01*
X74468Y-46365D01*
X74520Y-46214D01*
X74666Y-46052D01*
X74722Y-46025D01*
X57277Y-46025D01*
X57334Y-46052D01*
X57480Y-46214D01*
X57532Y-46365D01*
X57485Y-46450D01*
X57500Y-46450D01*
X57500Y-46550D01*
X57485Y-46550D01*
X57532Y-46635D01*
X57480Y-46786D01*
X57334Y-46948D01*
X57137Y-47042D01*
X57050Y-46995D01*
X57050Y-46550D01*
X57050Y-46450D01*
X56950Y-46450D01*
X56950Y-46550D01*
X56950Y-46995D01*
X56863Y-47042D01*
X56666Y-46948D01*
X56520Y-46786D01*
X56468Y-46635D01*
X56515Y-46550D01*
X56500Y-46550D01*
X56500Y-46450D01*
X56515Y-46450D01*
X56468Y-46365D01*
X56520Y-46214D01*
X56666Y-46052D01*
X56722Y-46025D01*
X55525Y-46025D01*
X55525Y-52975D01*
X55904Y-52975D01*
X55904Y-52941D01*
X55742Y-52873D01*
X55618Y-52749D01*
X55551Y-52587D01*
X55551Y-52412D01*
X55619Y-52250D01*
X55743Y-52126D01*
X55904Y-52059D01*
X55904Y-46941D01*
X55742Y-46873D01*
X55618Y-46749D01*
X55551Y-46587D01*
X55551Y-46412D01*
X55619Y-46250D01*
X55743Y-46126D01*
X55905Y-46059D01*
X56096Y-46059D01*
X56258Y-46127D01*
X56382Y-46251D01*
X56449Y-46413D01*
X56449Y-46588D01*
X56381Y-46750D01*
X56257Y-46874D01*
X56095Y-46941D01*
X55904Y-46941D01*
X55904Y-52059D01*
X56096Y-52059D01*
X56258Y-52127D01*
X56382Y-52251D01*
X56449Y-52413D01*
X56449Y-52588D01*
X56381Y-52750D01*
X56257Y-52874D01*
X56095Y-52941D01*
X55904Y-52941D01*
X55904Y-52975D01*
X56722Y-52975D01*
X56666Y-52948D01*
X56520Y-52786D01*
X56468Y-52635D01*
X56515Y-52550D01*
X56500Y-52550D01*
X56500Y-52450D01*
X56515Y-52450D01*
X56468Y-52365D01*
X56520Y-52214D01*
X56666Y-52052D01*
X56863Y-51958D01*
X56950Y-52005D01*
X56950Y-52450D01*
X56950Y-52550D01*
X57050Y-52550D01*
X57050Y-52450D01*
X57050Y-52005D01*
X57137Y-51958D01*
X57334Y-52052D01*
X57480Y-52214D01*
X57532Y-52365D01*
X57485Y-52450D01*
X57500Y-52450D01*
X57500Y-52550D01*
X57485Y-52550D01*
X57532Y-52635D01*
X57480Y-52786D01*
X57334Y-52948D01*
X57277Y-52975D01*
X57904Y-52975D01*
X57904Y-52941D01*
X57742Y-52873D01*
X57618Y-52749D01*
X57551Y-52587D01*
X57551Y-52412D01*
X57619Y-52250D01*
X57743Y-52126D01*
X57905Y-52059D01*
X58096Y-52059D01*
X58258Y-52127D01*
X58292Y-52161D01*
X58292Y-51989D01*
X58186Y-51945D01*
X58121Y-51880D01*
X57450Y-51880D01*
X57381Y-51866D01*
X57322Y-51827D01*
X56684Y-51189D01*
X56592Y-51189D01*
X56486Y-51145D01*
X56405Y-51063D01*
X56361Y-50957D01*
X56361Y-50842D01*
X56405Y-50736D01*
X56487Y-50655D01*
X56593Y-50611D01*
X56708Y-50611D01*
X56814Y-50655D01*
X56895Y-50737D01*
X56939Y-50843D01*
X56939Y-50934D01*
X57524Y-51520D01*
X58121Y-51520D01*
X58187Y-51455D01*
X58293Y-51411D01*
X58408Y-51411D01*
X58514Y-51455D01*
X58595Y-51537D01*
X58639Y-51643D01*
X58639Y-51758D01*
X58595Y-51864D01*
X58513Y-51945D01*
X58407Y-51989D01*
X58292Y-51989D01*
X58292Y-52161D01*
X58382Y-52251D01*
X58449Y-52413D01*
X58449Y-52588D01*
X58381Y-52750D01*
X58257Y-52874D01*
X58095Y-52941D01*
X57904Y-52941D01*
X57904Y-52975D01*
X58904Y-52975D01*
X58904Y-52941D01*
X58742Y-52873D01*
X58618Y-52749D01*
X58551Y-52587D01*
X58551Y-52412D01*
X58619Y-52250D01*
X58743Y-52126D01*
X58905Y-52059D01*
X59096Y-52059D01*
X59258Y-52127D01*
X59382Y-52251D01*
X59449Y-52413D01*
X59449Y-52588D01*
X59381Y-52750D01*
X59257Y-52874D01*
X59095Y-52941D01*
X58904Y-52941D01*
X58904Y-52975D01*
X59904Y-52975D01*
X59904Y-52941D01*
X59742Y-52873D01*
X59618Y-52749D01*
X59551Y-52587D01*
X59551Y-52412D01*
X59619Y-52250D01*
X59743Y-52126D01*
X59905Y-52059D01*
X60096Y-52059D01*
X60258Y-52127D01*
X60382Y-52251D01*
X60449Y-52413D01*
X60449Y-52588D01*
X60381Y-52750D01*
X60257Y-52874D01*
X60095Y-52941D01*
X59904Y-52941D01*
X59904Y-52975D01*
X64904Y-52975D01*
X64904Y-52941D01*
X64742Y-52873D01*
X64618Y-52749D01*
X64551Y-52587D01*
X64551Y-52412D01*
X64619Y-52250D01*
X64689Y-52180D01*
X64574Y-52180D01*
X64417Y-52336D01*
X64449Y-52413D01*
X64449Y-52588D01*
X64381Y-52750D01*
X64257Y-52874D01*
X64095Y-52941D01*
X63904Y-52941D01*
X63742Y-52873D01*
X63618Y-52749D01*
X63551Y-52587D01*
X63551Y-52412D01*
X63619Y-52250D01*
X63743Y-52126D01*
X63905Y-52059D01*
X64096Y-52059D01*
X64160Y-52085D01*
X64373Y-51873D01*
X64431Y-51834D01*
X64500Y-51820D01*
X65476Y-51820D01*
X66111Y-51185D01*
X66111Y-51092D01*
X66115Y-51080D01*
X64674Y-51080D01*
X63417Y-52336D01*
X63449Y-52413D01*
X63449Y-52588D01*
X63381Y-52750D01*
X63257Y-52874D01*
X63095Y-52941D01*
X62904Y-52941D01*
X62742Y-52873D01*
X62618Y-52749D01*
X62551Y-52587D01*
X62551Y-52412D01*
X62619Y-52250D01*
X62743Y-52126D01*
X62905Y-52059D01*
X63096Y-52059D01*
X63159Y-52085D01*
X64365Y-50880D01*
X63874Y-50880D01*
X62417Y-52336D01*
X62449Y-52413D01*
X62449Y-52588D01*
X62381Y-52750D01*
X62257Y-52874D01*
X62095Y-52941D01*
X61904Y-52941D01*
X61742Y-52873D01*
X61618Y-52749D01*
X61551Y-52587D01*
X61551Y-52412D01*
X61619Y-52250D01*
X61743Y-52126D01*
X61905Y-52059D01*
X62096Y-52059D01*
X62159Y-52085D01*
X63515Y-50730D01*
X63024Y-50730D01*
X61417Y-52336D01*
X61449Y-52413D01*
X61449Y-52588D01*
X61381Y-52750D01*
X61257Y-52874D01*
X61095Y-52941D01*
X60904Y-52941D01*
X60742Y-52873D01*
X60618Y-52749D01*
X60551Y-52587D01*
X60551Y-52412D01*
X60619Y-52250D01*
X60743Y-52126D01*
X60905Y-52059D01*
X61096Y-52059D01*
X61159Y-52085D01*
X62822Y-50423D01*
X62881Y-50384D01*
X62950Y-50370D01*
X66850Y-50370D01*
X66919Y-50384D01*
X66977Y-50423D01*
X67065Y-50511D01*
X67158Y-50511D01*
X67264Y-50555D01*
X67345Y-50637D01*
X67389Y-50743D01*
X67389Y-50858D01*
X67345Y-50964D01*
X67333Y-50975D01*
X67345Y-50987D01*
X67389Y-51093D01*
X67389Y-51208D01*
X67345Y-51314D01*
X67263Y-51395D01*
X67157Y-51439D01*
X67042Y-51439D01*
X66936Y-51395D01*
X66924Y-51383D01*
X66913Y-51395D01*
X66807Y-51439D01*
X66692Y-51439D01*
X66586Y-51395D01*
X66574Y-51383D01*
X66563Y-51395D01*
X66457Y-51439D01*
X66364Y-51439D01*
X65677Y-52127D01*
X65619Y-52166D01*
X65550Y-52180D01*
X65310Y-52180D01*
X65382Y-52251D01*
X65449Y-52413D01*
X65449Y-52588D01*
X65381Y-52750D01*
X65257Y-52874D01*
X65095Y-52941D01*
X64904Y-52941D01*
X64904Y-52975D01*
X65904Y-52975D01*
X65904Y-52941D01*
X65742Y-52873D01*
X65618Y-52749D01*
X65551Y-52587D01*
X65551Y-52412D01*
X65619Y-52250D01*
X65743Y-52126D01*
X65905Y-52059D01*
X66096Y-52059D01*
X66258Y-52127D01*
X66382Y-52251D01*
X66449Y-52413D01*
X66449Y-52588D01*
X66381Y-52750D01*
X66257Y-52874D01*
X66095Y-52941D01*
X65904Y-52941D01*
X65904Y-52975D01*
X66904Y-52975D01*
X66904Y-52941D01*
X66742Y-52873D01*
X66618Y-52749D01*
X66551Y-52587D01*
X66551Y-52412D01*
X66619Y-52250D01*
X66743Y-52126D01*
X66905Y-52059D01*
X67096Y-52059D01*
X67258Y-52127D01*
X67382Y-52251D01*
X67449Y-52413D01*
X67449Y-52588D01*
X67381Y-52750D01*
X67257Y-52874D01*
X67095Y-52941D01*
X66904Y-52941D01*
X66904Y-52975D01*
X67904Y-52975D01*
X67904Y-52941D01*
X67742Y-52873D01*
X67618Y-52749D01*
X67551Y-52587D01*
X67551Y-52412D01*
X67619Y-52250D01*
X67743Y-52126D01*
X67905Y-52059D01*
X68096Y-52059D01*
X68258Y-52127D01*
X68382Y-52251D01*
X68449Y-52413D01*
X68449Y-52588D01*
X68381Y-52750D01*
X68257Y-52874D01*
X68095Y-52941D01*
X67904Y-52941D01*
X67904Y-52975D01*
X68904Y-52975D01*
X68904Y-52941D01*
X68742Y-52873D01*
X68618Y-52749D01*
X68551Y-52587D01*
X68551Y-52412D01*
X68619Y-52250D01*
X68743Y-52126D01*
X68905Y-52059D01*
X69096Y-52059D01*
X69258Y-52127D01*
X69382Y-52251D01*
X69449Y-52413D01*
X69449Y-52588D01*
X69381Y-52750D01*
X69257Y-52874D01*
X69095Y-52941D01*
X68904Y-52941D01*
X68904Y-52975D01*
X69904Y-52975D01*
X69904Y-52941D01*
X69742Y-52873D01*
X69618Y-52749D01*
X69551Y-52587D01*
X69551Y-52412D01*
X69619Y-52250D01*
X69743Y-52126D01*
X69905Y-52059D01*
X70096Y-52059D01*
X70258Y-52127D01*
X70382Y-52251D01*
X70449Y-52413D01*
X70449Y-52588D01*
X70381Y-52750D01*
X70257Y-52874D01*
X70095Y-52941D01*
X69904Y-52941D01*
X69904Y-52975D01*
X70904Y-52975D01*
X70904Y-52941D01*
X70742Y-52873D01*
X70618Y-52749D01*
X70551Y-52587D01*
X70551Y-52412D01*
X70619Y-52250D01*
X70743Y-52126D01*
X70905Y-52059D01*
X71096Y-52059D01*
X71258Y-52127D01*
X71382Y-52251D01*
X71449Y-52413D01*
X71449Y-52588D01*
X71381Y-52750D01*
X71257Y-52874D01*
X71095Y-52941D01*
X70904Y-52941D01*
X70904Y-52975D01*
X71904Y-52975D01*
X71904Y-52941D01*
X71742Y-52873D01*
X71618Y-52749D01*
X71551Y-52587D01*
X71551Y-52412D01*
X71619Y-52250D01*
X71743Y-52126D01*
X71905Y-52059D01*
X72096Y-52059D01*
X72258Y-52127D01*
X72382Y-52251D01*
X72449Y-52413D01*
X72449Y-52588D01*
X72381Y-52750D01*
X72257Y-52874D01*
X72095Y-52941D01*
X71904Y-52941D01*
X71904Y-52975D01*
X72904Y-52975D01*
X72904Y-52941D01*
X72742Y-52873D01*
X72618Y-52749D01*
X72551Y-52587D01*
X72551Y-52412D01*
X72619Y-52250D01*
X72743Y-52126D01*
X72905Y-52059D01*
X73096Y-52059D01*
X73258Y-52127D01*
X73382Y-52251D01*
X73449Y-52413D01*
X73449Y-52588D01*
X73381Y-52750D01*
X73257Y-52874D01*
X73095Y-52941D01*
X72904Y-52941D01*
X72904Y-52975D01*
X73904Y-52975D01*
X73904Y-52941D01*
X73742Y-52873D01*
X73618Y-52749D01*
X73551Y-52587D01*
X73551Y-52412D01*
X73619Y-52250D01*
X73743Y-52126D01*
X73905Y-52059D01*
X74096Y-52059D01*
X74258Y-52127D01*
X74382Y-52251D01*
X74449Y-52413D01*
X74449Y-52588D01*
X74381Y-52750D01*
X74257Y-52874D01*
X74095Y-52941D01*
X73904Y-52941D01*
X73904Y-52975D01*
X74722Y-52975D01*
X74666Y-52948D01*
X74520Y-52786D01*
X74468Y-52635D01*
X74515Y-52550D01*
X74500Y-52550D01*
X74500Y-52450D01*
X74515Y-52450D01*
X74468Y-52365D01*
X74520Y-52214D01*
X74666Y-52052D01*
X74863Y-51958D01*
X74950Y-52005D01*
X74950Y-52450D01*
X74950Y-52550D01*
X75050Y-52550D01*
X75050Y-52450D01*
X75050Y-52005D01*
X75137Y-51958D01*
X75334Y-52052D01*
X75480Y-52214D01*
X75532Y-52365D01*
X75485Y-52450D01*
X75050Y-52450D01*
X75050Y-52550D01*
X75485Y-52550D01*
X75532Y-52635D01*
X75480Y-52786D01*
X75334Y-52948D01*
X75277Y-52975D01*
X76115Y-52975D01*
X76115Y-52532D01*
X75964Y-52480D01*
X75802Y-52334D01*
X75708Y-52137D01*
X75755Y-52050D01*
X76162Y-52050D01*
X76200Y-52050D01*
X76200Y-52485D01*
X76162Y-52506D01*
X76115Y-52532D01*
X76115Y-52975D01*
X76725Y-52975D01*
M02*
