G04 (created by PCBNEW-RS274X (2010-03-14)-final) date jue 03 nov 2011 19:09:22 ART*
G01*
G70*
G90*
%MOIN*%
G04 Gerber Fmt 3.4, Leading zero omitted, Abs format*
%FSLAX34Y34*%
G04 APERTURE LIST*
%ADD10C,0.000100*%
%ADD11C,0.015000*%
%ADD12C,0.005000*%
G04 APERTURE END LIST*
G54D10*
G54D11*
X76900Y-45850D02*
X76900Y-53150D01*
X76900Y-53150D02*
X55350Y-53150D01*
X55350Y-53150D02*
X55350Y-45850D01*
X55350Y-45850D02*
X76900Y-45850D01*
G54D12*
X60681Y-51702D02*
X60681Y-51202D01*
X60872Y-51202D01*
X60919Y-51226D01*
X60943Y-51250D01*
X60967Y-51298D01*
X60967Y-51369D01*
X60943Y-51417D01*
X60919Y-51440D01*
X60872Y-51464D01*
X60681Y-51464D01*
X61443Y-51702D02*
X61157Y-51702D01*
X61300Y-51702D02*
X61300Y-51202D01*
X61252Y-51274D01*
X61205Y-51321D01*
X61157Y-51345D01*
X55903Y-51805D02*
X55879Y-51829D01*
X55808Y-51852D01*
X55760Y-51852D01*
X55688Y-51829D01*
X55641Y-51781D01*
X55617Y-51733D01*
X55593Y-51638D01*
X55593Y-51567D01*
X55617Y-51471D01*
X55641Y-51424D01*
X55688Y-51376D01*
X55760Y-51352D01*
X55808Y-51352D01*
X55879Y-51376D01*
X55903Y-51400D01*
X56212Y-51352D02*
X56308Y-51352D01*
X56355Y-51376D01*
X56403Y-51424D01*
X56427Y-51519D01*
X56427Y-51686D01*
X56403Y-51781D01*
X56355Y-51829D01*
X56308Y-51852D01*
X56212Y-51852D01*
X56165Y-51829D01*
X56117Y-51781D01*
X56093Y-51686D01*
X56093Y-51519D01*
X56117Y-51424D01*
X56165Y-51376D01*
X56212Y-51352D01*
X56641Y-51852D02*
X56641Y-51352D01*
X56927Y-51852D01*
X56927Y-51352D01*
X57046Y-51900D02*
X57427Y-51900D01*
X57808Y-51852D02*
X57522Y-51852D01*
X57665Y-51852D02*
X57665Y-51352D01*
X57617Y-51424D01*
X57570Y-51471D01*
X57522Y-51495D01*
X60681Y-47652D02*
X60681Y-47152D01*
X60872Y-47152D01*
X60919Y-47176D01*
X60943Y-47200D01*
X60967Y-47248D01*
X60967Y-47319D01*
X60943Y-47367D01*
X60919Y-47390D01*
X60872Y-47414D01*
X60681Y-47414D01*
X61157Y-47200D02*
X61181Y-47176D01*
X61229Y-47152D01*
X61348Y-47152D01*
X61395Y-47176D01*
X61419Y-47200D01*
X61443Y-47248D01*
X61443Y-47295D01*
X61419Y-47367D01*
X61133Y-47652D01*
X61443Y-47652D01*
X55903Y-47605D02*
X55879Y-47629D01*
X55808Y-47652D01*
X55760Y-47652D01*
X55688Y-47629D01*
X55641Y-47581D01*
X55617Y-47533D01*
X55593Y-47438D01*
X55593Y-47367D01*
X55617Y-47271D01*
X55641Y-47224D01*
X55688Y-47176D01*
X55760Y-47152D01*
X55808Y-47152D01*
X55879Y-47176D01*
X55903Y-47200D01*
X56212Y-47152D02*
X56308Y-47152D01*
X56355Y-47176D01*
X56403Y-47224D01*
X56427Y-47319D01*
X56427Y-47486D01*
X56403Y-47581D01*
X56355Y-47629D01*
X56308Y-47652D01*
X56212Y-47652D01*
X56165Y-47629D01*
X56117Y-47581D01*
X56093Y-47486D01*
X56093Y-47319D01*
X56117Y-47224D01*
X56165Y-47176D01*
X56212Y-47152D01*
X56641Y-47652D02*
X56641Y-47152D01*
X56927Y-47652D01*
X56927Y-47152D01*
X57046Y-47700D02*
X57427Y-47700D01*
X57522Y-47200D02*
X57546Y-47176D01*
X57594Y-47152D01*
X57713Y-47152D01*
X57760Y-47176D01*
X57784Y-47200D01*
X57808Y-47248D01*
X57808Y-47295D01*
X57784Y-47367D01*
X57498Y-47652D01*
X57808Y-47652D01*
X74802Y-49769D02*
X74302Y-49769D01*
X74302Y-49578D01*
X74326Y-49531D01*
X74350Y-49507D01*
X74398Y-49483D01*
X74469Y-49483D01*
X74517Y-49507D01*
X74540Y-49531D01*
X74564Y-49578D01*
X74564Y-49769D01*
X74302Y-49317D02*
X74302Y-49007D01*
X74493Y-49174D01*
X74493Y-49102D01*
X74517Y-49055D01*
X74540Y-49031D01*
X74588Y-49007D01*
X74707Y-49007D01*
X74755Y-49031D01*
X74779Y-49055D01*
X74802Y-49102D01*
X74802Y-49245D01*
X74779Y-49293D01*
X74755Y-49317D01*
X75102Y-51616D02*
X75460Y-51616D01*
X75531Y-51640D01*
X75579Y-51688D01*
X75602Y-51759D01*
X75602Y-51807D01*
X75102Y-51449D02*
X75102Y-51164D01*
X75602Y-51307D02*
X75102Y-51307D01*
X75460Y-51021D02*
X75460Y-50783D01*
X75602Y-51068D02*
X75102Y-50902D01*
X75602Y-50735D01*
X75126Y-50306D02*
X75102Y-50354D01*
X75102Y-50425D01*
X75126Y-50497D01*
X75174Y-50544D01*
X75221Y-50568D01*
X75317Y-50592D01*
X75388Y-50592D01*
X75483Y-50568D01*
X75531Y-50544D01*
X75579Y-50497D01*
X75602Y-50425D01*
X75602Y-50377D01*
X75579Y-50306D01*
X75555Y-50282D01*
X75388Y-50282D01*
X75388Y-50377D01*
X75412Y-50068D02*
X75412Y-49687D01*
X75602Y-49449D02*
X75102Y-49449D01*
X75102Y-49258D01*
X75126Y-49211D01*
X75150Y-49187D01*
X75198Y-49163D01*
X75269Y-49163D01*
X75317Y-49187D01*
X75340Y-49211D01*
X75364Y-49258D01*
X75364Y-49449D01*
X75102Y-48854D02*
X75102Y-48758D01*
X75126Y-48711D01*
X75174Y-48663D01*
X75269Y-48639D01*
X75436Y-48639D01*
X75531Y-48663D01*
X75579Y-48711D01*
X75602Y-48758D01*
X75602Y-48854D01*
X75579Y-48901D01*
X75531Y-48949D01*
X75436Y-48973D01*
X75269Y-48973D01*
X75174Y-48949D01*
X75126Y-48901D01*
X75102Y-48854D01*
X75102Y-48473D02*
X75602Y-48354D01*
X75245Y-48258D01*
X75602Y-48163D01*
X75102Y-48044D01*
X75340Y-47854D02*
X75340Y-47687D01*
X75602Y-47616D02*
X75602Y-47854D01*
X75102Y-47854D01*
X75102Y-47616D01*
X75602Y-47116D02*
X75364Y-47283D01*
X75602Y-47402D02*
X75102Y-47402D01*
X75102Y-47211D01*
X75126Y-47164D01*
X75150Y-47140D01*
X75198Y-47116D01*
X75269Y-47116D01*
X75317Y-47140D01*
X75340Y-47164D01*
X75364Y-47211D01*
X75364Y-47402D01*
M02*
