G04 (created by PCBNEW-RS274X (2010-03-14)-final) date mar 08 nov 2011 08:32:22 ART*
G01*
G70*
G90*
%MOIN*%
G04 Gerber Fmt 3.4, Leading zero omitted, Abs format*
%FSLAX34Y34*%
G04 APERTURE LIST*
%ADD10C,0.000100*%
%ADD11C,0.015000*%
%ADD12C,0.002600*%
%ADD13C,0.005000*%
%ADD14C,0.010000*%
%ADD15C,0.004000*%
%ADD16C,0.002000*%
%ADD17C,0.006000*%
%ADD18C,0.012000*%
%ADD19C,0.003500*%
%ADD20C,0.006700*%
%ADD21C,0.003000*%
%ADD22C,0.004200*%
G04 APERTURE END LIST*
G54D10*
G54D11*
X51900Y-31500D02*
X51900Y-18700D01*
X67500Y-31500D02*
X51900Y-31500D01*
X67500Y-18700D02*
X67500Y-31500D01*
X51900Y-18700D02*
X67500Y-18700D01*
G54D12*
X53069Y-28471D02*
X53069Y-27487D01*
X53069Y-27487D02*
X52518Y-27487D01*
X52518Y-28471D02*
X52518Y-27487D01*
X53069Y-28471D02*
X52518Y-28471D01*
X55982Y-28471D02*
X55982Y-27487D01*
X55982Y-27487D02*
X55431Y-27487D01*
X55431Y-28471D02*
X55431Y-27487D01*
X55982Y-28471D02*
X55431Y-28471D01*
X55470Y-31226D02*
X55470Y-30311D01*
X55470Y-30311D02*
X53030Y-30311D01*
X53030Y-31226D02*
X53030Y-30311D01*
X55470Y-31226D02*
X53030Y-31226D01*
X55165Y-30311D02*
X55165Y-30005D01*
X55165Y-30005D02*
X53335Y-30005D01*
X53335Y-30311D02*
X53335Y-30005D01*
X55165Y-30311D02*
X53335Y-30311D01*
G54D13*
X52715Y-31226D02*
X55785Y-31226D01*
X52715Y-27684D02*
X55785Y-27684D01*
X52715Y-31226D02*
X52715Y-27684D01*
X55785Y-31226D02*
X55785Y-27684D01*
X52873Y-29455D02*
X53069Y-31029D01*
X53069Y-31029D02*
X53463Y-31029D01*
X53463Y-31029D02*
X53660Y-29455D01*
X55627Y-29258D02*
X55431Y-31029D01*
X55431Y-31029D02*
X55037Y-31029D01*
X55037Y-31029D02*
X54840Y-29258D01*
X53758Y-31029D02*
X53955Y-29062D01*
X53955Y-29062D02*
X54545Y-29062D01*
X54545Y-29062D02*
X54742Y-31029D01*
G54D12*
X56978Y-25771D02*
X57057Y-25771D01*
X57057Y-25771D02*
X57057Y-25358D01*
X56978Y-25358D02*
X57057Y-25358D01*
X56978Y-25771D02*
X56978Y-25358D01*
X57175Y-25771D02*
X57254Y-25771D01*
X57254Y-25771D02*
X57254Y-25358D01*
X57175Y-25358D02*
X57254Y-25358D01*
X57175Y-25771D02*
X57175Y-25358D01*
X57372Y-25771D02*
X57451Y-25771D01*
X57451Y-25771D02*
X57451Y-25358D01*
X57372Y-25358D02*
X57451Y-25358D01*
X57372Y-25771D02*
X57372Y-25358D01*
X57569Y-25771D02*
X57648Y-25771D01*
X57648Y-25771D02*
X57648Y-25358D01*
X57569Y-25358D02*
X57648Y-25358D01*
X57569Y-25771D02*
X57569Y-25358D01*
X57766Y-25771D02*
X57845Y-25771D01*
X57845Y-25771D02*
X57845Y-25358D01*
X57766Y-25358D02*
X57845Y-25358D01*
X57766Y-25771D02*
X57766Y-25358D01*
X57963Y-25771D02*
X58041Y-25771D01*
X58041Y-25771D02*
X58041Y-25358D01*
X57963Y-25358D02*
X58041Y-25358D01*
X57963Y-25771D02*
X57963Y-25358D01*
X58159Y-25771D02*
X58237Y-25771D01*
X58237Y-25771D02*
X58237Y-25358D01*
X58159Y-25358D02*
X58237Y-25358D01*
X58159Y-25771D02*
X58159Y-25358D01*
X58355Y-25771D02*
X58434Y-25771D01*
X58434Y-25771D02*
X58434Y-25358D01*
X58355Y-25358D02*
X58434Y-25358D01*
X58355Y-25771D02*
X58355Y-25358D01*
X58552Y-25771D02*
X58631Y-25771D01*
X58631Y-25771D02*
X58631Y-25358D01*
X58552Y-25358D02*
X58631Y-25358D01*
X58552Y-25771D02*
X58552Y-25358D01*
X58749Y-25771D02*
X58828Y-25771D01*
X58828Y-25771D02*
X58828Y-25358D01*
X58749Y-25358D02*
X58828Y-25358D01*
X58749Y-25771D02*
X58749Y-25358D01*
X58946Y-25771D02*
X59025Y-25771D01*
X59025Y-25771D02*
X59025Y-25358D01*
X58946Y-25358D02*
X59025Y-25358D01*
X58946Y-25771D02*
X58946Y-25358D01*
X59143Y-25771D02*
X59222Y-25771D01*
X59222Y-25771D02*
X59222Y-25358D01*
X59143Y-25358D02*
X59222Y-25358D01*
X59143Y-25771D02*
X59143Y-25358D01*
X59458Y-25122D02*
X59871Y-25122D01*
X59871Y-25122D02*
X59871Y-25043D01*
X59458Y-25043D02*
X59871Y-25043D01*
X59458Y-25122D02*
X59458Y-25043D01*
X59458Y-24925D02*
X59871Y-24925D01*
X59871Y-24925D02*
X59871Y-24846D01*
X59458Y-24846D02*
X59871Y-24846D01*
X59458Y-24925D02*
X59458Y-24846D01*
X59458Y-24728D02*
X59871Y-24728D01*
X59871Y-24728D02*
X59871Y-24649D01*
X59458Y-24649D02*
X59871Y-24649D01*
X59458Y-24728D02*
X59458Y-24649D01*
X59458Y-24531D02*
X59871Y-24531D01*
X59871Y-24531D02*
X59871Y-24452D01*
X59458Y-24452D02*
X59871Y-24452D01*
X59458Y-24531D02*
X59458Y-24452D01*
X59458Y-24334D02*
X59871Y-24334D01*
X59871Y-24334D02*
X59871Y-24255D01*
X59458Y-24255D02*
X59871Y-24255D01*
X59458Y-24334D02*
X59458Y-24255D01*
X59458Y-24137D02*
X59871Y-24137D01*
X59871Y-24137D02*
X59871Y-24059D01*
X59458Y-24059D02*
X59871Y-24059D01*
X59458Y-24137D02*
X59458Y-24059D01*
X59458Y-23941D02*
X59871Y-23941D01*
X59871Y-23941D02*
X59871Y-23863D01*
X59458Y-23863D02*
X59871Y-23863D01*
X59458Y-23941D02*
X59458Y-23863D01*
X59458Y-23745D02*
X59871Y-23745D01*
X59871Y-23745D02*
X59871Y-23666D01*
X59458Y-23666D02*
X59871Y-23666D01*
X59458Y-23745D02*
X59458Y-23666D01*
X59458Y-23548D02*
X59871Y-23548D01*
X59871Y-23548D02*
X59871Y-23469D01*
X59458Y-23469D02*
X59871Y-23469D01*
X59458Y-23548D02*
X59458Y-23469D01*
X59458Y-23351D02*
X59871Y-23351D01*
X59871Y-23351D02*
X59871Y-23272D01*
X59458Y-23272D02*
X59871Y-23272D01*
X59458Y-23351D02*
X59458Y-23272D01*
X59458Y-23154D02*
X59871Y-23154D01*
X59871Y-23154D02*
X59871Y-23075D01*
X59458Y-23075D02*
X59871Y-23075D01*
X59458Y-23154D02*
X59458Y-23075D01*
X59458Y-22957D02*
X59871Y-22957D01*
X59871Y-22957D02*
X59871Y-22878D01*
X59458Y-22878D02*
X59871Y-22878D01*
X59458Y-22957D02*
X59458Y-22878D01*
X59143Y-22642D02*
X59222Y-22642D01*
X59222Y-22642D02*
X59222Y-22229D01*
X59143Y-22229D02*
X59222Y-22229D01*
X59143Y-22642D02*
X59143Y-22229D01*
X58946Y-22642D02*
X59025Y-22642D01*
X59025Y-22642D02*
X59025Y-22229D01*
X58946Y-22229D02*
X59025Y-22229D01*
X58946Y-22642D02*
X58946Y-22229D01*
X58749Y-22642D02*
X58828Y-22642D01*
X58828Y-22642D02*
X58828Y-22229D01*
X58749Y-22229D02*
X58828Y-22229D01*
X58749Y-22642D02*
X58749Y-22229D01*
X58552Y-22642D02*
X58631Y-22642D01*
X58631Y-22642D02*
X58631Y-22229D01*
X58552Y-22229D02*
X58631Y-22229D01*
X58552Y-22642D02*
X58552Y-22229D01*
X58355Y-22642D02*
X58434Y-22642D01*
X58434Y-22642D02*
X58434Y-22229D01*
X58355Y-22229D02*
X58434Y-22229D01*
X58355Y-22642D02*
X58355Y-22229D01*
X58159Y-22642D02*
X58237Y-22642D01*
X58237Y-22642D02*
X58237Y-22229D01*
X58159Y-22229D02*
X58237Y-22229D01*
X58159Y-22642D02*
X58159Y-22229D01*
X57963Y-22642D02*
X58041Y-22642D01*
X58041Y-22642D02*
X58041Y-22229D01*
X57963Y-22229D02*
X58041Y-22229D01*
X57963Y-22642D02*
X57963Y-22229D01*
X57766Y-22642D02*
X57845Y-22642D01*
X57845Y-22642D02*
X57845Y-22229D01*
X57766Y-22229D02*
X57845Y-22229D01*
X57766Y-22642D02*
X57766Y-22229D01*
X57569Y-22642D02*
X57648Y-22642D01*
X57648Y-22642D02*
X57648Y-22229D01*
X57569Y-22229D02*
X57648Y-22229D01*
X57569Y-22642D02*
X57569Y-22229D01*
X57372Y-22642D02*
X57451Y-22642D01*
X57451Y-22642D02*
X57451Y-22229D01*
X57372Y-22229D02*
X57451Y-22229D01*
X57372Y-22642D02*
X57372Y-22229D01*
X57175Y-22642D02*
X57254Y-22642D01*
X57254Y-22642D02*
X57254Y-22229D01*
X57175Y-22229D02*
X57254Y-22229D01*
X57175Y-22642D02*
X57175Y-22229D01*
X56978Y-22642D02*
X57057Y-22642D01*
X57057Y-22642D02*
X57057Y-22229D01*
X56978Y-22229D02*
X57057Y-22229D01*
X56978Y-22642D02*
X56978Y-22229D01*
X56329Y-22957D02*
X56742Y-22957D01*
X56742Y-22957D02*
X56742Y-22878D01*
X56329Y-22878D02*
X56742Y-22878D01*
X56329Y-22957D02*
X56329Y-22878D01*
X56329Y-23154D02*
X56742Y-23154D01*
X56742Y-23154D02*
X56742Y-23075D01*
X56329Y-23075D02*
X56742Y-23075D01*
X56329Y-23154D02*
X56329Y-23075D01*
X56329Y-23351D02*
X56742Y-23351D01*
X56742Y-23351D02*
X56742Y-23272D01*
X56329Y-23272D02*
X56742Y-23272D01*
X56329Y-23351D02*
X56329Y-23272D01*
X56329Y-23548D02*
X56742Y-23548D01*
X56742Y-23548D02*
X56742Y-23469D01*
X56329Y-23469D02*
X56742Y-23469D01*
X56329Y-23548D02*
X56329Y-23469D01*
X56329Y-23745D02*
X56742Y-23745D01*
X56742Y-23745D02*
X56742Y-23666D01*
X56329Y-23666D02*
X56742Y-23666D01*
X56329Y-23745D02*
X56329Y-23666D01*
X56329Y-23941D02*
X56742Y-23941D01*
X56742Y-23941D02*
X56742Y-23863D01*
X56329Y-23863D02*
X56742Y-23863D01*
X56329Y-23941D02*
X56329Y-23863D01*
X56329Y-24137D02*
X56742Y-24137D01*
X56742Y-24137D02*
X56742Y-24059D01*
X56329Y-24059D02*
X56742Y-24059D01*
X56329Y-24137D02*
X56329Y-24059D01*
X56329Y-24334D02*
X56742Y-24334D01*
X56742Y-24334D02*
X56742Y-24255D01*
X56329Y-24255D02*
X56742Y-24255D01*
X56329Y-24334D02*
X56329Y-24255D01*
X56329Y-24531D02*
X56742Y-24531D01*
X56742Y-24531D02*
X56742Y-24452D01*
X56329Y-24452D02*
X56742Y-24452D01*
X56329Y-24531D02*
X56329Y-24452D01*
X56329Y-24728D02*
X56742Y-24728D01*
X56742Y-24728D02*
X56742Y-24649D01*
X56329Y-24649D02*
X56742Y-24649D01*
X56329Y-24728D02*
X56329Y-24649D01*
X56329Y-24925D02*
X56742Y-24925D01*
X56742Y-24925D02*
X56742Y-24846D01*
X56329Y-24846D02*
X56742Y-24846D01*
X56329Y-24925D02*
X56329Y-24846D01*
X56329Y-25122D02*
X56742Y-25122D01*
X56742Y-25122D02*
X56742Y-25043D01*
X56329Y-25043D02*
X56742Y-25043D01*
X56329Y-25122D02*
X56329Y-25043D01*
G54D14*
X56772Y-22780D02*
X56880Y-22672D01*
X56880Y-22672D02*
X59320Y-22672D01*
X59320Y-22672D02*
X59428Y-22780D01*
X59428Y-22780D02*
X59428Y-25220D01*
X59428Y-25220D02*
X59320Y-25328D01*
X59320Y-25328D02*
X56880Y-25328D01*
X56880Y-25328D02*
X56772Y-25220D01*
X56772Y-25220D02*
X56772Y-22780D01*
G54D13*
X57479Y-24787D02*
X57475Y-24819D01*
X57466Y-24850D01*
X57451Y-24878D01*
X57430Y-24903D01*
X57405Y-24924D01*
X57377Y-24940D01*
X57346Y-24949D01*
X57314Y-24952D01*
X57282Y-24950D01*
X57251Y-24940D01*
X57223Y-24925D01*
X57197Y-24905D01*
X57177Y-24880D01*
X57161Y-24852D01*
X57151Y-24821D01*
X57148Y-24789D01*
X57150Y-24758D01*
X57159Y-24726D01*
X57174Y-24698D01*
X57194Y-24672D01*
X57219Y-24651D01*
X57247Y-24635D01*
X57278Y-24625D01*
X57310Y-24622D01*
X57341Y-24624D01*
X57373Y-24633D01*
X57401Y-24647D01*
X57427Y-24667D01*
X57448Y-24692D01*
X57464Y-24720D01*
X57474Y-24751D01*
X57478Y-24783D01*
X57479Y-24787D01*
G54D12*
X59246Y-29118D02*
X59246Y-29246D01*
X59246Y-29246D02*
X59443Y-29246D01*
X59443Y-29118D02*
X59443Y-29246D01*
X59246Y-29118D02*
X59443Y-29118D01*
X59246Y-28873D02*
X59246Y-28932D01*
X59246Y-28932D02*
X59345Y-28932D01*
X59345Y-28873D02*
X59345Y-28932D01*
X59246Y-28873D02*
X59345Y-28873D01*
X59246Y-29068D02*
X59246Y-29127D01*
X59246Y-29127D02*
X59345Y-29127D01*
X59345Y-29068D02*
X59345Y-29127D01*
X59246Y-29068D02*
X59345Y-29068D01*
X59246Y-28922D02*
X59246Y-29078D01*
X59246Y-29078D02*
X59315Y-29078D01*
X59315Y-28922D02*
X59315Y-29078D01*
X59246Y-28922D02*
X59315Y-28922D01*
X58657Y-29118D02*
X58657Y-29246D01*
X58657Y-29246D02*
X58854Y-29246D01*
X58854Y-29118D02*
X58854Y-29246D01*
X58657Y-29118D02*
X58854Y-29118D01*
X58657Y-28754D02*
X58657Y-28882D01*
X58657Y-28882D02*
X58854Y-28882D01*
X58854Y-28754D02*
X58854Y-28882D01*
X58657Y-28754D02*
X58854Y-28754D01*
X58755Y-29068D02*
X58755Y-29127D01*
X58755Y-29127D02*
X58854Y-29127D01*
X58854Y-29068D02*
X58854Y-29127D01*
X58755Y-29068D02*
X58854Y-29068D01*
X58755Y-28873D02*
X58755Y-28932D01*
X58755Y-28932D02*
X58854Y-28932D01*
X58854Y-28873D02*
X58854Y-28932D01*
X58755Y-28873D02*
X58854Y-28873D01*
X58785Y-28922D02*
X58785Y-29078D01*
X58785Y-29078D02*
X58854Y-29078D01*
X58854Y-28922D02*
X58854Y-29078D01*
X58785Y-28922D02*
X58854Y-28922D01*
X59050Y-28961D02*
X59050Y-29039D01*
X59050Y-29039D02*
X59128Y-29039D01*
X59128Y-28961D02*
X59128Y-29039D01*
X59050Y-28961D02*
X59128Y-28961D01*
X59246Y-28764D02*
X59246Y-28882D01*
X59246Y-28882D02*
X59364Y-28882D01*
X59364Y-28764D02*
X59364Y-28882D01*
X59246Y-28764D02*
X59364Y-28764D01*
X59414Y-28754D02*
X59414Y-28843D01*
X59414Y-28843D02*
X59443Y-28843D01*
X59443Y-28754D02*
X59443Y-28843D01*
X59414Y-28754D02*
X59443Y-28754D01*
G54D15*
X59256Y-29226D02*
X58844Y-29226D01*
X58854Y-28774D02*
X59414Y-28774D01*
G54D16*
X59412Y-28823D02*
X59411Y-28828D01*
X59409Y-28833D01*
X59407Y-28838D01*
X59403Y-28842D01*
X59399Y-28846D01*
X59394Y-28848D01*
X59389Y-28850D01*
X59384Y-28850D01*
X59379Y-28850D01*
X59374Y-28848D01*
X59369Y-28846D01*
X59365Y-28843D01*
X59361Y-28838D01*
X59359Y-28834D01*
X59357Y-28828D01*
X59357Y-28823D01*
X59357Y-28818D01*
X59358Y-28813D01*
X59361Y-28808D01*
X59364Y-28804D01*
X59369Y-28801D01*
X59373Y-28798D01*
X59378Y-28796D01*
X59384Y-28796D01*
X59388Y-28796D01*
X59394Y-28797D01*
X59399Y-28800D01*
X59403Y-28803D01*
X59406Y-28807D01*
X59409Y-28812D01*
X59411Y-28817D01*
X59411Y-28823D01*
X59412Y-28823D01*
G54D15*
X59443Y-28863D02*
X59432Y-28864D01*
X59420Y-28866D01*
X59408Y-28868D01*
X59397Y-28872D01*
X59386Y-28876D01*
X59375Y-28882D01*
X59365Y-28888D01*
X59355Y-28896D01*
X59347Y-28904D01*
X59339Y-28912D01*
X59331Y-28922D01*
X59325Y-28932D01*
X59319Y-28943D01*
X59315Y-28954D01*
X59311Y-28965D01*
X59309Y-28977D01*
X59307Y-28989D01*
X59306Y-29000D01*
X59307Y-29011D01*
X59309Y-29023D01*
X59311Y-29035D01*
X59315Y-29046D01*
X59319Y-29057D01*
X59325Y-29068D01*
X59331Y-29078D01*
X59339Y-29088D01*
X59347Y-29096D01*
X59355Y-29104D01*
X59365Y-29112D01*
X59375Y-29118D01*
X59386Y-29124D01*
X59397Y-29128D01*
X59408Y-29132D01*
X59420Y-29134D01*
X59432Y-29136D01*
X59443Y-29137D01*
X58657Y-29137D02*
X58668Y-29136D01*
X58680Y-29134D01*
X58692Y-29132D01*
X58703Y-29128D01*
X58714Y-29124D01*
X58725Y-29118D01*
X58735Y-29112D01*
X58745Y-29104D01*
X58753Y-29096D01*
X58761Y-29088D01*
X58769Y-29078D01*
X58775Y-29068D01*
X58781Y-29057D01*
X58785Y-29046D01*
X58789Y-29035D01*
X58791Y-29023D01*
X58793Y-29011D01*
X58794Y-29000D01*
X58793Y-28989D01*
X58791Y-28977D01*
X58789Y-28965D01*
X58785Y-28954D01*
X58781Y-28943D01*
X58775Y-28932D01*
X58769Y-28922D01*
X58761Y-28912D01*
X58753Y-28904D01*
X58745Y-28896D01*
X58735Y-28888D01*
X58725Y-28882D01*
X58714Y-28876D01*
X58703Y-28872D01*
X58692Y-28868D01*
X58680Y-28866D01*
X58668Y-28864D01*
X58657Y-28863D01*
G54D12*
X61332Y-21496D02*
X61204Y-21496D01*
X61204Y-21496D02*
X61204Y-21693D01*
X61332Y-21693D02*
X61204Y-21693D01*
X61332Y-21496D02*
X61332Y-21693D01*
X61577Y-21496D02*
X61518Y-21496D01*
X61518Y-21496D02*
X61518Y-21595D01*
X61577Y-21595D02*
X61518Y-21595D01*
X61577Y-21496D02*
X61577Y-21595D01*
X61382Y-21496D02*
X61323Y-21496D01*
X61323Y-21496D02*
X61323Y-21595D01*
X61382Y-21595D02*
X61323Y-21595D01*
X61382Y-21496D02*
X61382Y-21595D01*
X61528Y-21496D02*
X61372Y-21496D01*
X61372Y-21496D02*
X61372Y-21565D01*
X61528Y-21565D02*
X61372Y-21565D01*
X61528Y-21496D02*
X61528Y-21565D01*
X61332Y-20907D02*
X61204Y-20907D01*
X61204Y-20907D02*
X61204Y-21104D01*
X61332Y-21104D02*
X61204Y-21104D01*
X61332Y-20907D02*
X61332Y-21104D01*
X61696Y-20907D02*
X61568Y-20907D01*
X61568Y-20907D02*
X61568Y-21104D01*
X61696Y-21104D02*
X61568Y-21104D01*
X61696Y-20907D02*
X61696Y-21104D01*
X61382Y-21005D02*
X61323Y-21005D01*
X61323Y-21005D02*
X61323Y-21104D01*
X61382Y-21104D02*
X61323Y-21104D01*
X61382Y-21005D02*
X61382Y-21104D01*
X61577Y-21005D02*
X61518Y-21005D01*
X61518Y-21005D02*
X61518Y-21104D01*
X61577Y-21104D02*
X61518Y-21104D01*
X61577Y-21005D02*
X61577Y-21104D01*
X61528Y-21035D02*
X61372Y-21035D01*
X61372Y-21035D02*
X61372Y-21104D01*
X61528Y-21104D02*
X61372Y-21104D01*
X61528Y-21035D02*
X61528Y-21104D01*
X61489Y-21300D02*
X61411Y-21300D01*
X61411Y-21300D02*
X61411Y-21378D01*
X61489Y-21378D02*
X61411Y-21378D01*
X61489Y-21300D02*
X61489Y-21378D01*
X61686Y-21496D02*
X61568Y-21496D01*
X61568Y-21496D02*
X61568Y-21614D01*
X61686Y-21614D02*
X61568Y-21614D01*
X61686Y-21496D02*
X61686Y-21614D01*
X61696Y-21664D02*
X61607Y-21664D01*
X61607Y-21664D02*
X61607Y-21693D01*
X61696Y-21693D02*
X61607Y-21693D01*
X61696Y-21664D02*
X61696Y-21693D01*
G54D15*
X61224Y-21506D02*
X61224Y-21094D01*
X61676Y-21104D02*
X61676Y-21664D01*
G54D16*
X61655Y-21634D02*
X61654Y-21639D01*
X61652Y-21644D01*
X61650Y-21649D01*
X61646Y-21653D01*
X61642Y-21657D01*
X61637Y-21659D01*
X61632Y-21661D01*
X61627Y-21661D01*
X61622Y-21661D01*
X61617Y-21659D01*
X61612Y-21657D01*
X61608Y-21654D01*
X61604Y-21649D01*
X61602Y-21645D01*
X61600Y-21639D01*
X61600Y-21634D01*
X61600Y-21629D01*
X61601Y-21624D01*
X61604Y-21619D01*
X61607Y-21615D01*
X61612Y-21612D01*
X61616Y-21609D01*
X61621Y-21607D01*
X61627Y-21607D01*
X61631Y-21607D01*
X61637Y-21608D01*
X61642Y-21611D01*
X61646Y-21614D01*
X61649Y-21618D01*
X61652Y-21623D01*
X61654Y-21628D01*
X61654Y-21634D01*
X61655Y-21634D01*
G54D15*
X61587Y-21693D02*
X61586Y-21682D01*
X61584Y-21670D01*
X61582Y-21658D01*
X61578Y-21647D01*
X61574Y-21636D01*
X61568Y-21625D01*
X61562Y-21615D01*
X61554Y-21605D01*
X61546Y-21597D01*
X61538Y-21589D01*
X61528Y-21581D01*
X61518Y-21575D01*
X61507Y-21569D01*
X61496Y-21565D01*
X61485Y-21561D01*
X61473Y-21559D01*
X61461Y-21557D01*
X61450Y-21556D01*
X61439Y-21557D01*
X61427Y-21559D01*
X61415Y-21561D01*
X61404Y-21565D01*
X61393Y-21569D01*
X61382Y-21575D01*
X61372Y-21581D01*
X61362Y-21589D01*
X61354Y-21597D01*
X61346Y-21605D01*
X61338Y-21615D01*
X61332Y-21625D01*
X61326Y-21636D01*
X61322Y-21647D01*
X61318Y-21658D01*
X61316Y-21670D01*
X61314Y-21682D01*
X61313Y-21693D01*
X61313Y-20907D02*
X61314Y-20918D01*
X61316Y-20930D01*
X61318Y-20942D01*
X61322Y-20953D01*
X61326Y-20964D01*
X61332Y-20975D01*
X61338Y-20985D01*
X61346Y-20995D01*
X61354Y-21003D01*
X61362Y-21011D01*
X61372Y-21019D01*
X61382Y-21025D01*
X61393Y-21031D01*
X61404Y-21035D01*
X61415Y-21039D01*
X61427Y-21041D01*
X61439Y-21043D01*
X61450Y-21044D01*
X61461Y-21043D01*
X61473Y-21041D01*
X61485Y-21039D01*
X61496Y-21035D01*
X61507Y-21031D01*
X61518Y-21025D01*
X61528Y-21019D01*
X61538Y-21011D01*
X61546Y-21003D01*
X61554Y-20995D01*
X61562Y-20985D01*
X61568Y-20975D01*
X61574Y-20964D01*
X61578Y-20953D01*
X61582Y-20942D01*
X61584Y-20930D01*
X61586Y-20918D01*
X61587Y-20907D01*
G54D12*
X60282Y-21496D02*
X60154Y-21496D01*
X60154Y-21496D02*
X60154Y-21693D01*
X60282Y-21693D02*
X60154Y-21693D01*
X60282Y-21496D02*
X60282Y-21693D01*
X60527Y-21496D02*
X60468Y-21496D01*
X60468Y-21496D02*
X60468Y-21595D01*
X60527Y-21595D02*
X60468Y-21595D01*
X60527Y-21496D02*
X60527Y-21595D01*
X60332Y-21496D02*
X60273Y-21496D01*
X60273Y-21496D02*
X60273Y-21595D01*
X60332Y-21595D02*
X60273Y-21595D01*
X60332Y-21496D02*
X60332Y-21595D01*
X60478Y-21496D02*
X60322Y-21496D01*
X60322Y-21496D02*
X60322Y-21565D01*
X60478Y-21565D02*
X60322Y-21565D01*
X60478Y-21496D02*
X60478Y-21565D01*
X60282Y-20907D02*
X60154Y-20907D01*
X60154Y-20907D02*
X60154Y-21104D01*
X60282Y-21104D02*
X60154Y-21104D01*
X60282Y-20907D02*
X60282Y-21104D01*
X60646Y-20907D02*
X60518Y-20907D01*
X60518Y-20907D02*
X60518Y-21104D01*
X60646Y-21104D02*
X60518Y-21104D01*
X60646Y-20907D02*
X60646Y-21104D01*
X60332Y-21005D02*
X60273Y-21005D01*
X60273Y-21005D02*
X60273Y-21104D01*
X60332Y-21104D02*
X60273Y-21104D01*
X60332Y-21005D02*
X60332Y-21104D01*
X60527Y-21005D02*
X60468Y-21005D01*
X60468Y-21005D02*
X60468Y-21104D01*
X60527Y-21104D02*
X60468Y-21104D01*
X60527Y-21005D02*
X60527Y-21104D01*
X60478Y-21035D02*
X60322Y-21035D01*
X60322Y-21035D02*
X60322Y-21104D01*
X60478Y-21104D02*
X60322Y-21104D01*
X60478Y-21035D02*
X60478Y-21104D01*
X60439Y-21300D02*
X60361Y-21300D01*
X60361Y-21300D02*
X60361Y-21378D01*
X60439Y-21378D02*
X60361Y-21378D01*
X60439Y-21300D02*
X60439Y-21378D01*
X60636Y-21496D02*
X60518Y-21496D01*
X60518Y-21496D02*
X60518Y-21614D01*
X60636Y-21614D02*
X60518Y-21614D01*
X60636Y-21496D02*
X60636Y-21614D01*
X60646Y-21664D02*
X60557Y-21664D01*
X60557Y-21664D02*
X60557Y-21693D01*
X60646Y-21693D02*
X60557Y-21693D01*
X60646Y-21664D02*
X60646Y-21693D01*
G54D15*
X60174Y-21506D02*
X60174Y-21094D01*
X60626Y-21104D02*
X60626Y-21664D01*
G54D16*
X60605Y-21634D02*
X60604Y-21639D01*
X60602Y-21644D01*
X60600Y-21649D01*
X60596Y-21653D01*
X60592Y-21657D01*
X60587Y-21659D01*
X60582Y-21661D01*
X60577Y-21661D01*
X60572Y-21661D01*
X60567Y-21659D01*
X60562Y-21657D01*
X60558Y-21654D01*
X60554Y-21649D01*
X60552Y-21645D01*
X60550Y-21639D01*
X60550Y-21634D01*
X60550Y-21629D01*
X60551Y-21624D01*
X60554Y-21619D01*
X60557Y-21615D01*
X60562Y-21612D01*
X60566Y-21609D01*
X60571Y-21607D01*
X60577Y-21607D01*
X60581Y-21607D01*
X60587Y-21608D01*
X60592Y-21611D01*
X60596Y-21614D01*
X60599Y-21618D01*
X60602Y-21623D01*
X60604Y-21628D01*
X60604Y-21634D01*
X60605Y-21634D01*
G54D15*
X60537Y-21693D02*
X60536Y-21682D01*
X60534Y-21670D01*
X60532Y-21658D01*
X60528Y-21647D01*
X60524Y-21636D01*
X60518Y-21625D01*
X60512Y-21615D01*
X60504Y-21605D01*
X60496Y-21597D01*
X60488Y-21589D01*
X60478Y-21581D01*
X60468Y-21575D01*
X60457Y-21569D01*
X60446Y-21565D01*
X60435Y-21561D01*
X60423Y-21559D01*
X60411Y-21557D01*
X60400Y-21556D01*
X60389Y-21557D01*
X60377Y-21559D01*
X60365Y-21561D01*
X60354Y-21565D01*
X60343Y-21569D01*
X60332Y-21575D01*
X60322Y-21581D01*
X60312Y-21589D01*
X60304Y-21597D01*
X60296Y-21605D01*
X60288Y-21615D01*
X60282Y-21625D01*
X60276Y-21636D01*
X60272Y-21647D01*
X60268Y-21658D01*
X60266Y-21670D01*
X60264Y-21682D01*
X60263Y-21693D01*
X60263Y-20907D02*
X60264Y-20918D01*
X60266Y-20930D01*
X60268Y-20942D01*
X60272Y-20953D01*
X60276Y-20964D01*
X60282Y-20975D01*
X60288Y-20985D01*
X60296Y-20995D01*
X60304Y-21003D01*
X60312Y-21011D01*
X60322Y-21019D01*
X60332Y-21025D01*
X60343Y-21031D01*
X60354Y-21035D01*
X60365Y-21039D01*
X60377Y-21041D01*
X60389Y-21043D01*
X60400Y-21044D01*
X60411Y-21043D01*
X60423Y-21041D01*
X60435Y-21039D01*
X60446Y-21035D01*
X60457Y-21031D01*
X60468Y-21025D01*
X60478Y-21019D01*
X60488Y-21011D01*
X60496Y-21003D01*
X60504Y-20995D01*
X60512Y-20985D01*
X60518Y-20975D01*
X60524Y-20964D01*
X60528Y-20953D01*
X60532Y-20942D01*
X60534Y-20930D01*
X60536Y-20918D01*
X60537Y-20907D01*
G54D12*
X53496Y-23718D02*
X53496Y-23846D01*
X53496Y-23846D02*
X53693Y-23846D01*
X53693Y-23718D02*
X53693Y-23846D01*
X53496Y-23718D02*
X53693Y-23718D01*
X53496Y-23473D02*
X53496Y-23532D01*
X53496Y-23532D02*
X53595Y-23532D01*
X53595Y-23473D02*
X53595Y-23532D01*
X53496Y-23473D02*
X53595Y-23473D01*
X53496Y-23668D02*
X53496Y-23727D01*
X53496Y-23727D02*
X53595Y-23727D01*
X53595Y-23668D02*
X53595Y-23727D01*
X53496Y-23668D02*
X53595Y-23668D01*
X53496Y-23522D02*
X53496Y-23678D01*
X53496Y-23678D02*
X53565Y-23678D01*
X53565Y-23522D02*
X53565Y-23678D01*
X53496Y-23522D02*
X53565Y-23522D01*
X52907Y-23718D02*
X52907Y-23846D01*
X52907Y-23846D02*
X53104Y-23846D01*
X53104Y-23718D02*
X53104Y-23846D01*
X52907Y-23718D02*
X53104Y-23718D01*
X52907Y-23354D02*
X52907Y-23482D01*
X52907Y-23482D02*
X53104Y-23482D01*
X53104Y-23354D02*
X53104Y-23482D01*
X52907Y-23354D02*
X53104Y-23354D01*
X53005Y-23668D02*
X53005Y-23727D01*
X53005Y-23727D02*
X53104Y-23727D01*
X53104Y-23668D02*
X53104Y-23727D01*
X53005Y-23668D02*
X53104Y-23668D01*
X53005Y-23473D02*
X53005Y-23532D01*
X53005Y-23532D02*
X53104Y-23532D01*
X53104Y-23473D02*
X53104Y-23532D01*
X53005Y-23473D02*
X53104Y-23473D01*
X53035Y-23522D02*
X53035Y-23678D01*
X53035Y-23678D02*
X53104Y-23678D01*
X53104Y-23522D02*
X53104Y-23678D01*
X53035Y-23522D02*
X53104Y-23522D01*
X53300Y-23561D02*
X53300Y-23639D01*
X53300Y-23639D02*
X53378Y-23639D01*
X53378Y-23561D02*
X53378Y-23639D01*
X53300Y-23561D02*
X53378Y-23561D01*
X53496Y-23364D02*
X53496Y-23482D01*
X53496Y-23482D02*
X53614Y-23482D01*
X53614Y-23364D02*
X53614Y-23482D01*
X53496Y-23364D02*
X53614Y-23364D01*
X53664Y-23354D02*
X53664Y-23443D01*
X53664Y-23443D02*
X53693Y-23443D01*
X53693Y-23354D02*
X53693Y-23443D01*
X53664Y-23354D02*
X53693Y-23354D01*
G54D15*
X53506Y-23826D02*
X53094Y-23826D01*
X53104Y-23374D02*
X53664Y-23374D01*
G54D16*
X53662Y-23423D02*
X53661Y-23428D01*
X53659Y-23433D01*
X53657Y-23438D01*
X53653Y-23442D01*
X53649Y-23446D01*
X53644Y-23448D01*
X53639Y-23450D01*
X53634Y-23450D01*
X53629Y-23450D01*
X53624Y-23448D01*
X53619Y-23446D01*
X53615Y-23443D01*
X53611Y-23438D01*
X53609Y-23434D01*
X53607Y-23428D01*
X53607Y-23423D01*
X53607Y-23418D01*
X53608Y-23413D01*
X53611Y-23408D01*
X53614Y-23404D01*
X53619Y-23401D01*
X53623Y-23398D01*
X53628Y-23396D01*
X53634Y-23396D01*
X53638Y-23396D01*
X53644Y-23397D01*
X53649Y-23400D01*
X53653Y-23403D01*
X53656Y-23407D01*
X53659Y-23412D01*
X53661Y-23417D01*
X53661Y-23423D01*
X53662Y-23423D01*
G54D15*
X53693Y-23463D02*
X53682Y-23464D01*
X53670Y-23466D01*
X53658Y-23468D01*
X53647Y-23472D01*
X53636Y-23476D01*
X53625Y-23482D01*
X53615Y-23488D01*
X53605Y-23496D01*
X53597Y-23504D01*
X53589Y-23512D01*
X53581Y-23522D01*
X53575Y-23532D01*
X53569Y-23543D01*
X53565Y-23554D01*
X53561Y-23565D01*
X53559Y-23577D01*
X53557Y-23589D01*
X53556Y-23600D01*
X53557Y-23611D01*
X53559Y-23623D01*
X53561Y-23635D01*
X53565Y-23646D01*
X53569Y-23657D01*
X53575Y-23668D01*
X53581Y-23678D01*
X53589Y-23688D01*
X53597Y-23696D01*
X53605Y-23704D01*
X53615Y-23712D01*
X53625Y-23718D01*
X53636Y-23724D01*
X53647Y-23728D01*
X53658Y-23732D01*
X53670Y-23734D01*
X53682Y-23736D01*
X53693Y-23737D01*
X52907Y-23737D02*
X52918Y-23736D01*
X52930Y-23734D01*
X52942Y-23732D01*
X52953Y-23728D01*
X52964Y-23724D01*
X52975Y-23718D01*
X52985Y-23712D01*
X52995Y-23704D01*
X53003Y-23696D01*
X53011Y-23688D01*
X53019Y-23678D01*
X53025Y-23668D01*
X53031Y-23657D01*
X53035Y-23646D01*
X53039Y-23635D01*
X53041Y-23623D01*
X53043Y-23611D01*
X53044Y-23600D01*
X53043Y-23589D01*
X53041Y-23577D01*
X53039Y-23565D01*
X53035Y-23554D01*
X53031Y-23543D01*
X53025Y-23532D01*
X53019Y-23522D01*
X53011Y-23512D01*
X53003Y-23504D01*
X52995Y-23496D01*
X52985Y-23488D01*
X52975Y-23482D01*
X52964Y-23476D01*
X52953Y-23472D01*
X52942Y-23468D01*
X52930Y-23466D01*
X52918Y-23464D01*
X52907Y-23463D01*
G54D12*
X64860Y-20700D02*
X64860Y-20900D01*
X64860Y-20900D02*
X64960Y-20900D01*
X64960Y-20700D02*
X64960Y-20900D01*
X64860Y-20700D02*
X64960Y-20700D01*
X64960Y-20650D02*
X64960Y-20800D01*
X64960Y-20800D02*
X65010Y-20800D01*
X65010Y-20650D02*
X65010Y-20800D01*
X64960Y-20650D02*
X65010Y-20650D01*
X64960Y-20800D02*
X64960Y-20950D01*
X64960Y-20950D02*
X65010Y-20950D01*
X65010Y-20800D02*
X65010Y-20950D01*
X64960Y-20800D02*
X65010Y-20800D01*
X64780Y-20750D02*
X64780Y-20850D01*
X64780Y-20850D02*
X64880Y-20850D01*
X64880Y-20750D02*
X64880Y-20850D01*
X64780Y-20750D02*
X64880Y-20750D01*
G54D17*
X64310Y-30300D02*
X64310Y-20300D01*
X64580Y-20300D02*
X64310Y-20300D01*
X64580Y-30300D02*
X64310Y-30300D01*
X65030Y-20630D02*
X65030Y-20970D01*
X65030Y-20970D02*
X64700Y-20800D01*
X64700Y-20800D02*
X65030Y-20630D01*
X64700Y-20800D02*
X64800Y-20800D01*
X64580Y-20300D02*
X64580Y-30300D01*
X64580Y-31290D02*
X65100Y-31290D01*
X67330Y-31290D02*
X67330Y-30949D01*
X67330Y-19300D02*
X66800Y-19300D01*
X64580Y-19300D02*
X64580Y-19651D01*
X67330Y-30949D02*
X66800Y-30949D01*
X66800Y-30949D02*
X66800Y-31290D01*
X66200Y-30949D02*
X66200Y-31290D01*
X66800Y-31290D02*
X67330Y-31290D01*
X66200Y-31290D02*
X66800Y-31290D01*
X65100Y-30949D02*
X65100Y-31290D01*
X65100Y-30949D02*
X64580Y-30949D01*
X65100Y-31290D02*
X65700Y-31290D01*
X65700Y-30949D02*
X65700Y-31290D01*
X65700Y-31290D02*
X66200Y-31290D01*
X64580Y-30300D02*
X64580Y-30949D01*
X67330Y-31300D02*
X67330Y-19651D01*
X66200Y-30949D02*
X65700Y-30949D01*
X67330Y-19651D02*
X66800Y-19651D01*
X67330Y-19651D02*
X67330Y-19300D01*
X66800Y-19300D02*
X66800Y-19651D01*
X66200Y-19300D02*
X66200Y-19651D01*
X66200Y-19651D02*
X65700Y-19651D01*
X65700Y-19300D02*
X65700Y-19651D01*
X65100Y-19300D02*
X65100Y-19651D01*
X65100Y-19651D02*
X64580Y-19651D01*
X66200Y-19300D02*
X65700Y-19300D01*
X66800Y-19300D02*
X66200Y-19300D01*
X65700Y-19300D02*
X65100Y-19300D01*
X65100Y-19300D02*
X64580Y-19300D01*
X64580Y-19651D02*
X64580Y-20300D01*
X64580Y-30949D02*
X64580Y-31290D01*
G54D18*
X54450Y-19150D02*
X59450Y-19150D01*
X59450Y-19150D02*
X59450Y-21150D01*
X59450Y-21150D02*
X54450Y-21150D01*
X54450Y-21150D02*
X54450Y-19150D01*
G54D13*
X63100Y-24550D02*
X62200Y-24550D01*
X62200Y-24550D02*
X62200Y-24050D01*
X62200Y-24050D02*
X63100Y-24050D01*
X63100Y-24050D02*
X63100Y-24550D01*
X63100Y-23600D02*
X62200Y-23600D01*
X62200Y-23600D02*
X62200Y-23100D01*
X62200Y-23100D02*
X63100Y-23100D01*
X63100Y-23100D02*
X63100Y-23600D01*
X63100Y-22500D02*
X62200Y-22500D01*
X62200Y-22500D02*
X62200Y-22000D01*
X62200Y-22000D02*
X63100Y-22000D01*
X63100Y-22000D02*
X63100Y-22500D01*
X62000Y-24700D02*
X62000Y-25600D01*
X62000Y-25600D02*
X61500Y-25600D01*
X61500Y-25600D02*
X61500Y-24700D01*
X61500Y-24700D02*
X62000Y-24700D01*
X59050Y-26250D02*
X59050Y-27150D01*
X59050Y-27150D02*
X58550Y-27150D01*
X58550Y-27150D02*
X58550Y-26250D01*
X58550Y-26250D02*
X59050Y-26250D01*
X62100Y-25600D02*
X62100Y-24700D01*
X62100Y-24700D02*
X62600Y-24700D01*
X62600Y-24700D02*
X62600Y-25600D01*
X62600Y-25600D02*
X62100Y-25600D01*
X61400Y-24200D02*
X61400Y-23300D01*
X61400Y-23300D02*
X61900Y-23300D01*
X61900Y-23300D02*
X61900Y-24200D01*
X61900Y-24200D02*
X61400Y-24200D01*
X61000Y-24300D02*
X61000Y-25200D01*
X61000Y-25200D02*
X60500Y-25200D01*
X60500Y-25200D02*
X60500Y-24300D01*
X60500Y-24300D02*
X61000Y-24300D01*
X60600Y-24200D02*
X60600Y-23300D01*
X60600Y-23300D02*
X61100Y-23300D01*
X61100Y-23300D02*
X61100Y-24200D01*
X61100Y-24200D02*
X60600Y-24200D01*
X54950Y-24050D02*
X54050Y-24050D01*
X54050Y-24050D02*
X54050Y-23550D01*
X54050Y-23550D02*
X54950Y-23550D01*
X54950Y-23550D02*
X54950Y-24050D01*
X57350Y-27300D02*
X57350Y-28200D01*
X57350Y-28200D02*
X56850Y-28200D01*
X56850Y-28200D02*
X56850Y-27300D01*
X56850Y-27300D02*
X57350Y-27300D01*
X58650Y-28150D02*
X57750Y-28150D01*
X57750Y-28150D02*
X57750Y-27650D01*
X57750Y-27650D02*
X58650Y-27650D01*
X58650Y-27650D02*
X58650Y-28150D01*
X57250Y-29300D02*
X56350Y-29300D01*
X56350Y-29300D02*
X56350Y-28800D01*
X56350Y-28800D02*
X57250Y-28800D01*
X57250Y-28800D02*
X57250Y-29300D01*
X60650Y-19500D02*
X60650Y-20400D01*
X60650Y-20400D02*
X60150Y-20400D01*
X60150Y-20400D02*
X60150Y-19500D01*
X60150Y-19500D02*
X60650Y-19500D01*
X61700Y-19500D02*
X61700Y-20400D01*
X61700Y-20400D02*
X61200Y-20400D01*
X61200Y-20400D02*
X61200Y-19500D01*
X61200Y-19500D02*
X61700Y-19500D01*
X57650Y-29650D02*
X57650Y-28750D01*
X57650Y-28750D02*
X58150Y-28750D01*
X58150Y-28750D02*
X58150Y-29650D01*
X58150Y-29650D02*
X57650Y-29650D01*
X53350Y-24450D02*
X52450Y-24450D01*
X52450Y-24450D02*
X52450Y-23950D01*
X52450Y-23950D02*
X53350Y-23950D01*
X53350Y-23950D02*
X53350Y-24450D01*
X55600Y-26850D02*
X55600Y-25950D01*
X55600Y-25950D02*
X56100Y-25950D01*
X56100Y-25950D02*
X56100Y-26850D01*
X56100Y-26850D02*
X55600Y-26850D01*
X57450Y-26700D02*
X56550Y-26700D01*
X56550Y-26700D02*
X56550Y-26200D01*
X56550Y-26200D02*
X57450Y-26200D01*
X57450Y-26200D02*
X57450Y-26700D01*
X61850Y-28750D02*
X62750Y-28750D01*
X62750Y-28750D02*
X62750Y-29250D01*
X62750Y-29250D02*
X61850Y-29250D01*
X61850Y-29250D02*
X61850Y-28750D01*
X61300Y-29250D02*
X60400Y-29250D01*
X60400Y-29250D02*
X60400Y-28750D01*
X60400Y-28750D02*
X61300Y-28750D01*
X61300Y-28750D02*
X61300Y-29250D01*
X64250Y-22050D02*
X63350Y-22050D01*
X63350Y-22050D02*
X63350Y-21550D01*
X63350Y-21550D02*
X64250Y-21550D01*
X64250Y-21550D02*
X64250Y-22050D01*
X64250Y-23050D02*
X63350Y-23050D01*
X63350Y-23050D02*
X63350Y-22550D01*
X63350Y-22550D02*
X64250Y-22550D01*
X64250Y-22550D02*
X64250Y-23050D01*
X64250Y-24050D02*
X63350Y-24050D01*
X63350Y-24050D02*
X63350Y-23550D01*
X63350Y-23550D02*
X64250Y-23550D01*
X64250Y-23550D02*
X64250Y-24050D01*
X64250Y-25050D02*
X63350Y-25050D01*
X63350Y-25050D02*
X63350Y-24550D01*
X63350Y-24550D02*
X64250Y-24550D01*
X64250Y-24550D02*
X64250Y-25050D01*
X64250Y-27100D02*
X63350Y-27100D01*
X63350Y-27100D02*
X63350Y-26600D01*
X63350Y-26600D02*
X64250Y-26600D01*
X64250Y-26600D02*
X64250Y-27100D01*
X64250Y-28050D02*
X63350Y-28050D01*
X63350Y-28050D02*
X63350Y-27550D01*
X63350Y-27550D02*
X64250Y-27550D01*
X64250Y-27550D02*
X64250Y-28050D01*
X59700Y-26250D02*
X59700Y-27150D01*
X59700Y-27150D02*
X59200Y-27150D01*
X59200Y-27150D02*
X59200Y-26250D01*
X59200Y-26250D02*
X59700Y-26250D01*
X58000Y-21400D02*
X58900Y-21400D01*
X58900Y-21400D02*
X58900Y-21900D01*
X58900Y-21900D02*
X58000Y-21900D01*
X58000Y-21900D02*
X58000Y-21400D01*
X55700Y-24250D02*
X55700Y-25150D01*
X55700Y-25150D02*
X55200Y-25150D01*
X55200Y-25150D02*
X55200Y-24250D01*
X55200Y-24250D02*
X55700Y-24250D01*
X54100Y-24250D02*
X54100Y-25150D01*
X54100Y-25150D02*
X53600Y-25150D01*
X53600Y-25150D02*
X53600Y-24250D01*
X53600Y-24250D02*
X54100Y-24250D01*
X58250Y-26250D02*
X58250Y-27150D01*
X58250Y-27150D02*
X57750Y-27150D01*
X57750Y-27150D02*
X57750Y-26250D01*
X57750Y-26250D02*
X58250Y-26250D01*
X54900Y-24250D02*
X54900Y-25150D01*
X54900Y-25150D02*
X54400Y-25150D01*
X54400Y-25150D02*
X54400Y-24250D01*
X54400Y-24250D02*
X54900Y-24250D01*
X54200Y-25800D02*
X54200Y-26700D01*
X54200Y-26700D02*
X53700Y-26700D01*
X53700Y-26700D02*
X53700Y-25800D01*
X53700Y-25800D02*
X54200Y-25800D01*
X52450Y-24700D02*
X53350Y-24700D01*
X53350Y-24700D02*
X53350Y-25200D01*
X53350Y-25200D02*
X52450Y-25200D01*
X52450Y-25200D02*
X52450Y-24700D01*
X62850Y-19500D02*
X62850Y-20400D01*
X62850Y-20400D02*
X62350Y-20400D01*
X62350Y-20400D02*
X62350Y-19500D01*
X62350Y-19500D02*
X62850Y-19500D01*
X52450Y-25350D02*
X53350Y-25350D01*
X53350Y-25350D02*
X53350Y-25850D01*
X53350Y-25850D02*
X52450Y-25850D01*
X52450Y-25850D02*
X52450Y-25350D01*
X62350Y-21350D02*
X62350Y-20450D01*
X62350Y-20450D02*
X62850Y-20450D01*
X62850Y-20450D02*
X62850Y-21350D01*
X62850Y-21350D02*
X62350Y-21350D01*
X53200Y-26900D02*
X54100Y-26900D01*
X54100Y-26900D02*
X54100Y-27400D01*
X54100Y-27400D02*
X53200Y-27400D01*
X53200Y-27400D02*
X53200Y-26900D01*
X64050Y-20400D02*
X63150Y-20400D01*
X63150Y-20400D02*
X63150Y-19900D01*
X63150Y-19900D02*
X64050Y-19900D01*
X64050Y-19900D02*
X64050Y-20400D01*
X52400Y-26600D02*
X52399Y-26609D01*
X52396Y-26619D01*
X52391Y-26627D01*
X52385Y-26635D01*
X52377Y-26641D01*
X52369Y-26646D01*
X52360Y-26648D01*
X52350Y-26649D01*
X52341Y-26649D01*
X52332Y-26646D01*
X52323Y-26641D01*
X52316Y-26635D01*
X52309Y-26628D01*
X52305Y-26619D01*
X52302Y-26610D01*
X52301Y-26600D01*
X52301Y-26591D01*
X52304Y-26582D01*
X52308Y-26573D01*
X52315Y-26566D01*
X52322Y-26559D01*
X52330Y-26555D01*
X52340Y-26552D01*
X52349Y-26551D01*
X52358Y-26551D01*
X52368Y-26554D01*
X52376Y-26558D01*
X52384Y-26564D01*
X52390Y-26572D01*
X52395Y-26580D01*
X52398Y-26589D01*
X52399Y-26599D01*
X52400Y-26600D01*
X52800Y-26600D02*
X52400Y-26600D01*
X52400Y-26600D02*
X52400Y-26000D01*
X52400Y-26000D02*
X52800Y-26000D01*
X53200Y-26000D02*
X53600Y-26000D01*
X53600Y-26000D02*
X53600Y-26600D01*
X53600Y-26600D02*
X53200Y-26600D01*
X64250Y-20500D02*
X64249Y-20509D01*
X64246Y-20519D01*
X64241Y-20527D01*
X64235Y-20535D01*
X64227Y-20541D01*
X64219Y-20546D01*
X64210Y-20548D01*
X64200Y-20549D01*
X64191Y-20549D01*
X64182Y-20546D01*
X64173Y-20541D01*
X64166Y-20535D01*
X64159Y-20528D01*
X64155Y-20519D01*
X64152Y-20510D01*
X64151Y-20500D01*
X64151Y-20491D01*
X64154Y-20482D01*
X64158Y-20473D01*
X64165Y-20466D01*
X64172Y-20459D01*
X64180Y-20455D01*
X64190Y-20452D01*
X64199Y-20451D01*
X64208Y-20451D01*
X64218Y-20454D01*
X64226Y-20458D01*
X64234Y-20464D01*
X64240Y-20472D01*
X64245Y-20480D01*
X64248Y-20489D01*
X64249Y-20499D01*
X64250Y-20500D01*
X63750Y-20500D02*
X64150Y-20500D01*
X64150Y-20500D02*
X64150Y-21100D01*
X64150Y-21100D02*
X63750Y-21100D01*
X63350Y-21100D02*
X62950Y-21100D01*
X62950Y-21100D02*
X62950Y-20500D01*
X62950Y-20500D02*
X63350Y-20500D01*
X60250Y-28300D02*
X60250Y-27600D01*
X60250Y-27600D02*
X61450Y-27600D01*
X61450Y-27600D02*
X61450Y-28300D01*
X61450Y-28300D02*
X60250Y-28300D01*
X61700Y-28350D02*
X61700Y-27650D01*
X61700Y-27650D02*
X62900Y-27650D01*
X62900Y-27650D02*
X62900Y-28350D01*
X62900Y-28350D02*
X61700Y-28350D01*
X54700Y-26500D02*
X54400Y-26300D01*
X55400Y-26500D02*
X54375Y-26500D01*
X54375Y-26500D02*
X54375Y-25900D01*
X54375Y-25900D02*
X55400Y-25900D01*
X55400Y-25900D02*
X55400Y-26500D01*
G54D14*
X55567Y-22729D02*
X52733Y-22729D01*
X52733Y-22729D02*
X52733Y-21471D01*
X52733Y-21471D02*
X55567Y-21471D01*
X55567Y-21471D02*
X55567Y-22729D01*
G54D10*
X57848Y-31357D02*
X57899Y-31327D01*
X57928Y-31310D01*
X57960Y-31291D01*
X57995Y-31271D01*
X58028Y-31252D01*
X58105Y-31208D01*
X58104Y-30908D01*
X58077Y-30893D01*
X58064Y-30885D01*
X58041Y-30872D01*
X58014Y-30856D01*
X57982Y-30838D01*
X57848Y-30760D01*
X57719Y-30834D01*
X57699Y-30845D01*
X57662Y-30868D01*
X57633Y-30884D01*
X57613Y-30896D01*
X57600Y-30905D01*
X57592Y-30911D01*
X57590Y-30914D01*
X57589Y-30921D01*
X57497Y-30921D01*
X57476Y-30921D01*
X57438Y-30920D01*
X57410Y-30920D01*
X57388Y-30917D01*
X57369Y-30914D01*
X57352Y-30909D01*
X57333Y-30902D01*
X57329Y-30901D01*
X57298Y-30885D01*
X57267Y-30864D01*
X57240Y-30841D01*
X57220Y-30818D01*
X57214Y-30811D01*
X57316Y-30752D01*
X57315Y-30451D01*
X57266Y-30423D01*
X57253Y-30416D01*
X57235Y-30404D01*
X57223Y-30397D01*
X57220Y-30394D01*
X57220Y-30394D01*
X57227Y-30396D01*
X57242Y-30403D01*
X57260Y-30413D01*
X57280Y-30424D01*
X57298Y-30434D01*
X57309Y-30440D01*
X57320Y-30446D01*
X57320Y-30404D01*
X57304Y-30395D01*
X57285Y-30385D01*
X57267Y-30374D01*
X57247Y-30362D01*
X57254Y-30355D01*
X57258Y-30351D01*
X57274Y-30338D01*
X57294Y-30325D01*
X57313Y-30313D01*
X57331Y-30305D01*
X57360Y-30295D01*
X57390Y-30289D01*
X57426Y-30286D01*
X57470Y-30286D01*
X57527Y-30286D01*
X57437Y-30337D01*
X57362Y-30380D01*
X57334Y-30397D01*
X57320Y-30404D01*
X57320Y-30446D01*
X57322Y-30447D01*
X57449Y-30374D01*
X57476Y-30359D01*
X57510Y-30339D01*
X57535Y-30324D01*
X57553Y-30313D01*
X57565Y-30305D01*
X57572Y-30300D01*
X57576Y-30296D01*
X57576Y-30293D01*
X57579Y-30287D01*
X57585Y-30285D01*
X57590Y-30293D01*
X57590Y-30295D01*
X57593Y-30298D01*
X57599Y-30303D01*
X57609Y-30310D01*
X57624Y-30319D01*
X57647Y-30333D01*
X57678Y-30351D01*
X57718Y-30374D01*
X57744Y-30389D01*
X57777Y-30407D01*
X57806Y-30424D01*
X57828Y-30436D01*
X57842Y-30444D01*
X57848Y-30447D01*
X57848Y-30446D01*
X57848Y-30405D01*
X57641Y-30286D01*
X57940Y-30285D01*
X57940Y-30114D01*
X57628Y-30114D01*
X57630Y-30020D01*
X57736Y-29959D01*
X57744Y-29954D01*
X57776Y-29936D01*
X57803Y-29921D01*
X57825Y-29909D01*
X57840Y-29901D01*
X57847Y-29898D01*
X57848Y-29899D01*
X57852Y-29900D01*
X57860Y-29903D01*
X57872Y-29910D01*
X57888Y-29920D01*
X57913Y-29933D01*
X57945Y-29951D01*
X57986Y-29975D01*
X58066Y-30022D01*
X58066Y-30278D01*
X57966Y-30336D01*
X57933Y-30355D01*
X57905Y-30371D01*
X57882Y-30385D01*
X57866Y-30395D01*
X57857Y-30399D01*
X57848Y-30405D01*
X57848Y-30446D01*
X57852Y-30445D01*
X57865Y-30437D01*
X57885Y-30427D01*
X57910Y-30412D01*
X57939Y-30395D01*
X57969Y-30378D01*
X58000Y-30360D01*
X58029Y-30343D01*
X58055Y-30329D01*
X58074Y-30317D01*
X58088Y-30309D01*
X58089Y-30308D01*
X58100Y-30303D01*
X58101Y-30306D01*
X58099Y-30308D01*
X58088Y-30315D01*
X58068Y-30327D01*
X58042Y-30343D01*
X58011Y-30361D01*
X57976Y-30380D01*
X57852Y-30452D01*
X57850Y-30752D01*
X57878Y-30768D01*
X57891Y-30775D01*
X57913Y-30788D01*
X57941Y-30805D01*
X57973Y-30823D01*
X58107Y-30901D01*
X58107Y-30900D01*
X58107Y-30855D01*
X58107Y-30855D01*
X58098Y-30850D01*
X58081Y-30841D01*
X58058Y-30828D01*
X58029Y-30812D01*
X57996Y-30793D01*
X57889Y-30731D01*
X57891Y-30473D01*
X58000Y-30410D01*
X58031Y-30392D01*
X58058Y-30377D01*
X58080Y-30365D01*
X58094Y-30357D01*
X58100Y-30354D01*
X58100Y-30355D01*
X58100Y-30365D01*
X58101Y-30386D01*
X58101Y-30415D01*
X58102Y-30451D01*
X58103Y-30492D01*
X58103Y-30538D01*
X58103Y-30573D01*
X58104Y-30623D01*
X58104Y-30663D01*
X58105Y-30695D01*
X58106Y-30721D01*
X58108Y-30743D01*
X58110Y-30761D01*
X58113Y-30778D01*
X58117Y-30795D01*
X58122Y-30814D01*
X58124Y-30825D01*
X58128Y-30839D01*
X58128Y-30844D01*
X58127Y-30845D01*
X58119Y-30850D01*
X58115Y-30852D01*
X58107Y-30855D01*
X58107Y-30900D01*
X58125Y-30890D01*
X58135Y-30884D01*
X58145Y-30881D01*
X58147Y-30885D01*
X58147Y-30886D01*
X58141Y-30890D01*
X58129Y-30899D01*
X58111Y-30910D01*
X58111Y-31208D01*
X58239Y-31282D01*
X58248Y-31288D01*
X58287Y-31310D01*
X58316Y-31327D01*
X58338Y-31339D01*
X58354Y-31347D01*
X58364Y-31352D01*
X58368Y-31353D01*
X58368Y-31313D01*
X58149Y-31186D01*
X58147Y-30931D01*
X58164Y-30921D01*
X58179Y-30941D01*
X58195Y-30961D01*
X58239Y-31003D01*
X58271Y-31024D01*
X58271Y-30762D01*
X58271Y-30762D01*
X58266Y-30754D01*
X58262Y-30736D01*
X58258Y-30708D01*
X58258Y-30707D01*
X58257Y-30693D01*
X58256Y-30670D01*
X58256Y-30638D01*
X58256Y-30600D01*
X58256Y-30559D01*
X58257Y-30432D01*
X58330Y-30475D01*
X58329Y-30730D01*
X58302Y-30746D01*
X58292Y-30752D01*
X58278Y-30759D01*
X58271Y-30762D01*
X58271Y-31024D01*
X58292Y-31037D01*
X58353Y-31062D01*
X58356Y-31063D01*
X58396Y-31074D01*
X58438Y-31082D01*
X58485Y-31088D01*
X58539Y-31091D01*
X58562Y-31092D01*
X58562Y-30920D01*
X58547Y-30920D01*
X58496Y-30917D01*
X58444Y-30910D01*
X58399Y-30899D01*
X58363Y-30885D01*
X58353Y-30879D01*
X58339Y-30869D01*
X58325Y-30857D01*
X58314Y-30847D01*
X58309Y-30841D01*
X58311Y-30838D01*
X58322Y-30832D01*
X58336Y-30823D01*
X58351Y-30814D01*
X58364Y-30807D01*
X58370Y-30804D01*
X58372Y-30805D01*
X58383Y-30811D01*
X58400Y-30821D01*
X58424Y-30835D01*
X58450Y-30850D01*
X58478Y-30866D01*
X58505Y-30882D01*
X58530Y-30896D01*
X58550Y-30908D01*
X58565Y-30916D01*
X58570Y-30920D01*
X58569Y-30920D01*
X58562Y-30920D01*
X58562Y-31092D01*
X58588Y-31093D01*
X58588Y-31187D01*
X58494Y-31241D01*
X58469Y-31256D01*
X58439Y-31273D01*
X58414Y-31287D01*
X58395Y-31298D01*
X58385Y-31304D01*
X58368Y-31313D01*
X58368Y-31353D01*
X58370Y-31354D01*
X58373Y-31354D01*
X58376Y-31352D01*
X58388Y-31345D01*
X58409Y-31334D01*
X58435Y-31318D01*
X58466Y-31300D01*
X58501Y-31280D01*
X58623Y-31210D01*
X58624Y-31093D01*
X58650Y-31091D01*
X58676Y-31089D01*
X58738Y-31082D01*
X58791Y-31072D01*
X58838Y-31058D01*
X58879Y-31041D01*
X58918Y-31019D01*
X58923Y-31015D01*
X58923Y-30639D01*
X58923Y-30638D01*
X58923Y-30626D01*
X58922Y-30605D01*
X58922Y-30576D01*
X58922Y-30573D01*
X58922Y-30544D01*
X58923Y-30524D01*
X58923Y-30514D01*
X58923Y-30513D01*
X58923Y-30524D01*
X58923Y-30557D01*
X58923Y-30595D01*
X58923Y-30628D01*
X58923Y-30629D01*
X58923Y-30639D01*
X58923Y-31015D01*
X58943Y-31001D01*
X58982Y-30962D01*
X59015Y-30916D01*
X59040Y-30865D01*
X59048Y-30843D01*
X59057Y-30849D01*
X59077Y-30860D01*
X59105Y-30875D01*
X59127Y-30887D01*
X59144Y-30896D01*
X59144Y-30855D01*
X59101Y-30830D01*
X59094Y-30826D01*
X59075Y-30815D01*
X59065Y-30809D01*
X59061Y-30804D01*
X59060Y-30800D01*
X59063Y-30788D01*
X59066Y-30775D01*
X59068Y-30760D01*
X59070Y-30742D01*
X59071Y-30721D01*
X59072Y-30693D01*
X59073Y-30658D01*
X59073Y-30614D01*
X59074Y-30560D01*
X59075Y-30383D01*
X59141Y-30346D01*
X59214Y-30388D01*
X59224Y-30393D01*
X59250Y-30408D01*
X59271Y-30420D01*
X59286Y-30428D01*
X59292Y-30433D01*
X59293Y-30435D01*
X59294Y-30442D01*
X59295Y-30457D01*
X59295Y-30478D01*
X59296Y-30509D01*
X59296Y-30549D01*
X59296Y-30600D01*
X59296Y-30764D01*
X59288Y-30770D01*
X59282Y-30775D01*
X59266Y-30784D01*
X59245Y-30796D01*
X59221Y-30810D01*
X59201Y-30822D01*
X59178Y-30835D01*
X59162Y-30844D01*
X59153Y-30850D01*
X59144Y-30855D01*
X59144Y-30896D01*
X59146Y-30897D01*
X59219Y-30855D01*
X59274Y-30823D01*
X59288Y-30814D01*
X59294Y-30811D01*
X59295Y-30813D01*
X59295Y-30814D01*
X59286Y-30820D01*
X59270Y-30830D01*
X59247Y-30844D01*
X59221Y-30859D01*
X59147Y-30902D01*
X59146Y-31202D01*
X59273Y-31275D01*
X59298Y-31290D01*
X59331Y-31309D01*
X59360Y-31325D01*
X59382Y-31337D01*
X59397Y-31346D01*
X59403Y-31348D01*
X59406Y-31347D01*
X59406Y-31304D01*
X59401Y-31303D01*
X59392Y-31300D01*
X59378Y-31292D01*
X59358Y-31281D01*
X59330Y-31265D01*
X59293Y-31243D01*
X59183Y-31180D01*
X59182Y-30925D01*
X59237Y-30893D01*
X59256Y-30883D01*
X59275Y-30872D01*
X59289Y-30864D01*
X59294Y-30861D01*
X59294Y-30861D01*
X59295Y-30868D01*
X59295Y-30884D01*
X59295Y-30910D01*
X59296Y-30941D01*
X59296Y-30977D01*
X59296Y-31092D01*
X59446Y-31092D01*
X59446Y-30921D01*
X59446Y-30871D01*
X59446Y-30863D01*
X59447Y-30842D01*
X59447Y-30828D01*
X59448Y-30823D01*
X59458Y-30829D01*
X59496Y-30850D01*
X59546Y-30880D01*
X59591Y-30905D01*
X59606Y-30914D01*
X59612Y-30917D01*
X59613Y-30919D01*
X59606Y-30920D01*
X59592Y-30920D01*
X59567Y-30921D01*
X59532Y-30921D01*
X59446Y-30921D01*
X59446Y-31092D01*
X59623Y-31092D01*
X59623Y-31181D01*
X59519Y-31241D01*
X59482Y-31262D01*
X59454Y-31278D01*
X59431Y-31291D01*
X59415Y-31300D01*
X59409Y-31304D01*
X59406Y-31304D01*
X59406Y-31347D01*
X59406Y-31347D01*
X59419Y-31340D01*
X59440Y-31328D01*
X59467Y-31313D01*
X59499Y-31295D01*
X59534Y-31275D01*
X59662Y-31202D01*
X59662Y-31145D01*
X59662Y-31120D01*
X59663Y-31105D01*
X59663Y-31096D01*
X59665Y-31093D01*
X59668Y-31092D01*
X59668Y-31092D01*
X59668Y-30921D01*
X59664Y-30920D01*
X59661Y-30911D01*
X59661Y-30910D01*
X59660Y-30906D01*
X59655Y-30902D01*
X59648Y-30896D01*
X59635Y-30888D01*
X59616Y-30877D01*
X59589Y-30861D01*
X59553Y-30841D01*
X59446Y-30779D01*
X59446Y-30285D01*
X59559Y-30285D01*
X59601Y-30285D01*
X59630Y-30285D01*
X59650Y-30286D01*
X59663Y-30286D01*
X59670Y-30287D01*
X59673Y-30289D01*
X59675Y-30290D01*
X59675Y-30290D01*
X59682Y-30296D01*
X59698Y-30307D01*
X59723Y-30322D01*
X59757Y-30342D01*
X59799Y-30366D01*
X59853Y-30397D01*
X59882Y-30413D01*
X59905Y-30427D01*
X59920Y-30435D01*
X59927Y-30439D01*
X59928Y-30439D01*
X59932Y-30439D01*
X59932Y-30398D01*
X59931Y-30397D01*
X59922Y-30392D01*
X59906Y-30383D01*
X59883Y-30371D01*
X59858Y-30356D01*
X59831Y-30341D01*
X59804Y-30325D01*
X59778Y-30311D01*
X59758Y-30299D01*
X59744Y-30291D01*
X59738Y-30287D01*
X59739Y-30286D01*
X59750Y-30286D01*
X59768Y-30286D01*
X59792Y-30286D01*
X59795Y-30286D01*
X59823Y-30287D01*
X59844Y-30288D01*
X59859Y-30290D01*
X59872Y-30294D01*
X59888Y-30299D01*
X59923Y-30315D01*
X59956Y-30335D01*
X59981Y-30356D01*
X59990Y-30365D01*
X59961Y-30381D01*
X59951Y-30387D01*
X59937Y-30394D01*
X59932Y-30398D01*
X59932Y-30439D01*
X59936Y-30437D01*
X59949Y-30431D01*
X59971Y-30419D01*
X59989Y-30409D01*
X60005Y-30400D01*
X60013Y-30396D01*
X60017Y-30395D01*
X60018Y-30398D01*
X60017Y-30399D01*
X60011Y-30405D01*
X59996Y-30414D01*
X59977Y-30426D01*
X59937Y-30449D01*
X59937Y-30751D01*
X59981Y-30776D01*
X59990Y-30782D01*
X60008Y-30793D01*
X60020Y-30800D01*
X60023Y-30803D01*
X60021Y-30803D01*
X60013Y-30800D01*
X59997Y-30791D01*
X59978Y-30781D01*
X59972Y-30777D01*
X59953Y-30766D01*
X59939Y-30759D01*
X59933Y-30755D01*
X59930Y-30757D01*
X59917Y-30764D01*
X59897Y-30775D01*
X59870Y-30790D01*
X59837Y-30808D01*
X59802Y-30828D01*
X59780Y-30841D01*
X59745Y-30861D01*
X59719Y-30876D01*
X59700Y-30887D01*
X59687Y-30895D01*
X59680Y-30901D01*
X59676Y-30905D01*
X59674Y-30908D01*
X59674Y-30911D01*
X59673Y-30918D01*
X59668Y-30921D01*
X59668Y-31092D01*
X59668Y-31092D01*
X59671Y-31093D01*
X59673Y-31096D01*
X59673Y-31105D01*
X59674Y-31121D01*
X59674Y-31147D01*
X59674Y-31202D01*
X59930Y-31350D01*
X59934Y-31348D01*
X59934Y-31304D01*
X59930Y-31304D01*
X59922Y-31301D01*
X59909Y-31294D01*
X59891Y-31285D01*
X59866Y-31270D01*
X59831Y-31250D01*
X59799Y-31231D01*
X59771Y-31214D01*
X59747Y-31201D01*
X59729Y-31191D01*
X59721Y-31186D01*
X59710Y-31179D01*
X59710Y-31093D01*
X59764Y-31091D01*
X59764Y-30920D01*
X59739Y-30920D01*
X59724Y-30920D01*
X59720Y-30919D01*
X59724Y-30916D01*
X59737Y-30908D01*
X59757Y-30897D01*
X59781Y-30883D01*
X59810Y-30867D01*
X59838Y-30850D01*
X59866Y-30835D01*
X59891Y-30820D01*
X59912Y-30809D01*
X59926Y-30801D01*
X59931Y-30798D01*
X59936Y-30800D01*
X59949Y-30807D01*
X59966Y-30817D01*
X59999Y-30836D01*
X59982Y-30851D01*
X59967Y-30865D01*
X59925Y-30892D01*
X59876Y-30911D01*
X59873Y-30912D01*
X59861Y-30915D01*
X59849Y-30917D01*
X59834Y-30919D01*
X59813Y-30920D01*
X59783Y-30920D01*
X59764Y-30920D01*
X59764Y-31091D01*
X59777Y-31091D01*
X59813Y-31090D01*
X59861Y-31085D01*
X59902Y-31078D01*
X59939Y-31067D01*
X59976Y-31052D01*
X60000Y-31039D01*
X60044Y-31009D01*
X60044Y-30768D01*
X60039Y-30766D01*
X60026Y-30759D01*
X60009Y-30749D01*
X59976Y-30730D01*
X59974Y-30678D01*
X59973Y-30656D01*
X59972Y-30622D01*
X59972Y-30584D01*
X59972Y-30549D01*
X59971Y-30472D01*
X60041Y-30432D01*
X60048Y-30445D01*
X60062Y-30477D01*
X60075Y-30529D01*
X60081Y-30588D01*
X60080Y-30641D01*
X60072Y-30699D01*
X60055Y-30749D01*
X60054Y-30751D01*
X60048Y-30763D01*
X60044Y-30768D01*
X60044Y-31009D01*
X60049Y-31006D01*
X60093Y-30967D01*
X60129Y-30926D01*
X60130Y-30925D01*
X60136Y-30919D01*
X60142Y-30920D01*
X60142Y-30276D01*
X60137Y-30276D01*
X60131Y-30271D01*
X60120Y-30258D01*
X60101Y-30238D01*
X60054Y-30197D01*
X59999Y-30163D01*
X59943Y-30139D01*
X59918Y-30131D01*
X59870Y-30121D01*
X59817Y-30116D01*
X59756Y-30114D01*
X59710Y-30114D01*
X59710Y-30016D01*
X59819Y-29953D01*
X59829Y-29948D01*
X59861Y-29930D01*
X59888Y-29914D01*
X59910Y-29902D01*
X59925Y-29894D01*
X59931Y-29891D01*
X59931Y-29891D01*
X59940Y-29896D01*
X59958Y-29905D01*
X59983Y-29920D01*
X60014Y-29938D01*
X60051Y-29959D01*
X60092Y-29982D01*
X60135Y-30007D01*
X60151Y-30016D01*
X60151Y-30272D01*
X60144Y-30275D01*
X60142Y-30276D01*
X60142Y-30920D01*
X60143Y-30920D01*
X60151Y-30924D01*
X60150Y-31180D01*
X60048Y-31240D01*
X59984Y-31276D01*
X59961Y-31289D01*
X59945Y-31299D01*
X59938Y-31303D01*
X59937Y-31303D01*
X59934Y-31304D01*
X59934Y-31348D01*
X59955Y-31336D01*
X59969Y-31328D01*
X59990Y-31316D01*
X60018Y-31300D01*
X60050Y-31282D01*
X60084Y-31262D01*
X60189Y-31201D01*
X60190Y-30904D01*
X60173Y-30894D01*
X60173Y-30893D01*
X60162Y-30887D01*
X60159Y-30882D01*
X60159Y-30882D01*
X60165Y-30883D01*
X60177Y-30889D01*
X60192Y-30897D01*
X60192Y-30855D01*
X60192Y-30855D01*
X60186Y-30851D01*
X60183Y-30848D01*
X60183Y-30844D01*
X60185Y-30835D01*
X60192Y-30818D01*
X60213Y-30752D01*
X60228Y-30677D01*
X60234Y-30599D01*
X60231Y-30523D01*
X60218Y-30449D01*
X60195Y-30380D01*
X60194Y-30377D01*
X60188Y-30361D01*
X60186Y-30352D01*
X60188Y-30348D01*
X60190Y-30347D01*
X60201Y-30350D01*
X60209Y-30356D01*
X60227Y-30365D01*
X60250Y-30379D01*
X60279Y-30395D01*
X60412Y-30472D01*
X60412Y-30728D01*
X60399Y-30736D01*
X60391Y-30740D01*
X60374Y-30751D01*
X60350Y-30764D01*
X60321Y-30781D01*
X60290Y-30799D01*
X60259Y-30817D01*
X60233Y-30832D01*
X60212Y-30844D01*
X60198Y-30852D01*
X60192Y-30855D01*
X60192Y-30897D01*
X60195Y-30898D01*
X60322Y-30824D01*
X60348Y-30809D01*
X60381Y-30790D01*
X60409Y-30773D01*
X60431Y-30761D01*
X60446Y-30753D01*
X60452Y-30750D01*
X60456Y-30752D01*
X60467Y-30757D01*
X60476Y-30764D01*
X60481Y-30768D01*
X60480Y-30769D01*
X60476Y-30778D01*
X60467Y-30796D01*
X60453Y-30821D01*
X60437Y-30853D01*
X60417Y-30889D01*
X60396Y-30928D01*
X60388Y-30943D01*
X60367Y-30981D01*
X60348Y-31016D01*
X60333Y-31045D01*
X60321Y-31067D01*
X60313Y-31082D01*
X60310Y-31088D01*
X60312Y-31088D01*
X60326Y-31088D01*
X60347Y-31088D01*
X60375Y-31089D01*
X60407Y-31089D01*
X60497Y-31089D01*
X60497Y-30731D01*
X60495Y-30730D01*
X60492Y-30725D01*
X60491Y-30716D01*
X60491Y-30700D01*
X60490Y-30676D01*
X60490Y-30644D01*
X60490Y-30601D01*
X60490Y-30472D01*
X60516Y-30457D01*
X60624Y-30395D01*
X60642Y-30385D01*
X60668Y-30370D01*
X60689Y-30359D01*
X60702Y-30351D01*
X60708Y-30349D01*
X60705Y-30354D01*
X60698Y-30368D01*
X60686Y-30391D01*
X60670Y-30421D01*
X60651Y-30456D01*
X60630Y-30496D01*
X60606Y-30540D01*
X60583Y-30583D01*
X60561Y-30623D01*
X60542Y-30658D01*
X60525Y-30688D01*
X60512Y-30711D01*
X60504Y-30725D01*
X60500Y-30731D01*
X60497Y-30731D01*
X60497Y-31089D01*
X60504Y-31089D01*
X60576Y-30957D01*
X60594Y-30925D01*
X60609Y-30897D01*
X60622Y-30875D01*
X60630Y-30860D01*
X60633Y-30855D01*
X60635Y-30855D01*
X60644Y-30859D01*
X60650Y-30863D01*
X60665Y-30871D01*
X60684Y-30881D01*
X60714Y-30897D01*
X60716Y-30896D01*
X60716Y-30853D01*
X60711Y-30852D01*
X60701Y-30848D01*
X60683Y-30838D01*
X60671Y-30831D01*
X60658Y-30824D01*
X60653Y-30821D01*
X60654Y-30818D01*
X60660Y-30806D01*
X60671Y-30787D01*
X60684Y-30761D01*
X60702Y-30729D01*
X60721Y-30694D01*
X60741Y-30656D01*
X60763Y-30617D01*
X60784Y-30578D01*
X60804Y-30542D01*
X60822Y-30508D01*
X60838Y-30480D01*
X60851Y-30457D01*
X60859Y-30443D01*
X60862Y-30437D01*
X60867Y-30438D01*
X60880Y-30444D01*
X60898Y-30453D01*
X60931Y-30472D01*
X60931Y-30648D01*
X60822Y-30650D01*
X60731Y-30815D01*
X60777Y-30818D01*
X60751Y-30832D01*
X60743Y-30837D01*
X60728Y-30846D01*
X60719Y-30851D01*
X60716Y-30853D01*
X60716Y-30896D01*
X60782Y-30858D01*
X60810Y-30841D01*
X60831Y-30830D01*
X60845Y-30822D01*
X60852Y-30818D01*
X60857Y-30817D01*
X60858Y-30817D01*
X60858Y-30817D01*
X60850Y-30823D01*
X60834Y-30832D01*
X60813Y-30845D01*
X60787Y-30860D01*
X60715Y-30902D01*
X60715Y-31202D01*
X60803Y-31253D01*
X60837Y-31273D01*
X60870Y-31292D01*
X60900Y-31309D01*
X60924Y-31323D01*
X60972Y-31350D01*
X60972Y-31305D01*
X60969Y-31304D01*
X60957Y-31297D01*
X60933Y-31285D01*
X60901Y-31267D01*
X60858Y-31242D01*
X60806Y-31211D01*
X60754Y-31181D01*
X60754Y-30923D01*
X60813Y-30888D01*
X60832Y-30877D01*
X60860Y-30861D01*
X60886Y-30846D01*
X60905Y-30835D01*
X60936Y-30817D01*
X60936Y-30431D01*
X60935Y-30430D01*
X60926Y-30426D01*
X60913Y-30419D01*
X60899Y-30410D01*
X60888Y-30403D01*
X60883Y-30400D01*
X60883Y-30398D01*
X60887Y-30391D01*
X60893Y-30380D01*
X60899Y-30370D01*
X60902Y-30367D01*
X60905Y-30370D01*
X60911Y-30382D01*
X60920Y-30398D01*
X60927Y-30412D01*
X60934Y-30425D01*
X60936Y-30431D01*
X60936Y-30817D01*
X60938Y-30816D01*
X60967Y-30816D01*
X60967Y-30648D01*
X60967Y-30562D01*
X60967Y-30533D01*
X60968Y-30510D01*
X60968Y-30494D01*
X60968Y-30489D01*
X60969Y-30490D01*
X60974Y-30498D01*
X60983Y-30514D01*
X60994Y-30535D01*
X61007Y-30559D01*
X61021Y-30583D01*
X61034Y-30607D01*
X61044Y-30627D01*
X61051Y-30641D01*
X61054Y-30646D01*
X61054Y-30646D01*
X61047Y-30647D01*
X61032Y-30648D01*
X61010Y-30648D01*
X60967Y-30648D01*
X60967Y-30816D01*
X61005Y-30816D01*
X61092Y-30866D01*
X61113Y-30878D01*
X61140Y-30893D01*
X61162Y-30906D01*
X61173Y-30913D01*
X61173Y-30868D01*
X61169Y-30866D01*
X61157Y-30860D01*
X61140Y-30850D01*
X61121Y-30840D01*
X61104Y-30830D01*
X61091Y-30822D01*
X61085Y-30818D01*
X61087Y-30817D01*
X61098Y-30817D01*
X61115Y-30817D01*
X61148Y-30818D01*
X61161Y-30842D01*
X61166Y-30851D01*
X61172Y-30863D01*
X61173Y-30868D01*
X61173Y-30913D01*
X61178Y-30916D01*
X61185Y-30920D01*
X61192Y-30924D01*
X61192Y-31181D01*
X61084Y-31243D01*
X61074Y-31248D01*
X61043Y-31267D01*
X61015Y-31282D01*
X60993Y-31294D01*
X60978Y-31302D01*
X60972Y-31305D01*
X60972Y-31350D01*
X60972Y-31350D01*
X61226Y-31204D01*
X61227Y-31084D01*
X61227Y-31049D01*
X61228Y-31018D01*
X61229Y-30994D01*
X61230Y-30978D01*
X61230Y-30972D01*
X61233Y-30974D01*
X61238Y-30983D01*
X61238Y-30984D01*
X61240Y-30989D01*
X61241Y-30998D01*
X61242Y-31011D01*
X61242Y-31031D01*
X61243Y-31060D01*
X61243Y-31098D01*
X61243Y-31202D01*
X61499Y-31350D01*
X61502Y-31348D01*
X61502Y-31304D01*
X61496Y-31303D01*
X61487Y-31299D01*
X61473Y-31292D01*
X61454Y-31280D01*
X61426Y-31265D01*
X61389Y-31244D01*
X61279Y-31181D01*
X61279Y-31061D01*
X61295Y-31088D01*
X61392Y-31090D01*
X61415Y-31091D01*
X61445Y-31091D01*
X61469Y-31091D01*
X61484Y-31091D01*
X61490Y-31091D01*
X61490Y-31091D01*
X61486Y-31083D01*
X61478Y-31066D01*
X61466Y-31043D01*
X61451Y-31014D01*
X61433Y-30981D01*
X61428Y-30972D01*
X61411Y-30940D01*
X61397Y-30912D01*
X61385Y-30890D01*
X61377Y-30875D01*
X61375Y-30870D01*
X61379Y-30868D01*
X61390Y-30860D01*
X61407Y-30850D01*
X61428Y-30838D01*
X61449Y-30826D01*
X61470Y-30814D01*
X61486Y-30805D01*
X61495Y-30800D01*
X61499Y-30799D01*
X61508Y-30803D01*
X61526Y-30812D01*
X61551Y-30827D01*
X61552Y-31092D01*
X61705Y-31092D01*
X61705Y-31005D01*
X61705Y-30992D01*
X61705Y-30962D01*
X61706Y-30939D01*
X61706Y-30924D01*
X61707Y-30918D01*
X61708Y-30918D01*
X61715Y-30922D01*
X61715Y-30922D01*
X61717Y-30925D01*
X61718Y-30931D01*
X61719Y-30940D01*
X61719Y-30956D01*
X61719Y-30979D01*
X61719Y-31010D01*
X61719Y-31053D01*
X61718Y-31180D01*
X61616Y-31240D01*
X61553Y-31276D01*
X61514Y-31299D01*
X61507Y-31303D01*
X61505Y-31304D01*
X61502Y-31304D01*
X61502Y-31348D01*
X61508Y-31345D01*
X61511Y-31343D01*
X61523Y-31336D01*
X61544Y-31325D01*
X61571Y-31309D01*
X61602Y-31291D01*
X61637Y-31271D01*
X61756Y-31202D01*
X61755Y-30902D01*
X61730Y-30887D01*
X61722Y-30882D01*
X61710Y-30874D01*
X61705Y-30870D01*
X61706Y-30868D01*
X61709Y-30868D01*
X61718Y-30873D01*
X61734Y-30882D01*
X61744Y-30887D01*
X61757Y-30895D01*
X61761Y-30896D01*
X61761Y-30855D01*
X61759Y-30853D01*
X61749Y-30848D01*
X61733Y-30839D01*
X61706Y-30823D01*
X61705Y-30376D01*
X61733Y-30361D01*
X61741Y-30356D01*
X61754Y-30349D01*
X61761Y-30347D01*
X61766Y-30349D01*
X61767Y-30349D01*
X61775Y-30354D01*
X61792Y-30364D01*
X61815Y-30377D01*
X61844Y-30394D01*
X61877Y-30412D01*
X61981Y-30472D01*
X61981Y-30648D01*
X61795Y-30648D01*
X61795Y-30816D01*
X61826Y-30818D01*
X61794Y-30836D01*
X61779Y-30845D01*
X61767Y-30852D01*
X61761Y-30855D01*
X61761Y-30896D01*
X61763Y-30897D01*
X61763Y-30897D01*
X61771Y-30893D01*
X61787Y-30884D01*
X61808Y-30871D01*
X61834Y-30857D01*
X61904Y-30816D01*
X62020Y-30816D01*
X62020Y-30649D01*
X62020Y-30451D01*
X61761Y-30302D01*
X61751Y-30307D01*
X61739Y-30314D01*
X61724Y-30322D01*
X61713Y-30328D01*
X61706Y-30331D01*
X61705Y-30328D01*
X61705Y-30327D01*
X61712Y-30320D01*
X61730Y-30308D01*
X61739Y-30303D01*
X61751Y-30295D01*
X61756Y-30289D01*
X61759Y-30285D01*
X61762Y-30289D01*
X61763Y-30289D01*
X61770Y-30295D01*
X61787Y-30305D01*
X61809Y-30319D01*
X61837Y-30335D01*
X61867Y-30353D01*
X61899Y-30371D01*
X61931Y-30389D01*
X61961Y-30407D01*
X61986Y-30421D01*
X62007Y-30433D01*
X62021Y-30440D01*
X62021Y-30440D01*
X62021Y-30440D01*
X62021Y-30398D01*
X61826Y-30286D01*
X61929Y-30286D01*
X61974Y-30286D01*
X62024Y-30286D01*
X62073Y-30286D01*
X62118Y-30286D01*
X62216Y-30286D01*
X62105Y-30350D01*
X62078Y-30366D01*
X62055Y-30379D01*
X62039Y-30389D01*
X62030Y-30393D01*
X62021Y-30398D01*
X62021Y-30440D01*
X62027Y-30437D01*
X62042Y-30428D01*
X62064Y-30416D01*
X62091Y-30401D01*
X62121Y-30384D01*
X62153Y-30366D01*
X62184Y-30348D01*
X62214Y-30331D01*
X62241Y-30315D01*
X62242Y-30315D01*
X62242Y-30117D01*
X62226Y-30116D01*
X62220Y-30116D01*
X62203Y-30116D01*
X62176Y-30116D01*
X62141Y-30115D01*
X62100Y-30115D01*
X62055Y-30115D01*
X62006Y-30115D01*
X61801Y-30114D01*
X61801Y-30016D01*
X61884Y-29968D01*
X61899Y-29959D01*
X61929Y-29942D01*
X61957Y-29926D01*
X61979Y-29913D01*
X61994Y-29905D01*
X62021Y-29890D01*
X62049Y-29906D01*
X62055Y-29909D01*
X62074Y-29920D01*
X62100Y-29935D01*
X62129Y-29951D01*
X62160Y-29969D01*
X62242Y-30016D01*
X62242Y-30117D01*
X62242Y-30315D01*
X62262Y-30303D01*
X62277Y-30294D01*
X62289Y-30292D01*
X62308Y-30297D01*
X62330Y-30307D01*
X62352Y-30320D01*
X62371Y-30336D01*
X62378Y-30343D01*
X62400Y-30376D01*
X62412Y-30416D01*
X62417Y-30465D01*
X62415Y-30500D01*
X62408Y-30533D01*
X62393Y-30562D01*
X62369Y-30590D01*
X62360Y-30598D01*
X62326Y-30622D01*
X62284Y-30640D01*
X62280Y-30640D01*
X62273Y-30643D01*
X62264Y-30644D01*
X62252Y-30645D01*
X62235Y-30646D01*
X62213Y-30646D01*
X62182Y-30647D01*
X62141Y-30647D01*
X62020Y-30649D01*
X62020Y-30816D01*
X62127Y-30816D01*
X62284Y-30991D01*
X62284Y-31202D01*
X62319Y-31223D01*
X62354Y-31243D01*
X62402Y-31271D01*
X62444Y-31295D01*
X62479Y-31315D01*
X62507Y-31330D01*
X62525Y-31340D01*
X62534Y-31344D01*
X62536Y-31345D01*
X62540Y-31345D01*
X62542Y-31345D01*
X62542Y-31304D01*
X62537Y-31303D01*
X62522Y-31295D01*
X62497Y-31282D01*
X62462Y-31262D01*
X62417Y-31236D01*
X62362Y-31204D01*
X62321Y-31180D01*
X62321Y-31106D01*
X62321Y-31079D01*
X62321Y-31056D01*
X62321Y-31041D01*
X62322Y-31035D01*
X62326Y-31039D01*
X62336Y-31049D01*
X62349Y-31064D01*
X62375Y-31092D01*
X62600Y-31092D01*
X62586Y-31078D01*
X62584Y-31075D01*
X62568Y-31058D01*
X62549Y-31036D01*
X62526Y-31012D01*
X62502Y-30985D01*
X62478Y-30958D01*
X62456Y-30933D01*
X62435Y-30911D01*
X62420Y-30893D01*
X62409Y-30881D01*
X62405Y-30877D01*
X62408Y-30875D01*
X62418Y-30868D01*
X62435Y-30858D01*
X62456Y-30845D01*
X62479Y-30832D01*
X62501Y-30820D01*
X62520Y-30808D01*
X62534Y-30801D01*
X62539Y-30798D01*
X62540Y-30799D01*
X62549Y-30803D01*
X62565Y-30812D01*
X62589Y-30826D01*
X62618Y-30842D01*
X62650Y-30860D01*
X62759Y-30923D01*
X62760Y-31181D01*
X62646Y-31246D01*
X62615Y-31264D01*
X62586Y-31280D01*
X62564Y-31292D01*
X62549Y-31301D01*
X62542Y-31304D01*
X62542Y-31345D01*
X62544Y-31344D01*
X62552Y-31342D01*
X62563Y-31336D01*
X62579Y-31327D01*
X62602Y-31315D01*
X62633Y-31297D01*
X62672Y-31274D01*
X62799Y-31202D01*
X62800Y-30904D01*
X62775Y-30889D01*
X62760Y-30881D01*
X62739Y-30868D01*
X62711Y-30852D01*
X62679Y-30834D01*
X62540Y-30754D01*
X62460Y-30800D01*
X62445Y-30808D01*
X62420Y-30823D01*
X62399Y-30835D01*
X62384Y-30843D01*
X62378Y-30846D01*
X62378Y-30845D01*
X62372Y-30840D01*
X62361Y-30829D01*
X62349Y-30817D01*
X62340Y-30805D01*
X62336Y-30799D01*
X62339Y-30795D01*
X62351Y-30790D01*
X62371Y-30783D01*
X62423Y-30756D01*
X62470Y-30721D01*
X62510Y-30678D01*
X62540Y-30630D01*
X62549Y-30613D01*
X62567Y-30554D01*
X62576Y-30491D01*
X62576Y-30427D01*
X62564Y-30361D01*
X62561Y-30350D01*
X62550Y-30319D01*
X62535Y-30287D01*
X62521Y-30262D01*
X62498Y-30233D01*
X62456Y-30196D01*
X62408Y-30165D01*
X62354Y-30141D01*
X62298Y-30125D01*
X62278Y-30122D01*
X62276Y-29993D01*
X62212Y-29956D01*
X62192Y-29944D01*
X62155Y-29923D01*
X62117Y-29902D01*
X62084Y-29882D01*
X62020Y-29846D01*
X61964Y-29879D01*
X61937Y-29894D01*
X61903Y-29913D01*
X61868Y-29934D01*
X61835Y-29953D01*
X61762Y-29995D01*
X61762Y-30055D01*
X61762Y-30065D01*
X61761Y-30091D01*
X61760Y-30108D01*
X61759Y-30114D01*
X61758Y-30113D01*
X61757Y-30104D01*
X61756Y-30084D01*
X61756Y-30054D01*
X61756Y-29994D01*
X61721Y-29974D01*
X61680Y-29950D01*
X61627Y-29919D01*
X61582Y-29893D01*
X61546Y-29873D01*
X61519Y-29859D01*
X61502Y-29851D01*
X61495Y-29849D01*
X61492Y-29851D01*
X61479Y-29857D01*
X61460Y-29869D01*
X61433Y-29884D01*
X61401Y-29902D01*
X61366Y-29922D01*
X61243Y-29993D01*
X61244Y-30295D01*
X61386Y-30377D01*
X61419Y-30395D01*
X61448Y-30412D01*
X61472Y-30425D01*
X61487Y-30434D01*
X61494Y-30438D01*
X61495Y-30439D01*
X61500Y-30439D01*
X61501Y-30439D01*
X61501Y-30397D01*
X61500Y-30397D01*
X61491Y-30393D01*
X61475Y-30383D01*
X61451Y-30370D01*
X61422Y-30354D01*
X61389Y-30335D01*
X61279Y-30272D01*
X61279Y-30016D01*
X61388Y-29953D01*
X61398Y-29948D01*
X61429Y-29930D01*
X61457Y-29914D01*
X61479Y-29902D01*
X61494Y-29894D01*
X61499Y-29891D01*
X61500Y-29891D01*
X61509Y-29896D01*
X61526Y-29905D01*
X61551Y-29920D01*
X61583Y-29938D01*
X61620Y-29959D01*
X61661Y-29982D01*
X61704Y-30007D01*
X61720Y-30016D01*
X61720Y-30114D01*
X61552Y-30114D01*
X61552Y-30368D01*
X61527Y-30383D01*
X61519Y-30387D01*
X61506Y-30394D01*
X61501Y-30397D01*
X61501Y-30439D01*
X61509Y-30436D01*
X61524Y-30428D01*
X61538Y-30420D01*
X61547Y-30415D01*
X61551Y-30415D01*
X61552Y-30418D01*
X61551Y-30420D01*
X61542Y-30427D01*
X61528Y-30436D01*
X61504Y-30450D01*
X61504Y-30750D01*
X61528Y-30764D01*
X61535Y-30768D01*
X61547Y-30776D01*
X61549Y-30778D01*
X61549Y-30732D01*
X61544Y-30728D01*
X61544Y-30728D01*
X61543Y-30718D01*
X61542Y-30698D01*
X61541Y-30670D01*
X61541Y-30637D01*
X61541Y-30599D01*
X61540Y-30559D01*
X61540Y-30526D01*
X61540Y-30502D01*
X61541Y-30486D01*
X61542Y-30476D01*
X61544Y-30470D01*
X61546Y-30469D01*
X61550Y-30468D01*
X61550Y-30469D01*
X61550Y-30480D01*
X61551Y-30500D01*
X61551Y-30527D01*
X61552Y-30562D01*
X61552Y-30600D01*
X61552Y-30604D01*
X61552Y-30647D01*
X61551Y-30683D01*
X61551Y-30709D01*
X61550Y-30726D01*
X61549Y-30732D01*
X61549Y-30778D01*
X61552Y-30781D01*
X61548Y-30781D01*
X61538Y-30775D01*
X61526Y-30769D01*
X61511Y-30760D01*
X61499Y-30754D01*
X61430Y-30794D01*
X61424Y-30797D01*
X61400Y-30812D01*
X61379Y-30823D01*
X61364Y-30831D01*
X61358Y-30834D01*
X61355Y-30829D01*
X61347Y-30815D01*
X61335Y-30791D01*
X61317Y-30760D01*
X61297Y-30722D01*
X61274Y-30678D01*
X61247Y-30629D01*
X61219Y-30575D01*
X61189Y-30518D01*
X61161Y-30466D01*
X61133Y-30412D01*
X61105Y-30360D01*
X61080Y-30314D01*
X61059Y-30273D01*
X61040Y-30239D01*
X61026Y-30212D01*
X61016Y-30194D01*
X61011Y-30186D01*
X61003Y-30175D01*
X60984Y-30154D01*
X60962Y-30134D01*
X60942Y-30121D01*
X60922Y-30115D01*
X60893Y-30114D01*
X60864Y-30125D01*
X60833Y-30148D01*
X60825Y-30155D01*
X60815Y-30167D01*
X60804Y-30180D01*
X60792Y-30197D01*
X60779Y-30221D01*
X60762Y-30253D01*
X60750Y-30274D01*
X60739Y-30293D01*
X60731Y-30307D01*
X60728Y-30312D01*
X60726Y-30311D01*
X60718Y-30307D01*
X60714Y-30305D01*
X60709Y-30305D01*
X60702Y-30308D01*
X60690Y-30314D01*
X60672Y-30324D01*
X60645Y-30340D01*
X60626Y-30350D01*
X60590Y-30371D01*
X60551Y-30394D01*
X60516Y-30413D01*
X60492Y-30428D01*
X60471Y-30439D01*
X60457Y-30447D01*
X60451Y-30450D01*
X60449Y-30449D01*
X60438Y-30444D01*
X60423Y-30435D01*
X60410Y-30427D01*
X60388Y-30415D01*
X60360Y-30399D01*
X60329Y-30381D01*
X60295Y-30361D01*
X60192Y-30302D01*
X60177Y-30310D01*
X60175Y-30311D01*
X60165Y-30316D01*
X60162Y-30314D01*
X60163Y-30310D01*
X60174Y-30302D01*
X60187Y-30294D01*
X60187Y-29994D01*
X60161Y-29978D01*
X60147Y-29971D01*
X60126Y-29959D01*
X60098Y-29942D01*
X60066Y-29924D01*
X60033Y-29905D01*
X60012Y-29893D01*
X59980Y-29875D01*
X59957Y-29862D01*
X59940Y-29854D01*
X59930Y-29849D01*
X59926Y-29849D01*
X59923Y-29851D01*
X59911Y-29857D01*
X59891Y-29869D01*
X59864Y-29884D01*
X59832Y-29902D01*
X59797Y-29922D01*
X59674Y-29993D01*
X59674Y-30114D01*
X59296Y-30114D01*
X59294Y-30390D01*
X59144Y-30305D01*
X59144Y-29999D01*
X58887Y-29852D01*
X58860Y-29868D01*
X58847Y-29876D01*
X58824Y-29888D01*
X58797Y-29905D01*
X58765Y-29923D01*
X58731Y-29942D01*
X58630Y-30001D01*
X58630Y-30299D01*
X58721Y-30352D01*
X58742Y-30364D01*
X58775Y-30383D01*
X58805Y-30400D01*
X58830Y-30415D01*
X58848Y-30425D01*
X58885Y-30446D01*
X58885Y-30750D01*
X58887Y-30751D01*
X58887Y-30402D01*
X58886Y-30401D01*
X58873Y-30395D01*
X58851Y-30383D01*
X58820Y-30365D01*
X58778Y-30342D01*
X58728Y-30313D01*
X58669Y-30278D01*
X58669Y-30022D01*
X58710Y-29998D01*
X58730Y-29986D01*
X58758Y-29970D01*
X58789Y-29952D01*
X58820Y-29935D01*
X58887Y-29896D01*
X59003Y-29962D01*
X59035Y-29980D01*
X59063Y-29996D01*
X59085Y-30009D01*
X59100Y-30018D01*
X59106Y-30022D01*
X59108Y-30025D01*
X59108Y-30034D01*
X59109Y-30050D01*
X59109Y-30074D01*
X59109Y-30107D01*
X59109Y-30151D01*
X59108Y-30277D01*
X59075Y-30297D01*
X59074Y-30114D01*
X58924Y-30114D01*
X58924Y-30383D01*
X58908Y-30392D01*
X58895Y-30399D01*
X58887Y-30402D01*
X58887Y-30751D01*
X58898Y-30757D01*
X58905Y-30762D01*
X58907Y-30767D01*
X58904Y-30778D01*
X58897Y-30795D01*
X58883Y-30820D01*
X58855Y-30855D01*
X58819Y-30882D01*
X58808Y-30888D01*
X58774Y-30901D01*
X58734Y-30911D01*
X58691Y-30919D01*
X58650Y-30921D01*
X58641Y-30921D01*
X58629Y-30920D01*
X58625Y-30919D01*
X58624Y-30914D01*
X58624Y-30913D01*
X58621Y-30908D01*
X58612Y-30901D01*
X58595Y-30890D01*
X58583Y-30883D01*
X58560Y-30871D01*
X58533Y-30854D01*
X58501Y-30836D01*
X58467Y-30817D01*
X58370Y-30760D01*
X58329Y-30784D01*
X58308Y-30796D01*
X58295Y-30803D01*
X58288Y-30806D01*
X58286Y-30806D01*
X58285Y-30803D01*
X58285Y-30803D01*
X58291Y-30797D01*
X58305Y-30788D01*
X58326Y-30775D01*
X58366Y-30752D01*
X58365Y-30451D01*
X58255Y-30388D01*
X58255Y-30114D01*
X58105Y-30114D01*
X58105Y-30001D01*
X58011Y-29947D01*
X57954Y-29914D01*
X57924Y-29897D01*
X57899Y-29882D01*
X57882Y-29873D01*
X57847Y-29852D01*
X57591Y-29999D01*
X57590Y-30059D01*
X57590Y-30085D01*
X57589Y-30101D01*
X57588Y-30110D01*
X57586Y-30113D01*
X57583Y-30114D01*
X57583Y-30114D01*
X57580Y-30113D01*
X57579Y-30109D01*
X57578Y-30100D01*
X57577Y-30083D01*
X57576Y-30056D01*
X57576Y-29999D01*
X57472Y-29939D01*
X57437Y-29919D01*
X57405Y-29901D01*
X57378Y-29885D01*
X57357Y-29873D01*
X57344Y-29866D01*
X57320Y-29852D01*
X57227Y-29906D01*
X57204Y-29918D01*
X57172Y-29938D01*
X57142Y-29955D01*
X57117Y-29969D01*
X57099Y-29980D01*
X57064Y-30000D01*
X57064Y-30172D01*
X57065Y-30213D01*
X57065Y-30244D01*
X57065Y-30267D01*
X57065Y-30283D01*
X57066Y-30293D01*
X57067Y-30299D01*
X57068Y-30302D01*
X57070Y-30304D01*
X57073Y-30307D01*
X57074Y-30310D01*
X57065Y-30308D01*
X57064Y-30308D01*
X57060Y-30308D01*
X57053Y-30311D01*
X57042Y-30316D01*
X57026Y-30324D01*
X57003Y-30337D01*
X56973Y-30354D01*
X56933Y-30377D01*
X56909Y-30391D01*
X56876Y-30409D01*
X56848Y-30425D01*
X56826Y-30438D01*
X56811Y-30446D01*
X56806Y-30449D01*
X56805Y-30449D01*
X56805Y-30440D01*
X56805Y-30421D01*
X56804Y-30391D01*
X56804Y-30354D01*
X56804Y-30310D01*
X56804Y-30259D01*
X56804Y-30203D01*
X56803Y-30144D01*
X56803Y-29838D01*
X62801Y-29836D01*
X56801Y-29835D01*
X56801Y-30656D01*
X56801Y-30751D01*
X56802Y-30836D01*
X56802Y-30911D01*
X56802Y-30976D01*
X56802Y-31030D01*
X56802Y-31073D01*
X56802Y-31105D01*
X56802Y-31126D01*
X56802Y-31136D01*
X56803Y-31135D01*
X56803Y-31123D01*
X56803Y-31098D01*
X56803Y-31061D01*
X56805Y-30754D01*
X57056Y-30899D01*
X57056Y-30855D01*
X57056Y-30855D01*
X57047Y-30850D01*
X57031Y-30841D01*
X57008Y-30828D01*
X56979Y-30811D01*
X56946Y-30793D01*
X56839Y-30731D01*
X56841Y-30473D01*
X56950Y-30410D01*
X56981Y-30392D01*
X57008Y-30377D01*
X57029Y-30365D01*
X57044Y-30358D01*
X57048Y-30355D01*
X57048Y-30357D01*
X57045Y-30365D01*
X57044Y-30368D01*
X57036Y-30388D01*
X57027Y-30413D01*
X57020Y-30440D01*
X57014Y-30464D01*
X57011Y-30478D01*
X57005Y-30520D01*
X57002Y-30563D01*
X57002Y-30612D01*
X57003Y-30643D01*
X57011Y-30706D01*
X57024Y-30764D01*
X57044Y-30819D01*
X57054Y-30844D01*
X57057Y-30851D01*
X57056Y-30855D01*
X57056Y-30899D01*
X57057Y-30901D01*
X57078Y-30888D01*
X57098Y-30914D01*
X57100Y-30918D01*
X57100Y-30272D01*
X57100Y-30022D01*
X57121Y-30010D01*
X57153Y-29992D01*
X57186Y-29972D01*
X57219Y-29954D01*
X57249Y-29936D01*
X57276Y-29921D01*
X57298Y-29909D01*
X57312Y-29900D01*
X57318Y-29897D01*
X57320Y-29897D01*
X57329Y-29902D01*
X57345Y-29911D01*
X57369Y-29924D01*
X57399Y-29941D01*
X57431Y-29959D01*
X57541Y-30022D01*
X57541Y-30114D01*
X57486Y-30114D01*
X57477Y-30114D01*
X57417Y-30116D01*
X57367Y-30121D01*
X57322Y-30130D01*
X57281Y-30143D01*
X57240Y-30161D01*
X57227Y-30168D01*
X57202Y-30182D01*
X57181Y-30196D01*
X57168Y-30206D01*
X57147Y-30225D01*
X57128Y-30244D01*
X57100Y-30272D01*
X57100Y-30918D01*
X57101Y-30919D01*
X57144Y-30969D01*
X57194Y-31011D01*
X57194Y-30777D01*
X57190Y-30773D01*
X57184Y-30760D01*
X57176Y-30742D01*
X57169Y-30721D01*
X57164Y-30702D01*
X57158Y-30674D01*
X57153Y-30616D01*
X57156Y-30557D01*
X57166Y-30502D01*
X57184Y-30452D01*
X57196Y-30426D01*
X57281Y-30475D01*
X57279Y-30504D01*
X57279Y-30511D01*
X57278Y-30533D01*
X57278Y-30562D01*
X57278Y-30596D01*
X57277Y-30632D01*
X57277Y-30731D01*
X57237Y-30754D01*
X57233Y-30757D01*
X57215Y-30767D01*
X57200Y-30774D01*
X57194Y-30777D01*
X57194Y-31011D01*
X57196Y-31012D01*
X57252Y-31047D01*
X57310Y-31071D01*
X57325Y-31076D01*
X57345Y-31081D01*
X57365Y-31085D01*
X57387Y-31087D01*
X57413Y-31089D01*
X57446Y-31090D01*
X57489Y-31091D01*
X57589Y-31093D01*
X57589Y-31208D01*
X57846Y-31356D01*
X57846Y-31313D01*
X57821Y-31299D01*
X57628Y-31187D01*
X57628Y-31092D01*
X57940Y-31092D01*
X57940Y-30921D01*
X57646Y-30920D01*
X57747Y-30862D01*
X57773Y-30846D01*
X57803Y-30829D01*
X57825Y-30817D01*
X57840Y-30810D01*
X57849Y-30806D01*
X57853Y-30806D01*
X57860Y-30810D01*
X57875Y-30819D01*
X57897Y-30832D01*
X57924Y-30848D01*
X57955Y-30866D01*
X57986Y-30883D01*
X58014Y-30900D01*
X58037Y-30913D01*
X58053Y-30923D01*
X58061Y-30928D01*
X58069Y-30934D01*
X58068Y-31186D01*
X57957Y-31250D01*
X57945Y-31257D01*
X57914Y-31275D01*
X57887Y-31291D01*
X57865Y-31303D01*
X57851Y-31311D01*
X57846Y-31313D01*
X57846Y-31356D01*
X57848Y-31357D01*
X60454Y-30441D02*
X60457Y-30439D01*
X60469Y-30433D01*
X60489Y-30421D01*
X60515Y-30406D01*
X60546Y-30388D01*
X60582Y-30368D01*
X60707Y-30295D01*
X60707Y-29993D01*
X60633Y-29950D01*
X60598Y-29930D01*
X60563Y-29910D01*
X60530Y-29891D01*
X60504Y-29876D01*
X60451Y-29846D01*
X60395Y-29879D01*
X60368Y-29894D01*
X60335Y-29913D01*
X60299Y-29934D01*
X60266Y-29953D01*
X60193Y-29995D01*
X60193Y-30292D01*
X60203Y-30298D01*
X60206Y-30300D01*
X60218Y-30307D01*
X60239Y-30319D01*
X60266Y-30334D01*
X60333Y-30373D01*
X60353Y-30384D01*
X60384Y-30402D01*
X60413Y-30418D01*
X60434Y-30430D01*
X60449Y-30438D01*
X60453Y-30440D01*
X60453Y-30398D01*
X60232Y-30272D01*
X60232Y-30016D01*
X60267Y-29995D01*
X60296Y-29978D01*
X60341Y-29953D01*
X60376Y-29933D01*
X60403Y-29917D01*
X60424Y-29906D01*
X60439Y-29899D01*
X60449Y-29894D01*
X60455Y-29893D01*
X60458Y-29893D01*
X60459Y-29893D01*
X60467Y-29898D01*
X60484Y-29908D01*
X60508Y-29921D01*
X60537Y-29938D01*
X60569Y-29957D01*
X60673Y-30016D01*
X60673Y-30271D01*
X60579Y-30325D01*
X60554Y-30341D01*
X60524Y-30358D01*
X60499Y-30372D01*
X60480Y-30383D01*
X60469Y-30389D01*
X60453Y-30398D01*
X60453Y-30440D01*
X60454Y-30441D01*
G54D19*
X52005Y-26848D02*
X52339Y-27348D01*
X52339Y-26848D02*
X52005Y-27348D01*
X52791Y-27348D02*
X52505Y-27348D01*
X52648Y-27348D02*
X52648Y-26848D01*
X52600Y-26920D01*
X52553Y-26967D01*
X52505Y-26991D01*
G54D20*
X54012Y-31388D02*
X54336Y-31388D01*
X54374Y-31369D01*
X54393Y-31350D01*
X54412Y-31312D01*
X54412Y-31235D01*
X54393Y-31197D01*
X54374Y-31178D01*
X54336Y-31159D01*
X54012Y-31159D01*
X54393Y-30988D02*
X54412Y-30931D01*
X54412Y-30835D01*
X54393Y-30797D01*
X54374Y-30778D01*
X54336Y-30759D01*
X54298Y-30759D01*
X54260Y-30778D01*
X54240Y-30797D01*
X54221Y-30835D01*
X54202Y-30912D01*
X54183Y-30950D01*
X54164Y-30969D01*
X54126Y-30988D01*
X54088Y-30988D01*
X54050Y-30969D01*
X54031Y-30950D01*
X54012Y-30912D01*
X54012Y-30816D01*
X54031Y-30759D01*
X54202Y-30454D02*
X54221Y-30397D01*
X54240Y-30378D01*
X54279Y-30359D01*
X54336Y-30359D01*
X54374Y-30378D01*
X54393Y-30397D01*
X54412Y-30435D01*
X54412Y-30588D01*
X54012Y-30588D01*
X54012Y-30454D01*
X54031Y-30416D01*
X54050Y-30397D01*
X54088Y-30378D01*
X54126Y-30378D01*
X54164Y-30397D01*
X54183Y-30416D01*
X54202Y-30454D01*
X54202Y-30588D01*
X54260Y-30188D02*
X54260Y-29883D01*
X54412Y-29693D02*
X54012Y-29693D01*
X54298Y-29559D01*
X54012Y-29426D01*
X54412Y-29426D01*
X54202Y-29102D02*
X54221Y-29045D01*
X54240Y-29026D01*
X54279Y-29007D01*
X54336Y-29007D01*
X54374Y-29026D01*
X54393Y-29045D01*
X54412Y-29083D01*
X54412Y-29236D01*
X54012Y-29236D01*
X54012Y-29102D01*
X54031Y-29064D01*
X54050Y-29045D01*
X54088Y-29026D01*
X54126Y-29026D01*
X54164Y-29045D01*
X54183Y-29064D01*
X54202Y-29102D01*
X54202Y-29236D01*
X54260Y-28836D02*
X54260Y-28531D01*
X54412Y-28341D02*
X54012Y-28341D01*
X54202Y-28341D02*
X54202Y-28112D01*
X54412Y-28112D02*
X54012Y-28112D01*
G54D19*
X57862Y-23452D02*
X57862Y-22952D01*
X58386Y-23405D02*
X58362Y-23429D01*
X58291Y-23452D01*
X58243Y-23452D01*
X58171Y-23429D01*
X58124Y-23381D01*
X58100Y-23333D01*
X58076Y-23238D01*
X58076Y-23167D01*
X58100Y-23071D01*
X58124Y-23024D01*
X58171Y-22976D01*
X58243Y-22952D01*
X58291Y-22952D01*
X58362Y-22976D01*
X58386Y-23000D01*
X58862Y-23452D02*
X58576Y-23452D01*
X58719Y-23452D02*
X58719Y-22952D01*
X58671Y-23024D01*
X58624Y-23071D01*
X58576Y-23095D01*
X57279Y-24190D02*
X57112Y-24190D01*
X57112Y-24452D02*
X57112Y-23952D01*
X57350Y-23952D01*
X57470Y-23952D02*
X57755Y-23952D01*
X57612Y-24452D02*
X57612Y-23952D01*
X57898Y-24000D02*
X57922Y-23976D01*
X57970Y-23952D01*
X58089Y-23952D01*
X58136Y-23976D01*
X58160Y-24000D01*
X58184Y-24048D01*
X58184Y-24095D01*
X58160Y-24167D01*
X57874Y-24452D01*
X58184Y-24452D01*
X58374Y-24000D02*
X58398Y-23976D01*
X58446Y-23952D01*
X58565Y-23952D01*
X58612Y-23976D01*
X58636Y-24000D01*
X58660Y-24048D01*
X58660Y-24095D01*
X58636Y-24167D01*
X58350Y-24452D01*
X58660Y-24452D01*
X58826Y-23952D02*
X59136Y-23952D01*
X58969Y-24143D01*
X59041Y-24143D01*
X59088Y-24167D01*
X59112Y-24190D01*
X59136Y-24238D01*
X59136Y-24357D01*
X59112Y-24405D01*
X59088Y-24429D01*
X59041Y-24452D01*
X58898Y-24452D01*
X58850Y-24429D01*
X58826Y-24405D01*
X59326Y-24000D02*
X59350Y-23976D01*
X59398Y-23952D01*
X59517Y-23952D01*
X59564Y-23976D01*
X59588Y-24000D01*
X59612Y-24048D01*
X59612Y-24095D01*
X59588Y-24167D01*
X59302Y-24452D01*
X59612Y-24452D01*
X60112Y-24405D02*
X60088Y-24429D01*
X60017Y-24452D01*
X59969Y-24452D01*
X59897Y-24429D01*
X59850Y-24381D01*
X59826Y-24333D01*
X59802Y-24238D01*
X59802Y-24167D01*
X59826Y-24071D01*
X59850Y-24024D01*
X59897Y-23976D01*
X59969Y-23952D01*
X60017Y-23952D01*
X60088Y-23976D01*
X60112Y-24000D01*
G54D13*
X58828Y-28621D02*
X58828Y-28321D01*
X58900Y-28321D01*
X58943Y-28336D01*
X58971Y-28364D01*
X58986Y-28393D01*
X59000Y-28450D01*
X59000Y-28493D01*
X58986Y-28550D01*
X58971Y-28579D01*
X58943Y-28607D01*
X58900Y-28621D01*
X58828Y-28621D01*
X59257Y-28421D02*
X59257Y-28621D01*
X59186Y-28307D02*
X59114Y-28521D01*
X59300Y-28521D01*
X58557Y-29464D02*
X58457Y-29464D01*
X58457Y-29621D02*
X58457Y-29321D01*
X58600Y-29321D01*
X58672Y-29321D02*
X58843Y-29321D01*
X58757Y-29621D02*
X58757Y-29321D01*
X58872Y-29650D02*
X59101Y-29650D01*
X59230Y-29321D02*
X59287Y-29321D01*
X59315Y-29336D01*
X59344Y-29364D01*
X59358Y-29421D01*
X59358Y-29521D01*
X59344Y-29579D01*
X59315Y-29607D01*
X59287Y-29621D01*
X59230Y-29621D01*
X59201Y-29607D01*
X59172Y-29579D01*
X59158Y-29521D01*
X59158Y-29421D01*
X59172Y-29364D01*
X59201Y-29336D01*
X59230Y-29321D01*
X59486Y-29621D02*
X59486Y-29321D01*
X59658Y-29621D02*
X59529Y-29450D01*
X59658Y-29321D02*
X59486Y-29493D01*
X62071Y-21522D02*
X61771Y-21522D01*
X61771Y-21450D01*
X61786Y-21407D01*
X61814Y-21379D01*
X61843Y-21364D01*
X61900Y-21350D01*
X61943Y-21350D01*
X62000Y-21364D01*
X62029Y-21379D01*
X62057Y-21407D01*
X62071Y-21450D01*
X62071Y-21522D01*
X61771Y-21250D02*
X61771Y-21064D01*
X61886Y-21164D01*
X61886Y-21122D01*
X61900Y-21093D01*
X61914Y-21079D01*
X61943Y-21064D01*
X62014Y-21064D01*
X62043Y-21079D01*
X62057Y-21093D01*
X62071Y-21122D01*
X62071Y-21207D01*
X62057Y-21236D01*
X62043Y-21250D01*
X60771Y-21528D02*
X60771Y-21357D01*
X61071Y-21443D02*
X60771Y-21443D01*
X60771Y-21285D02*
X61071Y-21085D01*
X60771Y-21085D02*
X61071Y-21285D01*
X61021Y-21522D02*
X60721Y-21522D01*
X60721Y-21450D01*
X60736Y-21407D01*
X60764Y-21379D01*
X60793Y-21364D01*
X60850Y-21350D01*
X60893Y-21350D01*
X60950Y-21364D01*
X60979Y-21379D01*
X61007Y-21407D01*
X61021Y-21450D01*
X61021Y-21522D01*
X60750Y-21236D02*
X60736Y-21222D01*
X60721Y-21193D01*
X60721Y-21122D01*
X60736Y-21093D01*
X60750Y-21079D01*
X60779Y-21064D01*
X60807Y-21064D01*
X60850Y-21079D01*
X61021Y-21250D01*
X61021Y-21064D01*
X60021Y-21350D02*
X59879Y-21450D01*
X60021Y-21522D02*
X59721Y-21522D01*
X59721Y-21407D01*
X59736Y-21379D01*
X59750Y-21364D01*
X59779Y-21350D01*
X59821Y-21350D01*
X59850Y-21364D01*
X59864Y-21379D01*
X59879Y-21407D01*
X59879Y-21522D01*
X59721Y-21250D02*
X60021Y-21050D01*
X59721Y-21050D02*
X60021Y-21250D01*
X53078Y-23221D02*
X53078Y-22921D01*
X53150Y-22921D01*
X53193Y-22936D01*
X53221Y-22964D01*
X53236Y-22993D01*
X53250Y-23050D01*
X53250Y-23093D01*
X53236Y-23150D01*
X53221Y-23179D01*
X53193Y-23207D01*
X53150Y-23221D01*
X53078Y-23221D01*
X53536Y-23221D02*
X53364Y-23221D01*
X53450Y-23221D02*
X53450Y-22921D01*
X53421Y-22964D01*
X53393Y-22993D01*
X53364Y-23007D01*
X52914Y-24107D02*
X53143Y-24107D01*
X53029Y-24221D02*
X53029Y-23993D01*
X53428Y-23921D02*
X53285Y-23921D01*
X53271Y-24064D01*
X53285Y-24050D01*
X53314Y-24036D01*
X53385Y-24036D01*
X53414Y-24050D01*
X53428Y-24064D01*
X53443Y-24093D01*
X53443Y-24164D01*
X53428Y-24193D01*
X53414Y-24207D01*
X53385Y-24221D01*
X53314Y-24221D01*
X53285Y-24207D01*
X53271Y-24193D01*
X53529Y-23921D02*
X53629Y-24221D01*
X53729Y-23921D01*
G54D19*
X63433Y-30849D02*
X63933Y-30849D01*
X64033Y-30883D01*
X64100Y-30949D01*
X64133Y-31049D01*
X64133Y-31116D01*
X63433Y-30616D02*
X63433Y-30216D01*
X64133Y-30416D02*
X63433Y-30416D01*
X63933Y-30017D02*
X63933Y-29683D01*
X64133Y-30083D02*
X63433Y-29850D01*
X64133Y-29617D01*
X63467Y-29017D02*
X63433Y-29083D01*
X63433Y-29183D01*
X63467Y-29283D01*
X63533Y-29350D01*
X63600Y-29383D01*
X63733Y-29417D01*
X63833Y-29417D01*
X63967Y-29383D01*
X64033Y-29350D01*
X64100Y-29283D01*
X64133Y-29183D01*
X64133Y-29117D01*
X64100Y-29017D01*
X64067Y-28983D01*
X63833Y-28983D01*
X63833Y-29117D01*
X64133Y-28317D02*
X64133Y-28717D01*
X64133Y-28517D02*
X63433Y-28517D01*
X63533Y-28583D01*
X63600Y-28650D01*
X63633Y-28717D01*
X64443Y-23371D02*
X64871Y-23371D01*
X64957Y-23399D01*
X65014Y-23456D01*
X65043Y-23542D01*
X65043Y-23599D01*
X64443Y-23171D02*
X64443Y-22828D01*
X65043Y-22999D02*
X64443Y-22999D01*
X64871Y-22657D02*
X64871Y-22371D01*
X65043Y-22714D02*
X64443Y-22514D01*
X65043Y-22314D01*
X64471Y-21800D02*
X64443Y-21857D01*
X64443Y-21943D01*
X64471Y-22028D01*
X64529Y-22086D01*
X64586Y-22114D01*
X64700Y-22143D01*
X64786Y-22143D01*
X64900Y-22114D01*
X64957Y-22086D01*
X65014Y-22028D01*
X65043Y-21943D01*
X65043Y-21886D01*
X65014Y-21800D01*
X64986Y-21771D01*
X64786Y-21771D01*
X64786Y-21886D01*
X64814Y-21514D02*
X64814Y-21057D01*
X64871Y-20800D02*
X64871Y-20514D01*
X65043Y-20857D02*
X64443Y-20657D01*
X65043Y-20457D01*
X65043Y-19914D02*
X64757Y-20114D01*
X65043Y-20257D02*
X64443Y-20257D01*
X64443Y-20029D01*
X64471Y-19971D01*
X64500Y-19943D01*
X64557Y-19914D01*
X64643Y-19914D01*
X64700Y-19943D01*
X64729Y-19971D01*
X64757Y-20029D01*
X64757Y-20257D01*
X65043Y-19657D02*
X64443Y-19657D01*
X64871Y-19457D01*
X64443Y-19257D01*
X65043Y-19257D01*
X64552Y-25633D02*
X64910Y-25633D01*
X64981Y-25657D01*
X65029Y-25705D01*
X65052Y-25776D01*
X65052Y-25824D01*
X64552Y-25466D02*
X64552Y-25181D01*
X65052Y-25324D02*
X64552Y-25324D01*
X64910Y-25038D02*
X64910Y-24800D01*
X65052Y-25085D02*
X64552Y-24919D01*
X65052Y-24752D01*
X64576Y-24323D02*
X64552Y-24371D01*
X64552Y-24442D01*
X64576Y-24514D01*
X64624Y-24561D01*
X64671Y-24585D01*
X64767Y-24609D01*
X64838Y-24609D01*
X64933Y-24585D01*
X64981Y-24561D01*
X65029Y-24514D01*
X65052Y-24442D01*
X65052Y-24394D01*
X65029Y-24323D01*
X65005Y-24299D01*
X64838Y-24299D01*
X64838Y-24394D01*
X63569Y-23110D02*
X63712Y-22729D01*
X63855Y-23110D01*
X63402Y-22562D02*
X63902Y-22396D01*
X63402Y-22229D01*
X63760Y-22086D02*
X63760Y-21848D01*
X63902Y-22133D02*
X63402Y-21967D01*
X63902Y-21800D01*
X63902Y-21395D02*
X63902Y-21633D01*
X63402Y-21633D01*
X63402Y-21228D02*
X63807Y-21228D01*
X63855Y-21204D01*
X63879Y-21180D01*
X63902Y-21133D01*
X63902Y-21037D01*
X63879Y-20990D01*
X63855Y-20966D01*
X63807Y-20942D01*
X63402Y-20942D01*
X63640Y-20704D02*
X63640Y-20537D01*
X63902Y-20466D02*
X63902Y-20704D01*
X63402Y-20704D01*
X63402Y-20466D01*
G54D20*
X59655Y-19512D02*
X59655Y-19112D01*
X59808Y-19112D01*
X59846Y-19131D01*
X59865Y-19150D01*
X59884Y-19188D01*
X59884Y-19245D01*
X59865Y-19283D01*
X59846Y-19302D01*
X59808Y-19321D01*
X59655Y-19321D01*
X60265Y-19512D02*
X60036Y-19512D01*
X60150Y-19512D02*
X60150Y-19112D01*
X60112Y-19169D01*
X60074Y-19207D01*
X60036Y-19226D01*
G54D21*
X62535Y-24413D02*
X62475Y-24280D01*
X62432Y-24413D02*
X62432Y-24133D01*
X62500Y-24133D01*
X62518Y-24147D01*
X62526Y-24160D01*
X62535Y-24187D01*
X62535Y-24227D01*
X62526Y-24253D01*
X62518Y-24267D01*
X62500Y-24280D01*
X62432Y-24280D01*
X62706Y-24413D02*
X62603Y-24413D01*
X62655Y-24413D02*
X62655Y-24133D01*
X62638Y-24173D01*
X62620Y-24200D01*
X62603Y-24213D01*
X62791Y-24413D02*
X62826Y-24413D01*
X62843Y-24400D01*
X62851Y-24387D01*
X62869Y-24347D01*
X62877Y-24293D01*
X62877Y-24187D01*
X62869Y-24160D01*
X62860Y-24147D01*
X62843Y-24133D01*
X62809Y-24133D01*
X62791Y-24147D01*
X62783Y-24160D01*
X62774Y-24187D01*
X62774Y-24253D01*
X62783Y-24280D01*
X62791Y-24293D01*
X62809Y-24307D01*
X62843Y-24307D01*
X62860Y-24293D01*
X62869Y-24280D01*
X62877Y-24253D01*
X62535Y-23463D02*
X62475Y-23330D01*
X62432Y-23463D02*
X62432Y-23183D01*
X62500Y-23183D01*
X62518Y-23197D01*
X62526Y-23210D01*
X62535Y-23237D01*
X62535Y-23277D01*
X62526Y-23303D01*
X62518Y-23317D01*
X62500Y-23330D01*
X62432Y-23330D01*
X62706Y-23463D02*
X62603Y-23463D01*
X62655Y-23463D02*
X62655Y-23183D01*
X62638Y-23223D01*
X62620Y-23250D01*
X62603Y-23263D01*
X62809Y-23303D02*
X62791Y-23290D01*
X62783Y-23277D01*
X62774Y-23250D01*
X62774Y-23237D01*
X62783Y-23210D01*
X62791Y-23197D01*
X62809Y-23183D01*
X62843Y-23183D01*
X62860Y-23197D01*
X62869Y-23210D01*
X62877Y-23237D01*
X62877Y-23250D01*
X62869Y-23277D01*
X62860Y-23290D01*
X62843Y-23303D01*
X62809Y-23303D01*
X62791Y-23317D01*
X62783Y-23330D01*
X62774Y-23357D01*
X62774Y-23410D01*
X62783Y-23437D01*
X62791Y-23450D01*
X62809Y-23463D01*
X62843Y-23463D01*
X62860Y-23450D01*
X62869Y-23437D01*
X62877Y-23410D01*
X62877Y-23357D01*
X62869Y-23330D01*
X62860Y-23317D01*
X62843Y-23303D01*
X62535Y-22363D02*
X62475Y-22230D01*
X62432Y-22363D02*
X62432Y-22083D01*
X62500Y-22083D01*
X62518Y-22097D01*
X62526Y-22110D01*
X62535Y-22137D01*
X62535Y-22177D01*
X62526Y-22203D01*
X62518Y-22217D01*
X62500Y-22230D01*
X62432Y-22230D01*
X62706Y-22363D02*
X62603Y-22363D01*
X62655Y-22363D02*
X62655Y-22083D01*
X62638Y-22123D01*
X62620Y-22150D01*
X62603Y-22163D01*
X62766Y-22083D02*
X62886Y-22083D01*
X62809Y-22363D01*
X61863Y-25265D02*
X61730Y-25325D01*
X61863Y-25368D02*
X61583Y-25368D01*
X61583Y-25300D01*
X61597Y-25282D01*
X61610Y-25274D01*
X61637Y-25265D01*
X61677Y-25265D01*
X61703Y-25274D01*
X61717Y-25282D01*
X61730Y-25300D01*
X61730Y-25368D01*
X61863Y-25094D02*
X61863Y-25197D01*
X61863Y-25145D02*
X61583Y-25145D01*
X61623Y-25162D01*
X61650Y-25180D01*
X61663Y-25197D01*
X61583Y-24940D02*
X61583Y-24974D01*
X61597Y-24991D01*
X61610Y-25000D01*
X61650Y-25017D01*
X61703Y-25026D01*
X61810Y-25026D01*
X61837Y-25017D01*
X61850Y-25009D01*
X61863Y-24991D01*
X61863Y-24957D01*
X61850Y-24940D01*
X61837Y-24931D01*
X61810Y-24923D01*
X61743Y-24923D01*
X61717Y-24931D01*
X61703Y-24940D01*
X61690Y-24957D01*
X61690Y-24991D01*
X61703Y-25009D01*
X61717Y-25017D01*
X61743Y-25026D01*
X58913Y-26815D02*
X58780Y-26875D01*
X58913Y-26918D02*
X58633Y-26918D01*
X58633Y-26850D01*
X58647Y-26832D01*
X58660Y-26824D01*
X58687Y-26815D01*
X58727Y-26815D01*
X58753Y-26824D01*
X58767Y-26832D01*
X58780Y-26850D01*
X58780Y-26918D01*
X58913Y-26644D02*
X58913Y-26747D01*
X58913Y-26695D02*
X58633Y-26695D01*
X58673Y-26712D01*
X58700Y-26730D01*
X58713Y-26747D01*
X58633Y-26481D02*
X58633Y-26567D01*
X58767Y-26576D01*
X58753Y-26567D01*
X58740Y-26550D01*
X58740Y-26507D01*
X58753Y-26490D01*
X58767Y-26481D01*
X58793Y-26473D01*
X58860Y-26473D01*
X58887Y-26481D01*
X58900Y-26490D01*
X58913Y-26507D01*
X58913Y-26550D01*
X58900Y-26567D01*
X58887Y-26576D01*
X62463Y-25265D02*
X62330Y-25325D01*
X62463Y-25368D02*
X62183Y-25368D01*
X62183Y-25300D01*
X62197Y-25282D01*
X62210Y-25274D01*
X62237Y-25265D01*
X62277Y-25265D01*
X62303Y-25274D01*
X62317Y-25282D01*
X62330Y-25300D01*
X62330Y-25368D01*
X62463Y-25094D02*
X62463Y-25197D01*
X62463Y-25145D02*
X62183Y-25145D01*
X62223Y-25162D01*
X62250Y-25180D01*
X62263Y-25197D01*
X62277Y-24940D02*
X62463Y-24940D01*
X62170Y-24983D02*
X62370Y-25026D01*
X62370Y-24914D01*
X61763Y-23865D02*
X61630Y-23925D01*
X61763Y-23968D02*
X61483Y-23968D01*
X61483Y-23900D01*
X61497Y-23882D01*
X61510Y-23874D01*
X61537Y-23865D01*
X61577Y-23865D01*
X61603Y-23874D01*
X61617Y-23882D01*
X61630Y-23900D01*
X61630Y-23968D01*
X61763Y-23694D02*
X61763Y-23797D01*
X61763Y-23745D02*
X61483Y-23745D01*
X61523Y-23762D01*
X61550Y-23780D01*
X61563Y-23797D01*
X61483Y-23634D02*
X61483Y-23523D01*
X61590Y-23583D01*
X61590Y-23557D01*
X61603Y-23540D01*
X61617Y-23531D01*
X61643Y-23523D01*
X61710Y-23523D01*
X61737Y-23531D01*
X61750Y-23540D01*
X61763Y-23557D01*
X61763Y-23609D01*
X61750Y-23626D01*
X61737Y-23634D01*
X60863Y-24865D02*
X60730Y-24925D01*
X60863Y-24968D02*
X60583Y-24968D01*
X60583Y-24900D01*
X60597Y-24882D01*
X60610Y-24874D01*
X60637Y-24865D01*
X60677Y-24865D01*
X60703Y-24874D01*
X60717Y-24882D01*
X60730Y-24900D01*
X60730Y-24968D01*
X60863Y-24694D02*
X60863Y-24797D01*
X60863Y-24745D02*
X60583Y-24745D01*
X60623Y-24762D01*
X60650Y-24780D01*
X60663Y-24797D01*
X60610Y-24626D02*
X60597Y-24617D01*
X60583Y-24600D01*
X60583Y-24557D01*
X60597Y-24540D01*
X60610Y-24531D01*
X60637Y-24523D01*
X60663Y-24523D01*
X60703Y-24531D01*
X60863Y-24634D01*
X60863Y-24523D01*
X60963Y-23865D02*
X60830Y-23925D01*
X60963Y-23968D02*
X60683Y-23968D01*
X60683Y-23900D01*
X60697Y-23882D01*
X60710Y-23874D01*
X60737Y-23865D01*
X60777Y-23865D01*
X60803Y-23874D01*
X60817Y-23882D01*
X60830Y-23900D01*
X60830Y-23968D01*
X60963Y-23694D02*
X60963Y-23797D01*
X60963Y-23745D02*
X60683Y-23745D01*
X60723Y-23762D01*
X60750Y-23780D01*
X60763Y-23797D01*
X60963Y-23523D02*
X60963Y-23626D01*
X60963Y-23574D02*
X60683Y-23574D01*
X60723Y-23591D01*
X60750Y-23609D01*
X60763Y-23626D01*
X54385Y-23913D02*
X54325Y-23780D01*
X54282Y-23913D02*
X54282Y-23633D01*
X54350Y-23633D01*
X54368Y-23647D01*
X54376Y-23660D01*
X54385Y-23687D01*
X54385Y-23727D01*
X54376Y-23753D01*
X54368Y-23767D01*
X54350Y-23780D01*
X54282Y-23780D01*
X54556Y-23913D02*
X54453Y-23913D01*
X54505Y-23913D02*
X54505Y-23633D01*
X54488Y-23673D01*
X54470Y-23700D01*
X54453Y-23713D01*
X54667Y-23633D02*
X54684Y-23633D01*
X54701Y-23647D01*
X54710Y-23660D01*
X54719Y-23687D01*
X54727Y-23740D01*
X54727Y-23807D01*
X54719Y-23860D01*
X54710Y-23887D01*
X54701Y-23900D01*
X54684Y-23913D01*
X54667Y-23913D01*
X54650Y-23900D01*
X54641Y-23887D01*
X54633Y-23860D01*
X54624Y-23807D01*
X54624Y-23740D01*
X54633Y-23687D01*
X54641Y-23660D01*
X54650Y-23647D01*
X54667Y-23633D01*
X57213Y-27779D02*
X57080Y-27839D01*
X57213Y-27882D02*
X56933Y-27882D01*
X56933Y-27814D01*
X56947Y-27796D01*
X56960Y-27788D01*
X56987Y-27779D01*
X57027Y-27779D01*
X57053Y-27788D01*
X57067Y-27796D01*
X57080Y-27814D01*
X57080Y-27882D01*
X57213Y-27694D02*
X57213Y-27659D01*
X57200Y-27642D01*
X57187Y-27634D01*
X57147Y-27616D01*
X57093Y-27608D01*
X56987Y-27608D01*
X56960Y-27616D01*
X56947Y-27625D01*
X56933Y-27642D01*
X56933Y-27676D01*
X56947Y-27694D01*
X56960Y-27702D01*
X56987Y-27711D01*
X57053Y-27711D01*
X57080Y-27702D01*
X57093Y-27694D01*
X57107Y-27676D01*
X57107Y-27642D01*
X57093Y-27625D01*
X57080Y-27616D01*
X57053Y-27608D01*
X58171Y-28013D02*
X58111Y-27880D01*
X58068Y-28013D02*
X58068Y-27733D01*
X58136Y-27733D01*
X58154Y-27747D01*
X58162Y-27760D01*
X58171Y-27787D01*
X58171Y-27827D01*
X58162Y-27853D01*
X58154Y-27867D01*
X58136Y-27880D01*
X58068Y-27880D01*
X58274Y-27853D02*
X58256Y-27840D01*
X58248Y-27827D01*
X58239Y-27800D01*
X58239Y-27787D01*
X58248Y-27760D01*
X58256Y-27747D01*
X58274Y-27733D01*
X58308Y-27733D01*
X58325Y-27747D01*
X58334Y-27760D01*
X58342Y-27787D01*
X58342Y-27800D01*
X58334Y-27827D01*
X58325Y-27840D01*
X58308Y-27853D01*
X58274Y-27853D01*
X58256Y-27867D01*
X58248Y-27880D01*
X58239Y-27907D01*
X58239Y-27960D01*
X58248Y-27987D01*
X58256Y-28000D01*
X58274Y-28013D01*
X58308Y-28013D01*
X58325Y-28000D01*
X58334Y-27987D01*
X58342Y-27960D01*
X58342Y-27907D01*
X58334Y-27880D01*
X58325Y-27867D01*
X58308Y-27853D01*
X56771Y-29163D02*
X56711Y-29030D01*
X56668Y-29163D02*
X56668Y-28883D01*
X56736Y-28883D01*
X56754Y-28897D01*
X56762Y-28910D01*
X56771Y-28937D01*
X56771Y-28977D01*
X56762Y-29003D01*
X56754Y-29017D01*
X56736Y-29030D01*
X56668Y-29030D01*
X56831Y-28883D02*
X56951Y-28883D01*
X56874Y-29163D01*
X60513Y-19979D02*
X60380Y-20039D01*
X60513Y-20082D02*
X60233Y-20082D01*
X60233Y-20014D01*
X60247Y-19996D01*
X60260Y-19988D01*
X60287Y-19979D01*
X60327Y-19979D01*
X60353Y-19988D01*
X60367Y-19996D01*
X60380Y-20014D01*
X60380Y-20082D01*
X60233Y-19825D02*
X60233Y-19859D01*
X60247Y-19876D01*
X60260Y-19885D01*
X60300Y-19902D01*
X60353Y-19911D01*
X60460Y-19911D01*
X60487Y-19902D01*
X60500Y-19894D01*
X60513Y-19876D01*
X60513Y-19842D01*
X60500Y-19825D01*
X60487Y-19816D01*
X60460Y-19808D01*
X60393Y-19808D01*
X60367Y-19816D01*
X60353Y-19825D01*
X60340Y-19842D01*
X60340Y-19876D01*
X60353Y-19894D01*
X60367Y-19902D01*
X60393Y-19911D01*
X61563Y-19979D02*
X61430Y-20039D01*
X61563Y-20082D02*
X61283Y-20082D01*
X61283Y-20014D01*
X61297Y-19996D01*
X61310Y-19988D01*
X61337Y-19979D01*
X61377Y-19979D01*
X61403Y-19988D01*
X61417Y-19996D01*
X61430Y-20014D01*
X61430Y-20082D01*
X61283Y-19816D02*
X61283Y-19902D01*
X61417Y-19911D01*
X61403Y-19902D01*
X61390Y-19885D01*
X61390Y-19842D01*
X61403Y-19825D01*
X61417Y-19816D01*
X61443Y-19808D01*
X61510Y-19808D01*
X61537Y-19816D01*
X61550Y-19825D01*
X61563Y-19842D01*
X61563Y-19885D01*
X61550Y-19902D01*
X61537Y-19911D01*
X58013Y-29229D02*
X57880Y-29289D01*
X58013Y-29332D02*
X57733Y-29332D01*
X57733Y-29264D01*
X57747Y-29246D01*
X57760Y-29238D01*
X57787Y-29229D01*
X57827Y-29229D01*
X57853Y-29238D01*
X57867Y-29246D01*
X57880Y-29264D01*
X57880Y-29332D01*
X57827Y-29075D02*
X58013Y-29075D01*
X57720Y-29118D02*
X57920Y-29161D01*
X57920Y-29049D01*
X52871Y-24313D02*
X52811Y-24180D01*
X52768Y-24313D02*
X52768Y-24033D01*
X52836Y-24033D01*
X52854Y-24047D01*
X52862Y-24060D01*
X52871Y-24087D01*
X52871Y-24127D01*
X52862Y-24153D01*
X52854Y-24167D01*
X52836Y-24180D01*
X52768Y-24180D01*
X52931Y-24033D02*
X53042Y-24033D01*
X52982Y-24140D01*
X53008Y-24140D01*
X53025Y-24153D01*
X53034Y-24167D01*
X53042Y-24193D01*
X53042Y-24260D01*
X53034Y-24287D01*
X53025Y-24300D01*
X53008Y-24313D01*
X52956Y-24313D01*
X52939Y-24300D01*
X52931Y-24287D01*
X55963Y-26429D02*
X55830Y-26489D01*
X55963Y-26532D02*
X55683Y-26532D01*
X55683Y-26464D01*
X55697Y-26446D01*
X55710Y-26438D01*
X55737Y-26429D01*
X55777Y-26429D01*
X55803Y-26438D01*
X55817Y-26446D01*
X55830Y-26464D01*
X55830Y-26532D01*
X55710Y-26361D02*
X55697Y-26352D01*
X55683Y-26335D01*
X55683Y-26292D01*
X55697Y-26275D01*
X55710Y-26266D01*
X55737Y-26258D01*
X55763Y-26258D01*
X55803Y-26266D01*
X55963Y-26369D01*
X55963Y-26258D01*
X56971Y-26563D02*
X56911Y-26430D01*
X56868Y-26563D02*
X56868Y-26283D01*
X56936Y-26283D01*
X56954Y-26297D01*
X56962Y-26310D01*
X56971Y-26337D01*
X56971Y-26377D01*
X56962Y-26403D01*
X56954Y-26417D01*
X56936Y-26430D01*
X56868Y-26430D01*
X57142Y-26563D02*
X57039Y-26563D01*
X57091Y-26563D02*
X57091Y-26283D01*
X57074Y-26323D01*
X57056Y-26350D01*
X57039Y-26363D01*
X62185Y-29087D02*
X62176Y-29100D01*
X62150Y-29113D01*
X62133Y-29113D01*
X62108Y-29100D01*
X62090Y-29073D01*
X62082Y-29047D01*
X62073Y-28993D01*
X62073Y-28953D01*
X62082Y-28900D01*
X62090Y-28873D01*
X62108Y-28847D01*
X62133Y-28833D01*
X62150Y-28833D01*
X62176Y-28847D01*
X62185Y-28860D01*
X62253Y-28860D02*
X62262Y-28847D01*
X62279Y-28833D01*
X62322Y-28833D01*
X62339Y-28847D01*
X62348Y-28860D01*
X62356Y-28887D01*
X62356Y-28913D01*
X62348Y-28953D01*
X62245Y-29113D01*
X62356Y-29113D01*
X62527Y-29113D02*
X62424Y-29113D01*
X62476Y-29113D02*
X62476Y-28833D01*
X62459Y-28873D01*
X62441Y-28900D01*
X62424Y-28913D01*
X60735Y-29087D02*
X60726Y-29100D01*
X60700Y-29113D01*
X60683Y-29113D01*
X60658Y-29100D01*
X60640Y-29073D01*
X60632Y-29047D01*
X60623Y-28993D01*
X60623Y-28953D01*
X60632Y-28900D01*
X60640Y-28873D01*
X60658Y-28847D01*
X60683Y-28833D01*
X60700Y-28833D01*
X60726Y-28847D01*
X60735Y-28860D01*
X60803Y-28860D02*
X60812Y-28847D01*
X60829Y-28833D01*
X60872Y-28833D01*
X60889Y-28847D01*
X60898Y-28860D01*
X60906Y-28887D01*
X60906Y-28913D01*
X60898Y-28953D01*
X60795Y-29113D01*
X60906Y-29113D01*
X61017Y-28833D02*
X61034Y-28833D01*
X61051Y-28847D01*
X61060Y-28860D01*
X61069Y-28887D01*
X61077Y-28940D01*
X61077Y-29007D01*
X61069Y-29060D01*
X61060Y-29087D01*
X61051Y-29100D01*
X61034Y-29113D01*
X61017Y-29113D01*
X61000Y-29100D01*
X60991Y-29087D01*
X60983Y-29060D01*
X60974Y-29007D01*
X60974Y-28940D01*
X60983Y-28887D01*
X60991Y-28860D01*
X61000Y-28847D01*
X61017Y-28833D01*
X63685Y-21887D02*
X63676Y-21900D01*
X63650Y-21913D01*
X63633Y-21913D01*
X63608Y-21900D01*
X63590Y-21873D01*
X63582Y-21847D01*
X63573Y-21793D01*
X63573Y-21753D01*
X63582Y-21700D01*
X63590Y-21673D01*
X63608Y-21647D01*
X63633Y-21633D01*
X63650Y-21633D01*
X63676Y-21647D01*
X63685Y-21660D01*
X63856Y-21913D02*
X63753Y-21913D01*
X63805Y-21913D02*
X63805Y-21633D01*
X63788Y-21673D01*
X63770Y-21700D01*
X63753Y-21713D01*
X63941Y-21913D02*
X63976Y-21913D01*
X63993Y-21900D01*
X64001Y-21887D01*
X64019Y-21847D01*
X64027Y-21793D01*
X64027Y-21687D01*
X64019Y-21660D01*
X64010Y-21647D01*
X63993Y-21633D01*
X63959Y-21633D01*
X63941Y-21647D01*
X63933Y-21660D01*
X63924Y-21687D01*
X63924Y-21753D01*
X63933Y-21780D01*
X63941Y-21793D01*
X63959Y-21807D01*
X63993Y-21807D01*
X64010Y-21793D01*
X64019Y-21780D01*
X64027Y-21753D01*
X63685Y-22887D02*
X63676Y-22900D01*
X63650Y-22913D01*
X63633Y-22913D01*
X63608Y-22900D01*
X63590Y-22873D01*
X63582Y-22847D01*
X63573Y-22793D01*
X63573Y-22753D01*
X63582Y-22700D01*
X63590Y-22673D01*
X63608Y-22647D01*
X63633Y-22633D01*
X63650Y-22633D01*
X63676Y-22647D01*
X63685Y-22660D01*
X63856Y-22913D02*
X63753Y-22913D01*
X63805Y-22913D02*
X63805Y-22633D01*
X63788Y-22673D01*
X63770Y-22700D01*
X63753Y-22713D01*
X63959Y-22753D02*
X63941Y-22740D01*
X63933Y-22727D01*
X63924Y-22700D01*
X63924Y-22687D01*
X63933Y-22660D01*
X63941Y-22647D01*
X63959Y-22633D01*
X63993Y-22633D01*
X64010Y-22647D01*
X64019Y-22660D01*
X64027Y-22687D01*
X64027Y-22700D01*
X64019Y-22727D01*
X64010Y-22740D01*
X63993Y-22753D01*
X63959Y-22753D01*
X63941Y-22767D01*
X63933Y-22780D01*
X63924Y-22807D01*
X63924Y-22860D01*
X63933Y-22887D01*
X63941Y-22900D01*
X63959Y-22913D01*
X63993Y-22913D01*
X64010Y-22900D01*
X64019Y-22887D01*
X64027Y-22860D01*
X64027Y-22807D01*
X64019Y-22780D01*
X64010Y-22767D01*
X63993Y-22753D01*
X63685Y-23887D02*
X63676Y-23900D01*
X63650Y-23913D01*
X63633Y-23913D01*
X63608Y-23900D01*
X63590Y-23873D01*
X63582Y-23847D01*
X63573Y-23793D01*
X63573Y-23753D01*
X63582Y-23700D01*
X63590Y-23673D01*
X63608Y-23647D01*
X63633Y-23633D01*
X63650Y-23633D01*
X63676Y-23647D01*
X63685Y-23660D01*
X63856Y-23913D02*
X63753Y-23913D01*
X63805Y-23913D02*
X63805Y-23633D01*
X63788Y-23673D01*
X63770Y-23700D01*
X63753Y-23713D01*
X63916Y-23633D02*
X64036Y-23633D01*
X63959Y-23913D01*
X63685Y-24887D02*
X63676Y-24900D01*
X63650Y-24913D01*
X63633Y-24913D01*
X63608Y-24900D01*
X63590Y-24873D01*
X63582Y-24847D01*
X63573Y-24793D01*
X63573Y-24753D01*
X63582Y-24700D01*
X63590Y-24673D01*
X63608Y-24647D01*
X63633Y-24633D01*
X63650Y-24633D01*
X63676Y-24647D01*
X63685Y-24660D01*
X63856Y-24913D02*
X63753Y-24913D01*
X63805Y-24913D02*
X63805Y-24633D01*
X63788Y-24673D01*
X63770Y-24700D01*
X63753Y-24713D01*
X64010Y-24633D02*
X63976Y-24633D01*
X63959Y-24647D01*
X63950Y-24660D01*
X63933Y-24700D01*
X63924Y-24753D01*
X63924Y-24860D01*
X63933Y-24887D01*
X63941Y-24900D01*
X63959Y-24913D01*
X63993Y-24913D01*
X64010Y-24900D01*
X64019Y-24887D01*
X64027Y-24860D01*
X64027Y-24793D01*
X64019Y-24767D01*
X64010Y-24753D01*
X63993Y-24740D01*
X63959Y-24740D01*
X63941Y-24753D01*
X63933Y-24767D01*
X63924Y-24793D01*
X63685Y-26937D02*
X63676Y-26950D01*
X63650Y-26963D01*
X63633Y-26963D01*
X63608Y-26950D01*
X63590Y-26923D01*
X63582Y-26897D01*
X63573Y-26843D01*
X63573Y-26803D01*
X63582Y-26750D01*
X63590Y-26723D01*
X63608Y-26697D01*
X63633Y-26683D01*
X63650Y-26683D01*
X63676Y-26697D01*
X63685Y-26710D01*
X63856Y-26963D02*
X63753Y-26963D01*
X63805Y-26963D02*
X63805Y-26683D01*
X63788Y-26723D01*
X63770Y-26750D01*
X63753Y-26763D01*
X64019Y-26683D02*
X63933Y-26683D01*
X63924Y-26817D01*
X63933Y-26803D01*
X63950Y-26790D01*
X63993Y-26790D01*
X64010Y-26803D01*
X64019Y-26817D01*
X64027Y-26843D01*
X64027Y-26910D01*
X64019Y-26937D01*
X64010Y-26950D01*
X63993Y-26963D01*
X63950Y-26963D01*
X63933Y-26950D01*
X63924Y-26937D01*
X63685Y-27887D02*
X63676Y-27900D01*
X63650Y-27913D01*
X63633Y-27913D01*
X63608Y-27900D01*
X63590Y-27873D01*
X63582Y-27847D01*
X63573Y-27793D01*
X63573Y-27753D01*
X63582Y-27700D01*
X63590Y-27673D01*
X63608Y-27647D01*
X63633Y-27633D01*
X63650Y-27633D01*
X63676Y-27647D01*
X63685Y-27660D01*
X63856Y-27913D02*
X63753Y-27913D01*
X63805Y-27913D02*
X63805Y-27633D01*
X63788Y-27673D01*
X63770Y-27700D01*
X63753Y-27713D01*
X64010Y-27727D02*
X64010Y-27913D01*
X63967Y-27620D02*
X63924Y-27820D01*
X64036Y-27820D01*
X59537Y-26815D02*
X59550Y-26824D01*
X59563Y-26850D01*
X59563Y-26867D01*
X59550Y-26892D01*
X59523Y-26910D01*
X59497Y-26918D01*
X59443Y-26927D01*
X59403Y-26927D01*
X59350Y-26918D01*
X59323Y-26910D01*
X59297Y-26892D01*
X59283Y-26867D01*
X59283Y-26850D01*
X59297Y-26824D01*
X59310Y-26815D01*
X59563Y-26644D02*
X59563Y-26747D01*
X59563Y-26695D02*
X59283Y-26695D01*
X59323Y-26712D01*
X59350Y-26730D01*
X59363Y-26747D01*
X59283Y-26584D02*
X59283Y-26473D01*
X59390Y-26533D01*
X59390Y-26507D01*
X59403Y-26490D01*
X59417Y-26481D01*
X59443Y-26473D01*
X59510Y-26473D01*
X59537Y-26481D01*
X59550Y-26490D01*
X59563Y-26507D01*
X59563Y-26559D01*
X59550Y-26576D01*
X59537Y-26584D01*
X58335Y-21737D02*
X58326Y-21750D01*
X58300Y-21763D01*
X58283Y-21763D01*
X58258Y-21750D01*
X58240Y-21723D01*
X58232Y-21697D01*
X58223Y-21643D01*
X58223Y-21603D01*
X58232Y-21550D01*
X58240Y-21523D01*
X58258Y-21497D01*
X58283Y-21483D01*
X58300Y-21483D01*
X58326Y-21497D01*
X58335Y-21510D01*
X58506Y-21763D02*
X58403Y-21763D01*
X58455Y-21763D02*
X58455Y-21483D01*
X58438Y-21523D01*
X58420Y-21550D01*
X58403Y-21563D01*
X58574Y-21510D02*
X58583Y-21497D01*
X58600Y-21483D01*
X58643Y-21483D01*
X58660Y-21497D01*
X58669Y-21510D01*
X58677Y-21537D01*
X58677Y-21563D01*
X58669Y-21603D01*
X58566Y-21763D01*
X58677Y-21763D01*
X55537Y-24815D02*
X55550Y-24824D01*
X55563Y-24850D01*
X55563Y-24867D01*
X55550Y-24892D01*
X55523Y-24910D01*
X55497Y-24918D01*
X55443Y-24927D01*
X55403Y-24927D01*
X55350Y-24918D01*
X55323Y-24910D01*
X55297Y-24892D01*
X55283Y-24867D01*
X55283Y-24850D01*
X55297Y-24824D01*
X55310Y-24815D01*
X55563Y-24644D02*
X55563Y-24747D01*
X55563Y-24695D02*
X55283Y-24695D01*
X55323Y-24712D01*
X55350Y-24730D01*
X55363Y-24747D01*
X55563Y-24473D02*
X55563Y-24576D01*
X55563Y-24524D02*
X55283Y-24524D01*
X55323Y-24541D01*
X55350Y-24559D01*
X55363Y-24576D01*
X53937Y-24815D02*
X53950Y-24824D01*
X53963Y-24850D01*
X53963Y-24867D01*
X53950Y-24892D01*
X53923Y-24910D01*
X53897Y-24918D01*
X53843Y-24927D01*
X53803Y-24927D01*
X53750Y-24918D01*
X53723Y-24910D01*
X53697Y-24892D01*
X53683Y-24867D01*
X53683Y-24850D01*
X53697Y-24824D01*
X53710Y-24815D01*
X53963Y-24644D02*
X53963Y-24747D01*
X53963Y-24695D02*
X53683Y-24695D01*
X53723Y-24712D01*
X53750Y-24730D01*
X53763Y-24747D01*
X53683Y-24533D02*
X53683Y-24516D01*
X53697Y-24499D01*
X53710Y-24490D01*
X53737Y-24481D01*
X53790Y-24473D01*
X53857Y-24473D01*
X53910Y-24481D01*
X53937Y-24490D01*
X53950Y-24499D01*
X53963Y-24516D01*
X53963Y-24533D01*
X53950Y-24550D01*
X53937Y-24559D01*
X53910Y-24567D01*
X53857Y-24576D01*
X53790Y-24576D01*
X53737Y-24567D01*
X53710Y-24559D01*
X53697Y-24550D01*
X53683Y-24533D01*
X58087Y-26729D02*
X58100Y-26738D01*
X58113Y-26764D01*
X58113Y-26781D01*
X58100Y-26806D01*
X58073Y-26824D01*
X58047Y-26832D01*
X57993Y-26841D01*
X57953Y-26841D01*
X57900Y-26832D01*
X57873Y-26824D01*
X57847Y-26806D01*
X57833Y-26781D01*
X57833Y-26764D01*
X57847Y-26738D01*
X57860Y-26729D01*
X58113Y-26644D02*
X58113Y-26609D01*
X58100Y-26592D01*
X58087Y-26584D01*
X58047Y-26566D01*
X57993Y-26558D01*
X57887Y-26558D01*
X57860Y-26566D01*
X57847Y-26575D01*
X57833Y-26592D01*
X57833Y-26626D01*
X57847Y-26644D01*
X57860Y-26652D01*
X57887Y-26661D01*
X57953Y-26661D01*
X57980Y-26652D01*
X57993Y-26644D01*
X58007Y-26626D01*
X58007Y-26592D01*
X57993Y-26575D01*
X57980Y-26566D01*
X57953Y-26558D01*
X54737Y-24729D02*
X54750Y-24738D01*
X54763Y-24764D01*
X54763Y-24781D01*
X54750Y-24806D01*
X54723Y-24824D01*
X54697Y-24832D01*
X54643Y-24841D01*
X54603Y-24841D01*
X54550Y-24832D01*
X54523Y-24824D01*
X54497Y-24806D01*
X54483Y-24781D01*
X54483Y-24764D01*
X54497Y-24738D01*
X54510Y-24729D01*
X54603Y-24626D02*
X54590Y-24644D01*
X54577Y-24652D01*
X54550Y-24661D01*
X54537Y-24661D01*
X54510Y-24652D01*
X54497Y-24644D01*
X54483Y-24626D01*
X54483Y-24592D01*
X54497Y-24575D01*
X54510Y-24566D01*
X54537Y-24558D01*
X54550Y-24558D01*
X54577Y-24566D01*
X54590Y-24575D01*
X54603Y-24592D01*
X54603Y-24626D01*
X54617Y-24644D01*
X54630Y-24652D01*
X54657Y-24661D01*
X54710Y-24661D01*
X54737Y-24652D01*
X54750Y-24644D01*
X54763Y-24626D01*
X54763Y-24592D01*
X54750Y-24575D01*
X54737Y-24566D01*
X54710Y-24558D01*
X54657Y-24558D01*
X54630Y-24566D01*
X54617Y-24575D01*
X54603Y-24592D01*
X54037Y-26279D02*
X54050Y-26288D01*
X54063Y-26314D01*
X54063Y-26331D01*
X54050Y-26356D01*
X54023Y-26374D01*
X53997Y-26382D01*
X53943Y-26391D01*
X53903Y-26391D01*
X53850Y-26382D01*
X53823Y-26374D01*
X53797Y-26356D01*
X53783Y-26331D01*
X53783Y-26314D01*
X53797Y-26288D01*
X53810Y-26279D01*
X53783Y-26219D02*
X53783Y-26099D01*
X54063Y-26176D01*
X52871Y-25037D02*
X52862Y-25050D01*
X52836Y-25063D01*
X52819Y-25063D01*
X52794Y-25050D01*
X52776Y-25023D01*
X52768Y-24997D01*
X52759Y-24943D01*
X52759Y-24903D01*
X52768Y-24850D01*
X52776Y-24823D01*
X52794Y-24797D01*
X52819Y-24783D01*
X52836Y-24783D01*
X52862Y-24797D01*
X52871Y-24810D01*
X53025Y-24783D02*
X52991Y-24783D01*
X52974Y-24797D01*
X52965Y-24810D01*
X52948Y-24850D01*
X52939Y-24903D01*
X52939Y-25010D01*
X52948Y-25037D01*
X52956Y-25050D01*
X52974Y-25063D01*
X53008Y-25063D01*
X53025Y-25050D01*
X53034Y-25037D01*
X53042Y-25010D01*
X53042Y-24943D01*
X53034Y-24917D01*
X53025Y-24903D01*
X53008Y-24890D01*
X52974Y-24890D01*
X52956Y-24903D01*
X52948Y-24917D01*
X52939Y-24943D01*
X62687Y-19979D02*
X62700Y-19988D01*
X62713Y-20014D01*
X62713Y-20031D01*
X62700Y-20056D01*
X62673Y-20074D01*
X62647Y-20082D01*
X62593Y-20091D01*
X62553Y-20091D01*
X62500Y-20082D01*
X62473Y-20074D01*
X62447Y-20056D01*
X62433Y-20031D01*
X62433Y-20014D01*
X62447Y-19988D01*
X62460Y-19979D01*
X62433Y-19816D02*
X62433Y-19902D01*
X62567Y-19911D01*
X62553Y-19902D01*
X62540Y-19885D01*
X62540Y-19842D01*
X62553Y-19825D01*
X62567Y-19816D01*
X62593Y-19808D01*
X62660Y-19808D01*
X62687Y-19816D01*
X62700Y-19825D01*
X62713Y-19842D01*
X62713Y-19885D01*
X62700Y-19902D01*
X62687Y-19911D01*
X52871Y-25687D02*
X52862Y-25700D01*
X52836Y-25713D01*
X52819Y-25713D01*
X52794Y-25700D01*
X52776Y-25673D01*
X52768Y-25647D01*
X52759Y-25593D01*
X52759Y-25553D01*
X52768Y-25500D01*
X52776Y-25473D01*
X52794Y-25447D01*
X52819Y-25433D01*
X52836Y-25433D01*
X52862Y-25447D01*
X52871Y-25460D01*
X53025Y-25527D02*
X53025Y-25713D01*
X52982Y-25420D02*
X52939Y-25620D01*
X53051Y-25620D01*
X62687Y-20929D02*
X62700Y-20938D01*
X62713Y-20964D01*
X62713Y-20981D01*
X62700Y-21006D01*
X62673Y-21024D01*
X62647Y-21032D01*
X62593Y-21041D01*
X62553Y-21041D01*
X62500Y-21032D01*
X62473Y-21024D01*
X62447Y-21006D01*
X62433Y-20981D01*
X62433Y-20964D01*
X62447Y-20938D01*
X62460Y-20929D01*
X62433Y-20869D02*
X62433Y-20758D01*
X62540Y-20818D01*
X62540Y-20792D01*
X62553Y-20775D01*
X62567Y-20766D01*
X62593Y-20758D01*
X62660Y-20758D01*
X62687Y-20766D01*
X62700Y-20775D01*
X62713Y-20792D01*
X62713Y-20844D01*
X62700Y-20861D01*
X62687Y-20869D01*
X53621Y-27237D02*
X53612Y-27250D01*
X53586Y-27263D01*
X53569Y-27263D01*
X53544Y-27250D01*
X53526Y-27223D01*
X53518Y-27197D01*
X53509Y-27143D01*
X53509Y-27103D01*
X53518Y-27050D01*
X53526Y-27023D01*
X53544Y-26997D01*
X53569Y-26983D01*
X53586Y-26983D01*
X53612Y-26997D01*
X53621Y-27010D01*
X53689Y-27010D02*
X53698Y-26997D01*
X53715Y-26983D01*
X53758Y-26983D01*
X53775Y-26997D01*
X53784Y-27010D01*
X53792Y-27037D01*
X53792Y-27063D01*
X53784Y-27103D01*
X53681Y-27263D01*
X53792Y-27263D01*
X63571Y-20237D02*
X63562Y-20250D01*
X63536Y-20263D01*
X63519Y-20263D01*
X63494Y-20250D01*
X63476Y-20223D01*
X63468Y-20197D01*
X63459Y-20143D01*
X63459Y-20103D01*
X63468Y-20050D01*
X63476Y-20023D01*
X63494Y-19997D01*
X63519Y-19983D01*
X63536Y-19983D01*
X63562Y-19997D01*
X63571Y-20010D01*
X63742Y-20263D02*
X63639Y-20263D01*
X63691Y-20263D02*
X63691Y-19983D01*
X63674Y-20023D01*
X63656Y-20050D01*
X63639Y-20063D01*
G54D22*
X52959Y-26401D02*
X52840Y-26401D01*
X52840Y-26151D01*
X53030Y-26175D02*
X53042Y-26163D01*
X53065Y-26151D01*
X53125Y-26151D01*
X53149Y-26163D01*
X53161Y-26175D01*
X53172Y-26199D01*
X53172Y-26223D01*
X53161Y-26258D01*
X53018Y-26401D01*
X53172Y-26401D01*
X63509Y-20901D02*
X63390Y-20901D01*
X63390Y-20651D01*
X63722Y-20901D02*
X63580Y-20901D01*
X63651Y-20901D02*
X63651Y-20651D01*
X63627Y-20687D01*
X63603Y-20711D01*
X63580Y-20723D01*
X60660Y-27921D02*
X60660Y-28164D01*
X60671Y-28193D01*
X60683Y-28207D01*
X60707Y-28221D01*
X60755Y-28221D01*
X60779Y-28207D01*
X60790Y-28193D01*
X60802Y-28164D01*
X60802Y-27921D01*
X60898Y-27921D02*
X61052Y-27921D01*
X60969Y-28036D01*
X61005Y-28036D01*
X61029Y-28050D01*
X61041Y-28064D01*
X61052Y-28093D01*
X61052Y-28164D01*
X61041Y-28193D01*
X61029Y-28207D01*
X61005Y-28221D01*
X60933Y-28221D01*
X60910Y-28207D01*
X60898Y-28193D01*
X62110Y-27971D02*
X62110Y-28214D01*
X62121Y-28243D01*
X62133Y-28257D01*
X62157Y-28271D01*
X62205Y-28271D01*
X62229Y-28257D01*
X62240Y-28243D01*
X62252Y-28214D01*
X62252Y-27971D01*
X62360Y-28000D02*
X62372Y-27986D01*
X62395Y-27971D01*
X62455Y-27971D01*
X62479Y-27986D01*
X62491Y-28000D01*
X62502Y-28029D01*
X62502Y-28057D01*
X62491Y-28100D01*
X62348Y-28271D01*
X62502Y-28271D01*
G54D21*
X54721Y-24921D02*
X54721Y-25164D01*
X54736Y-25193D01*
X54750Y-25207D01*
X54779Y-25221D01*
X54836Y-25221D01*
X54864Y-25207D01*
X54879Y-25193D01*
X54893Y-25164D01*
X54893Y-24921D01*
X55193Y-25221D02*
X55021Y-25221D01*
X55107Y-25221D02*
X55107Y-24921D01*
X55078Y-24964D01*
X55050Y-24993D01*
X55021Y-25007D01*
X54254Y-26279D02*
X54292Y-26279D01*
X54311Y-26270D01*
X54320Y-26260D01*
X54339Y-26232D01*
X54348Y-26195D01*
X54348Y-26120D01*
X54339Y-26101D01*
X54329Y-26092D01*
X54311Y-26082D01*
X54273Y-26082D01*
X54254Y-26092D01*
X54245Y-26101D01*
X54236Y-26120D01*
X54236Y-26167D01*
X54245Y-26185D01*
X54254Y-26195D01*
X54273Y-26204D01*
X54311Y-26204D01*
X54329Y-26195D01*
X54339Y-26185D01*
X54348Y-26167D01*
X54414Y-26082D02*
X54536Y-26082D01*
X54470Y-26157D01*
X54499Y-26157D01*
X54517Y-26167D01*
X54527Y-26176D01*
X54536Y-26195D01*
X54536Y-26242D01*
X54527Y-26260D01*
X54517Y-26270D01*
X54499Y-26279D01*
X54442Y-26279D01*
X54424Y-26270D01*
X54414Y-26260D01*
X54715Y-26279D02*
X54621Y-26279D01*
X54621Y-26082D01*
X54892Y-26260D02*
X54883Y-26270D01*
X54855Y-26279D01*
X54836Y-26279D01*
X54808Y-26270D01*
X54789Y-26251D01*
X54780Y-26232D01*
X54771Y-26195D01*
X54771Y-26167D01*
X54780Y-26129D01*
X54789Y-26110D01*
X54808Y-26092D01*
X54836Y-26082D01*
X54855Y-26082D01*
X54883Y-26092D01*
X54892Y-26101D01*
X55061Y-26148D02*
X55061Y-26279D01*
X55014Y-26073D02*
X54968Y-26214D01*
X55089Y-26214D01*
X55249Y-26082D02*
X55212Y-26082D01*
X55193Y-26092D01*
X55184Y-26101D01*
X55165Y-26129D01*
X55156Y-26167D01*
X55156Y-26242D01*
X55165Y-26260D01*
X55174Y-26270D01*
X55193Y-26279D01*
X55231Y-26279D01*
X55249Y-26270D01*
X55259Y-26260D01*
X55268Y-26242D01*
X55268Y-26195D01*
X55259Y-26176D01*
X55249Y-26167D01*
X55231Y-26157D01*
X55193Y-26157D01*
X55174Y-26167D01*
X55165Y-26176D01*
X55156Y-26195D01*
X55419Y-26176D02*
X55447Y-26185D01*
X55456Y-26195D01*
X55465Y-26214D01*
X55465Y-26242D01*
X55456Y-26260D01*
X55447Y-26270D01*
X55428Y-26279D01*
X55353Y-26279D01*
X55353Y-26082D01*
X55419Y-26082D01*
X55437Y-26092D01*
X55447Y-26101D01*
X55456Y-26120D01*
X55456Y-26139D01*
X55447Y-26157D01*
X55437Y-26167D01*
X55419Y-26176D01*
X55353Y-26176D01*
X55522Y-26082D02*
X55634Y-26082D01*
X55578Y-26279D02*
X55578Y-26082D01*
G54D19*
X53585Y-23469D02*
X53352Y-23469D01*
X53352Y-23835D02*
X53352Y-23135D01*
X53685Y-23135D01*
X54318Y-23835D02*
X53918Y-23835D01*
X54118Y-23835D02*
X54118Y-23135D01*
X54052Y-23235D01*
X53985Y-23302D01*
X53918Y-23335D01*
X52534Y-20583D02*
X52400Y-20583D01*
X52334Y-20617D01*
X52300Y-20650D01*
X52234Y-20750D01*
X52200Y-20883D01*
X52200Y-21150D01*
X52234Y-21217D01*
X52267Y-21250D01*
X52334Y-21283D01*
X52467Y-21283D01*
X52534Y-21250D01*
X52567Y-21217D01*
X52600Y-21150D01*
X52600Y-20983D01*
X52567Y-20917D01*
X52534Y-20883D01*
X52467Y-20850D01*
X52334Y-20850D01*
X52267Y-20883D01*
X52234Y-20917D01*
X52200Y-20983D01*
X52901Y-21283D02*
X52901Y-20583D01*
X53134Y-21083D01*
X53367Y-20583D01*
X53367Y-21283D01*
X53701Y-21283D02*
X53701Y-20583D01*
X53701Y-20917D02*
X54101Y-20917D01*
X54101Y-21283D02*
X54101Y-20583D01*
X54367Y-20817D02*
X54734Y-20817D01*
X54367Y-21283D01*
X54734Y-21283D01*
M02*
