G04 (created by PCBNEW-RS274X (2010-03-14)-final) date jue 03 nov 2011 01:52:56 ART*
G01*
G70*
G90*
%MOIN*%
G04 Gerber Fmt 3.4, Leading zero omitted, Abs format*
%FSLAX34Y34*%
G04 APERTURE LIST*
%ADD10C,0.000100*%
%ADD11C,0.015000*%
%ADD12C,0.010000*%
%ADD13C,0.006600*%
%ADD14C,0.005000*%
%ADD15C,0.008000*%
G04 APERTURE END LIST*
G54D10*
G54D11*
X38950Y-56100D02*
X38950Y-31400D01*
X39000Y-56100D02*
X38950Y-56100D01*
X39200Y-56100D02*
X39000Y-56100D01*
X39450Y-56100D02*
X39200Y-56100D01*
X42700Y-56100D02*
X39450Y-56100D01*
X65600Y-56100D02*
X42700Y-56100D01*
X65600Y-31400D02*
X65600Y-56100D01*
X38950Y-31400D02*
X65600Y-31400D01*
G54D12*
X47942Y-41406D02*
X47999Y-41444D01*
X48113Y-41444D01*
X48170Y-41406D01*
X48199Y-41330D01*
X48199Y-41025D01*
X48170Y-40949D01*
X48113Y-40910D01*
X47999Y-40910D01*
X47942Y-40949D01*
X47913Y-41025D01*
X47913Y-41101D01*
X48199Y-41177D01*
X47199Y-41444D02*
X47199Y-40644D01*
X46913Y-40910D02*
X46913Y-41444D01*
X46913Y-40987D02*
X46885Y-40949D01*
X46827Y-40910D01*
X46742Y-40910D01*
X46685Y-40949D01*
X46656Y-41025D01*
X46656Y-41444D01*
X46456Y-40910D02*
X46227Y-40910D01*
X46370Y-41444D02*
X46370Y-40758D01*
X46342Y-40682D01*
X46284Y-40644D01*
X46227Y-40644D01*
X45941Y-41444D02*
X45999Y-41406D01*
X46027Y-41368D01*
X46056Y-41291D01*
X46056Y-41063D01*
X46027Y-40987D01*
X45999Y-40949D01*
X45941Y-40910D01*
X45856Y-40910D01*
X45799Y-40949D01*
X45770Y-40987D01*
X45741Y-41063D01*
X45741Y-41291D01*
X45770Y-41368D01*
X45799Y-41406D01*
X45856Y-41444D01*
X45941Y-41444D01*
X45484Y-41444D02*
X45484Y-40910D01*
X45484Y-41063D02*
X45456Y-40987D01*
X45427Y-40949D01*
X45370Y-40910D01*
X45313Y-40910D01*
X45113Y-41444D02*
X45113Y-40910D01*
X45113Y-40987D02*
X45085Y-40949D01*
X45027Y-40910D01*
X44942Y-40910D01*
X44885Y-40949D01*
X44856Y-41025D01*
X44856Y-41444D01*
X44856Y-41025D02*
X44827Y-40949D01*
X44770Y-40910D01*
X44685Y-40910D01*
X44627Y-40949D01*
X44599Y-41025D01*
X44599Y-41444D01*
X44056Y-41444D02*
X44056Y-41025D01*
X44085Y-40949D01*
X44142Y-40910D01*
X44256Y-40910D01*
X44313Y-40949D01*
X44056Y-41406D02*
X44113Y-41444D01*
X44256Y-41444D01*
X44313Y-41406D01*
X44342Y-41330D01*
X44342Y-41253D01*
X44313Y-41177D01*
X44256Y-41139D01*
X44113Y-41139D01*
X44056Y-41101D01*
X43856Y-40910D02*
X43627Y-40910D01*
X43770Y-40644D02*
X43770Y-41330D01*
X43742Y-41406D01*
X43684Y-41444D01*
X43627Y-41444D01*
X43427Y-41444D02*
X43427Y-40910D01*
X43427Y-40644D02*
X43456Y-40682D01*
X43427Y-40720D01*
X43399Y-40682D01*
X43427Y-40644D01*
X43427Y-40720D01*
X42884Y-41406D02*
X42941Y-41444D01*
X43055Y-41444D01*
X43113Y-41406D01*
X43141Y-41368D01*
X43170Y-41291D01*
X43170Y-41063D01*
X43141Y-40987D01*
X43113Y-40949D01*
X43055Y-40910D01*
X42941Y-40910D01*
X42884Y-40949D01*
X42370Y-41444D02*
X42370Y-41025D01*
X42399Y-40949D01*
X42456Y-40910D01*
X42570Y-40910D01*
X42627Y-40949D01*
X42370Y-41406D02*
X42427Y-41444D01*
X42570Y-41444D01*
X42627Y-41406D01*
X42656Y-41330D01*
X42656Y-41253D01*
X42627Y-41177D01*
X42570Y-41139D01*
X42427Y-41139D01*
X42370Y-41101D01*
X51631Y-40304D02*
X51631Y-39504D01*
X51345Y-40304D02*
X51345Y-39504D01*
X51002Y-40304D01*
X51002Y-39504D01*
X50802Y-39504D02*
X50459Y-39504D01*
X50630Y-40304D02*
X50630Y-39504D01*
X50259Y-40304D02*
X50259Y-39504D01*
X49973Y-39999D02*
X49516Y-39999D01*
X49230Y-39885D02*
X49030Y-39885D01*
X48944Y-40304D02*
X49230Y-40304D01*
X49230Y-39504D01*
X48944Y-39504D01*
X48601Y-40304D02*
X48659Y-40266D01*
X48687Y-40190D01*
X48687Y-39504D01*
X48145Y-40266D02*
X48202Y-40304D01*
X48316Y-40304D01*
X48373Y-40266D01*
X48402Y-40190D01*
X48402Y-39885D01*
X48373Y-39809D01*
X48316Y-39770D01*
X48202Y-39770D01*
X48145Y-39809D01*
X48116Y-39885D01*
X48116Y-39961D01*
X48402Y-40037D01*
X47602Y-40266D02*
X47659Y-40304D01*
X47773Y-40304D01*
X47831Y-40266D01*
X47859Y-40228D01*
X47888Y-40151D01*
X47888Y-39923D01*
X47859Y-39847D01*
X47831Y-39809D01*
X47773Y-39770D01*
X47659Y-39770D01*
X47602Y-39809D01*
X47431Y-39770D02*
X47202Y-39770D01*
X47345Y-39504D02*
X47345Y-40190D01*
X47317Y-40266D01*
X47259Y-40304D01*
X47202Y-40304D01*
X47002Y-40304D02*
X47002Y-39770D01*
X47002Y-39923D02*
X46974Y-39847D01*
X46945Y-39809D01*
X46888Y-39770D01*
X46831Y-39770D01*
X46545Y-40304D02*
X46603Y-40266D01*
X46631Y-40228D01*
X46660Y-40151D01*
X46660Y-39923D01*
X46631Y-39847D01*
X46603Y-39809D01*
X46545Y-39770D01*
X46460Y-39770D01*
X46403Y-39809D01*
X46374Y-39847D01*
X46345Y-39923D01*
X46345Y-40151D01*
X46374Y-40228D01*
X46403Y-40266D01*
X46460Y-40304D01*
X46545Y-40304D01*
X46088Y-39770D02*
X46088Y-40304D01*
X46088Y-39847D02*
X46060Y-39809D01*
X46002Y-39770D01*
X45917Y-39770D01*
X45860Y-39809D01*
X45831Y-39885D01*
X45831Y-40304D01*
X45545Y-40304D02*
X45545Y-39770D01*
X45545Y-39504D02*
X45574Y-39542D01*
X45545Y-39580D01*
X45517Y-39542D01*
X45545Y-39504D01*
X45545Y-39580D01*
X45002Y-40266D02*
X45059Y-40304D01*
X45173Y-40304D01*
X45231Y-40266D01*
X45259Y-40228D01*
X45288Y-40151D01*
X45288Y-39923D01*
X45259Y-39847D01*
X45231Y-39809D01*
X45173Y-39770D01*
X45059Y-39770D01*
X45002Y-39809D01*
X44488Y-40304D02*
X44488Y-39885D01*
X44517Y-39809D01*
X44574Y-39770D01*
X44688Y-39770D01*
X44745Y-39809D01*
X44488Y-40266D02*
X44545Y-40304D01*
X44688Y-40304D01*
X44745Y-40266D01*
X44774Y-40190D01*
X44774Y-40113D01*
X44745Y-40037D01*
X44688Y-39999D01*
X44545Y-39999D01*
X44488Y-39961D01*
X53599Y-42734D02*
X53599Y-41934D01*
X53342Y-42734D02*
X53342Y-42315D01*
X53371Y-42239D01*
X53428Y-42200D01*
X53513Y-42200D01*
X53571Y-42239D01*
X53599Y-42277D01*
X53142Y-42200D02*
X52913Y-42200D01*
X53056Y-41934D02*
X53056Y-42620D01*
X53028Y-42696D01*
X52970Y-42734D01*
X52913Y-42734D01*
X52799Y-42200D02*
X52570Y-42200D01*
X52713Y-41934D02*
X52713Y-42620D01*
X52685Y-42696D01*
X52627Y-42734D01*
X52570Y-42734D01*
X52370Y-42200D02*
X52370Y-43000D01*
X52370Y-42239D02*
X52313Y-42200D01*
X52199Y-42200D01*
X52142Y-42239D01*
X52113Y-42277D01*
X52084Y-42353D01*
X52084Y-42581D01*
X52113Y-42658D01*
X52142Y-42696D01*
X52199Y-42734D01*
X52313Y-42734D01*
X52370Y-42696D01*
X51827Y-42658D02*
X51799Y-42696D01*
X51827Y-42734D01*
X51856Y-42696D01*
X51827Y-42658D01*
X51827Y-42734D01*
X51827Y-42239D02*
X51799Y-42277D01*
X51827Y-42315D01*
X51856Y-42277D01*
X51827Y-42239D01*
X51827Y-42315D01*
X51113Y-41896D02*
X51627Y-42924D01*
X50484Y-41896D02*
X50998Y-42924D01*
X50083Y-42315D02*
X50283Y-42315D01*
X50283Y-42734D02*
X50283Y-41934D01*
X49997Y-41934D01*
X49769Y-42734D02*
X49769Y-41934D01*
X49541Y-41934D01*
X49483Y-41972D01*
X49455Y-42010D01*
X49426Y-42086D01*
X49426Y-42200D01*
X49455Y-42277D01*
X49483Y-42315D01*
X49541Y-42353D01*
X49769Y-42353D01*
X48855Y-41972D02*
X48912Y-41934D01*
X48998Y-41934D01*
X49083Y-41972D01*
X49141Y-42048D01*
X49169Y-42124D01*
X49198Y-42277D01*
X49198Y-42391D01*
X49169Y-42543D01*
X49141Y-42620D01*
X49083Y-42696D01*
X48998Y-42734D01*
X48941Y-42734D01*
X48855Y-42696D01*
X48826Y-42658D01*
X48826Y-42391D01*
X48941Y-42391D01*
X48598Y-42505D02*
X48312Y-42505D01*
X48655Y-42734D02*
X48455Y-41934D01*
X48255Y-42734D01*
X47769Y-42734D02*
X48055Y-42734D01*
X48055Y-41934D01*
X47569Y-42734D02*
X47569Y-42200D01*
X47569Y-41934D02*
X47598Y-41972D01*
X47569Y-42010D01*
X47541Y-41972D01*
X47569Y-41934D01*
X47569Y-42010D01*
X47283Y-42734D02*
X47283Y-41934D01*
X47283Y-42239D02*
X47226Y-42200D01*
X47112Y-42200D01*
X47055Y-42239D01*
X47026Y-42277D01*
X46997Y-42353D01*
X46997Y-42581D01*
X47026Y-42658D01*
X47055Y-42696D01*
X47112Y-42734D01*
X47226Y-42734D01*
X47283Y-42696D01*
X46740Y-42734D02*
X46740Y-42200D01*
X46740Y-42353D02*
X46712Y-42277D01*
X46683Y-42239D01*
X46626Y-42200D01*
X46569Y-42200D01*
X46141Y-42696D02*
X46198Y-42734D01*
X46312Y-42734D01*
X46369Y-42696D01*
X46398Y-42620D01*
X46398Y-42315D01*
X46369Y-42239D01*
X46312Y-42200D01*
X46198Y-42200D01*
X46141Y-42239D01*
X46112Y-42315D01*
X46112Y-42391D01*
X46398Y-42467D01*
X45855Y-42658D02*
X45827Y-42696D01*
X45855Y-42734D01*
X45884Y-42696D01*
X45855Y-42658D01*
X45855Y-42734D01*
X45598Y-42696D02*
X45541Y-42734D01*
X45426Y-42734D01*
X45369Y-42696D01*
X45341Y-42620D01*
X45341Y-42581D01*
X45369Y-42505D01*
X45426Y-42467D01*
X45512Y-42467D01*
X45569Y-42429D01*
X45598Y-42353D01*
X45598Y-42315D01*
X45569Y-42239D01*
X45512Y-42200D01*
X45426Y-42200D01*
X45369Y-42239D01*
X45169Y-42200D02*
X44940Y-42200D01*
X45083Y-42734D02*
X45083Y-42048D01*
X45055Y-41972D01*
X44997Y-41934D01*
X44940Y-41934D01*
X44740Y-42658D02*
X44712Y-42696D01*
X44740Y-42734D01*
X44769Y-42696D01*
X44740Y-42658D01*
X44740Y-42734D01*
X44454Y-42200D02*
X44454Y-42734D01*
X44454Y-42277D02*
X44426Y-42239D01*
X44368Y-42200D01*
X44283Y-42200D01*
X44226Y-42239D01*
X44197Y-42315D01*
X44197Y-42734D01*
X43683Y-42696D02*
X43740Y-42734D01*
X43854Y-42734D01*
X43911Y-42696D01*
X43940Y-42620D01*
X43940Y-42315D01*
X43911Y-42239D01*
X43854Y-42200D01*
X43740Y-42200D01*
X43683Y-42239D01*
X43654Y-42315D01*
X43654Y-42391D01*
X43940Y-42467D01*
X43483Y-42200D02*
X43254Y-42200D01*
X43397Y-41934D02*
X43397Y-42620D01*
X43369Y-42696D01*
X43311Y-42734D01*
X43254Y-42734D01*
X47406Y-35236D02*
X47320Y-35274D01*
X47177Y-35274D01*
X47120Y-35236D01*
X47091Y-35198D01*
X47063Y-35121D01*
X47063Y-35045D01*
X47091Y-34969D01*
X47120Y-34931D01*
X47177Y-34893D01*
X47291Y-34855D01*
X47349Y-34817D01*
X47377Y-34779D01*
X47406Y-34702D01*
X47406Y-34626D01*
X47377Y-34550D01*
X47349Y-34512D01*
X47291Y-34474D01*
X47149Y-34474D01*
X47063Y-34512D01*
X46863Y-34474D02*
X46492Y-34474D01*
X46692Y-34779D01*
X46606Y-34779D01*
X46549Y-34817D01*
X46520Y-34855D01*
X46492Y-34931D01*
X46492Y-35121D01*
X46520Y-35198D01*
X46549Y-35236D01*
X46606Y-35274D01*
X46778Y-35274D01*
X46835Y-35236D01*
X46863Y-35198D01*
X46235Y-35274D02*
X46235Y-34474D01*
X46007Y-34474D01*
X45949Y-34512D01*
X45921Y-34550D01*
X45892Y-34626D01*
X45892Y-34740D01*
X45921Y-34817D01*
X45949Y-34855D01*
X46007Y-34893D01*
X46235Y-34893D01*
X45521Y-34474D02*
X45407Y-34474D01*
X45349Y-34512D01*
X45292Y-34588D01*
X45264Y-34740D01*
X45264Y-35007D01*
X45292Y-35160D01*
X45349Y-35236D01*
X45407Y-35274D01*
X45521Y-35274D01*
X45578Y-35236D01*
X45635Y-35160D01*
X45664Y-35007D01*
X45664Y-34740D01*
X45635Y-34588D01*
X45578Y-34512D01*
X45521Y-34474D01*
X45063Y-34474D02*
X44920Y-35274D01*
X44806Y-34702D01*
X44692Y-35274D01*
X44549Y-34474D01*
X44320Y-34855D02*
X44120Y-34855D01*
X44034Y-35274D02*
X44320Y-35274D01*
X44320Y-34474D01*
X44034Y-34474D01*
X43434Y-35274D02*
X43634Y-34893D01*
X43777Y-35274D02*
X43777Y-34474D01*
X43549Y-34474D01*
X43491Y-34512D01*
X43463Y-34550D01*
X43434Y-34626D01*
X43434Y-34740D01*
X43463Y-34817D01*
X43491Y-34855D01*
X43549Y-34893D01*
X43777Y-34893D01*
G54D13*
X44006Y-33413D02*
X43950Y-33432D01*
X43931Y-33451D01*
X43912Y-33488D01*
X43912Y-33544D01*
X43931Y-33582D01*
X43950Y-33601D01*
X43987Y-33619D01*
X44137Y-33619D01*
X44137Y-33225D01*
X44006Y-33225D01*
X43968Y-33244D01*
X43950Y-33263D01*
X43931Y-33301D01*
X43931Y-33338D01*
X43950Y-33376D01*
X43968Y-33394D01*
X44006Y-33413D01*
X44137Y-33413D01*
X43668Y-33225D02*
X43593Y-33225D01*
X43556Y-33244D01*
X43518Y-33282D01*
X43499Y-33357D01*
X43499Y-33488D01*
X43518Y-33563D01*
X43556Y-33601D01*
X43593Y-33619D01*
X43668Y-33619D01*
X43706Y-33601D01*
X43743Y-33563D01*
X43762Y-33488D01*
X43762Y-33357D01*
X43743Y-33282D01*
X43706Y-33244D01*
X43668Y-33225D01*
X43386Y-33225D02*
X43161Y-33225D01*
X43274Y-33619D02*
X43274Y-33225D01*
X43086Y-33225D02*
X42861Y-33225D01*
X42974Y-33619D02*
X42974Y-33225D01*
X42655Y-33225D02*
X42580Y-33225D01*
X42543Y-33244D01*
X42505Y-33282D01*
X42486Y-33357D01*
X42486Y-33488D01*
X42505Y-33563D01*
X42543Y-33601D01*
X42580Y-33619D01*
X42655Y-33619D01*
X42693Y-33601D01*
X42730Y-33563D01*
X42749Y-33488D01*
X42749Y-33357D01*
X42730Y-33282D01*
X42693Y-33244D01*
X42655Y-33225D01*
X42317Y-33619D02*
X42317Y-33225D01*
X42186Y-33507D01*
X42055Y-33225D01*
X42055Y-33619D01*
X41586Y-33601D02*
X41530Y-33619D01*
X41436Y-33619D01*
X41398Y-33601D01*
X41380Y-33582D01*
X41361Y-33544D01*
X41361Y-33507D01*
X41380Y-33469D01*
X41398Y-33451D01*
X41436Y-33432D01*
X41511Y-33413D01*
X41548Y-33394D01*
X41567Y-33376D01*
X41586Y-33338D01*
X41586Y-33301D01*
X41567Y-33263D01*
X41548Y-33244D01*
X41511Y-33225D01*
X41417Y-33225D01*
X41361Y-33244D01*
X41192Y-33619D02*
X41192Y-33225D01*
X41004Y-33619D02*
X41004Y-33225D01*
X40910Y-33225D01*
X40854Y-33244D01*
X40817Y-33282D01*
X40798Y-33319D01*
X40779Y-33394D01*
X40779Y-33451D01*
X40798Y-33526D01*
X40817Y-33563D01*
X40854Y-33601D01*
X40910Y-33619D01*
X41004Y-33619D01*
X40610Y-33413D02*
X40479Y-33413D01*
X40423Y-33619D02*
X40610Y-33619D01*
X40610Y-33225D01*
X40423Y-33225D01*
G54D14*
X61725Y-42025D02*
X61724Y-42034D01*
X61721Y-42044D01*
X61716Y-42052D01*
X61710Y-42060D01*
X61702Y-42066D01*
X61694Y-42071D01*
X61685Y-42073D01*
X61675Y-42074D01*
X61666Y-42074D01*
X61657Y-42071D01*
X61648Y-42066D01*
X61641Y-42060D01*
X61634Y-42053D01*
X61630Y-42044D01*
X61627Y-42035D01*
X61626Y-42025D01*
X61626Y-42016D01*
X61629Y-42007D01*
X61633Y-41998D01*
X61640Y-41991D01*
X61647Y-41984D01*
X61655Y-41980D01*
X61665Y-41977D01*
X61674Y-41976D01*
X61683Y-41976D01*
X61693Y-41979D01*
X61701Y-41983D01*
X61709Y-41989D01*
X61715Y-41997D01*
X61720Y-42005D01*
X61723Y-42014D01*
X61724Y-42024D01*
X61725Y-42025D01*
X61675Y-42475D02*
X61675Y-42075D01*
X61675Y-42075D02*
X61075Y-42075D01*
X61075Y-42075D02*
X61075Y-42475D01*
X61075Y-42875D02*
X61075Y-43275D01*
X61075Y-43275D02*
X61675Y-43275D01*
X61675Y-43275D02*
X61675Y-42875D01*
X60525Y-42225D02*
X60525Y-43125D01*
X60525Y-43125D02*
X61025Y-43125D01*
X61025Y-43125D02*
X61025Y-42225D01*
X61025Y-42225D02*
X60525Y-42225D01*
X55400Y-40950D02*
X56400Y-40950D01*
X56400Y-40950D02*
X56400Y-33950D01*
X56400Y-33950D02*
X55400Y-33950D01*
X55400Y-33950D02*
X55400Y-40950D01*
X40400Y-39450D02*
X41400Y-39450D01*
X41400Y-39450D02*
X41400Y-35450D01*
X41400Y-35450D02*
X40400Y-35450D01*
X40400Y-35450D02*
X40400Y-39450D01*
X64177Y-49344D02*
X63677Y-49344D01*
X63677Y-49153D01*
X63701Y-49106D01*
X63725Y-49082D01*
X63773Y-49058D01*
X63844Y-49058D01*
X63892Y-49082D01*
X63915Y-49106D01*
X63939Y-49153D01*
X63939Y-49344D01*
X64177Y-48582D02*
X64177Y-48868D01*
X64177Y-48725D02*
X63677Y-48725D01*
X63749Y-48773D01*
X63796Y-48820D01*
X63820Y-48868D01*
X64280Y-54122D02*
X64304Y-54146D01*
X64327Y-54217D01*
X64327Y-54265D01*
X64304Y-54337D01*
X64256Y-54384D01*
X64208Y-54408D01*
X64113Y-54432D01*
X64042Y-54432D01*
X63946Y-54408D01*
X63899Y-54384D01*
X63851Y-54337D01*
X63827Y-54265D01*
X63827Y-54217D01*
X63851Y-54146D01*
X63875Y-54122D01*
X63827Y-53813D02*
X63827Y-53717D01*
X63851Y-53670D01*
X63899Y-53622D01*
X63994Y-53598D01*
X64161Y-53598D01*
X64256Y-53622D01*
X64304Y-53670D01*
X64327Y-53717D01*
X64327Y-53813D01*
X64304Y-53860D01*
X64256Y-53908D01*
X64161Y-53932D01*
X63994Y-53932D01*
X63899Y-53908D01*
X63851Y-53860D01*
X63827Y-53813D01*
X64327Y-53384D02*
X63827Y-53384D01*
X64327Y-53098D01*
X63827Y-53098D01*
X64375Y-52979D02*
X64375Y-52598D01*
X64327Y-52217D02*
X64327Y-52503D01*
X64327Y-52360D02*
X63827Y-52360D01*
X63899Y-52408D01*
X63946Y-52455D01*
X63970Y-52503D01*
X60127Y-49344D02*
X59627Y-49344D01*
X59627Y-49153D01*
X59651Y-49106D01*
X59675Y-49082D01*
X59723Y-49058D01*
X59794Y-49058D01*
X59842Y-49082D01*
X59865Y-49106D01*
X59889Y-49153D01*
X59889Y-49344D01*
X59675Y-48868D02*
X59651Y-48844D01*
X59627Y-48796D01*
X59627Y-48677D01*
X59651Y-48630D01*
X59675Y-48606D01*
X59723Y-48582D01*
X59770Y-48582D01*
X59842Y-48606D01*
X60127Y-48892D01*
X60127Y-48582D01*
X60080Y-54122D02*
X60104Y-54146D01*
X60127Y-54217D01*
X60127Y-54265D01*
X60104Y-54337D01*
X60056Y-54384D01*
X60008Y-54408D01*
X59913Y-54432D01*
X59842Y-54432D01*
X59746Y-54408D01*
X59699Y-54384D01*
X59651Y-54337D01*
X59627Y-54265D01*
X59627Y-54217D01*
X59651Y-54146D01*
X59675Y-54122D01*
X59627Y-53813D02*
X59627Y-53717D01*
X59651Y-53670D01*
X59699Y-53622D01*
X59794Y-53598D01*
X59961Y-53598D01*
X60056Y-53622D01*
X60104Y-53670D01*
X60127Y-53717D01*
X60127Y-53813D01*
X60104Y-53860D01*
X60056Y-53908D01*
X59961Y-53932D01*
X59794Y-53932D01*
X59699Y-53908D01*
X59651Y-53860D01*
X59627Y-53813D01*
X60127Y-53384D02*
X59627Y-53384D01*
X60127Y-53098D01*
X59627Y-53098D01*
X60175Y-52979D02*
X60175Y-52598D01*
X59675Y-52503D02*
X59651Y-52479D01*
X59627Y-52431D01*
X59627Y-52312D01*
X59651Y-52265D01*
X59675Y-52241D01*
X59723Y-52217D01*
X59770Y-52217D01*
X59842Y-52241D01*
X60127Y-52527D01*
X60127Y-52217D01*
X61506Y-35627D02*
X61506Y-35127D01*
X61697Y-35127D01*
X61744Y-35151D01*
X61768Y-35175D01*
X61792Y-35223D01*
X61792Y-35294D01*
X61768Y-35342D01*
X61744Y-35365D01*
X61697Y-35389D01*
X61506Y-35389D01*
X61958Y-35127D02*
X62268Y-35127D01*
X62101Y-35318D01*
X62173Y-35318D01*
X62220Y-35342D01*
X62244Y-35365D01*
X62268Y-35413D01*
X62268Y-35532D01*
X62244Y-35580D01*
X62220Y-35604D01*
X62173Y-35627D01*
X62030Y-35627D01*
X61982Y-35604D01*
X61958Y-35580D01*
X59759Y-34327D02*
X59759Y-34685D01*
X59735Y-34756D01*
X59687Y-34804D01*
X59616Y-34827D01*
X59568Y-34827D01*
X59926Y-34327D02*
X60211Y-34327D01*
X60068Y-34827D02*
X60068Y-34327D01*
X60354Y-34685D02*
X60592Y-34685D01*
X60307Y-34827D02*
X60473Y-34327D01*
X60640Y-34827D01*
X61069Y-34351D02*
X61021Y-34327D01*
X60950Y-34327D01*
X60878Y-34351D01*
X60831Y-34399D01*
X60807Y-34446D01*
X60783Y-34542D01*
X60783Y-34613D01*
X60807Y-34708D01*
X60831Y-34756D01*
X60878Y-34804D01*
X60950Y-34827D01*
X60998Y-34827D01*
X61069Y-34804D01*
X61093Y-34780D01*
X61093Y-34613D01*
X60998Y-34613D01*
X61307Y-34637D02*
X61688Y-34637D01*
X61926Y-34827D02*
X61926Y-34327D01*
X62117Y-34327D01*
X62164Y-34351D01*
X62188Y-34375D01*
X62212Y-34423D01*
X62212Y-34494D01*
X62188Y-34542D01*
X62164Y-34565D01*
X62117Y-34589D01*
X61926Y-34589D01*
X62521Y-34327D02*
X62617Y-34327D01*
X62664Y-34351D01*
X62712Y-34399D01*
X62736Y-34494D01*
X62736Y-34661D01*
X62712Y-34756D01*
X62664Y-34804D01*
X62617Y-34827D01*
X62521Y-34827D01*
X62474Y-34804D01*
X62426Y-34756D01*
X62402Y-34661D01*
X62402Y-34494D01*
X62426Y-34399D01*
X62474Y-34351D01*
X62521Y-34327D01*
X62902Y-34327D02*
X63021Y-34827D01*
X63117Y-34470D01*
X63212Y-34827D01*
X63331Y-34327D01*
X63521Y-34565D02*
X63688Y-34565D01*
X63759Y-34827D02*
X63521Y-34827D01*
X63521Y-34327D01*
X63759Y-34327D01*
X64259Y-34827D02*
X64092Y-34589D01*
X63973Y-34827D02*
X63973Y-34327D01*
X64164Y-34327D01*
X64211Y-34351D01*
X64235Y-34375D01*
X64259Y-34423D01*
X64259Y-34494D01*
X64235Y-34542D01*
X64211Y-34565D01*
X64164Y-34589D01*
X63973Y-34589D01*
G54D15*
X57659Y-40802D02*
X57659Y-40302D01*
X57468Y-40302D01*
X57421Y-40326D01*
X57397Y-40350D01*
X57373Y-40398D01*
X57373Y-40469D01*
X57397Y-40517D01*
X57421Y-40540D01*
X57468Y-40564D01*
X57659Y-40564D01*
X57207Y-40302D02*
X56873Y-40302D01*
X57088Y-40802D01*
X57459Y-39605D02*
X57483Y-39629D01*
X57554Y-39652D01*
X57602Y-39652D01*
X57674Y-39629D01*
X57721Y-39581D01*
X57745Y-39533D01*
X57769Y-39438D01*
X57769Y-39367D01*
X57745Y-39271D01*
X57721Y-39224D01*
X57674Y-39176D01*
X57602Y-39152D01*
X57554Y-39152D01*
X57483Y-39176D01*
X57459Y-39200D01*
X57150Y-39152D02*
X57054Y-39152D01*
X57007Y-39176D01*
X56959Y-39224D01*
X56935Y-39319D01*
X56935Y-39486D01*
X56959Y-39581D01*
X57007Y-39629D01*
X57054Y-39652D01*
X57150Y-39652D01*
X57197Y-39629D01*
X57245Y-39581D01*
X57269Y-39486D01*
X57269Y-39319D01*
X57245Y-39224D01*
X57197Y-39176D01*
X57150Y-39152D01*
X56721Y-39652D02*
X56721Y-39152D01*
X56435Y-39652D01*
X56435Y-39152D01*
X56197Y-39652D02*
X56197Y-39152D01*
X55911Y-39652D01*
X55911Y-39152D01*
X55792Y-39700D02*
X55411Y-39700D01*
X55340Y-39152D02*
X55006Y-39152D01*
X55221Y-39652D01*
X40429Y-35252D02*
X40429Y-34752D01*
X40238Y-34752D01*
X40191Y-34776D01*
X40167Y-34800D01*
X40143Y-34848D01*
X40143Y-34919D01*
X40167Y-34967D01*
X40191Y-34990D01*
X40238Y-35014D01*
X40429Y-35014D01*
X39715Y-34752D02*
X39810Y-34752D01*
X39858Y-34776D01*
X39881Y-34800D01*
X39929Y-34871D01*
X39953Y-34967D01*
X39953Y-35157D01*
X39929Y-35205D01*
X39905Y-35229D01*
X39858Y-35252D01*
X39762Y-35252D01*
X39715Y-35229D01*
X39691Y-35205D01*
X39667Y-35157D01*
X39667Y-35038D01*
X39691Y-34990D01*
X39715Y-34967D01*
X39762Y-34943D01*
X39858Y-34943D01*
X39905Y-34967D01*
X39929Y-34990D01*
X39953Y-35038D01*
X42459Y-38105D02*
X42483Y-38129D01*
X42554Y-38152D01*
X42602Y-38152D01*
X42674Y-38129D01*
X42721Y-38081D01*
X42745Y-38033D01*
X42769Y-37938D01*
X42769Y-37867D01*
X42745Y-37771D01*
X42721Y-37724D01*
X42674Y-37676D01*
X42602Y-37652D01*
X42554Y-37652D01*
X42483Y-37676D01*
X42459Y-37700D01*
X42150Y-37652D02*
X42054Y-37652D01*
X42007Y-37676D01*
X41959Y-37724D01*
X41935Y-37819D01*
X41935Y-37986D01*
X41959Y-38081D01*
X42007Y-38129D01*
X42054Y-38152D01*
X42150Y-38152D01*
X42197Y-38129D01*
X42245Y-38081D01*
X42269Y-37986D01*
X42269Y-37819D01*
X42245Y-37724D01*
X42197Y-37676D01*
X42150Y-37652D01*
X41721Y-38152D02*
X41721Y-37652D01*
X41435Y-38152D01*
X41435Y-37652D01*
X41197Y-38152D02*
X41197Y-37652D01*
X40911Y-38152D01*
X40911Y-37652D01*
X40792Y-38200D02*
X40411Y-38200D01*
X40078Y-37819D02*
X40078Y-38152D01*
X40197Y-37629D02*
X40316Y-37986D01*
X40006Y-37986D01*
M02*
