G04 (created by PCBNEW-RS274X (2010-03-14)-final) date jue 03 nov 2011 01:52:56 ART*
G01*
G70*
G90*
%MOIN*%
G04 Gerber Fmt 3.4, Leading zero omitted, Abs format*
%FSLAX34Y34*%
G04 APERTURE LIST*
%ADD10C,0.000100*%
%ADD11C,0.015000*%
%ADD12C,0.051400*%
%ADD13C,0.112200*%
%ADD14R,0.007800X0.039300*%
%ADD15R,0.039300X0.007800*%
%ADD16R,0.047200X0.047200*%
%ADD17C,0.056000*%
%ADD18R,0.025000X0.045000*%
%ADD19R,0.045000X0.025000*%
%ADD20R,0.035000X0.055000*%
%ADD21R,0.020000X0.030000*%
%ADD22R,0.027600X0.039400*%
%ADD23R,0.047200X0.157400*%
%ADD24R,0.055100X0.157400*%
%ADD25R,0.060000X0.016000*%
%ADD26R,0.016000X0.060000*%
%ADD27R,0.085000X0.070000*%
%ADD28R,0.126000X0.060000*%
%ADD29R,0.062900X0.070900*%
%ADD30R,0.076700X0.059000*%
%ADD31R,0.059000X0.076700*%
%ADD32R,0.084600X0.070800*%
%ADD33R,0.070800X0.084600*%
%ADD34R,0.141700X0.070800*%
%ADD35R,0.114100X0.212500*%
%ADD36R,0.009100X0.035400*%
%ADD37R,0.031500X0.009100*%
%ADD38R,0.032300X0.052000*%
%ADD39R,0.009100X0.028500*%
%ADD40R,0.055000X0.035000*%
%ADD41R,0.080000X0.160000*%
%ADD42R,0.036000X0.036000*%
G04 APERTURE END LIST*
G54D10*
G54D11*
X38950Y-56100D02*
X38950Y-31400D01*
X39000Y-56100D02*
X38950Y-56100D01*
X39200Y-56100D02*
X39000Y-56100D01*
X39450Y-56100D02*
X39200Y-56100D01*
X42700Y-56100D02*
X39450Y-56100D01*
X65600Y-56100D02*
X42700Y-56100D01*
X65600Y-31400D02*
X65600Y-56100D01*
X38950Y-31400D02*
X65600Y-31400D01*
G54D12*
X43800Y-52343D03*
X43486Y-52815D03*
X44429Y-52343D03*
X44114Y-52815D03*
G54D13*
X45237Y-54350D03*
X42363Y-54350D03*
G54D12*
X43171Y-52343D03*
G54D14*
X46568Y-50371D03*
X46765Y-50371D03*
X46962Y-50371D03*
X47158Y-50371D03*
X47355Y-50371D03*
X47552Y-50371D03*
X47748Y-50371D03*
X47945Y-50371D03*
X48142Y-50371D03*
X48338Y-50371D03*
X48535Y-50371D03*
X48732Y-50371D03*
G54D15*
X49421Y-49682D03*
X49421Y-49485D03*
X49421Y-49288D03*
X49421Y-49092D03*
X49421Y-48895D03*
X49421Y-48698D03*
X49421Y-48502D03*
X49421Y-48305D03*
X49421Y-48108D03*
X49421Y-47912D03*
X49421Y-47715D03*
X49421Y-47518D03*
G54D14*
X48732Y-46829D03*
X48535Y-46829D03*
X48338Y-46829D03*
X48142Y-46829D03*
X47945Y-46829D03*
X47748Y-46829D03*
X47552Y-46829D03*
X47355Y-46829D03*
X47158Y-46829D03*
X46962Y-46829D03*
X46765Y-46829D03*
X46568Y-46829D03*
G54D15*
X45879Y-47518D03*
X45879Y-47715D03*
X45879Y-47912D03*
X45879Y-48108D03*
X45879Y-48305D03*
X45879Y-48502D03*
X45879Y-48698D03*
X45879Y-48895D03*
X45879Y-49092D03*
X45879Y-49288D03*
X45879Y-49485D03*
X45879Y-49682D03*
G54D16*
X48187Y-53600D03*
X49013Y-53600D03*
X51000Y-45487D03*
X51000Y-46313D03*
X49950Y-45487D03*
X49950Y-46313D03*
X42437Y-48200D03*
X43263Y-48200D03*
G54D17*
X55000Y-45400D03*
X56000Y-45400D03*
X55000Y-46400D03*
X56000Y-46400D03*
X55000Y-47400D03*
X56000Y-47400D03*
X55000Y-48400D03*
X56000Y-48400D03*
X55000Y-49400D03*
X56000Y-49400D03*
X55000Y-50400D03*
X56000Y-50400D03*
X55000Y-51400D03*
X56000Y-51400D03*
X55000Y-52400D03*
X56000Y-52400D03*
X55000Y-53400D03*
X56000Y-53400D03*
X55000Y-54400D03*
X56000Y-54400D03*
G54D18*
X52500Y-48900D03*
X51900Y-48900D03*
X52500Y-47950D03*
X51900Y-47950D03*
X52500Y-46850D03*
X51900Y-46850D03*
G54D19*
X51300Y-49450D03*
X51300Y-50050D03*
X48350Y-51000D03*
X48350Y-51600D03*
X51900Y-50050D03*
X51900Y-49450D03*
X51200Y-48650D03*
X51200Y-48050D03*
X50300Y-49050D03*
X50300Y-49650D03*
X50400Y-48650D03*
X50400Y-48050D03*
G54D18*
X44350Y-48400D03*
X43750Y-48400D03*
G54D19*
X46650Y-52050D03*
X46650Y-52650D03*
G54D18*
X48050Y-52500D03*
X47450Y-52500D03*
X46650Y-53650D03*
X46050Y-53650D03*
G54D19*
X49950Y-44250D03*
X49950Y-44850D03*
X51000Y-44250D03*
X51000Y-44850D03*
X47450Y-54100D03*
X47450Y-53500D03*
G54D18*
X42750Y-48900D03*
X42150Y-48900D03*
G54D19*
X45400Y-51300D03*
X45400Y-50700D03*
G54D18*
X46850Y-51050D03*
X46250Y-51050D03*
X51550Y-53600D03*
X52150Y-53600D03*
X50700Y-53600D03*
X50100Y-53600D03*
X53650Y-46400D03*
X53050Y-46400D03*
X53650Y-47400D03*
X53050Y-47400D03*
X53650Y-48400D03*
X53050Y-48400D03*
X53650Y-49400D03*
X53050Y-49400D03*
X53650Y-51450D03*
X53050Y-51450D03*
X53650Y-52400D03*
X53050Y-52400D03*
G54D19*
X49000Y-51000D03*
X49000Y-51600D03*
G54D18*
X47700Y-46250D03*
X48300Y-46250D03*
G54D19*
X45000Y-49000D03*
X45000Y-49600D03*
X43400Y-49000D03*
X43400Y-49600D03*
X47550Y-51000D03*
X47550Y-51600D03*
X44200Y-49000D03*
X44200Y-49600D03*
X43500Y-50550D03*
X43500Y-51150D03*
G54D18*
X42150Y-49550D03*
X42750Y-49550D03*
G54D19*
X52150Y-44250D03*
X52150Y-44850D03*
G54D18*
X42150Y-50200D03*
X42750Y-50200D03*
G54D19*
X52150Y-45800D03*
X52150Y-45200D03*
G54D18*
X42900Y-51750D03*
X43500Y-51750D03*
X53450Y-44750D03*
X52850Y-44750D03*
G54D20*
X42175Y-50900D03*
X42925Y-50900D03*
X53475Y-45400D03*
X52725Y-45400D03*
G54D21*
X50775Y-52050D03*
X50025Y-52050D03*
X50775Y-53050D03*
X50400Y-52050D03*
X50025Y-53050D03*
X52225Y-52100D03*
X51475Y-52100D03*
X52225Y-53100D03*
X51850Y-52100D03*
X51475Y-53100D03*
G54D22*
X44075Y-50300D03*
X44450Y-50300D03*
X44825Y-50300D03*
X44825Y-51300D03*
X44450Y-51300D03*
X44075Y-51300D03*
G54D23*
X44684Y-46700D03*
G54D24*
X43700Y-46700D03*
G54D23*
X42716Y-46700D03*
G54D25*
X64225Y-42975D03*
X64225Y-42660D03*
X64225Y-42345D03*
X64225Y-42030D03*
X64225Y-41715D03*
X64225Y-41400D03*
X64225Y-43290D03*
X64225Y-43605D03*
X64225Y-43920D03*
X64225Y-44235D03*
X64225Y-44550D03*
X59725Y-42975D03*
X59725Y-42660D03*
X59725Y-42345D03*
X59725Y-42030D03*
X59725Y-41715D03*
X59725Y-41400D03*
X59725Y-43290D03*
X59725Y-43605D03*
X59725Y-43920D03*
X59725Y-44235D03*
X59725Y-44550D03*
G54D26*
X61975Y-40725D03*
X61975Y-45225D03*
X61660Y-40725D03*
X61660Y-45225D03*
X61345Y-45225D03*
X61345Y-40725D03*
X61030Y-40725D03*
X61030Y-45225D03*
X60715Y-45225D03*
X60715Y-40725D03*
X60400Y-40725D03*
X60400Y-45225D03*
X62290Y-45225D03*
X62290Y-40725D03*
X62605Y-40725D03*
X62605Y-45225D03*
X62920Y-45225D03*
X62920Y-40725D03*
X63235Y-40725D03*
X63235Y-45225D03*
X63550Y-45225D03*
X63550Y-40725D03*
G54D21*
X60850Y-52175D03*
X60100Y-52175D03*
X60850Y-53175D03*
X60475Y-52175D03*
X60100Y-53175D03*
G54D18*
X60775Y-51575D03*
X60175Y-51575D03*
X60775Y-53725D03*
X60175Y-53725D03*
G54D19*
X61575Y-52825D03*
X61575Y-52225D03*
X62875Y-52825D03*
X62875Y-52225D03*
X62275Y-52225D03*
X62275Y-52825D03*
G54D18*
X62875Y-53375D03*
X62275Y-53375D03*
G54D16*
X63588Y-51575D03*
X62762Y-51575D03*
G54D27*
X40630Y-32850D03*
X40630Y-34450D03*
G54D28*
X53350Y-42500D03*
X53350Y-39843D03*
X41600Y-40000D03*
X41600Y-42657D03*
G54D29*
X55159Y-32450D03*
X54041Y-32450D03*
X51259Y-32450D03*
X50141Y-32450D03*
G54D30*
X50341Y-34200D03*
X49259Y-34200D03*
G54D31*
X51550Y-40591D03*
X51550Y-39509D03*
G54D30*
X45291Y-39750D03*
X44209Y-39750D03*
G54D32*
X42300Y-38789D03*
X42300Y-37511D03*
G54D33*
X56539Y-41650D03*
X55261Y-41650D03*
G54D32*
X44650Y-37461D03*
X44650Y-38739D03*
G54D34*
X44350Y-36050D03*
X44350Y-32650D03*
G54D35*
X53000Y-34302D03*
X53000Y-38198D03*
G54D36*
X48192Y-36994D03*
X48408Y-36994D03*
X48408Y-38706D03*
X48192Y-38706D03*
G54D10*
G36*
X47959Y-37133D02*
X47959Y-36819D01*
X48049Y-36819D01*
X48049Y-37133D01*
X47959Y-37133D01*
X47959Y-37133D01*
G37*
G36*
X48551Y-37133D02*
X48551Y-36819D01*
X48641Y-36819D01*
X48641Y-37133D01*
X48551Y-37133D01*
X48551Y-37133D01*
G37*
G36*
X47959Y-38881D02*
X47959Y-38567D01*
X48049Y-38567D01*
X48049Y-38881D01*
X47959Y-38881D01*
X47959Y-38881D01*
G37*
G36*
X48551Y-38881D02*
X48551Y-38567D01*
X48641Y-38567D01*
X48641Y-38881D01*
X48551Y-38881D01*
X48551Y-38881D01*
G37*
G54D37*
X48979Y-38145D03*
X48979Y-38342D03*
X48979Y-38539D03*
X48979Y-37161D03*
X48979Y-37358D03*
X48979Y-37555D03*
X48979Y-37752D03*
X48979Y-37948D03*
X47621Y-37948D03*
X47621Y-37752D03*
X47621Y-37555D03*
X47621Y-37358D03*
X47621Y-37161D03*
X47621Y-38342D03*
X47621Y-38145D03*
X47621Y-38539D03*
G54D38*
X48100Y-38150D03*
X48500Y-38150D03*
X48500Y-37550D03*
G54D39*
X48192Y-36950D03*
X48408Y-36950D03*
X48408Y-38750D03*
X48192Y-38750D03*
G54D38*
X48100Y-37550D03*
G54D20*
X50925Y-33250D03*
X51675Y-33250D03*
X44025Y-41300D03*
X43275Y-41300D03*
X43275Y-40550D03*
X44025Y-40550D03*
X47700Y-34450D03*
X46950Y-34450D03*
X54225Y-33250D03*
X54975Y-33250D03*
G54D40*
X47000Y-35925D03*
X47000Y-35175D03*
X47700Y-35175D03*
X47700Y-35925D03*
G54D20*
X46625Y-36550D03*
X45875Y-36550D03*
X46600Y-37325D03*
X45850Y-37325D03*
X49800Y-37075D03*
X50550Y-37075D03*
X43275Y-42050D03*
X44025Y-42050D03*
X49825Y-36050D03*
X50575Y-36050D03*
X46475Y-38075D03*
X45725Y-38075D03*
X50025Y-37775D03*
X50775Y-37775D03*
X49775Y-38750D03*
X50525Y-38750D03*
X46775Y-38950D03*
X46025Y-38950D03*
G54D40*
X49050Y-35875D03*
X49050Y-35125D03*
G54D41*
X44950Y-41850D03*
X47150Y-41850D03*
X51400Y-42050D03*
X49200Y-42050D03*
G54D42*
X47200Y-39900D03*
X47200Y-40700D03*
X46350Y-40300D03*
X49250Y-40700D03*
X49250Y-39900D03*
X50100Y-40300D03*
M02*
