G04 (created by PCBNEW-RS274X (2010-03-14)-final) date vie 11 nov 2011 19:20:16 ART*
G01*
G70*
G90*
%MOIN*%
G04 Gerber Fmt 3.4, Leading zero omitted, Abs format*
%FSLAX34Y34*%
G04 APERTURE LIST*
%ADD10C,0.000100*%
%ADD11C,0.015000*%
%ADD12C,0.060000*%
%ADD13O,0.060000X0.120000*%
%ADD14O,0.120000X0.060000*%
%ADD15C,0.029800*%
%ADD16C,0.010000*%
%ADD17C,0.006900*%
G04 APERTURE END LIST*
G54D10*
G54D11*
X67850Y-62400D02*
X67850Y-55200D01*
X75450Y-62400D02*
X67850Y-62400D01*
X75450Y-55200D02*
X75450Y-62400D01*
X67850Y-55200D02*
X75450Y-55200D01*
G54D12*
X69400Y-56850D03*
X68400Y-56850D03*
X69400Y-57850D03*
X68400Y-57850D03*
X69400Y-58850D03*
X68400Y-58850D03*
X69400Y-59850D03*
X68400Y-59850D03*
X69400Y-60850D03*
X68400Y-60850D03*
G54D13*
X72850Y-61300D03*
X71850Y-61300D03*
X70850Y-61300D03*
G54D14*
X74650Y-55800D03*
X74650Y-56800D03*
X74650Y-57800D03*
X74650Y-58800D03*
X74650Y-59800D03*
X74650Y-60800D03*
X74650Y-61800D03*
G54D15*
X73700Y-60750D03*
X72100Y-57300D03*
X70000Y-60700D03*
X70050Y-57600D03*
X71800Y-55750D03*
G54D16*
X73700Y-60750D02*
X73700Y-58900D01*
X73700Y-58900D02*
X72100Y-57300D01*
X72850Y-61300D02*
X74150Y-61300D01*
X74150Y-61300D02*
X74650Y-60800D01*
X70200Y-58650D02*
X69400Y-57850D01*
X70200Y-60500D02*
X70200Y-58650D01*
X70000Y-60700D02*
X70200Y-60500D01*
X68900Y-57350D02*
X68400Y-57850D01*
X69800Y-57350D02*
X68900Y-57350D01*
X70050Y-57600D02*
X69800Y-57350D01*
X70850Y-61200D02*
X70850Y-61300D01*
X71800Y-60250D02*
X70850Y-61200D01*
X71800Y-55750D02*
X71800Y-60250D01*
G54D17*
X71934Y-55284D02*
X75365Y-55284D01*
X71934Y-55340D02*
X75365Y-55340D01*
X71934Y-55396D02*
X75365Y-55396D01*
X71934Y-55452D02*
X74146Y-55452D01*
X75154Y-55452D02*
X75365Y-55452D01*
X71934Y-55508D02*
X74071Y-55508D01*
X75229Y-55508D02*
X75365Y-55508D01*
X71969Y-55564D02*
X74015Y-55564D01*
X75285Y-55564D02*
X75365Y-55564D01*
X72018Y-55620D02*
X73985Y-55620D01*
X75316Y-55620D02*
X75365Y-55620D01*
X72042Y-55676D02*
X73961Y-55676D01*
X75339Y-55676D02*
X75365Y-55676D01*
X72051Y-55732D02*
X73942Y-55732D01*
X75358Y-55732D02*
X75365Y-55732D01*
X72051Y-55788D02*
X73942Y-55788D01*
X75358Y-55788D02*
X75365Y-55788D01*
X72032Y-55844D02*
X73942Y-55844D01*
X75358Y-55844D02*
X75365Y-55844D01*
X72005Y-55900D02*
X73951Y-55900D01*
X75349Y-55900D02*
X75365Y-55900D01*
X71953Y-55956D02*
X73974Y-55956D01*
X75325Y-55956D02*
X75365Y-55956D01*
X71953Y-56012D02*
X73997Y-56012D01*
X75302Y-56012D02*
X75365Y-56012D01*
X71953Y-56068D02*
X74047Y-56068D01*
X75253Y-56068D02*
X75365Y-56068D01*
X71953Y-56124D02*
X74103Y-56124D01*
X75197Y-56124D02*
X75365Y-56124D01*
X71953Y-56180D02*
X74222Y-56180D01*
X75077Y-56180D02*
X75365Y-56180D01*
X71953Y-56236D02*
X75365Y-56236D01*
X71953Y-56292D02*
X75365Y-56292D01*
X71953Y-56348D02*
X75365Y-56348D01*
X71953Y-56404D02*
X75365Y-56404D01*
X71953Y-56460D02*
X74126Y-56460D01*
X75173Y-56460D02*
X75365Y-56460D01*
X71953Y-56516D02*
X74063Y-56516D01*
X75237Y-56516D02*
X75365Y-56516D01*
X71953Y-56572D02*
X74007Y-56572D01*
X75293Y-56572D02*
X75365Y-56572D01*
X71953Y-56628D02*
X73982Y-56628D01*
X75320Y-56628D02*
X75365Y-56628D01*
X71953Y-56684D02*
X73958Y-56684D01*
X75343Y-56684D02*
X75365Y-56684D01*
X71953Y-56740D02*
X73942Y-56740D01*
X75358Y-56740D02*
X75365Y-56740D01*
X71953Y-56796D02*
X73942Y-56796D01*
X75358Y-56796D02*
X75365Y-56796D01*
X71953Y-56852D02*
X73942Y-56852D01*
X75358Y-56852D02*
X75365Y-56852D01*
X71953Y-56908D02*
X73954Y-56908D01*
X75345Y-56908D02*
X75365Y-56908D01*
X71953Y-56964D02*
X73977Y-56964D01*
X75322Y-56964D02*
X75365Y-56964D01*
X71953Y-57020D02*
X74000Y-57020D01*
X75298Y-57020D02*
X75365Y-57020D01*
X71953Y-57076D02*
X74055Y-57076D01*
X75245Y-57076D02*
X75365Y-57076D01*
X71953Y-57132D02*
X74111Y-57132D01*
X75189Y-57132D02*
X75365Y-57132D01*
X71953Y-57188D02*
X74241Y-57188D01*
X75057Y-57188D02*
X75365Y-57188D01*
X71953Y-57244D02*
X75365Y-57244D01*
X71953Y-57300D02*
X75365Y-57300D01*
X71953Y-57356D02*
X75365Y-57356D01*
X71953Y-57412D02*
X74242Y-57412D01*
X75059Y-57412D02*
X75365Y-57412D01*
X71953Y-57468D02*
X74111Y-57468D01*
X75189Y-57468D02*
X75365Y-57468D01*
X71953Y-57524D02*
X74055Y-57524D01*
X75245Y-57524D02*
X75365Y-57524D01*
X71953Y-57580D02*
X74002Y-57580D01*
X75300Y-57580D02*
X75365Y-57580D01*
X71953Y-57636D02*
X73978Y-57636D01*
X75323Y-57636D02*
X75365Y-57636D01*
X71953Y-57692D02*
X73955Y-57692D01*
X75346Y-57692D02*
X75365Y-57692D01*
X71953Y-57748D02*
X73942Y-57748D01*
X75358Y-57748D02*
X75365Y-57748D01*
X71953Y-57804D02*
X73942Y-57804D01*
X75358Y-57804D02*
X75365Y-57804D01*
X71953Y-57860D02*
X73942Y-57860D01*
X75358Y-57860D02*
X75365Y-57860D01*
X71953Y-57916D02*
X73957Y-57916D01*
X75342Y-57916D02*
X75365Y-57916D01*
X71953Y-57972D02*
X73980Y-57972D01*
X75318Y-57972D02*
X75365Y-57972D01*
X71953Y-58028D02*
X74007Y-58028D01*
X75293Y-58028D02*
X75365Y-58028D01*
X71953Y-58084D02*
X74063Y-58084D01*
X75237Y-58084D02*
X75365Y-58084D01*
X71953Y-58140D02*
X74127Y-58140D01*
X75173Y-58140D02*
X75365Y-58140D01*
X71953Y-58196D02*
X75365Y-58196D01*
X71953Y-58252D02*
X75365Y-58252D01*
X71953Y-58308D02*
X75365Y-58308D01*
X71953Y-58364D02*
X75365Y-58364D01*
X71953Y-58420D02*
X74222Y-58420D01*
X75078Y-58420D02*
X75365Y-58420D01*
X71953Y-58476D02*
X74103Y-58476D01*
X75197Y-58476D02*
X75365Y-58476D01*
X71953Y-58532D02*
X74047Y-58532D01*
X75253Y-58532D02*
X75365Y-58532D01*
X71953Y-58588D02*
X73998Y-58588D01*
X75303Y-58588D02*
X75365Y-58588D01*
X71953Y-58644D02*
X73975Y-58644D01*
X75326Y-58644D02*
X75365Y-58644D01*
X71953Y-58700D02*
X73951Y-58700D01*
X75349Y-58700D02*
X75365Y-58700D01*
X71953Y-58756D02*
X73942Y-58756D01*
X75358Y-58756D02*
X75365Y-58756D01*
X71953Y-58812D02*
X73942Y-58812D01*
X75358Y-58812D02*
X75365Y-58812D01*
X71953Y-58868D02*
X73942Y-58868D01*
X75358Y-58868D02*
X75365Y-58868D01*
X71953Y-58924D02*
X73961Y-58924D01*
X75339Y-58924D02*
X75365Y-58924D01*
X71953Y-58980D02*
X73984Y-58980D01*
X75315Y-58980D02*
X75365Y-58980D01*
X71953Y-59036D02*
X74015Y-59036D01*
X75285Y-59036D02*
X75365Y-59036D01*
X71953Y-59092D02*
X74071Y-59092D01*
X75229Y-59092D02*
X75365Y-59092D01*
X71953Y-59148D02*
X74146Y-59148D01*
X75154Y-59148D02*
X75365Y-59148D01*
X71953Y-59204D02*
X75365Y-59204D01*
X71953Y-59260D02*
X75365Y-59260D01*
X71953Y-59316D02*
X75365Y-59316D01*
X71953Y-59372D02*
X75365Y-59372D01*
X71953Y-59428D02*
X74203Y-59428D01*
X75097Y-59428D02*
X75365Y-59428D01*
X71953Y-59484D02*
X74095Y-59484D01*
X75205Y-59484D02*
X75365Y-59484D01*
X71953Y-59540D02*
X74039Y-59540D01*
X75261Y-59540D02*
X75365Y-59540D01*
X71953Y-59596D02*
X73995Y-59596D01*
X75306Y-59596D02*
X75365Y-59596D01*
X71953Y-59652D02*
X73972Y-59652D01*
X75330Y-59652D02*
X75365Y-59652D01*
X71953Y-59708D02*
X73948Y-59708D01*
X75353Y-59708D02*
X75365Y-59708D01*
X71953Y-59764D02*
X73942Y-59764D01*
X75358Y-59764D02*
X75365Y-59764D01*
X71953Y-59820D02*
X73942Y-59820D01*
X75358Y-59820D02*
X75365Y-59820D01*
X71953Y-59876D02*
X73942Y-59876D01*
X75358Y-59876D02*
X75365Y-59876D01*
X71953Y-59932D02*
X73964Y-59932D01*
X75335Y-59932D02*
X75365Y-59932D01*
X71953Y-59988D02*
X73987Y-59988D01*
X75312Y-59988D02*
X75365Y-59988D01*
X71953Y-60044D02*
X74023Y-60044D01*
X75277Y-60044D02*
X75365Y-60044D01*
X71953Y-60100D02*
X74079Y-60100D01*
X75221Y-60100D02*
X75365Y-60100D01*
X71953Y-60156D02*
X74165Y-60156D01*
X75135Y-60156D02*
X75365Y-60156D01*
X71953Y-60212D02*
X75365Y-60212D01*
X71949Y-60268D02*
X75365Y-60268D01*
X71934Y-60324D02*
X75365Y-60324D01*
X71934Y-60380D02*
X75365Y-60380D01*
X71934Y-60436D02*
X74184Y-60436D01*
X75116Y-60436D02*
X75365Y-60436D01*
X71934Y-60492D02*
X74087Y-60492D01*
X75213Y-60492D02*
X75365Y-60492D01*
X71934Y-60548D02*
X74031Y-60548D01*
X75269Y-60548D02*
X75365Y-60548D01*
X71958Y-60604D02*
X72743Y-60604D01*
X72958Y-60604D02*
X73992Y-60604D01*
X75310Y-60604D02*
X75365Y-60604D01*
X72081Y-60660D02*
X72619Y-60660D01*
X73081Y-60660D02*
X73968Y-60660D01*
X75333Y-60660D02*
X75365Y-60660D01*
X72137Y-60716D02*
X72563Y-60716D01*
X73137Y-60716D02*
X73945Y-60716D01*
X75356Y-60716D02*
X75365Y-60716D01*
X72189Y-60772D02*
X72513Y-60772D01*
X73189Y-60772D02*
X73942Y-60772D01*
X75358Y-60772D02*
X75365Y-60772D01*
X72212Y-60828D02*
X72489Y-60828D01*
X73212Y-60828D02*
X73942Y-60828D01*
X75358Y-60828D02*
X75365Y-60828D01*
X72235Y-60884D02*
X72466Y-60884D01*
X73235Y-60884D02*
X73944Y-60884D01*
X75355Y-60884D02*
X75365Y-60884D01*
X72245Y-60940D02*
X72455Y-60940D01*
X73245Y-60940D02*
X73967Y-60940D01*
X75332Y-60940D02*
X75365Y-60940D01*
X72245Y-60996D02*
X72455Y-60996D01*
X73245Y-60996D02*
X73990Y-60996D01*
X75308Y-60996D02*
X75365Y-60996D01*
X72245Y-61052D02*
X72455Y-61052D01*
X73245Y-61052D02*
X74031Y-61052D01*
X75269Y-61052D02*
X75365Y-61052D01*
X72245Y-61108D02*
X72455Y-61108D01*
X73245Y-61108D02*
X74087Y-61108D01*
X75213Y-61108D02*
X75365Y-61108D01*
X72245Y-61164D02*
X72455Y-61164D01*
X75115Y-61164D02*
X75365Y-61164D01*
X72245Y-61220D02*
X72455Y-61220D01*
X74446Y-61220D02*
X75365Y-61220D01*
X72245Y-61276D02*
X72455Y-61276D01*
X74585Y-61276D02*
X74715Y-61276D01*
X75062Y-61276D02*
X75365Y-61276D01*
X72245Y-61332D02*
X72455Y-61332D01*
X74585Y-61332D02*
X74715Y-61332D01*
X75214Y-61332D02*
X75365Y-61332D01*
X72245Y-61388D02*
X72455Y-61388D01*
X74585Y-61388D02*
X74715Y-61388D01*
X75286Y-61388D02*
X75365Y-61388D01*
X72245Y-61444D02*
X72455Y-61444D01*
X74585Y-61444D02*
X74715Y-61444D01*
X75347Y-61444D02*
X75365Y-61444D01*
X72245Y-61500D02*
X72455Y-61500D01*
X73245Y-61500D02*
X73905Y-61500D01*
X74585Y-61500D02*
X74715Y-61500D01*
X72245Y-61556D02*
X72455Y-61556D01*
X73245Y-61556D02*
X73881Y-61556D01*
X74585Y-61556D02*
X74715Y-61556D01*
X72245Y-61612D02*
X72455Y-61612D01*
X73245Y-61612D02*
X73856Y-61612D01*
X74585Y-61612D02*
X74715Y-61612D01*
X72245Y-61668D02*
X72455Y-61668D01*
X73245Y-61668D02*
X73844Y-61668D01*
X74585Y-61668D02*
X74715Y-61668D01*
X72231Y-61724D02*
X72468Y-61724D01*
X73231Y-61724D02*
X73873Y-61724D01*
X74585Y-61724D02*
X74715Y-61724D01*
X72207Y-61780D02*
X72491Y-61780D01*
X73207Y-61780D02*
X74715Y-61780D01*
X72184Y-61836D02*
X72515Y-61836D01*
X73184Y-61836D02*
X74715Y-61836D01*
X72129Y-61892D02*
X72571Y-61892D01*
X73129Y-61892D02*
X73866Y-61892D01*
X72073Y-61948D02*
X72628Y-61948D01*
X73073Y-61948D02*
X73837Y-61948D01*
X71936Y-62004D02*
X72761Y-62004D01*
X72937Y-62004D02*
X73862Y-62004D01*
X71934Y-62060D02*
X73887Y-62060D01*
X71934Y-62116D02*
X73912Y-62116D01*
X71934Y-62172D02*
X73971Y-62172D01*
X71934Y-62228D02*
X74032Y-62228D01*
X71934Y-62284D02*
X74130Y-62284D01*
X74214Y-62315D02*
X74068Y-62261D01*
X73913Y-62118D01*
X73837Y-61947D01*
X73879Y-61865D01*
X74585Y-61865D01*
X74715Y-61865D01*
X74715Y-61735D01*
X74715Y-61266D01*
X75034Y-61266D01*
X75232Y-61339D01*
X75365Y-61461D01*
X75365Y-55284D01*
X71934Y-55284D01*
X71934Y-55533D01*
X71942Y-55537D01*
X72013Y-55608D01*
X72051Y-55700D01*
X72051Y-55800D01*
X72013Y-55892D01*
X71953Y-55952D01*
X71953Y-60250D01*
X71941Y-60309D01*
X71934Y-60319D01*
X71934Y-60594D01*
X72074Y-60653D01*
X72185Y-60764D01*
X72245Y-60909D01*
X72245Y-61692D01*
X72184Y-61837D01*
X72073Y-61948D01*
X71934Y-62005D01*
X71934Y-62315D01*
X72771Y-62315D01*
X72771Y-62008D01*
X72626Y-61947D01*
X72515Y-61836D01*
X72455Y-61691D01*
X72455Y-60908D01*
X72516Y-60763D01*
X72627Y-60652D01*
X72772Y-60592D01*
X72929Y-60592D01*
X73074Y-60653D01*
X73185Y-60764D01*
X73245Y-60909D01*
X73245Y-61147D01*
X74087Y-61147D01*
X74106Y-61127D01*
X74002Y-61023D01*
X73942Y-60878D01*
X73942Y-60721D01*
X74003Y-60576D01*
X74114Y-60465D01*
X74258Y-60405D01*
X74258Y-60195D01*
X74113Y-60134D01*
X74002Y-60023D01*
X73942Y-59878D01*
X73942Y-59721D01*
X74003Y-59576D01*
X74114Y-59465D01*
X74258Y-59405D01*
X74258Y-59195D01*
X74113Y-59134D01*
X74002Y-59023D01*
X73942Y-58878D01*
X73942Y-58721D01*
X74003Y-58576D01*
X74114Y-58465D01*
X74258Y-58405D01*
X74258Y-58195D01*
X74113Y-58134D01*
X74002Y-58023D01*
X73942Y-57878D01*
X73942Y-57721D01*
X74003Y-57576D01*
X74114Y-57465D01*
X74258Y-57405D01*
X74258Y-57195D01*
X74113Y-57134D01*
X74002Y-57023D01*
X73942Y-56878D01*
X73942Y-56721D01*
X74003Y-56576D01*
X74114Y-56465D01*
X74258Y-56405D01*
X74258Y-56195D01*
X74113Y-56134D01*
X74002Y-56023D01*
X73942Y-55878D01*
X73942Y-55721D01*
X74003Y-55576D01*
X74114Y-55465D01*
X74259Y-55405D01*
X75042Y-55405D01*
X75187Y-55466D01*
X75298Y-55577D01*
X75358Y-55722D01*
X75358Y-55879D01*
X75297Y-56024D01*
X75186Y-56135D01*
X75041Y-56195D01*
X74258Y-56195D01*
X74258Y-56405D01*
X75042Y-56405D01*
X75187Y-56466D01*
X75298Y-56577D01*
X75358Y-56722D01*
X75358Y-56879D01*
X75297Y-57024D01*
X75186Y-57135D01*
X75041Y-57195D01*
X74258Y-57195D01*
X74258Y-57405D01*
X75042Y-57405D01*
X75187Y-57466D01*
X75298Y-57577D01*
X75358Y-57722D01*
X75358Y-57879D01*
X75297Y-58024D01*
X75186Y-58135D01*
X75041Y-58195D01*
X74258Y-58195D01*
X74258Y-58405D01*
X75042Y-58405D01*
X75187Y-58466D01*
X75298Y-58577D01*
X75358Y-58722D01*
X75358Y-58879D01*
X75297Y-59024D01*
X75186Y-59135D01*
X75041Y-59195D01*
X74258Y-59195D01*
X74258Y-59405D01*
X75042Y-59405D01*
X75187Y-59466D01*
X75298Y-59577D01*
X75358Y-59722D01*
X75358Y-59879D01*
X75297Y-60024D01*
X75186Y-60135D01*
X75041Y-60195D01*
X74258Y-60195D01*
X74258Y-60405D01*
X75042Y-60405D01*
X75187Y-60466D01*
X75298Y-60577D01*
X75358Y-60722D01*
X75358Y-60879D01*
X75297Y-61024D01*
X75186Y-61135D01*
X75041Y-61195D01*
X74471Y-61195D01*
X74400Y-61266D01*
X74585Y-61266D01*
X74585Y-61735D01*
X73879Y-61735D01*
X73837Y-61653D01*
X73913Y-61482D01*
X73944Y-61453D01*
X73245Y-61453D01*
X73245Y-61692D01*
X73184Y-61837D01*
X73073Y-61948D01*
X72928Y-62008D01*
X72771Y-62008D01*
X72771Y-62315D01*
X74214Y-62315D01*
X67934Y-55284D02*
X71665Y-55284D01*
X67934Y-55340D02*
X71665Y-55340D01*
X67934Y-55396D02*
X71665Y-55396D01*
X67934Y-55452D02*
X71665Y-55452D01*
X67934Y-55508D02*
X71665Y-55508D01*
X67934Y-55564D02*
X71631Y-55564D01*
X67934Y-55620D02*
X71583Y-55620D01*
X67934Y-55676D02*
X71559Y-55676D01*
X67934Y-55732D02*
X71549Y-55732D01*
X67934Y-55788D02*
X71549Y-55788D01*
X67934Y-55844D02*
X71567Y-55844D01*
X67934Y-55900D02*
X71595Y-55900D01*
X67934Y-55956D02*
X71647Y-55956D01*
X67934Y-56012D02*
X71647Y-56012D01*
X67934Y-56068D02*
X71647Y-56068D01*
X67934Y-56124D02*
X71647Y-56124D01*
X67934Y-56180D02*
X71647Y-56180D01*
X67934Y-56236D02*
X71647Y-56236D01*
X67934Y-56292D02*
X71647Y-56292D01*
X67934Y-56348D02*
X68227Y-56348D01*
X68549Y-56348D02*
X71647Y-56348D01*
X67934Y-56404D02*
X68135Y-56404D01*
X68666Y-56404D02*
X71647Y-56404D01*
X67934Y-56460D02*
X68117Y-56460D01*
X68684Y-56460D02*
X69291Y-56460D01*
X69510Y-56460D02*
X71647Y-56460D01*
X67934Y-56516D02*
X68158Y-56516D01*
X68642Y-56516D02*
X69165Y-56516D01*
X69635Y-56516D02*
X71647Y-56516D01*
X67934Y-56572D02*
X67992Y-56572D01*
X68030Y-56572D02*
X68214Y-56572D01*
X68586Y-56572D02*
X68770Y-56572D01*
X68808Y-56572D02*
X69109Y-56572D01*
X69691Y-56572D02*
X71647Y-56572D01*
X68086Y-56628D02*
X68270Y-56628D01*
X68530Y-56628D02*
X68714Y-56628D01*
X68883Y-56628D02*
X69057Y-56628D01*
X69744Y-56628D02*
X71647Y-56628D01*
X68142Y-56684D02*
X68326Y-56684D01*
X68474Y-56684D02*
X68658Y-56684D01*
X68906Y-56684D02*
X69034Y-56684D01*
X69767Y-56684D02*
X71647Y-56684D01*
X68198Y-56740D02*
X68382Y-56740D01*
X68418Y-56740D02*
X68602Y-56740D01*
X68917Y-56740D02*
X69011Y-56740D01*
X69790Y-56740D02*
X71647Y-56740D01*
X68254Y-56796D02*
X68546Y-56796D01*
X68921Y-56796D02*
X68998Y-56796D01*
X69802Y-56796D02*
X71647Y-56796D01*
X68306Y-56852D02*
X68494Y-56852D01*
X68926Y-56852D02*
X68998Y-56852D01*
X69802Y-56852D02*
X71647Y-56852D01*
X68250Y-56908D02*
X68550Y-56908D01*
X68930Y-56908D02*
X68998Y-56908D01*
X69802Y-56908D02*
X71647Y-56908D01*
X68194Y-56964D02*
X68378Y-56964D01*
X68422Y-56964D02*
X68606Y-56964D01*
X68913Y-56964D02*
X69012Y-56964D01*
X69787Y-56964D02*
X71647Y-56964D01*
X68138Y-57020D02*
X68322Y-57020D01*
X68478Y-57020D02*
X68662Y-57020D01*
X68895Y-57020D02*
X69035Y-57020D01*
X69764Y-57020D02*
X71647Y-57020D01*
X68082Y-57076D02*
X68266Y-57076D01*
X68534Y-57076D02*
X68718Y-57076D01*
X68877Y-57076D02*
X69058Y-57076D01*
X69741Y-57076D02*
X71647Y-57076D01*
X67934Y-57132D02*
X68005Y-57132D01*
X68026Y-57132D02*
X68210Y-57132D01*
X68590Y-57132D02*
X68774Y-57132D01*
X68794Y-57132D02*
X69113Y-57132D01*
X69687Y-57132D02*
X71647Y-57132D01*
X67934Y-57188D02*
X68154Y-57188D01*
X68646Y-57188D02*
X69169Y-57188D01*
X69631Y-57188D02*
X71647Y-57188D01*
X67934Y-57244D02*
X68117Y-57244D01*
X68682Y-57244D02*
X68790Y-57244D01*
X69910Y-57244D02*
X71647Y-57244D01*
X67934Y-57300D02*
X68135Y-57300D01*
X68664Y-57300D02*
X68733Y-57300D01*
X69966Y-57300D02*
X71647Y-57300D01*
X67934Y-57356D02*
X68263Y-57356D01*
X68564Y-57356D02*
X68677Y-57356D01*
X70117Y-57356D02*
X71647Y-57356D01*
X67934Y-57412D02*
X68621Y-57412D01*
X70217Y-57412D02*
X71647Y-57412D01*
X67934Y-57468D02*
X68272Y-57468D01*
X68530Y-57468D02*
X68565Y-57468D01*
X70268Y-57468D02*
X71647Y-57468D01*
X67934Y-57524D02*
X68157Y-57524D01*
X68941Y-57524D02*
X69157Y-57524D01*
X69643Y-57524D02*
X69757Y-57524D01*
X70291Y-57524D02*
X71647Y-57524D01*
X67934Y-57580D02*
X68101Y-57580D01*
X68885Y-57580D02*
X69101Y-57580D01*
X69699Y-57580D02*
X69799Y-57580D01*
X70301Y-57580D02*
X71647Y-57580D01*
X67934Y-57636D02*
X68054Y-57636D01*
X68829Y-57636D02*
X69054Y-57636D01*
X69747Y-57636D02*
X69799Y-57636D01*
X70301Y-57636D02*
X71647Y-57636D01*
X67934Y-57692D02*
X68031Y-57692D01*
X68773Y-57692D02*
X69031Y-57692D01*
X69770Y-57692D02*
X69816Y-57692D01*
X70283Y-57692D02*
X71647Y-57692D01*
X67934Y-57748D02*
X68008Y-57748D01*
X68794Y-57748D02*
X69008Y-57748D01*
X69793Y-57748D02*
X69843Y-57748D01*
X70257Y-57748D02*
X71647Y-57748D01*
X67934Y-57804D02*
X67998Y-57804D01*
X68802Y-57804D02*
X68998Y-57804D01*
X69802Y-57804D02*
X69899Y-57804D01*
X70201Y-57804D02*
X71647Y-57804D01*
X67934Y-57860D02*
X67998Y-57860D01*
X68802Y-57860D02*
X68998Y-57860D01*
X69802Y-57860D02*
X71647Y-57860D01*
X67934Y-57916D02*
X67998Y-57916D01*
X68802Y-57916D02*
X68998Y-57916D01*
X69802Y-57916D02*
X71647Y-57916D01*
X67934Y-57972D02*
X68015Y-57972D01*
X68784Y-57972D02*
X69015Y-57972D01*
X69784Y-57972D02*
X71647Y-57972D01*
X67934Y-58028D02*
X68038Y-58028D01*
X68761Y-58028D02*
X69038Y-58028D01*
X69794Y-58028D02*
X71647Y-58028D01*
X67934Y-58084D02*
X68065Y-58084D01*
X68735Y-58084D02*
X69065Y-58084D01*
X69850Y-58084D02*
X71647Y-58084D01*
X67934Y-58140D02*
X68121Y-58140D01*
X68679Y-58140D02*
X69121Y-58140D01*
X69906Y-58140D02*
X71647Y-58140D01*
X67934Y-58196D02*
X68184Y-58196D01*
X68615Y-58196D02*
X69184Y-58196D01*
X69962Y-58196D02*
X71647Y-58196D01*
X67934Y-58252D02*
X69586Y-58252D01*
X70018Y-58252D02*
X71647Y-58252D01*
X67934Y-58308D02*
X69642Y-58308D01*
X70074Y-58308D02*
X71647Y-58308D01*
X67934Y-58364D02*
X69698Y-58364D01*
X70130Y-58364D02*
X71647Y-58364D01*
X67934Y-58420D02*
X69754Y-58420D01*
X70186Y-58420D02*
X71647Y-58420D01*
X67934Y-58476D02*
X68253Y-58476D01*
X68548Y-58476D02*
X69253Y-58476D01*
X69548Y-58476D02*
X69810Y-58476D01*
X70242Y-58476D02*
X71647Y-58476D01*
X67934Y-58532D02*
X68149Y-58532D01*
X68651Y-58532D02*
X69149Y-58532D01*
X69651Y-58532D02*
X69866Y-58532D01*
X70298Y-58532D02*
X71647Y-58532D01*
X67934Y-58588D02*
X68093Y-58588D01*
X68707Y-58588D02*
X69093Y-58588D01*
X69707Y-58588D02*
X69922Y-58588D01*
X70339Y-58588D02*
X71647Y-58588D01*
X67934Y-58644D02*
X68050Y-58644D01*
X68751Y-58644D02*
X69050Y-58644D01*
X69751Y-58644D02*
X69978Y-58644D01*
X70352Y-58644D02*
X71647Y-58644D01*
X67934Y-58700D02*
X68027Y-58700D01*
X68774Y-58700D02*
X69027Y-58700D01*
X69774Y-58700D02*
X70034Y-58700D01*
X70353Y-58700D02*
X71647Y-58700D01*
X67934Y-58756D02*
X68004Y-58756D01*
X68797Y-58756D02*
X69004Y-58756D01*
X69797Y-58756D02*
X70047Y-58756D01*
X70353Y-58756D02*
X71647Y-58756D01*
X67934Y-58812D02*
X67998Y-58812D01*
X68802Y-58812D02*
X68998Y-58812D01*
X69802Y-58812D02*
X70047Y-58812D01*
X70353Y-58812D02*
X71647Y-58812D01*
X67934Y-58868D02*
X67998Y-58868D01*
X68802Y-58868D02*
X68998Y-58868D01*
X69802Y-58868D02*
X70047Y-58868D01*
X70353Y-58868D02*
X71647Y-58868D01*
X67934Y-58924D02*
X67998Y-58924D01*
X68802Y-58924D02*
X68998Y-58924D01*
X69802Y-58924D02*
X70047Y-58924D01*
X70353Y-58924D02*
X71647Y-58924D01*
X67934Y-58980D02*
X68018Y-58980D01*
X68781Y-58980D02*
X69018Y-58980D01*
X69781Y-58980D02*
X70047Y-58980D01*
X70353Y-58980D02*
X71647Y-58980D01*
X67934Y-59036D02*
X68041Y-59036D01*
X68758Y-59036D02*
X69041Y-59036D01*
X69758Y-59036D02*
X70047Y-59036D01*
X70353Y-59036D02*
X71647Y-59036D01*
X67934Y-59092D02*
X68073Y-59092D01*
X68727Y-59092D02*
X69073Y-59092D01*
X69727Y-59092D02*
X70047Y-59092D01*
X70353Y-59092D02*
X71647Y-59092D01*
X67934Y-59148D02*
X68129Y-59148D01*
X68671Y-59148D02*
X69129Y-59148D01*
X69671Y-59148D02*
X70047Y-59148D01*
X70353Y-59148D02*
X71647Y-59148D01*
X67934Y-59204D02*
X68203Y-59204D01*
X68596Y-59204D02*
X69203Y-59204D01*
X69596Y-59204D02*
X70047Y-59204D01*
X70353Y-59204D02*
X71647Y-59204D01*
X67934Y-59260D02*
X70047Y-59260D01*
X70353Y-59260D02*
X71647Y-59260D01*
X67934Y-59316D02*
X70047Y-59316D01*
X70353Y-59316D02*
X71647Y-59316D01*
X67934Y-59372D02*
X70047Y-59372D01*
X70353Y-59372D02*
X71647Y-59372D01*
X67934Y-59428D02*
X70047Y-59428D01*
X70353Y-59428D02*
X71647Y-59428D01*
X67934Y-59484D02*
X68233Y-59484D01*
X68568Y-59484D02*
X69233Y-59484D01*
X69568Y-59484D02*
X70047Y-59484D01*
X70353Y-59484D02*
X71647Y-59484D01*
X67934Y-59540D02*
X68141Y-59540D01*
X68659Y-59540D02*
X69141Y-59540D01*
X69659Y-59540D02*
X70047Y-59540D01*
X70353Y-59540D02*
X71647Y-59540D01*
X67934Y-59596D02*
X68085Y-59596D01*
X68715Y-59596D02*
X69085Y-59596D01*
X69715Y-59596D02*
X70047Y-59596D01*
X70353Y-59596D02*
X71647Y-59596D01*
X67934Y-59652D02*
X68047Y-59652D01*
X68754Y-59652D02*
X69047Y-59652D01*
X69754Y-59652D02*
X70047Y-59652D01*
X70353Y-59652D02*
X71647Y-59652D01*
X67934Y-59708D02*
X68024Y-59708D01*
X68777Y-59708D02*
X69024Y-59708D01*
X69777Y-59708D02*
X70047Y-59708D01*
X70353Y-59708D02*
X71647Y-59708D01*
X67934Y-59764D02*
X68001Y-59764D01*
X68800Y-59764D02*
X69001Y-59764D01*
X69800Y-59764D02*
X70047Y-59764D01*
X70353Y-59764D02*
X71647Y-59764D01*
X67934Y-59820D02*
X67998Y-59820D01*
X68802Y-59820D02*
X68998Y-59820D01*
X69802Y-59820D02*
X70047Y-59820D01*
X70353Y-59820D02*
X71647Y-59820D01*
X67934Y-59876D02*
X67998Y-59876D01*
X68802Y-59876D02*
X68998Y-59876D01*
X69802Y-59876D02*
X70047Y-59876D01*
X70353Y-59876D02*
X71647Y-59876D01*
X67934Y-59932D02*
X67998Y-59932D01*
X68801Y-59932D02*
X68998Y-59932D01*
X69801Y-59932D02*
X70047Y-59932D01*
X70353Y-59932D02*
X71647Y-59932D01*
X67934Y-59988D02*
X68021Y-59988D01*
X68778Y-59988D02*
X69021Y-59988D01*
X69778Y-59988D02*
X70047Y-59988D01*
X70353Y-59988D02*
X71647Y-59988D01*
X67934Y-60044D02*
X68044Y-60044D01*
X68755Y-60044D02*
X69044Y-60044D01*
X69755Y-60044D02*
X70047Y-60044D01*
X70353Y-60044D02*
X71647Y-60044D01*
X67934Y-60100D02*
X68081Y-60100D01*
X68719Y-60100D02*
X69081Y-60100D01*
X69719Y-60100D02*
X70047Y-60100D01*
X70353Y-60100D02*
X71647Y-60100D01*
X67934Y-60156D02*
X68137Y-60156D01*
X68663Y-60156D02*
X69137Y-60156D01*
X69663Y-60156D02*
X70047Y-60156D01*
X70353Y-60156D02*
X71647Y-60156D01*
X67934Y-60212D02*
X68222Y-60212D01*
X68577Y-60212D02*
X69222Y-60212D01*
X69577Y-60212D02*
X70047Y-60212D01*
X70353Y-60212D02*
X71621Y-60212D01*
X67934Y-60268D02*
X70047Y-60268D01*
X70353Y-60268D02*
X71565Y-60268D01*
X67934Y-60324D02*
X70047Y-60324D01*
X70353Y-60324D02*
X71509Y-60324D01*
X67934Y-60380D02*
X70047Y-60380D01*
X70353Y-60380D02*
X71453Y-60380D01*
X67934Y-60436D02*
X70047Y-60436D01*
X70353Y-60436D02*
X71397Y-60436D01*
X67934Y-60492D02*
X68214Y-60492D01*
X68587Y-60492D02*
X69214Y-60492D01*
X69587Y-60492D02*
X69853Y-60492D01*
X70353Y-60492D02*
X71341Y-60492D01*
X67934Y-60548D02*
X68133Y-60548D01*
X68667Y-60548D02*
X69133Y-60548D01*
X69667Y-60548D02*
X69797Y-60548D01*
X70343Y-60548D02*
X71285Y-60548D01*
X67934Y-60604D02*
X68077Y-60604D01*
X68723Y-60604D02*
X69077Y-60604D01*
X69723Y-60604D02*
X69768Y-60604D01*
X70311Y-60604D02*
X70743Y-60604D01*
X70958Y-60604D02*
X71229Y-60604D01*
X71662Y-60604D02*
X71665Y-60604D01*
X67934Y-60660D02*
X68044Y-60660D01*
X68757Y-60660D02*
X69044Y-60660D01*
X70256Y-60660D02*
X70619Y-60660D01*
X71081Y-60660D02*
X71173Y-60660D01*
X71606Y-60660D02*
X71619Y-60660D01*
X67934Y-60716D02*
X68021Y-60716D01*
X68780Y-60716D02*
X69021Y-60716D01*
X70251Y-60716D02*
X70563Y-60716D01*
X71550Y-60716D02*
X71563Y-60716D01*
X67934Y-60772D02*
X67998Y-60772D01*
X68802Y-60772D02*
X68998Y-60772D01*
X70241Y-60772D02*
X70513Y-60772D01*
X71494Y-60772D02*
X71513Y-60772D01*
X67934Y-60828D02*
X67998Y-60828D01*
X68802Y-60828D02*
X68998Y-60828D01*
X70218Y-60828D02*
X70489Y-60828D01*
X71438Y-60828D02*
X71489Y-60828D01*
X67934Y-60884D02*
X67998Y-60884D01*
X68802Y-60884D02*
X68998Y-60884D01*
X69802Y-60884D02*
X69829Y-60884D01*
X70171Y-60884D02*
X70466Y-60884D01*
X71382Y-60884D02*
X71466Y-60884D01*
X67934Y-60940D02*
X68002Y-60940D01*
X68797Y-60940D02*
X69002Y-60940D01*
X69797Y-60940D02*
X69923Y-60940D01*
X70076Y-60940D02*
X70455Y-60940D01*
X71326Y-60940D02*
X71455Y-60940D01*
X67934Y-60996D02*
X68025Y-60996D01*
X68774Y-60996D02*
X69025Y-60996D01*
X69774Y-60996D02*
X70455Y-60996D01*
X71270Y-60996D02*
X71455Y-60996D01*
X67934Y-61052D02*
X68048Y-61052D01*
X68751Y-61052D02*
X69048Y-61052D01*
X69751Y-61052D02*
X70455Y-61052D01*
X71245Y-61052D02*
X71455Y-61052D01*
X67934Y-61108D02*
X68089Y-61108D01*
X68711Y-61108D02*
X69089Y-61108D01*
X69711Y-61108D02*
X70455Y-61108D01*
X71245Y-61108D02*
X71455Y-61108D01*
X67934Y-61164D02*
X68145Y-61164D01*
X68655Y-61164D02*
X69145Y-61164D01*
X69655Y-61164D02*
X70455Y-61164D01*
X71245Y-61164D02*
X71455Y-61164D01*
X67934Y-61220D02*
X68242Y-61220D01*
X68557Y-61220D02*
X69242Y-61220D01*
X69557Y-61220D02*
X70455Y-61220D01*
X71245Y-61220D02*
X71455Y-61220D01*
X67934Y-61276D02*
X70455Y-61276D01*
X71245Y-61276D02*
X71455Y-61276D01*
X67934Y-61332D02*
X70455Y-61332D01*
X71245Y-61332D02*
X71455Y-61332D01*
X67934Y-61388D02*
X70455Y-61388D01*
X71245Y-61388D02*
X71455Y-61388D01*
X67934Y-61444D02*
X70455Y-61444D01*
X71245Y-61444D02*
X71455Y-61444D01*
X67934Y-61500D02*
X70455Y-61500D01*
X71245Y-61500D02*
X71455Y-61500D01*
X67934Y-61556D02*
X70455Y-61556D01*
X71245Y-61556D02*
X71455Y-61556D01*
X67934Y-61612D02*
X70455Y-61612D01*
X71245Y-61612D02*
X71455Y-61612D01*
X67934Y-61668D02*
X70455Y-61668D01*
X71245Y-61668D02*
X71455Y-61668D01*
X67934Y-61724D02*
X70468Y-61724D01*
X71231Y-61724D02*
X71468Y-61724D01*
X67934Y-61780D02*
X70491Y-61780D01*
X71207Y-61780D02*
X71491Y-61780D01*
X67934Y-61836D02*
X70515Y-61836D01*
X71184Y-61836D02*
X71515Y-61836D01*
X67934Y-61892D02*
X70571Y-61892D01*
X71129Y-61892D02*
X71571Y-61892D01*
X67934Y-61948D02*
X70628Y-61948D01*
X71073Y-61948D02*
X71628Y-61948D01*
X67934Y-62004D02*
X70761Y-62004D01*
X70937Y-62004D02*
X71665Y-62004D01*
X67934Y-62060D02*
X71665Y-62060D01*
X67934Y-62116D02*
X71665Y-62116D01*
X67934Y-62172D02*
X71665Y-62172D01*
X67934Y-62228D02*
X71665Y-62228D01*
X67934Y-62284D02*
X71665Y-62284D01*
X71665Y-62315D02*
X71665Y-61963D01*
X71626Y-61947D01*
X71515Y-61836D01*
X71455Y-61691D01*
X71455Y-60908D01*
X71516Y-60763D01*
X71627Y-60652D01*
X71665Y-60636D01*
X71665Y-60601D01*
X71245Y-61021D01*
X71245Y-61692D01*
X71184Y-61837D01*
X71073Y-61948D01*
X70928Y-62008D01*
X70771Y-62008D01*
X70626Y-61947D01*
X70515Y-61836D01*
X70455Y-61691D01*
X70455Y-60908D01*
X70516Y-60763D01*
X70627Y-60652D01*
X70772Y-60592D01*
X70929Y-60592D01*
X71074Y-60653D01*
X71127Y-60706D01*
X71647Y-60186D01*
X71647Y-55952D01*
X71587Y-55892D01*
X71549Y-55800D01*
X71549Y-55700D01*
X71587Y-55608D01*
X71658Y-55537D01*
X71665Y-55534D01*
X71665Y-55284D01*
X67934Y-55284D01*
X67934Y-56590D01*
X68021Y-56563D01*
X68308Y-56850D01*
X68021Y-57137D01*
X67934Y-57109D01*
X67934Y-62315D01*
X68320Y-62315D01*
X68320Y-61252D01*
X68172Y-61191D01*
X68059Y-61078D01*
X67998Y-60930D01*
X67998Y-60770D01*
X68059Y-60622D01*
X68172Y-60509D01*
X68320Y-60448D01*
X68320Y-60252D01*
X68172Y-60191D01*
X68059Y-60078D01*
X67998Y-59930D01*
X67998Y-59770D01*
X68059Y-59622D01*
X68172Y-59509D01*
X68320Y-59448D01*
X68320Y-59252D01*
X68172Y-59191D01*
X68059Y-59078D01*
X67998Y-58930D01*
X67998Y-58770D01*
X68059Y-58622D01*
X68172Y-58509D01*
X68320Y-58448D01*
X68480Y-58448D01*
X68628Y-58509D01*
X68741Y-58622D01*
X68802Y-58770D01*
X68802Y-58930D01*
X68741Y-59078D01*
X68628Y-59191D01*
X68480Y-59252D01*
X68320Y-59252D01*
X68320Y-59448D01*
X68480Y-59448D01*
X68628Y-59509D01*
X68741Y-59622D01*
X68802Y-59770D01*
X68802Y-59930D01*
X68741Y-60078D01*
X68628Y-60191D01*
X68480Y-60252D01*
X68320Y-60252D01*
X68320Y-60448D01*
X68480Y-60448D01*
X68628Y-60509D01*
X68741Y-60622D01*
X68802Y-60770D01*
X68802Y-60930D01*
X68741Y-61078D01*
X68628Y-61191D01*
X68480Y-61252D01*
X68320Y-61252D01*
X68320Y-62315D01*
X69320Y-62315D01*
X69320Y-61252D01*
X69172Y-61191D01*
X69059Y-61078D01*
X68998Y-60930D01*
X68998Y-60770D01*
X69059Y-60622D01*
X69172Y-60509D01*
X69320Y-60448D01*
X69320Y-60252D01*
X69172Y-60191D01*
X69059Y-60078D01*
X68998Y-59930D01*
X68998Y-59770D01*
X69059Y-59622D01*
X69172Y-59509D01*
X69320Y-59448D01*
X69320Y-59252D01*
X69172Y-59191D01*
X69059Y-59078D01*
X68998Y-58930D01*
X68998Y-58770D01*
X69059Y-58622D01*
X69172Y-58509D01*
X69320Y-58448D01*
X69480Y-58448D01*
X69628Y-58509D01*
X69741Y-58622D01*
X69802Y-58770D01*
X69802Y-58930D01*
X69741Y-59078D01*
X69628Y-59191D01*
X69480Y-59252D01*
X69320Y-59252D01*
X69320Y-59448D01*
X69480Y-59448D01*
X69628Y-59509D01*
X69741Y-59622D01*
X69802Y-59770D01*
X69802Y-59930D01*
X69741Y-60078D01*
X69628Y-60191D01*
X69480Y-60252D01*
X69320Y-60252D01*
X69320Y-60448D01*
X69480Y-60448D01*
X69628Y-60509D01*
X69741Y-60622D01*
X69750Y-60645D01*
X69787Y-60558D01*
X69858Y-60487D01*
X69950Y-60449D01*
X70034Y-60449D01*
X70047Y-60436D01*
X70047Y-58713D01*
X69555Y-58221D01*
X69480Y-58252D01*
X69320Y-58252D01*
X69172Y-58191D01*
X69059Y-58078D01*
X68998Y-57930D01*
X68998Y-57770D01*
X69059Y-57622D01*
X69172Y-57509D01*
X69186Y-57503D01*
X68963Y-57503D01*
X68771Y-57694D01*
X68802Y-57770D01*
X68802Y-57930D01*
X68741Y-58078D01*
X68628Y-58191D01*
X68480Y-58252D01*
X68320Y-58252D01*
X68172Y-58191D01*
X68059Y-58078D01*
X67998Y-57930D01*
X67998Y-57770D01*
X68059Y-57622D01*
X68172Y-57509D01*
X68320Y-57448D01*
X68339Y-57448D01*
X68339Y-57380D01*
X68141Y-57317D01*
X68113Y-57229D01*
X68400Y-56942D01*
X68400Y-56758D01*
X68113Y-56471D01*
X68141Y-56383D01*
X68253Y-56337D01*
X68461Y-56320D01*
X68659Y-56383D01*
X68687Y-56471D01*
X68400Y-56758D01*
X68400Y-56942D01*
X68687Y-57229D01*
X68659Y-57317D01*
X68547Y-57363D01*
X68339Y-57380D01*
X68339Y-57448D01*
X68480Y-57448D01*
X68555Y-57478D01*
X68779Y-57254D01*
X68779Y-57137D01*
X68492Y-56850D01*
X68779Y-56563D01*
X68867Y-56591D01*
X68913Y-56703D01*
X68930Y-56911D01*
X68867Y-57109D01*
X68779Y-57137D01*
X68779Y-57254D01*
X68792Y-57242D01*
X68841Y-57209D01*
X68900Y-57197D01*
X69186Y-57197D01*
X69172Y-57191D01*
X69059Y-57078D01*
X68998Y-56930D01*
X68998Y-56770D01*
X69059Y-56622D01*
X69172Y-56509D01*
X69320Y-56448D01*
X69480Y-56448D01*
X69628Y-56509D01*
X69741Y-56622D01*
X69802Y-56770D01*
X69802Y-56930D01*
X69741Y-57078D01*
X69628Y-57191D01*
X69613Y-57197D01*
X69800Y-57197D01*
X69859Y-57209D01*
X69908Y-57242D01*
X70015Y-57349D01*
X70100Y-57349D01*
X70192Y-57387D01*
X70263Y-57458D01*
X70301Y-57550D01*
X70301Y-57650D01*
X70263Y-57742D01*
X70192Y-57813D01*
X70100Y-57851D01*
X70000Y-57851D01*
X69908Y-57813D01*
X69837Y-57742D01*
X69799Y-57650D01*
X69799Y-57565D01*
X69736Y-57503D01*
X69613Y-57503D01*
X69628Y-57509D01*
X69741Y-57622D01*
X69802Y-57770D01*
X69802Y-57930D01*
X69771Y-58005D01*
X70308Y-58542D01*
X70341Y-58591D01*
X70353Y-58650D01*
X70353Y-60500D01*
X70341Y-60559D01*
X70308Y-60609D01*
X70251Y-60665D01*
X70251Y-60750D01*
X70213Y-60842D01*
X70142Y-60913D01*
X70050Y-60951D01*
X69950Y-60951D01*
X69858Y-60913D01*
X69802Y-60857D01*
X69802Y-60930D01*
X69741Y-61078D01*
X69628Y-61191D01*
X69480Y-61252D01*
X69320Y-61252D01*
X69320Y-62315D01*
X71665Y-62315D01*
M02*
