G04 (created by PCBNEW-RS274X (2010-03-14)-final) date vie 11 nov 2011 19:20:16 ART*
G01*
G70*
G90*
%MOIN*%
G04 Gerber Fmt 3.4, Leading zero omitted, Abs format*
%FSLAX34Y34*%
G04 APERTURE LIST*
%ADD10C,0.000100*%
%ADD11C,0.015000*%
%ADD12R,0.106600X0.043600*%
%ADD13C,0.080000*%
%ADD14O,0.080000X0.140000*%
%ADD15O,0.140000X0.080000*%
%ADD16R,0.045000X0.065000*%
G04 APERTURE END LIST*
G54D10*
G54D11*
X67850Y-62400D02*
X67850Y-55200D01*
X75450Y-62400D02*
X67850Y-62400D01*
X75450Y-55200D02*
X75450Y-62400D01*
X67850Y-55200D02*
X75450Y-55200D01*
G54D12*
X70777Y-56800D03*
X70777Y-57300D03*
X70777Y-57800D03*
X70777Y-58300D03*
X70777Y-58800D03*
X70777Y-59300D03*
X70777Y-59800D03*
X70777Y-60300D03*
X72823Y-60300D03*
X72823Y-59800D03*
X72823Y-59300D03*
X72823Y-58800D03*
X72823Y-58300D03*
X72823Y-57800D03*
X72823Y-57300D03*
X72823Y-56800D03*
G54D13*
X69400Y-56850D03*
X68400Y-56850D03*
X69400Y-57850D03*
X68400Y-57850D03*
X69400Y-58850D03*
X68400Y-58850D03*
X69400Y-59850D03*
X68400Y-59850D03*
X69400Y-60850D03*
X68400Y-60850D03*
G54D14*
X72850Y-61300D03*
X71850Y-61300D03*
X70850Y-61300D03*
G54D15*
X74650Y-55800D03*
X74650Y-56800D03*
X74650Y-57800D03*
X74650Y-58800D03*
X74650Y-59800D03*
X74650Y-60800D03*
X74650Y-61800D03*
G54D16*
X73100Y-56100D03*
X72500Y-56100D03*
X71100Y-56100D03*
X70500Y-56100D03*
M02*
