G04 (created by PCBNEW-RS274X (2010-03-14)-final) date vie 11 nov 2011 19:20:16 ART*
G01*
G70*
G90*
%MOIN*%
G04 Gerber Fmt 3.4, Leading zero omitted, Abs format*
%FSLAX34Y34*%
G04 APERTURE LIST*
%ADD10C,0.000100*%
%ADD11C,0.015000*%
%ADD12R,0.086600X0.023600*%
%ADD13C,0.060000*%
%ADD14O,0.060000X0.120000*%
%ADD15O,0.120000X0.060000*%
%ADD16R,0.025000X0.045000*%
%ADD17C,0.029800*%
%ADD18C,0.006900*%
%ADD19C,0.010000*%
G04 APERTURE END LIST*
G54D10*
G54D11*
X67850Y-62400D02*
X67850Y-55200D01*
X75450Y-62400D02*
X67850Y-62400D01*
X75450Y-55200D02*
X75450Y-62400D01*
X67850Y-55200D02*
X75450Y-55200D01*
G54D12*
X70777Y-56800D03*
X70777Y-57300D03*
X70777Y-57800D03*
X70777Y-58300D03*
X70777Y-58800D03*
X70777Y-59300D03*
X70777Y-59800D03*
X70777Y-60300D03*
X72823Y-60300D03*
X72823Y-59800D03*
X72823Y-59300D03*
X72823Y-58800D03*
X72823Y-58300D03*
X72823Y-57800D03*
X72823Y-57300D03*
X72823Y-56800D03*
G54D13*
X69400Y-56850D03*
X68400Y-56850D03*
X69400Y-57850D03*
X68400Y-57850D03*
X69400Y-58850D03*
X68400Y-58850D03*
X69400Y-59850D03*
X68400Y-59850D03*
X69400Y-60850D03*
X68400Y-60850D03*
G54D14*
X72850Y-61300D03*
X71850Y-61300D03*
X70850Y-61300D03*
G54D15*
X74650Y-55800D03*
X74650Y-56800D03*
X74650Y-57800D03*
X74650Y-58800D03*
X74650Y-59800D03*
X74650Y-60800D03*
X74650Y-61800D03*
G54D16*
X73100Y-56100D03*
X72500Y-56100D03*
X71100Y-56100D03*
X70500Y-56100D03*
G54D17*
X73700Y-60750D03*
X72100Y-57300D03*
X70000Y-60700D03*
X70050Y-57600D03*
X71800Y-55750D03*
G54D18*
X71450Y-57300D02*
X71550Y-57400D01*
X71550Y-57400D02*
X71550Y-60050D01*
X70777Y-60300D02*
X71300Y-60300D01*
X71300Y-60300D02*
X71550Y-60050D01*
X71600Y-57100D02*
X71600Y-57150D01*
X71600Y-57150D02*
X71475Y-57275D01*
X71475Y-57275D02*
X71450Y-57300D01*
X71400Y-57300D02*
X71450Y-57300D01*
X70777Y-57300D02*
X68850Y-57300D01*
X68850Y-57300D02*
X68400Y-56850D01*
X71100Y-56100D02*
X71350Y-56100D01*
X71400Y-57300D02*
X70777Y-57300D01*
X71600Y-56350D02*
X71600Y-57100D01*
X71350Y-56100D02*
X71600Y-56350D01*
G54D19*
X72100Y-57300D02*
X72300Y-57300D01*
X72823Y-60300D02*
X73250Y-60300D01*
X73250Y-60300D02*
X73700Y-60750D01*
X74150Y-61800D02*
X74650Y-61800D01*
X73700Y-60750D02*
X73700Y-61350D01*
X73700Y-61350D02*
X74150Y-61800D01*
X72823Y-57300D02*
X72300Y-57300D01*
X72300Y-57300D02*
X72100Y-57300D01*
X72100Y-57300D02*
X72000Y-57200D01*
X72000Y-57200D02*
X71900Y-57100D01*
X71900Y-57100D02*
X71900Y-56400D01*
X71900Y-56400D02*
X72200Y-56100D01*
X72200Y-56100D02*
X72500Y-56100D01*
X72823Y-58300D02*
X74150Y-58300D01*
X74150Y-58300D02*
X74650Y-57800D01*
X72823Y-59300D02*
X74150Y-59300D01*
X74150Y-59300D02*
X74650Y-59800D01*
X72823Y-58800D02*
X74650Y-58800D01*
X74650Y-56800D02*
X74100Y-56800D01*
X73450Y-57800D02*
X72823Y-57800D01*
X73650Y-57600D02*
X73450Y-57800D01*
X73650Y-57250D02*
X73650Y-57600D01*
X74100Y-56800D02*
X73650Y-57250D01*
X70777Y-59800D02*
X70450Y-59800D01*
X70000Y-60250D02*
X70000Y-60700D01*
X70450Y-59800D02*
X70000Y-60250D01*
X72823Y-59800D02*
X72300Y-59800D01*
X71850Y-60250D02*
X71850Y-61300D01*
X72300Y-59800D02*
X71850Y-60250D01*
G54D18*
X70777Y-58800D02*
X70300Y-58800D01*
X68900Y-59350D02*
X68400Y-59850D01*
X69750Y-59350D02*
X68900Y-59350D01*
X70300Y-58800D02*
X69750Y-59350D01*
G54D19*
X70777Y-57800D02*
X70250Y-57800D01*
X70250Y-57800D02*
X70050Y-57600D01*
G54D18*
X70777Y-58300D02*
X68950Y-58300D01*
X68950Y-58300D02*
X68400Y-58850D01*
X70777Y-59300D02*
X70250Y-59300D01*
X68900Y-60350D02*
X68400Y-60850D01*
X69650Y-60350D02*
X68900Y-60350D01*
X70000Y-60000D02*
X69650Y-60350D01*
X70000Y-59550D02*
X70000Y-60000D01*
X70250Y-59300D02*
X70000Y-59550D01*
X70500Y-56100D02*
X70500Y-56523D01*
X70500Y-56523D02*
X70777Y-56800D01*
X69400Y-56850D02*
X69400Y-56400D01*
X69700Y-56100D02*
X70500Y-56100D01*
X69400Y-56400D02*
X69700Y-56100D01*
G54D19*
X73100Y-56100D02*
X73100Y-56000D01*
X72850Y-55750D02*
X71800Y-55750D01*
X73100Y-56000D02*
X72850Y-55750D01*
X73100Y-56100D02*
X74350Y-56100D01*
G54D18*
X74350Y-56100D02*
X74650Y-55800D01*
G54D19*
X73100Y-56100D02*
X73100Y-56523D01*
X73100Y-56523D02*
X72823Y-56800D01*
G54D18*
X67934Y-55284D02*
X71665Y-55284D01*
X67934Y-55340D02*
X71665Y-55340D01*
X67934Y-55396D02*
X71665Y-55396D01*
X67934Y-55452D02*
X71665Y-55452D01*
X67934Y-55508D02*
X71665Y-55508D01*
X67934Y-55564D02*
X71631Y-55564D01*
X67934Y-55620D02*
X71583Y-55620D01*
X67934Y-55676D02*
X70846Y-55676D01*
X71015Y-55676D02*
X71185Y-55676D01*
X71355Y-55676D02*
X71559Y-55676D01*
X67934Y-55732D02*
X70789Y-55732D01*
X71038Y-55732D02*
X71162Y-55732D01*
X71412Y-55732D02*
X71549Y-55732D01*
X67934Y-55788D02*
X70316Y-55788D01*
X70684Y-55788D02*
X70759Y-55788D01*
X71038Y-55788D02*
X71162Y-55788D01*
X71442Y-55788D02*
X71549Y-55788D01*
X67934Y-55844D02*
X70277Y-55844D01*
X70724Y-55844D02*
X70742Y-55844D01*
X71038Y-55844D02*
X71162Y-55844D01*
X71458Y-55844D02*
X71567Y-55844D01*
X67934Y-55900D02*
X70272Y-55900D01*
X70728Y-55900D02*
X70742Y-55900D01*
X71038Y-55900D02*
X71162Y-55900D01*
X71458Y-55900D02*
X71595Y-55900D01*
X67934Y-55956D02*
X70272Y-55956D01*
X70728Y-55956D02*
X70742Y-55956D01*
X71038Y-55956D02*
X71162Y-55956D01*
X71459Y-55956D02*
X71651Y-55956D01*
X67934Y-56012D02*
X69594Y-56012D01*
X70728Y-56012D02*
X70776Y-56012D01*
X71038Y-56012D02*
X71162Y-56012D01*
X71424Y-56012D02*
X71665Y-56012D01*
X67934Y-56068D02*
X69538Y-56068D01*
X70728Y-56068D02*
X71665Y-56068D01*
X67934Y-56124D02*
X69482Y-56124D01*
X70728Y-56124D02*
X71665Y-56124D01*
X67934Y-56180D02*
X69426Y-56180D01*
X70728Y-56180D02*
X70784Y-56180D01*
X71038Y-56180D02*
X71162Y-56180D01*
X71416Y-56180D02*
X71665Y-56180D01*
X67934Y-56236D02*
X69370Y-56236D01*
X70728Y-56236D02*
X70741Y-56236D01*
X71038Y-56236D02*
X71162Y-56236D01*
X71458Y-56236D02*
X71665Y-56236D01*
X67934Y-56292D02*
X69314Y-56292D01*
X69701Y-56292D02*
X70272Y-56292D01*
X70728Y-56292D02*
X70742Y-56292D01*
X71038Y-56292D02*
X71162Y-56292D01*
X71458Y-56292D02*
X71665Y-56292D01*
X67934Y-56348D02*
X68227Y-56348D01*
X68549Y-56348D02*
X69273Y-56348D01*
X69645Y-56348D02*
X70273Y-56348D01*
X70727Y-56348D02*
X70742Y-56348D01*
X71038Y-56348D02*
X71162Y-56348D01*
X71458Y-56348D02*
X71665Y-56348D01*
X67934Y-56404D02*
X68135Y-56404D01*
X68666Y-56404D02*
X69263Y-56404D01*
X69589Y-56404D02*
X70308Y-56404D01*
X70692Y-56404D02*
X70755Y-56404D01*
X71038Y-56404D02*
X71162Y-56404D01*
X71444Y-56404D02*
X71665Y-56404D01*
X67934Y-56460D02*
X68117Y-56460D01*
X68684Y-56460D02*
X69263Y-56460D01*
X69537Y-56460D02*
X70363Y-56460D01*
X70637Y-56460D02*
X70780Y-56460D01*
X71038Y-56460D02*
X71162Y-56460D01*
X71419Y-56460D02*
X71665Y-56460D01*
X67934Y-56516D02*
X68158Y-56516D01*
X68642Y-56516D02*
X69165Y-56516D01*
X69635Y-56516D02*
X70363Y-56516D01*
X70687Y-56516D02*
X70836Y-56516D01*
X71023Y-56516D02*
X71177Y-56516D01*
X71363Y-56516D02*
X71665Y-56516D01*
X67934Y-56572D02*
X67992Y-56572D01*
X68030Y-56572D02*
X68214Y-56572D01*
X68586Y-56572D02*
X68770Y-56572D01*
X68808Y-56572D02*
X69109Y-56572D01*
X69691Y-56572D02*
X70372Y-56572D01*
X70743Y-56572D02*
X71665Y-56572D01*
X68086Y-56628D02*
X68270Y-56628D01*
X68530Y-56628D02*
X68714Y-56628D01*
X68883Y-56628D02*
X69057Y-56628D01*
X69744Y-56628D02*
X70255Y-56628D01*
X71300Y-56628D02*
X71665Y-56628D01*
X68142Y-56684D02*
X68326Y-56684D01*
X68474Y-56684D02*
X68658Y-56684D01*
X68906Y-56684D02*
X69034Y-56684D01*
X69767Y-56684D02*
X70241Y-56684D01*
X71313Y-56684D02*
X71665Y-56684D01*
X68198Y-56740D02*
X68382Y-56740D01*
X68418Y-56740D02*
X68602Y-56740D01*
X68917Y-56740D02*
X69011Y-56740D01*
X69790Y-56740D02*
X70241Y-56740D01*
X71313Y-56740D02*
X71665Y-56740D01*
X68254Y-56796D02*
X68546Y-56796D01*
X68921Y-56796D02*
X68998Y-56796D01*
X69802Y-56796D02*
X70241Y-56796D01*
X71313Y-56796D02*
X71665Y-56796D01*
X68306Y-56852D02*
X68494Y-56852D01*
X68926Y-56852D02*
X68998Y-56852D01*
X69802Y-56852D02*
X70241Y-56852D01*
X71313Y-56852D02*
X71665Y-56852D01*
X68250Y-56908D02*
X68550Y-56908D01*
X68930Y-56908D02*
X68998Y-56908D01*
X69802Y-56908D02*
X70241Y-56908D01*
X71313Y-56908D02*
X71665Y-56908D01*
X68194Y-56964D02*
X68378Y-56964D01*
X68422Y-56964D02*
X68606Y-56964D01*
X68913Y-56964D02*
X69012Y-56964D01*
X69787Y-56964D02*
X70250Y-56964D01*
X71301Y-56964D02*
X71665Y-56964D01*
X68138Y-57020D02*
X68322Y-57020D01*
X68478Y-57020D02*
X68662Y-57020D01*
X68895Y-57020D02*
X69035Y-57020D01*
X69764Y-57020D02*
X70177Y-57020D01*
X71378Y-57020D02*
X71665Y-57020D01*
X68082Y-57076D02*
X68266Y-57076D01*
X68534Y-57076D02*
X68718Y-57076D01*
X68877Y-57076D02*
X69058Y-57076D01*
X69741Y-57076D02*
X70136Y-57076D01*
X71419Y-57076D02*
X71665Y-57076D01*
X67934Y-57132D02*
X68005Y-57132D01*
X68026Y-57132D02*
X68210Y-57132D01*
X68590Y-57132D02*
X68774Y-57132D01*
X68794Y-57132D02*
X69113Y-57132D01*
X69687Y-57132D02*
X70113Y-57132D01*
X71442Y-57132D02*
X71665Y-57132D01*
X67934Y-57188D02*
X68154Y-57188D01*
X68646Y-57188D02*
X69169Y-57188D01*
X69631Y-57188D02*
X70115Y-57188D01*
X71439Y-57188D02*
X71665Y-57188D01*
X67934Y-57244D02*
X68117Y-57244D01*
X68682Y-57244D02*
X69300Y-57244D01*
X69499Y-57244D02*
X71665Y-57244D01*
X67934Y-57300D02*
X68135Y-57300D01*
X68664Y-57300D02*
X71665Y-57300D01*
X67934Y-57356D02*
X68263Y-57356D01*
X68564Y-57356D02*
X69984Y-57356D01*
X70118Y-57356D02*
X71665Y-57356D01*
X67934Y-57412D02*
X69883Y-57412D01*
X71439Y-57412D02*
X71665Y-57412D01*
X67934Y-57468D02*
X68272Y-57468D01*
X68529Y-57468D02*
X69272Y-57468D01*
X69529Y-57468D02*
X69833Y-57468D01*
X71441Y-57468D02*
X71665Y-57468D01*
X67934Y-57524D02*
X68157Y-57524D01*
X68643Y-57524D02*
X69157Y-57524D01*
X69643Y-57524D02*
X69810Y-57524D01*
X71418Y-57524D02*
X71665Y-57524D01*
X67934Y-57580D02*
X68101Y-57580D01*
X68699Y-57580D02*
X69101Y-57580D01*
X69699Y-57580D02*
X69799Y-57580D01*
X71377Y-57580D02*
X71665Y-57580D01*
X67934Y-57636D02*
X68054Y-57636D01*
X68747Y-57636D02*
X69054Y-57636D01*
X69747Y-57636D02*
X69799Y-57636D01*
X71303Y-57636D02*
X71665Y-57636D01*
X67934Y-57692D02*
X68031Y-57692D01*
X68770Y-57692D02*
X69031Y-57692D01*
X69770Y-57692D02*
X69816Y-57692D01*
X71313Y-57692D02*
X71665Y-57692D01*
X67934Y-57748D02*
X68008Y-57748D01*
X68793Y-57748D02*
X69008Y-57748D01*
X69793Y-57748D02*
X69843Y-57748D01*
X71313Y-57748D02*
X71665Y-57748D01*
X67934Y-57804D02*
X67998Y-57804D01*
X68802Y-57804D02*
X68998Y-57804D01*
X69802Y-57804D02*
X69899Y-57804D01*
X71313Y-57804D02*
X71665Y-57804D01*
X67934Y-57860D02*
X67998Y-57860D01*
X68802Y-57860D02*
X68998Y-57860D01*
X69802Y-57860D02*
X70093Y-57860D01*
X71313Y-57860D02*
X71665Y-57860D01*
X67934Y-57916D02*
X67998Y-57916D01*
X68802Y-57916D02*
X68998Y-57916D01*
X69802Y-57916D02*
X70153Y-57916D01*
X71313Y-57916D02*
X71665Y-57916D01*
X67934Y-57972D02*
X68015Y-57972D01*
X68784Y-57972D02*
X69015Y-57972D01*
X69784Y-57972D02*
X70254Y-57972D01*
X71299Y-57972D02*
X71665Y-57972D01*
X67934Y-58028D02*
X68038Y-58028D01*
X68761Y-58028D02*
X69038Y-58028D01*
X69761Y-58028D02*
X71665Y-58028D01*
X67934Y-58084D02*
X68065Y-58084D01*
X68735Y-58084D02*
X69065Y-58084D01*
X69735Y-58084D02*
X70311Y-58084D01*
X71243Y-58084D02*
X71665Y-58084D01*
X67934Y-58140D02*
X68121Y-58140D01*
X68679Y-58140D02*
X69121Y-58140D01*
X69679Y-58140D02*
X70250Y-58140D01*
X71305Y-58140D02*
X71665Y-58140D01*
X67934Y-58196D02*
X68184Y-58196D01*
X68615Y-58196D02*
X68864Y-58196D01*
X71313Y-58196D02*
X71665Y-58196D01*
X67934Y-58252D02*
X68804Y-58252D01*
X71313Y-58252D02*
X71665Y-58252D01*
X67934Y-58308D02*
X68748Y-58308D01*
X71313Y-58308D02*
X71665Y-58308D01*
X67934Y-58364D02*
X68692Y-58364D01*
X71313Y-58364D02*
X71665Y-58364D01*
X67934Y-58420D02*
X68636Y-58420D01*
X71313Y-58420D02*
X71665Y-58420D01*
X67934Y-58476D02*
X68253Y-58476D01*
X68549Y-58476D02*
X68580Y-58476D01*
X68967Y-58476D02*
X69253Y-58476D01*
X69548Y-58476D02*
X70256Y-58476D01*
X71297Y-58476D02*
X71665Y-58476D01*
X67934Y-58532D02*
X68149Y-58532D01*
X68911Y-58532D02*
X69149Y-58532D01*
X69651Y-58532D02*
X71665Y-58532D01*
X67934Y-58588D02*
X68093Y-58588D01*
X68855Y-58588D02*
X69093Y-58588D01*
X69707Y-58588D02*
X70302Y-58588D01*
X71253Y-58588D02*
X71665Y-58588D01*
X67934Y-58644D02*
X68050Y-58644D01*
X68799Y-58644D02*
X69050Y-58644D01*
X69751Y-58644D02*
X70249Y-58644D01*
X71306Y-58644D02*
X71665Y-58644D01*
X67934Y-58700D02*
X68027Y-58700D01*
X68773Y-58700D02*
X69027Y-58700D01*
X69774Y-58700D02*
X70208Y-58700D01*
X71313Y-58700D02*
X71665Y-58700D01*
X67934Y-58756D02*
X68004Y-58756D01*
X68797Y-58756D02*
X69004Y-58756D01*
X69797Y-58756D02*
X70150Y-58756D01*
X71313Y-58756D02*
X71665Y-58756D01*
X67934Y-58812D02*
X67998Y-58812D01*
X68802Y-58812D02*
X68998Y-58812D01*
X69802Y-58812D02*
X70094Y-58812D01*
X71313Y-58812D02*
X71665Y-58812D01*
X67934Y-58868D02*
X67998Y-58868D01*
X68802Y-58868D02*
X68998Y-58868D01*
X69802Y-58868D02*
X70038Y-58868D01*
X71313Y-58868D02*
X71665Y-58868D01*
X67934Y-58924D02*
X67998Y-58924D01*
X68802Y-58924D02*
X68998Y-58924D01*
X69802Y-58924D02*
X69982Y-58924D01*
X71313Y-58924D02*
X71665Y-58924D01*
X67934Y-58980D02*
X68018Y-58980D01*
X68781Y-58980D02*
X69018Y-58980D01*
X69781Y-58980D02*
X69926Y-58980D01*
X71294Y-58980D02*
X71665Y-58980D01*
X67934Y-59036D02*
X68041Y-59036D01*
X68758Y-59036D02*
X69041Y-59036D01*
X69758Y-59036D02*
X69870Y-59036D01*
X70256Y-59036D02*
X71665Y-59036D01*
X67934Y-59092D02*
X68073Y-59092D01*
X68727Y-59092D02*
X69073Y-59092D01*
X69727Y-59092D02*
X69814Y-59092D01*
X70200Y-59092D02*
X70292Y-59092D01*
X71262Y-59092D02*
X71665Y-59092D01*
X67934Y-59148D02*
X68129Y-59148D01*
X68671Y-59148D02*
X69129Y-59148D01*
X69671Y-59148D02*
X69758Y-59148D01*
X70144Y-59148D02*
X70247Y-59148D01*
X71308Y-59148D02*
X71665Y-59148D01*
X67934Y-59204D02*
X68203Y-59204D01*
X68596Y-59204D02*
X69203Y-59204D01*
X69596Y-59204D02*
X69702Y-59204D01*
X70088Y-59204D02*
X70152Y-59204D01*
X71313Y-59204D02*
X71665Y-59204D01*
X67934Y-59260D02*
X68795Y-59260D01*
X70033Y-59260D02*
X70096Y-59260D01*
X71313Y-59260D02*
X71665Y-59260D01*
X67934Y-59316D02*
X68739Y-59316D01*
X69977Y-59316D02*
X70040Y-59316D01*
X71313Y-59316D02*
X71665Y-59316D01*
X67934Y-59372D02*
X68683Y-59372D01*
X69921Y-59372D02*
X69984Y-59372D01*
X71313Y-59372D02*
X71665Y-59372D01*
X67934Y-59428D02*
X68627Y-59428D01*
X69865Y-59428D02*
X69928Y-59428D01*
X71313Y-59428D02*
X71665Y-59428D01*
X67934Y-59484D02*
X68233Y-59484D01*
X68568Y-59484D02*
X68571Y-59484D01*
X69765Y-59484D02*
X69882Y-59484D01*
X70258Y-59484D02*
X70264Y-59484D01*
X71290Y-59484D02*
X71665Y-59484D01*
X67934Y-59540D02*
X68141Y-59540D01*
X68903Y-59540D02*
X69141Y-59540D01*
X69659Y-59540D02*
X69865Y-59540D01*
X70202Y-59540D02*
X71665Y-59540D01*
X67934Y-59596D02*
X68085Y-59596D01*
X68847Y-59596D02*
X69085Y-59596D01*
X69715Y-59596D02*
X69863Y-59596D01*
X70146Y-59596D02*
X70284Y-59596D01*
X71270Y-59596D02*
X71665Y-59596D01*
X67934Y-59652D02*
X68047Y-59652D01*
X68791Y-59652D02*
X69047Y-59652D01*
X69754Y-59652D02*
X69863Y-59652D01*
X70137Y-59652D02*
X70245Y-59652D01*
X71310Y-59652D02*
X71665Y-59652D01*
X67934Y-59708D02*
X68024Y-59708D01*
X68777Y-59708D02*
X69024Y-59708D01*
X69777Y-59708D02*
X69863Y-59708D01*
X70137Y-59708D02*
X70241Y-59708D01*
X71313Y-59708D02*
X71665Y-59708D01*
X67934Y-59764D02*
X68001Y-59764D01*
X68800Y-59764D02*
X69001Y-59764D01*
X69800Y-59764D02*
X69863Y-59764D01*
X70137Y-59764D02*
X70241Y-59764D01*
X71313Y-59764D02*
X71665Y-59764D01*
X67934Y-59820D02*
X67998Y-59820D01*
X68802Y-59820D02*
X68998Y-59820D01*
X69802Y-59820D02*
X69863Y-59820D01*
X70137Y-59820D02*
X70214Y-59820D01*
X71313Y-59820D02*
X71665Y-59820D01*
X67934Y-59876D02*
X67998Y-59876D01*
X68802Y-59876D02*
X68998Y-59876D01*
X69802Y-59876D02*
X69863Y-59876D01*
X70137Y-59876D02*
X70158Y-59876D01*
X71313Y-59876D02*
X71665Y-59876D01*
X67934Y-59932D02*
X67998Y-59932D01*
X68801Y-59932D02*
X68998Y-59932D01*
X69801Y-59932D02*
X69863Y-59932D01*
X71313Y-59932D02*
X71665Y-59932D01*
X67934Y-59988D02*
X68021Y-59988D01*
X68778Y-59988D02*
X69021Y-59988D01*
X69777Y-59988D02*
X69818Y-59988D01*
X71346Y-59988D02*
X71665Y-59988D01*
X67934Y-60044D02*
X68044Y-60044D01*
X68755Y-60044D02*
X69044Y-60044D01*
X69754Y-60044D02*
X69762Y-60044D01*
X71402Y-60044D02*
X71665Y-60044D01*
X67934Y-60100D02*
X68081Y-60100D01*
X68719Y-60100D02*
X69081Y-60100D01*
X71429Y-60100D02*
X71665Y-60100D01*
X67934Y-60156D02*
X68137Y-60156D01*
X68663Y-60156D02*
X69137Y-60156D01*
X71444Y-60156D02*
X71665Y-60156D01*
X67934Y-60212D02*
X68222Y-60212D01*
X68577Y-60212D02*
X69222Y-60212D01*
X71415Y-60212D02*
X71665Y-60212D01*
X67934Y-60268D02*
X68787Y-60268D01*
X70712Y-60268D02*
X71665Y-60268D01*
X67934Y-60324D02*
X68731Y-60324D01*
X70712Y-60324D02*
X71665Y-60324D01*
X67934Y-60380D02*
X68675Y-60380D01*
X71407Y-60380D02*
X71665Y-60380D01*
X67934Y-60436D02*
X68619Y-60436D01*
X71443Y-60436D02*
X71665Y-60436D01*
X67934Y-60492D02*
X68214Y-60492D01*
X68951Y-60492D02*
X69213Y-60492D01*
X71431Y-60492D02*
X71665Y-60492D01*
X67934Y-60548D02*
X68133Y-60548D01*
X68895Y-60548D02*
X69133Y-60548D01*
X71408Y-60548D02*
X71665Y-60548D01*
X67934Y-60604D02*
X68077Y-60604D01*
X68839Y-60604D02*
X69077Y-60604D01*
X71353Y-60604D02*
X71665Y-60604D01*
X67934Y-60660D02*
X68044Y-60660D01*
X68783Y-60660D02*
X69044Y-60660D01*
X70251Y-60660D02*
X70619Y-60660D01*
X71081Y-60660D02*
X71619Y-60660D01*
X67934Y-60716D02*
X68021Y-60716D01*
X68780Y-60716D02*
X69021Y-60716D01*
X70251Y-60716D02*
X70563Y-60716D01*
X71137Y-60716D02*
X71563Y-60716D01*
X67934Y-60772D02*
X67998Y-60772D01*
X68802Y-60772D02*
X68998Y-60772D01*
X70241Y-60772D02*
X70513Y-60772D01*
X71189Y-60772D02*
X71513Y-60772D01*
X67934Y-60828D02*
X67998Y-60828D01*
X68802Y-60828D02*
X68998Y-60828D01*
X70218Y-60828D02*
X70489Y-60828D01*
X71212Y-60828D02*
X71489Y-60828D01*
X67934Y-60884D02*
X67998Y-60884D01*
X68802Y-60884D02*
X68998Y-60884D01*
X69802Y-60884D02*
X69829Y-60884D01*
X70171Y-60884D02*
X70466Y-60884D01*
X71235Y-60884D02*
X71466Y-60884D01*
X67934Y-60940D02*
X68002Y-60940D01*
X68797Y-60940D02*
X69002Y-60940D01*
X69797Y-60940D02*
X69923Y-60940D01*
X70076Y-60940D02*
X70455Y-60940D01*
X71245Y-60940D02*
X71455Y-60940D01*
X67934Y-60996D02*
X68025Y-60996D01*
X68774Y-60996D02*
X69025Y-60996D01*
X69774Y-60996D02*
X70455Y-60996D01*
X71245Y-60996D02*
X71455Y-60996D01*
X67934Y-61052D02*
X68048Y-61052D01*
X68751Y-61052D02*
X69048Y-61052D01*
X69751Y-61052D02*
X70455Y-61052D01*
X71245Y-61052D02*
X71455Y-61052D01*
X67934Y-61108D02*
X68089Y-61108D01*
X68711Y-61108D02*
X69089Y-61108D01*
X69711Y-61108D02*
X70455Y-61108D01*
X71245Y-61108D02*
X71455Y-61108D01*
X67934Y-61164D02*
X68145Y-61164D01*
X68655Y-61164D02*
X69145Y-61164D01*
X69655Y-61164D02*
X70455Y-61164D01*
X71245Y-61164D02*
X71455Y-61164D01*
X67934Y-61220D02*
X68242Y-61220D01*
X68557Y-61220D02*
X69242Y-61220D01*
X69557Y-61220D02*
X70455Y-61220D01*
X71245Y-61220D02*
X71455Y-61220D01*
X67934Y-61276D02*
X70455Y-61276D01*
X71245Y-61276D02*
X71455Y-61276D01*
X67934Y-61332D02*
X70455Y-61332D01*
X71245Y-61332D02*
X71455Y-61332D01*
X67934Y-61388D02*
X70455Y-61388D01*
X71245Y-61388D02*
X71455Y-61388D01*
X67934Y-61444D02*
X70455Y-61444D01*
X71245Y-61444D02*
X71455Y-61444D01*
X67934Y-61500D02*
X70455Y-61500D01*
X71245Y-61500D02*
X71455Y-61500D01*
X67934Y-61556D02*
X70455Y-61556D01*
X71245Y-61556D02*
X71455Y-61556D01*
X67934Y-61612D02*
X70455Y-61612D01*
X71245Y-61612D02*
X71455Y-61612D01*
X67934Y-61668D02*
X70455Y-61668D01*
X71245Y-61668D02*
X71455Y-61668D01*
X67934Y-61724D02*
X70468Y-61724D01*
X71231Y-61724D02*
X71468Y-61724D01*
X67934Y-61780D02*
X70491Y-61780D01*
X71207Y-61780D02*
X71491Y-61780D01*
X67934Y-61836D02*
X70515Y-61836D01*
X71184Y-61836D02*
X71515Y-61836D01*
X67934Y-61892D02*
X70571Y-61892D01*
X71129Y-61892D02*
X71571Y-61892D01*
X67934Y-61948D02*
X70628Y-61948D01*
X71073Y-61948D02*
X71628Y-61948D01*
X67934Y-62004D02*
X70761Y-62004D01*
X70937Y-62004D02*
X71665Y-62004D01*
X67934Y-62060D02*
X71665Y-62060D01*
X67934Y-62116D02*
X71665Y-62116D01*
X67934Y-62172D02*
X71665Y-62172D01*
X67934Y-62228D02*
X71665Y-62228D01*
X67934Y-62284D02*
X71665Y-62284D01*
X71665Y-62315D02*
X71665Y-61963D01*
X71626Y-61947D01*
X71515Y-61836D01*
X71455Y-61691D01*
X71455Y-60908D01*
X71516Y-60763D01*
X71627Y-60652D01*
X71665Y-60636D01*
X71665Y-55965D01*
X71658Y-55963D01*
X71587Y-55892D01*
X71549Y-55800D01*
X71549Y-55700D01*
X71587Y-55608D01*
X71658Y-55537D01*
X71665Y-55534D01*
X71665Y-55284D01*
X67934Y-55284D01*
X67934Y-56590D01*
X68021Y-56563D01*
X68308Y-56850D01*
X68021Y-57137D01*
X67934Y-57109D01*
X67934Y-62315D01*
X70771Y-62315D01*
X70771Y-62008D01*
X70626Y-61947D01*
X70515Y-61836D01*
X70455Y-61691D01*
X70455Y-60908D01*
X70516Y-60763D01*
X70627Y-60652D01*
X70627Y-60651D01*
X70297Y-60651D01*
X70241Y-60627D01*
X70251Y-60650D01*
X70251Y-60750D01*
X70213Y-60842D01*
X70142Y-60913D01*
X70050Y-60951D01*
X69950Y-60951D01*
X69858Y-60913D01*
X69802Y-60857D01*
X69802Y-60930D01*
X69741Y-61078D01*
X69628Y-61191D01*
X69480Y-61252D01*
X69320Y-61252D01*
X69172Y-61191D01*
X69059Y-61078D01*
X68998Y-60930D01*
X68998Y-60770D01*
X69059Y-60622D01*
X69172Y-60509D01*
X69225Y-60487D01*
X68957Y-60487D01*
X68764Y-60679D01*
X68802Y-60770D01*
X68802Y-60930D01*
X68741Y-61078D01*
X68628Y-61191D01*
X68480Y-61252D01*
X68320Y-61252D01*
X68172Y-61191D01*
X68059Y-61078D01*
X67998Y-60930D01*
X67998Y-60770D01*
X68059Y-60622D01*
X68172Y-60509D01*
X68320Y-60448D01*
X68480Y-60448D01*
X68570Y-60485D01*
X68802Y-60253D01*
X68848Y-60223D01*
X68900Y-60213D01*
X69225Y-60213D01*
X69172Y-60191D01*
X69059Y-60078D01*
X68998Y-59930D01*
X68998Y-59770D01*
X69059Y-59622D01*
X69172Y-59509D01*
X69225Y-59487D01*
X68956Y-59487D01*
X68764Y-59679D01*
X68802Y-59770D01*
X68802Y-59930D01*
X68741Y-60078D01*
X68628Y-60191D01*
X68480Y-60252D01*
X68320Y-60252D01*
X68172Y-60191D01*
X68059Y-60078D01*
X67998Y-59930D01*
X67998Y-59770D01*
X68059Y-59622D01*
X68172Y-59509D01*
X68320Y-59448D01*
X68320Y-59252D01*
X68172Y-59191D01*
X68059Y-59078D01*
X67998Y-58930D01*
X67998Y-58770D01*
X68059Y-58622D01*
X68172Y-58509D01*
X68320Y-58448D01*
X68320Y-58252D01*
X68172Y-58191D01*
X68059Y-58078D01*
X67998Y-57930D01*
X67998Y-57770D01*
X68059Y-57622D01*
X68172Y-57509D01*
X68320Y-57448D01*
X68339Y-57448D01*
X68339Y-57380D01*
X68141Y-57317D01*
X68113Y-57229D01*
X68400Y-56942D01*
X68400Y-56758D01*
X68113Y-56471D01*
X68141Y-56383D01*
X68253Y-56337D01*
X68461Y-56320D01*
X68659Y-56383D01*
X68687Y-56471D01*
X68400Y-56758D01*
X68400Y-56942D01*
X68687Y-57229D01*
X68659Y-57317D01*
X68547Y-57363D01*
X68339Y-57380D01*
X68339Y-57448D01*
X68480Y-57448D01*
X68628Y-57509D01*
X68741Y-57622D01*
X68779Y-57714D01*
X68779Y-57137D01*
X68492Y-56850D01*
X68779Y-56563D01*
X68867Y-56591D01*
X68913Y-56703D01*
X68930Y-56911D01*
X68867Y-57109D01*
X68779Y-57137D01*
X68779Y-57714D01*
X68802Y-57770D01*
X68802Y-57930D01*
X68741Y-58078D01*
X68628Y-58191D01*
X68480Y-58252D01*
X68320Y-58252D01*
X68320Y-58448D01*
X68480Y-58448D01*
X68570Y-58485D01*
X68851Y-58205D01*
X68853Y-58203D01*
X68885Y-58181D01*
X68896Y-58174D01*
X68896Y-58173D01*
X68898Y-58173D01*
X68936Y-58165D01*
X68949Y-58163D01*
X69144Y-58163D01*
X69059Y-58078D01*
X68998Y-57930D01*
X68998Y-57770D01*
X69059Y-57622D01*
X69172Y-57509D01*
X69320Y-57448D01*
X69320Y-57252D01*
X69172Y-57191D01*
X69059Y-57078D01*
X68998Y-56930D01*
X68998Y-56770D01*
X69059Y-56622D01*
X69172Y-56509D01*
X69263Y-56471D01*
X69263Y-56400D01*
X69273Y-56347D01*
X69303Y-56303D01*
X69603Y-56003D01*
X69648Y-55973D01*
X69700Y-55963D01*
X70272Y-55963D01*
X70272Y-55854D01*
X70288Y-55816D01*
X70317Y-55787D01*
X70355Y-55772D01*
X70646Y-55772D01*
X70684Y-55788D01*
X70713Y-55817D01*
X70728Y-55855D01*
X70728Y-56346D01*
X70712Y-56384D01*
X70683Y-56413D01*
X70645Y-56428D01*
X70637Y-56428D01*
X70637Y-56466D01*
X70749Y-56579D01*
X70980Y-56579D01*
X70980Y-56559D01*
X70929Y-56558D01*
X70843Y-56523D01*
X70778Y-56457D01*
X70742Y-56372D01*
X70742Y-56279D01*
X70741Y-56223D01*
X70799Y-56165D01*
X70799Y-56035D01*
X70741Y-55977D01*
X70742Y-55921D01*
X70742Y-55828D01*
X70778Y-55743D01*
X70843Y-55677D01*
X70929Y-55642D01*
X70980Y-55641D01*
X71038Y-55699D01*
X71038Y-56035D01*
X70799Y-56035D01*
X70799Y-56165D01*
X71038Y-56165D01*
X71038Y-56501D01*
X70980Y-56559D01*
X70980Y-56579D01*
X71220Y-56579D01*
X71220Y-56559D01*
X71162Y-56501D01*
X71162Y-56165D01*
X71162Y-56035D01*
X71162Y-55699D01*
X71220Y-55641D01*
X71271Y-55642D01*
X71357Y-55677D01*
X71422Y-55743D01*
X71458Y-55828D01*
X71458Y-55921D01*
X71459Y-55977D01*
X71401Y-56035D01*
X71162Y-56035D01*
X71162Y-56165D01*
X71401Y-56165D01*
X71459Y-56223D01*
X71458Y-56279D01*
X71458Y-56372D01*
X71422Y-56457D01*
X71357Y-56523D01*
X71271Y-56558D01*
X71220Y-56559D01*
X71220Y-56579D01*
X71231Y-56579D01*
X71269Y-56595D01*
X71298Y-56624D01*
X71313Y-56662D01*
X71313Y-56939D01*
X71300Y-56967D01*
X71342Y-56985D01*
X71408Y-57050D01*
X71443Y-57136D01*
X71444Y-57183D01*
X71386Y-57241D01*
X70842Y-57241D01*
X70842Y-57235D01*
X70712Y-57235D01*
X70712Y-57241D01*
X70168Y-57241D01*
X70110Y-57183D01*
X70111Y-57136D01*
X70146Y-57050D01*
X70212Y-56985D01*
X70252Y-56967D01*
X70241Y-56938D01*
X70241Y-56661D01*
X70257Y-56623D01*
X70286Y-56594D01*
X70324Y-56579D01*
X70375Y-56579D01*
X70373Y-56576D01*
X70363Y-56523D01*
X70363Y-56428D01*
X70354Y-56428D01*
X70316Y-56412D01*
X70287Y-56383D01*
X70272Y-56345D01*
X70272Y-56237D01*
X69756Y-56237D01*
X69537Y-56457D01*
X69537Y-56471D01*
X69628Y-56509D01*
X69741Y-56622D01*
X69802Y-56770D01*
X69802Y-56930D01*
X69741Y-57078D01*
X69628Y-57191D01*
X69480Y-57252D01*
X69320Y-57252D01*
X69320Y-57448D01*
X69480Y-57448D01*
X69628Y-57509D01*
X69741Y-57622D01*
X69802Y-57770D01*
X69802Y-57930D01*
X69741Y-58078D01*
X69656Y-58163D01*
X70241Y-58163D01*
X70241Y-58161D01*
X70257Y-58123D01*
X70286Y-58094D01*
X70323Y-58079D01*
X70323Y-58021D01*
X70285Y-58005D01*
X70256Y-57976D01*
X70246Y-57952D01*
X70191Y-57941D01*
X70141Y-57908D01*
X70084Y-57851D01*
X70000Y-57851D01*
X69908Y-57813D01*
X69837Y-57742D01*
X69799Y-57650D01*
X69799Y-57550D01*
X69837Y-57458D01*
X69908Y-57387D01*
X70000Y-57349D01*
X70100Y-57349D01*
X70155Y-57371D01*
X70168Y-57359D01*
X70712Y-57359D01*
X70712Y-57365D01*
X70842Y-57365D01*
X70842Y-57359D01*
X71386Y-57359D01*
X71444Y-57417D01*
X71443Y-57464D01*
X71408Y-57550D01*
X71342Y-57615D01*
X71301Y-57632D01*
X71313Y-57662D01*
X71313Y-57939D01*
X71297Y-57977D01*
X71268Y-58006D01*
X71230Y-58021D01*
X70323Y-58021D01*
X70323Y-58079D01*
X71231Y-58079D01*
X71269Y-58095D01*
X71298Y-58124D01*
X71313Y-58162D01*
X71313Y-58439D01*
X71297Y-58477D01*
X71268Y-58506D01*
X71230Y-58521D01*
X70323Y-58521D01*
X70285Y-58505D01*
X70256Y-58476D01*
X70241Y-58438D01*
X70241Y-58437D01*
X69006Y-58437D01*
X68764Y-58679D01*
X68802Y-58770D01*
X68802Y-58930D01*
X68741Y-59078D01*
X68628Y-59191D01*
X68480Y-59252D01*
X68320Y-59252D01*
X68320Y-59448D01*
X68480Y-59448D01*
X68570Y-59485D01*
X68802Y-59253D01*
X68848Y-59223D01*
X68900Y-59213D01*
X69225Y-59213D01*
X69172Y-59191D01*
X69059Y-59078D01*
X68998Y-58930D01*
X68998Y-58770D01*
X69059Y-58622D01*
X69172Y-58509D01*
X69320Y-58448D01*
X69480Y-58448D01*
X69628Y-58509D01*
X69741Y-58622D01*
X69802Y-58770D01*
X69802Y-58930D01*
X69741Y-59078D01*
X69628Y-59191D01*
X69574Y-59213D01*
X69693Y-59213D01*
X70203Y-58703D01*
X70235Y-58681D01*
X70241Y-58677D01*
X70241Y-58661D01*
X70257Y-58623D01*
X70286Y-58594D01*
X70324Y-58579D01*
X71231Y-58579D01*
X71269Y-58595D01*
X71298Y-58624D01*
X71313Y-58662D01*
X71313Y-58939D01*
X71297Y-58977D01*
X71268Y-59006D01*
X71230Y-59021D01*
X70323Y-59021D01*
X70287Y-59005D01*
X69847Y-59447D01*
X69803Y-59477D01*
X69750Y-59487D01*
X69574Y-59487D01*
X69628Y-59509D01*
X69741Y-59622D01*
X69802Y-59770D01*
X69802Y-59930D01*
X69750Y-60055D01*
X69863Y-59943D01*
X69863Y-59550D01*
X69873Y-59497D01*
X69903Y-59453D01*
X70153Y-59203D01*
X70198Y-59173D01*
X70241Y-59164D01*
X70241Y-59161D01*
X70257Y-59123D01*
X70286Y-59094D01*
X70324Y-59079D01*
X71231Y-59079D01*
X71269Y-59095D01*
X71298Y-59124D01*
X71313Y-59162D01*
X71313Y-59439D01*
X71297Y-59477D01*
X71268Y-59506D01*
X71230Y-59521D01*
X70323Y-59521D01*
X70285Y-59505D01*
X70261Y-59481D01*
X70137Y-59606D01*
X70137Y-59897D01*
X70241Y-59793D01*
X70241Y-59661D01*
X70257Y-59623D01*
X70286Y-59594D01*
X70324Y-59579D01*
X71231Y-59579D01*
X71269Y-59595D01*
X71298Y-59624D01*
X71313Y-59662D01*
X71313Y-59939D01*
X71300Y-59967D01*
X71342Y-59985D01*
X71408Y-60050D01*
X71443Y-60136D01*
X71444Y-60183D01*
X71386Y-60241D01*
X70842Y-60241D01*
X70842Y-60235D01*
X70712Y-60235D01*
X70712Y-60241D01*
X70712Y-60359D01*
X70712Y-60365D01*
X70842Y-60365D01*
X70842Y-60359D01*
X71386Y-60359D01*
X71444Y-60417D01*
X71443Y-60464D01*
X71408Y-60550D01*
X71342Y-60615D01*
X71257Y-60651D01*
X71070Y-60651D01*
X71074Y-60653D01*
X71185Y-60764D01*
X71245Y-60909D01*
X71245Y-61692D01*
X71184Y-61837D01*
X71073Y-61948D01*
X70928Y-62008D01*
X70771Y-62008D01*
X70771Y-62315D01*
X71665Y-62315D01*
X71934Y-55284D02*
X75365Y-55284D01*
X71934Y-55340D02*
X75365Y-55340D01*
X71934Y-55396D02*
X75365Y-55396D01*
X71934Y-55452D02*
X74146Y-55452D01*
X75154Y-55452D02*
X75365Y-55452D01*
X71934Y-55508D02*
X74071Y-55508D01*
X75229Y-55508D02*
X75365Y-55508D01*
X71969Y-55564D02*
X74015Y-55564D01*
X75285Y-55564D02*
X75365Y-55564D01*
X72926Y-55620D02*
X73985Y-55620D01*
X75316Y-55620D02*
X75365Y-55620D01*
X72992Y-55676D02*
X73961Y-55676D01*
X75339Y-55676D02*
X75365Y-55676D01*
X73048Y-55732D02*
X73942Y-55732D01*
X75358Y-55732D02*
X75365Y-55732D01*
X73284Y-55788D02*
X73942Y-55788D01*
X75358Y-55788D02*
X75365Y-55788D01*
X73324Y-55844D02*
X73942Y-55844D01*
X75358Y-55844D02*
X75365Y-55844D01*
X73328Y-55900D02*
X73950Y-55900D01*
X75349Y-55900D02*
X75365Y-55900D01*
X71949Y-55956D02*
X72142Y-55956D01*
X75325Y-55956D02*
X75365Y-55956D01*
X71934Y-56012D02*
X72176Y-56012D01*
X72824Y-56012D02*
X72872Y-56012D01*
X75302Y-56012D02*
X75365Y-56012D01*
X71934Y-56068D02*
X72872Y-56068D01*
X75253Y-56068D02*
X75365Y-56068D01*
X71934Y-56124D02*
X72872Y-56124D01*
X75197Y-56124D02*
X75365Y-56124D01*
X71934Y-56180D02*
X72184Y-56180D01*
X72438Y-56180D02*
X72562Y-56180D01*
X72816Y-56180D02*
X72872Y-56180D01*
X75077Y-56180D02*
X75365Y-56180D01*
X71934Y-56236D02*
X72141Y-56236D01*
X72438Y-56236D02*
X72562Y-56236D01*
X72858Y-56236D02*
X72872Y-56236D01*
X74416Y-56236D02*
X75365Y-56236D01*
X71934Y-56292D02*
X72142Y-56292D01*
X72438Y-56292D02*
X72562Y-56292D01*
X72858Y-56292D02*
X72872Y-56292D01*
X73328Y-56292D02*
X75365Y-56292D01*
X71934Y-56348D02*
X72142Y-56348D01*
X72438Y-56348D02*
X72562Y-56348D01*
X72858Y-56348D02*
X72873Y-56348D01*
X73327Y-56348D02*
X75365Y-56348D01*
X71934Y-56404D02*
X72155Y-56404D01*
X72438Y-56404D02*
X72562Y-56404D01*
X72844Y-56404D02*
X72908Y-56404D01*
X73292Y-56404D02*
X75365Y-56404D01*
X71934Y-56460D02*
X72180Y-56460D01*
X72438Y-56460D02*
X72562Y-56460D01*
X72819Y-56460D02*
X72946Y-56460D01*
X73253Y-56460D02*
X74127Y-56460D01*
X75173Y-56460D02*
X75365Y-56460D01*
X71934Y-56516D02*
X72236Y-56516D01*
X72423Y-56516D02*
X72577Y-56516D01*
X72763Y-56516D02*
X72890Y-56516D01*
X73253Y-56516D02*
X74063Y-56516D01*
X75237Y-56516D02*
X75365Y-56516D01*
X71934Y-56572D02*
X72834Y-56572D01*
X73242Y-56572D02*
X74007Y-56572D01*
X75293Y-56572D02*
X75365Y-56572D01*
X71934Y-56628D02*
X72301Y-56628D01*
X73346Y-56628D02*
X73982Y-56628D01*
X75320Y-56628D02*
X75365Y-56628D01*
X71934Y-56684D02*
X72287Y-56684D01*
X73359Y-56684D02*
X73958Y-56684D01*
X75343Y-56684D02*
X75365Y-56684D01*
X71934Y-56740D02*
X72287Y-56740D01*
X73359Y-56740D02*
X73942Y-56740D01*
X75358Y-56740D02*
X75365Y-56740D01*
X71934Y-56796D02*
X72287Y-56796D01*
X73359Y-56796D02*
X73888Y-56796D01*
X75358Y-56796D02*
X75365Y-56796D01*
X71934Y-56852D02*
X72287Y-56852D01*
X73359Y-56852D02*
X73832Y-56852D01*
X75358Y-56852D02*
X75365Y-56852D01*
X71934Y-56908D02*
X72287Y-56908D01*
X73359Y-56908D02*
X73776Y-56908D01*
X75345Y-56908D02*
X75365Y-56908D01*
X71934Y-56964D02*
X72296Y-56964D01*
X73347Y-56964D02*
X73720Y-56964D01*
X75322Y-56964D02*
X75365Y-56964D01*
X71934Y-57020D02*
X72223Y-57020D01*
X73424Y-57020D02*
X73664Y-57020D01*
X75298Y-57020D02*
X75365Y-57020D01*
X71934Y-57076D02*
X72182Y-57076D01*
X73465Y-57076D02*
X73608Y-57076D01*
X74039Y-57076D02*
X74055Y-57076D01*
X75245Y-57076D02*
X75365Y-57076D01*
X71934Y-57132D02*
X72159Y-57132D01*
X73488Y-57132D02*
X73552Y-57132D01*
X73983Y-57132D02*
X74111Y-57132D01*
X75189Y-57132D02*
X75365Y-57132D01*
X71934Y-57188D02*
X72161Y-57188D01*
X73485Y-57188D02*
X73512Y-57188D01*
X73927Y-57188D02*
X74241Y-57188D01*
X75057Y-57188D02*
X75365Y-57188D01*
X71934Y-57244D02*
X73499Y-57244D01*
X73871Y-57244D02*
X75365Y-57244D01*
X71934Y-57300D02*
X73497Y-57300D01*
X73815Y-57300D02*
X75365Y-57300D01*
X71934Y-57356D02*
X73497Y-57356D01*
X73803Y-57356D02*
X75365Y-57356D01*
X71934Y-57412D02*
X72161Y-57412D01*
X73485Y-57412D02*
X73497Y-57412D01*
X73803Y-57412D02*
X74243Y-57412D01*
X75059Y-57412D02*
X75365Y-57412D01*
X71934Y-57468D02*
X72158Y-57468D01*
X73487Y-57468D02*
X73497Y-57468D01*
X73803Y-57468D02*
X74111Y-57468D01*
X75189Y-57468D02*
X75365Y-57468D01*
X71934Y-57524D02*
X72181Y-57524D01*
X73464Y-57524D02*
X73497Y-57524D01*
X73803Y-57524D02*
X74055Y-57524D01*
X75245Y-57524D02*
X75365Y-57524D01*
X71934Y-57580D02*
X72222Y-57580D01*
X73423Y-57580D02*
X73453Y-57580D01*
X73803Y-57580D02*
X74002Y-57580D01*
X75300Y-57580D02*
X75365Y-57580D01*
X71935Y-57636D02*
X72298Y-57636D01*
X73349Y-57636D02*
X73397Y-57636D01*
X73795Y-57636D02*
X73978Y-57636D01*
X75323Y-57636D02*
X75365Y-57636D01*
X71937Y-57692D02*
X72287Y-57692D01*
X73769Y-57692D02*
X73955Y-57692D01*
X75346Y-57692D02*
X75365Y-57692D01*
X71937Y-57748D02*
X72287Y-57748D01*
X73718Y-57748D02*
X73942Y-57748D01*
X75358Y-57748D02*
X75365Y-57748D01*
X71937Y-57804D02*
X72287Y-57804D01*
X73662Y-57804D02*
X73942Y-57804D01*
X75358Y-57804D02*
X75365Y-57804D01*
X71937Y-57860D02*
X72287Y-57860D01*
X73606Y-57860D02*
X73942Y-57860D01*
X75358Y-57860D02*
X75365Y-57860D01*
X71937Y-57916D02*
X72287Y-57916D01*
X73546Y-57916D02*
X73957Y-57916D01*
X75342Y-57916D02*
X75365Y-57916D01*
X71937Y-57972D02*
X72300Y-57972D01*
X73345Y-57972D02*
X73980Y-57972D01*
X75318Y-57972D02*
X75365Y-57972D01*
X71937Y-58028D02*
X74007Y-58028D01*
X75293Y-58028D02*
X75365Y-58028D01*
X71937Y-58084D02*
X72357Y-58084D01*
X73289Y-58084D02*
X74063Y-58084D01*
X75237Y-58084D02*
X75365Y-58084D01*
X71937Y-58140D02*
X72296Y-58140D01*
X73351Y-58140D02*
X74094Y-58140D01*
X75173Y-58140D02*
X75365Y-58140D01*
X71937Y-58196D02*
X72287Y-58196D01*
X74470Y-58196D02*
X75365Y-58196D01*
X71937Y-58252D02*
X72287Y-58252D01*
X74414Y-58252D02*
X75365Y-58252D01*
X71937Y-58308D02*
X72287Y-58308D01*
X74358Y-58308D02*
X75365Y-58308D01*
X71937Y-58364D02*
X72287Y-58364D01*
X74302Y-58364D02*
X75365Y-58364D01*
X71937Y-58420D02*
X72287Y-58420D01*
X75078Y-58420D02*
X75365Y-58420D01*
X71937Y-58476D02*
X72302Y-58476D01*
X73343Y-58476D02*
X74103Y-58476D01*
X75197Y-58476D02*
X75365Y-58476D01*
X71937Y-58532D02*
X74047Y-58532D01*
X75253Y-58532D02*
X75365Y-58532D01*
X71937Y-58588D02*
X72348Y-58588D01*
X73299Y-58588D02*
X73998Y-58588D01*
X75303Y-58588D02*
X75365Y-58588D01*
X71937Y-58644D02*
X72295Y-58644D01*
X73352Y-58644D02*
X73975Y-58644D01*
X75326Y-58644D02*
X75365Y-58644D01*
X71937Y-58700D02*
X72287Y-58700D01*
X75349Y-58700D02*
X75365Y-58700D01*
X71937Y-58756D02*
X72287Y-58756D01*
X75358Y-58756D02*
X75365Y-58756D01*
X71937Y-58812D02*
X72287Y-58812D01*
X75358Y-58812D02*
X75365Y-58812D01*
X71937Y-58868D02*
X72287Y-58868D01*
X75358Y-58868D02*
X75365Y-58868D01*
X71937Y-58924D02*
X72287Y-58924D01*
X75339Y-58924D02*
X75365Y-58924D01*
X71937Y-58980D02*
X72306Y-58980D01*
X73340Y-58980D02*
X73984Y-58980D01*
X75315Y-58980D02*
X75365Y-58980D01*
X71937Y-59036D02*
X74015Y-59036D01*
X75285Y-59036D02*
X75365Y-59036D01*
X71937Y-59092D02*
X72338Y-59092D01*
X73308Y-59092D02*
X74071Y-59092D01*
X75229Y-59092D02*
X75365Y-59092D01*
X71937Y-59148D02*
X72293Y-59148D01*
X75154Y-59148D02*
X75365Y-59148D01*
X71937Y-59204D02*
X72287Y-59204D01*
X74270Y-59204D02*
X75365Y-59204D01*
X71937Y-59260D02*
X72287Y-59260D01*
X74326Y-59260D02*
X75365Y-59260D01*
X71937Y-59316D02*
X72287Y-59316D01*
X74382Y-59316D02*
X75365Y-59316D01*
X71937Y-59372D02*
X72287Y-59372D01*
X74438Y-59372D02*
X75365Y-59372D01*
X71937Y-59428D02*
X72287Y-59428D01*
X75097Y-59428D02*
X75365Y-59428D01*
X71937Y-59484D02*
X72310Y-59484D01*
X73336Y-59484D02*
X74095Y-59484D01*
X75205Y-59484D02*
X75365Y-59484D01*
X71937Y-59540D02*
X74039Y-59540D01*
X75261Y-59540D02*
X75365Y-59540D01*
X71937Y-59596D02*
X72330Y-59596D01*
X73316Y-59596D02*
X73995Y-59596D01*
X75306Y-59596D02*
X75365Y-59596D01*
X71937Y-59652D02*
X72274Y-59652D01*
X73356Y-59652D02*
X73972Y-59652D01*
X75330Y-59652D02*
X75365Y-59652D01*
X71937Y-59708D02*
X72176Y-59708D01*
X73359Y-59708D02*
X73948Y-59708D01*
X75353Y-59708D02*
X75365Y-59708D01*
X71937Y-59764D02*
X72120Y-59764D01*
X73359Y-59764D02*
X73942Y-59764D01*
X75358Y-59764D02*
X75365Y-59764D01*
X71934Y-59820D02*
X72064Y-59820D01*
X73359Y-59820D02*
X73942Y-59820D01*
X75358Y-59820D02*
X75365Y-59820D01*
X71934Y-59876D02*
X72008Y-59876D01*
X73359Y-59876D02*
X73942Y-59876D01*
X75358Y-59876D02*
X75365Y-59876D01*
X71934Y-59932D02*
X71952Y-59932D01*
X73359Y-59932D02*
X73964Y-59932D01*
X75335Y-59932D02*
X75365Y-59932D01*
X73392Y-59988D02*
X73987Y-59988D01*
X75312Y-59988D02*
X75365Y-59988D01*
X73448Y-60044D02*
X74023Y-60044D01*
X75277Y-60044D02*
X75365Y-60044D01*
X73475Y-60100D02*
X74079Y-60100D01*
X75221Y-60100D02*
X75365Y-60100D01*
X73490Y-60156D02*
X74165Y-60156D01*
X75135Y-60156D02*
X75365Y-60156D01*
X72103Y-60212D02*
X72185Y-60212D01*
X73461Y-60212D02*
X75365Y-60212D01*
X72047Y-60268D02*
X75365Y-60268D01*
X72003Y-60324D02*
X75365Y-60324D01*
X72003Y-60380D02*
X72193Y-60380D01*
X73453Y-60380D02*
X75365Y-60380D01*
X72003Y-60436D02*
X72156Y-60436D01*
X73489Y-60436D02*
X74184Y-60436D01*
X75116Y-60436D02*
X75365Y-60436D01*
X72003Y-60492D02*
X72168Y-60492D01*
X73477Y-60492D02*
X74087Y-60492D01*
X75213Y-60492D02*
X75365Y-60492D01*
X72003Y-60548D02*
X72191Y-60548D01*
X73454Y-60548D02*
X74031Y-60548D01*
X75269Y-60548D02*
X75365Y-60548D01*
X72003Y-60604D02*
X72246Y-60604D01*
X73399Y-60604D02*
X73992Y-60604D01*
X75310Y-60604D02*
X75365Y-60604D01*
X72081Y-60660D02*
X72619Y-60660D01*
X73081Y-60660D02*
X73968Y-60660D01*
X75333Y-60660D02*
X75365Y-60660D01*
X72137Y-60716D02*
X72563Y-60716D01*
X73137Y-60716D02*
X73945Y-60716D01*
X75356Y-60716D02*
X75365Y-60716D01*
X72189Y-60772D02*
X72513Y-60772D01*
X73189Y-60772D02*
X73942Y-60772D01*
X75358Y-60772D02*
X75365Y-60772D01*
X72212Y-60828D02*
X72489Y-60828D01*
X73212Y-60828D02*
X73942Y-60828D01*
X75358Y-60828D02*
X75365Y-60828D01*
X72235Y-60884D02*
X72466Y-60884D01*
X73235Y-60884D02*
X73944Y-60884D01*
X75355Y-60884D02*
X75365Y-60884D01*
X72245Y-60940D02*
X72455Y-60940D01*
X73245Y-60940D02*
X73967Y-60940D01*
X75332Y-60940D02*
X75365Y-60940D01*
X72245Y-60996D02*
X72455Y-60996D01*
X73245Y-60996D02*
X73990Y-60996D01*
X75308Y-60996D02*
X75365Y-60996D01*
X72245Y-61052D02*
X72455Y-61052D01*
X73245Y-61052D02*
X74031Y-61052D01*
X75269Y-61052D02*
X75365Y-61052D01*
X72245Y-61108D02*
X72455Y-61108D01*
X73245Y-61108D02*
X74087Y-61108D01*
X75213Y-61108D02*
X75365Y-61108D01*
X72245Y-61164D02*
X72455Y-61164D01*
X73245Y-61164D02*
X74184Y-61164D01*
X75115Y-61164D02*
X75365Y-61164D01*
X72245Y-61220D02*
X72455Y-61220D01*
X73245Y-61220D02*
X75365Y-61220D01*
X72245Y-61276D02*
X72455Y-61276D01*
X73245Y-61276D02*
X74237Y-61276D01*
X74585Y-61276D02*
X74715Y-61276D01*
X75062Y-61276D02*
X75365Y-61276D01*
X72245Y-61332D02*
X72455Y-61332D01*
X73245Y-61332D02*
X74087Y-61332D01*
X74585Y-61332D02*
X74715Y-61332D01*
X75214Y-61332D02*
X75365Y-61332D01*
X72245Y-61388D02*
X72455Y-61388D01*
X73245Y-61388D02*
X74015Y-61388D01*
X74585Y-61388D02*
X74715Y-61388D01*
X75286Y-61388D02*
X75365Y-61388D01*
X72245Y-61444D02*
X72455Y-61444D01*
X73245Y-61444D02*
X73955Y-61444D01*
X74585Y-61444D02*
X74715Y-61444D01*
X75347Y-61444D02*
X75365Y-61444D01*
X72245Y-61500D02*
X72455Y-61500D01*
X73245Y-61500D02*
X73905Y-61500D01*
X74585Y-61500D02*
X74715Y-61500D01*
X72245Y-61556D02*
X72455Y-61556D01*
X73245Y-61556D02*
X73881Y-61556D01*
X74585Y-61556D02*
X74715Y-61556D01*
X72245Y-61612D02*
X72455Y-61612D01*
X73245Y-61612D02*
X73856Y-61612D01*
X74585Y-61612D02*
X74715Y-61612D01*
X72245Y-61668D02*
X72455Y-61668D01*
X73245Y-61668D02*
X73844Y-61668D01*
X74585Y-61668D02*
X74715Y-61668D01*
X72231Y-61724D02*
X72468Y-61724D01*
X73231Y-61724D02*
X73873Y-61724D01*
X74585Y-61724D02*
X74715Y-61724D01*
X72207Y-61780D02*
X72491Y-61780D01*
X73207Y-61780D02*
X74715Y-61780D01*
X72184Y-61836D02*
X72515Y-61836D01*
X73184Y-61836D02*
X74715Y-61836D01*
X72129Y-61892D02*
X72571Y-61892D01*
X73129Y-61892D02*
X73866Y-61892D01*
X72073Y-61948D02*
X72628Y-61948D01*
X73073Y-61948D02*
X73837Y-61948D01*
X71936Y-62004D02*
X72761Y-62004D01*
X72937Y-62004D02*
X73862Y-62004D01*
X71934Y-62060D02*
X73887Y-62060D01*
X71934Y-62116D02*
X73912Y-62116D01*
X71934Y-62172D02*
X73971Y-62172D01*
X71934Y-62228D02*
X74032Y-62228D01*
X71934Y-62284D02*
X74130Y-62284D01*
X74214Y-62315D02*
X74068Y-62261D01*
X73913Y-62118D01*
X73837Y-61947D01*
X73879Y-61865D01*
X74258Y-61865D01*
X74258Y-61735D01*
X73879Y-61735D01*
X73837Y-61653D01*
X73913Y-61482D01*
X74068Y-61339D01*
X74258Y-61268D01*
X74258Y-61195D01*
X74113Y-61134D01*
X74002Y-61023D01*
X73942Y-60878D01*
X73942Y-60721D01*
X74003Y-60576D01*
X74114Y-60465D01*
X74258Y-60405D01*
X74258Y-60195D01*
X74113Y-60134D01*
X74002Y-60023D01*
X73942Y-59878D01*
X73942Y-59721D01*
X74003Y-59576D01*
X74106Y-59472D01*
X74087Y-59453D01*
X73353Y-59453D01*
X73343Y-59477D01*
X73314Y-59506D01*
X73276Y-59521D01*
X72369Y-59521D01*
X72331Y-59505D01*
X72302Y-59476D01*
X72287Y-59438D01*
X72287Y-59161D01*
X72303Y-59123D01*
X72332Y-59094D01*
X72370Y-59079D01*
X73277Y-59079D01*
X73315Y-59095D01*
X73344Y-59124D01*
X73353Y-59147D01*
X74143Y-59147D01*
X74113Y-59134D01*
X74002Y-59023D01*
X73973Y-58953D01*
X73353Y-58953D01*
X73343Y-58977D01*
X73314Y-59006D01*
X73276Y-59021D01*
X72369Y-59021D01*
X72331Y-59005D01*
X72302Y-58976D01*
X72287Y-58938D01*
X72287Y-58661D01*
X72303Y-58623D01*
X72332Y-58594D01*
X72370Y-58579D01*
X73277Y-58579D01*
X73315Y-58595D01*
X73344Y-58624D01*
X73353Y-58647D01*
X73973Y-58647D01*
X74003Y-58576D01*
X74114Y-58465D01*
X74142Y-58453D01*
X73353Y-58452D01*
X73343Y-58477D01*
X73314Y-58506D01*
X73276Y-58521D01*
X72369Y-58521D01*
X72331Y-58505D01*
X72302Y-58476D01*
X72287Y-58438D01*
X72287Y-58161D01*
X72303Y-58123D01*
X72332Y-58094D01*
X72369Y-58079D01*
X72369Y-58021D01*
X72331Y-58005D01*
X72302Y-57976D01*
X72287Y-57938D01*
X72287Y-57661D01*
X72299Y-57632D01*
X72258Y-57615D01*
X72192Y-57550D01*
X72157Y-57464D01*
X72156Y-57417D01*
X72214Y-57359D01*
X72758Y-57359D01*
X72758Y-57365D01*
X72888Y-57365D01*
X72888Y-57359D01*
X73432Y-57359D01*
X73490Y-57417D01*
X73489Y-57464D01*
X73454Y-57550D01*
X73388Y-57615D01*
X73347Y-57632D01*
X73353Y-57647D01*
X73386Y-57647D01*
X73497Y-57536D01*
X73497Y-57250D01*
X73509Y-57191D01*
X73542Y-57142D01*
X73942Y-56742D01*
X73942Y-56721D01*
X74003Y-56576D01*
X74114Y-56465D01*
X74259Y-56405D01*
X75042Y-56405D01*
X75187Y-56466D01*
X75298Y-56577D01*
X75358Y-56722D01*
X75358Y-56879D01*
X75297Y-57024D01*
X75186Y-57135D01*
X75041Y-57195D01*
X74258Y-57195D01*
X74113Y-57134D01*
X74047Y-57068D01*
X73803Y-57313D01*
X73803Y-57600D01*
X73791Y-57659D01*
X73758Y-57709D01*
X73558Y-57908D01*
X73509Y-57941D01*
X73450Y-57953D01*
X73353Y-57953D01*
X73343Y-57977D01*
X73314Y-58006D01*
X73276Y-58021D01*
X72369Y-58021D01*
X72369Y-58079D01*
X73277Y-58079D01*
X73315Y-58095D01*
X73344Y-58124D01*
X73353Y-58147D01*
X74087Y-58147D01*
X74106Y-58127D01*
X74002Y-58023D01*
X73942Y-57878D01*
X73942Y-57721D01*
X74003Y-57576D01*
X74114Y-57465D01*
X74259Y-57405D01*
X75042Y-57405D01*
X75187Y-57466D01*
X75298Y-57577D01*
X75358Y-57722D01*
X75358Y-57879D01*
X75297Y-58024D01*
X75186Y-58135D01*
X75041Y-58195D01*
X74471Y-58195D01*
X74261Y-58405D01*
X75042Y-58405D01*
X75187Y-58466D01*
X75298Y-58577D01*
X75358Y-58722D01*
X75358Y-58879D01*
X75297Y-59024D01*
X75186Y-59135D01*
X75041Y-59195D01*
X74261Y-59195D01*
X74471Y-59405D01*
X75042Y-59405D01*
X75187Y-59466D01*
X75298Y-59577D01*
X75358Y-59722D01*
X75358Y-59879D01*
X75297Y-60024D01*
X75186Y-60135D01*
X75041Y-60195D01*
X74258Y-60195D01*
X74258Y-60405D01*
X75042Y-60405D01*
X75187Y-60466D01*
X75298Y-60577D01*
X75358Y-60722D01*
X75358Y-60879D01*
X75297Y-61024D01*
X75186Y-61135D01*
X75041Y-61195D01*
X74258Y-61195D01*
X74258Y-61268D01*
X74266Y-61266D01*
X74585Y-61266D01*
X74585Y-61735D01*
X74258Y-61735D01*
X74258Y-61865D01*
X74585Y-61865D01*
X74715Y-61865D01*
X74715Y-61735D01*
X74715Y-61266D01*
X75034Y-61266D01*
X75232Y-61339D01*
X75365Y-61461D01*
X75365Y-55284D01*
X71934Y-55284D01*
X71934Y-55533D01*
X71942Y-55537D01*
X72001Y-55597D01*
X72850Y-55597D01*
X72909Y-55609D01*
X72958Y-55642D01*
X73088Y-55772D01*
X73246Y-55772D01*
X73284Y-55788D01*
X73313Y-55817D01*
X73328Y-55855D01*
X73328Y-55947D01*
X73970Y-55947D01*
X73942Y-55878D01*
X73942Y-55721D01*
X74003Y-55576D01*
X74114Y-55465D01*
X74259Y-55405D01*
X75042Y-55405D01*
X75187Y-55466D01*
X75298Y-55577D01*
X75358Y-55722D01*
X75358Y-55879D01*
X75297Y-56024D01*
X75186Y-56135D01*
X75041Y-56195D01*
X74466Y-56195D01*
X74458Y-56208D01*
X74409Y-56241D01*
X74350Y-56253D01*
X73328Y-56253D01*
X73328Y-56346D01*
X73312Y-56384D01*
X73283Y-56413D01*
X73253Y-56424D01*
X73253Y-56523D01*
X73241Y-56579D01*
X73277Y-56579D01*
X73315Y-56595D01*
X73344Y-56624D01*
X73359Y-56662D01*
X73359Y-56939D01*
X73346Y-56967D01*
X73388Y-56985D01*
X73454Y-57050D01*
X73489Y-57136D01*
X73490Y-57183D01*
X73432Y-57241D01*
X72888Y-57241D01*
X72888Y-57235D01*
X72758Y-57235D01*
X72758Y-57241D01*
X72214Y-57241D01*
X72156Y-57183D01*
X72157Y-57136D01*
X72192Y-57050D01*
X72258Y-56985D01*
X72298Y-56967D01*
X72287Y-56938D01*
X72287Y-56661D01*
X72303Y-56623D01*
X72332Y-56594D01*
X72370Y-56579D01*
X72380Y-56579D01*
X72380Y-56559D01*
X72329Y-56558D01*
X72243Y-56523D01*
X72178Y-56457D01*
X72142Y-56372D01*
X72142Y-56279D01*
X72141Y-56223D01*
X72199Y-56165D01*
X72438Y-56165D01*
X72438Y-56501D01*
X72380Y-56559D01*
X72380Y-56579D01*
X72620Y-56579D01*
X72620Y-56559D01*
X72562Y-56501D01*
X72562Y-56165D01*
X72801Y-56165D01*
X72859Y-56223D01*
X72858Y-56279D01*
X72858Y-56372D01*
X72822Y-56457D01*
X72757Y-56523D01*
X72671Y-56558D01*
X72620Y-56559D01*
X72620Y-56579D01*
X72827Y-56579D01*
X72947Y-56459D01*
X72947Y-56425D01*
X72916Y-56412D01*
X72887Y-56383D01*
X72872Y-56345D01*
X72872Y-55988D01*
X72858Y-55975D01*
X72859Y-55977D01*
X72801Y-56035D01*
X72565Y-56035D01*
X72562Y-56035D01*
X72438Y-56035D01*
X72435Y-56035D01*
X72199Y-56035D01*
X72141Y-55977D01*
X72142Y-55921D01*
X72142Y-55903D01*
X72002Y-55903D01*
X71942Y-55963D01*
X71934Y-55966D01*
X71934Y-57634D01*
X71937Y-57650D01*
X71937Y-59800D01*
X71934Y-59815D01*
X71934Y-59950D01*
X72192Y-59692D01*
X72241Y-59659D01*
X72292Y-59648D01*
X72303Y-59623D01*
X72332Y-59594D01*
X72370Y-59579D01*
X73277Y-59579D01*
X73315Y-59595D01*
X73344Y-59624D01*
X73359Y-59662D01*
X73359Y-59939D01*
X73346Y-59967D01*
X73388Y-59985D01*
X73454Y-60050D01*
X73489Y-60136D01*
X73490Y-60183D01*
X73432Y-60241D01*
X72888Y-60241D01*
X72888Y-60235D01*
X72758Y-60235D01*
X72758Y-60241D01*
X72214Y-60241D01*
X72156Y-60183D01*
X72156Y-60159D01*
X72003Y-60313D01*
X72003Y-60623D01*
X72074Y-60653D01*
X72185Y-60764D01*
X72245Y-60909D01*
X72245Y-61692D01*
X72184Y-61837D01*
X72073Y-61948D01*
X71934Y-62005D01*
X71934Y-62315D01*
X72771Y-62315D01*
X72771Y-62008D01*
X72626Y-61947D01*
X72515Y-61836D01*
X72455Y-61691D01*
X72455Y-60908D01*
X72516Y-60763D01*
X72627Y-60652D01*
X72627Y-60651D01*
X72343Y-60651D01*
X72258Y-60615D01*
X72192Y-60550D01*
X72157Y-60464D01*
X72156Y-60417D01*
X72214Y-60359D01*
X72758Y-60359D01*
X72758Y-60365D01*
X72888Y-60365D01*
X72888Y-60359D01*
X73432Y-60359D01*
X73490Y-60417D01*
X73489Y-60464D01*
X73454Y-60550D01*
X73388Y-60615D01*
X73303Y-60651D01*
X73070Y-60651D01*
X73074Y-60653D01*
X73185Y-60764D01*
X73245Y-60909D01*
X73245Y-61692D01*
X73184Y-61837D01*
X73073Y-61948D01*
X72928Y-62008D01*
X72771Y-62008D01*
X72771Y-62315D01*
X74214Y-62315D01*
M02*
