G04 (created by PCBNEW-RS274X (2010-03-14)-final) date lun 07 nov 2011 20:25:05 ART*
G01*
G70*
G90*
%MOIN*%
G04 Gerber Fmt 3.4, Leading zero omitted, Abs format*
%FSLAX34Y34*%
G04 APERTURE LIST*
%ADD10C,0.000100*%
%ADD11C,0.015000*%
%ADD12C,0.010000*%
%ADD13C,0.006600*%
%ADD14C,0.005000*%
%ADD15C,0.008000*%
G04 APERTURE END LIST*
G54D10*
G54D11*
X33250Y-11250D02*
X33250Y-11450D01*
X59200Y-11250D02*
X33250Y-11250D01*
X59200Y-11800D02*
X59200Y-11250D01*
X59200Y-35800D02*
X59200Y-11800D01*
X33250Y-35800D02*
X59200Y-35800D01*
X33250Y-11350D02*
X33250Y-35800D01*
G54D12*
X42142Y-21156D02*
X42199Y-21194D01*
X42313Y-21194D01*
X42370Y-21156D01*
X42399Y-21080D01*
X42399Y-20775D01*
X42370Y-20699D01*
X42313Y-20660D01*
X42199Y-20660D01*
X42142Y-20699D01*
X42113Y-20775D01*
X42113Y-20851D01*
X42399Y-20927D01*
X41399Y-21194D02*
X41399Y-20394D01*
X41113Y-20660D02*
X41113Y-21194D01*
X41113Y-20737D02*
X41085Y-20699D01*
X41027Y-20660D01*
X40942Y-20660D01*
X40885Y-20699D01*
X40856Y-20775D01*
X40856Y-21194D01*
X40656Y-20660D02*
X40427Y-20660D01*
X40570Y-21194D02*
X40570Y-20508D01*
X40542Y-20432D01*
X40484Y-20394D01*
X40427Y-20394D01*
X40141Y-21194D02*
X40199Y-21156D01*
X40227Y-21118D01*
X40256Y-21041D01*
X40256Y-20813D01*
X40227Y-20737D01*
X40199Y-20699D01*
X40141Y-20660D01*
X40056Y-20660D01*
X39999Y-20699D01*
X39970Y-20737D01*
X39941Y-20813D01*
X39941Y-21041D01*
X39970Y-21118D01*
X39999Y-21156D01*
X40056Y-21194D01*
X40141Y-21194D01*
X39684Y-21194D02*
X39684Y-20660D01*
X39684Y-20813D02*
X39656Y-20737D01*
X39627Y-20699D01*
X39570Y-20660D01*
X39513Y-20660D01*
X39313Y-21194D02*
X39313Y-20660D01*
X39313Y-20737D02*
X39285Y-20699D01*
X39227Y-20660D01*
X39142Y-20660D01*
X39085Y-20699D01*
X39056Y-20775D01*
X39056Y-21194D01*
X39056Y-20775D02*
X39027Y-20699D01*
X38970Y-20660D01*
X38885Y-20660D01*
X38827Y-20699D01*
X38799Y-20775D01*
X38799Y-21194D01*
X38256Y-21194D02*
X38256Y-20775D01*
X38285Y-20699D01*
X38342Y-20660D01*
X38456Y-20660D01*
X38513Y-20699D01*
X38256Y-21156D02*
X38313Y-21194D01*
X38456Y-21194D01*
X38513Y-21156D01*
X38542Y-21080D01*
X38542Y-21003D01*
X38513Y-20927D01*
X38456Y-20889D01*
X38313Y-20889D01*
X38256Y-20851D01*
X38056Y-20660D02*
X37827Y-20660D01*
X37970Y-20394D02*
X37970Y-21080D01*
X37942Y-21156D01*
X37884Y-21194D01*
X37827Y-21194D01*
X37627Y-21194D02*
X37627Y-20660D01*
X37627Y-20394D02*
X37656Y-20432D01*
X37627Y-20470D01*
X37599Y-20432D01*
X37627Y-20394D01*
X37627Y-20470D01*
X37084Y-21156D02*
X37141Y-21194D01*
X37255Y-21194D01*
X37313Y-21156D01*
X37341Y-21118D01*
X37370Y-21041D01*
X37370Y-20813D01*
X37341Y-20737D01*
X37313Y-20699D01*
X37255Y-20660D01*
X37141Y-20660D01*
X37084Y-20699D01*
X36570Y-21194D02*
X36570Y-20775D01*
X36599Y-20699D01*
X36656Y-20660D01*
X36770Y-20660D01*
X36827Y-20699D01*
X36570Y-21156D02*
X36627Y-21194D01*
X36770Y-21194D01*
X36827Y-21156D01*
X36856Y-21080D01*
X36856Y-21003D01*
X36827Y-20927D01*
X36770Y-20889D01*
X36627Y-20889D01*
X36570Y-20851D01*
X45831Y-20054D02*
X45831Y-19254D01*
X45545Y-20054D02*
X45545Y-19254D01*
X45202Y-20054D01*
X45202Y-19254D01*
X45002Y-19254D02*
X44659Y-19254D01*
X44830Y-20054D02*
X44830Y-19254D01*
X44459Y-20054D02*
X44459Y-19254D01*
X44173Y-19749D02*
X43716Y-19749D01*
X43430Y-19635D02*
X43230Y-19635D01*
X43144Y-20054D02*
X43430Y-20054D01*
X43430Y-19254D01*
X43144Y-19254D01*
X42801Y-20054D02*
X42859Y-20016D01*
X42887Y-19940D01*
X42887Y-19254D01*
X42345Y-20016D02*
X42402Y-20054D01*
X42516Y-20054D01*
X42573Y-20016D01*
X42602Y-19940D01*
X42602Y-19635D01*
X42573Y-19559D01*
X42516Y-19520D01*
X42402Y-19520D01*
X42345Y-19559D01*
X42316Y-19635D01*
X42316Y-19711D01*
X42602Y-19787D01*
X41802Y-20016D02*
X41859Y-20054D01*
X41973Y-20054D01*
X42031Y-20016D01*
X42059Y-19978D01*
X42088Y-19901D01*
X42088Y-19673D01*
X42059Y-19597D01*
X42031Y-19559D01*
X41973Y-19520D01*
X41859Y-19520D01*
X41802Y-19559D01*
X41631Y-19520D02*
X41402Y-19520D01*
X41545Y-19254D02*
X41545Y-19940D01*
X41517Y-20016D01*
X41459Y-20054D01*
X41402Y-20054D01*
X41202Y-20054D02*
X41202Y-19520D01*
X41202Y-19673D02*
X41174Y-19597D01*
X41145Y-19559D01*
X41088Y-19520D01*
X41031Y-19520D01*
X40745Y-20054D02*
X40803Y-20016D01*
X40831Y-19978D01*
X40860Y-19901D01*
X40860Y-19673D01*
X40831Y-19597D01*
X40803Y-19559D01*
X40745Y-19520D01*
X40660Y-19520D01*
X40603Y-19559D01*
X40574Y-19597D01*
X40545Y-19673D01*
X40545Y-19901D01*
X40574Y-19978D01*
X40603Y-20016D01*
X40660Y-20054D01*
X40745Y-20054D01*
X40288Y-19520D02*
X40288Y-20054D01*
X40288Y-19597D02*
X40260Y-19559D01*
X40202Y-19520D01*
X40117Y-19520D01*
X40060Y-19559D01*
X40031Y-19635D01*
X40031Y-20054D01*
X39745Y-20054D02*
X39745Y-19520D01*
X39745Y-19254D02*
X39774Y-19292D01*
X39745Y-19330D01*
X39717Y-19292D01*
X39745Y-19254D01*
X39745Y-19330D01*
X39202Y-20016D02*
X39259Y-20054D01*
X39373Y-20054D01*
X39431Y-20016D01*
X39459Y-19978D01*
X39488Y-19901D01*
X39488Y-19673D01*
X39459Y-19597D01*
X39431Y-19559D01*
X39373Y-19520D01*
X39259Y-19520D01*
X39202Y-19559D01*
X38688Y-20054D02*
X38688Y-19635D01*
X38717Y-19559D01*
X38774Y-19520D01*
X38888Y-19520D01*
X38945Y-19559D01*
X38688Y-20016D02*
X38745Y-20054D01*
X38888Y-20054D01*
X38945Y-20016D01*
X38974Y-19940D01*
X38974Y-19863D01*
X38945Y-19787D01*
X38888Y-19749D01*
X38745Y-19749D01*
X38688Y-19711D01*
X47799Y-22484D02*
X47799Y-21684D01*
X47542Y-22484D02*
X47542Y-22065D01*
X47571Y-21989D01*
X47628Y-21950D01*
X47713Y-21950D01*
X47771Y-21989D01*
X47799Y-22027D01*
X47342Y-21950D02*
X47113Y-21950D01*
X47256Y-21684D02*
X47256Y-22370D01*
X47228Y-22446D01*
X47170Y-22484D01*
X47113Y-22484D01*
X46999Y-21950D02*
X46770Y-21950D01*
X46913Y-21684D02*
X46913Y-22370D01*
X46885Y-22446D01*
X46827Y-22484D01*
X46770Y-22484D01*
X46570Y-21950D02*
X46570Y-22750D01*
X46570Y-21989D02*
X46513Y-21950D01*
X46399Y-21950D01*
X46342Y-21989D01*
X46313Y-22027D01*
X46284Y-22103D01*
X46284Y-22331D01*
X46313Y-22408D01*
X46342Y-22446D01*
X46399Y-22484D01*
X46513Y-22484D01*
X46570Y-22446D01*
X46027Y-22408D02*
X45999Y-22446D01*
X46027Y-22484D01*
X46056Y-22446D01*
X46027Y-22408D01*
X46027Y-22484D01*
X46027Y-21989D02*
X45999Y-22027D01*
X46027Y-22065D01*
X46056Y-22027D01*
X46027Y-21989D01*
X46027Y-22065D01*
X45313Y-21646D02*
X45827Y-22674D01*
X44684Y-21646D02*
X45198Y-22674D01*
X44283Y-22065D02*
X44483Y-22065D01*
X44483Y-22484D02*
X44483Y-21684D01*
X44197Y-21684D01*
X43969Y-22484D02*
X43969Y-21684D01*
X43741Y-21684D01*
X43683Y-21722D01*
X43655Y-21760D01*
X43626Y-21836D01*
X43626Y-21950D01*
X43655Y-22027D01*
X43683Y-22065D01*
X43741Y-22103D01*
X43969Y-22103D01*
X43055Y-21722D02*
X43112Y-21684D01*
X43198Y-21684D01*
X43283Y-21722D01*
X43341Y-21798D01*
X43369Y-21874D01*
X43398Y-22027D01*
X43398Y-22141D01*
X43369Y-22293D01*
X43341Y-22370D01*
X43283Y-22446D01*
X43198Y-22484D01*
X43141Y-22484D01*
X43055Y-22446D01*
X43026Y-22408D01*
X43026Y-22141D01*
X43141Y-22141D01*
X42798Y-22255D02*
X42512Y-22255D01*
X42855Y-22484D02*
X42655Y-21684D01*
X42455Y-22484D01*
X41969Y-22484D02*
X42255Y-22484D01*
X42255Y-21684D01*
X41769Y-22484D02*
X41769Y-21950D01*
X41769Y-21684D02*
X41798Y-21722D01*
X41769Y-21760D01*
X41741Y-21722D01*
X41769Y-21684D01*
X41769Y-21760D01*
X41483Y-22484D02*
X41483Y-21684D01*
X41483Y-21989D02*
X41426Y-21950D01*
X41312Y-21950D01*
X41255Y-21989D01*
X41226Y-22027D01*
X41197Y-22103D01*
X41197Y-22331D01*
X41226Y-22408D01*
X41255Y-22446D01*
X41312Y-22484D01*
X41426Y-22484D01*
X41483Y-22446D01*
X40940Y-22484D02*
X40940Y-21950D01*
X40940Y-22103D02*
X40912Y-22027D01*
X40883Y-21989D01*
X40826Y-21950D01*
X40769Y-21950D01*
X40341Y-22446D02*
X40398Y-22484D01*
X40512Y-22484D01*
X40569Y-22446D01*
X40598Y-22370D01*
X40598Y-22065D01*
X40569Y-21989D01*
X40512Y-21950D01*
X40398Y-21950D01*
X40341Y-21989D01*
X40312Y-22065D01*
X40312Y-22141D01*
X40598Y-22217D01*
X40055Y-22408D02*
X40027Y-22446D01*
X40055Y-22484D01*
X40084Y-22446D01*
X40055Y-22408D01*
X40055Y-22484D01*
X39798Y-22446D02*
X39741Y-22484D01*
X39626Y-22484D01*
X39569Y-22446D01*
X39541Y-22370D01*
X39541Y-22331D01*
X39569Y-22255D01*
X39626Y-22217D01*
X39712Y-22217D01*
X39769Y-22179D01*
X39798Y-22103D01*
X39798Y-22065D01*
X39769Y-21989D01*
X39712Y-21950D01*
X39626Y-21950D01*
X39569Y-21989D01*
X39369Y-21950D02*
X39140Y-21950D01*
X39283Y-22484D02*
X39283Y-21798D01*
X39255Y-21722D01*
X39197Y-21684D01*
X39140Y-21684D01*
X38940Y-22408D02*
X38912Y-22446D01*
X38940Y-22484D01*
X38969Y-22446D01*
X38940Y-22408D01*
X38940Y-22484D01*
X38654Y-21950D02*
X38654Y-22484D01*
X38654Y-22027D02*
X38626Y-21989D01*
X38568Y-21950D01*
X38483Y-21950D01*
X38426Y-21989D01*
X38397Y-22065D01*
X38397Y-22484D01*
X37883Y-22446D02*
X37940Y-22484D01*
X38054Y-22484D01*
X38111Y-22446D01*
X38140Y-22370D01*
X38140Y-22065D01*
X38111Y-21989D01*
X38054Y-21950D01*
X37940Y-21950D01*
X37883Y-21989D01*
X37854Y-22065D01*
X37854Y-22141D01*
X38140Y-22217D01*
X37683Y-21950D02*
X37454Y-21950D01*
X37597Y-21684D02*
X37597Y-22370D01*
X37569Y-22446D01*
X37511Y-22484D01*
X37454Y-22484D01*
X41606Y-14986D02*
X41520Y-15024D01*
X41377Y-15024D01*
X41320Y-14986D01*
X41291Y-14948D01*
X41263Y-14871D01*
X41263Y-14795D01*
X41291Y-14719D01*
X41320Y-14681D01*
X41377Y-14643D01*
X41491Y-14605D01*
X41549Y-14567D01*
X41577Y-14529D01*
X41606Y-14452D01*
X41606Y-14376D01*
X41577Y-14300D01*
X41549Y-14262D01*
X41491Y-14224D01*
X41349Y-14224D01*
X41263Y-14262D01*
X41063Y-14224D02*
X40692Y-14224D01*
X40892Y-14529D01*
X40806Y-14529D01*
X40749Y-14567D01*
X40720Y-14605D01*
X40692Y-14681D01*
X40692Y-14871D01*
X40720Y-14948D01*
X40749Y-14986D01*
X40806Y-15024D01*
X40978Y-15024D01*
X41035Y-14986D01*
X41063Y-14948D01*
X40435Y-15024D02*
X40435Y-14224D01*
X40207Y-14224D01*
X40149Y-14262D01*
X40121Y-14300D01*
X40092Y-14376D01*
X40092Y-14490D01*
X40121Y-14567D01*
X40149Y-14605D01*
X40207Y-14643D01*
X40435Y-14643D01*
X39721Y-14224D02*
X39607Y-14224D01*
X39549Y-14262D01*
X39492Y-14338D01*
X39464Y-14490D01*
X39464Y-14757D01*
X39492Y-14910D01*
X39549Y-14986D01*
X39607Y-15024D01*
X39721Y-15024D01*
X39778Y-14986D01*
X39835Y-14910D01*
X39864Y-14757D01*
X39864Y-14490D01*
X39835Y-14338D01*
X39778Y-14262D01*
X39721Y-14224D01*
X39263Y-14224D02*
X39120Y-15024D01*
X39006Y-14452D01*
X38892Y-15024D01*
X38749Y-14224D01*
X38520Y-14605D02*
X38320Y-14605D01*
X38234Y-15024D02*
X38520Y-15024D01*
X38520Y-14224D01*
X38234Y-14224D01*
X37634Y-15024D02*
X37834Y-14643D01*
X37977Y-15024D02*
X37977Y-14224D01*
X37749Y-14224D01*
X37691Y-14262D01*
X37663Y-14300D01*
X37634Y-14376D01*
X37634Y-14490D01*
X37663Y-14567D01*
X37691Y-14605D01*
X37749Y-14643D01*
X37977Y-14643D01*
G54D13*
X38206Y-13163D02*
X38150Y-13182D01*
X38131Y-13201D01*
X38112Y-13238D01*
X38112Y-13294D01*
X38131Y-13332D01*
X38150Y-13351D01*
X38187Y-13369D01*
X38337Y-13369D01*
X38337Y-12975D01*
X38206Y-12975D01*
X38168Y-12994D01*
X38150Y-13013D01*
X38131Y-13051D01*
X38131Y-13088D01*
X38150Y-13126D01*
X38168Y-13144D01*
X38206Y-13163D01*
X38337Y-13163D01*
X37868Y-12975D02*
X37793Y-12975D01*
X37756Y-12994D01*
X37718Y-13032D01*
X37699Y-13107D01*
X37699Y-13238D01*
X37718Y-13313D01*
X37756Y-13351D01*
X37793Y-13369D01*
X37868Y-13369D01*
X37906Y-13351D01*
X37943Y-13313D01*
X37962Y-13238D01*
X37962Y-13107D01*
X37943Y-13032D01*
X37906Y-12994D01*
X37868Y-12975D01*
X37586Y-12975D02*
X37361Y-12975D01*
X37474Y-13369D02*
X37474Y-12975D01*
X37286Y-12975D02*
X37061Y-12975D01*
X37174Y-13369D02*
X37174Y-12975D01*
X36855Y-12975D02*
X36780Y-12975D01*
X36743Y-12994D01*
X36705Y-13032D01*
X36686Y-13107D01*
X36686Y-13238D01*
X36705Y-13313D01*
X36743Y-13351D01*
X36780Y-13369D01*
X36855Y-13369D01*
X36893Y-13351D01*
X36930Y-13313D01*
X36949Y-13238D01*
X36949Y-13107D01*
X36930Y-13032D01*
X36893Y-12994D01*
X36855Y-12975D01*
X36517Y-13369D02*
X36517Y-12975D01*
X36386Y-13257D01*
X36255Y-12975D01*
X36255Y-13369D01*
X35786Y-13351D02*
X35730Y-13369D01*
X35636Y-13369D01*
X35598Y-13351D01*
X35580Y-13332D01*
X35561Y-13294D01*
X35561Y-13257D01*
X35580Y-13219D01*
X35598Y-13201D01*
X35636Y-13182D01*
X35711Y-13163D01*
X35748Y-13144D01*
X35767Y-13126D01*
X35786Y-13088D01*
X35786Y-13051D01*
X35767Y-13013D01*
X35748Y-12994D01*
X35711Y-12975D01*
X35617Y-12975D01*
X35561Y-12994D01*
X35392Y-13369D02*
X35392Y-12975D01*
X35204Y-13369D02*
X35204Y-12975D01*
X35110Y-12975D01*
X35054Y-12994D01*
X35017Y-13032D01*
X34998Y-13069D01*
X34979Y-13144D01*
X34979Y-13201D01*
X34998Y-13276D01*
X35017Y-13313D01*
X35054Y-13351D01*
X35110Y-13369D01*
X35204Y-13369D01*
X34810Y-13163D02*
X34679Y-13163D01*
X34623Y-13369D02*
X34810Y-13369D01*
X34810Y-12975D01*
X34623Y-12975D01*
G54D14*
X55225Y-22125D02*
X55224Y-22134D01*
X55221Y-22144D01*
X55216Y-22152D01*
X55210Y-22160D01*
X55202Y-22166D01*
X55194Y-22171D01*
X55185Y-22173D01*
X55175Y-22174D01*
X55166Y-22174D01*
X55157Y-22171D01*
X55148Y-22166D01*
X55141Y-22160D01*
X55134Y-22153D01*
X55130Y-22144D01*
X55127Y-22135D01*
X55126Y-22125D01*
X55126Y-22116D01*
X55129Y-22107D01*
X55133Y-22098D01*
X55140Y-22091D01*
X55147Y-22084D01*
X55155Y-22080D01*
X55165Y-22077D01*
X55174Y-22076D01*
X55183Y-22076D01*
X55193Y-22079D01*
X55201Y-22083D01*
X55209Y-22089D01*
X55215Y-22097D01*
X55220Y-22105D01*
X55223Y-22114D01*
X55224Y-22124D01*
X55225Y-22125D01*
X55175Y-22575D02*
X55175Y-22175D01*
X55175Y-22175D02*
X54575Y-22175D01*
X54575Y-22175D02*
X54575Y-22575D01*
X54575Y-22975D02*
X54575Y-23375D01*
X54575Y-23375D02*
X55175Y-23375D01*
X55175Y-23375D02*
X55175Y-22975D01*
X54025Y-22325D02*
X54025Y-23225D01*
X54025Y-23225D02*
X54525Y-23225D01*
X54525Y-23225D02*
X54525Y-22325D01*
X54525Y-22325D02*
X54025Y-22325D01*
X49600Y-20700D02*
X50600Y-20700D01*
X50600Y-20700D02*
X50600Y-13700D01*
X50600Y-13700D02*
X49600Y-13700D01*
X49600Y-13700D02*
X49600Y-20700D01*
X34600Y-19200D02*
X35600Y-19200D01*
X35600Y-19200D02*
X35600Y-15200D01*
X35600Y-15200D02*
X34600Y-15200D01*
X34600Y-15200D02*
X34600Y-19200D01*
G54D15*
X49719Y-20452D02*
X49719Y-19952D01*
X49528Y-19952D01*
X49481Y-19976D01*
X49457Y-20000D01*
X49433Y-20048D01*
X49433Y-20119D01*
X49457Y-20167D01*
X49481Y-20190D01*
X49528Y-20214D01*
X49719Y-20214D01*
X49267Y-19952D02*
X48933Y-19952D01*
X49148Y-20452D01*
X49559Y-19455D02*
X49583Y-19479D01*
X49654Y-19502D01*
X49702Y-19502D01*
X49774Y-19479D01*
X49821Y-19431D01*
X49845Y-19383D01*
X49869Y-19288D01*
X49869Y-19217D01*
X49845Y-19121D01*
X49821Y-19074D01*
X49774Y-19026D01*
X49702Y-19002D01*
X49654Y-19002D01*
X49583Y-19026D01*
X49559Y-19050D01*
X49250Y-19002D02*
X49154Y-19002D01*
X49107Y-19026D01*
X49059Y-19074D01*
X49035Y-19169D01*
X49035Y-19336D01*
X49059Y-19431D01*
X49107Y-19479D01*
X49154Y-19502D01*
X49250Y-19502D01*
X49297Y-19479D01*
X49345Y-19431D01*
X49369Y-19336D01*
X49369Y-19169D01*
X49345Y-19074D01*
X49297Y-19026D01*
X49250Y-19002D01*
X48821Y-19502D02*
X48821Y-19002D01*
X48535Y-19502D01*
X48535Y-19002D01*
X48297Y-19502D02*
X48297Y-19002D01*
X48011Y-19502D01*
X48011Y-19002D01*
X47892Y-19550D02*
X47511Y-19550D01*
X47440Y-19002D02*
X47106Y-19002D01*
X47321Y-19502D01*
X34629Y-15002D02*
X34629Y-14502D01*
X34438Y-14502D01*
X34391Y-14526D01*
X34367Y-14550D01*
X34343Y-14598D01*
X34343Y-14669D01*
X34367Y-14717D01*
X34391Y-14740D01*
X34438Y-14764D01*
X34629Y-14764D01*
X33915Y-14502D02*
X34010Y-14502D01*
X34058Y-14526D01*
X34081Y-14550D01*
X34129Y-14621D01*
X34153Y-14717D01*
X34153Y-14907D01*
X34129Y-14955D01*
X34105Y-14979D01*
X34058Y-15002D01*
X33962Y-15002D01*
X33915Y-14979D01*
X33891Y-14955D01*
X33867Y-14907D01*
X33867Y-14788D01*
X33891Y-14740D01*
X33915Y-14717D01*
X33962Y-14693D01*
X34058Y-14693D01*
X34105Y-14717D01*
X34129Y-14740D01*
X34153Y-14788D01*
X36659Y-17855D02*
X36683Y-17879D01*
X36754Y-17902D01*
X36802Y-17902D01*
X36874Y-17879D01*
X36921Y-17831D01*
X36945Y-17783D01*
X36969Y-17688D01*
X36969Y-17617D01*
X36945Y-17521D01*
X36921Y-17474D01*
X36874Y-17426D01*
X36802Y-17402D01*
X36754Y-17402D01*
X36683Y-17426D01*
X36659Y-17450D01*
X36350Y-17402D02*
X36254Y-17402D01*
X36207Y-17426D01*
X36159Y-17474D01*
X36135Y-17569D01*
X36135Y-17736D01*
X36159Y-17831D01*
X36207Y-17879D01*
X36254Y-17902D01*
X36350Y-17902D01*
X36397Y-17879D01*
X36445Y-17831D01*
X36469Y-17736D01*
X36469Y-17569D01*
X36445Y-17474D01*
X36397Y-17426D01*
X36350Y-17402D01*
X35921Y-17902D02*
X35921Y-17402D01*
X35635Y-17902D01*
X35635Y-17402D01*
X35397Y-17902D02*
X35397Y-17402D01*
X35111Y-17902D01*
X35111Y-17402D01*
X34992Y-17950D02*
X34611Y-17950D01*
X34278Y-17569D02*
X34278Y-17902D01*
X34397Y-17379D02*
X34516Y-17736D01*
X34206Y-17736D01*
M02*
