G04 (created by PCBNEW-RS274X (2010-03-14)-final) date lun 07 nov 2011 20:25:05 ART*
G01*
G70*
G90*
%MOIN*%
G04 Gerber Fmt 3.4, Leading zero omitted, Abs format*
%FSLAX34Y34*%
G04 APERTURE LIST*
%ADD10C,0.000100*%
%ADD11C,0.015000*%
%ADD12R,0.075000X0.055000*%
%ADD13R,0.065000X0.045000*%
%ADD14O,0.080000X0.080000*%
%ADD15R,0.080000X0.080000*%
%ADD16C,0.080000*%
%ADD17R,0.095000X0.095000*%
%ADD18C,0.095000*%
%ADD19C,0.090900*%
G04 APERTURE END LIST*
G54D10*
G54D11*
X33250Y-11250D02*
X33250Y-11450D01*
X59200Y-11250D02*
X33250Y-11250D01*
X59200Y-11800D02*
X59200Y-11250D01*
X59200Y-35800D02*
X59200Y-11800D01*
X33250Y-35800D02*
X59200Y-35800D01*
X33250Y-11350D02*
X33250Y-35800D01*
G54D12*
X54875Y-22400D03*
X54875Y-23150D03*
G54D13*
X54275Y-22475D03*
X54275Y-23075D03*
G54D14*
X58475Y-34125D03*
X58475Y-33125D03*
X58475Y-32125D03*
X58475Y-31125D03*
X58475Y-30125D03*
X58475Y-29125D03*
X58475Y-28125D03*
X58475Y-27125D03*
X58475Y-26125D03*
X58475Y-25125D03*
X58475Y-24125D03*
X58475Y-23125D03*
X58475Y-22125D03*
X58475Y-21125D03*
X58475Y-20125D03*
X58475Y-19125D03*
X58475Y-18125D03*
X58475Y-17125D03*
X58475Y-16125D03*
X58475Y-15125D03*
X52475Y-34125D03*
X52475Y-33125D03*
X52475Y-32125D03*
X52475Y-31125D03*
X52475Y-30125D03*
X52475Y-29125D03*
X52475Y-28125D03*
X52475Y-27125D03*
X52475Y-26125D03*
X52475Y-25125D03*
X52475Y-24125D03*
X52475Y-23125D03*
X52475Y-22125D03*
X52475Y-21125D03*
X52475Y-20125D03*
X52475Y-19125D03*
X52475Y-18125D03*
X52475Y-17125D03*
X52475Y-16125D03*
X52475Y-15125D03*
X52975Y-13875D03*
X53975Y-13875D03*
X54975Y-13875D03*
X55975Y-13875D03*
X56975Y-13875D03*
X57975Y-13875D03*
G54D15*
X38400Y-24950D03*
G54D16*
X38400Y-23950D03*
X39400Y-24950D03*
X39400Y-23950D03*
X40400Y-24950D03*
X40400Y-23950D03*
X41400Y-24950D03*
X41400Y-23950D03*
X42400Y-24950D03*
X42400Y-23950D03*
G54D17*
X50100Y-20200D03*
G54D18*
X50100Y-19200D03*
X50100Y-18200D03*
X50100Y-17200D03*
X50100Y-16200D03*
X50100Y-15200D03*
X50100Y-14200D03*
G54D17*
X35100Y-18700D03*
G54D18*
X35100Y-17700D03*
X35100Y-16700D03*
X35100Y-15700D03*
G54D19*
X48800Y-18550D03*
X50550Y-12200D03*
X36250Y-15700D03*
X43100Y-12200D03*
X36325Y-12325D03*
M02*
