M48
;DRILL file {PCBnew (2010-03-14)-final} date lun 07 nov 2011 20:25:18 ART
;FORMAT={-.-/ absolute / metric / decimal}
R,T
VER,1
FMAT,2
METRIC,TZ
TCST,OFF
ICI,OFF
ATC,ON
T1C0.300
T2C0.635
T3C0.798
T4C0.800
T5C0.914
T6C1.016
T7C1.900
%
M47
G05
M71
T1
X107.442Y43.688
X107.442Y44.704
X107.442Y45.720
X108.458Y43.688
X108.458Y44.704
X108.458Y45.720
T2
X94.996Y44.450
X94.996Y75.819
X95.631Y48.514
X96.012Y80.010
X96.266Y43.307
X96.393Y46.228
X98.552Y51.562
X99.822Y34.925
X101.092Y79.756
X101.473Y52.769
X101.727Y51.054
X101.981Y34.544
X101.981Y39.624
X102.235Y65.405
X102.362Y73.660
X102.616Y49.403
X102.997Y83.312
X103.632Y32.004
X104.394Y80.391
X104.775Y74.549
X105.410Y48.578
X105.918Y74.168
X106.045Y68.961
X106.299Y41.529
X106.680Y64.643
X107.061Y68.961
X107.188Y54.483
X108.141Y34.481
X108.839Y52.197
X109.093Y82.042
X109.220Y48.006
X109.347Y75.565
X109.982Y66.929
X110.236Y78.105
X110.363Y68.453
X110.490Y75.311
X111.252Y76.835
X111.252Y79.629
X111.824Y49.022
X112.268Y38.481
X112.522Y83.185
X113.030Y52.832
X113.665Y76.073
X114.046Y67.437
X114.046Y77.089
X114.300Y83.820
X114.554Y51.308
X114.554Y69.215
X114.935Y36.957
X114.999Y41.402
X115.189Y72.898
X116.967Y79.756
X117.348Y76.581
X119.126Y30.607
X120.650Y41.720
X121.666Y40.259
X123.698Y44.514
X124.460Y56.515
X124.587Y51.308
X136.208Y57.849
X136.589Y56.706
X136.589Y59.119
X136.716Y62.294
X136.843Y55.690
X136.970Y61.151
X137.097Y84.646
X137.732Y51.245
X137.732Y54.674
X138.494Y50.355
X139.001Y81.344
X139.129Y86.678
X140.525Y61.811
X140.652Y85.027
X142.049Y78.931
X143.954Y57.849
X144.971Y55.055
X144.971Y59.500
X145.225Y58.484
X145.352Y60.389
X145.605Y86.678
X146.495Y80.836
T3
X94.160Y81.389
X94.960Y82.588
X95.758Y81.389
X96.556Y82.588
X97.356Y81.389
T4
X92.075Y39.878
X92.266Y31.306
X109.474Y30.988
X123.952Y47.117
X128.397Y30.988
T5
X124.206Y63.754
X124.206Y66.294
X124.206Y68.834
X124.206Y71.374
X124.206Y73.914
X124.206Y76.454
X124.206Y78.994
X124.206Y81.534
X124.206Y84.074
X124.206Y86.614
X126.746Y63.754
X126.746Y66.294
X126.746Y68.834
X126.746Y71.374
X126.746Y73.914
X126.746Y76.454
X126.746Y78.994
X126.746Y81.534
X126.746Y84.074
X126.746Y86.614
T6
X89.154Y39.878
X89.154Y42.418
X89.154Y44.958
X89.154Y47.498
X97.536Y60.833
X97.536Y63.373
X100.076Y60.833
X100.076Y63.373
X102.616Y60.833
X102.616Y63.373
X105.156Y60.833
X105.156Y63.373
X107.696Y60.833
X107.696Y63.373
X127.254Y36.068
X127.254Y38.608
X127.254Y41.148
X127.254Y43.688
X127.254Y46.228
X127.254Y48.768
X127.254Y51.308
X133.286Y38.418
X133.286Y40.958
X133.286Y43.498
X133.286Y46.038
X133.286Y48.578
X133.286Y51.118
X133.286Y53.658
X133.286Y56.198
X133.286Y58.738
X133.286Y61.278
X133.286Y63.818
X133.286Y66.358
X133.286Y68.898
X133.286Y71.438
X133.286Y73.978
X133.286Y76.518
X133.286Y79.058
X133.286Y81.598
X133.286Y84.138
X133.286Y86.678
X134.557Y35.243
X137.097Y35.243
X139.637Y35.243
X142.176Y35.243
X144.717Y35.243
X147.257Y35.243
X148.527Y38.418
X148.527Y40.958
X148.527Y43.498
X148.527Y46.038
X148.527Y48.578
X148.527Y51.118
X148.527Y53.658
X148.527Y56.198
X148.527Y58.738
X148.527Y61.278
X148.527Y63.818
X148.527Y66.358
X148.527Y68.898
X148.527Y71.438
X148.527Y73.978
X148.527Y76.518
X148.527Y79.058
X148.527Y81.598
X148.527Y84.138
X148.527Y86.678
T7
X92.108Y86.487
X99.408Y86.487
T0
M30
