G04 (created by PCBNEW-RS274X (2010-03-14)-final) date lun 07 nov 2011 20:25:05 ART*
G01*
G70*
G90*
%MOIN*%
G04 Gerber Fmt 3.4, Leading zero omitted, Abs format*
%FSLAX34Y34*%
G04 APERTURE LIST*
%ADD10C,0.000100*%
%ADD11C,0.015000*%
%ADD12R,0.055000X0.035000*%
%ADD13R,0.045000X0.025000*%
%ADD14O,0.060000X0.060000*%
%ADD15C,0.045300*%
%ADD16C,0.112200*%
%ADD17C,0.056000*%
%ADD18R,0.060000X0.060000*%
%ADD19C,0.060000*%
%ADD20R,0.075000X0.075000*%
%ADD21C,0.075000*%
%ADD22R,0.040000X0.040000*%
%ADD23C,0.070900*%
%ADD24C,0.045000*%
%ADD25C,0.038800*%
%ADD26C,0.029800*%
%ADD27C,0.030000*%
%ADD28C,0.010000*%
%ADD29C,0.020000*%
%ADD30C,0.006900*%
G04 APERTURE END LIST*
G54D10*
G54D11*
X33250Y-11250D02*
X33250Y-11450D01*
X59200Y-11250D02*
X33250Y-11250D01*
X59200Y-11800D02*
X59200Y-11250D01*
X59200Y-35800D02*
X59200Y-11800D01*
X33250Y-35800D02*
X59200Y-35800D01*
X33250Y-11350D02*
X33250Y-35800D01*
G54D12*
X54875Y-22400D03*
X54875Y-23150D03*
G54D13*
X54275Y-22475D03*
X54275Y-23075D03*
G54D14*
X58475Y-34125D03*
X58475Y-33125D03*
X58475Y-32125D03*
X58475Y-31125D03*
X58475Y-30125D03*
X58475Y-29125D03*
X58475Y-28125D03*
X58475Y-27125D03*
X58475Y-26125D03*
X58475Y-25125D03*
X58475Y-24125D03*
X58475Y-23125D03*
X58475Y-22125D03*
X58475Y-21125D03*
X58475Y-20125D03*
X58475Y-19125D03*
X58475Y-18125D03*
X58475Y-17125D03*
X58475Y-16125D03*
X58475Y-15125D03*
X52475Y-34125D03*
X52475Y-33125D03*
X52475Y-32125D03*
X52475Y-31125D03*
X52475Y-30125D03*
X52475Y-29125D03*
X52475Y-28125D03*
X52475Y-27125D03*
X52475Y-26125D03*
X52475Y-25125D03*
X52475Y-24125D03*
X52475Y-23125D03*
X52475Y-22125D03*
X52475Y-21125D03*
X52475Y-20125D03*
X52475Y-19125D03*
X52475Y-18125D03*
X52475Y-17125D03*
X52475Y-16125D03*
X52475Y-15125D03*
X52975Y-13875D03*
X53975Y-13875D03*
X54975Y-13875D03*
X55975Y-13875D03*
X56975Y-13875D03*
X57975Y-13875D03*
G54D15*
X37700Y-32043D03*
X37386Y-32515D03*
X38329Y-32043D03*
X38014Y-32515D03*
G54D16*
X39137Y-34050D03*
X36263Y-34050D03*
G54D15*
X37071Y-32043D03*
G54D17*
X48900Y-25100D03*
X49900Y-25100D03*
X48900Y-26100D03*
X49900Y-26100D03*
X48900Y-27100D03*
X49900Y-27100D03*
X48900Y-28100D03*
X49900Y-28100D03*
X48900Y-29100D03*
X49900Y-29100D03*
X48900Y-30100D03*
X49900Y-30100D03*
X48900Y-31100D03*
X49900Y-31100D03*
X48900Y-32100D03*
X49900Y-32100D03*
X48900Y-33100D03*
X49900Y-33100D03*
X48900Y-34100D03*
X49900Y-34100D03*
G54D18*
X38400Y-24950D03*
G54D19*
X38400Y-23950D03*
X39400Y-24950D03*
X39400Y-23950D03*
X40400Y-24950D03*
X40400Y-23950D03*
X41400Y-24950D03*
X41400Y-23950D03*
X42400Y-24950D03*
X42400Y-23950D03*
G54D20*
X50100Y-20200D03*
G54D21*
X50100Y-19200D03*
X50100Y-18200D03*
X50100Y-17200D03*
X50100Y-16200D03*
X50100Y-15200D03*
X50100Y-14200D03*
G54D20*
X35100Y-18700D03*
G54D21*
X35100Y-17700D03*
X35100Y-16700D03*
X35100Y-15700D03*
G54D22*
X42300Y-17200D03*
X42300Y-17600D03*
X42300Y-18000D03*
X42700Y-18000D03*
X42700Y-17600D03*
X42700Y-17200D03*
G54D23*
X48800Y-18550D03*
X50550Y-12200D03*
X36250Y-15700D03*
X43100Y-12200D03*
X36325Y-12325D03*
G54D24*
X44200Y-15150D03*
X40150Y-15600D03*
X41500Y-19125D03*
X45100Y-20200D03*
X44500Y-20800D03*
X44025Y-19300D03*
X40400Y-19450D03*
X41850Y-16350D03*
X45275Y-16300D03*
X37650Y-19100D03*
X37950Y-18200D03*
X39300Y-13750D03*
X40150Y-13600D03*
G54D25*
X47900Y-15850D03*
X47500Y-16425D03*
G54D24*
X48700Y-17525D03*
X43000Y-18900D03*
G54D26*
X40250Y-25750D03*
X56675Y-22775D03*
X57175Y-23025D03*
X57075Y-23425D03*
X57225Y-23775D03*
X53625Y-22775D03*
X53925Y-24075D03*
X53825Y-24525D03*
X54725Y-32025D03*
X53775Y-23275D03*
X57075Y-21675D03*
X46050Y-31400D03*
X43800Y-30250D03*
X43800Y-31350D03*
X43500Y-29650D03*
X46200Y-30150D03*
X44750Y-29950D03*
X43050Y-29750D03*
X43300Y-26350D03*
X41750Y-27150D03*
X44900Y-30350D03*
X44300Y-32750D03*
X53875Y-21925D03*
X45350Y-28700D03*
X43450Y-26950D03*
X54525Y-19825D03*
X54225Y-21525D03*
X45100Y-27250D03*
X54225Y-20175D03*
X45000Y-33000D03*
X44900Y-26550D03*
X42150Y-27150D03*
X55325Y-24335D03*
X55375Y-33475D03*
X53775Y-22325D03*
X42000Y-25450D03*
X42950Y-32300D03*
X43400Y-30750D03*
X55925Y-31075D03*
G54D24*
X42850Y-20550D03*
X46900Y-12050D03*
X45250Y-14550D03*
X49050Y-20200D03*
X40800Y-12600D03*
X42575Y-13575D03*
X49000Y-22250D03*
G54D26*
X40300Y-29000D03*
X37800Y-31500D03*
G54D24*
X37900Y-17050D03*
X37400Y-17500D03*
X39950Y-20775D03*
X40050Y-20100D03*
X42200Y-21450D03*
X38800Y-20300D03*
G54D26*
X41250Y-29350D03*
X41100Y-31650D03*
X41700Y-29200D03*
X40550Y-32800D03*
X57675Y-31825D03*
X57325Y-34125D03*
X54775Y-34125D03*
X53975Y-33325D03*
X39800Y-31400D03*
X37400Y-29850D03*
G54D27*
X40950Y-17800D02*
X40900Y-17750D01*
X40900Y-17750D02*
X40975Y-17825D01*
X40975Y-17825D02*
X41875Y-18725D01*
X44050Y-20200D02*
X44050Y-20200D01*
X44050Y-20200D02*
X44050Y-20200D01*
X44050Y-20200D02*
X43350Y-20200D01*
X41875Y-18725D02*
X43350Y-20200D01*
X37275Y-16175D02*
X38150Y-16175D01*
X38150Y-16175D02*
X38125Y-16175D01*
X35750Y-17700D02*
X37275Y-16175D01*
X35750Y-17700D02*
X35100Y-17700D01*
G54D28*
X43950Y-14900D02*
X44200Y-15150D01*
X43950Y-14900D02*
X40950Y-14900D01*
X40150Y-15600D02*
X40150Y-14900D01*
X41875Y-18725D02*
X41875Y-18750D01*
G54D29*
X40900Y-18850D02*
X40900Y-18825D01*
X41175Y-19125D02*
X40900Y-18850D01*
X41250Y-19125D02*
X41175Y-19125D01*
X41500Y-19125D02*
X41250Y-19125D01*
X40900Y-17750D02*
X40900Y-17850D01*
X40900Y-18825D02*
X40900Y-17850D01*
X44050Y-20200D02*
X45100Y-20200D01*
G54D27*
X40950Y-14900D02*
X40150Y-14900D01*
X40150Y-14900D02*
X37850Y-14900D01*
X37850Y-14900D02*
X37900Y-14900D01*
G54D29*
X35100Y-15700D02*
X36250Y-15700D01*
G54D27*
X37850Y-14900D02*
X35900Y-14900D01*
X35900Y-14900D02*
X35100Y-15700D01*
G54D29*
X44050Y-20250D02*
X44050Y-20200D01*
X44050Y-20350D02*
X44050Y-20250D01*
X44500Y-20800D02*
X44050Y-20350D01*
G54D28*
X44050Y-20200D02*
X44025Y-20200D01*
X44025Y-19300D02*
X44025Y-20200D01*
G54D29*
X40900Y-18950D02*
X40900Y-18825D01*
X40900Y-18950D02*
X40400Y-19450D01*
G54D27*
X38150Y-16175D02*
X39250Y-16175D01*
X39250Y-16175D02*
X40975Y-17900D01*
X40950Y-14900D02*
X40950Y-17800D01*
X40950Y-17800D02*
X40975Y-17825D01*
G54D28*
X41950Y-16350D02*
X41850Y-16350D01*
X45275Y-16300D02*
X45175Y-16350D01*
X42725Y-16350D02*
X41950Y-16350D01*
X45175Y-16350D02*
X42725Y-16350D01*
X37950Y-18200D02*
X37950Y-18800D01*
X37950Y-18800D02*
X37650Y-19100D01*
X37950Y-18200D02*
X37950Y-18200D01*
G54D27*
X40150Y-14100D02*
X40450Y-14100D01*
X46650Y-15850D02*
X47125Y-15850D01*
X47125Y-15850D02*
X47075Y-15850D01*
X47075Y-15850D02*
X47050Y-15850D01*
X47050Y-15850D02*
X47050Y-15850D01*
X45650Y-15850D02*
X46650Y-15850D01*
X43900Y-14100D02*
X45650Y-15850D01*
X40450Y-14100D02*
X43900Y-14100D01*
X40150Y-14100D02*
X40100Y-14100D01*
X40100Y-14100D02*
X39650Y-14100D01*
X39650Y-14100D02*
X39300Y-13750D01*
X40150Y-13600D02*
X40150Y-14100D01*
X47075Y-15850D02*
X47900Y-15850D01*
X47500Y-16425D02*
X47125Y-16050D01*
X47125Y-16050D02*
X47125Y-15850D01*
G54D28*
X47900Y-17700D02*
X46700Y-18900D01*
X46700Y-18900D02*
X46050Y-18900D01*
X45950Y-18900D02*
X43000Y-18900D01*
X45950Y-18900D02*
X46050Y-18900D01*
X48700Y-17525D02*
X48075Y-17525D01*
X48075Y-17525D02*
X47900Y-17700D01*
G54D30*
X39900Y-24450D02*
X40400Y-23950D01*
X39900Y-25400D02*
X39900Y-24450D01*
X40250Y-25750D02*
X39900Y-25400D01*
X56575Y-27225D02*
X58475Y-29125D01*
X56575Y-22875D02*
X56575Y-27225D01*
X56675Y-22775D02*
X56575Y-22875D01*
X56775Y-26425D02*
X58475Y-28125D01*
X56775Y-23125D02*
X56775Y-26425D01*
X56875Y-23025D02*
X56775Y-23125D01*
X57175Y-23025D02*
X56875Y-23025D01*
X56925Y-24075D02*
X56925Y-25575D01*
X56925Y-25575D02*
X57525Y-26175D01*
X57525Y-26175D02*
X58475Y-27125D01*
X56925Y-23575D02*
X56925Y-24075D01*
X57075Y-23425D02*
X56925Y-23575D01*
X57225Y-23775D02*
X57225Y-24875D01*
X57225Y-24875D02*
X57825Y-25475D01*
X57825Y-25475D02*
X58475Y-26125D01*
X53625Y-22775D02*
X53125Y-22275D01*
X53125Y-22275D02*
X53125Y-19775D01*
X53125Y-19775D02*
X52475Y-19125D01*
X54175Y-26425D02*
X52475Y-28125D01*
X54175Y-24325D02*
X54175Y-26425D01*
X53925Y-24075D02*
X54175Y-24325D01*
X53125Y-26475D02*
X52475Y-27125D01*
X53125Y-25225D02*
X53125Y-26475D01*
X53825Y-24525D02*
X53125Y-25225D01*
X53625Y-33125D02*
X52475Y-33125D01*
X54725Y-32025D02*
X53625Y-33125D01*
X53975Y-23075D02*
X54275Y-23075D01*
X53775Y-23275D02*
X53975Y-23075D01*
G54D29*
X57975Y-14625D02*
X58475Y-15125D01*
X57975Y-13875D02*
X57975Y-14625D01*
G54D30*
X58025Y-15575D02*
X58475Y-15125D01*
X58025Y-20725D02*
X58025Y-15575D01*
X57075Y-21675D02*
X58025Y-20725D01*
X54800Y-23075D02*
X54875Y-23150D01*
X54275Y-23075D02*
X54800Y-23075D01*
X43800Y-31350D02*
X44200Y-31750D01*
X44200Y-31750D02*
X45700Y-31750D01*
X45700Y-31750D02*
X46050Y-31400D01*
X43800Y-30250D02*
X43800Y-31350D01*
X45700Y-29650D02*
X43500Y-29650D01*
X46200Y-30150D02*
X45700Y-29650D01*
X43250Y-29950D02*
X44750Y-29950D01*
X43050Y-29750D02*
X43250Y-29950D01*
X42550Y-26350D02*
X43300Y-26350D01*
X41750Y-27150D02*
X42550Y-26350D01*
X47700Y-30900D02*
X48900Y-32100D01*
X45450Y-30900D02*
X47700Y-30900D01*
X44900Y-30350D02*
X45450Y-30900D01*
X44650Y-32400D02*
X47300Y-32400D01*
X48600Y-32400D02*
X48900Y-32100D01*
X47300Y-32400D02*
X48600Y-32400D01*
X44300Y-32750D02*
X44650Y-32400D01*
X55675Y-14175D02*
X55975Y-13875D01*
X55675Y-21375D02*
X55675Y-14175D01*
X55125Y-21925D02*
X55675Y-21375D01*
X53875Y-21925D02*
X55125Y-21925D01*
X45200Y-28700D02*
X45350Y-28700D01*
X43450Y-26950D02*
X45200Y-28700D01*
X53975Y-14275D02*
X53975Y-13875D01*
X54525Y-14825D02*
X53975Y-14275D01*
X54525Y-19825D02*
X54525Y-14825D01*
X54975Y-20775D02*
X54975Y-13875D01*
X54225Y-21525D02*
X54975Y-20775D01*
X48900Y-31050D02*
X45100Y-27250D01*
X48900Y-31100D02*
X48900Y-31050D01*
X52975Y-14275D02*
X52975Y-13875D01*
X54225Y-15525D02*
X52975Y-14275D01*
X54225Y-20175D02*
X54225Y-15525D01*
X45000Y-33000D02*
X45650Y-33650D01*
X45650Y-33650D02*
X49250Y-33650D01*
X49250Y-33650D02*
X49400Y-33500D01*
X49400Y-33500D02*
X49400Y-26600D01*
X49400Y-26600D02*
X48900Y-26100D01*
X44800Y-26650D02*
X44900Y-26550D01*
X42650Y-26650D02*
X44800Y-26650D01*
X42150Y-27150D02*
X42650Y-26650D01*
X55375Y-24075D02*
X55425Y-24075D01*
X55375Y-24125D02*
X55425Y-24075D01*
X55375Y-24285D02*
X55375Y-24125D01*
X55375Y-24285D02*
X55325Y-24335D01*
G54D29*
X54875Y-22400D02*
X55300Y-22400D01*
X55375Y-22475D02*
X55375Y-24075D01*
X55375Y-24075D02*
X55375Y-33475D01*
X55300Y-22400D02*
X55375Y-22475D01*
G54D30*
X53925Y-22475D02*
X54275Y-22475D01*
X53775Y-22325D02*
X53925Y-22475D01*
X54800Y-22475D02*
X54875Y-22400D01*
X54275Y-22475D02*
X54800Y-22475D01*
X42500Y-23950D02*
X42400Y-23950D01*
X43000Y-24450D02*
X42500Y-23950D01*
X43000Y-25250D02*
X43000Y-24450D01*
X42800Y-25450D02*
X43000Y-25250D01*
X42000Y-25450D02*
X42800Y-25450D01*
X42950Y-31200D02*
X42950Y-32300D01*
X43400Y-30750D02*
X42950Y-31200D01*
G54D29*
X56975Y-13875D02*
X56975Y-19275D01*
X56075Y-30925D02*
X55925Y-31075D01*
X56075Y-20175D02*
X56075Y-30925D01*
X56975Y-19275D02*
X56075Y-20175D01*
G54D28*
X42850Y-20550D02*
X42850Y-21750D01*
X42850Y-21750D02*
X42850Y-22275D01*
X42850Y-22275D02*
X42850Y-22300D01*
X44300Y-17625D02*
X42725Y-17625D01*
X42725Y-17625D02*
X42700Y-17600D01*
X46900Y-12050D02*
X46900Y-13100D01*
X45250Y-14525D02*
X45250Y-14550D01*
X45250Y-14525D02*
X45250Y-13100D01*
G54D27*
X45800Y-13100D02*
X45250Y-13100D01*
X45800Y-13100D02*
X46900Y-13100D01*
X45250Y-13100D02*
X42500Y-13100D01*
X42500Y-13100D02*
X41950Y-13100D01*
X41950Y-13100D02*
X42050Y-13100D01*
X42050Y-13100D02*
X41550Y-13100D01*
X41550Y-13100D02*
X40800Y-13100D01*
X40800Y-13100D02*
X40850Y-13100D01*
X40850Y-13100D02*
X38650Y-13100D01*
X38650Y-13100D02*
X38700Y-13100D01*
X46900Y-13100D02*
X48850Y-13100D01*
X49450Y-13700D02*
X48850Y-13100D01*
X49450Y-13700D02*
X49450Y-14200D01*
X49450Y-14200D02*
X49450Y-16200D01*
X49450Y-16200D02*
X49450Y-17100D01*
X49450Y-17100D02*
X49450Y-17050D01*
X49450Y-17050D02*
X49450Y-17100D01*
X49450Y-17100D02*
X49450Y-17175D01*
X49450Y-17175D02*
X49450Y-18200D01*
X49450Y-18200D02*
X49450Y-20150D01*
X49450Y-20150D02*
X49450Y-20200D01*
X48100Y-21750D02*
X45625Y-21750D01*
X45625Y-21750D02*
X45650Y-21750D01*
X49450Y-20400D02*
X48100Y-21750D01*
X49450Y-20200D02*
X49450Y-20400D01*
X35100Y-19350D02*
X35100Y-18700D01*
X37500Y-21750D02*
X35100Y-19350D01*
X37500Y-21750D02*
X37500Y-21750D01*
X49450Y-20200D02*
X49350Y-20200D01*
X49350Y-20200D02*
X49050Y-20200D01*
X38650Y-13100D02*
X36650Y-13100D01*
X36650Y-13100D02*
X36325Y-13100D01*
X36325Y-13100D02*
X35550Y-13100D01*
X35550Y-13100D02*
X34450Y-14200D01*
X34450Y-14200D02*
X34450Y-16050D01*
X34450Y-16050D02*
X35100Y-16700D01*
G54D28*
X40800Y-13100D02*
X40800Y-12600D01*
X42500Y-13100D02*
X42500Y-13500D01*
X42500Y-13500D02*
X42575Y-13575D01*
G54D29*
X49000Y-22250D02*
X48500Y-21750D01*
X48500Y-21750D02*
X48150Y-21750D01*
X48150Y-21750D02*
X48150Y-21700D01*
G54D27*
X50100Y-14200D02*
X49450Y-14200D01*
X50100Y-16200D02*
X49450Y-16200D01*
X50100Y-18200D02*
X49450Y-18200D01*
X49450Y-20200D02*
X50100Y-20200D01*
G54D28*
X49450Y-17100D02*
X44825Y-17100D01*
X44825Y-17100D02*
X44300Y-17625D01*
X44300Y-17625D02*
X44310Y-17615D01*
X44310Y-17615D02*
X44310Y-17615D01*
X44310Y-17615D02*
X44325Y-17600D01*
G54D27*
X45625Y-21750D02*
X45075Y-22300D01*
X45075Y-22300D02*
X42850Y-22300D01*
X38050Y-22300D02*
X37500Y-21750D01*
X42850Y-22300D02*
X38050Y-22300D01*
G54D29*
X36325Y-12325D02*
X36325Y-13075D01*
X36325Y-13075D02*
X36325Y-13100D01*
G54D30*
X38329Y-32043D02*
X39857Y-32043D01*
X40500Y-31400D02*
X39857Y-32043D01*
X40500Y-29200D02*
X40500Y-31400D01*
X40500Y-29200D02*
X40300Y-29000D01*
X38329Y-32029D02*
X38329Y-32043D01*
X37800Y-31500D02*
X38329Y-32029D01*
G54D27*
X39200Y-18350D02*
X38350Y-17500D01*
X39500Y-19750D02*
X39200Y-19450D01*
X39200Y-19450D02*
X39200Y-18350D01*
X38350Y-17500D02*
X37900Y-17050D01*
X37400Y-17500D02*
X38350Y-17500D01*
X39500Y-19750D02*
X39500Y-20300D01*
X39500Y-20300D02*
X39950Y-20775D01*
X40050Y-20100D02*
X39700Y-19750D01*
X39700Y-19750D02*
X39500Y-19750D01*
G54D28*
X42200Y-21450D02*
X42200Y-21450D01*
X39950Y-21450D02*
X42200Y-21450D01*
X39950Y-21450D02*
X38800Y-20300D01*
G54D30*
X41250Y-29350D02*
X41100Y-29500D01*
X41100Y-29500D02*
X41100Y-31650D01*
X41800Y-31550D02*
X41800Y-32250D01*
X41700Y-29200D02*
X41800Y-29300D01*
X41800Y-29300D02*
X41800Y-31550D01*
X41800Y-32250D02*
X41250Y-32800D01*
X41250Y-32800D02*
X40550Y-32800D01*
X57675Y-33775D02*
X57675Y-31825D01*
X57325Y-34125D02*
X57675Y-33775D01*
X53975Y-33325D02*
X54775Y-34125D01*
X38950Y-31400D02*
X39800Y-31400D01*
X37400Y-29850D02*
X38950Y-31400D01*
G54D28*
X51975Y-13375D02*
X57749Y-13375D01*
X58200Y-13375D02*
X58975Y-13375D01*
X51975Y-13455D02*
X52830Y-13455D01*
X53122Y-13455D02*
X53830Y-13455D01*
X54122Y-13455D02*
X54830Y-13455D01*
X55122Y-13455D02*
X55830Y-13455D01*
X56122Y-13455D02*
X56830Y-13455D01*
X57122Y-13455D02*
X57616Y-13455D01*
X58335Y-13455D02*
X58975Y-13455D01*
X51975Y-13535D02*
X52684Y-13535D01*
X53266Y-13535D02*
X53684Y-13535D01*
X54266Y-13535D02*
X54684Y-13535D01*
X55266Y-13535D02*
X55684Y-13535D01*
X56266Y-13535D02*
X56684Y-13535D01*
X57266Y-13535D02*
X57544Y-13535D01*
X58407Y-13535D02*
X58975Y-13535D01*
X51975Y-13615D02*
X52604Y-13615D01*
X53346Y-13615D02*
X53604Y-13615D01*
X54346Y-13615D02*
X54604Y-13615D01*
X55346Y-13615D02*
X55604Y-13615D01*
X56346Y-13615D02*
X56604Y-13615D01*
X57346Y-13615D02*
X57487Y-13615D01*
X58464Y-13615D02*
X58975Y-13615D01*
X51975Y-13695D02*
X52565Y-13695D01*
X53386Y-13695D02*
X53565Y-13695D01*
X54386Y-13695D02*
X54565Y-13695D01*
X55386Y-13695D02*
X55565Y-13695D01*
X56386Y-13695D02*
X56565Y-13695D01*
X57386Y-13695D02*
X57459Y-13695D01*
X58492Y-13695D02*
X58975Y-13695D01*
X51975Y-13775D02*
X52532Y-13775D01*
X53419Y-13775D02*
X53532Y-13775D01*
X54419Y-13775D02*
X54532Y-13775D01*
X55419Y-13775D02*
X55532Y-13775D01*
X56419Y-13775D02*
X56532Y-13775D01*
X57419Y-13775D02*
X57462Y-13775D01*
X58487Y-13775D02*
X58975Y-13775D01*
X51975Y-13855D02*
X52526Y-13855D01*
X53424Y-13855D02*
X53526Y-13855D01*
X54424Y-13855D02*
X54526Y-13855D01*
X55424Y-13855D02*
X55526Y-13855D01*
X56424Y-13855D02*
X56526Y-13855D01*
X57424Y-13855D02*
X57475Y-13855D01*
X57925Y-13855D02*
X58975Y-13855D01*
X51975Y-13935D02*
X52526Y-13935D01*
X53424Y-13935D02*
X53526Y-13935D01*
X54424Y-13935D02*
X54526Y-13935D01*
X55424Y-13935D02*
X55526Y-13935D01*
X56424Y-13935D02*
X56526Y-13935D01*
X57424Y-13935D02*
X57485Y-13935D01*
X57925Y-13935D02*
X58025Y-13935D01*
X58466Y-13935D02*
X58975Y-13935D01*
X51975Y-14015D02*
X52547Y-14015D01*
X53402Y-14015D02*
X53547Y-14015D01*
X54402Y-14015D02*
X54547Y-14015D01*
X55402Y-14015D02*
X55547Y-14015D01*
X56402Y-14015D02*
X56547Y-14015D01*
X57402Y-14015D02*
X57444Y-14015D01*
X57925Y-14015D02*
X58025Y-14015D01*
X58505Y-14015D02*
X58975Y-14015D01*
X51975Y-14095D02*
X52581Y-14095D01*
X53368Y-14095D02*
X53581Y-14095D01*
X54368Y-14095D02*
X54581Y-14095D01*
X55368Y-14095D02*
X55512Y-14095D01*
X56368Y-14095D02*
X56581Y-14095D01*
X57368Y-14095D02*
X57472Y-14095D01*
X57925Y-14095D02*
X58025Y-14095D01*
X58477Y-14095D02*
X58975Y-14095D01*
X51975Y-14175D02*
X52644Y-14175D01*
X53306Y-14175D02*
X53644Y-14175D01*
X54306Y-14175D02*
X54644Y-14175D01*
X55306Y-14175D02*
X55491Y-14175D01*
X56306Y-14175D02*
X56644Y-14175D01*
X57306Y-14175D02*
X57507Y-14175D01*
X57925Y-14175D02*
X58025Y-14175D01*
X58442Y-14175D02*
X58975Y-14175D01*
X51975Y-14255D02*
X52733Y-14255D01*
X53215Y-14255D02*
X53733Y-14255D01*
X54215Y-14255D02*
X54733Y-14255D01*
X55217Y-14255D02*
X55491Y-14255D01*
X56217Y-14255D02*
X56725Y-14255D01*
X57225Y-14255D02*
X57579Y-14255D01*
X57925Y-14255D02*
X58025Y-14255D01*
X58370Y-14255D02*
X58975Y-14255D01*
X51975Y-14335D02*
X52802Y-14335D01*
X53296Y-14335D02*
X53802Y-14335D01*
X54296Y-14335D02*
X54791Y-14335D01*
X55159Y-14335D02*
X55491Y-14335D01*
X55859Y-14335D02*
X56725Y-14335D01*
X57225Y-14335D02*
X57666Y-14335D01*
X57925Y-14335D02*
X58025Y-14335D01*
X58283Y-14335D02*
X58975Y-14335D01*
X51975Y-14415D02*
X52855Y-14415D01*
X53376Y-14415D02*
X53855Y-14415D01*
X54376Y-14415D02*
X54791Y-14415D01*
X55159Y-14415D02*
X55491Y-14415D01*
X55859Y-14415D02*
X56725Y-14415D01*
X57225Y-14415D02*
X57833Y-14415D01*
X57841Y-14415D02*
X58108Y-14415D01*
X58116Y-14415D02*
X58975Y-14415D01*
X51975Y-14495D02*
X52935Y-14495D01*
X53456Y-14495D02*
X53935Y-14495D01*
X54456Y-14495D02*
X54791Y-14495D01*
X55159Y-14495D02*
X55491Y-14495D01*
X55859Y-14495D02*
X56725Y-14495D01*
X57225Y-14495D02*
X58975Y-14495D01*
X51975Y-14575D02*
X53015Y-14575D01*
X53536Y-14575D02*
X54015Y-14575D01*
X54536Y-14575D02*
X54791Y-14575D01*
X55159Y-14575D02*
X55491Y-14575D01*
X55859Y-14575D02*
X56725Y-14575D01*
X57225Y-14575D02*
X58975Y-14575D01*
X51975Y-14655D02*
X52178Y-14655D01*
X52425Y-14655D02*
X52525Y-14655D01*
X52773Y-14655D02*
X53095Y-14655D01*
X53616Y-14655D02*
X54095Y-14655D01*
X54616Y-14655D02*
X54791Y-14655D01*
X55159Y-14655D02*
X55491Y-14655D01*
X55859Y-14655D02*
X56725Y-14655D01*
X57225Y-14655D02*
X58178Y-14655D01*
X58425Y-14655D02*
X58525Y-14655D01*
X58773Y-14655D02*
X58975Y-14655D01*
X51975Y-14735D02*
X52090Y-14735D01*
X52425Y-14735D02*
X52525Y-14735D01*
X52861Y-14735D02*
X53175Y-14735D01*
X53696Y-14735D02*
X54175Y-14735D01*
X54681Y-14735D02*
X54791Y-14735D01*
X55159Y-14735D02*
X55491Y-14735D01*
X55859Y-14735D02*
X56725Y-14735D01*
X57225Y-14735D02*
X58089Y-14735D01*
X58425Y-14735D02*
X58525Y-14735D01*
X58861Y-14735D02*
X58975Y-14735D01*
X51975Y-14815D02*
X52016Y-14815D01*
X52425Y-14815D02*
X52525Y-14815D01*
X52935Y-14815D02*
X53255Y-14815D01*
X53776Y-14815D02*
X54255Y-14815D01*
X54707Y-14815D02*
X54791Y-14815D01*
X55159Y-14815D02*
X55491Y-14815D01*
X55859Y-14815D02*
X56725Y-14815D01*
X57225Y-14815D02*
X58016Y-14815D01*
X58425Y-14815D02*
X58525Y-14815D01*
X58935Y-14815D02*
X58975Y-14815D01*
X51975Y-14895D02*
X51977Y-14895D01*
X52425Y-14895D02*
X52525Y-14895D01*
X52973Y-14895D02*
X53335Y-14895D01*
X53856Y-14895D02*
X54335Y-14895D01*
X54709Y-14895D02*
X54791Y-14895D01*
X55159Y-14895D02*
X55491Y-14895D01*
X55859Y-14895D02*
X56725Y-14895D01*
X57225Y-14895D02*
X57978Y-14895D01*
X58425Y-14895D02*
X58525Y-14895D01*
X58974Y-14895D02*
X58975Y-14895D01*
X52425Y-14975D02*
X52525Y-14975D01*
X53011Y-14975D02*
X53415Y-14975D01*
X53936Y-14975D02*
X54341Y-14975D01*
X54709Y-14975D02*
X54791Y-14975D01*
X55159Y-14975D02*
X55491Y-14975D01*
X55859Y-14975D02*
X56725Y-14975D01*
X57225Y-14975D02*
X57940Y-14975D01*
X58425Y-14975D02*
X58525Y-14975D01*
X52425Y-15055D02*
X52525Y-15055D01*
X52980Y-15055D02*
X53495Y-15055D01*
X54016Y-15055D02*
X54341Y-15055D01*
X54709Y-15055D02*
X54791Y-15055D01*
X55159Y-15055D02*
X55491Y-15055D01*
X55859Y-15055D02*
X56725Y-15055D01*
X57225Y-15055D02*
X57969Y-15055D01*
X58425Y-15055D02*
X58525Y-15055D01*
X52425Y-15135D02*
X53575Y-15135D01*
X54096Y-15135D02*
X54341Y-15135D01*
X54709Y-15135D02*
X54791Y-15135D01*
X55159Y-15135D02*
X55491Y-15135D01*
X55859Y-15135D02*
X56725Y-15135D01*
X57225Y-15135D02*
X58525Y-15135D01*
X52992Y-15215D02*
X53655Y-15215D01*
X54176Y-15215D02*
X54341Y-15215D01*
X54709Y-15215D02*
X54791Y-15215D01*
X55159Y-15215D02*
X55491Y-15215D01*
X55859Y-15215D02*
X56725Y-15215D01*
X57225Y-15215D02*
X57959Y-15215D01*
X53001Y-15295D02*
X53735Y-15295D01*
X54256Y-15295D02*
X54341Y-15295D01*
X54709Y-15295D02*
X54791Y-15295D01*
X55159Y-15295D02*
X55491Y-15295D01*
X55859Y-15295D02*
X56725Y-15295D01*
X57225Y-15295D02*
X57948Y-15295D01*
X51975Y-15375D02*
X51986Y-15375D01*
X52963Y-15375D02*
X53815Y-15375D01*
X54336Y-15375D02*
X54341Y-15375D01*
X54709Y-15375D02*
X54791Y-15375D01*
X55159Y-15375D02*
X55491Y-15375D01*
X55859Y-15375D02*
X56725Y-15375D01*
X57225Y-15375D02*
X57986Y-15375D01*
X58963Y-15375D02*
X58975Y-15375D01*
X51975Y-15455D02*
X52025Y-15455D01*
X52924Y-15455D02*
X53895Y-15455D01*
X54709Y-15455D02*
X54791Y-15455D01*
X55159Y-15455D02*
X55491Y-15455D01*
X55859Y-15455D02*
X56725Y-15455D01*
X57225Y-15455D02*
X58025Y-15455D01*
X58924Y-15455D02*
X58975Y-15455D01*
X51975Y-15535D02*
X52111Y-15535D01*
X52838Y-15535D02*
X53975Y-15535D01*
X54709Y-15535D02*
X54791Y-15535D01*
X55159Y-15535D02*
X55491Y-15535D01*
X55859Y-15535D02*
X56725Y-15535D01*
X57225Y-15535D02*
X58111Y-15535D01*
X58838Y-15535D02*
X58975Y-15535D01*
X51975Y-15615D02*
X52218Y-15615D01*
X52415Y-15615D02*
X52425Y-15615D01*
X52525Y-15615D02*
X52534Y-15615D01*
X52731Y-15615D02*
X54041Y-15615D01*
X54709Y-15615D02*
X54791Y-15615D01*
X55159Y-15615D02*
X55491Y-15615D01*
X55859Y-15615D02*
X56725Y-15615D01*
X57225Y-15615D02*
X58218Y-15615D01*
X58415Y-15615D02*
X58425Y-15615D01*
X58525Y-15615D02*
X58534Y-15615D01*
X58731Y-15615D02*
X58975Y-15615D01*
X51975Y-15695D02*
X52343Y-15695D01*
X52610Y-15695D02*
X54041Y-15695D01*
X54709Y-15695D02*
X54791Y-15695D01*
X55159Y-15695D02*
X55491Y-15695D01*
X55859Y-15695D02*
X56725Y-15695D01*
X57225Y-15695D02*
X58340Y-15695D01*
X58609Y-15695D02*
X58975Y-15695D01*
X51975Y-15775D02*
X52194Y-15775D01*
X52756Y-15775D02*
X54041Y-15775D01*
X54709Y-15775D02*
X54791Y-15775D01*
X55159Y-15775D02*
X55491Y-15775D01*
X55859Y-15775D02*
X56725Y-15775D01*
X57225Y-15775D02*
X58194Y-15775D01*
X58756Y-15775D02*
X58975Y-15775D01*
X51975Y-15855D02*
X52114Y-15855D01*
X52836Y-15855D02*
X54041Y-15855D01*
X54709Y-15855D02*
X54791Y-15855D01*
X55159Y-15855D02*
X55491Y-15855D01*
X55859Y-15855D02*
X56725Y-15855D01*
X57225Y-15855D02*
X58114Y-15855D01*
X58836Y-15855D02*
X58975Y-15855D01*
X51975Y-15935D02*
X52074Y-15935D01*
X52877Y-15935D02*
X54041Y-15935D01*
X54709Y-15935D02*
X54791Y-15935D01*
X55159Y-15935D02*
X55491Y-15935D01*
X55859Y-15935D02*
X56725Y-15935D01*
X57225Y-15935D02*
X58074Y-15935D01*
X58877Y-15935D02*
X58975Y-15935D01*
X51975Y-16015D02*
X52040Y-16015D01*
X52910Y-16015D02*
X54041Y-16015D01*
X54709Y-16015D02*
X54791Y-16015D01*
X55159Y-16015D02*
X55491Y-16015D01*
X55859Y-16015D02*
X56725Y-16015D01*
X57225Y-16015D02*
X58040Y-16015D01*
X58910Y-16015D02*
X58975Y-16015D01*
X51975Y-16095D02*
X52034Y-16095D01*
X52916Y-16095D02*
X54041Y-16095D01*
X54709Y-16095D02*
X54791Y-16095D01*
X55159Y-16095D02*
X55491Y-16095D01*
X55859Y-16095D02*
X56725Y-16095D01*
X57225Y-16095D02*
X58034Y-16095D01*
X58916Y-16095D02*
X58975Y-16095D01*
X51975Y-16175D02*
X52034Y-16175D01*
X52916Y-16175D02*
X54041Y-16175D01*
X54709Y-16175D02*
X54791Y-16175D01*
X55159Y-16175D02*
X55491Y-16175D01*
X55859Y-16175D02*
X56725Y-16175D01*
X57225Y-16175D02*
X58034Y-16175D01*
X58916Y-16175D02*
X58975Y-16175D01*
X51975Y-16255D02*
X52048Y-16255D01*
X52901Y-16255D02*
X54041Y-16255D01*
X54709Y-16255D02*
X54791Y-16255D01*
X55159Y-16255D02*
X55491Y-16255D01*
X55859Y-16255D02*
X56725Y-16255D01*
X57225Y-16255D02*
X58048Y-16255D01*
X58901Y-16255D02*
X58975Y-16255D01*
X51975Y-16335D02*
X52081Y-16335D01*
X52868Y-16335D02*
X54041Y-16335D01*
X54709Y-16335D02*
X54791Y-16335D01*
X55159Y-16335D02*
X55491Y-16335D01*
X55859Y-16335D02*
X56725Y-16335D01*
X57225Y-16335D02*
X58081Y-16335D01*
X58868Y-16335D02*
X58975Y-16335D01*
X51975Y-16415D02*
X52134Y-16415D01*
X52816Y-16415D02*
X54041Y-16415D01*
X54709Y-16415D02*
X54791Y-16415D01*
X55159Y-16415D02*
X55491Y-16415D01*
X55859Y-16415D02*
X56725Y-16415D01*
X57225Y-16415D02*
X58134Y-16415D01*
X58816Y-16415D02*
X58975Y-16415D01*
X51975Y-16495D02*
X52214Y-16495D01*
X52736Y-16495D02*
X54041Y-16495D01*
X54709Y-16495D02*
X54791Y-16495D01*
X55159Y-16495D02*
X55491Y-16495D01*
X55859Y-16495D02*
X56725Y-16495D01*
X57225Y-16495D02*
X58214Y-16495D01*
X58736Y-16495D02*
X58975Y-16495D01*
X51975Y-16575D02*
X54041Y-16575D01*
X54709Y-16575D02*
X54791Y-16575D01*
X55159Y-16575D02*
X55491Y-16575D01*
X55859Y-16575D02*
X56725Y-16575D01*
X57225Y-16575D02*
X58975Y-16575D01*
X51975Y-16655D02*
X54041Y-16655D01*
X54709Y-16655D02*
X54791Y-16655D01*
X55159Y-16655D02*
X55491Y-16655D01*
X55859Y-16655D02*
X56725Y-16655D01*
X57225Y-16655D02*
X58975Y-16655D01*
X51975Y-16735D02*
X52246Y-16735D01*
X52704Y-16735D02*
X54041Y-16735D01*
X54709Y-16735D02*
X54791Y-16735D01*
X55159Y-16735D02*
X55491Y-16735D01*
X55859Y-16735D02*
X56725Y-16735D01*
X57225Y-16735D02*
X58246Y-16735D01*
X58704Y-16735D02*
X58975Y-16735D01*
X51975Y-16815D02*
X52154Y-16815D01*
X52796Y-16815D02*
X54041Y-16815D01*
X54709Y-16815D02*
X54791Y-16815D01*
X55159Y-16815D02*
X55491Y-16815D01*
X55859Y-16815D02*
X56725Y-16815D01*
X57225Y-16815D02*
X58154Y-16815D01*
X58796Y-16815D02*
X58975Y-16815D01*
X51975Y-16895D02*
X52091Y-16895D01*
X52861Y-16895D02*
X54041Y-16895D01*
X54709Y-16895D02*
X54791Y-16895D01*
X55159Y-16895D02*
X55491Y-16895D01*
X55859Y-16895D02*
X56725Y-16895D01*
X57225Y-16895D02*
X58091Y-16895D01*
X58861Y-16895D02*
X58975Y-16895D01*
X51975Y-16975D02*
X52057Y-16975D01*
X52894Y-16975D02*
X54041Y-16975D01*
X54709Y-16975D02*
X54791Y-16975D01*
X55159Y-16975D02*
X55491Y-16975D01*
X55859Y-16975D02*
X56725Y-16975D01*
X57225Y-16975D02*
X58057Y-16975D01*
X58894Y-16975D02*
X58975Y-16975D01*
X51975Y-17055D02*
X52034Y-17055D01*
X52916Y-17055D02*
X54041Y-17055D01*
X54709Y-17055D02*
X54791Y-17055D01*
X55159Y-17055D02*
X55491Y-17055D01*
X55859Y-17055D02*
X56725Y-17055D01*
X57225Y-17055D02*
X58034Y-17055D01*
X58916Y-17055D02*
X58975Y-17055D01*
X51975Y-17135D02*
X52034Y-17135D01*
X52916Y-17135D02*
X54041Y-17135D01*
X54709Y-17135D02*
X54791Y-17135D01*
X55159Y-17135D02*
X55491Y-17135D01*
X55859Y-17135D02*
X56725Y-17135D01*
X57225Y-17135D02*
X58034Y-17135D01*
X58916Y-17135D02*
X58975Y-17135D01*
X51975Y-17215D02*
X52034Y-17215D01*
X52916Y-17215D02*
X54041Y-17215D01*
X54709Y-17215D02*
X54791Y-17215D01*
X55159Y-17215D02*
X55491Y-17215D01*
X55859Y-17215D02*
X56725Y-17215D01*
X57225Y-17215D02*
X58034Y-17215D01*
X58916Y-17215D02*
X58975Y-17215D01*
X51975Y-17295D02*
X52065Y-17295D01*
X52884Y-17295D02*
X54041Y-17295D01*
X54709Y-17295D02*
X54791Y-17295D01*
X55159Y-17295D02*
X55491Y-17295D01*
X55859Y-17295D02*
X56725Y-17295D01*
X57225Y-17295D02*
X58065Y-17295D01*
X58884Y-17295D02*
X58975Y-17295D01*
X51975Y-17375D02*
X52098Y-17375D01*
X52851Y-17375D02*
X54041Y-17375D01*
X54709Y-17375D02*
X54791Y-17375D01*
X55159Y-17375D02*
X55491Y-17375D01*
X55859Y-17375D02*
X56725Y-17375D01*
X57225Y-17375D02*
X58098Y-17375D01*
X58851Y-17375D02*
X58975Y-17375D01*
X51975Y-17455D02*
X52174Y-17455D01*
X52776Y-17455D02*
X54041Y-17455D01*
X54709Y-17455D02*
X54791Y-17455D01*
X55159Y-17455D02*
X55491Y-17455D01*
X55859Y-17455D02*
X56725Y-17455D01*
X57225Y-17455D02*
X58174Y-17455D01*
X58776Y-17455D02*
X58975Y-17455D01*
X51975Y-17535D02*
X52294Y-17535D01*
X52656Y-17535D02*
X54041Y-17535D01*
X54709Y-17535D02*
X54791Y-17535D01*
X55159Y-17535D02*
X55491Y-17535D01*
X55859Y-17535D02*
X56725Y-17535D01*
X57225Y-17535D02*
X58294Y-17535D01*
X58656Y-17535D02*
X58975Y-17535D01*
X51975Y-17615D02*
X54041Y-17615D01*
X54709Y-17615D02*
X54791Y-17615D01*
X55159Y-17615D02*
X55491Y-17615D01*
X55859Y-17615D02*
X56725Y-17615D01*
X57225Y-17615D02*
X58975Y-17615D01*
X51975Y-17695D02*
X52342Y-17695D01*
X52609Y-17695D02*
X54041Y-17695D01*
X54709Y-17695D02*
X54791Y-17695D01*
X55159Y-17695D02*
X55491Y-17695D01*
X55859Y-17695D02*
X56725Y-17695D01*
X57225Y-17695D02*
X58342Y-17695D01*
X58609Y-17695D02*
X58975Y-17695D01*
X51975Y-17775D02*
X52194Y-17775D01*
X52756Y-17775D02*
X54041Y-17775D01*
X54709Y-17775D02*
X54791Y-17775D01*
X55159Y-17775D02*
X55491Y-17775D01*
X55859Y-17775D02*
X56725Y-17775D01*
X57225Y-17775D02*
X58194Y-17775D01*
X58756Y-17775D02*
X58975Y-17775D01*
X51975Y-17855D02*
X52114Y-17855D01*
X52836Y-17855D02*
X54041Y-17855D01*
X54709Y-17855D02*
X54791Y-17855D01*
X55159Y-17855D02*
X55491Y-17855D01*
X55859Y-17855D02*
X56725Y-17855D01*
X57225Y-17855D02*
X58114Y-17855D01*
X58836Y-17855D02*
X58975Y-17855D01*
X51975Y-17935D02*
X52074Y-17935D01*
X52877Y-17935D02*
X54041Y-17935D01*
X54709Y-17935D02*
X54791Y-17935D01*
X55159Y-17935D02*
X55491Y-17935D01*
X55859Y-17935D02*
X56725Y-17935D01*
X57225Y-17935D02*
X58074Y-17935D01*
X58877Y-17935D02*
X58975Y-17935D01*
X51975Y-18015D02*
X52040Y-18015D01*
X52910Y-18015D02*
X54041Y-18015D01*
X54709Y-18015D02*
X54791Y-18015D01*
X55159Y-18015D02*
X55491Y-18015D01*
X55859Y-18015D02*
X56725Y-18015D01*
X57225Y-18015D02*
X58040Y-18015D01*
X58910Y-18015D02*
X58975Y-18015D01*
X51975Y-18095D02*
X52034Y-18095D01*
X52916Y-18095D02*
X54041Y-18095D01*
X54709Y-18095D02*
X54791Y-18095D01*
X55159Y-18095D02*
X55491Y-18095D01*
X55859Y-18095D02*
X56725Y-18095D01*
X57225Y-18095D02*
X58034Y-18095D01*
X58916Y-18095D02*
X58975Y-18095D01*
X51975Y-18175D02*
X52034Y-18175D01*
X52916Y-18175D02*
X54041Y-18175D01*
X54709Y-18175D02*
X54791Y-18175D01*
X55159Y-18175D02*
X55491Y-18175D01*
X55859Y-18175D02*
X56725Y-18175D01*
X57225Y-18175D02*
X58034Y-18175D01*
X58916Y-18175D02*
X58975Y-18175D01*
X51975Y-18255D02*
X52048Y-18255D01*
X52901Y-18255D02*
X54041Y-18255D01*
X54709Y-18255D02*
X54791Y-18255D01*
X55159Y-18255D02*
X55491Y-18255D01*
X55859Y-18255D02*
X56725Y-18255D01*
X57225Y-18255D02*
X58048Y-18255D01*
X58901Y-18255D02*
X58975Y-18255D01*
X51975Y-18335D02*
X52081Y-18335D01*
X52868Y-18335D02*
X54041Y-18335D01*
X54709Y-18335D02*
X54791Y-18335D01*
X55159Y-18335D02*
X55491Y-18335D01*
X55859Y-18335D02*
X56725Y-18335D01*
X57225Y-18335D02*
X58081Y-18335D01*
X58868Y-18335D02*
X58975Y-18335D01*
X51975Y-18415D02*
X52134Y-18415D01*
X52816Y-18415D02*
X54041Y-18415D01*
X54709Y-18415D02*
X54791Y-18415D01*
X55159Y-18415D02*
X55491Y-18415D01*
X55859Y-18415D02*
X56725Y-18415D01*
X57225Y-18415D02*
X58134Y-18415D01*
X58816Y-18415D02*
X58975Y-18415D01*
X51975Y-18495D02*
X52214Y-18495D01*
X52736Y-18495D02*
X54041Y-18495D01*
X54709Y-18495D02*
X54791Y-18495D01*
X55159Y-18495D02*
X55491Y-18495D01*
X55859Y-18495D02*
X56725Y-18495D01*
X57225Y-18495D02*
X58214Y-18495D01*
X58736Y-18495D02*
X58975Y-18495D01*
X51975Y-18575D02*
X54041Y-18575D01*
X54709Y-18575D02*
X54791Y-18575D01*
X55159Y-18575D02*
X55491Y-18575D01*
X55859Y-18575D02*
X56725Y-18575D01*
X57225Y-18575D02*
X58975Y-18575D01*
X51975Y-18655D02*
X54041Y-18655D01*
X54709Y-18655D02*
X54791Y-18655D01*
X55159Y-18655D02*
X55491Y-18655D01*
X55859Y-18655D02*
X56725Y-18655D01*
X57225Y-18655D02*
X58975Y-18655D01*
X51975Y-18735D02*
X52246Y-18735D01*
X52704Y-18735D02*
X54041Y-18735D01*
X54709Y-18735D02*
X54791Y-18735D01*
X55159Y-18735D02*
X55491Y-18735D01*
X55859Y-18735D02*
X56725Y-18735D01*
X57225Y-18735D02*
X58246Y-18735D01*
X58704Y-18735D02*
X58975Y-18735D01*
X51975Y-18815D02*
X52154Y-18815D01*
X52796Y-18815D02*
X54041Y-18815D01*
X54709Y-18815D02*
X54791Y-18815D01*
X55159Y-18815D02*
X55491Y-18815D01*
X55859Y-18815D02*
X56725Y-18815D01*
X57225Y-18815D02*
X58154Y-18815D01*
X58796Y-18815D02*
X58975Y-18815D01*
X51975Y-18895D02*
X52091Y-18895D01*
X52861Y-18895D02*
X54041Y-18895D01*
X54709Y-18895D02*
X54791Y-18895D01*
X55159Y-18895D02*
X55491Y-18895D01*
X55859Y-18895D02*
X56725Y-18895D01*
X57225Y-18895D02*
X58091Y-18895D01*
X58861Y-18895D02*
X58975Y-18895D01*
X51975Y-18975D02*
X52057Y-18975D01*
X52894Y-18975D02*
X54041Y-18975D01*
X54709Y-18975D02*
X54791Y-18975D01*
X55159Y-18975D02*
X55491Y-18975D01*
X55859Y-18975D02*
X56725Y-18975D01*
X57225Y-18975D02*
X58057Y-18975D01*
X58894Y-18975D02*
X58975Y-18975D01*
X51975Y-19055D02*
X52034Y-19055D01*
X52916Y-19055D02*
X54041Y-19055D01*
X54709Y-19055D02*
X54791Y-19055D01*
X55159Y-19055D02*
X55491Y-19055D01*
X55859Y-19055D02*
X56725Y-19055D01*
X57225Y-19055D02*
X58034Y-19055D01*
X58916Y-19055D02*
X58975Y-19055D01*
X51975Y-19135D02*
X52034Y-19135D01*
X52916Y-19135D02*
X54041Y-19135D01*
X54709Y-19135D02*
X54791Y-19135D01*
X55159Y-19135D02*
X55491Y-19135D01*
X55859Y-19135D02*
X56725Y-19135D01*
X57225Y-19135D02*
X58034Y-19135D01*
X58916Y-19135D02*
X58975Y-19135D01*
X51975Y-19215D02*
X52034Y-19215D01*
X52916Y-19215D02*
X54041Y-19215D01*
X54709Y-19215D02*
X54791Y-19215D01*
X55159Y-19215D02*
X55491Y-19215D01*
X55859Y-19215D02*
X56681Y-19215D01*
X57225Y-19215D02*
X58034Y-19215D01*
X58916Y-19215D02*
X58975Y-19215D01*
X51975Y-19295D02*
X52065Y-19295D01*
X52905Y-19295D02*
X54041Y-19295D01*
X54709Y-19295D02*
X54791Y-19295D01*
X55159Y-19295D02*
X55491Y-19295D01*
X55859Y-19295D02*
X56601Y-19295D01*
X57221Y-19295D02*
X58065Y-19295D01*
X58884Y-19295D02*
X58975Y-19295D01*
X51975Y-19375D02*
X52098Y-19375D01*
X52985Y-19375D02*
X54041Y-19375D01*
X54709Y-19375D02*
X54791Y-19375D01*
X55159Y-19375D02*
X55491Y-19375D01*
X55859Y-19375D02*
X56521Y-19375D01*
X57203Y-19375D02*
X58098Y-19375D01*
X58851Y-19375D02*
X58975Y-19375D01*
X51975Y-19455D02*
X52174Y-19455D01*
X53065Y-19455D02*
X54041Y-19455D01*
X54709Y-19455D02*
X54791Y-19455D01*
X55159Y-19455D02*
X55491Y-19455D01*
X55859Y-19455D02*
X56441Y-19455D01*
X57147Y-19455D02*
X58174Y-19455D01*
X58776Y-19455D02*
X58975Y-19455D01*
X51975Y-19535D02*
X52294Y-19535D01*
X53145Y-19535D02*
X54041Y-19535D01*
X54709Y-19535D02*
X54791Y-19535D01*
X55159Y-19535D02*
X55491Y-19535D01*
X55859Y-19535D02*
X56361Y-19535D01*
X57067Y-19535D02*
X58294Y-19535D01*
X58656Y-19535D02*
X58975Y-19535D01*
X51975Y-19615D02*
X52705Y-19615D01*
X53225Y-19615D02*
X54041Y-19615D01*
X54737Y-19615D02*
X54791Y-19615D01*
X55159Y-19615D02*
X55491Y-19615D01*
X55859Y-19615D02*
X56281Y-19615D01*
X56987Y-19615D02*
X58975Y-19615D01*
X51975Y-19695D02*
X52343Y-19695D01*
X52609Y-19695D02*
X52785Y-19695D01*
X53289Y-19695D02*
X54041Y-19695D01*
X55159Y-19695D02*
X55491Y-19695D01*
X55859Y-19695D02*
X56201Y-19695D01*
X56907Y-19695D02*
X58342Y-19695D01*
X58609Y-19695D02*
X58975Y-19695D01*
X51975Y-19775D02*
X52194Y-19775D01*
X52756Y-19775D02*
X52865Y-19775D01*
X53309Y-19775D02*
X54041Y-19775D01*
X55159Y-19775D02*
X55491Y-19775D01*
X55859Y-19775D02*
X56121Y-19775D01*
X56827Y-19775D02*
X58194Y-19775D01*
X58756Y-19775D02*
X58975Y-19775D01*
X51975Y-19855D02*
X52114Y-19855D01*
X52836Y-19855D02*
X52941Y-19855D01*
X53309Y-19855D02*
X54041Y-19855D01*
X55159Y-19855D02*
X55491Y-19855D01*
X55859Y-19855D02*
X56041Y-19855D01*
X56747Y-19855D02*
X58114Y-19855D01*
X58836Y-19855D02*
X58975Y-19855D01*
X51975Y-19935D02*
X52074Y-19935D01*
X52877Y-19935D02*
X52941Y-19935D01*
X53309Y-19935D02*
X54041Y-19935D01*
X55159Y-19935D02*
X55491Y-19935D01*
X55859Y-19935D02*
X55961Y-19935D01*
X56667Y-19935D02*
X58074Y-19935D01*
X58877Y-19935D02*
X58975Y-19935D01*
X51975Y-20015D02*
X52040Y-20015D01*
X52910Y-20015D02*
X52941Y-20015D01*
X53309Y-20015D02*
X53970Y-20015D01*
X54756Y-20015D02*
X54791Y-20015D01*
X55159Y-20015D02*
X55491Y-20015D01*
X55859Y-20015D02*
X55887Y-20015D01*
X56587Y-20015D02*
X58040Y-20015D01*
X58910Y-20015D02*
X58975Y-20015D01*
X51975Y-20095D02*
X52034Y-20095D01*
X52916Y-20095D02*
X52941Y-20095D01*
X53309Y-20095D02*
X53936Y-20095D01*
X54652Y-20095D02*
X54791Y-20095D01*
X55159Y-20095D02*
X55491Y-20095D01*
X56507Y-20095D02*
X58034Y-20095D01*
X58916Y-20095D02*
X58975Y-20095D01*
X51975Y-20175D02*
X52034Y-20175D01*
X52916Y-20175D02*
X52941Y-20175D01*
X53309Y-20175D02*
X53927Y-20175D01*
X54523Y-20175D02*
X54791Y-20175D01*
X55159Y-20175D02*
X55491Y-20175D01*
X56427Y-20175D02*
X58034Y-20175D01*
X58916Y-20175D02*
X58975Y-20175D01*
X51975Y-20255D02*
X52048Y-20255D01*
X52901Y-20255D02*
X52941Y-20255D01*
X53309Y-20255D02*
X53935Y-20255D01*
X54514Y-20255D02*
X54791Y-20255D01*
X55159Y-20255D02*
X55491Y-20255D01*
X56347Y-20255D02*
X58048Y-20255D01*
X58901Y-20255D02*
X58975Y-20255D01*
X51975Y-20335D02*
X52081Y-20335D01*
X52868Y-20335D02*
X52941Y-20335D01*
X53309Y-20335D02*
X53968Y-20335D01*
X54480Y-20335D02*
X54791Y-20335D01*
X55159Y-20335D02*
X55491Y-20335D01*
X56325Y-20335D02*
X58081Y-20335D01*
X58868Y-20335D02*
X58975Y-20335D01*
X51975Y-20415D02*
X52134Y-20415D01*
X52816Y-20415D02*
X52941Y-20415D01*
X53309Y-20415D02*
X54043Y-20415D01*
X54406Y-20415D02*
X54791Y-20415D01*
X55159Y-20415D02*
X55491Y-20415D01*
X56325Y-20415D02*
X58134Y-20415D01*
X58816Y-20415D02*
X58975Y-20415D01*
X51975Y-20495D02*
X52214Y-20495D01*
X52736Y-20495D02*
X52941Y-20495D01*
X53309Y-20495D02*
X54791Y-20495D01*
X55159Y-20495D02*
X55491Y-20495D01*
X56325Y-20495D02*
X58214Y-20495D01*
X58736Y-20495D02*
X58975Y-20495D01*
X51975Y-20575D02*
X52941Y-20575D01*
X53309Y-20575D02*
X54791Y-20575D01*
X55159Y-20575D02*
X55491Y-20575D01*
X56325Y-20575D02*
X58975Y-20575D01*
X51975Y-20655D02*
X52941Y-20655D01*
X53309Y-20655D02*
X54791Y-20655D01*
X55159Y-20655D02*
X55491Y-20655D01*
X56325Y-20655D02*
X58975Y-20655D01*
X51975Y-20735D02*
X52246Y-20735D01*
X52704Y-20735D02*
X52941Y-20735D01*
X53309Y-20735D02*
X54754Y-20735D01*
X55159Y-20735D02*
X55491Y-20735D01*
X56325Y-20735D02*
X58246Y-20735D01*
X58704Y-20735D02*
X58975Y-20735D01*
X51975Y-20815D02*
X52154Y-20815D01*
X52796Y-20815D02*
X52941Y-20815D01*
X53309Y-20815D02*
X54674Y-20815D01*
X55151Y-20815D02*
X55491Y-20815D01*
X56325Y-20815D02*
X58154Y-20815D01*
X58796Y-20815D02*
X58975Y-20815D01*
X51975Y-20895D02*
X52091Y-20895D01*
X52861Y-20895D02*
X52941Y-20895D01*
X53309Y-20895D02*
X54594Y-20895D01*
X55111Y-20895D02*
X55491Y-20895D01*
X56325Y-20895D02*
X58091Y-20895D01*
X58861Y-20895D02*
X58975Y-20895D01*
X51975Y-20975D02*
X52057Y-20975D01*
X52894Y-20975D02*
X52941Y-20975D01*
X53309Y-20975D02*
X54514Y-20975D01*
X55035Y-20975D02*
X55491Y-20975D01*
X56325Y-20975D02*
X58057Y-20975D01*
X58894Y-20975D02*
X58975Y-20975D01*
X51975Y-21055D02*
X52034Y-21055D01*
X52916Y-21055D02*
X52941Y-21055D01*
X53309Y-21055D02*
X54434Y-21055D01*
X54955Y-21055D02*
X55491Y-21055D01*
X56325Y-21055D02*
X58034Y-21055D01*
X58916Y-21055D02*
X58975Y-21055D01*
X51975Y-21135D02*
X52034Y-21135D01*
X52916Y-21135D02*
X52941Y-21135D01*
X53309Y-21135D02*
X54354Y-21135D01*
X54875Y-21135D02*
X55491Y-21135D01*
X56325Y-21135D02*
X58034Y-21135D01*
X58916Y-21135D02*
X58975Y-21135D01*
X51975Y-21215D02*
X52034Y-21215D01*
X52916Y-21215D02*
X52941Y-21215D01*
X53309Y-21215D02*
X54274Y-21215D01*
X54795Y-21215D02*
X55491Y-21215D01*
X56325Y-21215D02*
X58034Y-21215D01*
X58916Y-21215D02*
X58975Y-21215D01*
X51975Y-21295D02*
X52065Y-21295D01*
X52884Y-21295D02*
X52941Y-21295D01*
X53309Y-21295D02*
X54034Y-21295D01*
X54715Y-21295D02*
X55491Y-21295D01*
X56325Y-21295D02*
X58065Y-21295D01*
X58884Y-21295D02*
X58975Y-21295D01*
X51975Y-21375D02*
X52098Y-21375D01*
X52851Y-21375D02*
X52941Y-21375D01*
X53309Y-21375D02*
X53965Y-21375D01*
X54635Y-21375D02*
X55414Y-21375D01*
X56325Y-21375D02*
X58098Y-21375D01*
X58851Y-21375D02*
X58975Y-21375D01*
X51975Y-21455D02*
X52174Y-21455D01*
X52776Y-21455D02*
X52941Y-21455D01*
X53309Y-21455D02*
X53932Y-21455D01*
X54555Y-21455D02*
X55334Y-21455D01*
X56325Y-21455D02*
X58174Y-21455D01*
X58776Y-21455D02*
X58975Y-21455D01*
X51975Y-21535D02*
X52294Y-21535D01*
X52656Y-21535D02*
X52941Y-21535D01*
X53309Y-21535D02*
X53927Y-21535D01*
X54523Y-21535D02*
X55254Y-21535D01*
X55775Y-21535D02*
X55825Y-21535D01*
X56325Y-21535D02*
X58294Y-21535D01*
X58656Y-21535D02*
X58975Y-21535D01*
X51975Y-21615D02*
X52941Y-21615D01*
X53309Y-21615D02*
X53939Y-21615D01*
X54510Y-21615D02*
X55174Y-21615D01*
X55695Y-21615D02*
X55825Y-21615D01*
X56325Y-21615D02*
X58975Y-21615D01*
X51975Y-21695D02*
X52342Y-21695D01*
X52609Y-21695D02*
X52941Y-21695D01*
X53309Y-21695D02*
X53684Y-21695D01*
X54476Y-21695D02*
X55094Y-21695D01*
X55615Y-21695D02*
X55825Y-21695D01*
X56325Y-21695D02*
X58342Y-21695D01*
X58609Y-21695D02*
X58975Y-21695D01*
X51975Y-21775D02*
X52194Y-21775D01*
X52756Y-21775D02*
X52941Y-21775D01*
X53309Y-21775D02*
X53615Y-21775D01*
X55535Y-21775D02*
X55825Y-21775D01*
X56325Y-21775D02*
X58194Y-21775D01*
X58756Y-21775D02*
X58975Y-21775D01*
X51975Y-21855D02*
X52114Y-21855D01*
X52836Y-21855D02*
X52941Y-21855D01*
X53309Y-21855D02*
X53582Y-21855D01*
X55455Y-21855D02*
X55825Y-21855D01*
X56325Y-21855D02*
X58114Y-21855D01*
X58836Y-21855D02*
X58975Y-21855D01*
X51975Y-21935D02*
X52074Y-21935D01*
X52877Y-21935D02*
X52941Y-21935D01*
X53309Y-21935D02*
X53577Y-21935D01*
X55375Y-21935D02*
X55825Y-21935D01*
X56325Y-21935D02*
X58074Y-21935D01*
X58877Y-21935D02*
X58975Y-21935D01*
X51975Y-22015D02*
X52040Y-22015D01*
X52910Y-22015D02*
X52941Y-22015D01*
X53309Y-22015D02*
X53589Y-22015D01*
X55295Y-22015D02*
X55825Y-22015D01*
X56325Y-22015D02*
X58040Y-22015D01*
X58910Y-22015D02*
X58975Y-22015D01*
X51975Y-22095D02*
X52034Y-22095D01*
X52916Y-22095D02*
X52941Y-22095D01*
X53309Y-22095D02*
X53584Y-22095D01*
X55227Y-22095D02*
X55825Y-22095D01*
X56325Y-22095D02*
X58034Y-22095D01*
X58916Y-22095D02*
X58975Y-22095D01*
X51975Y-22175D02*
X52034Y-22175D01*
X52916Y-22175D02*
X52941Y-22175D01*
X53309Y-22175D02*
X53515Y-22175D01*
X55405Y-22175D02*
X55825Y-22175D01*
X56325Y-22175D02*
X58034Y-22175D01*
X58916Y-22175D02*
X58975Y-22175D01*
X51975Y-22255D02*
X52048Y-22255D01*
X52901Y-22255D02*
X52941Y-22255D01*
X53365Y-22255D02*
X53482Y-22255D01*
X55509Y-22255D02*
X55825Y-22255D01*
X56325Y-22255D02*
X58048Y-22255D01*
X58901Y-22255D02*
X58975Y-22255D01*
X51975Y-22335D02*
X52081Y-22335D01*
X52868Y-22335D02*
X52952Y-22335D01*
X53445Y-22335D02*
X53477Y-22335D01*
X55577Y-22335D02*
X55825Y-22335D01*
X56325Y-22335D02*
X58081Y-22335D01*
X58868Y-22335D02*
X58975Y-22335D01*
X51975Y-22415D02*
X52134Y-22415D01*
X52816Y-22415D02*
X53005Y-22415D01*
X55614Y-22415D02*
X55825Y-22415D01*
X56325Y-22415D02*
X58134Y-22415D01*
X58816Y-22415D02*
X58975Y-22415D01*
X51975Y-22495D02*
X52214Y-22495D01*
X52736Y-22495D02*
X53085Y-22495D01*
X55625Y-22495D02*
X55825Y-22495D01*
X56325Y-22495D02*
X56572Y-22495D01*
X56778Y-22495D02*
X58214Y-22495D01*
X58736Y-22495D02*
X58975Y-22495D01*
X51975Y-22575D02*
X53165Y-22575D01*
X55625Y-22575D02*
X55825Y-22575D01*
X56325Y-22575D02*
X56454Y-22575D01*
X56897Y-22575D02*
X58975Y-22575D01*
X51975Y-22655D02*
X53245Y-22655D01*
X55625Y-22655D02*
X55825Y-22655D01*
X56325Y-22655D02*
X56403Y-22655D01*
X56949Y-22655D02*
X58975Y-22655D01*
X51975Y-22735D02*
X52246Y-22735D01*
X52704Y-22735D02*
X53325Y-22735D01*
X55625Y-22735D02*
X55825Y-22735D01*
X56325Y-22735D02*
X56377Y-22735D01*
X56973Y-22735D02*
X57097Y-22735D01*
X57254Y-22735D02*
X58246Y-22735D01*
X58704Y-22735D02*
X58975Y-22735D01*
X51975Y-22815D02*
X52154Y-22815D01*
X52796Y-22815D02*
X53327Y-22815D01*
X55625Y-22815D02*
X55825Y-22815D01*
X56325Y-22815D02*
X56377Y-22815D01*
X57387Y-22815D02*
X58154Y-22815D01*
X58796Y-22815D02*
X58975Y-22815D01*
X51975Y-22895D02*
X52091Y-22895D01*
X52861Y-22895D02*
X53351Y-22895D01*
X55625Y-22895D02*
X55825Y-22895D01*
X56325Y-22895D02*
X56391Y-22895D01*
X57444Y-22895D02*
X58091Y-22895D01*
X58861Y-22895D02*
X58975Y-22895D01*
X51975Y-22975D02*
X52057Y-22975D01*
X52894Y-22975D02*
X53403Y-22975D01*
X55625Y-22975D02*
X55825Y-22975D01*
X56325Y-22975D02*
X56391Y-22975D01*
X57473Y-22975D02*
X58057Y-22975D01*
X58894Y-22975D02*
X58975Y-22975D01*
X51975Y-23055D02*
X52034Y-23055D01*
X52916Y-23055D02*
X53522Y-23055D01*
X53728Y-23055D02*
X54325Y-23055D01*
X55625Y-23055D02*
X55825Y-23055D01*
X56325Y-23055D02*
X56391Y-23055D01*
X57473Y-23055D02*
X58034Y-23055D01*
X58916Y-23055D02*
X58975Y-23055D01*
X51975Y-23135D02*
X52034Y-23135D01*
X52916Y-23135D02*
X53852Y-23135D01*
X54225Y-23135D02*
X54325Y-23135D01*
X54825Y-23135D02*
X54925Y-23135D01*
X55625Y-23135D02*
X55825Y-23135D01*
X56325Y-23135D02*
X56391Y-23135D01*
X57451Y-23135D02*
X58034Y-23135D01*
X58916Y-23135D02*
X58975Y-23135D01*
X51975Y-23215D02*
X52034Y-23215D01*
X52916Y-23215D02*
X53800Y-23215D01*
X54225Y-23215D02*
X54325Y-23215D01*
X54825Y-23215D02*
X54925Y-23215D01*
X55625Y-23215D02*
X55825Y-23215D01*
X56325Y-23215D02*
X56391Y-23215D01*
X57406Y-23215D02*
X58034Y-23215D01*
X58916Y-23215D02*
X58975Y-23215D01*
X51975Y-23295D02*
X52065Y-23295D01*
X52884Y-23295D02*
X53820Y-23295D01*
X54225Y-23295D02*
X54325Y-23295D01*
X54825Y-23295D02*
X54925Y-23295D01*
X55625Y-23295D02*
X55825Y-23295D01*
X56325Y-23295D02*
X56391Y-23295D01*
X57345Y-23295D02*
X58065Y-23295D01*
X58884Y-23295D02*
X58975Y-23295D01*
X51975Y-23375D02*
X52098Y-23375D01*
X52851Y-23375D02*
X53873Y-23375D01*
X54225Y-23375D02*
X54325Y-23375D01*
X54825Y-23375D02*
X54925Y-23375D01*
X55625Y-23375D02*
X55825Y-23375D01*
X56325Y-23375D02*
X56391Y-23375D01*
X57373Y-23375D02*
X58098Y-23375D01*
X58851Y-23375D02*
X58975Y-23375D01*
X51975Y-23455D02*
X52174Y-23455D01*
X52776Y-23455D02*
X54384Y-23455D01*
X54825Y-23455D02*
X54925Y-23455D01*
X55625Y-23455D02*
X55825Y-23455D01*
X56325Y-23455D02*
X56391Y-23455D01*
X57373Y-23455D02*
X58174Y-23455D01*
X58776Y-23455D02*
X58975Y-23455D01*
X51975Y-23535D02*
X52294Y-23535D01*
X52656Y-23535D02*
X54458Y-23535D01*
X54803Y-23535D02*
X54947Y-23535D01*
X55625Y-23535D02*
X55825Y-23535D01*
X56325Y-23535D02*
X56391Y-23535D01*
X57407Y-23535D02*
X58294Y-23535D01*
X58656Y-23535D02*
X58975Y-23535D01*
X51975Y-23615D02*
X55125Y-23615D01*
X55625Y-23615D02*
X55825Y-23615D01*
X56325Y-23615D02*
X56391Y-23615D01*
X57482Y-23615D02*
X58975Y-23615D01*
X51975Y-23695D02*
X52342Y-23695D01*
X52609Y-23695D02*
X55125Y-23695D01*
X55625Y-23695D02*
X55825Y-23695D01*
X56325Y-23695D02*
X56391Y-23695D01*
X57515Y-23695D02*
X58342Y-23695D01*
X58609Y-23695D02*
X58975Y-23695D01*
X51975Y-23775D02*
X52194Y-23775D01*
X52756Y-23775D02*
X55125Y-23775D01*
X55625Y-23775D02*
X55825Y-23775D01*
X56325Y-23775D02*
X56391Y-23775D01*
X57523Y-23775D02*
X58194Y-23775D01*
X58756Y-23775D02*
X58975Y-23775D01*
X51975Y-23855D02*
X52114Y-23855D01*
X52836Y-23855D02*
X53724Y-23855D01*
X54127Y-23855D02*
X55125Y-23855D01*
X55625Y-23855D02*
X55825Y-23855D01*
X56325Y-23855D02*
X56391Y-23855D01*
X57514Y-23855D02*
X58114Y-23855D01*
X58836Y-23855D02*
X58975Y-23855D01*
X51975Y-23935D02*
X52074Y-23935D01*
X52877Y-23935D02*
X53661Y-23935D01*
X54190Y-23935D02*
X55125Y-23935D01*
X55625Y-23935D02*
X55825Y-23935D01*
X56325Y-23935D02*
X56391Y-23935D01*
X57480Y-23935D02*
X58074Y-23935D01*
X58877Y-23935D02*
X58975Y-23935D01*
X51975Y-24015D02*
X52040Y-24015D01*
X52910Y-24015D02*
X53627Y-24015D01*
X54223Y-24015D02*
X55125Y-24015D01*
X55625Y-24015D02*
X55825Y-24015D01*
X56325Y-24015D02*
X56391Y-24015D01*
X57409Y-24015D02*
X58040Y-24015D01*
X58910Y-24015D02*
X58975Y-24015D01*
X51975Y-24095D02*
X52034Y-24095D01*
X52916Y-24095D02*
X53627Y-24095D01*
X54223Y-24095D02*
X55125Y-24095D01*
X55625Y-24095D02*
X55825Y-24095D01*
X56325Y-24095D02*
X56391Y-24095D01*
X57409Y-24095D02*
X58034Y-24095D01*
X58916Y-24095D02*
X58975Y-24095D01*
X51975Y-24175D02*
X52034Y-24175D01*
X52916Y-24175D02*
X53643Y-24175D01*
X54285Y-24175D02*
X55070Y-24175D01*
X55625Y-24175D02*
X55825Y-24175D01*
X56325Y-24175D02*
X56391Y-24175D01*
X57409Y-24175D02*
X58034Y-24175D01*
X58916Y-24175D02*
X58975Y-24175D01*
X51975Y-24255D02*
X52048Y-24255D01*
X52901Y-24255D02*
X53683Y-24255D01*
X54345Y-24255D02*
X55036Y-24255D01*
X55625Y-24255D02*
X55825Y-24255D01*
X56325Y-24255D02*
X56391Y-24255D01*
X57409Y-24255D02*
X58048Y-24255D01*
X58901Y-24255D02*
X58975Y-24255D01*
X51975Y-24335D02*
X52081Y-24335D01*
X52868Y-24335D02*
X53594Y-24335D01*
X54359Y-24335D02*
X55027Y-24335D01*
X55625Y-24335D02*
X55825Y-24335D01*
X56325Y-24335D02*
X56391Y-24335D01*
X57409Y-24335D02*
X58081Y-24335D01*
X58868Y-24335D02*
X58975Y-24335D01*
X51975Y-24415D02*
X52134Y-24415D01*
X52816Y-24415D02*
X53549Y-24415D01*
X54359Y-24415D02*
X55035Y-24415D01*
X55625Y-24415D02*
X55825Y-24415D01*
X56325Y-24415D02*
X56391Y-24415D01*
X57409Y-24415D02*
X58134Y-24415D01*
X58816Y-24415D02*
X58975Y-24415D01*
X51975Y-24495D02*
X52214Y-24495D01*
X52736Y-24495D02*
X53527Y-24495D01*
X54359Y-24495D02*
X55068Y-24495D01*
X55625Y-24495D02*
X55825Y-24495D01*
X56325Y-24495D02*
X56391Y-24495D01*
X57409Y-24495D02*
X58214Y-24495D01*
X58736Y-24495D02*
X58975Y-24495D01*
X51975Y-24575D02*
X53515Y-24575D01*
X54359Y-24575D02*
X55125Y-24575D01*
X55625Y-24575D02*
X55825Y-24575D01*
X56325Y-24575D02*
X56391Y-24575D01*
X57409Y-24575D02*
X58975Y-24575D01*
X51975Y-24655D02*
X53435Y-24655D01*
X54359Y-24655D02*
X55125Y-24655D01*
X55625Y-24655D02*
X55825Y-24655D01*
X56325Y-24655D02*
X56391Y-24655D01*
X57409Y-24655D02*
X58975Y-24655D01*
X51975Y-24735D02*
X52246Y-24735D01*
X52704Y-24735D02*
X53355Y-24735D01*
X54359Y-24735D02*
X55125Y-24735D01*
X55625Y-24735D02*
X55825Y-24735D01*
X56325Y-24735D02*
X56391Y-24735D01*
X57409Y-24735D02*
X58246Y-24735D01*
X58704Y-24735D02*
X58975Y-24735D01*
X51975Y-24815D02*
X52154Y-24815D01*
X52796Y-24815D02*
X53275Y-24815D01*
X53903Y-24815D02*
X53991Y-24815D01*
X54359Y-24815D02*
X55125Y-24815D01*
X55625Y-24815D02*
X55825Y-24815D01*
X56325Y-24815D02*
X56391Y-24815D01*
X57425Y-24815D02*
X58154Y-24815D01*
X58796Y-24815D02*
X58975Y-24815D01*
X51975Y-24895D02*
X52091Y-24895D01*
X52861Y-24895D02*
X53195Y-24895D01*
X53715Y-24895D02*
X53991Y-24895D01*
X54359Y-24895D02*
X55125Y-24895D01*
X55625Y-24895D02*
X55825Y-24895D01*
X56325Y-24895D02*
X56391Y-24895D01*
X57505Y-24895D02*
X58091Y-24895D01*
X58861Y-24895D02*
X58975Y-24895D01*
X51975Y-24975D02*
X52057Y-24975D01*
X52894Y-24975D02*
X53115Y-24975D01*
X53635Y-24975D02*
X53991Y-24975D01*
X54359Y-24975D02*
X55125Y-24975D01*
X55625Y-24975D02*
X55825Y-24975D01*
X56325Y-24975D02*
X56391Y-24975D01*
X57585Y-24975D02*
X58057Y-24975D01*
X58894Y-24975D02*
X58975Y-24975D01*
X51975Y-25055D02*
X52034Y-25055D01*
X52916Y-25055D02*
X53035Y-25055D01*
X53555Y-25055D02*
X53991Y-25055D01*
X54359Y-25055D02*
X55125Y-25055D01*
X55625Y-25055D02*
X55825Y-25055D01*
X56325Y-25055D02*
X56391Y-25055D01*
X57109Y-25055D02*
X57145Y-25055D01*
X57665Y-25055D02*
X58034Y-25055D01*
X58916Y-25055D02*
X58975Y-25055D01*
X51975Y-25135D02*
X52034Y-25135D01*
X52916Y-25135D02*
X52968Y-25135D01*
X53475Y-25135D02*
X53991Y-25135D01*
X54359Y-25135D02*
X55125Y-25135D01*
X55625Y-25135D02*
X55825Y-25135D01*
X56325Y-25135D02*
X56391Y-25135D01*
X57109Y-25135D02*
X57225Y-25135D01*
X57745Y-25135D02*
X58034Y-25135D01*
X58916Y-25135D02*
X58975Y-25135D01*
X51975Y-25215D02*
X52034Y-25215D01*
X52916Y-25215D02*
X52943Y-25215D01*
X53395Y-25215D02*
X53991Y-25215D01*
X54359Y-25215D02*
X55125Y-25215D01*
X55625Y-25215D02*
X55825Y-25215D01*
X56325Y-25215D02*
X56391Y-25215D01*
X57109Y-25215D02*
X57305Y-25215D01*
X57825Y-25215D02*
X58034Y-25215D01*
X58916Y-25215D02*
X58975Y-25215D01*
X51975Y-25295D02*
X52065Y-25295D01*
X52884Y-25295D02*
X52941Y-25295D01*
X53315Y-25295D02*
X53991Y-25295D01*
X54359Y-25295D02*
X55125Y-25295D01*
X55625Y-25295D02*
X55825Y-25295D01*
X56325Y-25295D02*
X56391Y-25295D01*
X57109Y-25295D02*
X57385Y-25295D01*
X57905Y-25295D02*
X58065Y-25295D01*
X58884Y-25295D02*
X58975Y-25295D01*
X51975Y-25375D02*
X52098Y-25375D01*
X52851Y-25375D02*
X52941Y-25375D01*
X53309Y-25375D02*
X53991Y-25375D01*
X54359Y-25375D02*
X55125Y-25375D01*
X55625Y-25375D02*
X55825Y-25375D01*
X56325Y-25375D02*
X56391Y-25375D01*
X57109Y-25375D02*
X57465Y-25375D01*
X57985Y-25375D02*
X58098Y-25375D01*
X58851Y-25375D02*
X58975Y-25375D01*
X51975Y-25455D02*
X52174Y-25455D01*
X52776Y-25455D02*
X52941Y-25455D01*
X53309Y-25455D02*
X53991Y-25455D01*
X54359Y-25455D02*
X55125Y-25455D01*
X55625Y-25455D02*
X55825Y-25455D01*
X56325Y-25455D02*
X56391Y-25455D01*
X57109Y-25455D02*
X57545Y-25455D01*
X58065Y-25455D02*
X58174Y-25455D01*
X58776Y-25455D02*
X58975Y-25455D01*
X51975Y-25535D02*
X52294Y-25535D01*
X52656Y-25535D02*
X52941Y-25535D01*
X53309Y-25535D02*
X53991Y-25535D01*
X54359Y-25535D02*
X55125Y-25535D01*
X55625Y-25535D02*
X55825Y-25535D01*
X56325Y-25535D02*
X56391Y-25535D01*
X57145Y-25535D02*
X57625Y-25535D01*
X58145Y-25535D02*
X58294Y-25535D01*
X58656Y-25535D02*
X58975Y-25535D01*
X51975Y-25615D02*
X52941Y-25615D01*
X53309Y-25615D02*
X53991Y-25615D01*
X54359Y-25615D02*
X55125Y-25615D01*
X55625Y-25615D02*
X55825Y-25615D01*
X56325Y-25615D02*
X56391Y-25615D01*
X57225Y-25615D02*
X57705Y-25615D01*
X58225Y-25615D02*
X58975Y-25615D01*
X51975Y-25695D02*
X52342Y-25695D01*
X52609Y-25695D02*
X52941Y-25695D01*
X53309Y-25695D02*
X53991Y-25695D01*
X54359Y-25695D02*
X55125Y-25695D01*
X55625Y-25695D02*
X55825Y-25695D01*
X56325Y-25695D02*
X56391Y-25695D01*
X57305Y-25695D02*
X57785Y-25695D01*
X58305Y-25695D02*
X58340Y-25695D01*
X58609Y-25695D02*
X58975Y-25695D01*
X51975Y-25775D02*
X52194Y-25775D01*
X52756Y-25775D02*
X52941Y-25775D01*
X53309Y-25775D02*
X53991Y-25775D01*
X54359Y-25775D02*
X55125Y-25775D01*
X55625Y-25775D02*
X55825Y-25775D01*
X56325Y-25775D02*
X56391Y-25775D01*
X57385Y-25775D02*
X57865Y-25775D01*
X58756Y-25775D02*
X58975Y-25775D01*
X51975Y-25855D02*
X52114Y-25855D01*
X52836Y-25855D02*
X52941Y-25855D01*
X53309Y-25855D02*
X53991Y-25855D01*
X54359Y-25855D02*
X55125Y-25855D01*
X55625Y-25855D02*
X55825Y-25855D01*
X56325Y-25855D02*
X56391Y-25855D01*
X57465Y-25855D02*
X57945Y-25855D01*
X58836Y-25855D02*
X58975Y-25855D01*
X51975Y-25935D02*
X52074Y-25935D01*
X52877Y-25935D02*
X52941Y-25935D01*
X53309Y-25935D02*
X53991Y-25935D01*
X54359Y-25935D02*
X55125Y-25935D01*
X55625Y-25935D02*
X55825Y-25935D01*
X56325Y-25935D02*
X56391Y-25935D01*
X56959Y-25935D02*
X57025Y-25935D01*
X57545Y-25935D02*
X58025Y-25935D01*
X58877Y-25935D02*
X58975Y-25935D01*
X51975Y-26015D02*
X52040Y-26015D01*
X52910Y-26015D02*
X52941Y-26015D01*
X53309Y-26015D02*
X53991Y-26015D01*
X54359Y-26015D02*
X55125Y-26015D01*
X55625Y-26015D02*
X55825Y-26015D01*
X56325Y-26015D02*
X56391Y-26015D01*
X56959Y-26015D02*
X57105Y-26015D01*
X57625Y-26015D02*
X58040Y-26015D01*
X58910Y-26015D02*
X58975Y-26015D01*
X51975Y-26095D02*
X52034Y-26095D01*
X52916Y-26095D02*
X52941Y-26095D01*
X53309Y-26095D02*
X53991Y-26095D01*
X54359Y-26095D02*
X55125Y-26095D01*
X55625Y-26095D02*
X55825Y-26095D01*
X56325Y-26095D02*
X56391Y-26095D01*
X56959Y-26095D02*
X57185Y-26095D01*
X57705Y-26095D02*
X58034Y-26095D01*
X58916Y-26095D02*
X58975Y-26095D01*
X51975Y-26175D02*
X52034Y-26175D01*
X52916Y-26175D02*
X52941Y-26175D01*
X53309Y-26175D02*
X53991Y-26175D01*
X54359Y-26175D02*
X55125Y-26175D01*
X55625Y-26175D02*
X55825Y-26175D01*
X56325Y-26175D02*
X56391Y-26175D01*
X56959Y-26175D02*
X57265Y-26175D01*
X57785Y-26175D02*
X58034Y-26175D01*
X58916Y-26175D02*
X58975Y-26175D01*
X51975Y-26255D02*
X52048Y-26255D01*
X52901Y-26255D02*
X52941Y-26255D01*
X53309Y-26255D02*
X53991Y-26255D01*
X54359Y-26255D02*
X55125Y-26255D01*
X55625Y-26255D02*
X55825Y-26255D01*
X56325Y-26255D02*
X56391Y-26255D01*
X56959Y-26255D02*
X57345Y-26255D01*
X57865Y-26255D02*
X58048Y-26255D01*
X58901Y-26255D02*
X58975Y-26255D01*
X51975Y-26335D02*
X52081Y-26335D01*
X52868Y-26335D02*
X52941Y-26335D01*
X53309Y-26335D02*
X53991Y-26335D01*
X54359Y-26335D02*
X55125Y-26335D01*
X55625Y-26335D02*
X55825Y-26335D01*
X56325Y-26335D02*
X56391Y-26335D01*
X56959Y-26335D02*
X57425Y-26335D01*
X57945Y-26335D02*
X58081Y-26335D01*
X58868Y-26335D02*
X58975Y-26335D01*
X51975Y-26415D02*
X52134Y-26415D01*
X52816Y-26415D02*
X52925Y-26415D01*
X53309Y-26415D02*
X53925Y-26415D01*
X54359Y-26415D02*
X55125Y-26415D01*
X55625Y-26415D02*
X55825Y-26415D01*
X56325Y-26415D02*
X56391Y-26415D01*
X57025Y-26415D02*
X57505Y-26415D01*
X58025Y-26415D02*
X58134Y-26415D01*
X58816Y-26415D02*
X58975Y-26415D01*
X51975Y-26495D02*
X52214Y-26495D01*
X52736Y-26495D02*
X52845Y-26495D01*
X53305Y-26495D02*
X53845Y-26495D01*
X54345Y-26495D02*
X55125Y-26495D01*
X55625Y-26495D02*
X55825Y-26495D01*
X56325Y-26495D02*
X56391Y-26495D01*
X57105Y-26495D02*
X57585Y-26495D01*
X58105Y-26495D02*
X58214Y-26495D01*
X58736Y-26495D02*
X58975Y-26495D01*
X51975Y-26575D02*
X52765Y-26575D01*
X53275Y-26575D02*
X53765Y-26575D01*
X54284Y-26575D02*
X55125Y-26575D01*
X55625Y-26575D02*
X55825Y-26575D01*
X56325Y-26575D02*
X56391Y-26575D01*
X57185Y-26575D02*
X57665Y-26575D01*
X58185Y-26575D02*
X58975Y-26575D01*
X51975Y-26655D02*
X52685Y-26655D01*
X53204Y-26655D02*
X53685Y-26655D01*
X54204Y-26655D02*
X55125Y-26655D01*
X55625Y-26655D02*
X55825Y-26655D01*
X56325Y-26655D02*
X56391Y-26655D01*
X57265Y-26655D02*
X57745Y-26655D01*
X58265Y-26655D02*
X58975Y-26655D01*
X51975Y-26735D02*
X52246Y-26735D01*
X53124Y-26735D02*
X53605Y-26735D01*
X54124Y-26735D02*
X55125Y-26735D01*
X55625Y-26735D02*
X55825Y-26735D01*
X56325Y-26735D02*
X56391Y-26735D01*
X56759Y-26735D02*
X56825Y-26735D01*
X57345Y-26735D02*
X57825Y-26735D01*
X58704Y-26735D02*
X58975Y-26735D01*
X51975Y-26815D02*
X52154Y-26815D01*
X53044Y-26815D02*
X53525Y-26815D01*
X54044Y-26815D02*
X55125Y-26815D01*
X55625Y-26815D02*
X55825Y-26815D01*
X56325Y-26815D02*
X56391Y-26815D01*
X56759Y-26815D02*
X56905Y-26815D01*
X57425Y-26815D02*
X57905Y-26815D01*
X58796Y-26815D02*
X58975Y-26815D01*
X51975Y-26895D02*
X52091Y-26895D01*
X52964Y-26895D02*
X53445Y-26895D01*
X53964Y-26895D02*
X55125Y-26895D01*
X55625Y-26895D02*
X55825Y-26895D01*
X56325Y-26895D02*
X56391Y-26895D01*
X56759Y-26895D02*
X56985Y-26895D01*
X57505Y-26895D02*
X57985Y-26895D01*
X58861Y-26895D02*
X58975Y-26895D01*
X51975Y-26975D02*
X52057Y-26975D01*
X52893Y-26975D02*
X53365Y-26975D01*
X53884Y-26975D02*
X55125Y-26975D01*
X55625Y-26975D02*
X55825Y-26975D01*
X56325Y-26975D02*
X56391Y-26975D01*
X56759Y-26975D02*
X57065Y-26975D01*
X57585Y-26975D02*
X58057Y-26975D01*
X58894Y-26975D02*
X58975Y-26975D01*
X51975Y-27055D02*
X52034Y-27055D01*
X52916Y-27055D02*
X53285Y-27055D01*
X53804Y-27055D02*
X55125Y-27055D01*
X55625Y-27055D02*
X55825Y-27055D01*
X56325Y-27055D02*
X56391Y-27055D01*
X56759Y-27055D02*
X57145Y-27055D01*
X57665Y-27055D02*
X58034Y-27055D01*
X58916Y-27055D02*
X58975Y-27055D01*
X51975Y-27135D02*
X52034Y-27135D01*
X52916Y-27135D02*
X53205Y-27135D01*
X53724Y-27135D02*
X55125Y-27135D01*
X55625Y-27135D02*
X55825Y-27135D01*
X56325Y-27135D02*
X56391Y-27135D01*
X56759Y-27135D02*
X57225Y-27135D01*
X57745Y-27135D02*
X58034Y-27135D01*
X58916Y-27135D02*
X58975Y-27135D01*
X51975Y-27215D02*
X52034Y-27215D01*
X52916Y-27215D02*
X53125Y-27215D01*
X53644Y-27215D02*
X55125Y-27215D01*
X55625Y-27215D02*
X55825Y-27215D01*
X56325Y-27215D02*
X56391Y-27215D01*
X56825Y-27215D02*
X57305Y-27215D01*
X57825Y-27215D02*
X58034Y-27215D01*
X58916Y-27215D02*
X58975Y-27215D01*
X51975Y-27295D02*
X52065Y-27295D01*
X52884Y-27295D02*
X53045Y-27295D01*
X53564Y-27295D02*
X55125Y-27295D01*
X55625Y-27295D02*
X55825Y-27295D01*
X56325Y-27295D02*
X56404Y-27295D01*
X56905Y-27295D02*
X57385Y-27295D01*
X57905Y-27295D02*
X58065Y-27295D01*
X58884Y-27295D02*
X58975Y-27295D01*
X51975Y-27375D02*
X52098Y-27375D01*
X52851Y-27375D02*
X52965Y-27375D01*
X53484Y-27375D02*
X55125Y-27375D01*
X55625Y-27375D02*
X55825Y-27375D01*
X56325Y-27375D02*
X56465Y-27375D01*
X56985Y-27375D02*
X57465Y-27375D01*
X57985Y-27375D02*
X58098Y-27375D01*
X58851Y-27375D02*
X58975Y-27375D01*
X51975Y-27455D02*
X52174Y-27455D01*
X52776Y-27455D02*
X52885Y-27455D01*
X53404Y-27455D02*
X55125Y-27455D01*
X55625Y-27455D02*
X55825Y-27455D01*
X56325Y-27455D02*
X56545Y-27455D01*
X57065Y-27455D02*
X57545Y-27455D01*
X58065Y-27455D02*
X58174Y-27455D01*
X58776Y-27455D02*
X58975Y-27455D01*
X51975Y-27535D02*
X52294Y-27535D01*
X52656Y-27535D02*
X52805Y-27535D01*
X53324Y-27535D02*
X55125Y-27535D01*
X55625Y-27535D02*
X55825Y-27535D01*
X56325Y-27535D02*
X56625Y-27535D01*
X57145Y-27535D02*
X57625Y-27535D01*
X58145Y-27535D02*
X58294Y-27535D01*
X58656Y-27535D02*
X58975Y-27535D01*
X51975Y-27615D02*
X52725Y-27615D01*
X53244Y-27615D02*
X55125Y-27615D01*
X55625Y-27615D02*
X55825Y-27615D01*
X56325Y-27615D02*
X56705Y-27615D01*
X57225Y-27615D02*
X57705Y-27615D01*
X58225Y-27615D02*
X58975Y-27615D01*
X51975Y-27695D02*
X52343Y-27695D01*
X52610Y-27695D02*
X52645Y-27695D01*
X53164Y-27695D02*
X55125Y-27695D01*
X55625Y-27695D02*
X55825Y-27695D01*
X56325Y-27695D02*
X56785Y-27695D01*
X57305Y-27695D02*
X57785Y-27695D01*
X58305Y-27695D02*
X58341Y-27695D01*
X58609Y-27695D02*
X58975Y-27695D01*
X51975Y-27775D02*
X52194Y-27775D01*
X53084Y-27775D02*
X55125Y-27775D01*
X55625Y-27775D02*
X55825Y-27775D01*
X56325Y-27775D02*
X56865Y-27775D01*
X57385Y-27775D02*
X57865Y-27775D01*
X58756Y-27775D02*
X58975Y-27775D01*
X51975Y-27855D02*
X52114Y-27855D01*
X53004Y-27855D02*
X55125Y-27855D01*
X55625Y-27855D02*
X55825Y-27855D01*
X56325Y-27855D02*
X56945Y-27855D01*
X57465Y-27855D02*
X57945Y-27855D01*
X58836Y-27855D02*
X58975Y-27855D01*
X51975Y-27935D02*
X52074Y-27935D01*
X52924Y-27935D02*
X55125Y-27935D01*
X55625Y-27935D02*
X55825Y-27935D01*
X56325Y-27935D02*
X57025Y-27935D01*
X57545Y-27935D02*
X58025Y-27935D01*
X58877Y-27935D02*
X58975Y-27935D01*
X51975Y-28015D02*
X52040Y-28015D01*
X52910Y-28015D02*
X55125Y-28015D01*
X55625Y-28015D02*
X55825Y-28015D01*
X56325Y-28015D02*
X57105Y-28015D01*
X57625Y-28015D02*
X58040Y-28015D01*
X58910Y-28015D02*
X58975Y-28015D01*
X51975Y-28095D02*
X52034Y-28095D01*
X52916Y-28095D02*
X55125Y-28095D01*
X55625Y-28095D02*
X55825Y-28095D01*
X56325Y-28095D02*
X57185Y-28095D01*
X57705Y-28095D02*
X58034Y-28095D01*
X58916Y-28095D02*
X58975Y-28095D01*
X51975Y-28175D02*
X52034Y-28175D01*
X52916Y-28175D02*
X55125Y-28175D01*
X55625Y-28175D02*
X55825Y-28175D01*
X56325Y-28175D02*
X57265Y-28175D01*
X57785Y-28175D02*
X58034Y-28175D01*
X58916Y-28175D02*
X58975Y-28175D01*
X51975Y-28255D02*
X52048Y-28255D01*
X52901Y-28255D02*
X55125Y-28255D01*
X55625Y-28255D02*
X55825Y-28255D01*
X56325Y-28255D02*
X57345Y-28255D01*
X57865Y-28255D02*
X58048Y-28255D01*
X58901Y-28255D02*
X58975Y-28255D01*
X51975Y-28335D02*
X52081Y-28335D01*
X52868Y-28335D02*
X55125Y-28335D01*
X55625Y-28335D02*
X55825Y-28335D01*
X56325Y-28335D02*
X57425Y-28335D01*
X57945Y-28335D02*
X58081Y-28335D01*
X58868Y-28335D02*
X58975Y-28335D01*
X51975Y-28415D02*
X52134Y-28415D01*
X52816Y-28415D02*
X55125Y-28415D01*
X55625Y-28415D02*
X55825Y-28415D01*
X56325Y-28415D02*
X57505Y-28415D01*
X58025Y-28415D02*
X58134Y-28415D01*
X58816Y-28415D02*
X58975Y-28415D01*
X51975Y-28495D02*
X52214Y-28495D01*
X52736Y-28495D02*
X55125Y-28495D01*
X55625Y-28495D02*
X55825Y-28495D01*
X56325Y-28495D02*
X57585Y-28495D01*
X58105Y-28495D02*
X58214Y-28495D01*
X58736Y-28495D02*
X58975Y-28495D01*
X51975Y-28575D02*
X55125Y-28575D01*
X55625Y-28575D02*
X55825Y-28575D01*
X56325Y-28575D02*
X57665Y-28575D01*
X58185Y-28575D02*
X58975Y-28575D01*
X51975Y-28655D02*
X55125Y-28655D01*
X55625Y-28655D02*
X55825Y-28655D01*
X56325Y-28655D02*
X57745Y-28655D01*
X58265Y-28655D02*
X58975Y-28655D01*
X51975Y-28735D02*
X52246Y-28735D01*
X52704Y-28735D02*
X55125Y-28735D01*
X55625Y-28735D02*
X55825Y-28735D01*
X56325Y-28735D02*
X57825Y-28735D01*
X58704Y-28735D02*
X58975Y-28735D01*
X51975Y-28815D02*
X52154Y-28815D01*
X52796Y-28815D02*
X55125Y-28815D01*
X55625Y-28815D02*
X55825Y-28815D01*
X56325Y-28815D02*
X57905Y-28815D01*
X58796Y-28815D02*
X58975Y-28815D01*
X51975Y-28895D02*
X52091Y-28895D01*
X52861Y-28895D02*
X55125Y-28895D01*
X55625Y-28895D02*
X55825Y-28895D01*
X56325Y-28895D02*
X57985Y-28895D01*
X58861Y-28895D02*
X58975Y-28895D01*
X51975Y-28975D02*
X52057Y-28975D01*
X52894Y-28975D02*
X55125Y-28975D01*
X55625Y-28975D02*
X55825Y-28975D01*
X56325Y-28975D02*
X58057Y-28975D01*
X58894Y-28975D02*
X58975Y-28975D01*
X51975Y-29055D02*
X52034Y-29055D01*
X52916Y-29055D02*
X55125Y-29055D01*
X55625Y-29055D02*
X55825Y-29055D01*
X56325Y-29055D02*
X58034Y-29055D01*
X58916Y-29055D02*
X58975Y-29055D01*
X51975Y-29135D02*
X52034Y-29135D01*
X52916Y-29135D02*
X55125Y-29135D01*
X55625Y-29135D02*
X55825Y-29135D01*
X56325Y-29135D02*
X58034Y-29135D01*
X58916Y-29135D02*
X58975Y-29135D01*
X51975Y-29215D02*
X52034Y-29215D01*
X52916Y-29215D02*
X55125Y-29215D01*
X55625Y-29215D02*
X55825Y-29215D01*
X56325Y-29215D02*
X58034Y-29215D01*
X58916Y-29215D02*
X58975Y-29215D01*
X51975Y-29295D02*
X52065Y-29295D01*
X52884Y-29295D02*
X55125Y-29295D01*
X55625Y-29295D02*
X55825Y-29295D01*
X56325Y-29295D02*
X58065Y-29295D01*
X58884Y-29295D02*
X58975Y-29295D01*
X51975Y-29375D02*
X52098Y-29375D01*
X52851Y-29375D02*
X55125Y-29375D01*
X55625Y-29375D02*
X55825Y-29375D01*
X56325Y-29375D02*
X58098Y-29375D01*
X58851Y-29375D02*
X58975Y-29375D01*
X51975Y-29455D02*
X52174Y-29455D01*
X52776Y-29455D02*
X55125Y-29455D01*
X55625Y-29455D02*
X55825Y-29455D01*
X56325Y-29455D02*
X58174Y-29455D01*
X58776Y-29455D02*
X58975Y-29455D01*
X51975Y-29535D02*
X52294Y-29535D01*
X52656Y-29535D02*
X55125Y-29535D01*
X55625Y-29535D02*
X55825Y-29535D01*
X56325Y-29535D02*
X58294Y-29535D01*
X58656Y-29535D02*
X58975Y-29535D01*
X51975Y-29615D02*
X55125Y-29615D01*
X55625Y-29615D02*
X55825Y-29615D01*
X56325Y-29615D02*
X58975Y-29615D01*
X51975Y-29695D02*
X52342Y-29695D01*
X52609Y-29695D02*
X55125Y-29695D01*
X55625Y-29695D02*
X55825Y-29695D01*
X56325Y-29695D02*
X58342Y-29695D01*
X58609Y-29695D02*
X58975Y-29695D01*
X51975Y-29775D02*
X52194Y-29775D01*
X52756Y-29775D02*
X55125Y-29775D01*
X55625Y-29775D02*
X55825Y-29775D01*
X56325Y-29775D02*
X58194Y-29775D01*
X58756Y-29775D02*
X58975Y-29775D01*
X51975Y-29855D02*
X52114Y-29855D01*
X52836Y-29855D02*
X55125Y-29855D01*
X55625Y-29855D02*
X55825Y-29855D01*
X56325Y-29855D02*
X58114Y-29855D01*
X58836Y-29855D02*
X58975Y-29855D01*
X51975Y-29935D02*
X52074Y-29935D01*
X52877Y-29935D02*
X55125Y-29935D01*
X55625Y-29935D02*
X55825Y-29935D01*
X56325Y-29935D02*
X58074Y-29935D01*
X58877Y-29935D02*
X58975Y-29935D01*
X51975Y-30015D02*
X52040Y-30015D01*
X52910Y-30015D02*
X55125Y-30015D01*
X55625Y-30015D02*
X55825Y-30015D01*
X56325Y-30015D02*
X58040Y-30015D01*
X58910Y-30015D02*
X58975Y-30015D01*
X51975Y-30095D02*
X52034Y-30095D01*
X52916Y-30095D02*
X55125Y-30095D01*
X55625Y-30095D02*
X55825Y-30095D01*
X56325Y-30095D02*
X58034Y-30095D01*
X58916Y-30095D02*
X58975Y-30095D01*
X51975Y-30175D02*
X52034Y-30175D01*
X52916Y-30175D02*
X55125Y-30175D01*
X55625Y-30175D02*
X55825Y-30175D01*
X56325Y-30175D02*
X58034Y-30175D01*
X58916Y-30175D02*
X58975Y-30175D01*
X51975Y-30255D02*
X52048Y-30255D01*
X52901Y-30255D02*
X55125Y-30255D01*
X55625Y-30255D02*
X55825Y-30255D01*
X56325Y-30255D02*
X58048Y-30255D01*
X58901Y-30255D02*
X58975Y-30255D01*
X51975Y-30335D02*
X52081Y-30335D01*
X52868Y-30335D02*
X55125Y-30335D01*
X55625Y-30335D02*
X55825Y-30335D01*
X56325Y-30335D02*
X58081Y-30335D01*
X58868Y-30335D02*
X58975Y-30335D01*
X51975Y-30415D02*
X52134Y-30415D01*
X52816Y-30415D02*
X55125Y-30415D01*
X55625Y-30415D02*
X55825Y-30415D01*
X56325Y-30415D02*
X58134Y-30415D01*
X58816Y-30415D02*
X58975Y-30415D01*
X51975Y-30495D02*
X52214Y-30495D01*
X52736Y-30495D02*
X55125Y-30495D01*
X55625Y-30495D02*
X55825Y-30495D01*
X56325Y-30495D02*
X58214Y-30495D01*
X58736Y-30495D02*
X58975Y-30495D01*
X51975Y-30575D02*
X55125Y-30575D01*
X55625Y-30575D02*
X55825Y-30575D01*
X56325Y-30575D02*
X58975Y-30575D01*
X51975Y-30655D02*
X55125Y-30655D01*
X55625Y-30655D02*
X55825Y-30655D01*
X56325Y-30655D02*
X58975Y-30655D01*
X51975Y-30735D02*
X52246Y-30735D01*
X52704Y-30735D02*
X55125Y-30735D01*
X55625Y-30735D02*
X55825Y-30735D01*
X56325Y-30735D02*
X58246Y-30735D01*
X58704Y-30735D02*
X58975Y-30735D01*
X51975Y-30815D02*
X52154Y-30815D01*
X52796Y-30815D02*
X55125Y-30815D01*
X55625Y-30815D02*
X55773Y-30815D01*
X56325Y-30815D02*
X58154Y-30815D01*
X58796Y-30815D02*
X58975Y-30815D01*
X51975Y-30895D02*
X52091Y-30895D01*
X52861Y-30895D02*
X55125Y-30895D01*
X55625Y-30895D02*
X55684Y-30895D01*
X56325Y-30895D02*
X58091Y-30895D01*
X58861Y-30895D02*
X58975Y-30895D01*
X51975Y-30975D02*
X52057Y-30975D01*
X52894Y-30975D02*
X55125Y-30975D01*
X55625Y-30975D02*
X55644Y-30975D01*
X56315Y-30975D02*
X58057Y-30975D01*
X58894Y-30975D02*
X58975Y-30975D01*
X51975Y-31055D02*
X52034Y-31055D01*
X52916Y-31055D02*
X55125Y-31055D01*
X55625Y-31055D02*
X55627Y-31055D01*
X56283Y-31055D02*
X58034Y-31055D01*
X58916Y-31055D02*
X58975Y-31055D01*
X51975Y-31135D02*
X52034Y-31135D01*
X52916Y-31135D02*
X55125Y-31135D01*
X55625Y-31135D02*
X55627Y-31135D01*
X56223Y-31135D02*
X58034Y-31135D01*
X58916Y-31135D02*
X58975Y-31135D01*
X51975Y-31215D02*
X52034Y-31215D01*
X52916Y-31215D02*
X55125Y-31215D01*
X55625Y-31215D02*
X55660Y-31215D01*
X56189Y-31215D02*
X58034Y-31215D01*
X58916Y-31215D02*
X58975Y-31215D01*
X51975Y-31295D02*
X52065Y-31295D01*
X52884Y-31295D02*
X55125Y-31295D01*
X55625Y-31295D02*
X55723Y-31295D01*
X56126Y-31295D02*
X58065Y-31295D01*
X58884Y-31295D02*
X58975Y-31295D01*
X51975Y-31375D02*
X52098Y-31375D01*
X52851Y-31375D02*
X55125Y-31375D01*
X55625Y-31375D02*
X58098Y-31375D01*
X58851Y-31375D02*
X58975Y-31375D01*
X51975Y-31455D02*
X52174Y-31455D01*
X52776Y-31455D02*
X55125Y-31455D01*
X55625Y-31455D02*
X58174Y-31455D01*
X58776Y-31455D02*
X58975Y-31455D01*
X51975Y-31535D02*
X52294Y-31535D01*
X52656Y-31535D02*
X55125Y-31535D01*
X55625Y-31535D02*
X57597Y-31535D01*
X57754Y-31535D02*
X58294Y-31535D01*
X58656Y-31535D02*
X58975Y-31535D01*
X51975Y-31615D02*
X55125Y-31615D01*
X55625Y-31615D02*
X57464Y-31615D01*
X57887Y-31615D02*
X58975Y-31615D01*
X51975Y-31695D02*
X52342Y-31695D01*
X52609Y-31695D02*
X55125Y-31695D01*
X55625Y-31695D02*
X57407Y-31695D01*
X57944Y-31695D02*
X58342Y-31695D01*
X58609Y-31695D02*
X58975Y-31695D01*
X51975Y-31775D02*
X52194Y-31775D01*
X52756Y-31775D02*
X55125Y-31775D01*
X55625Y-31775D02*
X57377Y-31775D01*
X57973Y-31775D02*
X58194Y-31775D01*
X58756Y-31775D02*
X58975Y-31775D01*
X51975Y-31855D02*
X52114Y-31855D01*
X52836Y-31855D02*
X55125Y-31855D01*
X55625Y-31855D02*
X57377Y-31855D01*
X57973Y-31855D02*
X58114Y-31855D01*
X58836Y-31855D02*
X58975Y-31855D01*
X51975Y-31935D02*
X52074Y-31935D01*
X52877Y-31935D02*
X55125Y-31935D01*
X55625Y-31935D02*
X57397Y-31935D01*
X57951Y-31935D02*
X58074Y-31935D01*
X58877Y-31935D02*
X58975Y-31935D01*
X51975Y-32015D02*
X52040Y-32015D01*
X52910Y-32015D02*
X55125Y-32015D01*
X55625Y-32015D02*
X57443Y-32015D01*
X57906Y-32015D02*
X58040Y-32015D01*
X58910Y-32015D02*
X58975Y-32015D01*
X51975Y-32095D02*
X52034Y-32095D01*
X52916Y-32095D02*
X55125Y-32095D01*
X55625Y-32095D02*
X57491Y-32095D01*
X57859Y-32095D02*
X58034Y-32095D01*
X58916Y-32095D02*
X58975Y-32095D01*
X51975Y-32175D02*
X52034Y-32175D01*
X52916Y-32175D02*
X55125Y-32175D01*
X55625Y-32175D02*
X57491Y-32175D01*
X57859Y-32175D02*
X58034Y-32175D01*
X58916Y-32175D02*
X58975Y-32175D01*
X51975Y-32255D02*
X52048Y-32255D01*
X52901Y-32255D02*
X55125Y-32255D01*
X55625Y-32255D02*
X57491Y-32255D01*
X57859Y-32255D02*
X58048Y-32255D01*
X58901Y-32255D02*
X58975Y-32255D01*
X51975Y-32335D02*
X52081Y-32335D01*
X52868Y-32335D02*
X55125Y-32335D01*
X55625Y-32335D02*
X57491Y-32335D01*
X57859Y-32335D02*
X58081Y-32335D01*
X58868Y-32335D02*
X58975Y-32335D01*
X51975Y-32415D02*
X52134Y-32415D01*
X52816Y-32415D02*
X55125Y-32415D01*
X55625Y-32415D02*
X57491Y-32415D01*
X57859Y-32415D02*
X58134Y-32415D01*
X58816Y-32415D02*
X58975Y-32415D01*
X51975Y-32495D02*
X52214Y-32495D01*
X52736Y-32495D02*
X55125Y-32495D01*
X55625Y-32495D02*
X57491Y-32495D01*
X57859Y-32495D02*
X58214Y-32495D01*
X58736Y-32495D02*
X58975Y-32495D01*
X51975Y-32575D02*
X55125Y-32575D01*
X55625Y-32575D02*
X57491Y-32575D01*
X57859Y-32575D02*
X58975Y-32575D01*
X51975Y-32655D02*
X52178Y-32655D01*
X52773Y-32655D02*
X55125Y-32655D01*
X55625Y-32655D02*
X57491Y-32655D01*
X57859Y-32655D02*
X58178Y-32655D01*
X58773Y-32655D02*
X58975Y-32655D01*
X51975Y-32735D02*
X52090Y-32735D01*
X52861Y-32735D02*
X55125Y-32735D01*
X55625Y-32735D02*
X57491Y-32735D01*
X57859Y-32735D02*
X58090Y-32735D01*
X58861Y-32735D02*
X58975Y-32735D01*
X51975Y-32815D02*
X52016Y-32815D01*
X52935Y-32815D02*
X55125Y-32815D01*
X55625Y-32815D02*
X57491Y-32815D01*
X57859Y-32815D02*
X58016Y-32815D01*
X58935Y-32815D02*
X58975Y-32815D01*
X51975Y-32895D02*
X51977Y-32895D01*
X52973Y-32895D02*
X55125Y-32895D01*
X55625Y-32895D02*
X57491Y-32895D01*
X57859Y-32895D02*
X57978Y-32895D01*
X58974Y-32895D02*
X58975Y-32895D01*
X53011Y-32975D02*
X55125Y-32975D01*
X55625Y-32975D02*
X57491Y-32975D01*
X57859Y-32975D02*
X57940Y-32975D01*
X52980Y-33055D02*
X53848Y-33055D01*
X54102Y-33055D02*
X55125Y-33055D01*
X55625Y-33055D02*
X57491Y-33055D01*
X57859Y-33055D02*
X57969Y-33055D01*
X52425Y-33135D02*
X53744Y-33135D01*
X54207Y-33135D02*
X55125Y-33135D01*
X55625Y-33135D02*
X57491Y-33135D01*
X57859Y-33135D02*
X58525Y-33135D01*
X52992Y-33215D02*
X53699Y-33215D01*
X54253Y-33215D02*
X55125Y-33215D01*
X55625Y-33215D02*
X57491Y-33215D01*
X57859Y-33215D02*
X57959Y-33215D01*
X53001Y-33295D02*
X53677Y-33295D01*
X54273Y-33295D02*
X55125Y-33295D01*
X55625Y-33295D02*
X57491Y-33295D01*
X57859Y-33295D02*
X57948Y-33295D01*
X51975Y-33375D02*
X51986Y-33375D01*
X52963Y-33375D02*
X53677Y-33375D01*
X54285Y-33375D02*
X55094Y-33375D01*
X55657Y-33375D02*
X57491Y-33375D01*
X57859Y-33375D02*
X57986Y-33375D01*
X58963Y-33375D02*
X58975Y-33375D01*
X51975Y-33455D02*
X52025Y-33455D01*
X52924Y-33455D02*
X53706Y-33455D01*
X54365Y-33455D02*
X55077Y-33455D01*
X55673Y-33455D02*
X57491Y-33455D01*
X57859Y-33455D02*
X58025Y-33455D01*
X58924Y-33455D02*
X58975Y-33455D01*
X51975Y-33535D02*
X52111Y-33535D01*
X52838Y-33535D02*
X53763Y-33535D01*
X54445Y-33535D02*
X55077Y-33535D01*
X55673Y-33535D02*
X57491Y-33535D01*
X57859Y-33535D02*
X58111Y-33535D01*
X58838Y-33535D02*
X58975Y-33535D01*
X51975Y-33615D02*
X52218Y-33615D01*
X52415Y-33615D02*
X52425Y-33615D01*
X52525Y-33615D02*
X52534Y-33615D01*
X52731Y-33615D02*
X53896Y-33615D01*
X54525Y-33615D02*
X55110Y-33615D01*
X55639Y-33615D02*
X57491Y-33615D01*
X57859Y-33615D02*
X58218Y-33615D01*
X58415Y-33615D02*
X58425Y-33615D01*
X58525Y-33615D02*
X58534Y-33615D01*
X58731Y-33615D02*
X58975Y-33615D01*
X51975Y-33695D02*
X52342Y-33695D01*
X52610Y-33695D02*
X54085Y-33695D01*
X54605Y-33695D02*
X55173Y-33695D01*
X55576Y-33695D02*
X57491Y-33695D01*
X57859Y-33695D02*
X58340Y-33695D01*
X58609Y-33695D02*
X58975Y-33695D01*
X51975Y-33775D02*
X52194Y-33775D01*
X52756Y-33775D02*
X54165Y-33775D01*
X54685Y-33775D02*
X57415Y-33775D01*
X57859Y-33775D02*
X58194Y-33775D01*
X58756Y-33775D02*
X58975Y-33775D01*
X51975Y-33855D02*
X52114Y-33855D01*
X52836Y-33855D02*
X54245Y-33855D01*
X54902Y-33855D02*
X57198Y-33855D01*
X57838Y-33855D02*
X58114Y-33855D01*
X58836Y-33855D02*
X58975Y-33855D01*
X51975Y-33935D02*
X52074Y-33935D01*
X52877Y-33935D02*
X54325Y-33935D01*
X55007Y-33935D02*
X57094Y-33935D01*
X57775Y-33935D02*
X58074Y-33935D01*
X58877Y-33935D02*
X58975Y-33935D01*
X51975Y-34015D02*
X52040Y-34015D01*
X52910Y-34015D02*
X54405Y-34015D01*
X55053Y-34015D02*
X57049Y-34015D01*
X57695Y-34015D02*
X58040Y-34015D01*
X58910Y-34015D02*
X58975Y-34015D01*
X51975Y-34095D02*
X52034Y-34095D01*
X52916Y-34095D02*
X54477Y-34095D01*
X55073Y-34095D02*
X57027Y-34095D01*
X57623Y-34095D02*
X58034Y-34095D01*
X58916Y-34095D02*
X58975Y-34095D01*
X51975Y-34175D02*
X52034Y-34175D01*
X52916Y-34175D02*
X54477Y-34175D01*
X55073Y-34175D02*
X57027Y-34175D01*
X57623Y-34175D02*
X58034Y-34175D01*
X58916Y-34175D02*
X58975Y-34175D01*
X51975Y-34255D02*
X52048Y-34255D01*
X52901Y-34255D02*
X54506Y-34255D01*
X55043Y-34255D02*
X57056Y-34255D01*
X57593Y-34255D02*
X58048Y-34255D01*
X58901Y-34255D02*
X58975Y-34255D01*
X51975Y-34335D02*
X52081Y-34335D01*
X52868Y-34335D02*
X54563Y-34335D01*
X54986Y-34335D02*
X57113Y-34335D01*
X57536Y-34335D02*
X58081Y-34335D01*
X58868Y-34335D02*
X58975Y-34335D01*
X51975Y-34415D02*
X52134Y-34415D01*
X52816Y-34415D02*
X54696Y-34415D01*
X54853Y-34415D02*
X57246Y-34415D01*
X57403Y-34415D02*
X58134Y-34415D01*
X58816Y-34415D02*
X58975Y-34415D01*
X51975Y-34495D02*
X52214Y-34495D01*
X52736Y-34495D02*
X58214Y-34495D01*
X58736Y-34495D02*
X58975Y-34495D01*
X51975Y-34575D02*
X58975Y-34575D01*
X58975Y-34625D02*
X58975Y-33350D01*
X58923Y-33459D01*
X58761Y-33605D01*
X58610Y-33657D01*
X58525Y-33610D01*
X58525Y-33625D01*
X58425Y-33625D01*
X58425Y-33610D01*
X58387Y-33631D01*
X58340Y-33657D01*
X58189Y-33605D01*
X58027Y-33459D01*
X57933Y-33262D01*
X57980Y-33175D01*
X58387Y-33175D01*
X58425Y-33175D01*
X58525Y-33175D01*
X58525Y-33075D01*
X58425Y-33075D01*
X58387Y-33075D01*
X57980Y-33075D01*
X57933Y-32988D01*
X58027Y-32791D01*
X58189Y-32645D01*
X58340Y-32593D01*
X58387Y-32618D01*
X58387Y-32574D01*
X58225Y-32506D01*
X58101Y-32382D01*
X58034Y-32220D01*
X58034Y-32029D01*
X58102Y-31867D01*
X58226Y-31743D01*
X58387Y-31676D01*
X58387Y-31574D01*
X58225Y-31506D01*
X58101Y-31382D01*
X58034Y-31220D01*
X58034Y-31029D01*
X58102Y-30867D01*
X58226Y-30743D01*
X58387Y-30676D01*
X58387Y-30574D01*
X58225Y-30506D01*
X58101Y-30382D01*
X58034Y-30220D01*
X58034Y-30029D01*
X58102Y-29867D01*
X58226Y-29743D01*
X58387Y-29676D01*
X58387Y-29574D01*
X58225Y-29506D01*
X58101Y-29382D01*
X58034Y-29220D01*
X58034Y-29029D01*
X58059Y-28969D01*
X56445Y-27355D01*
X56405Y-27296D01*
X56391Y-27225D01*
X56391Y-22870D01*
X56377Y-22834D01*
X56377Y-22715D01*
X56423Y-22606D01*
X56506Y-22522D01*
X56616Y-22477D01*
X56735Y-22477D01*
X56844Y-22523D01*
X56928Y-22606D01*
X56973Y-22716D01*
X56973Y-22805D01*
X57006Y-22772D01*
X57116Y-22727D01*
X57235Y-22727D01*
X57344Y-22773D01*
X57428Y-22856D01*
X57473Y-22966D01*
X57473Y-23085D01*
X57427Y-23194D01*
X57344Y-23278D01*
X57338Y-23280D01*
X57373Y-23366D01*
X57373Y-23485D01*
X57362Y-23509D01*
X57394Y-23523D01*
X57478Y-23606D01*
X57523Y-23716D01*
X57523Y-23835D01*
X57477Y-23944D01*
X57409Y-24012D01*
X57409Y-24799D01*
X57838Y-25228D01*
X58315Y-25705D01*
X58387Y-25676D01*
X58387Y-25574D01*
X58225Y-25506D01*
X58101Y-25382D01*
X58034Y-25220D01*
X58034Y-25029D01*
X58102Y-24867D01*
X58226Y-24743D01*
X58387Y-24676D01*
X58387Y-24574D01*
X58225Y-24506D01*
X58101Y-24382D01*
X58034Y-24220D01*
X58034Y-24029D01*
X58102Y-23867D01*
X58226Y-23743D01*
X58387Y-23676D01*
X58387Y-23574D01*
X58225Y-23506D01*
X58101Y-23382D01*
X58034Y-23220D01*
X58034Y-23029D01*
X58102Y-22867D01*
X58226Y-22743D01*
X58387Y-22676D01*
X58387Y-22574D01*
X58225Y-22506D01*
X58101Y-22382D01*
X58034Y-22220D01*
X58034Y-22029D01*
X58102Y-21867D01*
X58226Y-21743D01*
X58387Y-21676D01*
X58387Y-21574D01*
X58225Y-21506D01*
X58101Y-21382D01*
X58034Y-21220D01*
X58034Y-21029D01*
X58102Y-20867D01*
X58226Y-20743D01*
X58387Y-20676D01*
X58387Y-20574D01*
X58225Y-20506D01*
X58101Y-20382D01*
X58034Y-20220D01*
X58034Y-20029D01*
X58102Y-19867D01*
X58226Y-19743D01*
X58387Y-19676D01*
X58387Y-19574D01*
X58225Y-19506D01*
X58101Y-19382D01*
X58034Y-19220D01*
X58034Y-19029D01*
X58102Y-18867D01*
X58226Y-18743D01*
X58387Y-18676D01*
X58387Y-18574D01*
X58225Y-18506D01*
X58101Y-18382D01*
X58034Y-18220D01*
X58034Y-18029D01*
X58102Y-17867D01*
X58226Y-17743D01*
X58387Y-17676D01*
X58387Y-17574D01*
X58225Y-17506D01*
X58101Y-17382D01*
X58034Y-17220D01*
X58034Y-17029D01*
X58102Y-16867D01*
X58226Y-16743D01*
X58387Y-16676D01*
X58387Y-16574D01*
X58225Y-16506D01*
X58101Y-16382D01*
X58034Y-16220D01*
X58034Y-16029D01*
X58102Y-15867D01*
X58226Y-15743D01*
X58340Y-15695D01*
X58388Y-15676D01*
X58563Y-15676D01*
X58725Y-15744D01*
X58849Y-15868D01*
X58916Y-16030D01*
X58916Y-16221D01*
X58848Y-16383D01*
X58724Y-16507D01*
X58562Y-16574D01*
X58387Y-16574D01*
X58387Y-16676D01*
X58563Y-16676D01*
X58725Y-16744D01*
X58849Y-16868D01*
X58916Y-17030D01*
X58916Y-17221D01*
X58848Y-17383D01*
X58724Y-17507D01*
X58562Y-17574D01*
X58387Y-17574D01*
X58387Y-17676D01*
X58563Y-17676D01*
X58725Y-17744D01*
X58849Y-17868D01*
X58916Y-18030D01*
X58916Y-18221D01*
X58848Y-18383D01*
X58724Y-18507D01*
X58562Y-18574D01*
X58387Y-18574D01*
X58387Y-18676D01*
X58563Y-18676D01*
X58725Y-18744D01*
X58849Y-18868D01*
X58916Y-19030D01*
X58916Y-19221D01*
X58848Y-19383D01*
X58724Y-19507D01*
X58562Y-19574D01*
X58387Y-19574D01*
X58387Y-19676D01*
X58563Y-19676D01*
X58725Y-19744D01*
X58849Y-19868D01*
X58916Y-20030D01*
X58916Y-20221D01*
X58848Y-20383D01*
X58724Y-20507D01*
X58562Y-20574D01*
X58387Y-20574D01*
X58387Y-20676D01*
X58563Y-20676D01*
X58725Y-20744D01*
X58849Y-20868D01*
X58916Y-21030D01*
X58916Y-21221D01*
X58848Y-21383D01*
X58724Y-21507D01*
X58562Y-21574D01*
X58387Y-21574D01*
X58387Y-21676D01*
X58563Y-21676D01*
X58725Y-21744D01*
X58849Y-21868D01*
X58916Y-22030D01*
X58916Y-22221D01*
X58848Y-22383D01*
X58724Y-22507D01*
X58562Y-22574D01*
X58387Y-22574D01*
X58387Y-22676D01*
X58563Y-22676D01*
X58725Y-22744D01*
X58849Y-22868D01*
X58916Y-23030D01*
X58916Y-23221D01*
X58848Y-23383D01*
X58724Y-23507D01*
X58562Y-23574D01*
X58387Y-23574D01*
X58387Y-23676D01*
X58563Y-23676D01*
X58725Y-23744D01*
X58849Y-23868D01*
X58916Y-24030D01*
X58916Y-24221D01*
X58848Y-24383D01*
X58724Y-24507D01*
X58562Y-24574D01*
X58387Y-24574D01*
X58387Y-24676D01*
X58563Y-24676D01*
X58725Y-24744D01*
X58849Y-24868D01*
X58916Y-25030D01*
X58916Y-25221D01*
X58848Y-25383D01*
X58724Y-25507D01*
X58562Y-25574D01*
X58387Y-25574D01*
X58387Y-25676D01*
X58563Y-25676D01*
X58725Y-25744D01*
X58849Y-25868D01*
X58916Y-26030D01*
X58916Y-26221D01*
X58848Y-26383D01*
X58724Y-26507D01*
X58562Y-26574D01*
X58387Y-26574D01*
X58225Y-26506D01*
X58101Y-26382D01*
X58034Y-26220D01*
X58034Y-26029D01*
X58059Y-25969D01*
X57109Y-25019D01*
X57109Y-25499D01*
X58315Y-26705D01*
X58388Y-26676D01*
X58563Y-26676D01*
X58725Y-26744D01*
X58849Y-26868D01*
X58916Y-27030D01*
X58916Y-27221D01*
X58848Y-27383D01*
X58724Y-27507D01*
X58562Y-27574D01*
X58387Y-27574D01*
X58225Y-27506D01*
X58101Y-27382D01*
X58034Y-27220D01*
X58034Y-27029D01*
X58059Y-26969D01*
X56959Y-25869D01*
X56959Y-26349D01*
X58315Y-27705D01*
X58388Y-27676D01*
X58563Y-27676D01*
X58725Y-27744D01*
X58849Y-27868D01*
X58916Y-28030D01*
X58916Y-28221D01*
X58848Y-28383D01*
X58724Y-28507D01*
X58562Y-28574D01*
X58387Y-28574D01*
X58225Y-28506D01*
X58101Y-28382D01*
X58034Y-28220D01*
X58034Y-28029D01*
X58059Y-27969D01*
X56759Y-26669D01*
X56759Y-27149D01*
X58315Y-28705D01*
X58388Y-28676D01*
X58563Y-28676D01*
X58725Y-28744D01*
X58849Y-28868D01*
X58916Y-29030D01*
X58916Y-29221D01*
X58848Y-29383D01*
X58724Y-29507D01*
X58562Y-29574D01*
X58387Y-29574D01*
X58387Y-29676D01*
X58563Y-29676D01*
X58725Y-29744D01*
X58849Y-29868D01*
X58916Y-30030D01*
X58916Y-30221D01*
X58848Y-30383D01*
X58724Y-30507D01*
X58562Y-30574D01*
X58387Y-30574D01*
X58387Y-30676D01*
X58563Y-30676D01*
X58725Y-30744D01*
X58849Y-30868D01*
X58916Y-31030D01*
X58916Y-31221D01*
X58848Y-31383D01*
X58724Y-31507D01*
X58562Y-31574D01*
X58387Y-31574D01*
X58387Y-31676D01*
X58563Y-31676D01*
X58725Y-31744D01*
X58849Y-31868D01*
X58916Y-32030D01*
X58916Y-32221D01*
X58848Y-32383D01*
X58724Y-32507D01*
X58562Y-32574D01*
X58387Y-32574D01*
X58387Y-32618D01*
X58425Y-32640D01*
X58425Y-32625D01*
X58525Y-32625D01*
X58525Y-32640D01*
X58610Y-32593D01*
X58761Y-32645D01*
X58923Y-32791D01*
X58975Y-32899D01*
X58975Y-15350D01*
X58923Y-15459D01*
X58761Y-15605D01*
X58610Y-15657D01*
X58525Y-15610D01*
X58525Y-15625D01*
X58425Y-15625D01*
X58425Y-15610D01*
X58340Y-15657D01*
X58189Y-15605D01*
X58027Y-15459D01*
X57933Y-15262D01*
X57980Y-15175D01*
X57980Y-15075D01*
X57933Y-14988D01*
X58027Y-14791D01*
X58112Y-14714D01*
X58112Y-14417D01*
X58025Y-14370D01*
X58025Y-13925D01*
X58460Y-13925D01*
X58507Y-14010D01*
X58455Y-14161D01*
X58309Y-14323D01*
X58112Y-14417D01*
X58112Y-14714D01*
X58189Y-14645D01*
X58340Y-14593D01*
X58425Y-14640D01*
X58425Y-15075D01*
X57980Y-15075D01*
X57980Y-15175D01*
X58425Y-15175D01*
X58525Y-15175D01*
X58525Y-15075D01*
X58525Y-14640D01*
X58610Y-14593D01*
X58761Y-14645D01*
X58923Y-14791D01*
X58975Y-14899D01*
X58975Y-13375D01*
X58200Y-13375D01*
X58309Y-13427D01*
X58455Y-13589D01*
X58507Y-13740D01*
X58460Y-13825D01*
X58025Y-13825D01*
X57925Y-13825D01*
X57925Y-13925D01*
X57925Y-14370D01*
X57838Y-14417D01*
X57641Y-14323D01*
X57495Y-14161D01*
X57443Y-14010D01*
X57490Y-13925D01*
X57475Y-13925D01*
X57475Y-13825D01*
X57490Y-13825D01*
X57443Y-13740D01*
X57495Y-13589D01*
X57641Y-13427D01*
X57749Y-13375D01*
X51975Y-13375D01*
X51975Y-14899D01*
X52027Y-14791D01*
X52189Y-14645D01*
X52340Y-14593D01*
X52425Y-14640D01*
X52425Y-15075D01*
X52425Y-15175D01*
X52525Y-15175D01*
X52525Y-15075D01*
X52525Y-14640D01*
X52610Y-14593D01*
X52761Y-14645D01*
X52923Y-14791D01*
X53017Y-14988D01*
X52970Y-15075D01*
X52525Y-15075D01*
X52525Y-15175D01*
X52970Y-15175D01*
X53017Y-15262D01*
X52923Y-15459D01*
X52761Y-15605D01*
X52610Y-15657D01*
X52525Y-15610D01*
X52525Y-15625D01*
X52425Y-15625D01*
X52425Y-15610D01*
X52340Y-15657D01*
X52189Y-15605D01*
X52027Y-15459D01*
X51975Y-15350D01*
X51975Y-32899D01*
X52027Y-32791D01*
X52189Y-32645D01*
X52340Y-32593D01*
X52387Y-32618D01*
X52387Y-32574D01*
X52225Y-32506D01*
X52101Y-32382D01*
X52034Y-32220D01*
X52034Y-32029D01*
X52102Y-31867D01*
X52226Y-31743D01*
X52387Y-31676D01*
X52387Y-31574D01*
X52225Y-31506D01*
X52101Y-31382D01*
X52034Y-31220D01*
X52034Y-31029D01*
X52102Y-30867D01*
X52226Y-30743D01*
X52387Y-30676D01*
X52387Y-30574D01*
X52225Y-30506D01*
X52101Y-30382D01*
X52034Y-30220D01*
X52034Y-30029D01*
X52102Y-29867D01*
X52226Y-29743D01*
X52387Y-29676D01*
X52387Y-29574D01*
X52225Y-29506D01*
X52101Y-29382D01*
X52034Y-29220D01*
X52034Y-29029D01*
X52102Y-28867D01*
X52226Y-28743D01*
X52387Y-28676D01*
X52387Y-28574D01*
X52225Y-28506D01*
X52101Y-28382D01*
X52034Y-28220D01*
X52034Y-28029D01*
X52102Y-27867D01*
X52226Y-27743D01*
X52388Y-27676D01*
X52563Y-27676D01*
X52634Y-27705D01*
X53991Y-26349D01*
X53991Y-24779D01*
X53884Y-24823D01*
X53787Y-24823D01*
X53309Y-25301D01*
X53309Y-26475D01*
X53295Y-26546D01*
X53255Y-26605D01*
X52890Y-26969D01*
X52916Y-27030D01*
X52916Y-27221D01*
X52848Y-27383D01*
X52724Y-27507D01*
X52562Y-27574D01*
X52387Y-27574D01*
X52225Y-27506D01*
X52101Y-27382D01*
X52034Y-27220D01*
X52034Y-27029D01*
X52102Y-26867D01*
X52226Y-26743D01*
X52387Y-26676D01*
X52387Y-26574D01*
X52225Y-26506D01*
X52101Y-26382D01*
X52034Y-26220D01*
X52034Y-26029D01*
X52102Y-25867D01*
X52226Y-25743D01*
X52387Y-25676D01*
X52387Y-25574D01*
X52225Y-25506D01*
X52101Y-25382D01*
X52034Y-25220D01*
X52034Y-25029D01*
X52102Y-24867D01*
X52226Y-24743D01*
X52387Y-24676D01*
X52387Y-24574D01*
X52225Y-24506D01*
X52101Y-24382D01*
X52034Y-24220D01*
X52034Y-24029D01*
X52102Y-23867D01*
X52226Y-23743D01*
X52387Y-23676D01*
X52387Y-23574D01*
X52225Y-23506D01*
X52101Y-23382D01*
X52034Y-23220D01*
X52034Y-23029D01*
X52102Y-22867D01*
X52226Y-22743D01*
X52387Y-22676D01*
X52387Y-22574D01*
X52225Y-22506D01*
X52101Y-22382D01*
X52034Y-22220D01*
X52034Y-22029D01*
X52102Y-21867D01*
X52226Y-21743D01*
X52387Y-21676D01*
X52387Y-21574D01*
X52225Y-21506D01*
X52101Y-21382D01*
X52034Y-21220D01*
X52034Y-21029D01*
X52102Y-20867D01*
X52226Y-20743D01*
X52387Y-20676D01*
X52387Y-20574D01*
X52225Y-20506D01*
X52101Y-20382D01*
X52034Y-20220D01*
X52034Y-20029D01*
X52102Y-19867D01*
X52226Y-19743D01*
X52388Y-19676D01*
X52563Y-19676D01*
X52725Y-19744D01*
X52849Y-19868D01*
X52916Y-20030D01*
X52916Y-20221D01*
X52848Y-20383D01*
X52724Y-20507D01*
X52562Y-20574D01*
X52387Y-20574D01*
X52387Y-20676D01*
X52563Y-20676D01*
X52725Y-20744D01*
X52849Y-20868D01*
X52916Y-21030D01*
X52916Y-21221D01*
X52848Y-21383D01*
X52724Y-21507D01*
X52562Y-21574D01*
X52387Y-21574D01*
X52387Y-21676D01*
X52563Y-21676D01*
X52725Y-21744D01*
X52849Y-21868D01*
X52916Y-22030D01*
X52916Y-22221D01*
X52848Y-22383D01*
X52724Y-22507D01*
X52562Y-22574D01*
X52387Y-22574D01*
X52387Y-22676D01*
X52563Y-22676D01*
X52725Y-22744D01*
X52849Y-22868D01*
X52916Y-23030D01*
X52916Y-23221D01*
X52848Y-23383D01*
X52724Y-23507D01*
X52562Y-23574D01*
X52387Y-23574D01*
X52387Y-23676D01*
X52563Y-23676D01*
X52725Y-23744D01*
X52849Y-23868D01*
X52916Y-24030D01*
X52916Y-24221D01*
X52848Y-24383D01*
X52724Y-24507D01*
X52562Y-24574D01*
X52387Y-24574D01*
X52387Y-24676D01*
X52563Y-24676D01*
X52725Y-24744D01*
X52849Y-24868D01*
X52916Y-25030D01*
X52916Y-25221D01*
X52848Y-25383D01*
X52724Y-25507D01*
X52562Y-25574D01*
X52387Y-25574D01*
X52387Y-25676D01*
X52563Y-25676D01*
X52725Y-25744D01*
X52849Y-25868D01*
X52916Y-26030D01*
X52916Y-26221D01*
X52848Y-26383D01*
X52724Y-26507D01*
X52562Y-26574D01*
X52387Y-26574D01*
X52387Y-26676D01*
X52563Y-26676D01*
X52634Y-26705D01*
X52941Y-26399D01*
X52941Y-25225D01*
X52955Y-25154D01*
X52995Y-25095D01*
X53527Y-24563D01*
X53527Y-24465D01*
X53573Y-24356D01*
X53656Y-24272D01*
X53687Y-24259D01*
X53672Y-24244D01*
X53627Y-24134D01*
X53627Y-24015D01*
X53673Y-23906D01*
X53756Y-23822D01*
X53866Y-23777D01*
X53985Y-23777D01*
X54094Y-23823D01*
X54163Y-23891D01*
X54163Y-23450D01*
X54099Y-23449D01*
X54000Y-23449D01*
X53909Y-23411D01*
X53839Y-23341D01*
X53801Y-23249D01*
X53800Y-23187D01*
X53862Y-23125D01*
X54225Y-23125D01*
X54225Y-23388D01*
X54163Y-23450D01*
X54163Y-23891D01*
X54178Y-23906D01*
X54223Y-24016D01*
X54223Y-24113D01*
X54305Y-24195D01*
X54345Y-24255D01*
X54359Y-24325D01*
X54359Y-26425D01*
X54345Y-26496D01*
X54305Y-26555D01*
X52890Y-27969D01*
X52916Y-28030D01*
X52916Y-28221D01*
X52848Y-28383D01*
X52724Y-28507D01*
X52562Y-28574D01*
X52387Y-28574D01*
X52387Y-28676D01*
X52563Y-28676D01*
X52725Y-28744D01*
X52849Y-28868D01*
X52916Y-29030D01*
X52916Y-29221D01*
X52848Y-29383D01*
X52724Y-29507D01*
X52562Y-29574D01*
X52387Y-29574D01*
X52387Y-29676D01*
X52563Y-29676D01*
X52725Y-29744D01*
X52849Y-29868D01*
X52916Y-30030D01*
X52916Y-30221D01*
X52848Y-30383D01*
X52724Y-30507D01*
X52562Y-30574D01*
X52387Y-30574D01*
X52387Y-30676D01*
X52563Y-30676D01*
X52725Y-30744D01*
X52849Y-30868D01*
X52916Y-31030D01*
X52916Y-31221D01*
X52848Y-31383D01*
X52724Y-31507D01*
X52562Y-31574D01*
X52387Y-31574D01*
X52387Y-31676D01*
X52563Y-31676D01*
X52725Y-31744D01*
X52849Y-31868D01*
X52916Y-32030D01*
X52916Y-32221D01*
X52848Y-32383D01*
X52724Y-32507D01*
X52562Y-32574D01*
X52387Y-32574D01*
X52387Y-32618D01*
X52425Y-32640D01*
X52425Y-32625D01*
X52525Y-32625D01*
X52525Y-32640D01*
X52610Y-32593D01*
X52761Y-32645D01*
X52923Y-32791D01*
X53017Y-32988D01*
X52970Y-33075D01*
X52525Y-33075D01*
X52425Y-33075D01*
X52425Y-33175D01*
X52525Y-33175D01*
X52970Y-33175D01*
X53017Y-33262D01*
X52923Y-33459D01*
X52761Y-33605D01*
X52610Y-33657D01*
X52525Y-33610D01*
X52525Y-33625D01*
X52425Y-33625D01*
X52425Y-33610D01*
X52387Y-33631D01*
X52340Y-33657D01*
X52189Y-33605D01*
X52027Y-33459D01*
X51975Y-33350D01*
X51975Y-34625D01*
X52387Y-34625D01*
X52387Y-34574D01*
X52225Y-34506D01*
X52101Y-34382D01*
X52034Y-34220D01*
X52034Y-34029D01*
X52102Y-33867D01*
X52226Y-33743D01*
X52387Y-33676D01*
X52563Y-33676D01*
X52610Y-33695D01*
X52725Y-33744D01*
X52849Y-33868D01*
X52916Y-34030D01*
X52916Y-34221D01*
X52848Y-34383D01*
X52724Y-34507D01*
X52562Y-34574D01*
X52387Y-34574D01*
X52387Y-34625D01*
X54715Y-34625D01*
X54715Y-34423D01*
X54606Y-34377D01*
X54522Y-34294D01*
X54477Y-34184D01*
X54477Y-34087D01*
X54013Y-33623D01*
X53915Y-33623D01*
X53806Y-33577D01*
X53722Y-33494D01*
X53677Y-33384D01*
X53677Y-33265D01*
X53723Y-33156D01*
X53806Y-33072D01*
X53916Y-33027D01*
X54035Y-33027D01*
X54144Y-33073D01*
X54228Y-33156D01*
X54273Y-33266D01*
X54273Y-33363D01*
X54737Y-33827D01*
X54763Y-33827D01*
X54835Y-33827D01*
X54944Y-33873D01*
X55028Y-33956D01*
X55073Y-34066D01*
X55073Y-34185D01*
X55027Y-34294D01*
X54944Y-34378D01*
X54834Y-34423D01*
X54715Y-34423D01*
X54715Y-34625D01*
X55315Y-34625D01*
X55315Y-33773D01*
X55206Y-33727D01*
X55122Y-33644D01*
X55077Y-33534D01*
X55077Y-33415D01*
X55123Y-33306D01*
X55125Y-33303D01*
X55125Y-24556D01*
X55072Y-24504D01*
X55027Y-24394D01*
X55027Y-24275D01*
X55073Y-24166D01*
X55125Y-24113D01*
X55125Y-23574D01*
X55101Y-23574D01*
X54987Y-23575D01*
X54925Y-23513D01*
X54925Y-23200D01*
X54925Y-23100D01*
X54825Y-23100D01*
X54825Y-23200D01*
X54825Y-23513D01*
X54763Y-23575D01*
X54649Y-23574D01*
X54550Y-23574D01*
X54459Y-23536D01*
X54389Y-23466D01*
X54379Y-23442D01*
X54325Y-23388D01*
X54325Y-23125D01*
X54325Y-23025D01*
X54225Y-23025D01*
X53862Y-23025D01*
X53829Y-22992D01*
X53794Y-23028D01*
X53684Y-23073D01*
X53565Y-23073D01*
X53456Y-23027D01*
X53372Y-22944D01*
X53327Y-22834D01*
X53327Y-22737D01*
X52995Y-22405D01*
X52955Y-22346D01*
X52941Y-22275D01*
X52941Y-19851D01*
X52634Y-19544D01*
X52562Y-19574D01*
X52387Y-19574D01*
X52225Y-19506D01*
X52101Y-19382D01*
X52034Y-19220D01*
X52034Y-19029D01*
X52102Y-18867D01*
X52226Y-18743D01*
X52387Y-18676D01*
X52387Y-18574D01*
X52225Y-18506D01*
X52101Y-18382D01*
X52034Y-18220D01*
X52034Y-18029D01*
X52102Y-17867D01*
X52226Y-17743D01*
X52387Y-17676D01*
X52387Y-17574D01*
X52225Y-17506D01*
X52101Y-17382D01*
X52034Y-17220D01*
X52034Y-17029D01*
X52102Y-16867D01*
X52226Y-16743D01*
X52387Y-16676D01*
X52387Y-16574D01*
X52225Y-16506D01*
X52101Y-16382D01*
X52034Y-16220D01*
X52034Y-16029D01*
X52102Y-15867D01*
X52226Y-15743D01*
X52388Y-15676D01*
X52563Y-15676D01*
X52610Y-15695D01*
X52725Y-15744D01*
X52849Y-15868D01*
X52916Y-16030D01*
X52916Y-16221D01*
X52848Y-16383D01*
X52724Y-16507D01*
X52562Y-16574D01*
X52387Y-16574D01*
X52387Y-16676D01*
X52563Y-16676D01*
X52725Y-16744D01*
X52849Y-16868D01*
X52916Y-17030D01*
X52916Y-17221D01*
X52848Y-17383D01*
X52724Y-17507D01*
X52562Y-17574D01*
X52387Y-17574D01*
X52387Y-17676D01*
X52563Y-17676D01*
X52725Y-17744D01*
X52849Y-17868D01*
X52916Y-18030D01*
X52916Y-18221D01*
X52848Y-18383D01*
X52724Y-18507D01*
X52562Y-18574D01*
X52387Y-18574D01*
X52387Y-18676D01*
X52563Y-18676D01*
X52725Y-18744D01*
X52849Y-18868D01*
X52916Y-19030D01*
X52916Y-19221D01*
X52890Y-19280D01*
X53255Y-19645D01*
X53295Y-19704D01*
X53309Y-19775D01*
X53309Y-22199D01*
X53477Y-22367D01*
X53477Y-22265D01*
X53523Y-22156D01*
X53606Y-22072D01*
X53611Y-22069D01*
X53577Y-21984D01*
X53577Y-21865D01*
X53623Y-21756D01*
X53706Y-21672D01*
X53816Y-21627D01*
X53935Y-21627D01*
X53946Y-21631D01*
X53927Y-21584D01*
X53927Y-21465D01*
X53973Y-21356D01*
X54056Y-21272D01*
X54166Y-21227D01*
X54262Y-21227D01*
X54791Y-20698D01*
X54791Y-19960D01*
X54777Y-19994D01*
X54694Y-20078D01*
X54584Y-20123D01*
X54523Y-20123D01*
X54523Y-20235D01*
X54477Y-20344D01*
X54394Y-20428D01*
X54284Y-20473D01*
X54165Y-20473D01*
X54056Y-20427D01*
X53972Y-20344D01*
X53927Y-20234D01*
X53927Y-20115D01*
X53973Y-20006D01*
X54041Y-19937D01*
X54041Y-15601D01*
X52845Y-14405D01*
X52805Y-14346D01*
X52791Y-14279D01*
X52717Y-14248D01*
X52593Y-14124D01*
X52526Y-13962D01*
X52526Y-13787D01*
X52594Y-13625D01*
X52718Y-13501D01*
X52880Y-13434D01*
X53071Y-13434D01*
X53233Y-13502D01*
X53357Y-13626D01*
X53424Y-13788D01*
X53424Y-13963D01*
X53356Y-14125D01*
X53232Y-14249D01*
X53215Y-14255D01*
X54341Y-15380D01*
X54341Y-14901D01*
X53845Y-14405D01*
X53805Y-14346D01*
X53791Y-14279D01*
X53717Y-14248D01*
X53593Y-14124D01*
X53526Y-13962D01*
X53526Y-13787D01*
X53594Y-13625D01*
X53718Y-13501D01*
X53880Y-13434D01*
X54071Y-13434D01*
X54233Y-13502D01*
X54357Y-13626D01*
X54424Y-13788D01*
X54424Y-13963D01*
X54356Y-14125D01*
X54232Y-14249D01*
X54215Y-14255D01*
X54655Y-14694D01*
X54680Y-14734D01*
X54695Y-14755D01*
X54709Y-14825D01*
X54709Y-19587D01*
X54778Y-19656D01*
X54791Y-19687D01*
X54791Y-14279D01*
X54717Y-14248D01*
X54593Y-14124D01*
X54526Y-13962D01*
X54526Y-13787D01*
X54594Y-13625D01*
X54718Y-13501D01*
X54880Y-13434D01*
X55071Y-13434D01*
X55233Y-13502D01*
X55357Y-13626D01*
X55424Y-13788D01*
X55424Y-13963D01*
X55356Y-14125D01*
X55232Y-14249D01*
X55159Y-14279D01*
X55159Y-20775D01*
X55145Y-20845D01*
X55131Y-20865D01*
X55105Y-20906D01*
X54523Y-21487D01*
X54523Y-21585D01*
X54477Y-21694D01*
X54430Y-21741D01*
X55048Y-21740D01*
X55491Y-21298D01*
X55491Y-14175D01*
X55505Y-14104D01*
X55545Y-14045D01*
X55555Y-14034D01*
X55526Y-13962D01*
X55526Y-13787D01*
X55594Y-13625D01*
X55718Y-13501D01*
X55880Y-13434D01*
X56071Y-13434D01*
X56233Y-13502D01*
X56357Y-13626D01*
X56424Y-13788D01*
X56424Y-13963D01*
X56356Y-14125D01*
X56232Y-14249D01*
X56070Y-14316D01*
X55879Y-14316D01*
X55859Y-14307D01*
X55859Y-20056D01*
X55898Y-19998D01*
X56725Y-19171D01*
X56725Y-14251D01*
X56717Y-14248D01*
X56593Y-14124D01*
X56526Y-13962D01*
X56526Y-13787D01*
X56594Y-13625D01*
X56718Y-13501D01*
X56880Y-13434D01*
X57071Y-13434D01*
X57233Y-13502D01*
X57357Y-13626D01*
X57424Y-13788D01*
X57424Y-13963D01*
X57356Y-14125D01*
X57232Y-14249D01*
X57225Y-14251D01*
X57225Y-19275D01*
X57224Y-19275D01*
X57225Y-19276D01*
X57206Y-19371D01*
X57152Y-19452D01*
X57149Y-19453D01*
X56325Y-20278D01*
X56325Y-30925D01*
X56306Y-31021D01*
X56252Y-31102D01*
X56223Y-31131D01*
X56223Y-31135D01*
X56177Y-31244D01*
X56094Y-31328D01*
X55984Y-31373D01*
X55865Y-31373D01*
X55756Y-31327D01*
X55672Y-31244D01*
X55627Y-31134D01*
X55627Y-31015D01*
X55673Y-30906D01*
X55756Y-30822D01*
X55825Y-30793D01*
X55825Y-21475D01*
X55805Y-21506D01*
X55255Y-22055D01*
X55207Y-22087D01*
X55234Y-22098D01*
X55276Y-22140D01*
X55280Y-22150D01*
X55300Y-22150D01*
X55396Y-22169D01*
X55477Y-22223D01*
X55552Y-22298D01*
X55606Y-22379D01*
X55625Y-22475D01*
X55625Y-33303D01*
X55628Y-33306D01*
X55673Y-33416D01*
X55673Y-33535D01*
X55627Y-33644D01*
X55544Y-33728D01*
X55434Y-33773D01*
X55315Y-33773D01*
X55315Y-34625D01*
X57265Y-34625D01*
X57265Y-34423D01*
X57156Y-34377D01*
X57072Y-34294D01*
X57027Y-34184D01*
X57027Y-34065D01*
X57073Y-33956D01*
X57156Y-33872D01*
X57266Y-33827D01*
X57363Y-33827D01*
X57491Y-33699D01*
X57491Y-32062D01*
X57422Y-31994D01*
X57377Y-31884D01*
X57377Y-31765D01*
X57423Y-31656D01*
X57506Y-31572D01*
X57616Y-31527D01*
X57735Y-31527D01*
X57844Y-31573D01*
X57928Y-31656D01*
X57973Y-31766D01*
X57973Y-31885D01*
X57927Y-31994D01*
X57859Y-32062D01*
X57859Y-33775D01*
X57845Y-33845D01*
X57805Y-33905D01*
X57804Y-33905D01*
X57804Y-33906D01*
X57623Y-34087D01*
X57623Y-34185D01*
X57577Y-34294D01*
X57494Y-34378D01*
X57384Y-34423D01*
X57265Y-34423D01*
X57265Y-34625D01*
X58387Y-34625D01*
X58387Y-34574D01*
X58225Y-34506D01*
X58101Y-34382D01*
X58034Y-34220D01*
X58034Y-34029D01*
X58102Y-33867D01*
X58226Y-33743D01*
X58340Y-33695D01*
X58387Y-33676D01*
X58563Y-33676D01*
X58725Y-33744D01*
X58849Y-33868D01*
X58916Y-34030D01*
X58916Y-34221D01*
X58848Y-34383D01*
X58724Y-34507D01*
X58562Y-34574D01*
X58387Y-34574D01*
X58387Y-34625D01*
X58975Y-34625D01*
X35500Y-23150D02*
X50800Y-23150D01*
X35500Y-23230D02*
X50800Y-23230D01*
X35500Y-23310D02*
X50800Y-23310D01*
X35500Y-23390D02*
X50800Y-23390D01*
X35500Y-23470D02*
X50800Y-23470D01*
X35500Y-23550D02*
X38193Y-23550D01*
X38608Y-23550D02*
X39193Y-23550D01*
X39608Y-23550D02*
X40193Y-23550D01*
X40608Y-23550D02*
X41193Y-23550D01*
X41608Y-23550D02*
X42193Y-23550D01*
X42608Y-23550D02*
X50800Y-23550D01*
X35500Y-23630D02*
X38085Y-23630D01*
X38715Y-23630D02*
X39085Y-23630D01*
X39715Y-23630D02*
X40085Y-23630D01*
X40715Y-23630D02*
X41085Y-23630D01*
X41715Y-23630D02*
X42085Y-23630D01*
X42715Y-23630D02*
X50800Y-23630D01*
X35500Y-23710D02*
X38014Y-23710D01*
X38787Y-23710D02*
X39014Y-23710D01*
X39787Y-23710D02*
X40014Y-23710D01*
X40787Y-23710D02*
X41014Y-23710D01*
X41787Y-23710D02*
X42014Y-23710D01*
X42787Y-23710D02*
X50800Y-23710D01*
X35500Y-23790D02*
X37981Y-23790D01*
X38820Y-23790D02*
X38981Y-23790D01*
X39820Y-23790D02*
X39981Y-23790D01*
X40820Y-23790D02*
X40981Y-23790D01*
X41820Y-23790D02*
X41981Y-23790D01*
X42820Y-23790D02*
X50800Y-23790D01*
X35500Y-23870D02*
X37951Y-23870D01*
X38849Y-23870D02*
X38951Y-23870D01*
X39849Y-23870D02*
X39951Y-23870D01*
X40849Y-23870D02*
X40951Y-23870D01*
X41849Y-23870D02*
X41951Y-23870D01*
X42849Y-23870D02*
X50800Y-23870D01*
X35500Y-23950D02*
X37951Y-23950D01*
X38849Y-23950D02*
X38951Y-23950D01*
X39849Y-23950D02*
X39951Y-23950D01*
X40849Y-23950D02*
X40951Y-23950D01*
X41849Y-23950D02*
X41951Y-23950D01*
X42849Y-23950D02*
X50800Y-23950D01*
X35500Y-24030D02*
X37951Y-24030D01*
X38849Y-24030D02*
X38951Y-24030D01*
X39849Y-24030D02*
X39951Y-24030D01*
X40849Y-24030D02*
X40951Y-24030D01*
X41849Y-24030D02*
X41951Y-24030D01*
X42849Y-24030D02*
X50800Y-24030D01*
X35500Y-24110D02*
X37980Y-24110D01*
X38819Y-24110D02*
X38980Y-24110D01*
X39819Y-24110D02*
X39980Y-24110D01*
X40819Y-24110D02*
X40980Y-24110D01*
X41819Y-24110D02*
X41980Y-24110D01*
X42920Y-24110D02*
X50800Y-24110D01*
X35500Y-24190D02*
X38013Y-24190D01*
X38786Y-24190D02*
X39013Y-24190D01*
X39786Y-24190D02*
X39900Y-24190D01*
X40786Y-24190D02*
X41013Y-24190D01*
X41786Y-24190D02*
X42013Y-24190D01*
X43000Y-24190D02*
X50800Y-24190D01*
X35500Y-24270D02*
X38085Y-24270D01*
X38715Y-24270D02*
X39085Y-24270D01*
X39715Y-24270D02*
X39820Y-24270D01*
X40715Y-24270D02*
X41085Y-24270D01*
X41715Y-24270D02*
X42085Y-24270D01*
X43080Y-24270D02*
X50800Y-24270D01*
X35500Y-24350D02*
X38192Y-24350D01*
X38607Y-24350D02*
X39192Y-24350D01*
X39607Y-24350D02*
X39750Y-24350D01*
X40607Y-24350D02*
X41192Y-24350D01*
X41607Y-24350D02*
X42192Y-24350D01*
X42606Y-24350D02*
X42640Y-24350D01*
X43151Y-24350D02*
X50800Y-24350D01*
X35500Y-24430D02*
X39720Y-24430D01*
X40179Y-24430D02*
X42237Y-24430D01*
X42545Y-24430D02*
X42720Y-24430D01*
X43181Y-24430D02*
X50800Y-24430D01*
X35500Y-24510D02*
X38049Y-24510D01*
X38752Y-24510D02*
X39289Y-24510D01*
X39512Y-24510D02*
X39716Y-24510D01*
X40099Y-24510D02*
X40290Y-24510D01*
X40512Y-24510D02*
X41289Y-24510D01*
X41512Y-24510D02*
X42110Y-24510D01*
X42691Y-24510D02*
X42800Y-24510D01*
X43184Y-24510D02*
X50800Y-24510D01*
X35500Y-24590D02*
X37964Y-24590D01*
X38837Y-24590D02*
X39125Y-24590D01*
X39675Y-24590D02*
X39716Y-24590D01*
X40084Y-24590D02*
X40125Y-24590D01*
X40675Y-24590D02*
X41125Y-24590D01*
X41675Y-24590D02*
X42110Y-24590D01*
X42689Y-24590D02*
X42816Y-24590D01*
X43184Y-24590D02*
X50800Y-24590D01*
X35500Y-24670D02*
X37951Y-24670D01*
X38849Y-24670D02*
X39045Y-24670D01*
X40755Y-24670D02*
X41045Y-24670D01*
X41755Y-24670D02*
X41928Y-24670D01*
X42050Y-24670D02*
X42190Y-24670D01*
X42609Y-24670D02*
X42751Y-24670D01*
X43184Y-24670D02*
X48815Y-24670D01*
X48986Y-24670D02*
X49815Y-24670D01*
X49986Y-24670D02*
X50800Y-24670D01*
X35500Y-24750D02*
X37951Y-24750D01*
X38849Y-24750D02*
X38997Y-24750D01*
X40804Y-24750D02*
X40997Y-24750D01*
X41804Y-24750D02*
X41900Y-24750D01*
X42130Y-24750D02*
X42270Y-24750D01*
X42529Y-24750D02*
X42671Y-24750D01*
X43184Y-24750D02*
X48642Y-24750D01*
X49158Y-24750D02*
X49642Y-24750D01*
X50158Y-24750D02*
X50800Y-24750D01*
X35500Y-24830D02*
X37951Y-24830D01*
X38849Y-24830D02*
X38964Y-24830D01*
X40837Y-24830D02*
X40964Y-24830D01*
X41837Y-24830D02*
X41872Y-24830D01*
X42210Y-24830D02*
X42350Y-24830D01*
X42449Y-24830D02*
X42591Y-24830D01*
X43184Y-24830D02*
X48562Y-24830D01*
X49238Y-24830D02*
X49562Y-24830D01*
X50238Y-24830D02*
X50800Y-24830D01*
X35500Y-24910D02*
X37951Y-24910D01*
X38849Y-24910D02*
X38951Y-24910D01*
X40849Y-24910D02*
X40951Y-24910D01*
X41849Y-24910D02*
X41859Y-24910D01*
X42290Y-24910D02*
X42511Y-24910D01*
X43184Y-24910D02*
X48514Y-24910D01*
X49287Y-24910D02*
X49514Y-24910D01*
X50287Y-24910D02*
X50800Y-24910D01*
X35500Y-24990D02*
X37951Y-24990D01*
X38849Y-24990D02*
X38951Y-24990D01*
X40849Y-24990D02*
X40951Y-24990D01*
X41849Y-24990D02*
X41863Y-24990D01*
X42369Y-24990D02*
X42431Y-24990D01*
X43184Y-24990D02*
X48481Y-24990D01*
X49320Y-24990D02*
X49481Y-24990D01*
X50320Y-24990D02*
X50800Y-24990D01*
X35500Y-25070D02*
X37951Y-25070D01*
X38849Y-25070D02*
X38963Y-25070D01*
X40836Y-25070D02*
X40963Y-25070D01*
X41836Y-25070D02*
X41867Y-25070D01*
X43184Y-25070D02*
X48470Y-25070D01*
X49330Y-25070D02*
X49470Y-25070D01*
X50330Y-25070D02*
X50800Y-25070D01*
X35500Y-25150D02*
X37951Y-25150D01*
X38849Y-25150D02*
X38996Y-25150D01*
X40803Y-25150D02*
X40996Y-25150D01*
X41803Y-25150D02*
X41895Y-25150D01*
X43184Y-25150D02*
X48470Y-25150D01*
X49330Y-25150D02*
X49470Y-25150D01*
X50330Y-25150D02*
X50800Y-25150D01*
X35500Y-25230D02*
X37951Y-25230D01*
X38849Y-25230D02*
X39045Y-25230D01*
X40755Y-25230D02*
X41045Y-25230D01*
X41755Y-25230D02*
X41799Y-25230D01*
X43184Y-25230D02*
X48488Y-25230D01*
X49311Y-25230D02*
X49488Y-25230D01*
X50311Y-25230D02*
X50800Y-25230D01*
X35500Y-25310D02*
X37963Y-25310D01*
X38836Y-25310D02*
X39125Y-25310D01*
X39675Y-25310D02*
X39716Y-25310D01*
X40084Y-25310D02*
X40125Y-25310D01*
X40675Y-25310D02*
X41125Y-25310D01*
X41675Y-25310D02*
X41736Y-25310D01*
X43172Y-25310D02*
X48521Y-25310D01*
X49278Y-25310D02*
X49521Y-25310D01*
X50278Y-25310D02*
X50800Y-25310D01*
X35500Y-25390D02*
X38048Y-25390D01*
X38751Y-25390D02*
X39288Y-25390D01*
X39510Y-25390D02*
X39716Y-25390D01*
X40150Y-25390D02*
X40288Y-25390D01*
X40510Y-25390D02*
X41288Y-25390D01*
X41510Y-25390D02*
X41702Y-25390D01*
X43120Y-25390D02*
X48582Y-25390D01*
X49218Y-25390D02*
X49582Y-25390D01*
X50218Y-25390D02*
X50800Y-25390D01*
X35500Y-25470D02*
X39729Y-25470D01*
X40353Y-25470D02*
X41702Y-25470D01*
X43040Y-25470D02*
X48670Y-25470D01*
X49130Y-25470D02*
X49670Y-25470D01*
X50130Y-25470D02*
X50800Y-25470D01*
X35500Y-25550D02*
X39790Y-25550D01*
X40472Y-25550D02*
X41718Y-25550D01*
X42960Y-25550D02*
X50800Y-25550D01*
X35500Y-25630D02*
X39870Y-25630D01*
X40524Y-25630D02*
X41758Y-25630D01*
X42820Y-25630D02*
X49665Y-25630D01*
X50129Y-25630D02*
X50800Y-25630D01*
X35500Y-25710D02*
X39950Y-25710D01*
X40548Y-25710D02*
X41849Y-25710D01*
X42151Y-25710D02*
X48718Y-25710D01*
X49082Y-25710D02*
X49614Y-25710D01*
X50187Y-25710D02*
X50800Y-25710D01*
X35500Y-25790D02*
X39952Y-25790D01*
X40548Y-25790D02*
X48602Y-25790D01*
X49198Y-25790D02*
X49661Y-25790D01*
X50139Y-25790D02*
X50800Y-25790D01*
X35500Y-25870D02*
X39976Y-25870D01*
X40522Y-25870D02*
X48531Y-25870D01*
X49271Y-25870D02*
X49431Y-25870D01*
X49599Y-25870D02*
X49741Y-25870D01*
X50059Y-25870D02*
X50201Y-25870D01*
X50373Y-25870D02*
X50800Y-25870D01*
X35500Y-25950D02*
X40028Y-25950D01*
X40471Y-25950D02*
X48497Y-25950D01*
X49304Y-25950D02*
X49403Y-25950D01*
X49679Y-25950D02*
X49821Y-25950D01*
X49979Y-25950D02*
X50121Y-25950D01*
X50406Y-25950D02*
X50800Y-25950D01*
X35500Y-26030D02*
X40147Y-26030D01*
X40353Y-26030D02*
X48470Y-26030D01*
X49330Y-26030D02*
X49376Y-26030D01*
X49759Y-26030D02*
X50041Y-26030D01*
X50417Y-26030D02*
X50800Y-26030D01*
X35500Y-26110D02*
X43118Y-26110D01*
X43482Y-26110D02*
X48470Y-26110D01*
X49330Y-26110D02*
X49380Y-26110D01*
X49839Y-26110D02*
X49981Y-26110D01*
X50421Y-26110D02*
X50800Y-26110D01*
X35500Y-26190D02*
X42465Y-26190D01*
X43557Y-26190D02*
X48472Y-26190D01*
X49328Y-26190D02*
X49384Y-26190D01*
X49919Y-26190D02*
X50061Y-26190D01*
X50418Y-26190D02*
X50800Y-26190D01*
X35500Y-26270D02*
X42369Y-26270D01*
X43590Y-26270D02*
X44797Y-26270D01*
X45003Y-26270D02*
X48504Y-26270D01*
X49330Y-26270D02*
X49402Y-26270D01*
X49999Y-26270D02*
X50141Y-26270D01*
X50390Y-26270D02*
X50800Y-26270D01*
X35500Y-26350D02*
X42289Y-26350D01*
X43598Y-26350D02*
X44679Y-26350D01*
X45122Y-26350D02*
X48542Y-26350D01*
X49410Y-26350D02*
X49436Y-26350D01*
X50079Y-26350D02*
X50221Y-26350D01*
X50362Y-26350D02*
X50800Y-26350D01*
X35500Y-26430D02*
X42209Y-26430D01*
X43589Y-26430D02*
X44628Y-26430D01*
X45174Y-26430D02*
X48622Y-26430D01*
X49490Y-26430D02*
X49539Y-26430D01*
X50159Y-26430D02*
X50800Y-26430D01*
X35500Y-26510D02*
X42129Y-26510D01*
X45198Y-26510D02*
X48766Y-26510D01*
X49033Y-26510D02*
X49050Y-26510D01*
X49558Y-26510D02*
X49619Y-26510D01*
X50181Y-26510D02*
X50800Y-26510D01*
X35500Y-26590D02*
X42049Y-26590D01*
X45198Y-26590D02*
X49130Y-26590D01*
X49583Y-26590D02*
X49728Y-26590D01*
X50085Y-26590D02*
X50800Y-26590D01*
X35500Y-26670D02*
X41969Y-26670D01*
X45172Y-26670D02*
X48815Y-26670D01*
X48986Y-26670D02*
X49210Y-26670D01*
X49584Y-26670D02*
X49625Y-26670D01*
X50176Y-26670D02*
X50800Y-26670D01*
X35500Y-26750D02*
X41890Y-26750D01*
X45121Y-26750D02*
X48642Y-26750D01*
X49158Y-26750D02*
X49216Y-26750D01*
X50179Y-26750D02*
X50800Y-26750D01*
X35500Y-26830D02*
X41810Y-26830D01*
X45003Y-26830D02*
X48562Y-26830D01*
X50099Y-26830D02*
X50241Y-26830D01*
X50353Y-26830D02*
X50800Y-26830D01*
X35500Y-26910D02*
X41569Y-26910D01*
X42650Y-26910D02*
X43152Y-26910D01*
X43748Y-26910D02*
X48514Y-26910D01*
X50019Y-26910D02*
X50161Y-26910D01*
X50389Y-26910D02*
X50800Y-26910D01*
X35500Y-26990D02*
X41495Y-26990D01*
X42570Y-26990D02*
X43152Y-26990D01*
X43750Y-26990D02*
X44949Y-26990D01*
X45251Y-26990D02*
X48481Y-26990D01*
X49939Y-26990D02*
X50081Y-26990D01*
X50415Y-26990D02*
X50800Y-26990D01*
X35500Y-27070D02*
X41461Y-27070D01*
X42490Y-27070D02*
X43176Y-27070D01*
X43830Y-27070D02*
X44859Y-27070D01*
X45342Y-27070D02*
X48470Y-27070D01*
X49859Y-27070D02*
X50001Y-27070D01*
X50419Y-27070D02*
X50800Y-27070D01*
X35500Y-27150D02*
X41452Y-27150D01*
X42448Y-27150D02*
X43228Y-27150D01*
X43910Y-27150D02*
X44819Y-27150D01*
X45382Y-27150D02*
X48470Y-27150D01*
X49879Y-27150D02*
X50021Y-27150D01*
X50423Y-27150D02*
X50800Y-27150D01*
X35500Y-27230D02*
X41460Y-27230D01*
X42439Y-27230D02*
X43347Y-27230D01*
X43990Y-27230D02*
X44802Y-27230D01*
X45398Y-27230D02*
X48488Y-27230D01*
X49959Y-27230D02*
X50101Y-27230D01*
X50404Y-27230D02*
X50800Y-27230D01*
X35500Y-27310D02*
X41493Y-27310D01*
X42405Y-27310D02*
X43550Y-27310D01*
X44070Y-27310D02*
X44802Y-27310D01*
X45420Y-27310D02*
X48521Y-27310D01*
X50039Y-27310D02*
X50181Y-27310D01*
X50376Y-27310D02*
X50800Y-27310D01*
X35500Y-27390D02*
X41568Y-27390D01*
X41931Y-27390D02*
X41969Y-27390D01*
X42331Y-27390D02*
X43630Y-27390D01*
X44150Y-27390D02*
X44835Y-27390D01*
X45500Y-27390D02*
X48582Y-27390D01*
X50119Y-27390D02*
X50261Y-27390D01*
X50275Y-27390D02*
X50800Y-27390D01*
X35500Y-27470D02*
X43710Y-27470D01*
X44230Y-27470D02*
X44898Y-27470D01*
X45580Y-27470D02*
X48670Y-27470D01*
X49130Y-27470D02*
X49216Y-27470D01*
X50191Y-27470D02*
X50800Y-27470D01*
X35500Y-27550D02*
X43790Y-27550D01*
X44310Y-27550D02*
X45140Y-27550D01*
X45660Y-27550D02*
X49216Y-27550D01*
X50170Y-27550D02*
X50800Y-27550D01*
X35500Y-27630D02*
X43870Y-27630D01*
X44390Y-27630D02*
X45220Y-27630D01*
X45740Y-27630D02*
X49216Y-27630D01*
X50130Y-27630D02*
X50800Y-27630D01*
X35500Y-27710D02*
X43950Y-27710D01*
X44470Y-27710D02*
X45300Y-27710D01*
X45820Y-27710D02*
X48718Y-27710D01*
X49082Y-27710D02*
X49216Y-27710D01*
X50187Y-27710D02*
X50800Y-27710D01*
X35500Y-27790D02*
X44030Y-27790D01*
X44550Y-27790D02*
X45380Y-27790D01*
X45900Y-27790D02*
X48602Y-27790D01*
X49198Y-27790D02*
X49216Y-27790D01*
X50139Y-27790D02*
X50800Y-27790D01*
X35500Y-27870D02*
X44110Y-27870D01*
X44630Y-27870D02*
X45460Y-27870D01*
X45980Y-27870D02*
X48531Y-27870D01*
X50059Y-27870D02*
X50201Y-27870D01*
X50373Y-27870D02*
X50800Y-27870D01*
X35500Y-27950D02*
X44190Y-27950D01*
X44710Y-27950D02*
X45540Y-27950D01*
X46060Y-27950D02*
X48497Y-27950D01*
X49979Y-27950D02*
X50121Y-27950D01*
X50406Y-27950D02*
X50800Y-27950D01*
X35500Y-28030D02*
X44270Y-28030D01*
X44790Y-28030D02*
X45620Y-28030D01*
X46140Y-28030D02*
X48470Y-28030D01*
X49899Y-28030D02*
X50041Y-28030D01*
X50417Y-28030D02*
X50800Y-28030D01*
X35500Y-28110D02*
X44350Y-28110D01*
X44870Y-28110D02*
X45700Y-28110D01*
X46220Y-28110D02*
X48470Y-28110D01*
X49839Y-28110D02*
X49981Y-28110D01*
X50421Y-28110D02*
X50800Y-28110D01*
X35500Y-28190D02*
X44430Y-28190D01*
X44950Y-28190D02*
X45780Y-28190D01*
X46300Y-28190D02*
X48472Y-28190D01*
X49919Y-28190D02*
X50061Y-28190D01*
X50418Y-28190D02*
X50800Y-28190D01*
X35500Y-28270D02*
X44510Y-28270D01*
X45030Y-28270D02*
X45860Y-28270D01*
X46380Y-28270D02*
X48504Y-28270D01*
X49999Y-28270D02*
X50141Y-28270D01*
X50390Y-28270D02*
X50800Y-28270D01*
X35500Y-28350D02*
X44590Y-28350D01*
X45110Y-28350D02*
X45940Y-28350D01*
X46460Y-28350D02*
X48542Y-28350D01*
X50079Y-28350D02*
X50221Y-28350D01*
X50362Y-28350D02*
X50800Y-28350D01*
X35500Y-28430D02*
X44670Y-28430D01*
X45190Y-28430D02*
X45222Y-28430D01*
X45477Y-28430D02*
X46020Y-28430D01*
X46540Y-28430D02*
X48622Y-28430D01*
X49178Y-28430D02*
X49216Y-28430D01*
X50159Y-28430D02*
X50800Y-28430D01*
X35500Y-28510D02*
X44750Y-28510D01*
X45582Y-28510D02*
X46100Y-28510D01*
X46620Y-28510D02*
X48766Y-28510D01*
X49033Y-28510D02*
X49216Y-28510D01*
X50181Y-28510D02*
X50800Y-28510D01*
X35500Y-28590D02*
X44830Y-28590D01*
X45628Y-28590D02*
X46180Y-28590D01*
X46700Y-28590D02*
X49216Y-28590D01*
X50085Y-28590D02*
X50800Y-28590D01*
X35500Y-28670D02*
X44910Y-28670D01*
X45648Y-28670D02*
X46260Y-28670D01*
X46780Y-28670D02*
X48815Y-28670D01*
X48986Y-28670D02*
X49216Y-28670D01*
X50176Y-28670D02*
X50800Y-28670D01*
X35500Y-28750D02*
X44990Y-28750D01*
X45648Y-28750D02*
X46340Y-28750D01*
X46860Y-28750D02*
X48642Y-28750D01*
X49158Y-28750D02*
X49216Y-28750D01*
X50179Y-28750D02*
X50800Y-28750D01*
X35500Y-28830D02*
X45070Y-28830D01*
X45618Y-28830D02*
X46420Y-28830D01*
X46940Y-28830D02*
X48562Y-28830D01*
X50099Y-28830D02*
X50241Y-28830D01*
X50353Y-28830D02*
X50800Y-28830D01*
X35500Y-28910D02*
X41622Y-28910D01*
X41779Y-28910D02*
X45138Y-28910D01*
X45561Y-28910D02*
X46500Y-28910D01*
X47020Y-28910D02*
X48514Y-28910D01*
X50019Y-28910D02*
X50161Y-28910D01*
X50389Y-28910D02*
X50800Y-28910D01*
X35500Y-28990D02*
X41489Y-28990D01*
X41912Y-28990D02*
X45271Y-28990D01*
X45428Y-28990D02*
X46580Y-28990D01*
X47100Y-28990D02*
X48481Y-28990D01*
X49939Y-28990D02*
X50081Y-28990D01*
X50415Y-28990D02*
X50800Y-28990D01*
X35500Y-29070D02*
X41147Y-29070D01*
X41353Y-29070D02*
X41432Y-29070D01*
X41969Y-29070D02*
X46660Y-29070D01*
X47180Y-29070D02*
X48470Y-29070D01*
X49859Y-29070D02*
X50001Y-29070D01*
X50419Y-29070D02*
X50800Y-29070D01*
X35500Y-29150D02*
X41029Y-29150D01*
X41998Y-29150D02*
X46740Y-29150D01*
X47260Y-29150D02*
X48470Y-29150D01*
X49879Y-29150D02*
X50021Y-29150D01*
X50423Y-29150D02*
X50800Y-29150D01*
X35500Y-29230D02*
X40978Y-29230D01*
X41998Y-29230D02*
X46820Y-29230D01*
X47340Y-29230D02*
X48488Y-29230D01*
X49959Y-29230D02*
X50101Y-29230D01*
X50404Y-29230D02*
X50800Y-29230D01*
X35500Y-29310D02*
X40952Y-29310D01*
X41984Y-29310D02*
X46900Y-29310D01*
X47420Y-29310D02*
X48521Y-29310D01*
X50039Y-29310D02*
X50181Y-29310D01*
X50376Y-29310D02*
X50800Y-29310D01*
X35500Y-29390D02*
X40952Y-29390D01*
X41984Y-29390D02*
X43349Y-29390D01*
X43651Y-29390D02*
X46980Y-29390D01*
X47500Y-29390D02*
X48582Y-29390D01*
X50119Y-29390D02*
X50261Y-29390D01*
X50275Y-29390D02*
X50800Y-29390D01*
X35500Y-29470D02*
X40922Y-29470D01*
X41522Y-29470D02*
X41574Y-29470D01*
X41984Y-29470D02*
X42947Y-29470D01*
X43153Y-29470D02*
X43259Y-29470D01*
X45721Y-29470D02*
X47060Y-29470D01*
X47580Y-29470D02*
X48670Y-29470D01*
X49130Y-29470D02*
X49216Y-29470D01*
X50191Y-29470D02*
X50800Y-29470D01*
X35500Y-29550D02*
X40916Y-29550D01*
X41471Y-29550D02*
X41616Y-29550D01*
X41984Y-29550D02*
X42829Y-29550D01*
X45860Y-29550D02*
X47140Y-29550D01*
X47660Y-29550D02*
X49216Y-29550D01*
X50170Y-29550D02*
X50800Y-29550D01*
X35500Y-29630D02*
X37199Y-29630D01*
X37602Y-29630D02*
X40916Y-29630D01*
X41353Y-29630D02*
X41616Y-29630D01*
X41984Y-29630D02*
X42778Y-29630D01*
X45940Y-29630D02*
X47220Y-29630D01*
X47740Y-29630D02*
X49216Y-29630D01*
X50130Y-29630D02*
X50800Y-29630D01*
X35500Y-29710D02*
X37136Y-29710D01*
X37665Y-29710D02*
X40916Y-29710D01*
X41284Y-29710D02*
X41616Y-29710D01*
X41984Y-29710D02*
X42752Y-29710D01*
X46020Y-29710D02*
X47300Y-29710D01*
X47820Y-29710D02*
X48718Y-29710D01*
X49082Y-29710D02*
X49216Y-29710D01*
X50187Y-29710D02*
X50800Y-29710D01*
X35500Y-29790D02*
X37102Y-29790D01*
X37698Y-29790D02*
X40916Y-29790D01*
X41284Y-29790D02*
X41616Y-29790D01*
X41984Y-29790D02*
X42752Y-29790D01*
X46100Y-29790D02*
X47380Y-29790D01*
X47900Y-29790D02*
X48602Y-29790D01*
X49198Y-29790D02*
X49216Y-29790D01*
X50139Y-29790D02*
X50800Y-29790D01*
X35500Y-29870D02*
X37102Y-29870D01*
X37698Y-29870D02*
X40916Y-29870D01*
X41284Y-29870D02*
X41616Y-29870D01*
X41984Y-29870D02*
X42776Y-29870D01*
X45040Y-29870D02*
X45659Y-29870D01*
X46303Y-29870D02*
X47460Y-29870D01*
X47980Y-29870D02*
X48531Y-29870D01*
X50059Y-29870D02*
X50201Y-29870D01*
X50373Y-29870D02*
X50800Y-29870D01*
X35500Y-29950D02*
X37118Y-29950D01*
X37760Y-29950D02*
X40916Y-29950D01*
X41284Y-29950D02*
X41616Y-29950D01*
X41984Y-29950D02*
X42828Y-29950D01*
X45048Y-29950D02*
X45739Y-29950D01*
X46422Y-29950D02*
X47540Y-29950D01*
X48060Y-29950D02*
X48497Y-29950D01*
X49979Y-29950D02*
X50121Y-29950D01*
X50406Y-29950D02*
X50800Y-29950D01*
X35500Y-30030D02*
X37158Y-30030D01*
X37840Y-30030D02*
X40916Y-30030D01*
X41284Y-30030D02*
X41616Y-30030D01*
X41984Y-30030D02*
X42947Y-30030D01*
X45039Y-30030D02*
X45819Y-30030D01*
X46474Y-30030D02*
X47620Y-30030D01*
X48140Y-30030D02*
X48470Y-30030D01*
X49899Y-30030D02*
X50041Y-30030D01*
X50417Y-30030D02*
X50800Y-30030D01*
X35500Y-30110D02*
X37249Y-30110D01*
X37920Y-30110D02*
X40916Y-30110D01*
X41284Y-30110D02*
X41616Y-30110D01*
X41984Y-30110D02*
X43165Y-30110D01*
X45082Y-30110D02*
X45899Y-30110D01*
X46498Y-30110D02*
X47700Y-30110D01*
X48220Y-30110D02*
X48470Y-30110D01*
X49839Y-30110D02*
X49981Y-30110D01*
X50421Y-30110D02*
X50800Y-30110D01*
X35500Y-30190D02*
X37480Y-30190D01*
X38000Y-30190D02*
X40916Y-30190D01*
X41284Y-30190D02*
X41616Y-30190D01*
X41984Y-30190D02*
X43502Y-30190D01*
X44098Y-30190D02*
X44568Y-30190D01*
X45157Y-30190D02*
X45902Y-30190D01*
X46498Y-30190D02*
X47780Y-30190D01*
X48300Y-30190D02*
X48472Y-30190D01*
X49919Y-30190D02*
X50061Y-30190D01*
X50418Y-30190D02*
X50800Y-30190D01*
X35500Y-30270D02*
X37560Y-30270D01*
X38080Y-30270D02*
X40916Y-30270D01*
X41284Y-30270D02*
X41616Y-30270D01*
X41984Y-30270D02*
X43502Y-30270D01*
X44098Y-30270D02*
X44611Y-30270D01*
X45190Y-30270D02*
X45926Y-30270D01*
X46472Y-30270D02*
X47860Y-30270D01*
X48380Y-30270D02*
X48504Y-30270D01*
X49999Y-30270D02*
X50141Y-30270D01*
X50390Y-30270D02*
X50800Y-30270D01*
X35500Y-30350D02*
X37640Y-30350D01*
X38160Y-30350D02*
X40916Y-30350D01*
X41284Y-30350D02*
X41616Y-30350D01*
X41984Y-30350D02*
X43518Y-30350D01*
X44081Y-30350D02*
X44602Y-30350D01*
X45198Y-30350D02*
X45978Y-30350D01*
X46421Y-30350D02*
X47940Y-30350D01*
X48460Y-30350D02*
X48542Y-30350D01*
X50079Y-30350D02*
X50221Y-30350D01*
X50362Y-30350D02*
X50800Y-30350D01*
X35500Y-30430D02*
X37720Y-30430D01*
X38240Y-30430D02*
X40916Y-30430D01*
X41284Y-30430D02*
X41616Y-30430D01*
X41984Y-30430D02*
X43558Y-30430D01*
X44041Y-30430D02*
X44610Y-30430D01*
X45241Y-30430D02*
X46097Y-30430D01*
X46303Y-30430D02*
X48020Y-30430D01*
X48540Y-30430D02*
X48622Y-30430D01*
X49178Y-30430D02*
X49216Y-30430D01*
X50159Y-30430D02*
X50800Y-30430D01*
X35500Y-30510D02*
X37800Y-30510D01*
X38320Y-30510D02*
X40916Y-30510D01*
X41284Y-30510D02*
X41616Y-30510D01*
X41984Y-30510D02*
X43219Y-30510D01*
X43582Y-30510D02*
X43616Y-30510D01*
X43984Y-30510D02*
X44643Y-30510D01*
X45321Y-30510D02*
X48100Y-30510D01*
X48620Y-30510D02*
X48766Y-30510D01*
X49033Y-30510D02*
X49216Y-30510D01*
X50181Y-30510D02*
X50800Y-30510D01*
X35500Y-30590D02*
X37880Y-30590D01*
X38400Y-30590D02*
X40916Y-30590D01*
X41284Y-30590D02*
X41616Y-30590D01*
X41984Y-30590D02*
X43145Y-30590D01*
X43984Y-30590D02*
X44718Y-30590D01*
X45401Y-30590D02*
X48180Y-30590D01*
X48700Y-30590D02*
X49216Y-30590D01*
X50085Y-30590D02*
X50800Y-30590D01*
X35500Y-30670D02*
X37960Y-30670D01*
X38480Y-30670D02*
X40916Y-30670D01*
X41284Y-30670D02*
X41616Y-30670D01*
X41984Y-30670D02*
X43111Y-30670D01*
X43984Y-30670D02*
X44959Y-30670D01*
X45481Y-30670D02*
X48260Y-30670D01*
X48780Y-30670D02*
X48815Y-30670D01*
X48986Y-30670D02*
X49216Y-30670D01*
X50176Y-30670D02*
X50800Y-30670D01*
X35500Y-30750D02*
X38040Y-30750D01*
X38560Y-30750D02*
X40916Y-30750D01*
X41284Y-30750D02*
X41616Y-30750D01*
X41984Y-30750D02*
X43102Y-30750D01*
X43984Y-30750D02*
X45039Y-30750D01*
X47801Y-30750D02*
X48340Y-30750D01*
X49158Y-30750D02*
X49216Y-30750D01*
X50179Y-30750D02*
X50800Y-30750D01*
X35500Y-30830D02*
X38120Y-30830D01*
X38640Y-30830D02*
X40916Y-30830D01*
X41284Y-30830D02*
X41616Y-30830D01*
X41984Y-30830D02*
X43060Y-30830D01*
X43984Y-30830D02*
X45119Y-30830D01*
X47890Y-30830D02*
X48420Y-30830D01*
X50099Y-30830D02*
X50241Y-30830D01*
X50353Y-30830D02*
X50800Y-30830D01*
X35500Y-30910D02*
X38200Y-30910D01*
X38720Y-30910D02*
X40916Y-30910D01*
X41284Y-30910D02*
X41616Y-30910D01*
X41984Y-30910D02*
X42980Y-30910D01*
X43984Y-30910D02*
X45199Y-30910D01*
X47970Y-30910D02*
X48500Y-30910D01*
X50019Y-30910D02*
X50161Y-30910D01*
X50389Y-30910D02*
X50800Y-30910D01*
X35500Y-30990D02*
X38280Y-30990D01*
X38800Y-30990D02*
X40916Y-30990D01*
X41284Y-30990D02*
X41616Y-30990D01*
X41984Y-30990D02*
X42900Y-30990D01*
X43581Y-30990D02*
X43616Y-30990D01*
X43984Y-30990D02*
X45279Y-30990D01*
X48050Y-30990D02*
X48480Y-30990D01*
X49939Y-30990D02*
X50081Y-30990D01*
X50415Y-30990D02*
X50800Y-30990D01*
X35500Y-31070D02*
X38360Y-31070D01*
X38880Y-31070D02*
X40916Y-31070D01*
X41284Y-31070D02*
X41616Y-31070D01*
X41984Y-31070D02*
X42820Y-31070D01*
X43340Y-31070D02*
X43616Y-31070D01*
X43984Y-31070D02*
X45380Y-31070D01*
X48130Y-31070D02*
X48470Y-31070D01*
X49859Y-31070D02*
X50001Y-31070D01*
X50419Y-31070D02*
X50800Y-31070D01*
X35500Y-31150D02*
X38440Y-31150D01*
X38960Y-31150D02*
X39628Y-31150D01*
X39972Y-31150D02*
X40916Y-31150D01*
X41284Y-31150D02*
X41616Y-31150D01*
X41984Y-31150D02*
X42776Y-31150D01*
X43260Y-31150D02*
X43579Y-31150D01*
X44022Y-31150D02*
X45879Y-31150D01*
X46222Y-31150D02*
X47689Y-31150D01*
X48210Y-31150D02*
X48470Y-31150D01*
X49879Y-31150D02*
X50021Y-31150D01*
X50423Y-31150D02*
X50800Y-31150D01*
X35500Y-31230D02*
X38520Y-31230D01*
X40052Y-31230D02*
X40916Y-31230D01*
X41284Y-31230D02*
X41616Y-31230D01*
X41984Y-31230D02*
X42766Y-31230D01*
X43180Y-31230D02*
X43528Y-31230D01*
X44074Y-31230D02*
X45799Y-31230D01*
X46302Y-31230D02*
X47769Y-31230D01*
X48290Y-31230D02*
X48488Y-31230D01*
X49959Y-31230D02*
X50101Y-31230D01*
X50404Y-31230D02*
X50800Y-31230D01*
X35500Y-31310D02*
X38600Y-31310D01*
X40086Y-31310D02*
X40916Y-31310D01*
X41284Y-31310D02*
X41616Y-31310D01*
X41984Y-31310D02*
X42766Y-31310D01*
X43134Y-31310D02*
X43502Y-31310D01*
X44098Y-31310D02*
X45765Y-31310D01*
X46336Y-31310D02*
X47849Y-31310D01*
X48370Y-31310D02*
X48521Y-31310D01*
X50039Y-31310D02*
X50181Y-31310D01*
X50376Y-31310D02*
X50800Y-31310D01*
X35500Y-31390D02*
X38680Y-31390D01*
X40098Y-31390D02*
X40916Y-31390D01*
X41284Y-31390D02*
X41616Y-31390D01*
X41984Y-31390D02*
X42766Y-31390D01*
X43134Y-31390D02*
X43502Y-31390D01*
X44101Y-31390D02*
X45752Y-31390D01*
X46348Y-31390D02*
X47929Y-31390D01*
X48450Y-31390D02*
X48582Y-31390D01*
X50119Y-31390D02*
X50261Y-31390D01*
X50275Y-31390D02*
X50800Y-31390D01*
X35500Y-31470D02*
X38760Y-31470D01*
X40093Y-31470D02*
X40859Y-31470D01*
X41342Y-31470D02*
X41616Y-31470D01*
X41984Y-31470D02*
X42766Y-31470D01*
X43134Y-31470D02*
X43526Y-31470D01*
X44181Y-31470D02*
X45720Y-31470D01*
X46343Y-31470D02*
X48009Y-31470D01*
X48530Y-31470D02*
X48670Y-31470D01*
X49130Y-31470D02*
X49216Y-31470D01*
X50191Y-31470D02*
X50800Y-31470D01*
X35500Y-31550D02*
X38849Y-31550D01*
X40060Y-31550D02*
X40819Y-31550D01*
X41382Y-31550D02*
X41616Y-31550D01*
X41984Y-31550D02*
X42766Y-31550D01*
X43134Y-31550D02*
X43578Y-31550D01*
X44261Y-31550D02*
X45640Y-31550D01*
X46310Y-31550D02*
X48089Y-31550D01*
X48610Y-31550D02*
X49216Y-31550D01*
X50170Y-31550D02*
X50800Y-31550D01*
X35500Y-31630D02*
X38094Y-31630D01*
X38565Y-31630D02*
X39608Y-31630D01*
X39991Y-31630D02*
X40802Y-31630D01*
X41398Y-31630D02*
X41616Y-31630D01*
X41984Y-31630D02*
X42766Y-31630D01*
X43134Y-31630D02*
X43697Y-31630D01*
X46241Y-31630D02*
X48169Y-31630D01*
X48690Y-31630D02*
X49216Y-31630D01*
X50130Y-31630D02*
X50800Y-31630D01*
X35500Y-31710D02*
X36893Y-31710D01*
X37250Y-31710D02*
X37522Y-31710D01*
X37879Y-31710D02*
X38076Y-31710D01*
X38583Y-31710D02*
X40802Y-31710D01*
X41398Y-31710D02*
X41616Y-31710D01*
X41984Y-31710D02*
X42766Y-31710D01*
X43134Y-31710D02*
X43899Y-31710D01*
X45999Y-31710D02*
X48249Y-31710D01*
X49082Y-31710D02*
X49216Y-31710D01*
X50187Y-31710D02*
X50800Y-31710D01*
X35500Y-31790D02*
X36793Y-31790D01*
X37350Y-31790D02*
X37421Y-31790D01*
X37979Y-31790D02*
X37992Y-31790D01*
X38006Y-31790D02*
X38146Y-31790D01*
X38511Y-31790D02*
X38653Y-31790D01*
X38665Y-31790D02*
X40835Y-31790D01*
X41364Y-31790D02*
X41616Y-31790D01*
X41984Y-31790D02*
X42766Y-31790D01*
X43134Y-31790D02*
X43979Y-31790D01*
X45919Y-31790D02*
X48329Y-31790D01*
X49198Y-31790D02*
X49216Y-31790D01*
X50139Y-31790D02*
X50800Y-31790D01*
X35500Y-31870D02*
X36736Y-31870D01*
X38086Y-31870D02*
X38226Y-31870D01*
X38431Y-31870D02*
X38573Y-31870D01*
X38768Y-31870D02*
X40898Y-31870D01*
X41301Y-31870D02*
X41616Y-31870D01*
X41984Y-31870D02*
X42766Y-31870D01*
X43134Y-31870D02*
X44059Y-31870D01*
X45839Y-31870D02*
X48409Y-31870D01*
X50059Y-31870D02*
X50201Y-31870D01*
X50373Y-31870D02*
X50800Y-31870D01*
X35500Y-31950D02*
X36703Y-31950D01*
X38166Y-31950D02*
X38306Y-31950D01*
X38351Y-31950D02*
X38493Y-31950D01*
X38790Y-31950D02*
X41616Y-31950D01*
X41984Y-31950D02*
X42766Y-31950D01*
X43134Y-31950D02*
X48489Y-31950D01*
X49979Y-31950D02*
X50121Y-31950D01*
X50406Y-31950D02*
X50800Y-31950D01*
X35500Y-32030D02*
X36695Y-32030D01*
X38246Y-32030D02*
X38413Y-32030D01*
X38796Y-32030D02*
X41616Y-32030D01*
X41984Y-32030D02*
X42766Y-32030D01*
X43134Y-32030D02*
X48470Y-32030D01*
X49899Y-32030D02*
X50041Y-32030D01*
X50417Y-32030D02*
X50800Y-32030D01*
X35500Y-32110D02*
X36695Y-32110D01*
X38325Y-32110D02*
X38466Y-32110D01*
X38798Y-32110D02*
X41616Y-32110D01*
X41984Y-32110D02*
X42719Y-32110D01*
X43182Y-32110D02*
X48470Y-32110D01*
X49839Y-32110D02*
X49981Y-32110D01*
X50421Y-32110D02*
X50800Y-32110D01*
X35500Y-32190D02*
X36725Y-32190D01*
X38406Y-32190D02*
X38546Y-32190D01*
X38771Y-32190D02*
X41599Y-32190D01*
X41984Y-32190D02*
X42674Y-32190D01*
X43228Y-32190D02*
X48471Y-32190D01*
X49919Y-32190D02*
X50061Y-32190D01*
X50418Y-32190D02*
X50800Y-32190D01*
X35500Y-32270D02*
X36766Y-32270D01*
X38486Y-32270D02*
X38626Y-32270D01*
X38744Y-32270D02*
X41519Y-32270D01*
X41980Y-32270D02*
X42652Y-32270D01*
X43248Y-32270D02*
X44519Y-32270D01*
X49999Y-32270D02*
X50141Y-32270D01*
X50390Y-32270D02*
X50800Y-32270D01*
X35500Y-32350D02*
X36846Y-32350D01*
X38566Y-32350D02*
X41439Y-32350D01*
X41949Y-32350D02*
X42652Y-32350D01*
X43248Y-32350D02*
X44440Y-32350D01*
X50079Y-32350D02*
X50221Y-32350D01*
X50362Y-32350D02*
X50800Y-32350D01*
X35500Y-32430D02*
X37014Y-32430D01*
X38571Y-32430D02*
X41359Y-32430D01*
X41880Y-32430D02*
X42681Y-32430D01*
X43218Y-32430D02*
X44360Y-32430D01*
X49178Y-32430D02*
X49216Y-32430D01*
X50159Y-32430D02*
X50800Y-32430D01*
X35500Y-32510D02*
X37010Y-32510D01*
X38390Y-32510D02*
X40472Y-32510D01*
X40629Y-32510D02*
X41279Y-32510D01*
X41800Y-32510D02*
X42738Y-32510D01*
X43161Y-32510D02*
X44119Y-32510D01*
X48749Y-32510D02*
X48766Y-32510D01*
X49033Y-32510D02*
X49216Y-32510D01*
X50181Y-32510D02*
X50800Y-32510D01*
X35500Y-32590D02*
X37010Y-32590D01*
X38390Y-32590D02*
X40339Y-32590D01*
X40761Y-32590D02*
X41199Y-32590D01*
X41720Y-32590D02*
X42871Y-32590D01*
X43028Y-32590D02*
X44045Y-32590D01*
X44719Y-32590D02*
X49216Y-32590D01*
X50085Y-32590D02*
X50800Y-32590D01*
X35500Y-32670D02*
X37043Y-32670D01*
X38356Y-32670D02*
X40282Y-32670D01*
X41640Y-32670D02*
X44011Y-32670D01*
X44639Y-32670D02*
X48815Y-32670D01*
X48986Y-32670D02*
X49216Y-32670D01*
X50176Y-32670D02*
X50800Y-32670D01*
X35500Y-32750D02*
X37089Y-32750D01*
X37682Y-32750D02*
X37717Y-32750D01*
X38310Y-32750D02*
X40252Y-32750D01*
X41560Y-32750D02*
X44002Y-32750D01*
X44598Y-32750D02*
X44829Y-32750D01*
X45172Y-32750D02*
X48642Y-32750D01*
X49158Y-32750D02*
X49216Y-32750D01*
X50179Y-32750D02*
X50800Y-32750D01*
X35500Y-32830D02*
X37169Y-32830D01*
X37602Y-32830D02*
X37797Y-32830D01*
X38230Y-32830D02*
X40252Y-32830D01*
X41480Y-32830D02*
X44010Y-32830D01*
X44589Y-32830D02*
X44749Y-32830D01*
X45252Y-32830D02*
X48562Y-32830D01*
X50099Y-32830D02*
X50241Y-32830D01*
X50353Y-32830D02*
X50800Y-32830D01*
X35500Y-32910D02*
X40272Y-32910D01*
X41400Y-32910D02*
X44043Y-32910D01*
X44555Y-32910D02*
X44715Y-32910D01*
X45286Y-32910D02*
X48514Y-32910D01*
X50019Y-32910D02*
X50161Y-32910D01*
X50389Y-32910D02*
X50800Y-32910D01*
X35500Y-32990D02*
X40318Y-32990D01*
X40781Y-32990D02*
X44118Y-32990D01*
X44481Y-32990D02*
X44702Y-32990D01*
X45298Y-32990D02*
X48481Y-32990D01*
X49939Y-32990D02*
X50081Y-32990D01*
X50415Y-32990D02*
X50800Y-32990D01*
X35500Y-33070D02*
X40423Y-33070D01*
X40677Y-33070D02*
X44706Y-33070D01*
X45330Y-33070D02*
X48470Y-33070D01*
X49859Y-33070D02*
X50001Y-33070D01*
X50419Y-33070D02*
X50800Y-33070D01*
X35500Y-33150D02*
X44739Y-33150D01*
X45410Y-33150D02*
X48470Y-33150D01*
X49879Y-33150D02*
X50021Y-33150D01*
X50423Y-33150D02*
X50800Y-33150D01*
X35500Y-33230D02*
X44808Y-33230D01*
X45490Y-33230D02*
X48488Y-33230D01*
X49959Y-33230D02*
X50101Y-33230D01*
X50404Y-33230D02*
X50800Y-33230D01*
X35500Y-33310D02*
X45050Y-33310D01*
X45570Y-33310D02*
X48521Y-33310D01*
X50039Y-33310D02*
X50181Y-33310D01*
X50376Y-33310D02*
X50800Y-33310D01*
X35500Y-33390D02*
X36002Y-33390D01*
X36525Y-33390D02*
X38876Y-33390D01*
X39399Y-33390D02*
X45130Y-33390D01*
X45650Y-33390D02*
X48582Y-33390D01*
X50119Y-33390D02*
X50261Y-33390D01*
X50275Y-33390D02*
X50800Y-33390D01*
X35500Y-33470D02*
X35839Y-33470D01*
X36687Y-33470D02*
X38713Y-33470D01*
X39561Y-33470D02*
X45210Y-33470D01*
X49601Y-33470D02*
X49608Y-33470D01*
X50191Y-33470D02*
X50800Y-33470D01*
X35500Y-33550D02*
X35759Y-33550D01*
X36767Y-33550D02*
X38633Y-33550D01*
X39641Y-33550D02*
X45290Y-33550D01*
X49574Y-33550D02*
X49629Y-33550D01*
X50170Y-33550D02*
X50800Y-33550D01*
X35500Y-33630D02*
X35679Y-33630D01*
X36847Y-33630D02*
X38553Y-33630D01*
X39721Y-33630D02*
X45370Y-33630D01*
X49530Y-33630D02*
X49665Y-33630D01*
X50130Y-33630D02*
X50800Y-33630D01*
X35500Y-33710D02*
X35636Y-33710D01*
X36891Y-33710D02*
X38510Y-33710D01*
X39765Y-33710D02*
X45450Y-33710D01*
X49450Y-33710D02*
X49614Y-33710D01*
X50187Y-33710D02*
X50800Y-33710D01*
X35500Y-33790D02*
X35603Y-33790D01*
X36924Y-33790D02*
X38477Y-33790D01*
X39798Y-33790D02*
X45535Y-33790D01*
X49365Y-33790D02*
X49661Y-33790D01*
X50139Y-33790D02*
X50800Y-33790D01*
X35500Y-33870D02*
X35570Y-33870D01*
X36957Y-33870D02*
X38444Y-33870D01*
X39831Y-33870D02*
X48531Y-33870D01*
X49271Y-33870D02*
X49431Y-33870D01*
X49599Y-33870D02*
X49741Y-33870D01*
X50059Y-33870D02*
X50201Y-33870D01*
X50373Y-33870D02*
X50800Y-33870D01*
X35500Y-33950D02*
X35553Y-33950D01*
X36973Y-33950D02*
X38427Y-33950D01*
X39847Y-33950D02*
X48497Y-33950D01*
X49304Y-33950D02*
X49403Y-33950D01*
X49679Y-33950D02*
X49821Y-33950D01*
X49979Y-33950D02*
X50121Y-33950D01*
X50406Y-33950D02*
X50800Y-33950D01*
X35500Y-34030D02*
X35553Y-34030D01*
X36973Y-34030D02*
X38427Y-34030D01*
X39847Y-34030D02*
X48470Y-34030D01*
X49330Y-34030D02*
X49376Y-34030D01*
X49759Y-34030D02*
X50041Y-34030D01*
X50417Y-34030D02*
X50800Y-34030D01*
X35500Y-34110D02*
X35553Y-34110D01*
X36973Y-34110D02*
X38427Y-34110D01*
X39847Y-34110D02*
X48470Y-34110D01*
X49330Y-34110D02*
X49380Y-34110D01*
X49819Y-34110D02*
X49981Y-34110D01*
X50421Y-34110D02*
X50800Y-34110D01*
X35500Y-34190D02*
X35553Y-34190D01*
X36973Y-34190D02*
X38427Y-34190D01*
X39847Y-34190D02*
X48472Y-34190D01*
X49328Y-34190D02*
X49384Y-34190D01*
X49739Y-34190D02*
X49881Y-34190D01*
X49919Y-34190D02*
X50061Y-34190D01*
X50418Y-34190D02*
X50800Y-34190D01*
X35500Y-34270D02*
X35585Y-34270D01*
X36940Y-34270D02*
X38459Y-34270D01*
X39814Y-34270D02*
X48504Y-34270D01*
X49294Y-34270D02*
X49402Y-34270D01*
X49659Y-34270D02*
X49801Y-34270D01*
X49999Y-34270D02*
X50141Y-34270D01*
X50390Y-34270D02*
X50800Y-34270D01*
X35500Y-34350D02*
X35618Y-34350D01*
X36907Y-34350D02*
X38492Y-34350D01*
X39781Y-34350D02*
X48542Y-34350D01*
X49258Y-34350D02*
X49436Y-34350D01*
X49579Y-34350D02*
X49721Y-34350D01*
X50079Y-34350D02*
X50221Y-34350D01*
X50362Y-34350D02*
X50800Y-34350D01*
X35500Y-34430D02*
X35651Y-34430D01*
X36874Y-34430D02*
X38525Y-34430D01*
X39748Y-34430D02*
X48622Y-34430D01*
X49178Y-34430D02*
X49641Y-34430D01*
X50159Y-34430D02*
X50800Y-34430D01*
X35500Y-34510D02*
X35719Y-34510D01*
X36807Y-34510D02*
X38593Y-34510D01*
X39681Y-34510D02*
X48766Y-34510D01*
X49033Y-34510D02*
X49619Y-34510D01*
X50181Y-34510D02*
X50800Y-34510D01*
X35500Y-34590D02*
X35799Y-34590D01*
X36727Y-34590D02*
X38673Y-34590D01*
X39601Y-34590D02*
X49729Y-34590D01*
X50087Y-34590D02*
X50800Y-34590D01*
X35500Y-34670D02*
X35904Y-34670D01*
X36621Y-34670D02*
X38778Y-34670D01*
X39495Y-34670D02*
X50800Y-34670D01*
X35500Y-34750D02*
X36097Y-34750D01*
X36428Y-34750D02*
X38971Y-34750D01*
X39302Y-34750D02*
X50800Y-34750D01*
X35500Y-34830D02*
X50800Y-34830D01*
X35500Y-34910D02*
X50800Y-34910D01*
X35500Y-34990D02*
X50800Y-34990D01*
X35500Y-35070D02*
X50800Y-35070D01*
X35500Y-35150D02*
X50800Y-35150D01*
X35500Y-35230D02*
X50800Y-35230D01*
X35500Y-35310D02*
X50800Y-35310D01*
X35500Y-35390D02*
X50800Y-35390D01*
X35500Y-35470D02*
X50800Y-35470D01*
X35500Y-35550D02*
X50800Y-35550D01*
X50800Y-35625D02*
X50800Y-23150D01*
X35500Y-23150D01*
X35500Y-35625D01*
X36122Y-35625D01*
X36122Y-34760D01*
X35861Y-34652D01*
X35661Y-34452D01*
X35553Y-34191D01*
X35553Y-33909D01*
X35661Y-33648D01*
X35861Y-33448D01*
X36122Y-33340D01*
X36404Y-33340D01*
X36665Y-33448D01*
X36865Y-33648D01*
X36973Y-33909D01*
X36973Y-34191D01*
X36865Y-34452D01*
X36665Y-34652D01*
X36404Y-34760D01*
X36122Y-34760D01*
X36122Y-35625D01*
X37938Y-35625D01*
X37938Y-32891D01*
X37800Y-32833D01*
X37700Y-32732D01*
X37598Y-32834D01*
X37460Y-32891D01*
X37310Y-32891D01*
X37172Y-32833D01*
X37067Y-32727D01*
X37010Y-32589D01*
X37010Y-32439D01*
X37018Y-32419D01*
X36995Y-32419D01*
X36857Y-32361D01*
X36752Y-32255D01*
X36695Y-32117D01*
X36695Y-31967D01*
X36753Y-31829D01*
X36859Y-31724D01*
X36997Y-31667D01*
X37147Y-31667D01*
X37285Y-31725D01*
X37385Y-31825D01*
X37488Y-31724D01*
X37626Y-31667D01*
X37776Y-31667D01*
X37914Y-31725D01*
X37980Y-31792D01*
X38004Y-31788D01*
X38258Y-32043D01*
X38329Y-32114D01*
X38329Y-31972D01*
X38074Y-31718D01*
X38091Y-31631D01*
X38207Y-31584D01*
X38391Y-31572D01*
X38567Y-31631D01*
X38584Y-31718D01*
X38329Y-31972D01*
X38329Y-32114D01*
X38584Y-32368D01*
X38567Y-32455D01*
X38451Y-32502D01*
X38390Y-32505D01*
X38390Y-32591D01*
X38332Y-32729D01*
X38226Y-32834D01*
X38088Y-32891D01*
X37938Y-32891D01*
X37938Y-35625D01*
X38996Y-35625D01*
X38996Y-34760D01*
X38735Y-34652D01*
X38535Y-34452D01*
X38427Y-34191D01*
X38427Y-33909D01*
X38535Y-33648D01*
X38654Y-33529D01*
X38654Y-32298D01*
X38400Y-32043D01*
X38654Y-31788D01*
X38741Y-31805D01*
X38788Y-31921D01*
X38800Y-32105D01*
X38741Y-32281D01*
X38654Y-32298D01*
X38654Y-33529D01*
X38735Y-33448D01*
X38996Y-33340D01*
X39278Y-33340D01*
X39539Y-33448D01*
X39739Y-33648D01*
X39740Y-33650D01*
X39740Y-31698D01*
X39631Y-31652D01*
X39562Y-31584D01*
X38950Y-31584D01*
X38879Y-31570D01*
X38820Y-31530D01*
X37438Y-30148D01*
X37340Y-30148D01*
X37231Y-30102D01*
X37147Y-30019D01*
X37102Y-29909D01*
X37102Y-29790D01*
X37148Y-29681D01*
X37231Y-29597D01*
X37341Y-29552D01*
X37460Y-29552D01*
X37569Y-29598D01*
X37653Y-29681D01*
X37698Y-29791D01*
X37698Y-29888D01*
X38071Y-30261D01*
X38071Y-25399D01*
X38016Y-25377D01*
X37974Y-25335D01*
X37951Y-25280D01*
X37951Y-24621D01*
X37973Y-24566D01*
X38015Y-24524D01*
X38070Y-24501D01*
X38310Y-24501D01*
X38310Y-24399D01*
X38145Y-24330D01*
X38019Y-24204D01*
X37951Y-24039D01*
X37951Y-23860D01*
X38020Y-23695D01*
X38146Y-23569D01*
X38311Y-23501D01*
X38490Y-23501D01*
X38655Y-23570D01*
X38781Y-23696D01*
X38849Y-23861D01*
X38849Y-24040D01*
X38780Y-24205D01*
X38654Y-24331D01*
X38489Y-24399D01*
X38310Y-24399D01*
X38310Y-24501D01*
X38729Y-24501D01*
X38784Y-24523D01*
X38826Y-24565D01*
X38849Y-24620D01*
X38849Y-25279D01*
X38827Y-25334D01*
X38785Y-25376D01*
X38730Y-25399D01*
X38071Y-25399D01*
X38071Y-30261D01*
X39026Y-31216D01*
X39562Y-31216D01*
X39631Y-31147D01*
X39741Y-31102D01*
X39860Y-31102D01*
X39969Y-31148D01*
X40053Y-31231D01*
X40098Y-31341D01*
X40098Y-31460D01*
X40052Y-31569D01*
X39969Y-31653D01*
X39859Y-31698D01*
X39740Y-31698D01*
X39740Y-33650D01*
X39847Y-33909D01*
X39847Y-34191D01*
X39739Y-34452D01*
X39539Y-34652D01*
X39278Y-34760D01*
X38996Y-34760D01*
X38996Y-35625D01*
X40190Y-35625D01*
X40190Y-26048D01*
X40081Y-26002D01*
X39997Y-25919D01*
X39952Y-25809D01*
X39952Y-25712D01*
X39770Y-25530D01*
X39730Y-25471D01*
X39716Y-25400D01*
X39716Y-25269D01*
X39654Y-25331D01*
X39489Y-25399D01*
X39310Y-25399D01*
X39145Y-25330D01*
X39019Y-25204D01*
X38951Y-25039D01*
X38951Y-24860D01*
X39020Y-24695D01*
X39146Y-24569D01*
X39310Y-24501D01*
X39310Y-24399D01*
X39145Y-24330D01*
X39019Y-24204D01*
X38951Y-24039D01*
X38951Y-23860D01*
X39020Y-23695D01*
X39146Y-23569D01*
X39311Y-23501D01*
X39490Y-23501D01*
X39655Y-23570D01*
X39781Y-23696D01*
X39849Y-23861D01*
X39849Y-24040D01*
X39780Y-24205D01*
X39654Y-24331D01*
X39489Y-24399D01*
X39310Y-24399D01*
X39310Y-24501D01*
X39490Y-24501D01*
X39655Y-24570D01*
X39716Y-24631D01*
X39716Y-24450D01*
X39730Y-24379D01*
X39770Y-24320D01*
X39980Y-24109D01*
X39951Y-24039D01*
X39951Y-23860D01*
X40020Y-23695D01*
X40146Y-23569D01*
X40311Y-23501D01*
X40490Y-23501D01*
X40655Y-23570D01*
X40781Y-23696D01*
X40849Y-23861D01*
X40849Y-24040D01*
X40780Y-24205D01*
X40654Y-24331D01*
X40489Y-24399D01*
X40310Y-24399D01*
X40240Y-24369D01*
X40084Y-24526D01*
X40084Y-24631D01*
X40146Y-24569D01*
X40311Y-24501D01*
X40490Y-24501D01*
X40655Y-24570D01*
X40781Y-24696D01*
X40849Y-24861D01*
X40849Y-25040D01*
X40780Y-25205D01*
X40654Y-25331D01*
X40489Y-25399D01*
X40310Y-25399D01*
X40145Y-25330D01*
X40084Y-25269D01*
X40084Y-25324D01*
X40212Y-25452D01*
X40310Y-25452D01*
X40419Y-25498D01*
X40503Y-25581D01*
X40548Y-25691D01*
X40548Y-25810D01*
X40502Y-25919D01*
X40419Y-26003D01*
X40309Y-26048D01*
X40190Y-26048D01*
X40190Y-35625D01*
X40490Y-35625D01*
X40490Y-33098D01*
X40381Y-33052D01*
X40297Y-32969D01*
X40252Y-32859D01*
X40252Y-32740D01*
X40298Y-32631D01*
X40381Y-32547D01*
X40491Y-32502D01*
X40610Y-32502D01*
X40719Y-32548D01*
X40787Y-32616D01*
X41173Y-32616D01*
X41616Y-32173D01*
X41616Y-29487D01*
X41531Y-29452D01*
X41530Y-29451D01*
X41502Y-29519D01*
X41419Y-29603D01*
X41309Y-29648D01*
X41284Y-29648D01*
X41284Y-31412D01*
X41353Y-31481D01*
X41398Y-31591D01*
X41398Y-31710D01*
X41352Y-31819D01*
X41269Y-31903D01*
X41159Y-31948D01*
X41040Y-31948D01*
X40931Y-31902D01*
X40847Y-31819D01*
X40802Y-31709D01*
X40802Y-31590D01*
X40848Y-31481D01*
X40916Y-31412D01*
X40916Y-29500D01*
X40930Y-29429D01*
X40952Y-29396D01*
X40952Y-29290D01*
X40998Y-29181D01*
X41081Y-29097D01*
X41191Y-29052D01*
X41310Y-29052D01*
X41310Y-25399D01*
X41145Y-25330D01*
X41019Y-25204D01*
X40951Y-25039D01*
X40951Y-24860D01*
X41020Y-24695D01*
X41146Y-24569D01*
X41310Y-24501D01*
X41310Y-24399D01*
X41145Y-24330D01*
X41019Y-24204D01*
X40951Y-24039D01*
X40951Y-23860D01*
X41020Y-23695D01*
X41146Y-23569D01*
X41311Y-23501D01*
X41490Y-23501D01*
X41655Y-23570D01*
X41781Y-23696D01*
X41849Y-23861D01*
X41849Y-24040D01*
X41780Y-24205D01*
X41654Y-24331D01*
X41489Y-24399D01*
X41310Y-24399D01*
X41310Y-24501D01*
X41490Y-24501D01*
X41655Y-24570D01*
X41781Y-24696D01*
X41849Y-24861D01*
X41849Y-25040D01*
X41780Y-25205D01*
X41654Y-25331D01*
X41489Y-25399D01*
X41310Y-25399D01*
X41310Y-29052D01*
X41419Y-29098D01*
X41448Y-29031D01*
X41531Y-28947D01*
X41641Y-28902D01*
X41760Y-28902D01*
X41869Y-28948D01*
X41953Y-29031D01*
X41998Y-29141D01*
X41998Y-29260D01*
X41983Y-29295D01*
X41984Y-29300D01*
X41984Y-32250D01*
X41970Y-32320D01*
X41956Y-32340D01*
X41930Y-32381D01*
X41380Y-32930D01*
X41321Y-32970D01*
X41250Y-32984D01*
X40787Y-32984D01*
X40719Y-33053D01*
X40609Y-33098D01*
X40490Y-33098D01*
X40490Y-35625D01*
X48814Y-35625D01*
X48814Y-34530D01*
X48656Y-34464D01*
X48535Y-34343D01*
X48470Y-34185D01*
X48470Y-34014D01*
X48536Y-33856D01*
X48558Y-33834D01*
X45650Y-33834D01*
X45579Y-33820D01*
X45519Y-33779D01*
X45038Y-33298D01*
X44940Y-33298D01*
X44831Y-33252D01*
X44747Y-33169D01*
X44702Y-33059D01*
X44702Y-32940D01*
X44748Y-32831D01*
X44831Y-32747D01*
X44941Y-32702D01*
X45060Y-32702D01*
X45169Y-32748D01*
X45253Y-32831D01*
X45298Y-32941D01*
X45298Y-33038D01*
X45726Y-33466D01*
X48660Y-33466D01*
X48656Y-33464D01*
X48535Y-33343D01*
X48470Y-33185D01*
X48470Y-33014D01*
X48536Y-32856D01*
X48657Y-32735D01*
X48815Y-32670D01*
X48986Y-32670D01*
X49144Y-32736D01*
X49216Y-32808D01*
X49216Y-32392D01*
X49143Y-32465D01*
X48985Y-32530D01*
X48814Y-32530D01*
X48754Y-32505D01*
X48730Y-32530D01*
X48671Y-32570D01*
X48600Y-32584D01*
X44725Y-32584D01*
X44598Y-32712D01*
X44598Y-32810D01*
X44552Y-32919D01*
X44469Y-33003D01*
X44359Y-33048D01*
X44240Y-33048D01*
X44131Y-33002D01*
X44047Y-32919D01*
X44002Y-32809D01*
X44002Y-32690D01*
X44048Y-32581D01*
X44131Y-32497D01*
X44241Y-32452D01*
X44337Y-32452D01*
X44519Y-32271D01*
X44519Y-32270D01*
X44520Y-32270D01*
X44580Y-32230D01*
X44650Y-32216D01*
X48482Y-32216D01*
X48470Y-32185D01*
X48470Y-32014D01*
X48494Y-31954D01*
X47623Y-31084D01*
X45450Y-31084D01*
X45380Y-31070D01*
X45358Y-31055D01*
X45319Y-31030D01*
X44937Y-30648D01*
X44840Y-30648D01*
X44731Y-30602D01*
X44647Y-30519D01*
X44602Y-30409D01*
X44602Y-30290D01*
X44630Y-30222D01*
X44581Y-30202D01*
X44512Y-30134D01*
X44074Y-30134D01*
X44098Y-30191D01*
X44098Y-30310D01*
X44052Y-30419D01*
X43984Y-30487D01*
X43984Y-31112D01*
X44053Y-31181D01*
X44098Y-31291D01*
X44098Y-31387D01*
X44276Y-31566D01*
X45623Y-31566D01*
X45752Y-31438D01*
X45752Y-31340D01*
X45798Y-31231D01*
X45881Y-31147D01*
X45991Y-31102D01*
X46110Y-31102D01*
X46219Y-31148D01*
X46303Y-31231D01*
X46348Y-31341D01*
X46348Y-31460D01*
X46302Y-31569D01*
X46219Y-31653D01*
X46109Y-31698D01*
X46011Y-31698D01*
X45830Y-31880D01*
X45771Y-31920D01*
X45700Y-31934D01*
X44200Y-31934D01*
X44130Y-31920D01*
X44109Y-31906D01*
X44069Y-31880D01*
X43837Y-31648D01*
X43740Y-31648D01*
X43631Y-31602D01*
X43547Y-31519D01*
X43502Y-31409D01*
X43502Y-31290D01*
X43548Y-31181D01*
X43616Y-31112D01*
X43616Y-30955D01*
X43569Y-31003D01*
X43459Y-31048D01*
X43362Y-31048D01*
X43134Y-31276D01*
X43134Y-32062D01*
X43203Y-32131D01*
X43248Y-32241D01*
X43248Y-32360D01*
X43202Y-32469D01*
X43119Y-32553D01*
X43009Y-32598D01*
X42890Y-32598D01*
X42781Y-32552D01*
X42697Y-32469D01*
X42652Y-32359D01*
X42652Y-32240D01*
X42698Y-32131D01*
X42766Y-32062D01*
X42766Y-31200D01*
X42780Y-31129D01*
X42820Y-31070D01*
X43102Y-30788D01*
X43102Y-30690D01*
X43148Y-30581D01*
X43231Y-30497D01*
X43341Y-30452D01*
X43460Y-30452D01*
X43569Y-30498D01*
X43616Y-30544D01*
X43616Y-30487D01*
X43547Y-30419D01*
X43502Y-30309D01*
X43502Y-30190D01*
X43525Y-30134D01*
X43250Y-30134D01*
X43180Y-30120D01*
X43159Y-30106D01*
X43119Y-30080D01*
X43087Y-30048D01*
X42990Y-30048D01*
X42881Y-30002D01*
X42797Y-29919D01*
X42752Y-29809D01*
X42752Y-29690D01*
X42798Y-29581D01*
X42881Y-29497D01*
X42991Y-29452D01*
X43110Y-29452D01*
X43219Y-29498D01*
X43234Y-29513D01*
X43248Y-29481D01*
X43331Y-29397D01*
X43441Y-29352D01*
X43560Y-29352D01*
X43669Y-29398D01*
X43737Y-29466D01*
X45290Y-29466D01*
X45290Y-28998D01*
X45181Y-28952D01*
X45097Y-28869D01*
X45085Y-28840D01*
X45070Y-28830D01*
X43488Y-27248D01*
X43390Y-27248D01*
X43281Y-27202D01*
X43197Y-27119D01*
X43152Y-27009D01*
X43152Y-26890D01*
X43175Y-26834D01*
X42726Y-26834D01*
X42448Y-27112D01*
X42448Y-27210D01*
X42402Y-27319D01*
X42319Y-27403D01*
X42209Y-27448D01*
X42090Y-27448D01*
X41981Y-27402D01*
X41950Y-27371D01*
X41919Y-27403D01*
X41809Y-27448D01*
X41690Y-27448D01*
X41581Y-27402D01*
X41497Y-27319D01*
X41452Y-27209D01*
X41452Y-27090D01*
X41498Y-26981D01*
X41581Y-26897D01*
X41691Y-26852D01*
X41788Y-26852D01*
X41940Y-26699D01*
X41940Y-25748D01*
X41831Y-25702D01*
X41747Y-25619D01*
X41702Y-25509D01*
X41702Y-25390D01*
X41748Y-25281D01*
X41831Y-25197D01*
X41902Y-25167D01*
X41868Y-25084D01*
X41857Y-24871D01*
X41928Y-24669D01*
X42022Y-24642D01*
X42329Y-24950D01*
X42400Y-25021D01*
X42400Y-24879D01*
X42092Y-24572D01*
X42119Y-24478D01*
X42266Y-24418D01*
X42479Y-24407D01*
X42681Y-24478D01*
X42708Y-24572D01*
X42400Y-24879D01*
X42400Y-25021D01*
X42471Y-24950D01*
X42778Y-24642D01*
X42816Y-24652D01*
X42816Y-24526D01*
X42630Y-24340D01*
X42489Y-24399D01*
X42310Y-24399D01*
X42145Y-24330D01*
X42019Y-24204D01*
X41951Y-24039D01*
X41951Y-23860D01*
X42020Y-23695D01*
X42146Y-23569D01*
X42311Y-23501D01*
X42490Y-23501D01*
X42655Y-23570D01*
X42781Y-23696D01*
X42849Y-23861D01*
X42849Y-24039D01*
X43130Y-24320D01*
X43170Y-24379D01*
X43184Y-24450D01*
X43184Y-25250D01*
X43170Y-25320D01*
X43156Y-25340D01*
X43130Y-25381D01*
X42930Y-25580D01*
X42871Y-25620D01*
X42800Y-25634D01*
X42237Y-25634D01*
X42169Y-25703D01*
X42059Y-25748D01*
X41940Y-25748D01*
X41940Y-26699D01*
X42419Y-26220D01*
X42480Y-26180D01*
X42550Y-26166D01*
X43062Y-26166D01*
X43131Y-26097D01*
X43241Y-26052D01*
X43360Y-26052D01*
X43469Y-26098D01*
X43553Y-26181D01*
X43598Y-26291D01*
X43598Y-26410D01*
X43574Y-26466D01*
X44612Y-26466D01*
X44648Y-26381D01*
X44731Y-26297D01*
X44841Y-26252D01*
X44960Y-26252D01*
X45069Y-26298D01*
X45153Y-26381D01*
X45198Y-26491D01*
X45198Y-26610D01*
X45152Y-26719D01*
X45069Y-26803D01*
X44959Y-26848D01*
X44840Y-26848D01*
X44804Y-26833D01*
X44800Y-26834D01*
X43724Y-26834D01*
X43748Y-26891D01*
X43748Y-26988D01*
X45199Y-28439D01*
X45291Y-28402D01*
X45410Y-28402D01*
X45519Y-28448D01*
X45603Y-28531D01*
X45648Y-28641D01*
X45648Y-28760D01*
X45602Y-28869D01*
X45519Y-28953D01*
X45409Y-28998D01*
X45290Y-28998D01*
X45290Y-29466D01*
X45700Y-29466D01*
X45771Y-29480D01*
X45830Y-29520D01*
X46161Y-29852D01*
X46260Y-29852D01*
X46369Y-29898D01*
X46453Y-29981D01*
X46498Y-30091D01*
X46498Y-30210D01*
X46452Y-30319D01*
X46369Y-30403D01*
X46259Y-30448D01*
X46140Y-30448D01*
X46031Y-30402D01*
X45947Y-30319D01*
X45902Y-30209D01*
X45902Y-30112D01*
X45623Y-29834D01*
X45024Y-29834D01*
X45048Y-29891D01*
X45048Y-30010D01*
X45019Y-30077D01*
X45069Y-30098D01*
X45153Y-30181D01*
X45198Y-30291D01*
X45198Y-30387D01*
X45526Y-30716D01*
X47700Y-30716D01*
X47771Y-30730D01*
X47830Y-30770D01*
X48754Y-31694D01*
X48815Y-31670D01*
X48986Y-31670D01*
X49144Y-31736D01*
X49216Y-31808D01*
X49216Y-31392D01*
X49143Y-31465D01*
X48985Y-31530D01*
X48814Y-31530D01*
X48656Y-31464D01*
X48535Y-31343D01*
X48470Y-31185D01*
X48470Y-31014D01*
X48509Y-30919D01*
X45138Y-27548D01*
X45040Y-27548D01*
X44931Y-27502D01*
X44847Y-27419D01*
X44802Y-27309D01*
X44802Y-27190D01*
X44848Y-27081D01*
X44931Y-26997D01*
X45041Y-26952D01*
X45160Y-26952D01*
X45269Y-26998D01*
X45353Y-27081D01*
X45398Y-27191D01*
X45398Y-27288D01*
X48790Y-30680D01*
X48815Y-30670D01*
X48986Y-30670D01*
X49144Y-30736D01*
X49216Y-30808D01*
X49216Y-30392D01*
X49143Y-30465D01*
X48985Y-30530D01*
X48814Y-30530D01*
X48656Y-30464D01*
X48535Y-30343D01*
X48470Y-30185D01*
X48470Y-30014D01*
X48536Y-29856D01*
X48657Y-29735D01*
X48815Y-29670D01*
X48986Y-29670D01*
X49144Y-29736D01*
X49216Y-29808D01*
X49216Y-29392D01*
X49143Y-29465D01*
X48985Y-29530D01*
X48814Y-29530D01*
X48656Y-29464D01*
X48535Y-29343D01*
X48470Y-29185D01*
X48470Y-29014D01*
X48536Y-28856D01*
X48657Y-28735D01*
X48815Y-28670D01*
X48986Y-28670D01*
X49144Y-28736D01*
X49216Y-28808D01*
X49216Y-28392D01*
X49143Y-28465D01*
X48985Y-28530D01*
X48814Y-28530D01*
X48656Y-28464D01*
X48535Y-28343D01*
X48470Y-28185D01*
X48470Y-28014D01*
X48536Y-27856D01*
X48657Y-27735D01*
X48815Y-27670D01*
X48986Y-27670D01*
X49144Y-27736D01*
X49216Y-27808D01*
X49216Y-27392D01*
X49143Y-27465D01*
X48985Y-27530D01*
X48814Y-27530D01*
X48656Y-27464D01*
X48535Y-27343D01*
X48470Y-27185D01*
X48470Y-27014D01*
X48536Y-26856D01*
X48657Y-26735D01*
X48815Y-26670D01*
X48986Y-26670D01*
X49144Y-26736D01*
X49216Y-26808D01*
X49216Y-26676D01*
X49045Y-26505D01*
X48985Y-26530D01*
X48814Y-26530D01*
X48656Y-26464D01*
X48535Y-26343D01*
X48470Y-26185D01*
X48470Y-26014D01*
X48536Y-25856D01*
X48657Y-25735D01*
X48814Y-25670D01*
X48814Y-25530D01*
X48656Y-25464D01*
X48535Y-25343D01*
X48470Y-25185D01*
X48470Y-25014D01*
X48536Y-24856D01*
X48657Y-24735D01*
X48815Y-24670D01*
X48986Y-24670D01*
X49144Y-24736D01*
X49265Y-24857D01*
X49330Y-25015D01*
X49330Y-25186D01*
X49264Y-25344D01*
X49143Y-25465D01*
X48985Y-25530D01*
X48814Y-25530D01*
X48814Y-25670D01*
X48986Y-25670D01*
X49144Y-25736D01*
X49265Y-25857D01*
X49330Y-26015D01*
X49330Y-26186D01*
X49305Y-26245D01*
X49530Y-26470D01*
X49536Y-26478D01*
X49570Y-26529D01*
X49584Y-26600D01*
X49584Y-26725D01*
X49590Y-26719D01*
X49607Y-26736D01*
X49631Y-26644D01*
X49746Y-26596D01*
X49631Y-26556D01*
X49607Y-26464D01*
X49590Y-26481D01*
X49536Y-26427D01*
X49519Y-26410D01*
X49536Y-26393D01*
X49444Y-26369D01*
X49387Y-26232D01*
X49376Y-26026D01*
X49444Y-25831D01*
X49536Y-25807D01*
X49829Y-26100D01*
X49900Y-26171D01*
X49900Y-26029D01*
X49607Y-25736D01*
X49631Y-25644D01*
X49768Y-25587D01*
X49814Y-25584D01*
X49814Y-25530D01*
X49656Y-25464D01*
X49535Y-25343D01*
X49470Y-25185D01*
X49470Y-25014D01*
X49536Y-24856D01*
X49657Y-24735D01*
X49815Y-24670D01*
X49986Y-24670D01*
X50144Y-24736D01*
X50265Y-24857D01*
X50330Y-25015D01*
X50330Y-25186D01*
X50264Y-25344D01*
X50143Y-25465D01*
X49985Y-25530D01*
X49814Y-25530D01*
X49814Y-25584D01*
X49974Y-25576D01*
X50169Y-25644D01*
X50193Y-25736D01*
X49900Y-26029D01*
X49900Y-26171D01*
X50193Y-26464D01*
X50169Y-26556D01*
X50053Y-26603D01*
X50169Y-26644D01*
X50193Y-26736D01*
X49900Y-27029D01*
X49829Y-27100D01*
X49900Y-27171D01*
X50193Y-27464D01*
X50169Y-27556D01*
X50053Y-27603D01*
X50169Y-27644D01*
X50193Y-27736D01*
X49900Y-28029D01*
X49829Y-28100D01*
X49900Y-28171D01*
X50193Y-28464D01*
X50169Y-28556D01*
X50053Y-28603D01*
X50169Y-28644D01*
X50193Y-28736D01*
X49900Y-29029D01*
X49829Y-29100D01*
X49900Y-29171D01*
X50193Y-29464D01*
X50169Y-29556D01*
X50053Y-29603D01*
X50169Y-29644D01*
X50193Y-29736D01*
X49900Y-30029D01*
X49829Y-30100D01*
X49900Y-30171D01*
X50193Y-30464D01*
X50169Y-30556D01*
X50053Y-30603D01*
X50169Y-30644D01*
X50193Y-30736D01*
X49900Y-31029D01*
X49829Y-31100D01*
X49900Y-31171D01*
X50193Y-31464D01*
X50169Y-31556D01*
X50053Y-31603D01*
X50169Y-31644D01*
X50193Y-31736D01*
X49900Y-32029D01*
X49829Y-32100D01*
X49900Y-32171D01*
X50193Y-32464D01*
X50169Y-32556D01*
X50053Y-32603D01*
X50169Y-32644D01*
X50193Y-32736D01*
X49900Y-33029D01*
X49829Y-33100D01*
X49900Y-33171D01*
X50193Y-33464D01*
X50169Y-33556D01*
X50053Y-33603D01*
X50169Y-33644D01*
X50193Y-33736D01*
X49900Y-34029D01*
X49607Y-33736D01*
X49631Y-33644D01*
X49746Y-33596D01*
X49631Y-33556D01*
X49607Y-33464D01*
X49590Y-33481D01*
X49584Y-33475D01*
X49584Y-33500D01*
X49570Y-33571D01*
X49530Y-33630D01*
X49380Y-33780D01*
X49321Y-33820D01*
X49250Y-33834D01*
X49242Y-33834D01*
X49265Y-33857D01*
X49330Y-34015D01*
X49330Y-34186D01*
X49264Y-34344D01*
X49143Y-34465D01*
X48985Y-34530D01*
X48814Y-34530D01*
X48814Y-35625D01*
X49536Y-35625D01*
X49536Y-34393D01*
X49444Y-34369D01*
X49387Y-34232D01*
X49376Y-34026D01*
X49444Y-33831D01*
X49536Y-33807D01*
X49829Y-34100D01*
X49536Y-34393D01*
X49536Y-35625D01*
X49826Y-35625D01*
X49826Y-34624D01*
X49814Y-34619D01*
X49631Y-34556D01*
X49607Y-34464D01*
X49900Y-34171D01*
X50193Y-34464D01*
X50169Y-34556D01*
X50032Y-34613D01*
X49826Y-34624D01*
X49826Y-35625D01*
X50264Y-35625D01*
X50264Y-34393D01*
X49971Y-34100D01*
X50264Y-33807D01*
X50264Y-33393D01*
X49971Y-33100D01*
X50264Y-32807D01*
X50264Y-32393D01*
X49971Y-32100D01*
X50264Y-31807D01*
X50264Y-31393D01*
X49971Y-31100D01*
X50264Y-30807D01*
X50264Y-30393D01*
X49971Y-30100D01*
X50264Y-29807D01*
X50264Y-29393D01*
X49971Y-29100D01*
X50264Y-28807D01*
X50264Y-28393D01*
X49971Y-28100D01*
X50264Y-27807D01*
X50264Y-27393D01*
X49971Y-27100D01*
X50264Y-26807D01*
X50264Y-26393D01*
X49971Y-26100D01*
X50264Y-25807D01*
X50356Y-25831D01*
X50413Y-25968D01*
X50424Y-26174D01*
X50356Y-26369D01*
X50264Y-26393D01*
X50264Y-26807D01*
X50356Y-26831D01*
X50413Y-26968D01*
X50424Y-27174D01*
X50356Y-27369D01*
X50264Y-27393D01*
X50264Y-27807D01*
X50356Y-27831D01*
X50413Y-27968D01*
X50424Y-28174D01*
X50356Y-28369D01*
X50264Y-28393D01*
X50264Y-28807D01*
X50356Y-28831D01*
X50413Y-28968D01*
X50424Y-29174D01*
X50356Y-29369D01*
X50264Y-29393D01*
X50264Y-29807D01*
X50356Y-29831D01*
X50413Y-29968D01*
X50424Y-30174D01*
X50356Y-30369D01*
X50264Y-30393D01*
X50264Y-30807D01*
X50356Y-30831D01*
X50413Y-30968D01*
X50424Y-31174D01*
X50356Y-31369D01*
X50264Y-31393D01*
X50264Y-31807D01*
X50356Y-31831D01*
X50413Y-31968D01*
X50424Y-32174D01*
X50356Y-32369D01*
X50264Y-32393D01*
X50264Y-32807D01*
X50356Y-32831D01*
X50413Y-32968D01*
X50424Y-33174D01*
X50356Y-33369D01*
X50264Y-33393D01*
X50264Y-33807D01*
X50356Y-33831D01*
X50413Y-33968D01*
X50424Y-34174D01*
X50356Y-34369D01*
X50264Y-34393D01*
X50264Y-35625D01*
X50800Y-35625D01*
M02*
