G04 (created by PCBNEW-RS274X (2010-03-14)-final) date mar 08 nov 2011 08:15:05 ART*
G01*
G70*
G90*
%MOIN*%
G04 Gerber Fmt 3.4, Leading zero omitted, Abs format*
%FSLAX34Y34*%
G04 APERTURE LIST*
%ADD10C,0.000100*%
%ADD11C,0.005000*%
%ADD12C,0.008000*%
%ADD13C,0.006600*%
%ADD14C,0.015000*%
%ADD15C,0.004200*%
%ADD16C,0.003300*%
%ADD17C,0.002600*%
%ADD18C,0.012000*%
%ADD19C,0.001500*%
%ADD20C,0.003500*%
%ADD21C,0.005800*%
G04 APERTURE END LIST*
G54D10*
G54D11*
X35826Y-13548D02*
X35802Y-13577D01*
X35802Y-13620D01*
X35826Y-13663D01*
X35874Y-13691D01*
X35921Y-13706D01*
X36017Y-13720D01*
X36088Y-13720D01*
X36183Y-13706D01*
X36231Y-13691D01*
X36279Y-13663D01*
X36302Y-13620D01*
X36302Y-13591D01*
X36279Y-13548D01*
X36255Y-13534D01*
X36088Y-13534D01*
X36088Y-13591D01*
X36302Y-13406D02*
X35802Y-13406D01*
X36302Y-13234D01*
X35802Y-13234D01*
X36302Y-13092D02*
X35802Y-13092D01*
X35802Y-13020D01*
X35826Y-12977D01*
X35874Y-12949D01*
X35921Y-12934D01*
X36017Y-12920D01*
X36088Y-12920D01*
X36183Y-12934D01*
X36231Y-12949D01*
X36279Y-12977D01*
X36302Y-13020D01*
X36302Y-13092D01*
X36987Y-15942D02*
X36844Y-15942D01*
X36830Y-16180D01*
X36844Y-16157D01*
X36873Y-16133D01*
X36944Y-16133D01*
X36973Y-16157D01*
X36987Y-16180D01*
X37002Y-16228D01*
X37002Y-16347D01*
X36987Y-16395D01*
X36973Y-16419D01*
X36944Y-16442D01*
X36873Y-16442D01*
X36844Y-16419D01*
X36830Y-16395D01*
X37102Y-16109D02*
X37173Y-16442D01*
X37245Y-16109D01*
G54D12*
X43250Y-16650D02*
X41930Y-16650D01*
X43250Y-16660D02*
X43250Y-16650D01*
X43250Y-18560D02*
X43250Y-16660D01*
X41740Y-18560D02*
X43250Y-18560D01*
X41740Y-18550D02*
X41740Y-18560D01*
X41740Y-16650D02*
X41740Y-18550D01*
X41930Y-16650D02*
X41740Y-16650D01*
G54D13*
X34428Y-11440D02*
X34653Y-11440D01*
X34540Y-11834D02*
X34540Y-11440D01*
X34859Y-11440D02*
X34934Y-11440D01*
X34971Y-11459D01*
X35009Y-11497D01*
X35028Y-11572D01*
X35028Y-11703D01*
X35009Y-11778D01*
X34971Y-11816D01*
X34934Y-11834D01*
X34859Y-11834D01*
X34821Y-11816D01*
X34784Y-11778D01*
X34765Y-11703D01*
X34765Y-11572D01*
X34784Y-11497D01*
X34821Y-11459D01*
X34859Y-11440D01*
X35197Y-11834D02*
X35197Y-11440D01*
X35347Y-11440D01*
X35384Y-11459D01*
X35403Y-11478D01*
X35422Y-11516D01*
X35422Y-11572D01*
X35403Y-11609D01*
X35384Y-11628D01*
X35347Y-11647D01*
X35197Y-11647D01*
X35872Y-11816D02*
X35928Y-11834D01*
X36022Y-11834D01*
X36060Y-11816D01*
X36078Y-11797D01*
X36097Y-11759D01*
X36097Y-11722D01*
X36078Y-11684D01*
X36060Y-11666D01*
X36022Y-11647D01*
X35947Y-11628D01*
X35910Y-11609D01*
X35891Y-11591D01*
X35872Y-11553D01*
X35872Y-11516D01*
X35891Y-11478D01*
X35910Y-11459D01*
X35947Y-11440D01*
X36041Y-11440D01*
X36097Y-11459D01*
X36266Y-11834D02*
X36266Y-11440D01*
X36454Y-11834D02*
X36454Y-11440D01*
X36548Y-11440D01*
X36604Y-11459D01*
X36641Y-11497D01*
X36660Y-11534D01*
X36679Y-11609D01*
X36679Y-11666D01*
X36660Y-11741D01*
X36641Y-11778D01*
X36604Y-11816D01*
X36548Y-11834D01*
X36454Y-11834D01*
X36848Y-11628D02*
X36979Y-11628D01*
X37035Y-11834D02*
X36848Y-11834D01*
X36848Y-11440D01*
X37035Y-11440D01*
G54D14*
X32789Y-10150D02*
X32775Y-10283D01*
X32737Y-10412D01*
X32673Y-10531D01*
X32588Y-10635D01*
X32485Y-10721D01*
X32366Y-10785D01*
X32238Y-10824D01*
X32104Y-10838D01*
X31971Y-10826D01*
X31842Y-10788D01*
X31723Y-10726D01*
X31618Y-10642D01*
X31532Y-10539D01*
X31467Y-10421D01*
X31427Y-10293D01*
X31412Y-10159D01*
X31423Y-10026D01*
X31460Y-09897D01*
X31521Y-09777D01*
X31605Y-09672D01*
X31707Y-09585D01*
X31825Y-09519D01*
X31953Y-09478D01*
X32086Y-09462D01*
X32219Y-09472D01*
X32349Y-09508D01*
X32469Y-09569D01*
X32575Y-09652D01*
X32663Y-09753D01*
X32729Y-09870D01*
X32771Y-09998D01*
X32788Y-10131D01*
X32789Y-10150D01*
X30722Y-10150D02*
X33478Y-10150D01*
X32100Y-08772D02*
X32100Y-11528D01*
X32789Y-24250D02*
X32775Y-24383D01*
X32737Y-24512D01*
X32673Y-24631D01*
X32588Y-24735D01*
X32485Y-24821D01*
X32366Y-24885D01*
X32238Y-24924D01*
X32104Y-24938D01*
X31971Y-24926D01*
X31842Y-24888D01*
X31723Y-24826D01*
X31618Y-24742D01*
X31532Y-24639D01*
X31467Y-24521D01*
X31427Y-24393D01*
X31412Y-24259D01*
X31423Y-24126D01*
X31460Y-23997D01*
X31521Y-23877D01*
X31605Y-23772D01*
X31707Y-23685D01*
X31825Y-23619D01*
X31953Y-23578D01*
X32086Y-23562D01*
X32219Y-23572D01*
X32349Y-23608D01*
X32469Y-23669D01*
X32575Y-23752D01*
X32663Y-23853D01*
X32729Y-23970D01*
X32771Y-24098D01*
X32788Y-24231D01*
X32789Y-24250D01*
X30722Y-24250D02*
X33478Y-24250D01*
X32100Y-22872D02*
X32100Y-25628D01*
X54539Y-24250D02*
X54525Y-24383D01*
X54487Y-24512D01*
X54423Y-24631D01*
X54338Y-24735D01*
X54235Y-24821D01*
X54116Y-24885D01*
X53988Y-24924D01*
X53854Y-24938D01*
X53721Y-24926D01*
X53592Y-24888D01*
X53473Y-24826D01*
X53368Y-24742D01*
X53282Y-24639D01*
X53217Y-24521D01*
X53177Y-24393D01*
X53162Y-24259D01*
X53173Y-24126D01*
X53210Y-23997D01*
X53271Y-23877D01*
X53355Y-23772D01*
X53457Y-23685D01*
X53575Y-23619D01*
X53703Y-23578D01*
X53836Y-23562D01*
X53969Y-23572D01*
X54099Y-23608D01*
X54219Y-23669D01*
X54325Y-23752D01*
X54413Y-23853D01*
X54479Y-23970D01*
X54521Y-24098D01*
X54538Y-24231D01*
X54539Y-24250D01*
X52472Y-24250D02*
X55228Y-24250D01*
X53850Y-22872D02*
X53850Y-25628D01*
X54539Y-10150D02*
X54525Y-10283D01*
X54487Y-10412D01*
X54423Y-10531D01*
X54338Y-10635D01*
X54235Y-10721D01*
X54116Y-10785D01*
X53988Y-10824D01*
X53854Y-10838D01*
X53721Y-10826D01*
X53592Y-10788D01*
X53473Y-10726D01*
X53368Y-10642D01*
X53282Y-10539D01*
X53217Y-10421D01*
X53177Y-10293D01*
X53162Y-10159D01*
X53173Y-10026D01*
X53210Y-09897D01*
X53271Y-09777D01*
X53355Y-09672D01*
X53457Y-09585D01*
X53575Y-09519D01*
X53703Y-09478D01*
X53836Y-09462D01*
X53969Y-09472D01*
X54099Y-09508D01*
X54219Y-09569D01*
X54325Y-09652D01*
X54413Y-09753D01*
X54479Y-09870D01*
X54521Y-09998D01*
X54538Y-10131D01*
X54539Y-10150D01*
X52472Y-10150D02*
X55228Y-10150D01*
X53850Y-08772D02*
X53850Y-11528D01*
X52850Y-23250D02*
X33100Y-23250D01*
X33100Y-11150D02*
X52850Y-11150D01*
G54D15*
X49561Y-18884D02*
X49561Y-19026D01*
X49561Y-18955D02*
X49311Y-18955D01*
X49347Y-18979D01*
X49371Y-19003D01*
X49383Y-19026D01*
X49537Y-18776D02*
X49549Y-18765D01*
X49561Y-18776D01*
X49549Y-18788D01*
X49537Y-18776D01*
X49561Y-18776D01*
X49335Y-18669D02*
X49323Y-18657D01*
X49311Y-18634D01*
X49311Y-18574D01*
X49323Y-18550D01*
X49335Y-18538D01*
X49359Y-18527D01*
X49383Y-18527D01*
X49418Y-18538D01*
X49561Y-18681D01*
X49561Y-18527D01*
X49311Y-18455D02*
X49561Y-18372D01*
X49311Y-18289D01*
G54D11*
X50935Y-12700D02*
X50949Y-12676D01*
X50978Y-12652D01*
X51049Y-12652D01*
X51078Y-12676D01*
X51092Y-12700D01*
X51107Y-12748D01*
X51107Y-12795D01*
X51092Y-12867D01*
X50921Y-13152D01*
X51107Y-13152D01*
X51235Y-13105D02*
X51250Y-13129D01*
X51235Y-13152D01*
X51221Y-13129D01*
X51235Y-13105D01*
X51235Y-13152D01*
X51521Y-12652D02*
X51378Y-12652D01*
X51364Y-12890D01*
X51378Y-12867D01*
X51407Y-12843D01*
X51478Y-12843D01*
X51507Y-12867D01*
X51521Y-12890D01*
X51536Y-12938D01*
X51536Y-13057D01*
X51521Y-13105D01*
X51507Y-13129D01*
X51478Y-13152D01*
X51407Y-13152D01*
X51378Y-13129D01*
X51364Y-13105D01*
X51636Y-12819D02*
X51707Y-13152D01*
X51779Y-12819D01*
X41407Y-11652D02*
X41593Y-11652D01*
X41493Y-11843D01*
X41535Y-11843D01*
X41564Y-11867D01*
X41578Y-11890D01*
X41593Y-11938D01*
X41593Y-12057D01*
X41578Y-12105D01*
X41564Y-12129D01*
X41535Y-12152D01*
X41450Y-12152D01*
X41421Y-12129D01*
X41407Y-12105D01*
X41721Y-12105D02*
X41736Y-12129D01*
X41721Y-12152D01*
X41707Y-12129D01*
X41721Y-12105D01*
X41721Y-12152D01*
X41836Y-11652D02*
X42022Y-11652D01*
X41922Y-11843D01*
X41964Y-11843D01*
X41993Y-11867D01*
X42007Y-11890D01*
X42022Y-11938D01*
X42022Y-12057D01*
X42007Y-12105D01*
X41993Y-12129D01*
X41964Y-12152D01*
X41879Y-12152D01*
X41850Y-12129D01*
X41836Y-12105D01*
X42108Y-11652D02*
X42208Y-12152D01*
X42308Y-11652D01*
X34107Y-17402D02*
X33964Y-17402D01*
X33950Y-17640D01*
X33964Y-17617D01*
X33993Y-17593D01*
X34064Y-17593D01*
X34093Y-17617D01*
X34107Y-17640D01*
X34122Y-17688D01*
X34122Y-17807D01*
X34107Y-17855D01*
X34093Y-17879D01*
X34064Y-17902D01*
X33993Y-17902D01*
X33964Y-17879D01*
X33950Y-17855D01*
X34222Y-17569D02*
X34293Y-17902D01*
X34365Y-17569D01*
X33722Y-16426D02*
X33693Y-16402D01*
X33650Y-16402D01*
X33607Y-16426D01*
X33579Y-16474D01*
X33564Y-16521D01*
X33550Y-16617D01*
X33550Y-16688D01*
X33564Y-16783D01*
X33579Y-16831D01*
X33607Y-16879D01*
X33650Y-16902D01*
X33679Y-16902D01*
X33722Y-16879D01*
X33736Y-16855D01*
X33736Y-16688D01*
X33679Y-16688D01*
X33864Y-16902D02*
X33864Y-16402D01*
X34036Y-16902D01*
X34036Y-16402D01*
X34178Y-16902D02*
X34178Y-16402D01*
X34250Y-16402D01*
X34293Y-16426D01*
X34321Y-16474D01*
X34336Y-16521D01*
X34350Y-16617D01*
X34350Y-16688D01*
X34336Y-16783D01*
X34321Y-16831D01*
X34293Y-16879D01*
X34250Y-16902D01*
X34178Y-16902D01*
X33722Y-18426D02*
X33693Y-18402D01*
X33650Y-18402D01*
X33607Y-18426D01*
X33579Y-18474D01*
X33564Y-18521D01*
X33550Y-18617D01*
X33550Y-18688D01*
X33564Y-18783D01*
X33579Y-18831D01*
X33607Y-18879D01*
X33650Y-18902D01*
X33679Y-18902D01*
X33722Y-18879D01*
X33736Y-18855D01*
X33736Y-18688D01*
X33679Y-18688D01*
X33864Y-18902D02*
X33864Y-18402D01*
X34036Y-18902D01*
X34036Y-18402D01*
X34178Y-18902D02*
X34178Y-18402D01*
X34250Y-18402D01*
X34293Y-18426D01*
X34321Y-18474D01*
X34336Y-18521D01*
X34350Y-18617D01*
X34350Y-18688D01*
X34336Y-18783D01*
X34321Y-18831D01*
X34293Y-18879D01*
X34250Y-18902D01*
X34178Y-18902D01*
X34157Y-15402D02*
X34014Y-15402D01*
X34000Y-15640D01*
X34014Y-15617D01*
X34043Y-15593D01*
X34114Y-15593D01*
X34143Y-15617D01*
X34157Y-15640D01*
X34172Y-15688D01*
X34172Y-15807D01*
X34157Y-15855D01*
X34143Y-15879D01*
X34114Y-15902D01*
X34043Y-15902D01*
X34014Y-15879D01*
X34000Y-15855D01*
X34272Y-15569D02*
X34343Y-15902D01*
X34415Y-15569D01*
X50972Y-13966D02*
X50943Y-13942D01*
X50900Y-13942D01*
X50857Y-13966D01*
X50829Y-14014D01*
X50814Y-14061D01*
X50800Y-14157D01*
X50800Y-14228D01*
X50814Y-14323D01*
X50829Y-14371D01*
X50857Y-14419D01*
X50900Y-14442D01*
X50929Y-14442D01*
X50972Y-14419D01*
X50986Y-14395D01*
X50986Y-14228D01*
X50929Y-14228D01*
X51114Y-14442D02*
X51114Y-13942D01*
X51286Y-14442D01*
X51286Y-13942D01*
X51428Y-14442D02*
X51428Y-13942D01*
X51500Y-13942D01*
X51543Y-13966D01*
X51571Y-14014D01*
X51586Y-14061D01*
X51600Y-14157D01*
X51600Y-14228D01*
X51586Y-14323D01*
X51571Y-14371D01*
X51543Y-14419D01*
X51500Y-14442D01*
X51428Y-14442D01*
G54D16*
X51073Y-19362D02*
X50959Y-19362D01*
X51016Y-19362D02*
X51016Y-18962D01*
X50997Y-19019D01*
X50978Y-19057D01*
X50959Y-19076D01*
X51159Y-19324D02*
X51168Y-19343D01*
X51159Y-19362D01*
X51149Y-19343D01*
X51159Y-19324D01*
X51159Y-19362D01*
X51244Y-19000D02*
X51254Y-18981D01*
X51273Y-18962D01*
X51320Y-18962D01*
X51339Y-18981D01*
X51349Y-19000D01*
X51358Y-19038D01*
X51358Y-19076D01*
X51349Y-19133D01*
X51235Y-19362D01*
X51358Y-19362D01*
X51415Y-18962D02*
X51482Y-19362D01*
X51548Y-18962D01*
X51748Y-18962D02*
X51871Y-18962D01*
X51805Y-19114D01*
X51833Y-19114D01*
X51852Y-19133D01*
X51862Y-19152D01*
X51871Y-19190D01*
X51871Y-19286D01*
X51862Y-19324D01*
X51852Y-19343D01*
X51833Y-19362D01*
X51776Y-19362D01*
X51757Y-19343D01*
X51748Y-19324D01*
X51947Y-19248D02*
X52042Y-19248D01*
X51928Y-19362D02*
X51995Y-18962D01*
X52061Y-19362D01*
X51102Y-15000D02*
X51112Y-14981D01*
X51131Y-14962D01*
X51178Y-14962D01*
X51197Y-14981D01*
X51207Y-15000D01*
X51216Y-15038D01*
X51216Y-15076D01*
X51207Y-15133D01*
X51093Y-15362D01*
X51216Y-15362D01*
X51302Y-15324D02*
X51311Y-15343D01*
X51302Y-15362D01*
X51292Y-15343D01*
X51302Y-15324D01*
X51302Y-15362D01*
X51492Y-14962D02*
X51397Y-14962D01*
X51387Y-15152D01*
X51397Y-15133D01*
X51416Y-15114D01*
X51463Y-15114D01*
X51482Y-15133D01*
X51492Y-15152D01*
X51501Y-15190D01*
X51501Y-15286D01*
X51492Y-15324D01*
X51482Y-15343D01*
X51463Y-15362D01*
X51416Y-15362D01*
X51397Y-15343D01*
X51387Y-15324D01*
X51568Y-15095D02*
X51615Y-15362D01*
X51663Y-15095D01*
X51777Y-14962D02*
X51796Y-14962D01*
X51815Y-14981D01*
X51824Y-15000D01*
X51834Y-15038D01*
X51843Y-15114D01*
X51843Y-15210D01*
X51834Y-15286D01*
X51824Y-15324D01*
X51815Y-15343D01*
X51796Y-15362D01*
X51777Y-15362D01*
X51758Y-15343D01*
X51748Y-15324D01*
X51739Y-15286D01*
X51729Y-15210D01*
X51729Y-15114D01*
X51739Y-15038D01*
X51748Y-15000D01*
X51758Y-14981D01*
X51777Y-14962D01*
X51929Y-15324D02*
X51938Y-15343D01*
X51929Y-15362D01*
X51919Y-15343D01*
X51929Y-15324D01*
X51929Y-15362D01*
X52005Y-14962D02*
X52128Y-14962D01*
X52062Y-15114D01*
X52090Y-15114D01*
X52109Y-15133D01*
X52119Y-15152D01*
X52128Y-15190D01*
X52128Y-15286D01*
X52119Y-15324D01*
X52109Y-15343D01*
X52090Y-15362D01*
X52033Y-15362D01*
X52014Y-15343D01*
X52005Y-15324D01*
X52204Y-15248D02*
X52299Y-15248D01*
X52185Y-15362D02*
X52252Y-14962D01*
X52318Y-15362D01*
G54D11*
X50942Y-19931D02*
X50913Y-19907D01*
X50870Y-19907D01*
X50827Y-19931D01*
X50799Y-19979D01*
X50784Y-20026D01*
X50770Y-20122D01*
X50770Y-20193D01*
X50784Y-20288D01*
X50799Y-20336D01*
X50827Y-20384D01*
X50870Y-20407D01*
X50899Y-20407D01*
X50942Y-20384D01*
X50956Y-20360D01*
X50956Y-20193D01*
X50899Y-20193D01*
X51084Y-20407D02*
X51084Y-19907D01*
X51256Y-20407D01*
X51256Y-19907D01*
X51398Y-20407D02*
X51398Y-19907D01*
X51470Y-19907D01*
X51513Y-19931D01*
X51541Y-19979D01*
X51556Y-20026D01*
X51570Y-20122D01*
X51570Y-20193D01*
X51556Y-20288D01*
X51541Y-20336D01*
X51513Y-20384D01*
X51470Y-20407D01*
X51398Y-20407D01*
X50967Y-15936D02*
X50938Y-15912D01*
X50895Y-15912D01*
X50852Y-15936D01*
X50824Y-15984D01*
X50809Y-16031D01*
X50795Y-16127D01*
X50795Y-16198D01*
X50809Y-16293D01*
X50824Y-16341D01*
X50852Y-16389D01*
X50895Y-16412D01*
X50924Y-16412D01*
X50967Y-16389D01*
X50981Y-16365D01*
X50981Y-16198D01*
X50924Y-16198D01*
X51109Y-16412D02*
X51109Y-15912D01*
X51281Y-16412D01*
X51281Y-15912D01*
X51423Y-16412D02*
X51423Y-15912D01*
X51495Y-15912D01*
X51538Y-15936D01*
X51566Y-15984D01*
X51581Y-16031D01*
X51595Y-16127D01*
X51595Y-16198D01*
X51581Y-16293D01*
X51566Y-16341D01*
X51538Y-16389D01*
X51495Y-16412D01*
X51423Y-16412D01*
G54D16*
X50950Y-16962D02*
X51073Y-16962D01*
X51007Y-17114D01*
X51035Y-17114D01*
X51054Y-17133D01*
X51064Y-17152D01*
X51073Y-17190D01*
X51073Y-17286D01*
X51064Y-17324D01*
X51054Y-17343D01*
X51035Y-17362D01*
X50978Y-17362D01*
X50959Y-17343D01*
X50950Y-17324D01*
X51159Y-17324D02*
X51168Y-17343D01*
X51159Y-17362D01*
X51149Y-17343D01*
X51159Y-17324D01*
X51159Y-17362D01*
X51235Y-16962D02*
X51358Y-16962D01*
X51292Y-17114D01*
X51320Y-17114D01*
X51339Y-17133D01*
X51349Y-17152D01*
X51358Y-17190D01*
X51358Y-17286D01*
X51349Y-17324D01*
X51339Y-17343D01*
X51320Y-17362D01*
X51263Y-17362D01*
X51244Y-17343D01*
X51235Y-17324D01*
X51415Y-16962D02*
X51482Y-17362D01*
X51548Y-16962D01*
X51748Y-16962D02*
X51871Y-16962D01*
X51805Y-17114D01*
X51833Y-17114D01*
X51852Y-17133D01*
X51862Y-17152D01*
X51871Y-17190D01*
X51871Y-17286D01*
X51862Y-17324D01*
X51852Y-17343D01*
X51833Y-17362D01*
X51776Y-17362D01*
X51757Y-17343D01*
X51748Y-17324D01*
X51947Y-17248D02*
X52042Y-17248D01*
X51928Y-17362D02*
X51995Y-16962D01*
X52061Y-17362D01*
G54D11*
X50967Y-17926D02*
X50938Y-17902D01*
X50895Y-17902D01*
X50852Y-17926D01*
X50824Y-17974D01*
X50809Y-18021D01*
X50795Y-18117D01*
X50795Y-18188D01*
X50809Y-18283D01*
X50824Y-18331D01*
X50852Y-18379D01*
X50895Y-18402D01*
X50924Y-18402D01*
X50967Y-18379D01*
X50981Y-18355D01*
X50981Y-18188D01*
X50924Y-18188D01*
X51109Y-18402D02*
X51109Y-17902D01*
X51281Y-18402D01*
X51281Y-17902D01*
X51423Y-18402D02*
X51423Y-17902D01*
X51495Y-17902D01*
X51538Y-17926D01*
X51566Y-17974D01*
X51581Y-18021D01*
X51595Y-18117D01*
X51595Y-18188D01*
X51581Y-18283D01*
X51566Y-18331D01*
X51538Y-18379D01*
X51495Y-18402D01*
X51423Y-18402D01*
G54D14*
X33100Y-23250D02*
X33100Y-11150D01*
X52850Y-11150D02*
X52850Y-23250D01*
G54D11*
X34030Y-14300D02*
X34030Y-14550D01*
X34030Y-14550D02*
X34280Y-14550D01*
X35630Y-14300D02*
X35630Y-14550D01*
X35630Y-14550D02*
X35380Y-14550D01*
X34980Y-13500D02*
X34680Y-13500D01*
X35030Y-13250D02*
X34630Y-13250D01*
X34630Y-13250D02*
X34830Y-13450D01*
X34830Y-13450D02*
X35030Y-13250D01*
X35380Y-14300D02*
X35380Y-13750D01*
X35380Y-13750D02*
X34280Y-13750D01*
X34280Y-13750D02*
X34280Y-14300D01*
X35380Y-12500D02*
X35380Y-13050D01*
X35380Y-13050D02*
X34280Y-13050D01*
X34280Y-13050D02*
X34280Y-12500D01*
X34030Y-12500D02*
X34030Y-14300D01*
X34030Y-14300D02*
X34280Y-14300D01*
X34280Y-14300D02*
X34280Y-14700D01*
X34280Y-14700D02*
X35380Y-14700D01*
X35380Y-12100D02*
X35380Y-12500D01*
X35380Y-12500D02*
X35630Y-12500D01*
X35630Y-12500D02*
X35630Y-14300D01*
X34030Y-12500D02*
X34280Y-12500D01*
X34280Y-12500D02*
X34280Y-12100D01*
X35630Y-14300D02*
X35380Y-14300D01*
X35380Y-14300D02*
X35380Y-14700D01*
X34280Y-12100D02*
X35380Y-12100D01*
X48750Y-19250D02*
X48350Y-19250D01*
X46350Y-19500D02*
X46350Y-19250D01*
X46350Y-19250D02*
X46750Y-19250D01*
X48750Y-19500D02*
X48750Y-19250D01*
X47550Y-20650D02*
X47950Y-21200D01*
X47950Y-21200D02*
X47150Y-21200D01*
X47150Y-21200D02*
X47550Y-20650D01*
X48350Y-22350D02*
X48350Y-21800D01*
X48350Y-21800D02*
X46750Y-21800D01*
X46750Y-21800D02*
X46750Y-22350D01*
X46750Y-19500D02*
X46750Y-20050D01*
X46750Y-20050D02*
X46800Y-20050D01*
X48350Y-19500D02*
X48350Y-20050D01*
X48350Y-20050D02*
X46800Y-20050D01*
X48350Y-19150D02*
X46750Y-19150D01*
X46750Y-19150D02*
X46750Y-19500D01*
X46350Y-19500D02*
X46350Y-22350D01*
X46350Y-22350D02*
X46750Y-22350D01*
X46350Y-19500D02*
X46750Y-19500D01*
X48350Y-19500D02*
X48750Y-19500D01*
X48750Y-19500D02*
X48750Y-22350D01*
X48750Y-22350D02*
X48350Y-22350D01*
X48350Y-22700D02*
X48350Y-22350D01*
X46750Y-22700D02*
X48350Y-22700D01*
X46750Y-22350D02*
X46750Y-22700D01*
X48350Y-19500D02*
X48350Y-19150D01*
G54D17*
X47137Y-20507D02*
X47137Y-20625D01*
X47137Y-20625D02*
X47963Y-20625D01*
X47963Y-20507D02*
X47963Y-20625D01*
X47137Y-20507D02*
X47963Y-20507D01*
G54D11*
X34600Y-22750D02*
X35000Y-22750D01*
X37000Y-22500D02*
X37000Y-22750D01*
X37000Y-22750D02*
X36600Y-22750D01*
X34600Y-22500D02*
X34600Y-22750D01*
X35800Y-21350D02*
X35400Y-20800D01*
X35400Y-20800D02*
X36200Y-20800D01*
X36200Y-20800D02*
X35800Y-21350D01*
X35000Y-19650D02*
X35000Y-20200D01*
X35000Y-20200D02*
X36600Y-20200D01*
X36600Y-20200D02*
X36600Y-19650D01*
X36600Y-22500D02*
X36600Y-21950D01*
X36600Y-21950D02*
X36550Y-21950D01*
X35000Y-22500D02*
X35000Y-21950D01*
X35000Y-21950D02*
X36550Y-21950D01*
X35000Y-22850D02*
X36600Y-22850D01*
X36600Y-22850D02*
X36600Y-22500D01*
X37000Y-22500D02*
X37000Y-19650D01*
X37000Y-19650D02*
X36600Y-19650D01*
X37000Y-22500D02*
X36600Y-22500D01*
X35000Y-22500D02*
X34600Y-22500D01*
X34600Y-22500D02*
X34600Y-19650D01*
X34600Y-19650D02*
X35000Y-19650D01*
X35000Y-19300D02*
X35000Y-19650D01*
X36600Y-19300D02*
X35000Y-19300D01*
X36600Y-19650D02*
X36600Y-19300D01*
X35000Y-22500D02*
X35000Y-22850D01*
G54D17*
X36213Y-21493D02*
X36213Y-21375D01*
X36213Y-21375D02*
X35387Y-21375D01*
X35387Y-21493D02*
X35387Y-21375D01*
X36213Y-21493D02*
X35387Y-21493D01*
G54D11*
X47850Y-12500D02*
X47750Y-12500D01*
X47750Y-12500D02*
X47750Y-11950D01*
X47750Y-11950D02*
X47850Y-11950D01*
X48999Y-12001D02*
X48981Y-11984D01*
X48961Y-11969D01*
X48941Y-11956D01*
X48919Y-11945D01*
X48896Y-11936D01*
X48872Y-11928D01*
X48848Y-11923D01*
X48824Y-11920D01*
X48800Y-11918D01*
X48776Y-11920D01*
X48752Y-11923D01*
X48728Y-11928D01*
X48704Y-11936D01*
X48681Y-11945D01*
X48660Y-11956D01*
X48639Y-11969D01*
X48619Y-11984D01*
X48601Y-12001D01*
X48601Y-12399D02*
X48619Y-12416D01*
X48639Y-12431D01*
X48660Y-12444D01*
X48681Y-12455D01*
X48704Y-12464D01*
X48728Y-12472D01*
X48752Y-12477D01*
X48776Y-12480D01*
X48800Y-12482D01*
X48824Y-12480D01*
X48848Y-12477D01*
X48872Y-12472D01*
X48896Y-12464D01*
X48919Y-12455D01*
X48941Y-12444D01*
X48961Y-12431D01*
X48981Y-12416D01*
X48999Y-12399D01*
X49800Y-12650D02*
X47850Y-12650D01*
X47850Y-12650D02*
X47850Y-11750D01*
X47850Y-11750D02*
X49750Y-11750D01*
X49750Y-11750D02*
X49800Y-11750D01*
X49800Y-11750D02*
X49800Y-12650D01*
G54D17*
X48839Y-12161D02*
X48761Y-12161D01*
X48761Y-12161D02*
X48761Y-12239D01*
X48839Y-12239D02*
X48761Y-12239D01*
X48839Y-12161D02*
X48839Y-12239D01*
G54D11*
X43950Y-12500D02*
X43850Y-12500D01*
X43850Y-12500D02*
X43850Y-11950D01*
X43850Y-11950D02*
X43950Y-11950D01*
X45099Y-12001D02*
X45081Y-11984D01*
X45061Y-11969D01*
X45041Y-11956D01*
X45019Y-11945D01*
X44996Y-11936D01*
X44972Y-11928D01*
X44948Y-11923D01*
X44924Y-11920D01*
X44900Y-11918D01*
X44876Y-11920D01*
X44852Y-11923D01*
X44828Y-11928D01*
X44804Y-11936D01*
X44781Y-11945D01*
X44760Y-11956D01*
X44739Y-11969D01*
X44719Y-11984D01*
X44701Y-12001D01*
X44701Y-12399D02*
X44719Y-12416D01*
X44739Y-12431D01*
X44760Y-12444D01*
X44781Y-12455D01*
X44804Y-12464D01*
X44828Y-12472D01*
X44852Y-12477D01*
X44876Y-12480D01*
X44900Y-12482D01*
X44924Y-12480D01*
X44948Y-12477D01*
X44972Y-12472D01*
X44996Y-12464D01*
X45019Y-12455D01*
X45041Y-12444D01*
X45061Y-12431D01*
X45081Y-12416D01*
X45099Y-12399D01*
X45900Y-12650D02*
X43950Y-12650D01*
X43950Y-12650D02*
X43950Y-11750D01*
X43950Y-11750D02*
X45850Y-11750D01*
X45850Y-11750D02*
X45900Y-11750D01*
X45900Y-11750D02*
X45900Y-12650D01*
G54D17*
X44939Y-12161D02*
X44861Y-12161D01*
X44861Y-12161D02*
X44861Y-12239D01*
X44939Y-12239D02*
X44861Y-12239D01*
X44939Y-12161D02*
X44939Y-12239D01*
G54D11*
X42950Y-13550D02*
X43450Y-13550D01*
X45050Y-13550D02*
X45150Y-13550D01*
X45150Y-13550D02*
X45150Y-14350D01*
X45150Y-14350D02*
X45050Y-14350D01*
X44550Y-13550D02*
X45050Y-13550D01*
X45050Y-13550D02*
X45050Y-14350D01*
X45050Y-14350D02*
X44550Y-14350D01*
X42950Y-14350D02*
X43450Y-14350D01*
X42950Y-14350D02*
X42950Y-13550D01*
X46150Y-18750D02*
X46150Y-19250D01*
X46150Y-20850D02*
X46150Y-20950D01*
X46150Y-20950D02*
X45350Y-20950D01*
X45350Y-20950D02*
X45350Y-20850D01*
X46150Y-20350D02*
X46150Y-20850D01*
X46150Y-20850D02*
X45350Y-20850D01*
X45350Y-20850D02*
X45350Y-20350D01*
X45350Y-18750D02*
X45350Y-19250D01*
X45350Y-18750D02*
X46150Y-18750D01*
X37900Y-19100D02*
X38400Y-19100D01*
X40000Y-19100D02*
X40100Y-19100D01*
X40100Y-19100D02*
X40100Y-19900D01*
X40100Y-19900D02*
X40000Y-19900D01*
X39500Y-19100D02*
X40000Y-19100D01*
X40000Y-19100D02*
X40000Y-19900D01*
X40000Y-19900D02*
X39500Y-19900D01*
X37900Y-19900D02*
X38400Y-19900D01*
X37900Y-19900D02*
X37900Y-19100D01*
X37050Y-16749D02*
X37050Y-17149D01*
X35950Y-16749D02*
X37050Y-16749D01*
X35950Y-17149D02*
X35950Y-16749D01*
X37050Y-18625D02*
X37050Y-19025D01*
X37050Y-19025D02*
X35950Y-19025D01*
X35950Y-19025D02*
X35950Y-18625D01*
G54D17*
X36264Y-19039D02*
X36264Y-19088D01*
X36264Y-19088D02*
X36736Y-19088D01*
X36736Y-19039D02*
X36736Y-19088D01*
G54D11*
X48949Y-20850D02*
X49349Y-20850D01*
X48949Y-21950D02*
X48949Y-20850D01*
X49349Y-21950D02*
X48949Y-21950D01*
X50825Y-20850D02*
X51225Y-20850D01*
X51225Y-20850D02*
X51225Y-21950D01*
X51225Y-21950D02*
X50825Y-21950D01*
G54D17*
X51239Y-21636D02*
X51288Y-21636D01*
X51288Y-21636D02*
X51288Y-21164D01*
X51239Y-21164D02*
X51288Y-21164D01*
G54D11*
X38300Y-19001D02*
X38300Y-18601D01*
X39400Y-19001D02*
X38300Y-19001D01*
X39400Y-18601D02*
X39400Y-19001D01*
X38300Y-17125D02*
X38300Y-16725D01*
X38300Y-16725D02*
X39400Y-16725D01*
X39400Y-16725D02*
X39400Y-17125D01*
G54D17*
X39086Y-16711D02*
X39086Y-16662D01*
X39086Y-16662D02*
X38614Y-16662D01*
X38614Y-16711D02*
X38614Y-16662D01*
G54D11*
X38550Y-14493D02*
X38550Y-13707D01*
X38746Y-14100D02*
X38354Y-14100D01*
X39534Y-16127D02*
X37566Y-16127D01*
X37566Y-16127D02*
X36523Y-15084D01*
X39534Y-16127D02*
X40577Y-15084D01*
X40577Y-15084D02*
X40577Y-13116D01*
X40577Y-13116D02*
X39534Y-12073D01*
X39534Y-12073D02*
X37566Y-12073D01*
X37566Y-12073D02*
X36523Y-13116D01*
X36523Y-13116D02*
X36523Y-15084D01*
X46150Y-13650D02*
X45200Y-15250D01*
X45200Y-15250D02*
X45200Y-16750D01*
X45200Y-16750D02*
X46150Y-18350D01*
X48200Y-13650D02*
X49200Y-15250D01*
X49200Y-15250D02*
X49200Y-16750D01*
X49200Y-16750D02*
X48200Y-18350D01*
X48200Y-18350D02*
X46150Y-18350D01*
X46150Y-13650D02*
X48200Y-13650D01*
G54D17*
X46689Y-15804D02*
X46689Y-16196D01*
X46689Y-16196D02*
X47711Y-16196D01*
X47711Y-15804D02*
X47711Y-16196D01*
X46689Y-15804D02*
X47711Y-15804D01*
G54D18*
X47200Y-17948D02*
X47200Y-14052D01*
G54D19*
X43215Y-16690D02*
X43215Y-18521D01*
X43215Y-18521D02*
X41778Y-18521D01*
X41778Y-18521D02*
X41778Y-16690D01*
X41778Y-16690D02*
X43215Y-16690D01*
G54D11*
X49116Y-18550D02*
X49109Y-18611D01*
X49092Y-18670D01*
X49063Y-18724D01*
X49024Y-18772D01*
X48976Y-18811D01*
X48922Y-18841D01*
X48863Y-18859D01*
X48802Y-18865D01*
X48741Y-18860D01*
X48682Y-18842D01*
X48627Y-18814D01*
X48579Y-18775D01*
X48540Y-18728D01*
X48510Y-18674D01*
X48491Y-18615D01*
X48485Y-18554D01*
X48490Y-18493D01*
X48507Y-18434D01*
X48535Y-18379D01*
X48573Y-18331D01*
X48620Y-18291D01*
X48674Y-18261D01*
X48733Y-18242D01*
X48794Y-18235D01*
X48854Y-18239D01*
X48914Y-18256D01*
X48969Y-18284D01*
X49017Y-18322D01*
X49058Y-18368D01*
X49088Y-18422D01*
X49108Y-18480D01*
X49115Y-18542D01*
X49116Y-18550D01*
X50866Y-12200D02*
X50859Y-12261D01*
X50842Y-12320D01*
X50813Y-12374D01*
X50774Y-12422D01*
X50726Y-12461D01*
X50672Y-12491D01*
X50613Y-12509D01*
X50552Y-12515D01*
X50491Y-12510D01*
X50432Y-12492D01*
X50377Y-12464D01*
X50329Y-12425D01*
X50290Y-12378D01*
X50260Y-12324D01*
X50241Y-12265D01*
X50235Y-12204D01*
X50240Y-12143D01*
X50257Y-12084D01*
X50285Y-12029D01*
X50323Y-11981D01*
X50370Y-11941D01*
X50424Y-11911D01*
X50483Y-11892D01*
X50544Y-11885D01*
X50604Y-11889D01*
X50664Y-11906D01*
X50719Y-11934D01*
X50767Y-11972D01*
X50808Y-12018D01*
X50838Y-12072D01*
X50858Y-12130D01*
X50865Y-12192D01*
X50866Y-12200D01*
X36566Y-15700D02*
X36559Y-15761D01*
X36542Y-15820D01*
X36513Y-15874D01*
X36474Y-15922D01*
X36426Y-15961D01*
X36372Y-15991D01*
X36313Y-16009D01*
X36252Y-16015D01*
X36191Y-16010D01*
X36132Y-15992D01*
X36077Y-15964D01*
X36029Y-15925D01*
X35990Y-15878D01*
X35960Y-15824D01*
X35941Y-15765D01*
X35935Y-15704D01*
X35940Y-15643D01*
X35957Y-15584D01*
X35985Y-15529D01*
X36023Y-15481D01*
X36070Y-15441D01*
X36124Y-15411D01*
X36183Y-15392D01*
X36244Y-15385D01*
X36304Y-15389D01*
X36364Y-15406D01*
X36419Y-15434D01*
X36467Y-15472D01*
X36508Y-15518D01*
X36538Y-15572D01*
X36558Y-15630D01*
X36565Y-15692D01*
X36566Y-15700D01*
X44900Y-13300D02*
X44899Y-13309D01*
X44896Y-13319D01*
X44891Y-13327D01*
X44885Y-13335D01*
X44877Y-13341D01*
X44869Y-13346D01*
X44860Y-13348D01*
X44850Y-13349D01*
X44841Y-13349D01*
X44832Y-13346D01*
X44823Y-13341D01*
X44816Y-13335D01*
X44809Y-13328D01*
X44805Y-13319D01*
X44802Y-13310D01*
X44801Y-13300D01*
X44801Y-13291D01*
X44804Y-13282D01*
X44808Y-13273D01*
X44815Y-13266D01*
X44822Y-13259D01*
X44830Y-13255D01*
X44840Y-13252D01*
X44849Y-13251D01*
X44858Y-13251D01*
X44868Y-13254D01*
X44876Y-13258D01*
X44884Y-13264D01*
X44890Y-13272D01*
X44895Y-13280D01*
X44898Y-13289D01*
X44899Y-13299D01*
X44900Y-13300D01*
X45300Y-13300D02*
X44900Y-13300D01*
X44900Y-13300D02*
X44900Y-12700D01*
X44900Y-12700D02*
X45300Y-12700D01*
X45700Y-12700D02*
X46100Y-12700D01*
X46100Y-12700D02*
X46100Y-13300D01*
X46100Y-13300D02*
X45700Y-13300D01*
X38550Y-20750D02*
X38549Y-20759D01*
X38546Y-20769D01*
X38541Y-20777D01*
X38535Y-20785D01*
X38527Y-20791D01*
X38519Y-20796D01*
X38510Y-20798D01*
X38500Y-20799D01*
X38491Y-20799D01*
X38482Y-20796D01*
X38473Y-20791D01*
X38466Y-20785D01*
X38459Y-20778D01*
X38455Y-20769D01*
X38452Y-20760D01*
X38451Y-20750D01*
X38451Y-20741D01*
X38454Y-20732D01*
X38458Y-20723D01*
X38465Y-20716D01*
X38472Y-20709D01*
X38480Y-20705D01*
X38490Y-20702D01*
X38499Y-20701D01*
X38508Y-20701D01*
X38518Y-20704D01*
X38526Y-20708D01*
X38534Y-20714D01*
X38540Y-20722D01*
X38545Y-20730D01*
X38548Y-20739D01*
X38549Y-20749D01*
X38550Y-20750D01*
X38050Y-20750D02*
X38450Y-20750D01*
X38450Y-20750D02*
X38450Y-21350D01*
X38450Y-21350D02*
X38050Y-21350D01*
X37650Y-21350D02*
X37250Y-21350D01*
X37250Y-21350D02*
X37250Y-20750D01*
X37250Y-20750D02*
X37650Y-20750D01*
X37250Y-20600D02*
X37249Y-20609D01*
X37246Y-20619D01*
X37241Y-20627D01*
X37235Y-20635D01*
X37227Y-20641D01*
X37219Y-20646D01*
X37210Y-20648D01*
X37200Y-20649D01*
X37191Y-20649D01*
X37182Y-20646D01*
X37173Y-20641D01*
X37166Y-20635D01*
X37159Y-20628D01*
X37155Y-20619D01*
X37152Y-20610D01*
X37151Y-20600D01*
X37151Y-20591D01*
X37154Y-20582D01*
X37158Y-20573D01*
X37165Y-20566D01*
X37172Y-20559D01*
X37180Y-20555D01*
X37190Y-20552D01*
X37199Y-20551D01*
X37208Y-20551D01*
X37218Y-20554D01*
X37226Y-20558D01*
X37234Y-20564D01*
X37240Y-20572D01*
X37245Y-20580D01*
X37248Y-20589D01*
X37249Y-20599D01*
X37250Y-20600D01*
X37650Y-20600D02*
X37250Y-20600D01*
X37250Y-20600D02*
X37250Y-20000D01*
X37250Y-20000D02*
X37650Y-20000D01*
X38050Y-20000D02*
X38450Y-20000D01*
X38450Y-20000D02*
X38450Y-20600D01*
X38450Y-20600D02*
X38050Y-20600D01*
X42225Y-13900D02*
X42224Y-13909D01*
X42221Y-13919D01*
X42216Y-13927D01*
X42210Y-13935D01*
X42202Y-13941D01*
X42194Y-13946D01*
X42185Y-13948D01*
X42175Y-13949D01*
X42166Y-13949D01*
X42157Y-13946D01*
X42148Y-13941D01*
X42141Y-13935D01*
X42134Y-13928D01*
X42130Y-13919D01*
X42127Y-13910D01*
X42126Y-13900D01*
X42126Y-13891D01*
X42129Y-13882D01*
X42133Y-13873D01*
X42140Y-13866D01*
X42147Y-13859D01*
X42155Y-13855D01*
X42165Y-13852D01*
X42174Y-13851D01*
X42183Y-13851D01*
X42193Y-13854D01*
X42201Y-13858D01*
X42209Y-13864D01*
X42215Y-13872D01*
X42220Y-13880D01*
X42223Y-13889D01*
X42224Y-13899D01*
X42225Y-13900D01*
X41725Y-13900D02*
X42125Y-13900D01*
X42125Y-13900D02*
X42125Y-14500D01*
X42125Y-14500D02*
X41725Y-14500D01*
X41325Y-14500D02*
X40925Y-14500D01*
X40925Y-14500D02*
X40925Y-13900D01*
X40925Y-13900D02*
X41325Y-13900D01*
X48200Y-13300D02*
X48199Y-13309D01*
X48196Y-13319D01*
X48191Y-13327D01*
X48185Y-13335D01*
X48177Y-13341D01*
X48169Y-13346D01*
X48160Y-13348D01*
X48150Y-13349D01*
X48141Y-13349D01*
X48132Y-13346D01*
X48123Y-13341D01*
X48116Y-13335D01*
X48109Y-13328D01*
X48105Y-13319D01*
X48102Y-13310D01*
X48101Y-13300D01*
X48101Y-13291D01*
X48104Y-13282D01*
X48108Y-13273D01*
X48115Y-13266D01*
X48122Y-13259D01*
X48130Y-13255D01*
X48140Y-13252D01*
X48149Y-13251D01*
X48158Y-13251D01*
X48168Y-13254D01*
X48176Y-13258D01*
X48184Y-13264D01*
X48190Y-13272D01*
X48195Y-13280D01*
X48198Y-13289D01*
X48199Y-13299D01*
X48200Y-13300D01*
X48600Y-13300D02*
X48200Y-13300D01*
X48200Y-13300D02*
X48200Y-12700D01*
X48200Y-12700D02*
X48600Y-12700D01*
X49000Y-12700D02*
X49400Y-12700D01*
X49400Y-12700D02*
X49400Y-13300D01*
X49400Y-13300D02*
X49000Y-13300D01*
X41550Y-15950D02*
X41549Y-15959D01*
X41546Y-15969D01*
X41541Y-15977D01*
X41535Y-15985D01*
X41527Y-15991D01*
X41519Y-15996D01*
X41510Y-15998D01*
X41500Y-15999D01*
X41491Y-15999D01*
X41482Y-15996D01*
X41473Y-15991D01*
X41466Y-15985D01*
X41459Y-15978D01*
X41455Y-15969D01*
X41452Y-15960D01*
X41451Y-15950D01*
X41451Y-15941D01*
X41454Y-15932D01*
X41458Y-15923D01*
X41465Y-15916D01*
X41472Y-15909D01*
X41480Y-15905D01*
X41490Y-15902D01*
X41499Y-15901D01*
X41508Y-15901D01*
X41518Y-15904D01*
X41526Y-15908D01*
X41534Y-15914D01*
X41540Y-15922D01*
X41545Y-15930D01*
X41548Y-15939D01*
X41549Y-15949D01*
X41550Y-15950D01*
X41500Y-15500D02*
X41500Y-15900D01*
X41500Y-15900D02*
X40900Y-15900D01*
X40900Y-15900D02*
X40900Y-15500D01*
X40900Y-15100D02*
X40900Y-14700D01*
X40900Y-14700D02*
X41500Y-14700D01*
X41500Y-14700D02*
X41500Y-15100D01*
X41650Y-14650D02*
X41649Y-14659D01*
X41646Y-14669D01*
X41641Y-14677D01*
X41635Y-14685D01*
X41627Y-14691D01*
X41619Y-14696D01*
X41610Y-14698D01*
X41600Y-14699D01*
X41591Y-14699D01*
X41582Y-14696D01*
X41573Y-14691D01*
X41566Y-14685D01*
X41559Y-14678D01*
X41555Y-14669D01*
X41552Y-14660D01*
X41551Y-14650D01*
X41551Y-14641D01*
X41554Y-14632D01*
X41558Y-14623D01*
X41565Y-14616D01*
X41572Y-14609D01*
X41580Y-14605D01*
X41590Y-14602D01*
X41599Y-14601D01*
X41608Y-14601D01*
X41618Y-14604D01*
X41626Y-14608D01*
X41634Y-14614D01*
X41640Y-14622D01*
X41645Y-14630D01*
X41648Y-14639D01*
X41649Y-14649D01*
X41650Y-14650D01*
X41600Y-15100D02*
X41600Y-14700D01*
X41600Y-14700D02*
X42200Y-14700D01*
X42200Y-14700D02*
X42200Y-15100D01*
X42200Y-15500D02*
X42200Y-15900D01*
X42200Y-15900D02*
X41600Y-15900D01*
X41600Y-15900D02*
X41600Y-15500D01*
X41150Y-16000D02*
X41149Y-16009D01*
X41146Y-16019D01*
X41141Y-16027D01*
X41135Y-16035D01*
X41127Y-16041D01*
X41119Y-16046D01*
X41110Y-16048D01*
X41100Y-16049D01*
X41091Y-16049D01*
X41082Y-16046D01*
X41073Y-16041D01*
X41066Y-16035D01*
X41059Y-16028D01*
X41055Y-16019D01*
X41052Y-16010D01*
X41051Y-16000D01*
X41051Y-15991D01*
X41054Y-15982D01*
X41058Y-15973D01*
X41065Y-15966D01*
X41072Y-15959D01*
X41080Y-15955D01*
X41090Y-15952D01*
X41099Y-15951D01*
X41108Y-15951D01*
X41118Y-15954D01*
X41126Y-15958D01*
X41134Y-15964D01*
X41140Y-15972D01*
X41145Y-15980D01*
X41148Y-15989D01*
X41149Y-15999D01*
X41150Y-16000D01*
X40650Y-16000D02*
X41050Y-16000D01*
X41050Y-16000D02*
X41050Y-16600D01*
X41050Y-16600D02*
X40650Y-16600D01*
X40250Y-16600D02*
X39850Y-16600D01*
X39850Y-16600D02*
X39850Y-16000D01*
X39850Y-16000D02*
X40250Y-16000D01*
X41125Y-16775D02*
X41124Y-16784D01*
X41121Y-16794D01*
X41116Y-16802D01*
X41110Y-16810D01*
X41102Y-16816D01*
X41094Y-16821D01*
X41085Y-16823D01*
X41075Y-16824D01*
X41066Y-16824D01*
X41057Y-16821D01*
X41048Y-16816D01*
X41041Y-16810D01*
X41034Y-16803D01*
X41030Y-16794D01*
X41027Y-16785D01*
X41026Y-16775D01*
X41026Y-16766D01*
X41029Y-16757D01*
X41033Y-16748D01*
X41040Y-16741D01*
X41047Y-16734D01*
X41055Y-16730D01*
X41065Y-16727D01*
X41074Y-16726D01*
X41083Y-16726D01*
X41093Y-16729D01*
X41101Y-16733D01*
X41109Y-16739D01*
X41115Y-16747D01*
X41120Y-16755D01*
X41123Y-16764D01*
X41124Y-16774D01*
X41125Y-16775D01*
X40625Y-16775D02*
X41025Y-16775D01*
X41025Y-16775D02*
X41025Y-17375D01*
X41025Y-17375D02*
X40625Y-17375D01*
X40225Y-17375D02*
X39825Y-17375D01*
X39825Y-17375D02*
X39825Y-16775D01*
X39825Y-16775D02*
X40225Y-16775D01*
X43775Y-17125D02*
X43774Y-17134D01*
X43771Y-17144D01*
X43766Y-17152D01*
X43760Y-17160D01*
X43752Y-17166D01*
X43744Y-17171D01*
X43735Y-17173D01*
X43725Y-17174D01*
X43716Y-17174D01*
X43707Y-17171D01*
X43698Y-17166D01*
X43691Y-17160D01*
X43684Y-17153D01*
X43680Y-17144D01*
X43677Y-17135D01*
X43676Y-17125D01*
X43676Y-17116D01*
X43679Y-17107D01*
X43683Y-17098D01*
X43690Y-17091D01*
X43697Y-17084D01*
X43705Y-17080D01*
X43715Y-17077D01*
X43724Y-17076D01*
X43733Y-17076D01*
X43743Y-17079D01*
X43751Y-17083D01*
X43759Y-17089D01*
X43765Y-17097D01*
X43770Y-17105D01*
X43773Y-17114D01*
X43774Y-17124D01*
X43775Y-17125D01*
X44175Y-17125D02*
X43775Y-17125D01*
X43775Y-17125D02*
X43775Y-16525D01*
X43775Y-16525D02*
X44175Y-16525D01*
X44575Y-16525D02*
X44975Y-16525D01*
X44975Y-16525D02*
X44975Y-17125D01*
X44975Y-17125D02*
X44575Y-17125D01*
X37250Y-22100D02*
X37249Y-22109D01*
X37246Y-22119D01*
X37241Y-22127D01*
X37235Y-22135D01*
X37227Y-22141D01*
X37219Y-22146D01*
X37210Y-22148D01*
X37200Y-22149D01*
X37191Y-22149D01*
X37182Y-22146D01*
X37173Y-22141D01*
X37166Y-22135D01*
X37159Y-22128D01*
X37155Y-22119D01*
X37152Y-22110D01*
X37151Y-22100D01*
X37151Y-22091D01*
X37154Y-22082D01*
X37158Y-22073D01*
X37165Y-22066D01*
X37172Y-22059D01*
X37180Y-22055D01*
X37190Y-22052D01*
X37199Y-22051D01*
X37208Y-22051D01*
X37218Y-22054D01*
X37226Y-22058D01*
X37234Y-22064D01*
X37240Y-22072D01*
X37245Y-22080D01*
X37248Y-22089D01*
X37249Y-22099D01*
X37250Y-22100D01*
X37650Y-22100D02*
X37250Y-22100D01*
X37250Y-22100D02*
X37250Y-21500D01*
X37250Y-21500D02*
X37650Y-21500D01*
X38050Y-21500D02*
X38450Y-21500D01*
X38450Y-21500D02*
X38450Y-22100D01*
X38450Y-22100D02*
X38050Y-22100D01*
X43800Y-16100D02*
X43799Y-16109D01*
X43796Y-16119D01*
X43791Y-16127D01*
X43785Y-16135D01*
X43777Y-16141D01*
X43769Y-16146D01*
X43760Y-16148D01*
X43750Y-16149D01*
X43741Y-16149D01*
X43732Y-16146D01*
X43723Y-16141D01*
X43716Y-16135D01*
X43709Y-16128D01*
X43705Y-16119D01*
X43702Y-16110D01*
X43701Y-16100D01*
X43701Y-16091D01*
X43704Y-16082D01*
X43708Y-16073D01*
X43715Y-16066D01*
X43722Y-16059D01*
X43730Y-16055D01*
X43740Y-16052D01*
X43749Y-16051D01*
X43758Y-16051D01*
X43768Y-16054D01*
X43776Y-16058D01*
X43784Y-16064D01*
X43790Y-16072D01*
X43795Y-16080D01*
X43798Y-16089D01*
X43799Y-16099D01*
X43800Y-16100D01*
X44200Y-16100D02*
X43800Y-16100D01*
X43800Y-16100D02*
X43800Y-15500D01*
X43800Y-15500D02*
X44200Y-15500D01*
X44600Y-15500D02*
X45000Y-15500D01*
X45000Y-15500D02*
X45000Y-16100D01*
X45000Y-16100D02*
X44600Y-16100D01*
X41000Y-17525D02*
X40999Y-17534D01*
X40996Y-17544D01*
X40991Y-17552D01*
X40985Y-17560D01*
X40977Y-17566D01*
X40969Y-17571D01*
X40960Y-17573D01*
X40950Y-17574D01*
X40941Y-17574D01*
X40932Y-17571D01*
X40923Y-17566D01*
X40916Y-17560D01*
X40909Y-17553D01*
X40905Y-17544D01*
X40902Y-17535D01*
X40901Y-17525D01*
X40901Y-17516D01*
X40904Y-17507D01*
X40908Y-17498D01*
X40915Y-17491D01*
X40922Y-17484D01*
X40930Y-17480D01*
X40940Y-17477D01*
X40949Y-17476D01*
X40958Y-17476D01*
X40968Y-17479D01*
X40976Y-17483D01*
X40984Y-17489D01*
X40990Y-17497D01*
X40995Y-17505D01*
X40998Y-17514D01*
X40999Y-17524D01*
X41000Y-17525D01*
X40500Y-17525D02*
X40900Y-17525D01*
X40900Y-17525D02*
X40900Y-18125D01*
X40900Y-18125D02*
X40500Y-18125D01*
X40100Y-18125D02*
X39700Y-18125D01*
X39700Y-18125D02*
X39700Y-17525D01*
X39700Y-17525D02*
X40100Y-17525D01*
X44000Y-17825D02*
X43999Y-17834D01*
X43996Y-17844D01*
X43991Y-17852D01*
X43985Y-17860D01*
X43977Y-17866D01*
X43969Y-17871D01*
X43960Y-17873D01*
X43950Y-17874D01*
X43941Y-17874D01*
X43932Y-17871D01*
X43923Y-17866D01*
X43916Y-17860D01*
X43909Y-17853D01*
X43905Y-17844D01*
X43902Y-17835D01*
X43901Y-17825D01*
X43901Y-17816D01*
X43904Y-17807D01*
X43908Y-17798D01*
X43915Y-17791D01*
X43922Y-17784D01*
X43930Y-17780D01*
X43940Y-17777D01*
X43949Y-17776D01*
X43958Y-17776D01*
X43968Y-17779D01*
X43976Y-17783D01*
X43984Y-17789D01*
X43990Y-17797D01*
X43995Y-17805D01*
X43998Y-17814D01*
X43999Y-17824D01*
X44000Y-17825D01*
X44400Y-17825D02*
X44000Y-17825D01*
X44000Y-17825D02*
X44000Y-17225D01*
X44000Y-17225D02*
X44400Y-17225D01*
X44800Y-17225D02*
X45200Y-17225D01*
X45200Y-17225D02*
X45200Y-17825D01*
X45200Y-17825D02*
X44800Y-17825D01*
X43750Y-18800D02*
X43749Y-18809D01*
X43746Y-18819D01*
X43741Y-18827D01*
X43735Y-18835D01*
X43727Y-18841D01*
X43719Y-18846D01*
X43710Y-18848D01*
X43700Y-18849D01*
X43691Y-18849D01*
X43682Y-18846D01*
X43673Y-18841D01*
X43666Y-18835D01*
X43659Y-18828D01*
X43655Y-18819D01*
X43652Y-18810D01*
X43651Y-18800D01*
X43651Y-18791D01*
X43654Y-18782D01*
X43658Y-18773D01*
X43665Y-18766D01*
X43672Y-18759D01*
X43680Y-18755D01*
X43690Y-18752D01*
X43699Y-18751D01*
X43708Y-18751D01*
X43718Y-18754D01*
X43726Y-18758D01*
X43734Y-18764D01*
X43740Y-18772D01*
X43745Y-18780D01*
X43748Y-18789D01*
X43749Y-18799D01*
X43750Y-18800D01*
X44150Y-18800D02*
X43750Y-18800D01*
X43750Y-18800D02*
X43750Y-18200D01*
X43750Y-18200D02*
X44150Y-18200D01*
X44550Y-18200D02*
X44950Y-18200D01*
X44950Y-18200D02*
X44950Y-18800D01*
X44950Y-18800D02*
X44550Y-18800D01*
X41300Y-18400D02*
X41299Y-18409D01*
X41296Y-18419D01*
X41291Y-18427D01*
X41285Y-18435D01*
X41277Y-18441D01*
X41269Y-18446D01*
X41260Y-18448D01*
X41250Y-18449D01*
X41241Y-18449D01*
X41232Y-18446D01*
X41223Y-18441D01*
X41216Y-18435D01*
X41209Y-18428D01*
X41205Y-18419D01*
X41202Y-18410D01*
X41201Y-18400D01*
X41201Y-18391D01*
X41204Y-18382D01*
X41208Y-18373D01*
X41215Y-18366D01*
X41222Y-18359D01*
X41230Y-18355D01*
X41240Y-18352D01*
X41249Y-18351D01*
X41258Y-18351D01*
X41268Y-18354D01*
X41276Y-18358D01*
X41284Y-18364D01*
X41290Y-18372D01*
X41295Y-18380D01*
X41298Y-18389D01*
X41299Y-18399D01*
X41300Y-18400D01*
X40800Y-18400D02*
X41200Y-18400D01*
X41200Y-18400D02*
X41200Y-19000D01*
X41200Y-19000D02*
X40800Y-19000D01*
X40400Y-19000D02*
X40000Y-19000D01*
X40000Y-19000D02*
X40000Y-18400D01*
X40000Y-18400D02*
X40400Y-18400D01*
X43600Y-15900D02*
X43599Y-15909D01*
X43596Y-15919D01*
X43591Y-15927D01*
X43585Y-15935D01*
X43577Y-15941D01*
X43569Y-15946D01*
X43560Y-15948D01*
X43550Y-15949D01*
X43541Y-15949D01*
X43532Y-15946D01*
X43523Y-15941D01*
X43516Y-15935D01*
X43509Y-15928D01*
X43505Y-15919D01*
X43502Y-15910D01*
X43501Y-15900D01*
X43501Y-15891D01*
X43504Y-15882D01*
X43508Y-15873D01*
X43515Y-15866D01*
X43522Y-15859D01*
X43530Y-15855D01*
X43540Y-15852D01*
X43549Y-15851D01*
X43558Y-15851D01*
X43568Y-15854D01*
X43576Y-15858D01*
X43584Y-15864D01*
X43590Y-15872D01*
X43595Y-15880D01*
X43598Y-15889D01*
X43599Y-15899D01*
X43600Y-15900D01*
X43550Y-15450D02*
X43550Y-15850D01*
X43550Y-15850D02*
X42950Y-15850D01*
X42950Y-15850D02*
X42950Y-15450D01*
X42950Y-15050D02*
X42950Y-14650D01*
X42950Y-14650D02*
X43550Y-14650D01*
X43550Y-14650D02*
X43550Y-15050D01*
G54D12*
X41800Y-22450D02*
X40900Y-22450D01*
X40900Y-20750D02*
X41800Y-20750D01*
X39600Y-22450D02*
X38700Y-22450D01*
X38700Y-20750D02*
X39600Y-20750D01*
X38700Y-22450D02*
X38700Y-20750D01*
X41800Y-20750D02*
X41800Y-22450D01*
X42950Y-20950D02*
X43850Y-20950D01*
X43850Y-22650D02*
X42950Y-22650D01*
X45150Y-20950D02*
X46050Y-20950D01*
X46050Y-22650D02*
X45150Y-22650D01*
X46050Y-20950D02*
X46050Y-22650D01*
X42950Y-22650D02*
X42950Y-20950D01*
G54D11*
X43416Y-12200D02*
X43409Y-12261D01*
X43392Y-12320D01*
X43363Y-12374D01*
X43324Y-12422D01*
X43276Y-12461D01*
X43222Y-12491D01*
X43163Y-12509D01*
X43102Y-12515D01*
X43041Y-12510D01*
X42982Y-12492D01*
X42927Y-12464D01*
X42879Y-12425D01*
X42840Y-12378D01*
X42810Y-12324D01*
X42791Y-12265D01*
X42785Y-12204D01*
X42790Y-12143D01*
X42807Y-12084D01*
X42835Y-12029D01*
X42873Y-11981D01*
X42920Y-11941D01*
X42974Y-11911D01*
X43033Y-11892D01*
X43094Y-11885D01*
X43154Y-11889D01*
X43214Y-11906D01*
X43269Y-11934D01*
X43317Y-11972D01*
X43358Y-12018D01*
X43388Y-12072D01*
X43408Y-12130D01*
X43415Y-12192D01*
X43416Y-12200D01*
X41150Y-19450D02*
X41150Y-20650D01*
X41150Y-20650D02*
X40850Y-20650D01*
X40850Y-20650D02*
X40850Y-19450D01*
X40850Y-19450D02*
X41150Y-19450D01*
X43700Y-20650D02*
X43700Y-19450D01*
X43700Y-19450D02*
X44000Y-19450D01*
X44000Y-19450D02*
X44000Y-20650D01*
X44000Y-20650D02*
X43700Y-20650D01*
X36641Y-12325D02*
X36634Y-12386D01*
X36617Y-12445D01*
X36588Y-12499D01*
X36549Y-12547D01*
X36501Y-12586D01*
X36447Y-12616D01*
X36388Y-12634D01*
X36327Y-12640D01*
X36266Y-12635D01*
X36207Y-12617D01*
X36152Y-12589D01*
X36104Y-12550D01*
X36065Y-12503D01*
X36035Y-12449D01*
X36016Y-12390D01*
X36010Y-12329D01*
X36015Y-12268D01*
X36032Y-12209D01*
X36060Y-12154D01*
X36098Y-12106D01*
X36145Y-12066D01*
X36199Y-12036D01*
X36258Y-12017D01*
X36319Y-12010D01*
X36379Y-12014D01*
X36439Y-12031D01*
X36494Y-12059D01*
X36542Y-12097D01*
X36583Y-12143D01*
X36613Y-12197D01*
X36633Y-12255D01*
X36640Y-12317D01*
X36641Y-12325D01*
G54D15*
X33787Y-14009D02*
X33387Y-14009D01*
X33387Y-13950D01*
X33406Y-13914D01*
X33444Y-13890D01*
X33482Y-13879D01*
X33558Y-13867D01*
X33615Y-13867D01*
X33692Y-13879D01*
X33730Y-13890D01*
X33768Y-13914D01*
X33787Y-13950D01*
X33787Y-14009D01*
X33787Y-13629D02*
X33787Y-13771D01*
X33787Y-13700D02*
X33387Y-13700D01*
X33444Y-13724D01*
X33482Y-13748D01*
X33501Y-13771D01*
X49101Y-19684D02*
X48851Y-19684D01*
X48851Y-19625D01*
X48863Y-19589D01*
X48887Y-19565D01*
X48911Y-19554D01*
X48958Y-19542D01*
X48994Y-19542D01*
X49042Y-19554D01*
X49065Y-19565D01*
X49089Y-19589D01*
X49101Y-19625D01*
X49101Y-19684D01*
X48875Y-19446D02*
X48863Y-19434D01*
X48851Y-19411D01*
X48851Y-19351D01*
X48863Y-19327D01*
X48875Y-19315D01*
X48899Y-19304D01*
X48923Y-19304D01*
X48958Y-19315D01*
X49101Y-19458D01*
X49101Y-19304D01*
G54D20*
X46776Y-22217D02*
X46799Y-22145D01*
X46799Y-22026D01*
X46776Y-21979D01*
X46752Y-21955D01*
X46704Y-21931D01*
X46657Y-21931D01*
X46609Y-21955D01*
X46585Y-21979D01*
X46561Y-22026D01*
X46537Y-22122D01*
X46514Y-22169D01*
X46490Y-22193D01*
X46442Y-22217D01*
X46395Y-22217D01*
X46347Y-22193D01*
X46323Y-22169D01*
X46299Y-22122D01*
X46299Y-22002D01*
X46323Y-21931D01*
X46776Y-21741D02*
X46799Y-21669D01*
X46799Y-21550D01*
X46776Y-21503D01*
X46752Y-21479D01*
X46704Y-21455D01*
X46657Y-21455D01*
X46609Y-21479D01*
X46585Y-21503D01*
X46561Y-21550D01*
X46537Y-21646D01*
X46514Y-21693D01*
X46490Y-21717D01*
X46442Y-21741D01*
X46395Y-21741D01*
X46347Y-21717D01*
X46323Y-21693D01*
X46299Y-21646D01*
X46299Y-21526D01*
X46323Y-21455D01*
X46299Y-21289D02*
X46299Y-20979D01*
X46490Y-21146D01*
X46490Y-21074D01*
X46514Y-21027D01*
X46537Y-21003D01*
X46585Y-20979D01*
X46704Y-20979D01*
X46752Y-21003D01*
X46776Y-21027D01*
X46799Y-21074D01*
X46799Y-21217D01*
X46776Y-21265D01*
X46752Y-21289D01*
X46347Y-20789D02*
X46323Y-20765D01*
X46299Y-20717D01*
X46299Y-20598D01*
X46323Y-20551D01*
X46347Y-20527D01*
X46395Y-20503D01*
X46442Y-20503D01*
X46514Y-20527D01*
X46799Y-20813D01*
X46799Y-20503D01*
G54D15*
X34276Y-21239D02*
X34026Y-21239D01*
X34026Y-21180D01*
X34038Y-21144D01*
X34062Y-21120D01*
X34086Y-21109D01*
X34133Y-21097D01*
X34169Y-21097D01*
X34217Y-21109D01*
X34240Y-21120D01*
X34264Y-21144D01*
X34276Y-21180D01*
X34276Y-21239D01*
X34026Y-21013D02*
X34026Y-20859D01*
X34121Y-20942D01*
X34121Y-20906D01*
X34133Y-20882D01*
X34145Y-20870D01*
X34169Y-20859D01*
X34229Y-20859D01*
X34252Y-20870D01*
X34264Y-20882D01*
X34276Y-20906D01*
X34276Y-20978D01*
X34264Y-21001D01*
X34252Y-21013D01*
G54D20*
X36932Y-21497D02*
X36955Y-21425D01*
X36955Y-21306D01*
X36932Y-21259D01*
X36908Y-21235D01*
X36860Y-21211D01*
X36813Y-21211D01*
X36765Y-21235D01*
X36741Y-21259D01*
X36717Y-21306D01*
X36693Y-21402D01*
X36670Y-21449D01*
X36646Y-21473D01*
X36598Y-21497D01*
X36551Y-21497D01*
X36503Y-21473D01*
X36479Y-21449D01*
X36455Y-21402D01*
X36455Y-21282D01*
X36479Y-21211D01*
X36932Y-21021D02*
X36955Y-20949D01*
X36955Y-20830D01*
X36932Y-20783D01*
X36908Y-20759D01*
X36860Y-20735D01*
X36813Y-20735D01*
X36765Y-20759D01*
X36741Y-20783D01*
X36717Y-20830D01*
X36693Y-20926D01*
X36670Y-20973D01*
X36646Y-20997D01*
X36598Y-21021D01*
X36551Y-21021D01*
X36503Y-20997D01*
X36479Y-20973D01*
X36455Y-20926D01*
X36455Y-20806D01*
X36479Y-20735D01*
X36455Y-20569D02*
X36455Y-20259D01*
X36646Y-20426D01*
X36646Y-20354D01*
X36670Y-20307D01*
X36693Y-20283D01*
X36741Y-20259D01*
X36860Y-20259D01*
X36908Y-20283D01*
X36932Y-20307D01*
X36955Y-20354D01*
X36955Y-20497D01*
X36932Y-20545D01*
X36908Y-20569D01*
X36503Y-20069D02*
X36479Y-20045D01*
X36455Y-19997D01*
X36455Y-19878D01*
X36479Y-19831D01*
X36503Y-19807D01*
X36551Y-19783D01*
X36598Y-19783D01*
X36670Y-19807D01*
X36955Y-20093D01*
X36955Y-19783D01*
G54D15*
X47146Y-12611D02*
X47146Y-12361D01*
X47205Y-12361D01*
X47241Y-12373D01*
X47265Y-12397D01*
X47276Y-12421D01*
X47288Y-12468D01*
X47288Y-12504D01*
X47276Y-12552D01*
X47265Y-12575D01*
X47241Y-12599D01*
X47205Y-12611D01*
X47146Y-12611D01*
X47503Y-12445D02*
X47503Y-12611D01*
X47443Y-12349D02*
X47384Y-12528D01*
X47538Y-12528D01*
G54D20*
X47479Y-11652D02*
X47241Y-11652D01*
X47241Y-11152D01*
X47646Y-11390D02*
X47813Y-11390D01*
X47884Y-11652D02*
X47646Y-11652D01*
X47646Y-11152D01*
X47884Y-11152D01*
X48098Y-11652D02*
X48098Y-11152D01*
X48217Y-11152D01*
X48289Y-11176D01*
X48336Y-11224D01*
X48360Y-11271D01*
X48384Y-11367D01*
X48384Y-11438D01*
X48360Y-11533D01*
X48336Y-11581D01*
X48289Y-11629D01*
X48217Y-11652D01*
X48098Y-11652D01*
G54D15*
X43866Y-13061D02*
X43866Y-12811D01*
X43925Y-12811D01*
X43961Y-12823D01*
X43985Y-12847D01*
X43996Y-12871D01*
X44008Y-12918D01*
X44008Y-12954D01*
X43996Y-13002D01*
X43985Y-13025D01*
X43961Y-13049D01*
X43925Y-13061D01*
X43866Y-13061D01*
X44235Y-12811D02*
X44116Y-12811D01*
X44104Y-12930D01*
X44116Y-12918D01*
X44139Y-12906D01*
X44199Y-12906D01*
X44223Y-12918D01*
X44235Y-12930D01*
X44246Y-12954D01*
X44246Y-13014D01*
X44235Y-13037D01*
X44223Y-13049D01*
X44199Y-13061D01*
X44139Y-13061D01*
X44116Y-13049D01*
X44104Y-13037D01*
G54D20*
X43579Y-11652D02*
X43341Y-11652D01*
X43341Y-11152D01*
X43746Y-11390D02*
X43913Y-11390D01*
X43984Y-11652D02*
X43746Y-11652D01*
X43746Y-11152D01*
X43984Y-11152D01*
X44198Y-11652D02*
X44198Y-11152D01*
X44317Y-11152D01*
X44389Y-11176D01*
X44436Y-11224D01*
X44460Y-11271D01*
X44484Y-11367D01*
X44484Y-11438D01*
X44460Y-11533D01*
X44436Y-11581D01*
X44389Y-11629D01*
X44317Y-11652D01*
X44198Y-11652D01*
G54D15*
X42878Y-13157D02*
X42866Y-13169D01*
X42831Y-13181D01*
X42807Y-13181D01*
X42771Y-13169D01*
X42747Y-13145D01*
X42736Y-13122D01*
X42724Y-13074D01*
X42724Y-13038D01*
X42736Y-12991D01*
X42747Y-12967D01*
X42771Y-12943D01*
X42807Y-12931D01*
X42831Y-12931D01*
X42866Y-12943D01*
X42878Y-12955D01*
X43021Y-13038D02*
X42997Y-13026D01*
X42986Y-13015D01*
X42974Y-12991D01*
X42974Y-12979D01*
X42986Y-12955D01*
X42997Y-12943D01*
X43021Y-12931D01*
X43069Y-12931D01*
X43093Y-12943D01*
X43105Y-12955D01*
X43116Y-12979D01*
X43116Y-12991D01*
X43105Y-13015D01*
X43093Y-13026D01*
X43069Y-13038D01*
X43021Y-13038D01*
X42997Y-13050D01*
X42986Y-13062D01*
X42974Y-13086D01*
X42974Y-13134D01*
X42986Y-13157D01*
X42997Y-13169D01*
X43021Y-13181D01*
X43069Y-13181D01*
X43093Y-13169D01*
X43105Y-13157D01*
X43116Y-13134D01*
X43116Y-13086D01*
X43105Y-13062D01*
X43093Y-13050D01*
X43069Y-13038D01*
G54D20*
X43649Y-14817D02*
X43363Y-14817D01*
X43506Y-14817D02*
X43506Y-14317D01*
X43458Y-14389D01*
X43411Y-14436D01*
X43363Y-14460D01*
X43958Y-14317D02*
X44006Y-14317D01*
X44054Y-14341D01*
X44077Y-14365D01*
X44101Y-14413D01*
X44125Y-14508D01*
X44125Y-14627D01*
X44101Y-14722D01*
X44077Y-14770D01*
X44054Y-14794D01*
X44006Y-14817D01*
X43958Y-14817D01*
X43911Y-14794D01*
X43887Y-14770D01*
X43863Y-14722D01*
X43839Y-14627D01*
X43839Y-14508D01*
X43863Y-14413D01*
X43887Y-14365D01*
X43911Y-14341D01*
X43958Y-14317D01*
X44553Y-14484D02*
X44553Y-14817D01*
X44339Y-14484D02*
X44339Y-14746D01*
X44363Y-14794D01*
X44410Y-14817D01*
X44482Y-14817D01*
X44530Y-14794D01*
X44553Y-14770D01*
X44720Y-14484D02*
X44910Y-14484D01*
X44791Y-14817D02*
X44791Y-14389D01*
X44815Y-14341D01*
X44862Y-14317D01*
X44910Y-14317D01*
X44958Y-14865D02*
X45339Y-14865D01*
X45672Y-14317D02*
X45577Y-14317D01*
X45529Y-14341D01*
X45506Y-14365D01*
X45458Y-14436D01*
X45434Y-14532D01*
X45434Y-14722D01*
X45458Y-14770D01*
X45482Y-14794D01*
X45529Y-14817D01*
X45625Y-14817D01*
X45672Y-14794D01*
X45696Y-14770D01*
X45720Y-14722D01*
X45720Y-14603D01*
X45696Y-14555D01*
X45672Y-14532D01*
X45625Y-14508D01*
X45529Y-14508D01*
X45482Y-14532D01*
X45458Y-14555D01*
X45434Y-14603D01*
X45886Y-14484D02*
X46005Y-14817D01*
X46125Y-14484D01*
G54D15*
X45177Y-19542D02*
X45189Y-19554D01*
X45201Y-19589D01*
X45201Y-19613D01*
X45189Y-19649D01*
X45165Y-19673D01*
X45142Y-19684D01*
X45094Y-19696D01*
X45058Y-19696D01*
X45011Y-19684D01*
X44987Y-19673D01*
X44963Y-19649D01*
X44951Y-19613D01*
X44951Y-19589D01*
X44963Y-19554D01*
X44975Y-19542D01*
X45201Y-19423D02*
X45201Y-19375D01*
X45189Y-19351D01*
X45177Y-19339D01*
X45142Y-19315D01*
X45094Y-19304D01*
X44999Y-19304D01*
X44975Y-19315D01*
X44963Y-19327D01*
X44951Y-19351D01*
X44951Y-19399D01*
X44963Y-19423D01*
X44975Y-19434D01*
X44999Y-19446D01*
X45058Y-19446D01*
X45082Y-19434D01*
X45094Y-19423D01*
X45106Y-19399D01*
X45106Y-19351D01*
X45094Y-19327D01*
X45082Y-19315D01*
X45058Y-19304D01*
G54D20*
X45287Y-21615D02*
X45287Y-21901D01*
X45287Y-21758D02*
X44787Y-21758D01*
X44859Y-21806D01*
X44906Y-21853D01*
X44930Y-21901D01*
X44787Y-21306D02*
X44787Y-21258D01*
X44811Y-21210D01*
X44835Y-21187D01*
X44883Y-21163D01*
X44978Y-21139D01*
X45097Y-21139D01*
X45192Y-21163D01*
X45240Y-21187D01*
X45264Y-21210D01*
X45287Y-21258D01*
X45287Y-21306D01*
X45264Y-21353D01*
X45240Y-21377D01*
X45192Y-21401D01*
X45097Y-21425D01*
X44978Y-21425D01*
X44883Y-21401D01*
X44835Y-21377D01*
X44811Y-21353D01*
X44787Y-21306D01*
X44954Y-20711D02*
X45287Y-20711D01*
X44954Y-20925D02*
X45216Y-20925D01*
X45264Y-20901D01*
X45287Y-20854D01*
X45287Y-20782D01*
X45264Y-20734D01*
X45240Y-20711D01*
X44954Y-20544D02*
X44954Y-20354D01*
X45287Y-20473D02*
X44859Y-20473D01*
X44811Y-20449D01*
X44787Y-20402D01*
X44787Y-20354D01*
X45335Y-20306D02*
X45335Y-19925D01*
X44787Y-19592D02*
X44787Y-19687D01*
X44811Y-19735D01*
X44835Y-19758D01*
X44906Y-19806D01*
X45002Y-19830D01*
X45192Y-19830D01*
X45240Y-19806D01*
X45264Y-19782D01*
X45287Y-19735D01*
X45287Y-19639D01*
X45264Y-19592D01*
X45240Y-19568D01*
X45192Y-19544D01*
X45073Y-19544D01*
X45025Y-19568D01*
X45002Y-19592D01*
X44978Y-19639D01*
X44978Y-19735D01*
X45002Y-19782D01*
X45025Y-19806D01*
X45073Y-19830D01*
X44954Y-19378D02*
X45287Y-19259D01*
X44954Y-19139D01*
G54D15*
X39239Y-20177D02*
X39227Y-20189D01*
X39192Y-20201D01*
X39168Y-20201D01*
X39132Y-20189D01*
X39108Y-20165D01*
X39097Y-20142D01*
X39085Y-20094D01*
X39085Y-20058D01*
X39097Y-20011D01*
X39108Y-19987D01*
X39132Y-19963D01*
X39168Y-19951D01*
X39192Y-19951D01*
X39227Y-19963D01*
X39239Y-19975D01*
X39477Y-20201D02*
X39335Y-20201D01*
X39406Y-20201D02*
X39406Y-19951D01*
X39382Y-19987D01*
X39358Y-20011D01*
X39335Y-20023D01*
X39632Y-19951D02*
X39656Y-19951D01*
X39680Y-19963D01*
X39692Y-19975D01*
X39704Y-19999D01*
X39715Y-20046D01*
X39715Y-20106D01*
X39704Y-20154D01*
X39692Y-20177D01*
X39680Y-20189D01*
X39656Y-20201D01*
X39632Y-20201D01*
X39608Y-20189D01*
X39596Y-20177D01*
X39585Y-20154D01*
X39573Y-20106D01*
X39573Y-20046D01*
X39585Y-19999D01*
X39596Y-19975D01*
X39608Y-19963D01*
X39632Y-19951D01*
G54D20*
X38599Y-20367D02*
X38313Y-20367D01*
X38456Y-20367D02*
X38456Y-19867D01*
X38408Y-19939D01*
X38361Y-19986D01*
X38313Y-20010D01*
X38908Y-19867D02*
X38956Y-19867D01*
X39004Y-19891D01*
X39027Y-19915D01*
X39051Y-19963D01*
X39075Y-20058D01*
X39075Y-20177D01*
X39051Y-20272D01*
X39027Y-20320D01*
X39004Y-20344D01*
X38956Y-20367D01*
X38908Y-20367D01*
X38861Y-20344D01*
X38837Y-20320D01*
X38813Y-20272D01*
X38789Y-20177D01*
X38789Y-20058D01*
X38813Y-19963D01*
X38837Y-19915D01*
X38861Y-19891D01*
X38908Y-19867D01*
X39503Y-20034D02*
X39503Y-20367D01*
X39289Y-20034D02*
X39289Y-20296D01*
X39313Y-20344D01*
X39360Y-20367D01*
X39432Y-20367D01*
X39480Y-20344D01*
X39503Y-20320D01*
X39670Y-20034D02*
X39860Y-20034D01*
X39741Y-20367D02*
X39741Y-19939D01*
X39765Y-19891D01*
X39812Y-19867D01*
X39860Y-19867D01*
X39908Y-20415D02*
X40289Y-20415D01*
X40622Y-19867D02*
X40527Y-19867D01*
X40479Y-19891D01*
X40456Y-19915D01*
X40408Y-19986D01*
X40384Y-20082D01*
X40384Y-20272D01*
X40408Y-20320D01*
X40432Y-20344D01*
X40479Y-20367D01*
X40575Y-20367D01*
X40622Y-20344D01*
X40646Y-20320D01*
X40670Y-20272D01*
X40670Y-20153D01*
X40646Y-20105D01*
X40622Y-20082D01*
X40575Y-20058D01*
X40479Y-20058D01*
X40432Y-20082D01*
X40408Y-20105D01*
X40384Y-20153D01*
X40836Y-20034D02*
X40955Y-20367D01*
X41075Y-20034D01*
G54D15*
X37358Y-18427D02*
X37346Y-18439D01*
X37311Y-18451D01*
X37287Y-18451D01*
X37251Y-18439D01*
X37227Y-18415D01*
X37216Y-18392D01*
X37204Y-18344D01*
X37204Y-18308D01*
X37216Y-18261D01*
X37227Y-18237D01*
X37251Y-18213D01*
X37287Y-18201D01*
X37311Y-18201D01*
X37346Y-18213D01*
X37358Y-18225D01*
X37596Y-18451D02*
X37454Y-18451D01*
X37525Y-18451D02*
X37525Y-18201D01*
X37501Y-18237D01*
X37477Y-18261D01*
X37454Y-18273D01*
G54D20*
X35801Y-19953D02*
X35801Y-20239D01*
X35801Y-20096D02*
X35301Y-20096D01*
X35373Y-20144D01*
X35420Y-20191D01*
X35444Y-20239D01*
X35301Y-19644D02*
X35301Y-19596D01*
X35325Y-19548D01*
X35349Y-19525D01*
X35397Y-19501D01*
X35492Y-19477D01*
X35611Y-19477D01*
X35706Y-19501D01*
X35754Y-19525D01*
X35778Y-19548D01*
X35801Y-19596D01*
X35801Y-19644D01*
X35778Y-19691D01*
X35754Y-19715D01*
X35706Y-19739D01*
X35611Y-19763D01*
X35492Y-19763D01*
X35397Y-19739D01*
X35349Y-19715D01*
X35325Y-19691D01*
X35301Y-19644D01*
X35301Y-19168D02*
X35301Y-19120D01*
X35325Y-19072D01*
X35349Y-19049D01*
X35397Y-19025D01*
X35492Y-19001D01*
X35611Y-19001D01*
X35706Y-19025D01*
X35754Y-19049D01*
X35778Y-19072D01*
X35801Y-19120D01*
X35801Y-19168D01*
X35778Y-19215D01*
X35754Y-19239D01*
X35706Y-19263D01*
X35611Y-19287D01*
X35492Y-19287D01*
X35397Y-19263D01*
X35349Y-19239D01*
X35325Y-19215D01*
X35301Y-19168D01*
X35468Y-18573D02*
X35801Y-18573D01*
X35468Y-18787D02*
X35730Y-18787D01*
X35778Y-18763D01*
X35801Y-18716D01*
X35801Y-18644D01*
X35778Y-18596D01*
X35754Y-18573D01*
X35468Y-18406D02*
X35468Y-18216D01*
X35801Y-18335D02*
X35373Y-18335D01*
X35325Y-18311D01*
X35301Y-18264D01*
X35301Y-18216D01*
X35849Y-18168D02*
X35849Y-17787D01*
X35301Y-17454D02*
X35301Y-17549D01*
X35325Y-17597D01*
X35349Y-17620D01*
X35420Y-17668D01*
X35516Y-17692D01*
X35706Y-17692D01*
X35754Y-17668D01*
X35778Y-17644D01*
X35801Y-17597D01*
X35801Y-17501D01*
X35778Y-17454D01*
X35754Y-17430D01*
X35706Y-17406D01*
X35587Y-17406D01*
X35539Y-17430D01*
X35516Y-17454D01*
X35492Y-17501D01*
X35492Y-17597D01*
X35516Y-17644D01*
X35539Y-17668D01*
X35587Y-17692D01*
X35468Y-17240D02*
X35801Y-17121D01*
X35468Y-17001D01*
G54D15*
X51577Y-21561D02*
X51589Y-21573D01*
X51601Y-21608D01*
X51601Y-21632D01*
X51589Y-21668D01*
X51565Y-21692D01*
X51542Y-21703D01*
X51494Y-21715D01*
X51458Y-21715D01*
X51411Y-21703D01*
X51387Y-21692D01*
X51363Y-21668D01*
X51351Y-21632D01*
X51351Y-21608D01*
X51363Y-21573D01*
X51375Y-21561D01*
X51601Y-21323D02*
X51601Y-21465D01*
X51601Y-21394D02*
X51351Y-21394D01*
X51387Y-21418D01*
X51411Y-21442D01*
X51423Y-21465D01*
X51375Y-21227D02*
X51363Y-21215D01*
X51351Y-21192D01*
X51351Y-21132D01*
X51363Y-21108D01*
X51375Y-21096D01*
X51399Y-21085D01*
X51423Y-21085D01*
X51458Y-21096D01*
X51601Y-21239D01*
X51601Y-21085D01*
G54D20*
X49511Y-22503D02*
X49225Y-22503D01*
X49368Y-22503D02*
X49368Y-22003D01*
X49320Y-22075D01*
X49273Y-22122D01*
X49225Y-22146D01*
X49820Y-22003D02*
X49868Y-22003D01*
X49916Y-22027D01*
X49939Y-22051D01*
X49963Y-22099D01*
X49987Y-22194D01*
X49987Y-22313D01*
X49963Y-22408D01*
X49939Y-22456D01*
X49916Y-22480D01*
X49868Y-22503D01*
X49820Y-22503D01*
X49773Y-22480D01*
X49749Y-22456D01*
X49725Y-22408D01*
X49701Y-22313D01*
X49701Y-22194D01*
X49725Y-22099D01*
X49749Y-22051D01*
X49773Y-22027D01*
X49820Y-22003D01*
X50296Y-22003D02*
X50344Y-22003D01*
X50392Y-22027D01*
X50415Y-22051D01*
X50439Y-22099D01*
X50463Y-22194D01*
X50463Y-22313D01*
X50439Y-22408D01*
X50415Y-22456D01*
X50392Y-22480D01*
X50344Y-22503D01*
X50296Y-22503D01*
X50249Y-22480D01*
X50225Y-22456D01*
X50201Y-22408D01*
X50177Y-22313D01*
X50177Y-22194D01*
X50201Y-22099D01*
X50225Y-22051D01*
X50249Y-22027D01*
X50296Y-22003D01*
X50891Y-22170D02*
X50891Y-22503D01*
X50677Y-22170D02*
X50677Y-22432D01*
X50701Y-22480D01*
X50748Y-22503D01*
X50820Y-22503D01*
X50868Y-22480D01*
X50891Y-22456D01*
X51058Y-22170D02*
X51248Y-22170D01*
X51129Y-22503D02*
X51129Y-22075D01*
X51153Y-22027D01*
X51200Y-22003D01*
X51248Y-22003D01*
X51296Y-22551D02*
X51677Y-22551D01*
X51748Y-22003D02*
X52058Y-22003D01*
X51891Y-22194D01*
X51963Y-22194D01*
X52010Y-22218D01*
X52034Y-22241D01*
X52058Y-22289D01*
X52058Y-22408D01*
X52034Y-22456D01*
X52010Y-22480D01*
X51963Y-22503D01*
X51820Y-22503D01*
X51772Y-22480D01*
X51748Y-22456D01*
X52224Y-22170D02*
X52343Y-22503D01*
X52463Y-22170D01*
G54D15*
X37739Y-17877D02*
X37727Y-17889D01*
X37692Y-17901D01*
X37668Y-17901D01*
X37632Y-17889D01*
X37608Y-17865D01*
X37597Y-17842D01*
X37585Y-17794D01*
X37585Y-17758D01*
X37597Y-17711D01*
X37608Y-17687D01*
X37632Y-17663D01*
X37668Y-17651D01*
X37692Y-17651D01*
X37727Y-17663D01*
X37739Y-17675D01*
X37977Y-17901D02*
X37835Y-17901D01*
X37906Y-17901D02*
X37906Y-17651D01*
X37882Y-17687D01*
X37858Y-17711D01*
X37835Y-17723D01*
X38061Y-17651D02*
X38215Y-17651D01*
X38132Y-17746D01*
X38168Y-17746D01*
X38192Y-17758D01*
X38204Y-17770D01*
X38215Y-17794D01*
X38215Y-17854D01*
X38204Y-17877D01*
X38192Y-17889D01*
X38168Y-17901D01*
X38096Y-17901D01*
X38073Y-17889D01*
X38061Y-17877D01*
G54D20*
X38430Y-17320D02*
X38144Y-17320D01*
X38287Y-17320D02*
X38287Y-16820D01*
X38239Y-16892D01*
X38192Y-16939D01*
X38144Y-16963D01*
X38739Y-16820D02*
X38787Y-16820D01*
X38835Y-16844D01*
X38858Y-16868D01*
X38882Y-16916D01*
X38906Y-17011D01*
X38906Y-17130D01*
X38882Y-17225D01*
X38858Y-17273D01*
X38835Y-17297D01*
X38787Y-17320D01*
X38739Y-17320D01*
X38692Y-17297D01*
X38668Y-17273D01*
X38644Y-17225D01*
X38620Y-17130D01*
X38620Y-17011D01*
X38644Y-16916D01*
X38668Y-16868D01*
X38692Y-16844D01*
X38739Y-16820D01*
X39215Y-16820D02*
X39263Y-16820D01*
X39311Y-16844D01*
X39334Y-16868D01*
X39358Y-16916D01*
X39382Y-17011D01*
X39382Y-17130D01*
X39358Y-17225D01*
X39334Y-17273D01*
X39311Y-17297D01*
X39263Y-17320D01*
X39215Y-17320D01*
X39168Y-17297D01*
X39144Y-17273D01*
X39120Y-17225D01*
X39096Y-17130D01*
X39096Y-17011D01*
X39120Y-16916D01*
X39144Y-16868D01*
X39168Y-16844D01*
X39215Y-16820D01*
X39810Y-16987D02*
X39810Y-17320D01*
X39596Y-16987D02*
X39596Y-17249D01*
X39620Y-17297D01*
X39667Y-17320D01*
X39739Y-17320D01*
X39787Y-17297D01*
X39810Y-17273D01*
X39977Y-16987D02*
X40167Y-16987D01*
X40048Y-17320D02*
X40048Y-16892D01*
X40072Y-16844D01*
X40119Y-16820D01*
X40167Y-16820D01*
X40215Y-17368D02*
X40596Y-17368D01*
X40667Y-16820D02*
X40977Y-16820D01*
X40810Y-17011D01*
X40882Y-17011D01*
X40929Y-17035D01*
X40953Y-17058D01*
X40977Y-17106D01*
X40977Y-17225D01*
X40953Y-17273D01*
X40929Y-17297D01*
X40882Y-17320D01*
X40739Y-17320D01*
X40691Y-17297D01*
X40667Y-17273D01*
X41143Y-16987D02*
X41262Y-17320D01*
X41382Y-16987D01*
X41127Y-13342D02*
X40889Y-13342D01*
X40889Y-12842D01*
X41270Y-12890D02*
X41294Y-12866D01*
X41342Y-12842D01*
X41461Y-12842D01*
X41508Y-12866D01*
X41532Y-12890D01*
X41556Y-12938D01*
X41556Y-12985D01*
X41532Y-13057D01*
X41246Y-13342D01*
X41556Y-13342D01*
X35845Y-14152D02*
X35845Y-14390D01*
X36083Y-14414D01*
X36060Y-14390D01*
X36036Y-14342D01*
X36036Y-14223D01*
X36060Y-14176D01*
X36083Y-14152D01*
X36131Y-14128D01*
X36250Y-14128D01*
X36298Y-14152D01*
X36322Y-14176D01*
X36345Y-14223D01*
X36345Y-14342D01*
X36322Y-14390D01*
X36298Y-14414D01*
X36012Y-13700D02*
X36345Y-13700D01*
X36012Y-13914D02*
X36274Y-13914D01*
X36322Y-13890D01*
X36345Y-13843D01*
X36345Y-13771D01*
X36322Y-13723D01*
X36298Y-13700D01*
X36345Y-13462D02*
X35845Y-13462D01*
X36083Y-13462D02*
X36083Y-13176D01*
X36345Y-13176D02*
X35845Y-13176D01*
X36012Y-12986D02*
X36345Y-12867D01*
X36012Y-12747D02*
X36345Y-12867D01*
X36464Y-12914D01*
X36488Y-12938D01*
X36512Y-12986D01*
X49307Y-14053D02*
X49307Y-14291D01*
X48807Y-14291D01*
X49307Y-13624D02*
X49307Y-13910D01*
X49307Y-13767D02*
X48807Y-13767D01*
X48879Y-13815D01*
X48926Y-13862D01*
X48950Y-13910D01*
X50152Y-16773D02*
X50152Y-17059D01*
X50152Y-16916D02*
X49652Y-16916D01*
X49724Y-16964D01*
X49771Y-17011D01*
X49795Y-17059D01*
X49652Y-16321D02*
X49652Y-16559D01*
X49890Y-16583D01*
X49867Y-16559D01*
X49843Y-16511D01*
X49843Y-16392D01*
X49867Y-16345D01*
X49890Y-16321D01*
X49938Y-16297D01*
X50057Y-16297D01*
X50105Y-16321D01*
X50129Y-16345D01*
X50152Y-16392D01*
X50152Y-16511D01*
X50129Y-16559D01*
X50105Y-16583D01*
X49819Y-15869D02*
X50152Y-15869D01*
X49819Y-16083D02*
X50081Y-16083D01*
X50129Y-16059D01*
X50152Y-16012D01*
X50152Y-15940D01*
X50129Y-15892D01*
X50105Y-15869D01*
X50152Y-15631D02*
X49652Y-15631D01*
X49890Y-15631D02*
X49890Y-15345D01*
X50152Y-15345D02*
X49652Y-15345D01*
X49819Y-15155D02*
X50152Y-15036D01*
X49819Y-14916D02*
X50152Y-15036D01*
X50271Y-15083D01*
X50295Y-15107D01*
X50319Y-15155D01*
G54D15*
X42330Y-16166D02*
X42330Y-16369D01*
X42341Y-16392D01*
X42353Y-16404D01*
X42377Y-16416D01*
X42425Y-16416D01*
X42449Y-16404D01*
X42460Y-16392D01*
X42472Y-16369D01*
X42472Y-16166D01*
X42722Y-16416D02*
X42580Y-16416D01*
X42651Y-16416D02*
X42651Y-16166D01*
X42627Y-16202D01*
X42603Y-16226D01*
X42580Y-16238D01*
X42281Y-20775D02*
X42281Y-20632D01*
X42531Y-20704D02*
X42281Y-20704D01*
X42531Y-20549D02*
X42281Y-20549D01*
X42281Y-20454D01*
X42293Y-20430D01*
X42305Y-20419D01*
X42329Y-20407D01*
X42365Y-20407D01*
X42388Y-20419D01*
X42400Y-20430D01*
X42412Y-20454D01*
X42412Y-20549D01*
X42519Y-20311D02*
X42531Y-20276D01*
X42531Y-20216D01*
X42519Y-20192D01*
X42507Y-20180D01*
X42484Y-20169D01*
X42460Y-20169D01*
X42436Y-20180D01*
X42424Y-20192D01*
X42412Y-20216D01*
X42400Y-20264D01*
X42388Y-20288D01*
X42376Y-20299D01*
X42353Y-20311D01*
X42329Y-20311D01*
X42305Y-20299D01*
X42293Y-20288D01*
X42281Y-20264D01*
X42281Y-20204D01*
X42293Y-20169D01*
X42281Y-20085D02*
X42281Y-19919D01*
X42531Y-20026D01*
X42281Y-19704D02*
X42281Y-19823D01*
X42400Y-19835D01*
X42388Y-19823D01*
X42376Y-19800D01*
X42376Y-19740D01*
X42388Y-19716D01*
X42400Y-19704D01*
X42424Y-19693D01*
X42484Y-19693D01*
X42507Y-19704D01*
X42519Y-19716D01*
X42531Y-19740D01*
X42531Y-19800D01*
X42519Y-19823D01*
X42507Y-19835D01*
X42281Y-19538D02*
X42281Y-19514D01*
X42293Y-19490D01*
X42305Y-19478D01*
X42329Y-19466D01*
X42376Y-19455D01*
X42436Y-19455D01*
X42484Y-19466D01*
X42507Y-19478D01*
X42519Y-19490D01*
X42531Y-19514D01*
X42531Y-19538D01*
X42519Y-19562D01*
X42507Y-19574D01*
X42484Y-19585D01*
X42436Y-19597D01*
X42376Y-19597D01*
X42329Y-19585D01*
X42305Y-19574D01*
X42293Y-19562D01*
X42281Y-19538D01*
X42281Y-19300D02*
X42281Y-19276D01*
X42293Y-19252D01*
X42305Y-19240D01*
X42329Y-19228D01*
X42376Y-19217D01*
X42436Y-19217D01*
X42484Y-19228D01*
X42507Y-19240D01*
X42519Y-19252D01*
X42531Y-19276D01*
X42531Y-19300D01*
X42519Y-19324D01*
X42507Y-19336D01*
X42484Y-19347D01*
X42436Y-19359D01*
X42376Y-19359D01*
X42329Y-19347D01*
X42305Y-19336D01*
X42293Y-19324D01*
X42281Y-19300D01*
X42281Y-19133D02*
X42281Y-18979D01*
X42376Y-19062D01*
X42376Y-19026D01*
X42388Y-19002D01*
X42400Y-18990D01*
X42424Y-18979D01*
X42484Y-18979D01*
X42507Y-18990D01*
X42519Y-19002D01*
X42531Y-19026D01*
X42531Y-19098D01*
X42519Y-19121D01*
X42507Y-19133D01*
G54D16*
X48903Y-18001D02*
X48903Y-17801D01*
X48979Y-17801D01*
X48998Y-17810D01*
X49007Y-17820D01*
X49017Y-17839D01*
X49017Y-17868D01*
X49007Y-17887D01*
X48998Y-17896D01*
X48979Y-17906D01*
X48903Y-17906D01*
X49188Y-17868D02*
X49188Y-18001D01*
X49141Y-17791D02*
X49093Y-17934D01*
X49217Y-17934D01*
X50403Y-11782D02*
X50403Y-11582D01*
X50479Y-11582D01*
X50498Y-11591D01*
X50507Y-11601D01*
X50517Y-11620D01*
X50517Y-11649D01*
X50507Y-11668D01*
X50498Y-11677D01*
X50479Y-11687D01*
X50403Y-11687D01*
X50584Y-11582D02*
X50707Y-11582D01*
X50641Y-11658D01*
X50669Y-11658D01*
X50688Y-11668D01*
X50698Y-11677D01*
X50707Y-11696D01*
X50707Y-11744D01*
X50698Y-11763D01*
X50688Y-11772D01*
X50669Y-11782D01*
X50612Y-11782D01*
X50593Y-11772D01*
X50584Y-11763D01*
X36103Y-15282D02*
X36103Y-15082D01*
X36179Y-15082D01*
X36198Y-15091D01*
X36207Y-15101D01*
X36217Y-15120D01*
X36217Y-15149D01*
X36207Y-15168D01*
X36198Y-15177D01*
X36179Y-15187D01*
X36103Y-15187D01*
X36407Y-15282D02*
X36293Y-15282D01*
X36350Y-15282D02*
X36350Y-15082D01*
X36331Y-15111D01*
X36312Y-15130D01*
X36293Y-15139D01*
G54D15*
X45504Y-13671D02*
X45421Y-13552D01*
X45362Y-13671D02*
X45362Y-13421D01*
X45457Y-13421D01*
X45481Y-13433D01*
X45492Y-13445D01*
X45504Y-13469D01*
X45504Y-13505D01*
X45492Y-13528D01*
X45481Y-13540D01*
X45457Y-13552D01*
X45362Y-13552D01*
X45742Y-13671D02*
X45600Y-13671D01*
X45671Y-13671D02*
X45671Y-13421D01*
X45647Y-13457D01*
X45623Y-13481D01*
X45600Y-13493D01*
X45838Y-13445D02*
X45850Y-13433D01*
X45873Y-13421D01*
X45933Y-13421D01*
X45957Y-13433D01*
X45969Y-13445D01*
X45980Y-13469D01*
X45980Y-13493D01*
X45969Y-13528D01*
X45826Y-13671D01*
X45980Y-13671D01*
X37639Y-22451D02*
X37556Y-22332D01*
X37497Y-22451D02*
X37497Y-22201D01*
X37592Y-22201D01*
X37616Y-22213D01*
X37627Y-22225D01*
X37639Y-22249D01*
X37639Y-22285D01*
X37627Y-22308D01*
X37616Y-22320D01*
X37592Y-22332D01*
X37497Y-22332D01*
X37877Y-22451D02*
X37735Y-22451D01*
X37806Y-22451D02*
X37806Y-22201D01*
X37782Y-22237D01*
X37758Y-22261D01*
X37735Y-22273D01*
X38115Y-22451D02*
X37973Y-22451D01*
X38044Y-22451D02*
X38044Y-22201D01*
X38020Y-22237D01*
X37996Y-22261D01*
X37973Y-22273D01*
X37239Y-19601D02*
X37156Y-19482D01*
X37097Y-19601D02*
X37097Y-19351D01*
X37192Y-19351D01*
X37216Y-19363D01*
X37227Y-19375D01*
X37239Y-19399D01*
X37239Y-19435D01*
X37227Y-19458D01*
X37216Y-19470D01*
X37192Y-19482D01*
X37097Y-19482D01*
X37477Y-19601D02*
X37335Y-19601D01*
X37406Y-19601D02*
X37406Y-19351D01*
X37382Y-19387D01*
X37358Y-19411D01*
X37335Y-19423D01*
X37632Y-19351D02*
X37656Y-19351D01*
X37680Y-19363D01*
X37692Y-19375D01*
X37704Y-19399D01*
X37715Y-19446D01*
X37715Y-19506D01*
X37704Y-19554D01*
X37692Y-19577D01*
X37680Y-19589D01*
X37656Y-19601D01*
X37632Y-19601D01*
X37608Y-19589D01*
X37596Y-19577D01*
X37585Y-19554D01*
X37573Y-19506D01*
X37573Y-19446D01*
X37585Y-19399D01*
X37596Y-19375D01*
X37608Y-19363D01*
X37632Y-19351D01*
X42018Y-13761D02*
X41935Y-13642D01*
X41876Y-13761D02*
X41876Y-13511D01*
X41971Y-13511D01*
X41995Y-13523D01*
X42006Y-13535D01*
X42018Y-13559D01*
X42018Y-13595D01*
X42006Y-13618D01*
X41995Y-13630D01*
X41971Y-13642D01*
X41876Y-13642D01*
X42137Y-13761D02*
X42185Y-13761D01*
X42209Y-13749D01*
X42221Y-13737D01*
X42245Y-13702D01*
X42256Y-13654D01*
X42256Y-13559D01*
X42245Y-13535D01*
X42233Y-13523D01*
X42209Y-13511D01*
X42161Y-13511D01*
X42137Y-13523D01*
X42126Y-13535D01*
X42114Y-13559D01*
X42114Y-13618D01*
X42126Y-13642D01*
X42137Y-13654D01*
X42161Y-13666D01*
X42209Y-13666D01*
X42233Y-13654D01*
X42245Y-13642D01*
X42256Y-13618D01*
X49743Y-13141D02*
X49660Y-13022D01*
X49601Y-13141D02*
X49601Y-12891D01*
X49696Y-12891D01*
X49720Y-12903D01*
X49731Y-12915D01*
X49743Y-12939D01*
X49743Y-12975D01*
X49731Y-12998D01*
X49720Y-13010D01*
X49696Y-13022D01*
X49601Y-13022D01*
X49886Y-12998D02*
X49862Y-12986D01*
X49851Y-12975D01*
X49839Y-12951D01*
X49839Y-12939D01*
X49851Y-12915D01*
X49862Y-12903D01*
X49886Y-12891D01*
X49934Y-12891D01*
X49958Y-12903D01*
X49970Y-12915D01*
X49981Y-12939D01*
X49981Y-12951D01*
X49970Y-12975D01*
X49958Y-12986D01*
X49934Y-12998D01*
X49886Y-12998D01*
X49862Y-13010D01*
X49851Y-13022D01*
X49839Y-13046D01*
X49839Y-13094D01*
X49851Y-13117D01*
X49862Y-13129D01*
X49886Y-13141D01*
X49934Y-13141D01*
X49958Y-13129D01*
X49970Y-13117D01*
X49981Y-13094D01*
X49981Y-13046D01*
X49970Y-13022D01*
X49958Y-13010D01*
X49934Y-12998D01*
X40731Y-15537D02*
X40612Y-15620D01*
X40731Y-15679D02*
X40481Y-15679D01*
X40481Y-15584D01*
X40493Y-15560D01*
X40505Y-15549D01*
X40529Y-15537D01*
X40565Y-15537D01*
X40588Y-15549D01*
X40600Y-15560D01*
X40612Y-15584D01*
X40612Y-15679D01*
X40481Y-15310D02*
X40481Y-15429D01*
X40600Y-15441D01*
X40588Y-15429D01*
X40576Y-15406D01*
X40576Y-15346D01*
X40588Y-15322D01*
X40600Y-15310D01*
X40624Y-15299D01*
X40684Y-15299D01*
X40707Y-15310D01*
X40719Y-15322D01*
X40731Y-15346D01*
X40731Y-15406D01*
X40719Y-15429D01*
X40707Y-15441D01*
X42566Y-15767D02*
X42447Y-15850D01*
X42566Y-15909D02*
X42316Y-15909D01*
X42316Y-15814D01*
X42328Y-15790D01*
X42340Y-15779D01*
X42364Y-15767D01*
X42400Y-15767D01*
X42423Y-15779D01*
X42435Y-15790D01*
X42447Y-15814D01*
X42447Y-15909D01*
X42400Y-15552D02*
X42566Y-15552D01*
X42304Y-15612D02*
X42483Y-15671D01*
X42483Y-15517D01*
X41401Y-16342D02*
X41282Y-16425D01*
X41401Y-16484D02*
X41151Y-16484D01*
X41151Y-16389D01*
X41163Y-16365D01*
X41175Y-16354D01*
X41199Y-16342D01*
X41235Y-16342D01*
X41258Y-16354D01*
X41270Y-16365D01*
X41282Y-16389D01*
X41282Y-16484D01*
X41151Y-16258D02*
X41151Y-16104D01*
X41246Y-16187D01*
X41246Y-16151D01*
X41258Y-16127D01*
X41270Y-16115D01*
X41294Y-16104D01*
X41354Y-16104D01*
X41377Y-16115D01*
X41389Y-16127D01*
X41401Y-16151D01*
X41401Y-16223D01*
X41389Y-16246D01*
X41377Y-16258D01*
X41351Y-17212D02*
X41232Y-17295D01*
X41351Y-17354D02*
X41101Y-17354D01*
X41101Y-17259D01*
X41113Y-17235D01*
X41125Y-17224D01*
X41149Y-17212D01*
X41185Y-17212D01*
X41208Y-17224D01*
X41220Y-17235D01*
X41232Y-17259D01*
X41232Y-17354D01*
X41125Y-17116D02*
X41113Y-17104D01*
X41101Y-17081D01*
X41101Y-17021D01*
X41113Y-16997D01*
X41125Y-16985D01*
X41149Y-16974D01*
X41173Y-16974D01*
X41208Y-16985D01*
X41351Y-17128D01*
X41351Y-16974D01*
X43463Y-16541D02*
X43380Y-16422D01*
X43321Y-16541D02*
X43321Y-16291D01*
X43416Y-16291D01*
X43440Y-16303D01*
X43451Y-16315D01*
X43463Y-16339D01*
X43463Y-16375D01*
X43451Y-16398D01*
X43440Y-16410D01*
X43416Y-16422D01*
X43321Y-16422D01*
X43701Y-16541D02*
X43559Y-16541D01*
X43630Y-16541D02*
X43630Y-16291D01*
X43606Y-16327D01*
X43582Y-16351D01*
X43559Y-16363D01*
X37609Y-22847D02*
X37597Y-22859D01*
X37562Y-22871D01*
X37538Y-22871D01*
X37502Y-22859D01*
X37478Y-22835D01*
X37467Y-22812D01*
X37455Y-22764D01*
X37455Y-22728D01*
X37467Y-22681D01*
X37478Y-22657D01*
X37502Y-22633D01*
X37538Y-22621D01*
X37562Y-22621D01*
X37597Y-22633D01*
X37609Y-22645D01*
X37847Y-22871D02*
X37705Y-22871D01*
X37776Y-22871D02*
X37776Y-22621D01*
X37752Y-22657D01*
X37728Y-22681D01*
X37705Y-22693D01*
X38085Y-22871D02*
X37943Y-22871D01*
X38014Y-22871D02*
X38014Y-22621D01*
X37990Y-22657D01*
X37966Y-22681D01*
X37943Y-22693D01*
X44848Y-15342D02*
X44836Y-15354D01*
X44801Y-15366D01*
X44777Y-15366D01*
X44741Y-15354D01*
X44717Y-15330D01*
X44706Y-15307D01*
X44694Y-15259D01*
X44694Y-15223D01*
X44706Y-15176D01*
X44717Y-15152D01*
X44741Y-15128D01*
X44777Y-15116D01*
X44801Y-15116D01*
X44836Y-15128D01*
X44848Y-15140D01*
X44932Y-15116D02*
X45098Y-15116D01*
X44991Y-15366D01*
X41227Y-17832D02*
X41239Y-17844D01*
X41251Y-17879D01*
X41251Y-17903D01*
X41239Y-17939D01*
X41215Y-17963D01*
X41192Y-17974D01*
X41144Y-17986D01*
X41108Y-17986D01*
X41061Y-17974D01*
X41037Y-17963D01*
X41013Y-17939D01*
X41001Y-17903D01*
X41001Y-17879D01*
X41013Y-17844D01*
X41025Y-17832D01*
X41001Y-17617D02*
X41001Y-17665D01*
X41013Y-17689D01*
X41025Y-17701D01*
X41061Y-17724D01*
X41108Y-17736D01*
X41204Y-17736D01*
X41227Y-17724D01*
X41239Y-17713D01*
X41251Y-17689D01*
X41251Y-17641D01*
X41239Y-17617D01*
X41227Y-17605D01*
X41204Y-17594D01*
X41144Y-17594D01*
X41120Y-17605D01*
X41108Y-17617D01*
X41096Y-17641D01*
X41096Y-17689D01*
X41108Y-17713D01*
X41120Y-17724D01*
X41144Y-17736D01*
X45463Y-18127D02*
X45451Y-18139D01*
X45416Y-18151D01*
X45392Y-18151D01*
X45356Y-18139D01*
X45332Y-18115D01*
X45321Y-18092D01*
X45309Y-18044D01*
X45309Y-18008D01*
X45321Y-17961D01*
X45332Y-17937D01*
X45356Y-17913D01*
X45392Y-17901D01*
X45416Y-17901D01*
X45451Y-17913D01*
X45463Y-17925D01*
X45690Y-17901D02*
X45571Y-17901D01*
X45559Y-18020D01*
X45571Y-18008D01*
X45594Y-17996D01*
X45654Y-17996D01*
X45678Y-18008D01*
X45690Y-18020D01*
X45701Y-18044D01*
X45701Y-18104D01*
X45690Y-18127D01*
X45678Y-18139D01*
X45654Y-18151D01*
X45594Y-18151D01*
X45571Y-18139D01*
X45559Y-18127D01*
X45318Y-18567D02*
X45306Y-18579D01*
X45271Y-18591D01*
X45247Y-18591D01*
X45211Y-18579D01*
X45187Y-18555D01*
X45176Y-18532D01*
X45164Y-18484D01*
X45164Y-18448D01*
X45176Y-18401D01*
X45187Y-18377D01*
X45211Y-18353D01*
X45247Y-18341D01*
X45271Y-18341D01*
X45306Y-18353D01*
X45318Y-18365D01*
X45533Y-18425D02*
X45533Y-18591D01*
X45473Y-18329D02*
X45414Y-18508D01*
X45568Y-18508D01*
X39777Y-18642D02*
X39789Y-18654D01*
X39801Y-18689D01*
X39801Y-18713D01*
X39789Y-18749D01*
X39765Y-18773D01*
X39742Y-18784D01*
X39694Y-18796D01*
X39658Y-18796D01*
X39611Y-18784D01*
X39587Y-18773D01*
X39563Y-18749D01*
X39551Y-18713D01*
X39551Y-18689D01*
X39563Y-18654D01*
X39575Y-18642D01*
X39551Y-18558D02*
X39551Y-18404D01*
X39646Y-18487D01*
X39646Y-18451D01*
X39658Y-18427D01*
X39670Y-18415D01*
X39694Y-18404D01*
X39754Y-18404D01*
X39777Y-18415D01*
X39789Y-18427D01*
X39801Y-18451D01*
X39801Y-18523D01*
X39789Y-18546D01*
X39777Y-18558D01*
X42757Y-14977D02*
X42769Y-14989D01*
X42781Y-15024D01*
X42781Y-15048D01*
X42769Y-15084D01*
X42745Y-15108D01*
X42722Y-15119D01*
X42674Y-15131D01*
X42638Y-15131D01*
X42591Y-15119D01*
X42567Y-15108D01*
X42543Y-15084D01*
X42531Y-15048D01*
X42531Y-15024D01*
X42543Y-14989D01*
X42555Y-14977D01*
X42555Y-14881D02*
X42543Y-14869D01*
X42531Y-14846D01*
X42531Y-14786D01*
X42543Y-14762D01*
X42555Y-14750D01*
X42579Y-14739D01*
X42603Y-14739D01*
X42638Y-14750D01*
X42781Y-14893D01*
X42781Y-14739D01*
G54D21*
X42317Y-22218D02*
X42150Y-22334D01*
X42317Y-22418D02*
X41967Y-22418D01*
X41967Y-22284D01*
X41983Y-22251D01*
X42000Y-22234D01*
X42033Y-22218D01*
X42083Y-22218D01*
X42117Y-22234D01*
X42133Y-22251D01*
X42150Y-22284D01*
X42150Y-22418D01*
X41967Y-22101D02*
X41967Y-21868D01*
X42317Y-22018D01*
X40392Y-22116D02*
X40392Y-21899D01*
X40525Y-22016D01*
X40525Y-21966D01*
X40542Y-21933D01*
X40558Y-21916D01*
X40592Y-21899D01*
X40675Y-21899D01*
X40708Y-21916D01*
X40725Y-21933D01*
X40742Y-21966D01*
X40742Y-22066D01*
X40725Y-22099D01*
X40708Y-22116D01*
X40392Y-21783D02*
X40392Y-21566D01*
X40525Y-21683D01*
X40525Y-21633D01*
X40542Y-21600D01*
X40558Y-21583D01*
X40592Y-21566D01*
X40675Y-21566D01*
X40708Y-21583D01*
X40725Y-21600D01*
X40742Y-21633D01*
X40742Y-21733D01*
X40725Y-21766D01*
X40708Y-21783D01*
X40742Y-21417D02*
X40508Y-21417D01*
X40542Y-21417D02*
X40525Y-21400D01*
X40508Y-21367D01*
X40508Y-21317D01*
X40525Y-21283D01*
X40558Y-21267D01*
X40742Y-21267D01*
X40558Y-21267D02*
X40525Y-21250D01*
X40508Y-21217D01*
X40508Y-21167D01*
X40525Y-21133D01*
X40558Y-21117D01*
X40742Y-21117D01*
X42837Y-21473D02*
X42670Y-21589D01*
X42837Y-21673D02*
X42487Y-21673D01*
X42487Y-21539D01*
X42503Y-21506D01*
X42520Y-21489D01*
X42553Y-21473D01*
X42603Y-21473D01*
X42637Y-21489D01*
X42653Y-21506D01*
X42670Y-21539D01*
X42670Y-21673D01*
X42487Y-21173D02*
X42487Y-21239D01*
X42503Y-21273D01*
X42520Y-21289D01*
X42570Y-21323D01*
X42637Y-21339D01*
X42770Y-21339D01*
X42803Y-21323D01*
X42820Y-21306D01*
X42837Y-21273D01*
X42837Y-21206D01*
X42820Y-21173D01*
X42803Y-21156D01*
X42770Y-21139D01*
X42687Y-21139D01*
X42653Y-21156D01*
X42637Y-21173D01*
X42620Y-21206D01*
X42620Y-21273D01*
X42637Y-21306D01*
X42653Y-21323D01*
X42687Y-21339D01*
X43942Y-22316D02*
X43942Y-22099D01*
X44075Y-22216D01*
X44075Y-22166D01*
X44092Y-22133D01*
X44108Y-22116D01*
X44142Y-22099D01*
X44225Y-22099D01*
X44258Y-22116D01*
X44275Y-22133D01*
X44292Y-22166D01*
X44292Y-22266D01*
X44275Y-22299D01*
X44258Y-22316D01*
X43942Y-21983D02*
X43942Y-21766D01*
X44075Y-21883D01*
X44075Y-21833D01*
X44092Y-21800D01*
X44108Y-21783D01*
X44142Y-21766D01*
X44225Y-21766D01*
X44258Y-21783D01*
X44275Y-21800D01*
X44292Y-21833D01*
X44292Y-21933D01*
X44275Y-21966D01*
X44258Y-21983D01*
X44292Y-21617D02*
X44058Y-21617D01*
X44092Y-21617D02*
X44075Y-21600D01*
X44058Y-21567D01*
X44058Y-21517D01*
X44075Y-21483D01*
X44108Y-21467D01*
X44292Y-21467D01*
X44108Y-21467D02*
X44075Y-21450D01*
X44058Y-21417D01*
X44058Y-21367D01*
X44075Y-21333D01*
X44108Y-21317D01*
X44292Y-21317D01*
G54D16*
X42953Y-11782D02*
X42953Y-11582D01*
X43029Y-11582D01*
X43048Y-11591D01*
X43057Y-11601D01*
X43067Y-11620D01*
X43067Y-11649D01*
X43057Y-11668D01*
X43048Y-11677D01*
X43029Y-11687D01*
X42953Y-11687D01*
X43248Y-11582D02*
X43153Y-11582D01*
X43143Y-11677D01*
X43153Y-11668D01*
X43172Y-11658D01*
X43219Y-11658D01*
X43238Y-11668D01*
X43248Y-11677D01*
X43257Y-11696D01*
X43257Y-11744D01*
X43248Y-11763D01*
X43238Y-11772D01*
X43219Y-11782D01*
X43172Y-11782D01*
X43153Y-11772D01*
X43143Y-11763D01*
G54D15*
X42075Y-20034D02*
X42063Y-20058D01*
X42039Y-20081D01*
X42004Y-20117D01*
X41992Y-20141D01*
X41992Y-20165D01*
X42051Y-20153D02*
X42039Y-20177D01*
X42015Y-20200D01*
X41968Y-20212D01*
X41885Y-20212D01*
X41837Y-20200D01*
X41813Y-20177D01*
X41801Y-20153D01*
X41801Y-20105D01*
X41813Y-20081D01*
X41837Y-20058D01*
X41885Y-20046D01*
X41968Y-20046D01*
X42015Y-20058D01*
X42039Y-20081D01*
X42051Y-20105D01*
X42051Y-20153D01*
X41825Y-19950D02*
X41813Y-19938D01*
X41801Y-19915D01*
X41801Y-19855D01*
X41813Y-19831D01*
X41825Y-19819D01*
X41849Y-19808D01*
X41873Y-19808D01*
X41908Y-19819D01*
X42051Y-19962D01*
X42051Y-19808D01*
G54D11*
X40836Y-20543D02*
X40821Y-20572D01*
X40821Y-20615D01*
X40836Y-20658D01*
X40864Y-20686D01*
X40893Y-20701D01*
X40950Y-20715D01*
X40993Y-20715D01*
X41050Y-20701D01*
X41079Y-20686D01*
X41107Y-20658D01*
X41121Y-20615D01*
X41121Y-20586D01*
X41107Y-20543D01*
X41093Y-20529D01*
X40993Y-20529D01*
X40993Y-20586D01*
X40850Y-20415D02*
X40836Y-20401D01*
X40821Y-20372D01*
X40821Y-20301D01*
X40836Y-20272D01*
X40850Y-20258D01*
X40879Y-20243D01*
X40907Y-20243D01*
X40950Y-20258D01*
X41121Y-20429D01*
X41121Y-20243D01*
X40821Y-20143D02*
X40821Y-19957D01*
X40936Y-20057D01*
X40936Y-20015D01*
X40950Y-19986D01*
X40964Y-19972D01*
X40993Y-19957D01*
X41064Y-19957D01*
X41093Y-19972D01*
X41107Y-19986D01*
X41121Y-20015D01*
X41121Y-20100D01*
X41107Y-20129D01*
X41093Y-20143D01*
X40821Y-19771D02*
X40821Y-19743D01*
X40836Y-19714D01*
X40850Y-19700D01*
X40879Y-19686D01*
X40936Y-19671D01*
X41007Y-19671D01*
X41064Y-19686D01*
X41093Y-19700D01*
X41107Y-19714D01*
X41121Y-19743D01*
X41121Y-19771D01*
X41107Y-19800D01*
X41093Y-19814D01*
X41064Y-19829D01*
X41007Y-19843D01*
X40936Y-19843D01*
X40879Y-19829D01*
X40850Y-19814D01*
X40836Y-19800D01*
X40821Y-19771D01*
X41121Y-19528D02*
X41121Y-19471D01*
X41107Y-19443D01*
X41093Y-19428D01*
X41050Y-19400D01*
X40993Y-19385D01*
X40879Y-19385D01*
X40850Y-19400D01*
X40836Y-19414D01*
X40821Y-19443D01*
X40821Y-19500D01*
X40836Y-19528D01*
X40850Y-19543D01*
X40879Y-19557D01*
X40950Y-19557D01*
X40979Y-19543D01*
X40993Y-19528D01*
X41007Y-19500D01*
X41007Y-19443D01*
X40993Y-19414D01*
X40979Y-19400D01*
X40950Y-19385D01*
G54D15*
X43020Y-19984D02*
X43008Y-20008D01*
X42984Y-20031D01*
X42949Y-20067D01*
X42937Y-20091D01*
X42937Y-20115D01*
X42996Y-20103D02*
X42984Y-20127D01*
X42960Y-20150D01*
X42913Y-20162D01*
X42830Y-20162D01*
X42782Y-20150D01*
X42758Y-20127D01*
X42746Y-20103D01*
X42746Y-20055D01*
X42758Y-20031D01*
X42782Y-20008D01*
X42830Y-19996D01*
X42913Y-19996D01*
X42960Y-20008D01*
X42984Y-20031D01*
X42996Y-20055D01*
X42996Y-20103D01*
X42996Y-19758D02*
X42996Y-19900D01*
X42996Y-19829D02*
X42746Y-19829D01*
X42782Y-19853D01*
X42806Y-19877D01*
X42818Y-19900D01*
G54D11*
X43686Y-20543D02*
X43671Y-20572D01*
X43671Y-20615D01*
X43686Y-20658D01*
X43714Y-20686D01*
X43743Y-20701D01*
X43800Y-20715D01*
X43843Y-20715D01*
X43900Y-20701D01*
X43929Y-20686D01*
X43957Y-20658D01*
X43971Y-20615D01*
X43971Y-20586D01*
X43957Y-20543D01*
X43943Y-20529D01*
X43843Y-20529D01*
X43843Y-20586D01*
X43700Y-20415D02*
X43686Y-20401D01*
X43671Y-20372D01*
X43671Y-20301D01*
X43686Y-20272D01*
X43700Y-20258D01*
X43729Y-20243D01*
X43757Y-20243D01*
X43800Y-20258D01*
X43971Y-20429D01*
X43971Y-20243D01*
X43671Y-20143D02*
X43671Y-19957D01*
X43786Y-20057D01*
X43786Y-20015D01*
X43800Y-19986D01*
X43814Y-19972D01*
X43843Y-19957D01*
X43914Y-19957D01*
X43943Y-19972D01*
X43957Y-19986D01*
X43971Y-20015D01*
X43971Y-20100D01*
X43957Y-20129D01*
X43943Y-20143D01*
X43671Y-19771D02*
X43671Y-19743D01*
X43686Y-19714D01*
X43700Y-19700D01*
X43729Y-19686D01*
X43786Y-19671D01*
X43857Y-19671D01*
X43914Y-19686D01*
X43943Y-19700D01*
X43957Y-19714D01*
X43971Y-19743D01*
X43971Y-19771D01*
X43957Y-19800D01*
X43943Y-19814D01*
X43914Y-19829D01*
X43857Y-19843D01*
X43786Y-19843D01*
X43729Y-19829D01*
X43700Y-19814D01*
X43686Y-19800D01*
X43671Y-19771D01*
X43971Y-19528D02*
X43971Y-19471D01*
X43957Y-19443D01*
X43943Y-19428D01*
X43900Y-19400D01*
X43843Y-19385D01*
X43729Y-19385D01*
X43700Y-19400D01*
X43686Y-19414D01*
X43671Y-19443D01*
X43671Y-19500D01*
X43686Y-19528D01*
X43700Y-19543D01*
X43729Y-19557D01*
X43800Y-19557D01*
X43829Y-19543D01*
X43843Y-19528D01*
X43857Y-19500D01*
X43857Y-19443D01*
X43843Y-19414D01*
X43829Y-19400D01*
X43800Y-19385D01*
G54D16*
X36863Y-12271D02*
X36863Y-12071D01*
X36939Y-12071D01*
X36958Y-12080D01*
X36967Y-12090D01*
X36977Y-12109D01*
X36977Y-12138D01*
X36967Y-12157D01*
X36958Y-12166D01*
X36939Y-12176D01*
X36863Y-12176D01*
X37091Y-12157D02*
X37072Y-12147D01*
X37063Y-12138D01*
X37053Y-12119D01*
X37053Y-12109D01*
X37063Y-12090D01*
X37072Y-12080D01*
X37091Y-12071D01*
X37129Y-12071D01*
X37148Y-12080D01*
X37158Y-12090D01*
X37167Y-12109D01*
X37167Y-12119D01*
X37158Y-12138D01*
X37148Y-12147D01*
X37129Y-12157D01*
X37091Y-12157D01*
X37072Y-12166D01*
X37063Y-12176D01*
X37053Y-12195D01*
X37053Y-12233D01*
X37063Y-12252D01*
X37072Y-12261D01*
X37091Y-12271D01*
X37129Y-12271D01*
X37148Y-12261D01*
X37158Y-12252D01*
X37167Y-12233D01*
X37167Y-12195D01*
X37158Y-12176D01*
X37148Y-12166D01*
X37129Y-12157D01*
M02*
