G04 (created by PCBNEW-RS274X (2010-03-14)-final) date mar 08 nov 2011 08:15:05 ART*
G01*
G70*
G90*
%MOIN*%
G04 Gerber Fmt 3.4, Leading zero omitted, Abs format*
%FSLAX34Y34*%
G04 APERTURE LIST*
%ADD10C,0.000100*%
%ADD11C,0.010000*%
%ADD12C,0.008000*%
%ADD13C,0.015000*%
%ADD14C,0.020000*%
G04 APERTURE END LIST*
G54D10*
G54D11*
X27744Y-19713D02*
X27744Y-19342D01*
X28049Y-19542D01*
X28049Y-19456D01*
X28087Y-19399D01*
X28125Y-19370D01*
X28201Y-19342D01*
X28391Y-19342D01*
X28468Y-19370D01*
X28506Y-19399D01*
X28544Y-19456D01*
X28544Y-19628D01*
X28506Y-19685D01*
X28468Y-19713D01*
X27744Y-18971D02*
X27744Y-18914D01*
X27782Y-18857D01*
X27820Y-18828D01*
X27896Y-18799D01*
X28049Y-18771D01*
X28239Y-18771D01*
X28391Y-18799D01*
X28468Y-18828D01*
X28506Y-18857D01*
X28544Y-18914D01*
X28544Y-18971D01*
X28506Y-19028D01*
X28468Y-19057D01*
X28391Y-19085D01*
X28239Y-19114D01*
X28049Y-19114D01*
X27896Y-19085D01*
X27820Y-19057D01*
X27782Y-19028D01*
X27744Y-18971D01*
X28506Y-18486D02*
X28544Y-18486D01*
X28620Y-18514D01*
X28658Y-18543D01*
X27744Y-18285D02*
X27744Y-17885D01*
X28544Y-18142D01*
X27744Y-17714D02*
X27744Y-17343D01*
X28049Y-17543D01*
X28049Y-17457D01*
X28087Y-17400D01*
X28125Y-17371D01*
X28201Y-17343D01*
X28391Y-17343D01*
X28468Y-17371D01*
X28506Y-17400D01*
X28544Y-17457D01*
X28544Y-17629D01*
X28506Y-17686D01*
X28468Y-17714D01*
X28010Y-16829D02*
X28544Y-16829D01*
X27706Y-16972D02*
X28277Y-17115D01*
X28277Y-16743D01*
X28544Y-16058D02*
X28010Y-16058D01*
X28087Y-16058D02*
X28049Y-16030D01*
X28010Y-15972D01*
X28010Y-15887D01*
X28049Y-15830D01*
X28125Y-15801D01*
X28544Y-15801D01*
X28125Y-15801D02*
X28049Y-15772D01*
X28010Y-15715D01*
X28010Y-15630D01*
X28049Y-15572D01*
X28125Y-15544D01*
X28544Y-15544D01*
X28544Y-15258D02*
X28010Y-15258D01*
X28087Y-15258D02*
X28049Y-15230D01*
X28010Y-15172D01*
X28010Y-15087D01*
X28049Y-15030D01*
X28125Y-15001D01*
X28544Y-15001D01*
X28125Y-15001D02*
X28049Y-14972D01*
X28010Y-14915D01*
X28010Y-14830D01*
X28049Y-14772D01*
X28125Y-14744D01*
X28544Y-14744D01*
G54D12*
X28800Y-23250D02*
X28800Y-11150D01*
X33100Y-23250D02*
X27640Y-23250D01*
X33100Y-11150D02*
X27640Y-11150D01*
X28800Y-11150D02*
X29030Y-11593D01*
X28800Y-11150D02*
X28570Y-11593D01*
X28800Y-23250D02*
X29030Y-22807D01*
X28800Y-23250D02*
X28570Y-22807D01*
G54D11*
X40805Y-25624D02*
X40519Y-25624D01*
X40490Y-26005D01*
X40519Y-25967D01*
X40576Y-25929D01*
X40719Y-25929D01*
X40776Y-25967D01*
X40805Y-26005D01*
X40833Y-26081D01*
X40833Y-26271D01*
X40805Y-26348D01*
X40776Y-26386D01*
X40719Y-26424D01*
X40576Y-26424D01*
X40519Y-26386D01*
X40490Y-26348D01*
X41204Y-25624D02*
X41261Y-25624D01*
X41318Y-25662D01*
X41347Y-25700D01*
X41376Y-25776D01*
X41404Y-25929D01*
X41404Y-26119D01*
X41376Y-26271D01*
X41347Y-26348D01*
X41318Y-26386D01*
X41261Y-26424D01*
X41204Y-26424D01*
X41147Y-26386D01*
X41118Y-26348D01*
X41090Y-26271D01*
X41061Y-26119D01*
X41061Y-25929D01*
X41090Y-25776D01*
X41118Y-25700D01*
X41147Y-25662D01*
X41204Y-25624D01*
X41689Y-26386D02*
X41689Y-26424D01*
X41661Y-26500D01*
X41632Y-26538D01*
X42261Y-26424D02*
X41918Y-26424D01*
X42090Y-26424D02*
X42090Y-25624D01*
X42033Y-25738D01*
X41975Y-25814D01*
X41918Y-25852D01*
X42775Y-25624D02*
X42661Y-25624D01*
X42604Y-25662D01*
X42575Y-25700D01*
X42518Y-25814D01*
X42489Y-25967D01*
X42489Y-26271D01*
X42518Y-26348D01*
X42546Y-26386D01*
X42604Y-26424D01*
X42718Y-26424D01*
X42775Y-26386D01*
X42804Y-26348D01*
X42832Y-26271D01*
X42832Y-26081D01*
X42804Y-26005D01*
X42775Y-25967D01*
X42718Y-25929D01*
X42604Y-25929D01*
X42546Y-25967D01*
X42518Y-26005D01*
X42489Y-26081D01*
X43375Y-25624D02*
X43089Y-25624D01*
X43060Y-26005D01*
X43089Y-25967D01*
X43146Y-25929D01*
X43289Y-25929D01*
X43346Y-25967D01*
X43375Y-26005D01*
X43403Y-26081D01*
X43403Y-26271D01*
X43375Y-26348D01*
X43346Y-26386D01*
X43289Y-26424D01*
X43146Y-26424D01*
X43089Y-26386D01*
X43060Y-26348D01*
X44117Y-26424D02*
X44117Y-25890D01*
X44117Y-25967D02*
X44145Y-25929D01*
X44203Y-25890D01*
X44288Y-25890D01*
X44345Y-25929D01*
X44374Y-26005D01*
X44374Y-26424D01*
X44374Y-26005D02*
X44403Y-25929D01*
X44460Y-25890D01*
X44545Y-25890D01*
X44603Y-25929D01*
X44631Y-26005D01*
X44631Y-26424D01*
X44917Y-26424D02*
X44917Y-25890D01*
X44917Y-25967D02*
X44945Y-25929D01*
X45003Y-25890D01*
X45088Y-25890D01*
X45145Y-25929D01*
X45174Y-26005D01*
X45174Y-26424D01*
X45174Y-26005D02*
X45203Y-25929D01*
X45260Y-25890D01*
X45345Y-25890D01*
X45403Y-25929D01*
X45431Y-26005D01*
X45431Y-26424D01*
G54D12*
X33100Y-25520D02*
X52850Y-25520D01*
X33100Y-23250D02*
X33100Y-26680D01*
X52850Y-23250D02*
X52850Y-26680D01*
X52850Y-25520D02*
X52407Y-25750D01*
X52850Y-25520D02*
X52407Y-25290D01*
X33100Y-25520D02*
X33543Y-25750D01*
X33100Y-25520D02*
X33543Y-25290D01*
G54D13*
X32789Y-10150D02*
X32775Y-10283D01*
X32737Y-10412D01*
X32673Y-10531D01*
X32588Y-10635D01*
X32485Y-10721D01*
X32366Y-10785D01*
X32238Y-10824D01*
X32104Y-10838D01*
X31971Y-10826D01*
X31842Y-10788D01*
X31723Y-10726D01*
X31618Y-10642D01*
X31532Y-10539D01*
X31467Y-10421D01*
X31427Y-10293D01*
X31412Y-10159D01*
X31423Y-10026D01*
X31460Y-09897D01*
X31521Y-09777D01*
X31605Y-09672D01*
X31707Y-09585D01*
X31825Y-09519D01*
X31953Y-09478D01*
X32086Y-09462D01*
X32219Y-09472D01*
X32349Y-09508D01*
X32469Y-09569D01*
X32575Y-09652D01*
X32663Y-09753D01*
X32729Y-09870D01*
X32771Y-09998D01*
X32788Y-10131D01*
X32789Y-10150D01*
X30722Y-10150D02*
X33478Y-10150D01*
X32100Y-08772D02*
X32100Y-11528D01*
X32789Y-24250D02*
X32775Y-24383D01*
X32737Y-24512D01*
X32673Y-24631D01*
X32588Y-24735D01*
X32485Y-24821D01*
X32366Y-24885D01*
X32238Y-24924D01*
X32104Y-24938D01*
X31971Y-24926D01*
X31842Y-24888D01*
X31723Y-24826D01*
X31618Y-24742D01*
X31532Y-24639D01*
X31467Y-24521D01*
X31427Y-24393D01*
X31412Y-24259D01*
X31423Y-24126D01*
X31460Y-23997D01*
X31521Y-23877D01*
X31605Y-23772D01*
X31707Y-23685D01*
X31825Y-23619D01*
X31953Y-23578D01*
X32086Y-23562D01*
X32219Y-23572D01*
X32349Y-23608D01*
X32469Y-23669D01*
X32575Y-23752D01*
X32663Y-23853D01*
X32729Y-23970D01*
X32771Y-24098D01*
X32788Y-24231D01*
X32789Y-24250D01*
X30722Y-24250D02*
X33478Y-24250D01*
X32100Y-22872D02*
X32100Y-25628D01*
X54539Y-24250D02*
X54525Y-24383D01*
X54487Y-24512D01*
X54423Y-24631D01*
X54338Y-24735D01*
X54235Y-24821D01*
X54116Y-24885D01*
X53988Y-24924D01*
X53854Y-24938D01*
X53721Y-24926D01*
X53592Y-24888D01*
X53473Y-24826D01*
X53368Y-24742D01*
X53282Y-24639D01*
X53217Y-24521D01*
X53177Y-24393D01*
X53162Y-24259D01*
X53173Y-24126D01*
X53210Y-23997D01*
X53271Y-23877D01*
X53355Y-23772D01*
X53457Y-23685D01*
X53575Y-23619D01*
X53703Y-23578D01*
X53836Y-23562D01*
X53969Y-23572D01*
X54099Y-23608D01*
X54219Y-23669D01*
X54325Y-23752D01*
X54413Y-23853D01*
X54479Y-23970D01*
X54521Y-24098D01*
X54538Y-24231D01*
X54539Y-24250D01*
X52472Y-24250D02*
X55228Y-24250D01*
X53850Y-22872D02*
X53850Y-25628D01*
X54539Y-10150D02*
X54525Y-10283D01*
X54487Y-10412D01*
X54423Y-10531D01*
X54338Y-10635D01*
X54235Y-10721D01*
X54116Y-10785D01*
X53988Y-10824D01*
X53854Y-10838D01*
X53721Y-10826D01*
X53592Y-10788D01*
X53473Y-10726D01*
X53368Y-10642D01*
X53282Y-10539D01*
X53217Y-10421D01*
X53177Y-10293D01*
X53162Y-10159D01*
X53173Y-10026D01*
X53210Y-09897D01*
X53271Y-09777D01*
X53355Y-09672D01*
X53457Y-09585D01*
X53575Y-09519D01*
X53703Y-09478D01*
X53836Y-09462D01*
X53969Y-09472D01*
X54099Y-09508D01*
X54219Y-09569D01*
X54325Y-09652D01*
X54413Y-09753D01*
X54479Y-09870D01*
X54521Y-09998D01*
X54538Y-10131D01*
X54539Y-10150D01*
X52472Y-10150D02*
X55228Y-10150D01*
X53850Y-08772D02*
X53850Y-11528D01*
X52850Y-23250D02*
X33100Y-23250D01*
X33100Y-11150D02*
X52850Y-11150D01*
G54D11*
X56435Y-12633D02*
X56435Y-12690D01*
X56397Y-12747D01*
X56359Y-12776D01*
X56283Y-12805D01*
X56130Y-12833D01*
X55940Y-12833D01*
X55788Y-12805D01*
X55711Y-12776D01*
X55673Y-12747D01*
X55635Y-12690D01*
X55635Y-12633D01*
X55673Y-12576D01*
X55711Y-12547D01*
X55788Y-12519D01*
X55940Y-12490D01*
X56130Y-12490D01*
X56283Y-12519D01*
X56359Y-12547D01*
X56397Y-12576D01*
X56435Y-12633D01*
X55673Y-13118D02*
X55635Y-13118D01*
X55559Y-13090D01*
X55521Y-13061D01*
X56435Y-13633D02*
X56435Y-13519D01*
X56397Y-13462D01*
X56359Y-13433D01*
X56245Y-13376D01*
X56092Y-13347D01*
X55788Y-13347D01*
X55711Y-13376D01*
X55673Y-13404D01*
X55635Y-13462D01*
X55635Y-13576D01*
X55673Y-13633D01*
X55711Y-13662D01*
X55788Y-13690D01*
X55978Y-13690D01*
X56054Y-13662D01*
X56092Y-13633D01*
X56130Y-13576D01*
X56130Y-13462D01*
X56092Y-13404D01*
X56054Y-13376D01*
X55978Y-13347D01*
X56435Y-14061D02*
X56435Y-14118D01*
X56397Y-14175D01*
X56359Y-14204D01*
X56283Y-14233D01*
X56130Y-14261D01*
X55940Y-14261D01*
X55788Y-14233D01*
X55711Y-14204D01*
X55673Y-14175D01*
X55635Y-14118D01*
X55635Y-14061D01*
X55673Y-14004D01*
X55711Y-13975D01*
X55788Y-13947D01*
X55940Y-13918D01*
X56130Y-13918D01*
X56283Y-13947D01*
X56359Y-13975D01*
X56397Y-14004D01*
X56435Y-14061D01*
X56435Y-14804D02*
X56435Y-14518D01*
X56054Y-14489D01*
X56092Y-14518D01*
X56130Y-14575D01*
X56130Y-14718D01*
X56092Y-14775D01*
X56054Y-14804D01*
X55978Y-14832D01*
X55788Y-14832D01*
X55711Y-14804D01*
X55673Y-14775D01*
X55635Y-14718D01*
X55635Y-14575D01*
X55673Y-14518D01*
X55711Y-14489D01*
X56435Y-15203D02*
X56435Y-15260D01*
X56397Y-15317D01*
X56359Y-15346D01*
X56283Y-15375D01*
X56130Y-15403D01*
X55940Y-15403D01*
X55788Y-15375D01*
X55711Y-15346D01*
X55673Y-15317D01*
X55635Y-15260D01*
X55635Y-15203D01*
X55673Y-15146D01*
X55711Y-15117D01*
X55788Y-15089D01*
X55940Y-15060D01*
X56130Y-15060D01*
X56283Y-15089D01*
X56359Y-15117D01*
X56397Y-15146D01*
X56435Y-15203D01*
G54D14*
X55199Y-11150D02*
X55199Y-17200D01*
X50400Y-11150D02*
X56719Y-11150D01*
X50400Y-17200D02*
X56719Y-17200D01*
X55199Y-17200D02*
X54969Y-16757D01*
X55199Y-17200D02*
X55429Y-16757D01*
X55199Y-11150D02*
X54969Y-11593D01*
X55199Y-11150D02*
X55429Y-11593D01*
G54D13*
X33100Y-23250D02*
X33100Y-11150D01*
X52850Y-11150D02*
X52850Y-23250D01*
G54D11*
X41258Y-09040D02*
X40915Y-09040D01*
X41087Y-09040D02*
X41087Y-08240D01*
X41030Y-08354D01*
X40972Y-08430D01*
X40915Y-08468D01*
X41543Y-09002D02*
X41543Y-09040D01*
X41515Y-09116D01*
X41486Y-09154D01*
X42087Y-08240D02*
X41801Y-08240D01*
X41772Y-08621D01*
X41801Y-08583D01*
X41858Y-08545D01*
X42001Y-08545D01*
X42058Y-08583D01*
X42087Y-08621D01*
X42115Y-08697D01*
X42115Y-08887D01*
X42087Y-08964D01*
X42058Y-09002D01*
X42001Y-09040D01*
X41858Y-09040D01*
X41801Y-09002D01*
X41772Y-08964D01*
X42486Y-08240D02*
X42543Y-08240D01*
X42600Y-08278D01*
X42629Y-08316D01*
X42658Y-08392D01*
X42686Y-08545D01*
X42686Y-08735D01*
X42658Y-08887D01*
X42629Y-08964D01*
X42600Y-09002D01*
X42543Y-09040D01*
X42486Y-09040D01*
X42429Y-09002D01*
X42400Y-08964D01*
X42372Y-08887D01*
X42343Y-08735D01*
X42343Y-08545D01*
X42372Y-08392D01*
X42400Y-08316D01*
X42429Y-08278D01*
X42486Y-08240D01*
X43057Y-08240D02*
X43114Y-08240D01*
X43171Y-08278D01*
X43200Y-08316D01*
X43229Y-08392D01*
X43257Y-08545D01*
X43257Y-08735D01*
X43229Y-08887D01*
X43200Y-08964D01*
X43171Y-09002D01*
X43114Y-09040D01*
X43057Y-09040D01*
X43000Y-09002D01*
X42971Y-08964D01*
X42943Y-08887D01*
X42914Y-08735D01*
X42914Y-08545D01*
X42943Y-08392D01*
X42971Y-08316D01*
X43000Y-08278D01*
X43057Y-08240D01*
X43628Y-08240D02*
X43685Y-08240D01*
X43742Y-08278D01*
X43771Y-08316D01*
X43800Y-08392D01*
X43828Y-08545D01*
X43828Y-08735D01*
X43800Y-08887D01*
X43771Y-08964D01*
X43742Y-09002D01*
X43685Y-09040D01*
X43628Y-09040D01*
X43571Y-09002D01*
X43542Y-08964D01*
X43514Y-08887D01*
X43485Y-08735D01*
X43485Y-08545D01*
X43514Y-08392D01*
X43542Y-08316D01*
X43571Y-08278D01*
X43628Y-08240D01*
G54D13*
X35100Y-09401D02*
X50100Y-09401D01*
X35100Y-24600D02*
X35100Y-08031D01*
X50100Y-24600D02*
X50100Y-08031D01*
X50100Y-09401D02*
X49657Y-09631D01*
X50100Y-09401D02*
X49657Y-09171D01*
X35100Y-09401D02*
X35543Y-09631D01*
X35100Y-09401D02*
X35543Y-09171D01*
G54D11*
X32742Y-12633D02*
X32742Y-12690D01*
X32704Y-12747D01*
X32666Y-12776D01*
X32590Y-12805D01*
X32437Y-12833D01*
X32247Y-12833D01*
X32095Y-12805D01*
X32018Y-12776D01*
X31980Y-12747D01*
X31942Y-12690D01*
X31942Y-12633D01*
X31980Y-12576D01*
X32018Y-12547D01*
X32095Y-12519D01*
X32247Y-12490D01*
X32437Y-12490D01*
X32590Y-12519D01*
X32666Y-12547D01*
X32704Y-12576D01*
X32742Y-12633D01*
X31980Y-13118D02*
X31942Y-13118D01*
X31866Y-13090D01*
X31828Y-13061D01*
X32742Y-13633D02*
X32742Y-13519D01*
X32704Y-13462D01*
X32666Y-13433D01*
X32552Y-13376D01*
X32399Y-13347D01*
X32095Y-13347D01*
X32018Y-13376D01*
X31980Y-13404D01*
X31942Y-13462D01*
X31942Y-13576D01*
X31980Y-13633D01*
X32018Y-13662D01*
X32095Y-13690D01*
X32285Y-13690D01*
X32361Y-13662D01*
X32399Y-13633D01*
X32437Y-13576D01*
X32437Y-13462D01*
X32399Y-13404D01*
X32361Y-13376D01*
X32285Y-13347D01*
X32742Y-14061D02*
X32742Y-14118D01*
X32704Y-14175D01*
X32666Y-14204D01*
X32590Y-14233D01*
X32437Y-14261D01*
X32247Y-14261D01*
X32095Y-14233D01*
X32018Y-14204D01*
X31980Y-14175D01*
X31942Y-14118D01*
X31942Y-14061D01*
X31980Y-14004D01*
X32018Y-13975D01*
X32095Y-13947D01*
X32247Y-13918D01*
X32437Y-13918D01*
X32590Y-13947D01*
X32666Y-13975D01*
X32704Y-14004D01*
X32742Y-14061D01*
X32742Y-14804D02*
X32742Y-14518D01*
X32361Y-14489D01*
X32399Y-14518D01*
X32437Y-14575D01*
X32437Y-14718D01*
X32399Y-14775D01*
X32361Y-14804D01*
X32285Y-14832D01*
X32095Y-14832D01*
X32018Y-14804D01*
X31980Y-14775D01*
X31942Y-14718D01*
X31942Y-14575D01*
X31980Y-14518D01*
X32018Y-14489D01*
X32742Y-15203D02*
X32742Y-15260D01*
X32704Y-15317D01*
X32666Y-15346D01*
X32590Y-15375D01*
X32437Y-15403D01*
X32247Y-15403D01*
X32095Y-15375D01*
X32018Y-15346D01*
X31980Y-15317D01*
X31942Y-15260D01*
X31942Y-15203D01*
X31980Y-15146D01*
X32018Y-15117D01*
X32095Y-15089D01*
X32247Y-15060D01*
X32437Y-15060D01*
X32590Y-15089D01*
X32666Y-15117D01*
X32704Y-15146D01*
X32742Y-15203D01*
G54D13*
X32951Y-11150D02*
X32951Y-17200D01*
X34200Y-11150D02*
X31581Y-11150D01*
X34200Y-17200D02*
X31581Y-17200D01*
X32951Y-17200D02*
X32721Y-16757D01*
X32951Y-17200D02*
X33181Y-16757D01*
X32951Y-11150D02*
X32721Y-11593D01*
X32951Y-11150D02*
X33181Y-11593D01*
G54D11*
X30739Y-18542D02*
X30739Y-18885D01*
X30739Y-18713D02*
X29939Y-18713D01*
X30053Y-18770D01*
X30129Y-18828D01*
X30167Y-18885D01*
X30701Y-18257D02*
X30739Y-18257D01*
X30815Y-18285D01*
X30853Y-18314D01*
X30015Y-18028D02*
X29977Y-17999D01*
X29939Y-17942D01*
X29939Y-17799D01*
X29977Y-17742D01*
X30015Y-17713D01*
X30091Y-17685D01*
X30167Y-17685D01*
X30282Y-17713D01*
X30739Y-18056D01*
X30739Y-17685D01*
X30739Y-17114D02*
X30739Y-17457D01*
X30739Y-17285D02*
X29939Y-17285D01*
X30053Y-17342D01*
X30129Y-17400D01*
X30167Y-17457D01*
X29939Y-16743D02*
X29939Y-16686D01*
X29977Y-16629D01*
X30015Y-16600D01*
X30091Y-16571D01*
X30244Y-16543D01*
X30434Y-16543D01*
X30586Y-16571D01*
X30663Y-16600D01*
X30701Y-16629D01*
X30739Y-16686D01*
X30739Y-16743D01*
X30701Y-16800D01*
X30663Y-16829D01*
X30586Y-16857D01*
X30434Y-16886D01*
X30244Y-16886D01*
X30091Y-16857D01*
X30015Y-16829D01*
X29977Y-16800D01*
X29939Y-16743D01*
X29939Y-16172D02*
X29939Y-16115D01*
X29977Y-16058D01*
X30015Y-16029D01*
X30091Y-16000D01*
X30244Y-15972D01*
X30434Y-15972D01*
X30586Y-16000D01*
X30663Y-16029D01*
X30701Y-16058D01*
X30739Y-16115D01*
X30739Y-16172D01*
X30701Y-16229D01*
X30663Y-16258D01*
X30586Y-16286D01*
X30434Y-16315D01*
X30244Y-16315D01*
X30091Y-16286D01*
X30015Y-16258D01*
X29977Y-16229D01*
X29939Y-16172D01*
G54D13*
X31100Y-23250D02*
X31100Y-11150D01*
X34200Y-23250D02*
X29730Y-23250D01*
X34200Y-11150D02*
X29730Y-11150D01*
X31100Y-11150D02*
X31330Y-11593D01*
X31100Y-11150D02*
X30870Y-11593D01*
X31100Y-23250D02*
X31330Y-22807D01*
X31100Y-23250D02*
X30870Y-22807D01*
M02*
