G04 (created by PCBNEW-RS274X (2010-03-14)-final) date mar 08 nov 2011 08:15:05 ART*
G01*
G70*
G90*
%MOIN*%
G04 Gerber Fmt 3.4, Leading zero omitted, Abs format*
%FSLAX34Y34*%
G04 APERTURE LIST*
%ADD10C,0.000100*%
%ADD11C,0.015000*%
%ADD12R,0.085000X0.070000*%
%ADD13R,0.126000X0.060000*%
%ADD14R,0.062900X0.070900*%
%ADD15R,0.076700X0.059000*%
%ADD16R,0.059000X0.076700*%
%ADD17R,0.084600X0.070800*%
%ADD18R,0.070800X0.084600*%
%ADD19R,0.075000X0.075000*%
%ADD20C,0.075000*%
%ADD21R,0.141700X0.070800*%
%ADD22R,0.114100X0.212500*%
%ADD23R,0.030700X0.015700*%
%ADD24R,0.040000X0.040000*%
%ADD25R,0.033500X0.011000*%
%ADD26R,0.011000X0.033500*%
%ADD27R,0.009100X0.028500*%
%ADD28C,0.070900*%
%ADD29R,0.035000X0.055000*%
%ADD30R,0.055000X0.035000*%
%ADD31R,0.080000X0.160000*%
%ADD32R,0.036000X0.036000*%
%ADD33C,0.045000*%
%ADD34C,0.038800*%
%ADD35C,0.010000*%
%ADD36C,0.020000*%
%ADD37C,0.030000*%
%ADD38C,0.006900*%
G04 APERTURE END LIST*
G54D10*
G54D11*
X32789Y-10150D02*
X32775Y-10283D01*
X32737Y-10412D01*
X32673Y-10531D01*
X32588Y-10635D01*
X32485Y-10721D01*
X32366Y-10785D01*
X32238Y-10824D01*
X32104Y-10838D01*
X31971Y-10826D01*
X31842Y-10788D01*
X31723Y-10726D01*
X31618Y-10642D01*
X31532Y-10539D01*
X31467Y-10421D01*
X31427Y-10293D01*
X31412Y-10159D01*
X31423Y-10026D01*
X31460Y-09897D01*
X31521Y-09777D01*
X31605Y-09672D01*
X31707Y-09585D01*
X31825Y-09519D01*
X31953Y-09478D01*
X32086Y-09462D01*
X32219Y-09472D01*
X32349Y-09508D01*
X32469Y-09569D01*
X32575Y-09652D01*
X32663Y-09753D01*
X32729Y-09870D01*
X32771Y-09998D01*
X32788Y-10131D01*
X32789Y-10150D01*
X30722Y-10150D02*
X33478Y-10150D01*
X32100Y-08772D02*
X32100Y-11528D01*
X32789Y-24250D02*
X32775Y-24383D01*
X32737Y-24512D01*
X32673Y-24631D01*
X32588Y-24735D01*
X32485Y-24821D01*
X32366Y-24885D01*
X32238Y-24924D01*
X32104Y-24938D01*
X31971Y-24926D01*
X31842Y-24888D01*
X31723Y-24826D01*
X31618Y-24742D01*
X31532Y-24639D01*
X31467Y-24521D01*
X31427Y-24393D01*
X31412Y-24259D01*
X31423Y-24126D01*
X31460Y-23997D01*
X31521Y-23877D01*
X31605Y-23772D01*
X31707Y-23685D01*
X31825Y-23619D01*
X31953Y-23578D01*
X32086Y-23562D01*
X32219Y-23572D01*
X32349Y-23608D01*
X32469Y-23669D01*
X32575Y-23752D01*
X32663Y-23853D01*
X32729Y-23970D01*
X32771Y-24098D01*
X32788Y-24231D01*
X32789Y-24250D01*
X30722Y-24250D02*
X33478Y-24250D01*
X32100Y-22872D02*
X32100Y-25628D01*
X54539Y-24250D02*
X54525Y-24383D01*
X54487Y-24512D01*
X54423Y-24631D01*
X54338Y-24735D01*
X54235Y-24821D01*
X54116Y-24885D01*
X53988Y-24924D01*
X53854Y-24938D01*
X53721Y-24926D01*
X53592Y-24888D01*
X53473Y-24826D01*
X53368Y-24742D01*
X53282Y-24639D01*
X53217Y-24521D01*
X53177Y-24393D01*
X53162Y-24259D01*
X53173Y-24126D01*
X53210Y-23997D01*
X53271Y-23877D01*
X53355Y-23772D01*
X53457Y-23685D01*
X53575Y-23619D01*
X53703Y-23578D01*
X53836Y-23562D01*
X53969Y-23572D01*
X54099Y-23608D01*
X54219Y-23669D01*
X54325Y-23752D01*
X54413Y-23853D01*
X54479Y-23970D01*
X54521Y-24098D01*
X54538Y-24231D01*
X54539Y-24250D01*
X52472Y-24250D02*
X55228Y-24250D01*
X53850Y-22872D02*
X53850Y-25628D01*
X54539Y-10150D02*
X54525Y-10283D01*
X54487Y-10412D01*
X54423Y-10531D01*
X54338Y-10635D01*
X54235Y-10721D01*
X54116Y-10785D01*
X53988Y-10824D01*
X53854Y-10838D01*
X53721Y-10826D01*
X53592Y-10788D01*
X53473Y-10726D01*
X53368Y-10642D01*
X53282Y-10539D01*
X53217Y-10421D01*
X53177Y-10293D01*
X53162Y-10159D01*
X53173Y-10026D01*
X53210Y-09897D01*
X53271Y-09777D01*
X53355Y-09672D01*
X53457Y-09585D01*
X53575Y-09519D01*
X53703Y-09478D01*
X53836Y-09462D01*
X53969Y-09472D01*
X54099Y-09508D01*
X54219Y-09569D01*
X54325Y-09652D01*
X54413Y-09753D01*
X54479Y-09870D01*
X54521Y-09998D01*
X54538Y-10131D01*
X54539Y-10150D01*
X52472Y-10150D02*
X55228Y-10150D01*
X53850Y-08772D02*
X53850Y-11528D01*
X52850Y-23250D02*
X33100Y-23250D01*
X33100Y-11150D02*
X52850Y-11150D01*
X33100Y-23250D02*
X33100Y-11150D01*
X52850Y-11150D02*
X52850Y-23250D01*
G54D12*
X34830Y-12600D03*
X34830Y-14200D03*
G54D13*
X47550Y-22250D03*
X47550Y-19593D03*
X35800Y-19750D03*
X35800Y-22407D03*
G54D14*
X49359Y-12200D03*
X48241Y-12200D03*
X45459Y-12200D03*
X44341Y-12200D03*
G54D15*
X44541Y-13950D03*
X43459Y-13950D03*
G54D16*
X45750Y-20341D03*
X45750Y-19259D03*
G54D15*
X39491Y-19500D03*
X38409Y-19500D03*
G54D17*
X36500Y-18539D03*
X36500Y-17261D03*
G54D18*
X50739Y-21400D03*
X49461Y-21400D03*
G54D17*
X38850Y-17211D03*
X38850Y-18489D03*
G54D19*
X50100Y-20200D03*
G54D20*
X50100Y-19200D03*
X50100Y-18200D03*
X50100Y-17200D03*
X50100Y-16200D03*
X50100Y-15200D03*
X50100Y-14200D03*
G54D19*
X35100Y-18700D03*
G54D20*
X35100Y-17700D03*
X35100Y-16700D03*
X35100Y-15700D03*
G54D21*
X38550Y-15800D03*
X38550Y-12400D03*
G54D22*
X47200Y-14052D03*
X47200Y-17948D03*
G54D23*
X42500Y-18280D03*
G54D24*
X42300Y-17200D03*
X42300Y-17600D03*
X42300Y-18000D03*
X42700Y-18000D03*
X42700Y-17600D03*
X42700Y-17200D03*
G54D25*
X43179Y-17698D03*
X43179Y-17502D03*
X43179Y-17305D03*
X43179Y-17108D03*
X43179Y-16911D03*
X43179Y-18289D03*
X43179Y-18092D03*
X43179Y-17895D03*
X41821Y-17895D03*
X41821Y-18092D03*
X41821Y-18289D03*
X41821Y-16911D03*
X41821Y-17108D03*
X41821Y-17305D03*
X41821Y-17502D03*
X41821Y-17698D03*
G54D26*
X42796Y-16726D03*
X42796Y-18474D03*
X42204Y-18474D03*
G54D27*
X42392Y-16700D03*
G54D23*
X42500Y-16921D03*
G54D27*
X42608Y-16700D03*
X42608Y-18500D03*
G54D26*
X42204Y-16726D03*
G54D27*
X42392Y-18500D03*
G54D28*
X48800Y-18550D03*
X50550Y-12200D03*
X36250Y-15700D03*
G54D29*
X45125Y-13000D03*
X45875Y-13000D03*
X38225Y-21050D03*
X37475Y-21050D03*
X37475Y-20300D03*
X38225Y-20300D03*
X41900Y-14200D03*
X41150Y-14200D03*
X48425Y-13000D03*
X49175Y-13000D03*
G54D30*
X41200Y-15675D03*
X41200Y-14925D03*
X41900Y-14925D03*
X41900Y-15675D03*
G54D29*
X40825Y-16300D03*
X40075Y-16300D03*
X40800Y-17075D03*
X40050Y-17075D03*
X44000Y-16825D03*
X44750Y-16825D03*
X37475Y-21800D03*
X38225Y-21800D03*
X44025Y-15800D03*
X44775Y-15800D03*
X40675Y-17825D03*
X39925Y-17825D03*
X44225Y-17525D03*
X44975Y-17525D03*
X43975Y-18500D03*
X44725Y-18500D03*
X40975Y-18700D03*
X40225Y-18700D03*
G54D30*
X43250Y-15625D03*
X43250Y-14875D03*
G54D31*
X39150Y-21600D03*
X41350Y-21600D03*
X45600Y-21800D03*
X43400Y-21800D03*
G54D28*
X43100Y-12200D03*
G54D32*
X41400Y-19650D03*
X41400Y-20450D03*
X40550Y-20050D03*
X43450Y-20450D03*
X43450Y-19650D03*
X44300Y-20050D03*
G54D28*
X36325Y-12325D03*
G54D33*
X44200Y-15150D03*
X40150Y-15600D03*
X41500Y-19125D03*
X45100Y-20200D03*
X44500Y-20800D03*
X44025Y-19300D03*
X40400Y-19450D03*
X41850Y-16350D03*
X45275Y-16300D03*
X37650Y-19100D03*
X37950Y-18200D03*
X39300Y-13750D03*
X40150Y-13600D03*
G54D34*
X47900Y-15850D03*
X47500Y-16425D03*
G54D33*
X48700Y-17525D03*
X43000Y-18900D03*
X42850Y-20550D03*
X46900Y-12050D03*
X45250Y-14550D03*
X49050Y-20200D03*
X40800Y-12600D03*
X42575Y-13575D03*
X49000Y-22250D03*
X37900Y-17050D03*
X37400Y-17500D03*
X39950Y-20775D03*
X40050Y-20100D03*
X42200Y-21450D03*
X38800Y-20300D03*
G54D35*
X42796Y-16726D02*
X42796Y-16454D01*
X43250Y-16000D02*
X43250Y-15625D01*
X42796Y-16454D02*
X43250Y-16000D01*
X41821Y-17305D02*
X41300Y-17305D01*
X41300Y-17305D02*
X41305Y-17305D01*
G54D36*
X35100Y-15700D02*
X34550Y-16250D01*
X34375Y-17700D02*
X34375Y-16425D01*
X34375Y-16425D02*
X34550Y-16250D01*
X34375Y-20175D02*
X34375Y-17700D01*
X38600Y-22300D02*
X39150Y-21750D01*
X37050Y-22300D02*
X38600Y-22300D01*
X34550Y-20350D02*
X35350Y-21150D01*
X35350Y-21150D02*
X36150Y-21150D01*
X36150Y-21150D02*
X36800Y-21800D01*
X36800Y-21800D02*
X36800Y-22050D01*
X36800Y-22050D02*
X37050Y-22300D01*
X34550Y-20350D02*
X34375Y-20175D01*
G54D35*
X43900Y-15150D02*
X44200Y-15150D01*
X43250Y-15625D02*
X43325Y-15625D01*
X43800Y-15150D02*
X43325Y-15625D01*
X43900Y-15150D02*
X43800Y-15150D01*
X40475Y-15925D02*
X40150Y-15600D01*
X40800Y-17075D02*
X40625Y-17075D01*
X40475Y-16925D02*
X40625Y-17075D01*
X40475Y-16700D02*
X40475Y-16925D01*
X40475Y-15925D02*
X40475Y-16700D01*
X41300Y-18925D02*
X41500Y-19125D01*
X41300Y-18925D02*
X41300Y-18800D01*
G54D37*
X45750Y-20341D02*
X45750Y-21650D01*
X45750Y-21650D02*
X45600Y-21800D01*
G54D36*
X45241Y-20341D02*
X45750Y-20341D01*
X45100Y-20200D02*
X45241Y-20341D01*
X45600Y-21800D02*
X45050Y-21800D01*
X44500Y-21250D02*
X44500Y-20800D01*
X45050Y-21800D02*
X44500Y-21250D01*
G54D35*
X43975Y-19250D02*
X43975Y-18500D01*
X44025Y-19300D02*
X43975Y-19250D01*
G54D36*
X39491Y-19500D02*
X40350Y-19500D01*
X40400Y-19450D02*
X40350Y-19500D01*
X39150Y-21600D02*
X39150Y-20750D01*
X39491Y-20409D02*
X39491Y-19500D01*
X39150Y-20750D02*
X39491Y-20409D01*
G54D35*
X43179Y-18092D02*
X43567Y-18092D01*
X43567Y-18092D02*
X43975Y-18500D01*
X41300Y-17305D02*
X41030Y-17305D01*
X41030Y-17305D02*
X40800Y-17075D01*
X41300Y-18800D02*
X41300Y-18700D01*
X41300Y-18700D02*
X41300Y-18375D01*
X41300Y-18375D02*
X41583Y-18092D01*
X41583Y-18092D02*
X41821Y-18092D01*
G54D36*
X35100Y-17700D02*
X34375Y-17700D01*
X35100Y-17700D02*
X35661Y-17700D01*
X35661Y-17700D02*
X36500Y-18539D01*
G54D35*
X40975Y-18700D02*
X41300Y-18700D01*
G54D36*
X35100Y-15700D02*
X35100Y-15060D01*
X34830Y-14790D02*
X34830Y-14200D01*
X35100Y-15060D02*
X34830Y-14790D01*
G54D35*
X42204Y-16726D02*
X42204Y-16300D01*
X42204Y-16300D02*
X42204Y-16296D01*
X42225Y-14925D02*
X41900Y-14925D01*
X42350Y-15050D02*
X42225Y-14925D01*
X42350Y-16150D02*
X42350Y-15050D01*
X42204Y-16296D02*
X42350Y-16150D01*
X41900Y-14200D02*
X41900Y-14925D01*
X48425Y-13000D02*
X48425Y-13275D01*
X48425Y-13275D02*
X48700Y-13550D01*
X48700Y-13550D02*
X49450Y-13550D01*
X49450Y-13550D02*
X49500Y-13500D01*
X50550Y-12450D02*
X50200Y-12800D01*
X50550Y-12450D02*
X50550Y-12200D01*
X49500Y-13500D02*
X50200Y-12800D01*
X48425Y-13000D02*
X48050Y-13000D01*
X46000Y-13950D02*
X46300Y-13650D01*
X46300Y-13650D02*
X46300Y-12750D01*
X46300Y-12750D02*
X46450Y-12600D01*
X46450Y-12600D02*
X47650Y-12600D01*
X47650Y-12600D02*
X48050Y-13000D01*
X46000Y-13950D02*
X45500Y-13950D01*
X45500Y-13950D02*
X44541Y-13950D01*
X42204Y-16300D02*
X42200Y-16300D01*
X44250Y-16825D02*
X44000Y-16825D01*
X44400Y-16675D02*
X44250Y-16825D01*
X44400Y-16550D02*
X44400Y-16675D01*
X44400Y-16475D02*
X44575Y-16300D01*
X44400Y-16550D02*
X44400Y-16475D01*
X41900Y-16300D02*
X42200Y-16300D01*
X41850Y-16350D02*
X41900Y-16300D01*
X44575Y-16300D02*
X45275Y-16300D01*
X44541Y-13950D02*
X44541Y-13741D01*
X41900Y-13350D02*
X41900Y-14200D01*
X42250Y-13000D02*
X41900Y-13350D01*
X43150Y-13000D02*
X42250Y-13000D01*
X43550Y-13400D02*
X43150Y-13000D01*
X44200Y-13400D02*
X43550Y-13400D01*
X44541Y-13741D02*
X44200Y-13400D01*
X50100Y-15200D02*
X49150Y-15200D01*
X49150Y-15200D02*
X48700Y-14750D01*
X48700Y-14750D02*
X48700Y-13550D01*
X43179Y-17305D02*
X43695Y-17305D01*
X43695Y-17305D02*
X44000Y-17000D01*
X44000Y-17000D02*
X44000Y-16825D01*
X41821Y-17108D02*
X41425Y-17108D01*
X41425Y-17108D02*
X41450Y-17108D01*
X41450Y-17108D02*
X41458Y-17108D01*
X45125Y-13000D02*
X43900Y-13000D01*
X43600Y-12700D02*
X43100Y-12200D01*
X43900Y-13000D02*
X43600Y-12700D01*
X37475Y-19725D02*
X37475Y-20300D01*
X37475Y-19725D02*
X37650Y-19550D01*
X37650Y-19550D02*
X37650Y-19100D01*
X38389Y-17211D02*
X38200Y-17400D01*
X38389Y-17211D02*
X38850Y-17211D01*
X37950Y-17650D02*
X38200Y-17400D01*
X37950Y-18200D02*
X37950Y-17650D01*
X39400Y-16500D02*
X39625Y-16275D01*
X39625Y-15100D02*
X39625Y-16275D01*
X38850Y-16700D02*
X38850Y-17211D01*
X39050Y-16500D02*
X38850Y-16700D01*
X39400Y-16500D02*
X39050Y-16500D01*
X40825Y-16300D02*
X40825Y-15975D01*
X40600Y-15425D02*
X40600Y-15750D01*
X40275Y-15100D02*
X40600Y-15425D01*
X40275Y-15100D02*
X39625Y-15100D01*
X40825Y-15975D02*
X40600Y-15750D01*
X39625Y-15100D02*
X39625Y-15100D01*
X38550Y-12400D02*
X38550Y-13750D01*
X38550Y-13750D02*
X38550Y-14350D01*
X38550Y-14350D02*
X39300Y-15100D01*
X39300Y-15100D02*
X39600Y-15100D01*
X39600Y-15100D02*
X39625Y-15100D01*
X38750Y-12200D02*
X38550Y-12400D01*
G54D37*
X50100Y-17200D02*
X49700Y-17200D01*
X48925Y-16425D02*
X49700Y-17200D01*
X48950Y-16450D02*
X48925Y-16425D01*
X48175Y-16425D02*
X48275Y-16425D01*
X48275Y-16425D02*
X48925Y-16425D01*
G54D35*
X43100Y-12200D02*
X38750Y-12200D01*
X38750Y-12200D02*
X38550Y-12400D01*
X37475Y-20300D02*
X37700Y-20300D01*
X37700Y-21800D02*
X37475Y-21800D01*
X37850Y-21650D02*
X37700Y-21800D01*
X37850Y-20450D02*
X37850Y-21650D01*
X37700Y-20300D02*
X37850Y-20450D01*
G54D37*
X38550Y-13000D02*
X38550Y-12400D01*
X39300Y-13750D02*
X38850Y-13300D01*
X38850Y-13300D02*
X38550Y-13000D01*
X38550Y-12400D02*
X38950Y-12400D01*
X38950Y-12400D02*
X40150Y-13600D01*
G54D35*
X41425Y-17108D02*
X41425Y-17100D01*
X41075Y-16300D02*
X40825Y-16300D01*
X41200Y-16425D02*
X41075Y-16300D01*
X41200Y-16875D02*
X41200Y-16425D01*
X41425Y-17100D02*
X41200Y-16875D01*
G54D37*
X47650Y-16425D02*
X47625Y-16425D01*
X47625Y-16425D02*
X48175Y-16425D01*
X47900Y-15850D02*
X48275Y-16225D01*
X48275Y-16225D02*
X48275Y-16400D01*
X48275Y-16400D02*
X48275Y-16425D01*
X47625Y-16425D02*
X47500Y-16425D01*
G54D35*
X42796Y-18474D02*
X42796Y-18696D01*
X42796Y-18696D02*
X43000Y-18900D01*
X47200Y-18750D02*
X47200Y-17948D01*
G54D37*
X48950Y-19200D02*
X48800Y-19200D01*
X48800Y-19200D02*
X50100Y-19200D01*
X50739Y-21400D02*
X50739Y-19489D01*
X50739Y-19489D02*
X50450Y-19200D01*
X50450Y-19200D02*
X50100Y-19200D01*
X47200Y-17948D02*
X47348Y-17948D01*
X47348Y-17948D02*
X48600Y-19200D01*
X48600Y-19200D02*
X48950Y-19200D01*
G54D35*
X48800Y-18550D02*
X48800Y-19200D01*
X48700Y-17525D02*
X47623Y-17525D01*
X47623Y-17525D02*
X47200Y-17948D01*
G54D38*
X42392Y-16700D02*
X42392Y-16408D01*
X42750Y-15375D02*
X43250Y-14875D01*
X42750Y-16050D02*
X42750Y-15375D01*
X42392Y-16408D02*
X42750Y-16050D01*
X42300Y-17600D02*
X42300Y-18000D01*
X42300Y-17200D02*
X42392Y-17108D01*
X42500Y-20150D02*
X42500Y-18800D01*
X42608Y-18692D02*
X42608Y-18500D01*
X42500Y-18800D02*
X42608Y-18692D01*
G54D35*
X42500Y-20100D02*
X42500Y-20150D01*
X42500Y-20150D02*
X42500Y-20200D01*
X42500Y-20200D02*
X42850Y-20550D01*
G54D38*
X42300Y-18000D02*
X42700Y-18000D01*
X42700Y-17600D02*
X42700Y-18000D01*
X42700Y-17200D02*
X42700Y-17600D01*
X42300Y-17200D02*
X42300Y-17600D01*
X42392Y-18500D02*
X42392Y-18092D01*
X42392Y-18092D02*
X42300Y-18000D01*
X42392Y-16700D02*
X42392Y-17108D01*
X42392Y-17108D02*
X42300Y-17200D01*
X41821Y-17698D02*
X42202Y-17698D01*
X42202Y-17698D02*
X42300Y-17600D01*
G54D35*
X41150Y-14200D02*
X41150Y-14875D01*
X41150Y-14875D02*
X41200Y-14925D01*
X44841Y-11700D02*
X44850Y-11691D01*
X44850Y-11691D02*
X44341Y-12200D01*
X43179Y-17108D02*
X43392Y-17108D01*
X43725Y-16300D02*
X44275Y-16300D01*
X44550Y-15800D02*
X44775Y-15800D01*
X44400Y-15950D02*
X44550Y-15800D01*
X44400Y-16175D02*
X44400Y-15950D01*
X44275Y-16300D02*
X44400Y-16175D01*
X43600Y-16425D02*
X43725Y-16300D01*
X43600Y-16900D02*
X43600Y-16425D01*
X43392Y-17108D02*
X43600Y-16900D01*
X44850Y-11691D02*
X46900Y-11691D01*
X46900Y-11691D02*
X47732Y-11691D01*
X47732Y-11691D02*
X48241Y-12200D01*
X44775Y-15800D02*
X44650Y-15800D01*
X45350Y-16800D02*
X45350Y-17400D01*
X45350Y-17400D02*
X45350Y-17525D01*
X45350Y-17525D02*
X45350Y-17900D01*
X44900Y-18500D02*
X45025Y-18375D01*
X44900Y-18500D02*
X44725Y-18500D01*
X45350Y-17900D02*
X45350Y-18050D01*
X45025Y-18375D02*
X45350Y-18050D01*
X45675Y-16475D02*
X45350Y-16800D01*
X45250Y-15050D02*
X45450Y-15250D01*
X45450Y-15250D02*
X45450Y-15250D01*
X45675Y-15475D02*
X45675Y-16475D01*
X45450Y-15250D02*
X45675Y-15475D01*
X46900Y-11691D02*
X46900Y-12050D01*
X45250Y-14550D02*
X45250Y-15050D01*
G54D36*
X36500Y-16600D02*
X36950Y-16150D01*
X36950Y-14175D02*
X36950Y-16150D01*
X35375Y-12600D02*
X36950Y-14175D01*
X34830Y-12600D02*
X35375Y-12600D01*
X36500Y-16600D02*
X36500Y-17261D01*
G54D35*
X43459Y-13709D02*
X43459Y-13950D01*
X39500Y-17211D02*
X39500Y-17200D01*
X39500Y-17200D02*
X39500Y-17211D01*
G54D37*
X49050Y-20200D02*
X48650Y-20600D01*
X48650Y-20600D02*
X48600Y-20650D01*
G54D35*
X38409Y-19500D02*
X38550Y-19500D01*
X39750Y-18700D02*
X39450Y-19000D01*
X39750Y-18700D02*
X40225Y-18700D01*
X38550Y-19500D02*
X39050Y-19000D01*
X39050Y-19000D02*
X39450Y-19000D01*
X38409Y-19500D02*
X38409Y-19459D01*
G54D36*
X38000Y-18650D02*
X37700Y-18650D01*
X37200Y-18650D02*
X37700Y-18650D01*
X35100Y-16700D02*
X35800Y-16700D01*
X35800Y-16700D02*
X35789Y-16700D01*
G54D37*
X35100Y-18700D02*
X35250Y-18700D01*
X35250Y-18700D02*
X35800Y-19250D01*
G54D36*
X37200Y-19200D02*
X37200Y-18650D01*
X37200Y-18650D02*
X37200Y-18100D01*
X37200Y-18100D02*
X37200Y-18111D01*
X36650Y-19750D02*
X37200Y-19200D01*
X38850Y-18489D02*
X38411Y-18489D01*
X38411Y-18489D02*
X38250Y-18650D01*
X38250Y-18650D02*
X38000Y-18650D01*
G54D35*
X39500Y-17211D02*
X39500Y-17700D01*
X39500Y-17700D02*
X39500Y-17800D01*
X39500Y-17800D02*
X39500Y-18250D01*
X39261Y-18489D02*
X38850Y-18489D01*
X39500Y-18250D02*
X39261Y-18489D01*
G54D36*
X38250Y-18650D02*
X38250Y-19341D01*
X38250Y-19341D02*
X38409Y-19500D01*
G54D35*
X37475Y-21050D02*
X37200Y-21050D01*
X36650Y-20500D02*
X36650Y-19750D01*
X37200Y-21050D02*
X36650Y-20500D01*
G54D37*
X35800Y-19250D02*
X35800Y-19750D01*
G54D36*
X36650Y-19750D02*
X35800Y-19750D01*
G54D37*
X48600Y-20650D02*
X48000Y-20650D01*
X48000Y-20650D02*
X47600Y-21050D01*
X47600Y-21050D02*
X47550Y-21100D01*
X47550Y-21100D02*
X47550Y-22250D01*
G54D36*
X49461Y-21400D02*
X49400Y-21400D01*
X49400Y-21400D02*
X48650Y-20650D01*
X48650Y-20650D02*
X48650Y-20600D01*
X45750Y-19259D02*
X45909Y-19259D01*
X45909Y-19259D02*
X46550Y-19900D01*
X46550Y-19900D02*
X46550Y-20550D01*
X46550Y-20550D02*
X47100Y-21100D01*
X47100Y-21100D02*
X47550Y-21100D01*
G54D35*
X41150Y-12950D02*
X41050Y-12850D01*
X41150Y-12950D02*
X41150Y-14200D01*
X40800Y-12600D02*
X41050Y-12850D01*
X42950Y-13950D02*
X43459Y-13950D01*
X42575Y-13575D02*
X42950Y-13950D01*
G54D36*
X47550Y-22250D02*
X49000Y-22250D01*
X49000Y-22250D02*
X49000Y-22250D01*
G54D35*
X43459Y-13950D02*
X43459Y-14341D01*
X43459Y-14341D02*
X43250Y-14550D01*
X43250Y-14550D02*
X43250Y-14875D01*
X45250Y-15050D02*
X45250Y-15625D01*
X45075Y-15800D02*
X44775Y-15800D01*
X45250Y-15625D02*
X45075Y-15800D01*
X44975Y-17525D02*
X45350Y-17525D01*
X45350Y-16800D02*
X44775Y-16800D01*
X44775Y-16800D02*
X44750Y-16825D01*
X39925Y-17825D02*
X39525Y-17825D01*
X39525Y-17825D02*
X39500Y-17800D01*
X40075Y-16300D02*
X40075Y-17050D01*
X40075Y-17050D02*
X40050Y-17075D01*
X40050Y-17075D02*
X39625Y-17075D01*
X39625Y-17075D02*
X39500Y-17200D01*
G54D36*
X35800Y-16700D02*
X35939Y-16700D01*
X35939Y-16700D02*
X36500Y-17261D01*
X37200Y-18100D02*
X37200Y-17961D01*
X37200Y-17961D02*
X36500Y-17261D01*
G54D35*
X43179Y-17698D02*
X42798Y-17698D01*
X42798Y-17698D02*
X42700Y-17600D01*
X42500Y-18280D02*
X42500Y-18200D01*
X42500Y-18200D02*
X42300Y-18000D01*
X49175Y-13000D02*
X49175Y-12384D01*
X49175Y-12384D02*
X49359Y-12200D01*
X40600Y-19100D02*
X40600Y-19100D01*
X40600Y-18350D02*
X40600Y-19100D01*
X40690Y-18260D02*
X40600Y-18350D01*
X41065Y-18260D02*
X41070Y-18260D01*
X41070Y-18260D02*
X40690Y-18260D01*
X40600Y-19100D02*
X40950Y-19450D01*
X40950Y-20000D02*
X41400Y-20450D01*
X40950Y-19950D02*
X40950Y-20000D01*
X40950Y-19450D02*
X40950Y-19950D01*
X41821Y-17895D02*
X41435Y-17895D01*
X41435Y-17895D02*
X41070Y-18260D01*
G54D37*
X41350Y-21600D02*
X41350Y-21325D01*
X41900Y-19950D02*
X41900Y-20775D01*
X41350Y-21325D02*
X41900Y-20775D01*
X41900Y-19950D02*
X41900Y-19750D01*
X41900Y-19750D02*
X41900Y-19800D01*
X41900Y-19800D02*
X41750Y-19650D01*
X41750Y-19650D02*
X41400Y-19650D01*
G54D35*
X41900Y-19750D02*
X41900Y-18750D01*
X41900Y-18750D02*
X41821Y-18671D01*
X41821Y-18671D02*
X41821Y-18289D01*
G54D37*
X38400Y-15800D02*
X38550Y-15800D01*
X38400Y-15800D02*
X37850Y-16405D01*
X37850Y-16405D02*
X37900Y-16350D01*
X37900Y-16350D02*
X37900Y-17050D01*
G54D36*
X36750Y-22650D02*
X39950Y-22650D01*
X36507Y-22407D02*
X36750Y-22650D01*
X35800Y-22407D02*
X36507Y-22407D01*
X39950Y-22650D02*
X40350Y-22250D01*
G54D37*
X37850Y-16405D02*
X37695Y-16405D01*
X37695Y-16405D02*
X37400Y-16700D01*
X37400Y-16700D02*
X37400Y-17500D01*
X40350Y-20775D02*
X39950Y-20775D01*
X40100Y-20050D02*
X40050Y-20100D01*
X40550Y-20050D02*
X40100Y-20050D01*
X40550Y-20050D02*
X40550Y-20575D01*
X40550Y-20575D02*
X40350Y-20775D01*
G54D36*
X40350Y-22250D02*
X40350Y-20775D01*
G54D37*
X43450Y-20450D02*
X43450Y-21750D01*
X43450Y-21750D02*
X43400Y-21800D01*
G54D35*
X43450Y-20450D02*
X43350Y-20450D01*
X43350Y-20450D02*
X43050Y-20150D01*
X43050Y-20150D02*
X43050Y-19450D01*
X43050Y-19450D02*
X43550Y-18950D01*
X43550Y-18950D02*
X43550Y-18400D01*
X43550Y-18400D02*
X43439Y-18289D01*
X43439Y-18289D02*
X43179Y-18289D01*
G54D36*
X46793Y-19593D02*
X46300Y-19100D01*
X47550Y-19593D02*
X46793Y-19593D01*
X46300Y-19100D02*
X46300Y-18450D01*
G54D37*
X45900Y-18000D02*
X45925Y-17975D01*
X45925Y-17975D02*
X45200Y-18700D01*
X45200Y-18700D02*
X45200Y-19400D01*
X45200Y-19400D02*
X44550Y-20050D01*
X44550Y-20050D02*
X44300Y-20050D01*
G54D36*
X46300Y-18450D02*
X46300Y-18400D01*
X46300Y-18400D02*
X45900Y-18000D01*
G54D37*
X45925Y-17975D02*
X45925Y-16800D01*
X46723Y-14052D02*
X47200Y-14052D01*
X46275Y-14500D02*
X46723Y-14052D01*
X46275Y-16450D02*
X46275Y-14500D01*
X45925Y-16800D02*
X46275Y-16450D01*
G54D38*
X41821Y-17502D02*
X41348Y-17502D01*
X41025Y-17825D02*
X40675Y-17825D01*
X41348Y-17502D02*
X41025Y-17825D01*
G54D35*
X43179Y-17502D02*
X44202Y-17502D01*
X44202Y-17502D02*
X44225Y-17525D01*
X43179Y-16911D02*
X43179Y-16496D01*
X43875Y-15800D02*
X44025Y-15800D01*
X43179Y-16496D02*
X43875Y-15800D01*
X44500Y-19400D02*
X44200Y-19700D01*
X44250Y-18025D02*
X44350Y-18125D01*
X43850Y-18025D02*
X44250Y-18025D01*
X43775Y-19650D02*
X43450Y-19650D01*
X43825Y-19700D02*
X43775Y-19650D01*
X44200Y-19700D02*
X43825Y-19700D01*
X44500Y-19025D02*
X44500Y-19400D01*
X44350Y-18875D02*
X44500Y-19025D01*
X44350Y-18125D02*
X44350Y-18875D01*
X43179Y-17895D02*
X43720Y-17895D01*
X43720Y-17895D02*
X43850Y-18025D01*
X42200Y-18750D02*
X42204Y-18750D01*
X42204Y-18474D02*
X42204Y-18750D01*
X42200Y-21450D02*
X42200Y-20950D01*
X42275Y-20875D02*
X42200Y-20950D01*
X42275Y-19050D02*
X42275Y-20875D01*
X42200Y-18975D02*
X42275Y-19050D01*
X42200Y-18975D02*
X42200Y-18750D01*
X38800Y-20300D02*
X38225Y-20300D01*
X42200Y-18750D02*
X42200Y-18750D01*
X38225Y-20300D02*
X38225Y-21050D01*
X38225Y-21050D02*
X38225Y-21800D01*
X41200Y-15675D02*
X41550Y-15675D01*
X41550Y-15675D02*
X41900Y-15675D01*
X41550Y-15675D02*
X41550Y-15925D01*
X41586Y-16911D02*
X41821Y-16911D01*
X41450Y-16775D02*
X41586Y-16911D01*
X41450Y-16750D02*
X41450Y-16775D01*
X41550Y-15925D02*
X41450Y-16025D01*
X41450Y-16025D02*
X41450Y-16750D01*
X45875Y-13000D02*
X45875Y-12616D01*
X45875Y-12616D02*
X45459Y-12200D01*
M02*
